<svg width="1920" height="1080" viewBox="0 0 1920 1080" fill="none" xmlns="http://www.w3.org/2000/svg">
<path d="M1216.46 713.782L1234.02 645.631L1257.39 614.635L1263.63 653.059L1216.46 713.782Z" stroke="white" stroke-linecap="round" stroke-linejoin="round"/>
<path d="M1067.27 503.27L1041.25 458.906L993.733 457.613L970.239 494.39L1067.27 503.27Z" stroke="#777777" stroke-linecap="round" stroke-linejoin="round"/>
<path d="M1195.63 545.753L1178.5 495.846L1139.16 478.76L1115.25 513.897L1195.63 545.753Z" stroke="#777777" stroke-linecap="round" stroke-linejoin="round"/>
<path d="M777.662 522.739L755.191 488.08L719.194 507.456L704.121 559.555L777.662 522.739Z" stroke="#777777" stroke-linecap="round" stroke-linejoin="round"/>
<path d="M918.721 495.672L895.408 459.865L848.772 463.341L823.544 509.491L918.721 495.672Z" stroke="#777777" stroke-linecap="round" stroke-linejoin="round"/>
<path d="M666.277 673.479L678.226 633.182L712.186 663.223L734.853 731.832L666.277 673.479Z" stroke="white" stroke-linecap="round" stroke-linejoin="round"/>
<path d="M1028.53 774.848L1070.31 704.975L1137.68 693.721L1165.9 741.465L1028.53 774.848Z" stroke="white" stroke-linecap="round" stroke-linejoin="round"/>
<path d="M795.838 755.867L828.163 704.928L901.626 711.165L945.214 778.221L795.838 755.867Z" stroke="white" stroke-linecap="round" stroke-linejoin="round"/>
<path d="M1070.28 704.934L1028.49 774.804L945.234 778.173L901.65 711.121L942.939 639.195L1028.33 636.393L1070.28 704.934Z" stroke="white" stroke-linecap="round" stroke-linejoin="round"/>
<path d="M798.683 638.415L827.811 705.159L796.007 755.748L735.065 731.736L711.734 663.395L743.169 620.162L798.683 638.415Z" stroke="white" stroke-linecap="round" stroke-linejoin="round"/>
<path d="M678.293 633.16L666.341 673.457L655.925 641.226L656.454 573.393L667.234 531.361L678.637 558.59L678.293 633.16Z" stroke="white" stroke-linecap="round" stroke-linejoin="round"/>
<path d="M708.811 479.047L683.984 498.321L666.697 551.2L676.885 584.618L704.308 559.607L718.801 507.354L708.811 479.047Z" stroke="#777777" stroke-linecap="round" stroke-linejoin="round"/>
<path d="M755.233 488.092L777.703 522.751L823.558 509.511L848.787 463.359L829.329 427.355L781.652 438.745L755.233 488.092Z" stroke="#777777" stroke-linecap="round" stroke-linejoin="round"/>
<path d="M921.176 425.512L895.369 459.688L918.744 495.76L970.238 494.477L993.729 457.436L968.409 424.518L921.176 425.512Z" stroke="#777777" stroke-linecap="round" stroke-linejoin="round"/>
<path d="M1041.24 458.923L1067.27 503.288L1115.22 513.911L1139.13 478.773L1112.31 431.594L1062.37 422.447L1041.24 458.923Z" stroke="#777777" stroke-linecap="round" stroke-linejoin="round"/>
<path d="M1207.8 605.557L1234.51 645.764L1216.22 713.702L1165.69 741.362L1138.11 693.919L1161.65 626.609L1207.8 605.557Z" stroke="white" stroke-linecap="round" stroke-linejoin="round"/>
<path d="M1191.71 467.592L1178.85 495.729L1195.46 545.814L1228.32 568.408L1241.4 535.355L1221.57 485.025L1191.71 467.592Z" stroke="#777777" stroke-linecap="round" stroke-linejoin="round"/>
<path d="M1258.84 556.071L1264.01 621.51L1263.57 653.041L1257.32 614.617L1251.69 542.552L1252.78 515.846L1258.84 556.071Z" stroke="white" stroke-linecap="round" stroke-linejoin="round"/>
<path d="M1062.17 566.566L1127.03 567.027L1161.72 626.64L1137.99 693.876L1070.18 704.9L1028.24 636.37L1062.17 566.566Z" stroke="white" stroke-linecap="round" stroke-linejoin="round"/>
<path d="M833.391 575.584L903.317 571.174L942.996 639.165L901.716 711.077L827.94 705.101L798.616 638.446L833.391 575.584Z" stroke="white" stroke-linecap="round" stroke-linejoin="round"/>
<path d="M903.454 571.158L938.414 502.312L1022.18 500.193L1061.94 566.559L1028.34 636.39L942.942 639.193L903.454 571.158Z" stroke="white" stroke-linecap="round" stroke-linejoin="round"/>
<path d="M894.419 442.565L932.342 384.667L1011.1 383.184L1056.78 438.999L1022.17 500.205L938.41 502.324L894.419 442.565Z" stroke="white" stroke-linecap="round" stroke-linejoin="round"/>
<path d="M711.643 518.305L742.88 549.461L743.209 620.23L711.663 663.275L678.47 633.164L678.812 558.603L711.643 518.305Z" stroke="white" stroke-linecap="round" stroke-linejoin="round"/>
<path d="M687.359 471.909L667.418 531.415L656.631 573.443L666.672 551.181L683.996 498.331L693.9 460.857L687.359 471.909Z" stroke="#777777" stroke-linecap="round" stroke-linejoin="round"/>
<path d="M833.303 575.605L798.521 638.48L743.003 620.222L742.676 549.443L797.049 520.83L833.303 575.605Z" stroke="white" stroke-linecap="round" stroke-linejoin="round"/>
<path d="M797.143 520.908L823.831 456.82L894.485 442.648L938.47 502.399L903.312 571.007L833.392 575.674L797.143 520.908Z" stroke="white" stroke-linecap="round" stroke-linejoin="round"/>
<path d="M687.868 472.082L719.393 432.086L733.909 454.118L712.154 518.395L678.57 558.564L667.171 531.336L687.868 472.082Z" stroke="white" stroke-linecap="round" stroke-linejoin="round"/>
<path d="M734.113 454.232L792.006 421.143L823.705 456.791L797.21 520.925L742.841 549.531L711.712 518.172L734.113 454.232Z" stroke="white" stroke-linecap="round" stroke-linejoin="round"/>
<path d="M757.644 381.668L811.356 349.539L830.961 366.824L791.871 421.051L733.974 454.148L719.455 432.114L757.644 381.668Z" stroke="white" stroke-linecap="round" stroke-linejoin="round"/>
<path d="M830.935 366.772L896.375 352.074L932.319 384.615L894.393 442.514L824.053 457.09L791.841 421L830.935 366.772Z" stroke="white" stroke-linecap="round" stroke-linejoin="round"/>
<path d="M769.977 411.131L733.609 432.075L708.775 479.094L718.865 507.265L755.345 488.166L781.766 438.817L769.977 411.131Z" stroke="#777777" stroke-linecap="round" stroke-linejoin="round"/>
<path d="M861.422 390.947L829.368 427.443L848.826 463.447L895.283 459.648L921.22 425.536L906.343 392.644L861.422 390.947Z" stroke="#777777" stroke-linecap="round" stroke-linejoin="round"/>
<path d="M708.642 479.003L733.473 431.986L725.67 418.699L693.706 460.798L683.808 498.275L708.642 479.003Z" stroke="#777777" stroke-linecap="round" stroke-linejoin="round"/>
<path d="M725.828 418.818L756.925 380.113L757.794 381.783L719.61 432.23L687.422 471.79L693.869 460.918L725.828 418.818Z" stroke="white" stroke-linecap="round" stroke-linejoin="round"/>
<path d="M861.569 391.21L853.752 362.293L804.018 372.321L770.286 411.375L781.626 438.705L829.302 427.318L861.569 391.21Z" stroke="#777777" stroke-linecap="round" stroke-linejoin="round"/>
<path d="M804.155 372.476L799.285 354.35L756.977 380.079L725.798 418.838L733.596 432.118L770.004 411.049L804.155 372.476Z" stroke="#777777" stroke-linecap="round" stroke-linejoin="round"/>
<path d="M900.966 334.884L901.385 314.928L849.373 324.142L799.171 354.229L804.047 372.361L853.781 362.331L900.966 334.884Z" stroke="#777777" stroke-linecap="round" stroke-linejoin="round"/>
<path d="M849.339 324.087L854.586 322.201L811.319 349.479L757.607 381.61L757.296 380.459L799.137 354.175L849.339 324.087Z" stroke="white" stroke-linecap="round" stroke-linejoin="round"/>
<path d="M854.391 321.725L909.817 310.283L931.504 323.296L896.197 351.574L831.027 367.003L811.42 349.71L854.391 321.725Z" stroke="white" stroke-linecap="round" stroke-linejoin="round"/>
<path d="M1031.13 387.705L984.987 391.13L968.362 424.542L993.815 457.391L1041.22 459.012L1062.35 422.536L1031.13 387.705Z" stroke="#777777" stroke-linecap="round" stroke-linejoin="round"/>
<path d="M1166.86 422.89L1127.24 403.949L1112.21 431.672L1139.03 478.853L1178.78 495.646L1191.74 467.637L1166.86 422.89Z" stroke="#777777" stroke-linecap="round" stroke-linejoin="round"/>
<path d="M921.169 425.439L968.397 424.445L985.021 391.033L946.344 370.275L906.292 392.548L921.169 425.439Z" stroke="#777777" stroke-linecap="round" stroke-linejoin="round"/>
<path d="M946.381 370.412L947.982 341.76L900.998 335.01L853.81 362.456L861.453 390.867L906.326 392.683L946.381 370.412Z" stroke="#777777" stroke-linecap="round" stroke-linejoin="round"/>
<path d="M1126.97 404.199L1094.76 367.08L1042.27 358.988L1031.03 387.97L1062.4 422.41L1112.33 431.556L1126.97 404.199Z" stroke="#777777" stroke-linecap="round" stroke-linejoin="round"/>
<path d="M1105.57 349.009L1058.71 320.91L1002.95 313.406L997.352 333.334L1042.24 359.028L1094.74 367.12L1105.57 349.009Z" stroke="#777777" stroke-linecap="round" stroke-linejoin="round"/>
<path d="M1002.95 313.349L953.733 304.701L901.383 314.87L900.964 334.829L948.059 342.141L997.35 333.28L1002.95 313.349Z" stroke="#777777" stroke-linecap="round" stroke-linejoin="round"/>
<path d="M953.659 304.214L957.288 301.982L909.795 310.299L854.435 321.695L849.408 324.314L901.418 315.094L953.659 304.214Z" stroke="#777777" stroke-linecap="round" stroke-linejoin="round"/>
<path d="M1228.83 459.29L1215.16 449.018L1221.55 485.037L1241.44 535.337L1258.67 556.13L1252.61 515.907L1228.83 459.29Z" stroke="#777777" stroke-linecap="round" stroke-linejoin="round"/>
<path d="M1202.87 536.768L1224.08 505.055L1251.51 542.572L1257.14 614.63L1234.56 645.643L1207.77 605.624L1202.87 536.768Z" stroke="white" stroke-linecap="round" stroke-linejoin="round"/>
<path d="M1191.86 467.543L1221.72 484.973L1215.34 448.951L1180.02 409.4L1166.98 422.797L1191.86 467.543Z" stroke="#777777" stroke-linecap="round" stroke-linejoin="round"/>
<path d="M1179.91 409.54L1151.43 372.819L1105.47 349.131L1094.64 367.236L1127.22 403.868L1166.87 422.931L1179.91 409.54Z" stroke="#777777" stroke-linecap="round" stroke-linejoin="round"/>
<path d="M1223.56 505.169L1197.21 443.739L1201.29 421.875L1228.35 459.478L1252.84 515.816L1251.76 542.521L1223.56 505.169Z" stroke="white" stroke-linecap="round" stroke-linejoin="round"/>
<path d="M1207.99 605.605L1161.84 626.662L1127.16 567.038L1154.43 511.498L1203.09 536.74L1207.99 605.605Z" stroke="white" stroke-linecap="round" stroke-linejoin="round"/>
<path d="M1154.31 511.581L1127.04 567.113L1062.16 566.399L1022.08 500.284L1056.69 439.086L1123.27 450.037L1154.31 511.581Z" stroke="white" stroke-linecap="round" stroke-linejoin="round"/>
<path d="M1201.08 422.026L1158.29 374.375L1151.49 372.852L1179.87 409.522L1215.19 449.074L1228.77 459.176L1201.08 422.026Z" stroke="white" stroke-linecap="round" stroke-linejoin="round"/>
<path d="M1123.38 450.004L1144.77 413.852L1197 443.863L1224.01 504.933L1202.91 536.838L1154.25 511.602L1123.38 450.004Z" stroke="white" stroke-linecap="round" stroke-linejoin="round"/>
<path d="M1144.92 413.753L1099.76 362.051L1109.19 344.537L1158.43 374.257L1201.22 421.906L1197.14 443.771L1144.92 413.753Z" stroke="white" stroke-linecap="round" stroke-linejoin="round"/>
<path d="M1109.22 344.477L1061.09 319.033L1058.74 320.854L1105.6 348.955L1151.14 373.202L1158.46 374.199L1109.22 344.477Z" stroke="#777777" stroke-linecap="round" stroke-linejoin="round"/>
<path d="M1122.99 450.311L1056.81 438.946L1011.13 383.129L1037.78 349.668L1099.79 361.998L1144.95 413.702L1122.99 450.311Z" stroke="white" stroke-linecap="round" stroke-linejoin="round"/>
<path d="M1037.86 349.193L1011.09 383.364L932.342 384.848L896.321 351.597L931.439 323.29L995.915 322.293L1037.86 349.193Z" stroke="white" stroke-linecap="round" stroke-linejoin="round"/>
<path d="M995.857 322.301L1009.13 308.82L1061.28 318.557L1109.12 344.708L1099.69 362.231L1037.97 349.167L995.857 322.301Z" stroke="white" stroke-linecap="round" stroke-linejoin="round"/>
<path d="M995.924 322.098L931.44 323.094L909.754 310.089L957.249 301.779L1009.2 308.626L995.924 322.098Z" stroke="white" stroke-linecap="round" stroke-linejoin="round"/>
<path d="M1061.22 318.528L1009.16 308.834L957.217 301.982L953.786 304.211L1002.92 313.572L1058.68 321.08L1061.22 318.528Z" stroke="#777777" stroke-linecap="round" stroke-linejoin="round"/>
<path d="M1264.07 621.506L1258.9 556.067L1240.98 535.461L1228.52 568.357L1264.07 621.506Z" stroke="#777777" stroke-linecap="round" stroke-linejoin="round"/>
<path d="M1201.08 422.026L1158.29 374.375L1151.49 372.852L1179.87 409.522L1215.19 449.074L1228.77 459.176L1201.08 422.026Z" stroke="#777777" stroke-linecap="round" stroke-linejoin="round"/>
<path d="M849.339 324.087L854.586 322.201L811.319 349.479L757.607 381.61L757.296 380.459L799.137 354.175L849.339 324.087Z" stroke="white" stroke-linecap="round" stroke-linejoin="round"/>
<path d="M725.828 418.818L756.925 380.113L757.794 381.783L719.61 432.23L687.422 471.79L693.869 460.918L725.828 418.818Z" stroke="white" stroke-linecap="round" stroke-linejoin="round"/>
<path d="M1258.84 556.071L1264.01 621.51L1263.57 653.041L1257.32 614.617L1251.69 542.552L1252.78 515.846L1258.84 556.071Z" stroke="white" stroke-linecap="round" stroke-linejoin="round"/>
<path d="M995.924 322.098L931.44 323.094L909.754 310.089L957.249 301.779L1009.2 308.626L995.924 322.098Z" stroke="white" stroke-linecap="round" stroke-linejoin="round"/>
<path d="M1223.56 505.169L1197.21 443.739L1201.29 421.875L1228.35 459.478L1252.84 515.816L1251.76 542.521L1223.56 505.169Z" stroke="white" stroke-linecap="round" stroke-linejoin="round"/>
<path d="M995.857 322.301L1009.13 308.82L1061.28 318.557L1109.12 344.708L1099.69 362.231L1037.97 349.167L995.857 322.301Z" stroke="white" stroke-linecap="round" stroke-linejoin="round"/>
<path d="M1144.92 413.753L1099.76 362.051L1109.19 344.537L1158.43 374.257L1201.22 421.906L1197.14 443.771L1144.92 413.753Z" stroke="white" stroke-linecap="round" stroke-linejoin="round"/>
<path d="M1216.46 713.782L1234.02 645.631L1257.39 614.635L1263.63 653.059L1216.46 713.782Z" stroke="white" stroke-linecap="round" stroke-linejoin="round"/>
<path d="M854.391 321.725L909.817 310.283L931.504 323.296L896.197 351.574L831.027 367.003L811.42 349.71L854.391 321.725Z" stroke="white" stroke-linecap="round" stroke-linejoin="round"/>
<path d="M687.868 472.082L719.393 432.086L733.909 454.118L712.154 518.395L678.57 558.564L667.171 531.336L687.868 472.082Z" stroke="white" stroke-linecap="round" stroke-linejoin="round"/>
<path d="M757.644 381.668L811.356 349.539L830.961 366.824L791.871 421.051L733.974 454.148L719.455 432.114L757.644 381.668Z" stroke="white" stroke-linecap="round" stroke-linejoin="round"/>
<path d="M666.277 673.479L678.226 633.182L712.186 663.223L734.853 731.832L666.277 673.479Z" stroke="white" stroke-linecap="round" stroke-linejoin="round"/>
<path d="M1202.87 536.768L1224.08 505.055L1251.51 542.572L1257.14 614.63L1234.56 645.643L1207.77 605.624L1202.87 536.768Z" stroke="white" stroke-linecap="round" stroke-linejoin="round"/>
<path d="M1037.86 349.193L1011.09 383.364L932.342 384.848L896.321 351.597L931.439 323.29L995.915 322.293L1037.86 349.193Z" stroke="white" stroke-linecap="round" stroke-linejoin="round"/>
<path d="M1123.38 450.004L1144.77 413.852L1197 443.863L1224.01 504.933L1202.91 536.838L1154.25 511.602L1123.38 450.004Z" stroke="white" stroke-linecap="round" stroke-linejoin="round"/>
<path d="M711.643 518.305L742.88 549.461L743.209 620.23L711.663 663.275L678.47 633.164L678.812 558.603L711.643 518.305Z" stroke="white" stroke-linecap="round" stroke-linejoin="round"/>
<path d="M1122.99 450.311L1056.81 438.946L1011.13 383.129L1037.78 349.668L1099.79 361.998L1144.95 413.702L1122.99 450.311Z" stroke="white" stroke-linecap="round" stroke-linejoin="round"/>
<path d="M1207.8 605.557L1234.51 645.764L1216.22 713.702L1165.69 741.362L1138.11 693.919L1161.65 626.609L1207.8 605.557Z" stroke="white" stroke-linecap="round" stroke-linejoin="round"/>
<path d="M1207.99 605.605L1161.84 626.662L1127.16 567.038L1154.43 511.498L1203.09 536.74L1207.99 605.605Z" stroke="white" stroke-linecap="round" stroke-linejoin="round"/>
<path d="M734.113 454.232L792.006 421.143L823.705 456.791L797.21 520.925L742.841 549.531L711.712 518.172L734.113 454.232Z" stroke="white" stroke-linecap="round" stroke-linejoin="round"/>
<path d="M830.935 366.772L896.375 352.074L932.319 384.615L894.393 442.514L824.053 457.09L791.841 421L830.935 366.772Z" stroke="white" stroke-linecap="round" stroke-linejoin="round"/>
<path d="M798.683 638.415L827.811 705.159L796.007 755.748L735.065 731.736L711.734 663.395L743.169 620.162L798.683 638.415Z" stroke="white" stroke-linecap="round" stroke-linejoin="round"/>
<path d="M833.303 575.605L798.521 638.48L743.003 620.222L742.676 549.443L797.049 520.83L833.303 575.605Z" stroke="white" stroke-linecap="round" stroke-linejoin="round"/>
<path d="M1028.53 774.848L1070.31 704.975L1137.68 693.721L1165.9 741.465L1028.53 774.848Z" stroke="white" stroke-linecap="round" stroke-linejoin="round"/>
<path d="M1154.31 511.581L1127.04 567.113L1062.16 566.399L1022.08 500.284L1056.69 439.086L1123.27 450.037L1154.31 511.581Z" stroke="white" stroke-linecap="round" stroke-linejoin="round"/>
<path d="M894.419 442.565L932.342 384.667L1011.1 383.184L1056.78 438.999L1022.17 500.205L938.41 502.324L894.419 442.565Z" stroke="white" stroke-linecap="round" stroke-linejoin="round"/>
<path d="M795.838 755.867L828.163 704.928L901.626 711.165L945.214 778.221L795.838 755.867Z" stroke="white" stroke-linecap="round" stroke-linejoin="round"/>
<path d="M797.143 520.908L823.831 456.82L894.485 442.648L938.47 502.399L903.312 571.007L833.392 575.674L797.143 520.908Z" stroke="white" stroke-linecap="round" stroke-linejoin="round"/>
<path d="M1062.17 566.566L1127.03 567.027L1161.72 626.64L1137.99 693.876L1070.18 704.9L1028.24 636.37L1062.17 566.566Z" stroke="white" stroke-linecap="round" stroke-linejoin="round"/>
<path d="M833.391 575.584L903.317 571.174L942.996 639.165L901.716 711.077L827.94 705.101L798.616 638.446L833.391 575.584Z" stroke="white" stroke-linecap="round" stroke-linejoin="round"/>
<path d="M903.454 571.158L938.414 502.312L1022.18 500.193L1061.94 566.559L1028.34 636.39L942.942 639.193L903.454 571.158Z" stroke="white" stroke-linecap="round" stroke-linejoin="round"/>
<path d="M1070.28 704.934L1028.49 774.804L945.234 778.173L901.65 711.121L942.939 639.195L1028.33 636.393L1070.28 704.934Z" stroke="white" stroke-linecap="round" stroke-linejoin="round"/>
<path d="M676.74 584.858L666.684 551.25L656.454 573.674L655.925 641.507L676.74 584.858Z" stroke="#777777" stroke-width="1.33333" stroke-linecap="round" stroke-linejoin="round"/>
<path d="M678.293 633.16L666.341 673.457L655.925 641.226L656.454 573.393L667.234 531.361L678.637 558.59L678.293 633.16Z" stroke="white" stroke-linecap="round" stroke-linejoin="round"/>
</svg>
