<svg width="2560" height="1440" viewBox="0 0 2560 1440" fill="none" xmlns="http://www.w3.org/2000/svg">
<path d="M2420.43 78.5306H2483.79V7.25391H2420.43V78.5306Z" fill="#373737"/>
<path d="M2293.74 78.5072H2357.1V7.23047H2293.74V78.5072Z" fill="#404040"/>
<path d="M2230.36 78.5267H2293.72V7.25H2230.36V78.5267Z" fill="#4F4F4F"/>
<path d="M2167.01 78.5189H2230.36V7.24219H2167.01V78.5189Z" fill="#363636"/>
<path d="M1976.92 78.4915H2040.28V7.21484H1976.92V78.4915Z" fill="#323232"/>
<path d="M1913.6 78.472H1976.95V7.19531H1913.6V78.472Z" fill="#3A3A3A"/>
<path d="M1850.22 78.5345H1913.58V7.25781H1850.22V78.5345Z" fill="#2E2E2E"/>
<path d="M1786.84 78.4955H1850.2V7.21875H1786.84V78.4955Z" fill="#1A1A1A"/>
<path d="M1660.17 78.5033H1723.52V7.22656H1660.17V78.5033Z" fill="#2C2C2C"/>
<path d="M1596.79 78.515H1660.15V7.23828H1596.79V78.515Z" fill="#363636"/>
<path d="M1533.46 78.5072H1596.81V7.23047H1533.46V78.5072Z" fill="#181818"/>
<path d="M1470.08 78.5189H1533.44V7.24219H1470.08V78.5189Z" fill="#2A2A2A"/>
<path d="M1406.72 78.5228H1470.08V7.24609H1406.72V78.5228Z" fill="#2A2A2A"/>
<path d="M1280.05 78.5267H1343.41V7.25H1280.05V78.5267Z" fill="#0C0C0C"/>
<path d="M1216.65 78.5267H1280.01V7.25H1216.65V78.5267Z" fill="#121212"/>
<path d="M1153.28 78.4994H1216.64V7.22266H1153.28V78.4994Z" fill="#1F1F1F"/>
<path d="M1089.94 78.4837H1153.3V7.20703H1089.94V78.4837Z" fill="#262626"/>
<path d="M963.164 78.4095H1026.52V7.13281H963.164V78.4095Z" fill="#393939"/>
<path d="M899.948 78.4954H963.305V7.21875H899.948V78.4954Z" fill="#474747"/>
<path d="M773.14 78.5033H836.497V7.22656H773.14V78.5033Z" fill="#3D3D3D"/>
<path d="M709.79 78.515H773.147V7.23828H709.79V78.515Z" fill="#4B4B4B"/>
<path d="M646.439 78.5423H709.797V7.26562H646.439V78.5423Z" fill="#4F4F4F"/>
<path d="M583.096 78.4759H646.453V7.19922H583.096V78.4759Z" fill="#232323"/>
<path d="M456.363 78.5189H519.72V7.24219H456.363V78.5189Z" fill="#1C1C1C"/>
<path d="M393.015 78.5228H456.372V7.24609H393.015V78.5228Z" fill="#282828"/>
<path d="M266.292 78.5228H329.649V7.24609H266.292V78.5228Z" fill="#232323"/>
<path d="M202.93 78.554H266.287V7.27734H202.93V78.554Z" fill="#131313"/>
<path d="M139.588 78.5306H202.945V7.25391H139.588V78.5306Z" fill="#4C4C4C"/>
<path d="M12.8521 78.4798H76.2091V7.20312H12.8521V78.4798Z" fill="#090909"/>
<path d="M2230.36 149.792H2293.72V78.5156H2230.36V149.792Z" fill="#2D2D2D"/>
<path d="M2167.01 149.804H2230.36V78.5273H2167.01V149.804Z" fill="#454545"/>
<path d="M2040.29 149.792H2103.65V78.5156H2040.29V149.792Z" fill="#414141"/>
<path d="M1976.93 149.796H2040.29V78.5195H1976.93V149.796Z" fill="#464646"/>
<path d="M1913.58 149.8H1976.94V78.5234H1913.58V149.8Z" fill="#464646"/>
<path d="M1786.86 149.8H1850.22V78.5234H1786.86V149.8Z" fill="#414141"/>
<path d="M1723.51 149.8H1786.87V78.5234H1723.51V149.8Z" fill="#505050"/>
<path d="M1660.15 149.8H1723.51V78.5234H1660.15V149.8Z" fill="#4D4D4D"/>
<path d="M1533.44 149.796H1596.79V78.5195H1533.44V149.796Z" fill="#373737"/>
<path d="M1470.08 149.8H1533.44V78.5234H1470.08V149.8Z" fill="#1C1C1C"/>
<path d="M1343.34 149.769H1406.69V78.4922H1343.34V149.769Z" fill="#2C2C2C"/>
<path d="M1280.04 149.792H1343.4V78.5156H1280.04V149.792Z" fill="#303030"/>
<path d="M1216.65 149.792H1280.01V78.5156H1216.65V149.792Z" fill="#444444"/>
<path d="M1153.29 149.796H1216.65V78.5195H1153.29V149.796Z" fill="#4B4B4B"/>
<path d="M1089.94 149.796H1153.29V78.5195H1089.94V149.796Z" fill="#2E2E2E"/>
<path d="M899.876 149.788H963.233V78.5117H899.876V149.788Z" fill="#2A2A2A"/>
<path d="M836.487 149.804H899.844V78.5273H836.487V149.804Z" fill="#3E3E3E"/>
<path d="M773.172 149.82H836.529V78.543H773.172V149.82Z" fill="#2E2E2E"/>
<path d="M709.795 149.804H773.152V78.5273H709.795V149.804Z" fill="#1E1E1E"/>
<path d="M646.437 149.781H709.794V78.5039H646.437V149.781Z" fill="#323232"/>
<path d="M393.007 149.792H456.364V78.5156H393.007V149.792Z" fill="#383838"/>
<path d="M329.654 149.8H393.011V78.5234H329.654V149.8Z" fill="#3F3F3F"/>
<path d="M266.292 149.812H329.649V78.5352H266.292V149.812Z" fill="#404040"/>
<path d="M202.921 149.769H266.278V78.4922H202.921V149.769Z" fill="#1A1A1A"/>
<path d="M2483.8 221.097H2547.15V149.82H2483.8V221.097Z" fill="#1A1A1A"/>
<path d="M2420.44 221.074H2483.79V149.797H2420.44V221.074Z" fill="#292929"/>
<path d="M2357.04 221.089H2420.4V149.812H2357.04V221.089Z" fill="#1D1D1D"/>
<path d="M2293.76 221.07H2357.11V149.793H2293.76V221.07Z" fill="#2C2C2C"/>
<path d="M2230.36 221.077H2293.72V149.801H2230.36V221.077Z" fill="#4A4A4A"/>
<path d="M2167.01 221.074H2230.36V149.797H2167.01V221.074Z" fill="#505050"/>
<path d="M2040.29 221.07H2103.65V149.793H2040.29V221.07Z" fill="#414141"/>
<path d="M1976.93 221.117H2040.29V149.84H1976.93V221.117Z" fill="#393939"/>
<path d="M1913.56 221.202H1976.92V149.926H1913.56V221.202Z" fill="#454545"/>
<path d="M1850.24 221.081H1913.6V149.805H1850.24V221.081Z" fill="#424242"/>
<path d="M1786.86 221.07H1850.22V149.793H1786.86V221.07Z" fill="#1D1D1D"/>
<path d="M1723.51 221.07H1786.87V149.793H1723.51V221.07Z" fill="#0C0C0C"/>
<path d="M1533.44 221.183H1596.8V149.906H1533.44V221.183Z" fill="#111111"/>
<path d="M1470.1 221.089H1533.45V149.812H1470.1V221.089Z" fill="#181818"/>
<path d="M1406.72 221.066H1470.07V149.789H1406.72V221.066Z" fill="#030303"/>
<path d="M1280.01 221.085H1343.37V149.809H1280.01V221.085Z" fill="#050505"/>
<path d="M1153.3 221.074H1216.65V149.797H1153.3V221.074Z" fill="#2E2E2E"/>
<path d="M1026.58 221.074H1089.94V149.797H1026.58V221.074Z" fill="#272727"/>
<path d="M963.219 221.066H1026.58V149.789H963.219V221.066Z" fill="#272727"/>
<path d="M899.869 221.077H963.226V149.801H899.869V221.077Z" fill="#3B3B3B"/>
<path d="M836.509 221.081H899.866V149.805H836.509V221.081Z" fill="#444444"/>
<path d="M773.138 221.14H836.495V149.863H773.138V221.14Z" fill="#353535"/>
<path d="M709.792 221.07H773.15V149.793H709.792V221.07Z" fill="#3E3E3E"/>
<path d="M583.084 221.074H646.441V149.797H583.084V221.074Z" fill="#434343"/>
<path d="M456.381 221.042H519.738V149.766H456.381V221.042Z" fill="#383838"/>
<path d="M202.926 221.117H266.283V149.84H202.926V221.117Z" fill="#393939"/>
<path d="M139.602 221.085H202.959V149.809H139.602V221.085Z" fill="#0F0F0F"/>
<path d="M76.2246 221.058H139.582V149.781H76.2246V221.058Z" fill="#383838"/>
<path d="M12.8667 221.07H76.2238V149.793H12.8667V221.07Z" fill="#4C4C4C"/>
<path d="M2483.82 292.327H2547.18V221.051H2483.82V292.327Z" fill="#454545"/>
<path d="M2357.05 292.327H2420.41V221.051H2357.05V292.327Z" fill="#303030"/>
<path d="M2293.75 292.343H2357.1V221.066H2293.75V292.343Z" fill="#303030"/>
<path d="M2230.36 292.343H2293.71V221.066H2230.36V292.343Z" fill="#3A3A3A"/>
<path d="M2167.01 292.359H2230.37V221.082H2167.01V292.359Z" fill="#2E2E2E"/>
<path d="M2040.3 292.347H2103.65V221.07H2040.3V292.347Z" fill="#161616"/>
<path d="M1343.37 221.07H1406.73V149.793H1343.37V221.07Z" fill="#2F2F2F"/>
<path d="M1976.93 292.32H2040.28V221.043H1976.93V292.32Z" fill="#575757"/>
<path d="M1913.57 292.226H1976.93V220.949H1913.57V292.226Z" fill="#555555"/>
<path d="M1850.2 292.37H1913.56V221.094H1850.2V292.37Z" fill="#565656"/>
<path d="M1660.15 221.077H1723.51V149.801H1660.15V221.077Z" fill="#383838"/>
<path d="M1786.9 292.378H1850.26V221.102H1786.9V292.378Z" fill="#161616"/>
<path d="M1660.16 292.347H1723.52V221.07H1660.16V292.347Z" fill="#2E2E2E"/>
<path d="M1596.77 292.331H1660.12V221.055H1596.77V292.331Z" fill="#3B3B3B"/>
<path d="M1406.7 292.351H1470.06V221.074H1406.7V292.351Z" fill="#2E2E2E"/>
<path d="M1343.34 292.351H1406.7V221.074H1343.34V292.351Z" fill="#252525"/>
<path d="M1216.64 292.343H1280V221.066H1216.64V292.343Z" fill="#2D2D2D"/>
<path d="M1153.28 292.363H1216.63V221.086H1153.28V292.363Z" fill="#353535"/>
<path d="M1089.95 292.425H1153.3V221.148H1089.95V292.425Z" fill="#2B2B2B"/>
<path d="M1026.59 292.355H1089.95V221.078H1026.59V292.355Z" fill="#383838"/>
<path d="M963.204 292.367H1026.56V221.09H963.204V292.367Z" fill="#444444"/>
<path d="M836.477 292.331H899.834V221.055H836.477V292.331Z" fill="#383838"/>
<path d="M773.162 292.269H836.519V220.992H773.162V292.269Z" fill="#252525"/>
<path d="M646.441 292.367H709.798V221.09H646.441V292.367Z" fill="#040404"/>
<path d="M583.104 292.359H646.462V221.082H583.104V292.359Z" fill="#181818"/>
<path d="M519.73 292.316H583.087V221.039H519.73V292.316Z" fill="#272727"/>
<path d="M456.367 292.343H519.724V221.066H456.367V292.343Z" fill="#292929"/>
<path d="M329.651 292.351H393.008V221.074H329.651V292.351Z" fill="#4A4A4A"/>
<path d="M266.299 292.382H329.656V221.105H266.299V292.382Z" fill="#282828"/>
<path d="M139.589 292.331H202.946V221.055H139.589V292.331Z" fill="#242424"/>
<path d="M76.2231 292.347H139.58V221.07H76.2231V292.347Z" fill="#3E3E3E"/>
<path d="M12.8564 292.359H76.2135V221.082H12.8564V292.359Z" fill="#3E3E3E"/>
<path d="M2483.81 363.66H2547.17V292.383H2483.81V363.66Z" fill="#383838"/>
<path d="M2420.43 363.632H2483.79V292.355H2420.43V363.632Z" fill="#202020"/>
<path d="M2357.07 363.636H2420.43V292.359H2357.07V363.636Z" fill="#171717"/>
<path d="M2293.72 363.624H2357.08V292.348H2293.72V363.624Z" fill="#353535"/>
<path d="M2167.01 363.62H2230.37V292.344H2167.01V363.62Z" fill="#494949"/>
<path d="M2103.65 363.624H2167V292.348H2103.65V363.624Z" fill="#272727"/>
<path d="M1786.83 363.624H1850.18V292.348H1786.83V363.624Z" fill="#454545"/>
<path d="M1723.54 363.683H1786.9V292.406H1723.54V363.683Z" fill="#4A4A4A"/>
<path d="M1596.8 363.636H1660.16V292.359H1596.8V363.636Z" fill="#444444"/>
<path d="M1533.43 363.64H1596.79V292.363H1533.43V363.64Z" fill="#414141"/>
<path d="M1470.08 363.663H1533.44V292.387H1470.08V363.663Z" fill="#363636"/>
<path d="M1406.72 363.636H1470.08V292.359H1406.72V363.636Z" fill="#353535"/>
<path d="M1343.31 363.652H1406.67V292.375H1343.31V363.652Z" fill="#3E3E3E"/>
<path d="M1280.07 363.644H1343.43V292.367H1280.07V363.644Z" fill="#252525"/>
<path d="M1723.49 292.359H1786.85V221.082H1723.49V292.359Z" fill="#343434"/>
<path d="M1153.26 363.617H1216.62V292.34H1153.26V363.617Z" fill="#474747"/>
<path d="M1089.96 363.55H1153.32V292.273H1089.96V363.55Z" fill="#383838"/>
<path d="M963.192 363.617H1026.55V292.34H963.192V363.617Z" fill="#404040"/>
<path d="M899.895 363.605H963.252V292.328H899.895V363.605Z" fill="#3A3A3A"/>
<path d="M836.505 363.66H899.862V292.383H836.505V363.66Z" fill="#262626"/>
<path d="M583.073 149.792H646.43V78.5156H583.073V149.792Z" fill="#383838"/>
<path d="M773.152 363.695H836.509V292.418H773.152V363.695Z" fill="#4C4C4C"/>
<path d="M646.438 363.593H709.796V292.316H646.438V363.593Z" fill="#3E3E3E"/>
<path d="M583.074 363.62H646.431V292.344H583.074V363.62Z" fill="#3D3D3D"/>
<path d="M519.73 363.636H583.087V292.359H519.73V363.636Z" fill="#3A3A3A"/>
<path d="M456.36 363.636H519.717V292.359H456.36V363.636Z" fill="#333333"/>
<path d="M393.016 363.652H456.373V292.375H393.016V363.652Z" fill="#3C3C3C"/>
<path d="M329.643 363.636H393V292.359H329.643V363.636Z" fill="#353535"/>
<path d="M266.282 363.609H329.639V292.332H266.282V363.609Z" fill="#292929"/>
<path d="M202.953 363.613H266.31V292.336H202.953V363.613Z" fill="#252525"/>
<path d="M12.8877 363.628H76.2448V292.352H12.8877V363.628Z" fill="#212121"/>
<path d="M2357.1 434.894H2420.46V363.617H2357.1V434.894Z" fill="#212121"/>
<path d="M2293.72 434.906H2357.08V363.629H2293.72V434.906Z" fill="#2A2A2A"/>
<path d="M2230.36 434.933H2293.72V363.656H2230.36V434.933Z" fill="#494949"/>
<path d="M2166.98 434.898H2230.34V363.621H2166.98V434.898Z" fill="#505050"/>
<path d="M2103.68 434.925H2167.04V363.648H2103.68V434.925Z" fill="#555555"/>
<path d="M2040.27 434.913H2103.63V363.637H2040.27V434.913Z" fill="#464646"/>
<path d="M1976.96 434.91H2040.32V363.633H1976.96V434.91Z" fill="#3A3A3A"/>
<path d="M1913.58 434.886H1976.93V363.609H1913.58V434.886Z" fill="#383838"/>
<path d="M2103.65 292.355H2167.01V221.078H2103.65V292.355Z" fill="#2A2A2A"/>
<path d="M1850.22 434.902H1913.58V363.625H1850.22V434.902Z" fill="#3D3D3D"/>
<path d="M1786.83 434.882H1850.19V363.605H1786.83V434.882Z" fill="#2B2B2B"/>
<path d="M519.69 149.816H583.047V78.5391H519.69V149.816Z" fill="#151515"/>
<path d="M456.408 149.831H519.765V78.5547H456.408V149.831Z" fill="#363636"/>
<path d="M1723.54 434.843H1786.9V363.566H1723.54V434.843Z" fill="#3B3B3B"/>
<path d="M1660.15 434.902H1723.51V363.625H1660.15V434.902Z" fill="#333333"/>
<path d="M1596.79 434.902H1660.15V363.625H1596.79V434.902Z" fill="#4E4E4E"/>
<path d="M1533.44 434.898H1596.79V363.621H1533.44V434.898Z" fill="#535353"/>
<path d="M1470.08 434.874H1533.43V363.598H1470.08V434.874Z" fill="#3F3F3F"/>
<path d="M1406.73 434.894H1470.08V363.617H1406.73V434.894Z" fill="#343434"/>
<path d="M1343.34 434.882H1406.7V363.605H1343.34V434.882Z" fill="#232323"/>
<path d="M1913.58 363.636H1976.94V292.359H1913.58V363.636Z" fill="#1F1F1F"/>
<path d="M1280.03 434.867H1343.39V363.59H1280.03V434.867Z" fill="#2A2A2A"/>
<path d="M1216.65 434.902H1280.01V363.625H1216.65V434.902Z" fill="#1D1D1D"/>
<path d="M1089.94 434.917H1153.3V363.641H1089.94V434.917Z" fill="#2E2E2E"/>
<path d="M963.217 434.937H1026.57V363.66H963.217V434.937Z" fill="#2A2A2A"/>
<path d="M1280.06 292.355H1343.41V221.078H1280.06V292.355Z" fill="#0F0F0F"/>
<path d="M899.873 434.937H963.23V363.66H899.873V434.937Z" fill="#202020"/>
<path d="M836.502 434.882H899.859V363.605H836.502V434.882Z" fill="#333333"/>
<path d="M773.158 434.863H836.515V363.586H773.158V434.863Z" fill="#3C3C3C"/>
<path d="M709.789 434.863H773.146V363.586H709.789V434.863Z" fill="#3A3A3A"/>
<path d="M899.89 292.378H963.247V221.102H899.89V292.378Z" fill="#424242"/>
<path d="M583.087 434.921H646.444V363.645H583.087V434.921Z" fill="#4F4F4F"/>
<path d="M519.726 434.898H583.083V363.621H519.726V434.898Z" fill="#3F3F3F"/>
<path d="M329.624 434.898H392.981V363.621H329.624V434.898Z" fill="#373737"/>
<path d="M202.938 434.902H266.295V363.625H202.938V434.902Z" fill="#3B3B3B"/>
<path d="M139.581 434.91H202.938V363.633H139.581V434.91Z" fill="#404040"/>
<path d="M76.2173 434.898H139.574V363.621H76.2173V434.898Z" fill="#2B2B2B"/>
<path d="M2420.43 506.23H2483.79V434.953H2420.43V506.23Z" fill="#1C1C1C"/>
<path d="M2357.07 506.179H2420.43V434.902H2357.07V506.179Z" fill="#212121"/>
<path d="M1596.77 221.089H1660.13V149.812H1596.77V221.089Z" fill="#212121"/>
<path d="M2293.72 506.23H2357.07V434.953H2293.72V506.23Z" fill="#3F3F3F"/>
<path d="M2230.37 506.167H2293.73V434.891H2230.37V506.167Z" fill="#2E2E2E"/>
<path d="M2167.02 506.195H2230.37V434.918H2167.02V506.195Z" fill="#3F3F3F"/>
<path d="M2103.65 506.16H2167.01V434.883H2103.65V506.16Z" fill="#4F4F4F"/>
<path d="M2040.29 506.171H2103.65V434.895H2040.29V506.171Z" fill="#2D2D2D"/>
<path d="M1976.93 506.175H2040.29V434.898H1976.93V506.175Z" fill="#383838"/>
<path d="M1850.22 506.183H1913.58V434.906H1850.22V506.183Z" fill="#494949"/>
<path d="M329.652 78.5189H393.009V7.24219H329.652V78.5189Z" fill="#373737"/>
<path d="M1786.86 506.179H1850.22V434.902H1786.86V506.179Z" fill="#242424"/>
<path d="M1660.15 506.175H1723.51V434.898H1660.15V506.175Z" fill="#333333"/>
<path d="M1596.78 506.234H1660.14V434.957H1596.78V506.234Z" fill="#343434"/>
<path d="M1533.45 506.218H1596.81V434.941H1533.45V506.218Z" fill="#282828"/>
<path d="M1470.07 506.226H1533.42V434.949H1470.07V506.226Z" fill="#1F1F1F"/>
<path d="M1406.74 506.242H1470.09V434.965H1406.74V506.242Z" fill="#1C1C1C"/>
<path d="M1343.36 506.179H1406.72V434.902H1343.36V506.179Z" fill="#2A2A2A"/>
<path d="M1216.65 506.179H1280.01V434.902H1216.65V506.179Z" fill="#3A3A3A"/>
<path d="M1153.29 506.179H1216.65V434.902H1153.29V506.179Z" fill="#353535"/>
<path d="M963.208 506.152H1026.56V434.875H963.208V506.152Z" fill="#1E1E1E"/>
<path d="M899.882 506.14H963.239V434.863H899.882V506.14Z" fill="#222222"/>
<path d="M773.155 506.148H836.512V434.871H773.155V506.148Z" fill="#2F2F2F"/>
<path d="M709.787 506.14H773.144V434.863H709.787V506.14Z" fill="#222222"/>
<path d="M646.445 506.163H709.802V434.887H646.445V506.163Z" fill="#1D1D1D"/>
<path d="M583.083 506.206H646.44V434.93H583.083V506.206Z" fill="#1D1D1D"/>
<path d="M519.723 506.183H583.08V434.906H519.723V506.183Z" fill="#272727"/>
<path d="M12.8682 149.8H76.2252V78.5234H12.8682V149.8Z" fill="#353535"/>
<path d="M456.345 506.152H519.702V434.875H456.345V506.152Z" fill="#212121"/>
<path d="M393.016 506.183H456.373V434.906H393.016V506.183Z" fill="#272727"/>
<path d="M329.65 506.179H393.007V434.902H329.65V506.179Z" fill="#2E2E2E"/>
<path d="M266.312 506.167H329.669V434.891H266.312V506.167Z" fill="#2F2F2F"/>
<path d="M202.938 506.191H266.295V434.914H202.938V506.191Z" fill="#323232"/>
<path d="M76.2314 506.191H139.589V434.914H76.2314V506.191Z" fill="#3D3D3D"/>
<path d="M2357.06 577.46H2420.42V506.184H2357.06V577.46Z" fill="#414141"/>
<path d="M2293.75 577.413H2357.1V506.137H2293.75V577.413Z" fill="#212121"/>
<path d="M2230.37 577.449H2293.73V506.172H2230.37V577.449Z" fill="#2E2E2E"/>
<path d="M2167 577.476H2230.35V506.199H2167V577.476Z" fill="#3F3F3F"/>
<path d="M2103.66 577.472H2167.02V506.195H2103.66V577.472Z" fill="#353535"/>
<path d="M2040.3 577.456H2103.65V506.18H2040.3V577.456Z" fill="#272727"/>
<path d="M1850.25 577.488H1913.6V506.211H1850.25V577.488Z" fill="#222222"/>
<path d="M1723.5 577.464H1786.86V506.188H1723.5V577.464Z" fill="#414141"/>
<path d="M1660.16 577.492H1723.52V506.215H1660.16V577.492Z" fill="#3A3A3A"/>
<path d="M1596.75 577.406H1660.11V506.129H1596.75V577.406Z" fill="#373737"/>
<path d="M1533.46 577.429H1596.82V506.152H1533.46V577.429Z" fill="#242424"/>
<path d="M1470.07 577.449H1533.43V506.172H1470.07V577.449Z" fill="#272727"/>
<path d="M1406.75 577.398H1470.1V506.121H1406.75V577.398Z" fill="#393939"/>
<path d="M1216.66 577.46H1280.01V506.184H1216.66V577.46Z" fill="#212121"/>
<path d="M1153.28 577.468H1216.64V506.191H1153.28V577.468Z" fill="#383838"/>
<path d="M1026.54 577.476H1089.9V506.199H1026.54V577.476Z" fill="#3C3C3C"/>
<path d="M899.871 577.456H963.228V506.18H899.871V577.456Z" fill="#212121"/>
<path d="M836.504 577.449H899.861V506.172H836.504V577.449Z" fill="#141414"/>
<path d="M709.803 577.46H773.16V506.184H709.803V577.46Z" fill="#1A1A1A"/>
<path d="M646.433 577.452H709.79V506.176H646.433V577.452Z" fill="#313131"/>
<path d="M583.083 577.413H646.44V506.137H583.083V577.413Z" fill="#313131"/>
<path d="M456.363 577.46H519.72V506.184H456.363V577.46Z" fill="#141414"/>
<path d="M1976.92 577.464H2040.28V506.188H1976.92V577.464Z" fill="#282828"/>
<path d="M519.716 577.452H583.073V506.176H519.716V577.452Z" fill="#303030"/>
<path d="M329.656 577.472H393.013V506.195H329.656V577.472Z" fill="#1C1C1C"/>
<path d="M202.962 577.437H266.319V506.16H202.962V577.437Z" fill="#040404"/>
<path d="M139.554 577.41H202.911V506.133H139.554V577.41Z" fill="#161616"/>
<path d="M1026.58 363.624H1089.94V292.348H1026.58V363.624Z" fill="#2B2B2B"/>
<path d="M76.2554 577.456H139.612V506.18H76.2554V577.456Z" fill="#404040"/>
<path d="M393.018 577.456H456.375V506.18H393.018V577.456Z" fill="#383838"/>
<path d="M12.8613 577.468H76.2184V506.191H12.8613V577.468Z" fill="#313131"/>
<path d="M2420.46 648.714H2483.81V577.438H2420.46V648.714Z" fill="#3C3C3C"/>
<path d="M2357.1 648.757H2420.45V577.48H2357.1V648.757Z" fill="#2E2E2E"/>
<path d="M12.8477 434.929H76.2047V363.652H12.8477V434.929Z" fill="#383838"/>
<path d="M963.256 577.507H1026.61V506.23H963.256V577.507Z" fill="#464646"/>
<path d="M2293.72 648.722H2357.08V577.445H2293.72V648.722Z" fill="#3A3A3A"/>
<path d="M2230.36 648.73H2293.72V577.453H2230.36V648.73Z" fill="#242424"/>
<path d="M2166.98 648.702H2230.34V577.426H2166.98V648.702Z" fill="#3A3A3A"/>
<path d="M2103.67 648.749H2167.03V577.473H2103.67V648.749Z" fill="#424242"/>
<path d="M2040.3 648.738H2103.65V577.461H2040.3V648.738Z" fill="#464646"/>
<path d="M1976.94 648.734H2040.29V577.457H1976.94V648.734Z" fill="#414141"/>
<path d="M1913.58 648.687H1976.94V577.41H1913.58V648.687Z" fill="#222222"/>
<path d="M1850.2 648.699H1913.56V577.422H1850.2V648.699Z" fill="#2B2B2B"/>
<path d="M1786.88 648.761H1850.24V577.484H1786.88V648.761Z" fill="#2D2D2D"/>
<path d="M1660.19 648.699H1723.55V577.422H1660.19V648.699Z" fill="#2C2C2C"/>
<path d="M1596.79 648.726H1660.15V577.449H1596.79V648.726Z" fill="#262626"/>
<path d="M1533.44 648.749H1596.8V577.473H1533.44V648.749Z" fill="#2A2A2A"/>
<path d="M1470.07 648.702H1533.43V577.426H1470.07V648.702Z" fill="#3F3F3F"/>
<path d="M1026.58 434.902H1089.94V363.625H1026.58V434.902Z" fill="#3B3B3B"/>
<path d="M1406.73 648.734H1470.08V577.457H1406.73V648.734Z" fill="#2C2C2C"/>
<path d="M1343.33 648.749H1406.69V577.473H1343.33V648.749Z" fill="#171717"/>
<path d="M1280.04 648.788H1343.4V577.512H1280.04V648.788Z" fill="#181818"/>
<path d="M2230.36 363.628H2293.72V292.352H2230.36V363.628Z" fill="#111111"/>
<path d="M1216.65 648.734H1280.01V577.457H1216.65V648.734Z" fill="#171717"/>
<path d="M1850.21 149.781H1913.57V78.5039H1850.21V149.781Z" fill="#444444"/>
<path d="M1153.3 648.73H1216.65V577.453H1153.3V648.73Z" fill="#393939"/>
<path d="M1089.91 648.742H1153.27V577.465H1089.91V648.742Z" fill="#212121"/>
<path d="M1026.58 648.738H1089.94V577.461H1026.58V648.738Z" fill="#161616"/>
<path d="M963.244 648.679H1026.6V577.402H963.244V648.679Z" fill="#151515"/>
<path d="M899.846 648.753H963.203V577.477H899.846V648.753Z" fill="#363636"/>
<path d="M836.528 648.769H899.885V577.492H836.528V648.769Z" fill="#2A2A2A"/>
<path d="M773.145 648.734H836.502V577.457H773.145V648.734Z" fill="#111111"/>
<path d="M709.795 648.734H773.152V577.457H709.795V648.734Z" fill="#323232"/>
<path d="M583.074 648.769H646.431V577.492H583.074V648.769Z" fill="#4A4A4A"/>
<path d="M519.732 648.749H583.089V577.473H519.732V648.749Z" fill="#373737"/>
<path d="M392.977 648.761H456.334V577.484H392.977V648.761Z" fill="#121212"/>
<path d="M329.691 648.73H393.048V577.453H329.691V648.73Z" fill="#232323"/>
<path d="M266.279 648.73H329.636V577.453H266.279V648.73Z" fill="#2A2A2A"/>
<path d="M202.946 648.738H266.303V577.461H202.946V648.738Z" fill="#454545"/>
<path d="M139.589 648.718H202.946V577.441H139.589V648.718Z" fill="#4E4E4E"/>
<path d="M76.2227 648.73H139.58V577.453H76.2227V648.73Z" fill="#373737"/>
<path d="M12.8569 648.73H76.214V577.453H12.8569V648.73Z" fill="#313131"/>
<path d="M266.326 434.906H329.683V363.629H266.326V434.906Z" fill="#3E3E3E"/>
<path d="M2483.8 720.046H2547.16V648.77H2483.8V720.046Z" fill="#474747"/>
<path d="M1343.35 577.472H1406.71V506.195H1343.35V577.472Z" fill="#363636"/>
<path d="M2420.41 720.003H2483.76V648.727H2420.41V720.003Z" fill="#1B1B1B"/>
<path d="M2293.75 720.058H2357.11V648.781H2293.75V720.058Z" fill="#161616"/>
<path d="M2230.35 720.015H2293.71V648.738H2230.35V720.015Z" fill="#343434"/>
<path d="M2103.64 719.98H2166.99V648.703H2103.64V719.98Z" fill="#242424"/>
<path d="M2040.31 720.003H2103.67V648.727H2040.31V720.003Z" fill="#303030"/>
<path d="M1976.91 720.058H2040.27V648.781H1976.91V720.058Z" fill="#393939"/>
<path d="M1913.58 720.007H1976.93V648.73H1913.58V720.007Z" fill="#222222"/>
<path d="M1850.21 720.011H1913.57V648.734H1850.21V720.011Z" fill="#292929"/>
<path d="M1786.9 719.992H1850.26V648.715H1786.9V719.992Z" fill="#202020"/>
<path d="M1723.5 720.011H1786.86V648.734H1723.5V720.011Z" fill="#242424"/>
<path d="M1660.15 720.011H1723.51V648.734H1660.15V720.011Z" fill="#2A2A2A"/>
<path d="M1596.79 720.011H1660.15V648.734H1596.79V720.011Z" fill="#202020"/>
<path d="M1533.42 719.992H1596.78V648.715H1533.42V719.992Z" fill="#282828"/>
<path d="M1470.08 720.007H1533.44V648.73H1470.08V720.007Z" fill="#393939"/>
<path d="M1343.36 720.019H1406.72V648.742H1343.36V720.019Z" fill="#313131"/>
<path d="M1280.03 719.956H1343.39V648.68H1280.03V719.956Z" fill="#2A2A2A"/>
<path d="M1216.65 720.007H1280.01V648.73H1216.65V720.007Z" fill="#292929"/>
<path d="M2103.64 78.5111H2167V7.23438H2103.64V78.5111Z" fill="#121212"/>
<path d="M1153.29 720.011H1216.65V648.734H1153.29V720.011Z" fill="#131313"/>
<path d="M2357.06 78.4915H2420.42V7.21484H2357.06V78.4915Z" fill="#313131"/>
<path d="M1026.62 719.995H1089.97V648.719H1026.62V719.995Z" fill="#323232"/>
<path d="M963.224 720.011H1026.58V648.734H963.224V720.011Z" fill="#292929"/>
<path d="M899.821 719.999H963.178V648.723H899.821V719.999Z" fill="#313131"/>
<path d="M1153.29 434.902H1216.64V363.625H1153.29V434.902Z" fill="#3E3E3E"/>
<path d="M836.55 719.976H899.907V648.699H836.55V719.976Z" fill="#545454"/>
<path d="M773.154 720.011H836.511V648.734H773.154V720.011Z" fill="#404040"/>
<path d="M646.42 221.097H709.777V149.82H646.42V221.097Z" fill="#1C1C1C"/>
<path d="M646.435 720.023H709.792V648.746H646.435V720.023Z" fill="#292929"/>
<path d="M393.05 434.87H456.407V363.594H393.05V434.87Z" fill="#434343"/>
<path d="M583.068 719.988H646.425V648.711H583.068V719.988Z" fill="#2C2C2C"/>
<path d="M519.727 720.019H583.084V648.742H519.727V720.019Z" fill="#252525"/>
<path d="M456.375 720.023H519.732V648.746H456.375V720.023Z" fill="#282828"/>
<path d="M329.631 720.031H392.988V648.754H329.631V720.031Z" fill="#1C1C1C"/>
<path d="M646.44 648.734H709.797V577.457H646.44V648.734Z" fill="#3C3C3C"/>
<path d="M202.955 720.035H266.312V648.758H202.955V720.035Z" fill="#5B5B5B"/>
<path d="M12.8667 720.007H76.2238V648.73H12.8667V720.007Z" fill="#505050"/>
<path d="M2483.82 791.281H2547.17V720.004H2483.82V791.281Z" fill="#303030"/>
<path d="M2420.45 791.308H2483.8V720.031H2420.45V791.308Z" fill="#4C4C4C"/>
<path d="M2357.06 791.269H2420.42V719.992H2357.06V791.269Z" fill="#646464"/>
<path d="M2293.73 791.257H2357.09V719.98H2293.73V791.257Z" fill="#393939"/>
<path d="M2230.35 791.281H2293.71V720.004H2230.35V791.281Z" fill="#1E1E1E"/>
<path d="M2166.98 791.292H2230.34V720.016H2166.98V791.292Z" fill="#2A2A2A"/>
<path d="M2103.69 791.308H2167.05V720.031H2103.69V791.308Z" fill="#2B2B2B"/>
<path d="M2040.29 791.288H2103.65V720.012H2040.29V791.288Z" fill="#020202"/>
<path d="M1913.59 791.265H1976.94V719.988H1913.59V791.265Z" fill="#040404"/>
<path d="M1850.22 791.285H1913.58V720.008H1850.22V791.285Z" fill="#222222"/>
<path d="M1786.86 791.281H1850.22V720.004H1786.86V791.281Z" fill="#1E1E1E"/>
<path d="M1723.51 791.3H1786.87V720.023H1723.51V791.3Z" fill="#2C2C2C"/>
<path d="M1660.15 791.288H1723.51V720.012H1660.15V791.288Z" fill="#343434"/>
<path d="M1596.79 791.327H1660.15V720.051H1596.79V791.327Z" fill="#383838"/>
<path d="M1533.43 791.285H1596.79V720.008H1533.43V791.285Z" fill="#4D4D4D"/>
<path d="M202.932 292.331H266.289V221.055H202.932V292.331Z" fill="#2E2E2E"/>
<path d="M1470.09 791.304H1533.44V720.027H1470.09V791.304Z" fill="#292929"/>
<path d="M1406.71 791.242H1470.07V719.965H1406.71V791.242Z" fill="#4F4F4F"/>
<path d="M1343.37 791.253H1406.73V719.977H1343.37V791.253Z" fill="#474747"/>
<path d="M1660.15 363.624H1723.51V292.348H1660.15V363.624Z" fill="#343434"/>
<path d="M1280 791.285H1343.36V720.008H1280V791.285Z" fill="#2C2C2C"/>
<path d="M1216.65 791.288H1280.01V720.012H1216.65V791.288Z" fill="#242424"/>
<path d="M1153.3 791.288H1216.66V720.012H1153.3V791.288Z" fill="#101010"/>
<path d="M836.507 506.179H899.864V434.902H836.507V506.179Z" fill="#0D0D0D"/>
<path d="M1089.93 791.285H1153.29V720.008H1089.93V791.285Z" fill="#1E1E1E"/>
<path d="M1026.55 791.32H1089.91V720.043H1026.55V791.32Z" fill="#323232"/>
<path d="M963.252 791.3H1026.61V720.023H963.252V791.3Z" fill="#464646"/>
<path d="M773.161 791.3H836.518V720.023H773.161V791.3Z" fill="#4B4B4B"/>
<path d="M709.796 791.285H773.153V720.008H709.796V791.285Z" fill="#585858"/>
<path d="M646.438 791.288H709.795V720.012H646.438V791.288Z" fill="#545454"/>
<path d="M583.08 791.296H646.437V720.02H583.08V791.296Z" fill="#373737"/>
<path d="M519.693 791.273H583.05V719.996H519.693V791.273Z" fill="#2B2B2B"/>
<path d="M456.397 791.281H519.754V720.004H456.397V791.281Z" fill="#1A1A1A"/>
<path d="M392.992 791.296H456.349V720.02H392.992V791.296Z" fill="#222222"/>
<path d="M329.651 791.277H393.008V720H329.651V791.277Z" fill="#3A3A3A"/>
<path d="M266.274 791.296H329.631V720.02H266.274V791.296Z" fill="#3C3C3C"/>
<path d="M139.575 791.281H202.932V720.004H139.575V791.281Z" fill="#262626"/>
<path d="M76.1929 791.316H139.55V720.039H76.1929V791.316Z" fill="#343434"/>
<path d="M12.894 791.39H76.2511V720.113H12.894V791.39Z" fill="#4A4A4A"/>
<path d="M2483.8 862.535H2547.15V791.258H2483.8V862.535Z" fill="#535353"/>
<path d="M2420.43 862.542H2483.79V791.266H2420.43V862.542Z" fill="#2E2E2E"/>
<path d="M2357.08 862.566H2420.43V791.289H2357.08V862.566Z" fill="#2E2E2E"/>
<path d="M2293.72 862.562H2357.08V791.285H2293.72V862.562Z" fill="#4A4A4A"/>
<path d="M2230.35 862.613H2293.71V791.336H2230.35V862.613Z" fill="#3F3F3F"/>
<path d="M2167.01 862.57H2230.37V791.293H2167.01V862.57Z" fill="#393939"/>
<path d="M2103.66 862.542H2167.02V791.266H2103.66V862.542Z" fill="#333333"/>
<path d="M2040.29 862.57H2103.65V791.293H2040.29V862.57Z" fill="#242424"/>
<path d="M1976.93 862.558H2040.29V791.281H1976.93V862.558Z" fill="#131313"/>
<path d="M1913.56 862.577H1976.92V791.301H1913.56V862.577Z" fill="#1B1B1B"/>
<path d="M1850.24 862.656H1913.59V791.379H1850.24V862.656Z" fill="#1C1C1C"/>
<path d="M1786.87 862.597H1850.22V791.32H1786.87V862.597Z" fill="#0E0E0E"/>
<path d="M1723.5 862.558H1786.86V791.281H1723.5V862.558Z" fill="#2D2D2D"/>
<path d="M1660.14 862.628H1723.5V791.352H1660.14V862.628Z" fill="#424242"/>
<path d="M1533.49 862.593H1596.85V791.316H1533.49V862.593Z" fill="#3A3A3A"/>
<path d="M1470.08 862.542H1533.43V791.266H1470.08V862.542Z" fill="#404040"/>
<path d="M836.51 78.5267H899.867V7.25H836.51V78.5267Z" fill="#404040"/>
<path d="M1406.73 862.558H1470.09V791.281H1406.73V862.558Z" fill="#3A3A3A"/>
<path d="M1343.35 862.577H1406.71V791.301H1343.35V862.577Z" fill="#424242"/>
<path d="M1280.02 862.574H1343.38V791.297H1280.02V862.574Z" fill="#353535"/>
<path d="M1216.65 862.574H1280V791.297H1216.65V862.574Z" fill="#242424"/>
<path d="M1280.02 577.46H1343.37V506.184H1280.02V577.46Z" fill="#1D1D1D"/>
<path d="M1153.3 862.57H1216.65V791.293H1153.3V862.57Z" fill="#292929"/>
<path d="M1089.94 862.566H1153.3V791.289H1089.94V862.566Z" fill="#212121"/>
<path d="M1026.55 862.527H1089.91V791.25H1026.55V862.527Z" fill="#020202"/>
<path d="M963.248 862.593H1026.61V791.316H963.248V862.593Z" fill="#121212"/>
<path d="M899.871 862.577H963.228V791.301H899.871V862.577Z" fill="#3B3B3B"/>
<path d="M836.509 862.566H899.866V791.289H836.509V862.566Z" fill="#343434"/>
<path d="M202.977 791.265H266.334V719.988H202.977V791.265Z" fill="#121212"/>
<path d="M773.145 862.589H836.502V791.312H773.145V862.589Z" fill="#242424"/>
<path d="M709.776 862.644H773.133V791.367H709.776V862.644Z" fill="#434343"/>
<path d="M646.441 862.593H709.798V791.316H646.441V862.593Z" fill="#383838"/>
<path d="M583.091 862.574H646.448V791.297H583.091V862.574Z" fill="#222222"/>
<path d="M519.732 862.562H583.089V791.285H519.732V862.562Z" fill="#1C1C1C"/>
<path d="M456.348 862.574H519.705V791.297H456.348V862.574Z" fill="#313131"/>
<path d="M1723.5 78.4056H1786.85V7.12891H1723.5V78.4056Z" fill="#545454"/>
<path d="M773.143 577.46H836.5V506.184H773.143V577.46Z" fill="#424242"/>
<path d="M392.993 862.554H456.35V791.277H392.993V862.554Z" fill="#242424"/>
<path d="M329.688 862.55H393.045V791.273H329.688V862.55Z" fill="#222222"/>
<path d="M266.294 862.562H329.652V791.285H266.294V862.562Z" fill="#252525"/>
<path d="M202.936 862.562H266.293V791.285H202.936V862.562Z" fill="#393939"/>
<path d="M139.582 862.566H202.939V791.289H139.582V862.566Z" fill="#222222"/>
<path d="M76.21 862.523H139.567V791.246H76.21V862.523Z" fill="#141414"/>
<path d="M12.877 862.472H76.234V791.195H12.877V862.472Z" fill="#232323"/>
<path d="M2483.78 933.855H2547.14V862.578H2483.78V933.855Z" fill="#252525"/>
<path d="M2420.44 933.851H2483.8V862.574H2420.44V933.851Z" fill="#333333"/>
<path d="M2357.08 933.843H2420.43V862.566H2357.08V933.843Z" fill="#323232"/>
<path d="M2103.65 221.081H2167.01V149.805H2103.65V221.081Z" fill="#131313"/>
<path d="M2420.42 434.902H2483.77V363.625H2420.42V434.902Z" fill="#070707"/>
<path d="M2230.39 933.8H2293.75V862.523H2230.39V933.8Z" fill="#2B2B2B"/>
<path d="M2167.01 933.87H2230.37V862.594H2167.01V933.87Z" fill="#222222"/>
<path d="M2103.65 933.843H2167.01V862.566H2103.65V933.843Z" fill="#181818"/>
<path d="M2040.29 933.831H2103.64V862.555H2040.29V933.831Z" fill="#333333"/>
<path d="M1976.94 933.855H2040.3V862.578H1976.94V933.855Z" fill="#323232"/>
<path d="M1913.57 933.827H1976.93V862.551H1913.57V933.827Z" fill="#2E2E2E"/>
<path d="M1850.23 933.785H1913.59V862.508H1850.23V933.785Z" fill="#2C2C2C"/>
<path d="M1786.86 933.847H1850.22V862.57H1786.86V933.847Z" fill="#1F1F1F"/>
<path d="M1723.5 933.831H1786.86V862.555H1723.5V933.831Z" fill="#1D1D1D"/>
<path d="M1660.12 933.788H1723.47V862.512H1660.12V933.788Z" fill="#272727"/>
<path d="M1596.81 933.835H1660.17V862.559H1596.81V933.835Z" fill="#2B2B2B"/>
<path d="M1533.45 933.824H1596.81V862.547H1533.45V933.824Z" fill="#282828"/>
<path d="M1470.09 933.851H1533.44V862.574H1470.09V933.851Z" fill="#1A1A1A"/>
<path d="M1406.72 933.839H1470.08V862.562H1406.72V933.839Z" fill="#2F2F2F"/>
<path d="M1343.37 933.831H1406.72V862.555H1343.37V933.831Z" fill="#333333"/>
<path d="M1280.01 933.839H1343.36V862.562H1280.01V933.839Z" fill="#161616"/>
<path d="M1976.93 791.242H2040.28V719.965H1976.93V791.242Z" fill="#131313"/>
<path d="M1216.64 933.831H1280V862.555H1216.64V933.831Z" fill="#121212"/>
<path d="M1026.56 78.4915H1089.92V7.21484H1026.56V78.4915Z" fill="#090909"/>
<path d="M1153.3 933.831H1216.66V862.555H1153.3V933.831Z" fill="#0F0F0F"/>
<path d="M1089.94 933.839H1153.29V862.562H1089.94V933.839Z" fill="#232323"/>
<path d="M1026.58 933.839H1089.94V862.562H1026.58V933.839Z" fill="#343434"/>
<path d="M963.214 933.8H1026.57V862.523H963.214V933.8Z" fill="#434343"/>
<path d="M899.872 933.827H963.229V862.551H899.872V933.827Z" fill="#2D2D2D"/>
<path d="M773.092 933.8H836.449V862.523H773.092V933.8Z" fill="#212121"/>
<path d="M709.841 933.8H773.198V862.523H709.841V933.8Z" fill="#1E1E1E"/>
<path d="M646.454 933.792H709.811V862.516H646.454V933.792Z" fill="#303030"/>
<path d="M583.077 933.851H646.434V862.574H583.077V933.851Z" fill="#1B1B1B"/>
<path d="M519.724 933.843H583.081V862.566H519.724V933.843Z" fill="#171717"/>
<path d="M2103.65 149.796H2167.01V78.5195H2103.65V149.796Z" fill="#171717"/>
<path d="M266.268 577.464H329.625V506.188H266.268V577.464Z" fill="#131313"/>
<path d="M456.361 933.827H519.718V862.551H456.361V933.827Z" fill="#303030"/>
<path d="M2420.44 292.335H2483.79V221.059H2420.44V292.335Z" fill="#363636"/>
<path d="M393.018 933.843H456.375V862.566H393.018V933.843Z" fill="#3C3C3C"/>
<path d="M329.63 933.847H392.987V862.57H329.63V933.847Z" fill="#2C2C2C"/>
<path d="M709.781 292.39H773.138V221.113H709.781V292.39Z" fill="#1D1D1D"/>
<path d="M266.315 933.843H329.673V862.566H266.315V933.843Z" fill="#303030"/>
<path d="M1026.58 149.792H1089.94V78.5156H1026.58V149.792Z" fill="#494949"/>
<path d="M139.58 933.839H202.937V862.562H139.58V933.839Z" fill="#424242"/>
<path d="M76.2236 933.843H139.581V862.566H76.2236V933.843Z" fill="#191919"/>
<path d="M12.8672 933.847H76.2243V862.57H12.8672V933.847Z" fill="#1B1B1B"/>
<path d="M2483.78 1005.12H2547.14V933.848H2483.78V1005.12Z" fill="#232323"/>
<path d="M2420.45 1005.11H2483.81V933.836H2420.45V1005.11Z" fill="#131313"/>
<path d="M2420.44 149.804H2483.8V78.5273H2420.44V149.804Z" fill="#131313"/>
<path d="M2357.07 1005.14H2420.43V933.863H2357.07V1005.14Z" fill="#252525"/>
<path d="M2293.73 1005.13H2357.08V933.852H2293.73V1005.13Z" fill="#292929"/>
<path d="M2230.34 1005.11H2293.7V933.836H2230.34V1005.11Z" fill="#2C2C2C"/>
<path d="M2167.03 1005.08H2230.39V933.801H2167.03V1005.08Z" fill="#232323"/>
<path d="M2103.65 1005.12H2167.01V933.84H2103.65V1005.12Z" fill="#0B0B0B"/>
<path d="M2040.29 1005.12H2103.64V933.848H2040.29V1005.12Z" fill="#1A1A1A"/>
<path d="M1976.94 1005.1H2040.3V933.828H1976.94V1005.1Z" fill="#3B3B3B"/>
<path d="M1470.09 292.335H1533.44V221.059H1470.09V292.335Z" fill="#232323"/>
<path d="M1913.58 1005.12H1976.93V933.848H1913.58V1005.12Z" fill="#1D1D1D"/>
<path d="M1850.2 1005.09H1913.55V933.809H1850.2V1005.09Z" fill="#303030"/>
<path d="M1786.89 1005.08H1850.25V933.801H1786.89V1005.08Z" fill="#2B2B2B"/>
<path d="M1723.51 1005.12H1786.87V933.848H1723.51V1005.12Z" fill="#303030"/>
<path d="M1089.94 221.077H1153.29V149.801H1089.94V221.077Z" fill="#363636"/>
<path d="M1660.14 1005.11H1723.5V933.832H1660.14V1005.11Z" fill="#2A2A2A"/>
<path d="M1723.51 506.187H1786.86V434.91H1723.51V506.187Z" fill="#202020"/>
<path d="M1533.44 1005.1H1596.8V933.828H1533.44V1005.1Z" fill="#353535"/>
<path d="M1470.05 1005.12H1533.4V933.844H1470.05V1005.12Z" fill="#3F3F3F"/>
<path d="M1406.75 1005.19H1470.11V933.918H1406.75V1005.19Z" fill="#363636"/>
<path d="M1343.31 1005.18H1406.66V933.902H1343.31V1005.18Z" fill="#464646"/>
<path d="M1216.68 1005.16H1280.04V933.883H1216.68V1005.16Z" fill="#323232"/>
<path d="M76.2031 363.632H139.56V292.355H76.2031V363.632Z" fill="#252525"/>
<path d="M1153.29 1005.12H1216.65V933.84H1153.29V1005.12Z" fill="#272727"/>
<path d="M1280 506.179H1343.36V434.902H1280V506.179Z" fill="#222222"/>
<path d="M1089.93 1005.12H1153.29V933.848H1089.93V1005.12Z" fill="#212121"/>
<path d="M1026.59 1005.12H1089.94V933.848H1026.59V1005.12Z" fill="#3A3A3A"/>
<path d="M963.223 1005.12H1026.58V933.84H963.223V1005.12Z" fill="#3A3A3A"/>
<path d="M899.866 1005.11H963.223V933.836H899.866V1005.11Z" fill="#1B1B1B"/>
<path d="M836.503 1005.11H899.86V933.836H836.503V1005.11Z" fill="#262626"/>
<path d="M773.141 1005.12H836.498V933.844H773.141V1005.12Z" fill="#3C3C3C"/>
<path d="M709.811 1005.09H773.168V933.809H709.811V1005.09Z" fill="#525252"/>
<path d="M646.43 1005.13H709.787V933.852H646.43V1005.13Z" fill="#292929"/>
<path d="M583.071 1005.08H646.428V933.805H583.071V1005.08Z" fill="#1F1F1F"/>
<path d="M519.73 1005.14H583.088V933.863H519.73V1005.14Z" fill="#3B3B3B"/>
<path d="M456.374 1005.16H519.731V933.879H456.374V1005.16Z" fill="#404040"/>
<path d="M393.006 1005.14H456.363V933.867H393.006V1005.14Z" fill="#464646"/>
<path d="M266.361 1005.15H329.718V933.875H266.361V1005.15Z" fill="#363636"/>
<path d="M392.991 719.988H456.348V648.711H392.991V719.988Z" fill="#242424"/>
<path d="M202.93 1005.13H266.287V933.852H202.93V1005.13Z" fill="#1A1A1A"/>
<path d="M646.433 434.913H709.79V363.637H646.433V434.913Z" fill="#060606"/>
<path d="M139.589 1005.13H202.946V933.855H139.589V1005.13Z" fill="#050505"/>
<path d="M76.2231 1005.12H139.58V933.84H76.2231V1005.12Z" fill="#222222"/>
<path d="M12.8428 1005.12H76.1998V933.84H12.8428V1005.12Z" fill="#232323"/>
<path d="M2483.78 1076.39H2547.13V1005.11H2483.78V1076.39Z" fill="#1F1F1F"/>
<path d="M2420.46 1076.41H2483.81V1005.13H2420.46V1076.41Z" fill="#2E2E2E"/>
<path d="M2293.72 1076.41H2357.08V1005.13H2293.72V1076.41Z" fill="#1E1E1E"/>
<path d="M709.795 720.011H773.152V648.734H709.795V720.011Z" fill="#1E1E1E"/>
<path d="M2167.01 1076.39H2230.36V1005.12H2167.01V1076.39Z" fill="#454545"/>
<path d="M2103.65 1076.4H2167.01V1005.12H2103.65V1076.4Z" fill="#3F3F3F"/>
<path d="M2040.29 1076.39H2103.65V1005.11H2040.29V1076.39Z" fill="#343434"/>
<path d="M1976.94 1076.39H2040.29V1005.12H1976.94V1076.39Z" fill="#262626"/>
<path d="M2483.76 648.73H2547.11V577.453H2483.76V648.73Z" fill="#333333"/>
<path d="M139.584 720.019H202.942V648.742H139.584V720.019Z" fill="#474747"/>
<path d="M1913.57 1076.39H1976.92V1005.12H1913.57V1076.39Z" fill="#3E3E3E"/>
<path d="M139.59 149.788H202.947V78.5117H139.59V149.788Z" fill="#454545"/>
<path d="M1850.23 1076.39H1913.59V1005.12H1850.23V1076.39Z" fill="#484848"/>
<path d="M1786.86 1076.39H1850.22V1005.12H1786.86V1076.39Z" fill="#494949"/>
<path d="M1723.51 1076.39H1786.86V1005.11H1723.51V1076.39Z" fill="#464646"/>
<path d="M1660.14 1076.41H1723.5V1005.14H1660.14V1076.41Z" fill="#424242"/>
<path d="M1596.8 1076.39H1660.15V1005.12H1596.8V1076.39Z" fill="#424242"/>
<path d="M1533.44 1076.41H1596.8V1005.14H1533.44V1076.41Z" fill="#303030"/>
<path d="M1470.03 1076.42H1533.39V1005.14H1470.03V1076.42Z" fill="#272727"/>
<path d="M1089.95 506.171H1153.31V434.895H1089.95V506.171Z" fill="#202020"/>
<path d="M1406.77 1076.32H1470.13V1005.04H1406.77V1076.32Z" fill="#303030"/>
<path d="M1279.95 1076.41H1343.31V1005.14H1279.95V1076.41Z" fill="#3D3D3D"/>
<path d="M1216.72 1076.4H1280.08V1005.12H1216.72V1076.4Z" fill="#3B3B3B"/>
<path d="M139.587 363.636H202.944V292.359H139.587V363.636Z" fill="#2E2E2E"/>
<path d="M1153.3 1076.41H1216.65V1005.14H1153.3V1076.41Z" fill="#1F1F1F"/>
<path d="M1596.79 1005.12H1660.15V933.84H1596.79V1005.12Z" fill="#2A2A2A"/>
<path d="M1089.94 1076.4H1153.3V1005.12H1089.94V1076.4Z" fill="#3D3D3D"/>
<path d="M1216.65 363.628H1280.01V292.352H1216.65V363.628Z" fill="#4C4C4C"/>
<path d="M1026.57 1076.39H1089.93V1005.11H1026.57V1076.39Z" fill="#393939"/>
<path d="M2357.08 720.007H2420.44V648.73H2357.08V720.007Z" fill="#3A3A3A"/>
<path d="M963.222 1076.39H1026.58V1005.12H963.222V1076.39Z" fill="#494949"/>
<path d="M899.871 1076.4H963.228V1005.12H899.871V1076.4Z" fill="#383838"/>
<path d="M836.503 1076.4H899.861V1005.12H836.503V1076.4Z" fill="#2F2F2F"/>
<path d="M139.573 506.23H202.93V434.953H139.573V506.23Z" fill="#3A3A3A"/>
<path d="M773.158 1076.39H836.515V1005.12H773.158V1076.39Z" fill="#484848"/>
<path d="M709.794 1076.39H773.151V1005.12H709.794V1076.39Z" fill="#2A2A2A"/>
<path d="M646.438 1076.4H709.795V1005.12H646.438V1076.4Z" fill="#1F1F1F"/>
<path d="M583.079 1076.39H646.436V1005.12H583.079V1076.39Z" fill="#3D3D3D"/>
<path d="M519.688 1076.37H583.046V1005.1H519.688V1076.37Z" fill="#323232"/>
<path d="M456.395 1076.37H519.752V1005.09H456.395V1076.37Z" fill="#1F1F1F"/>
<path d="M393 1076.37H456.357V1005.1H393V1076.37Z" fill="#2B2B2B"/>
<path d="M329.619 1076.34H392.976V1005.06H329.619V1076.34Z" fill="#2D2D2D"/>
<path d="M266.344 1076.35H329.701V1005.08H266.344V1076.35Z" fill="#262626"/>
<path d="M202.919 1076.39H266.276V1005.11H202.919V1076.39Z" fill="#353535"/>
<path d="M139.584 1076.39H202.942V1005.11H139.584V1076.39Z" fill="#4C4C4C"/>
<path d="M76.2314 1076.46H139.589V1005.18H76.2314V1076.46Z" fill="#4F4F4F"/>
<path d="M329.589 1005.18H392.946V933.906H329.589V1005.18Z" fill="#333333"/>
<path d="M2357.07 1076.43H2420.43V1005.15H2357.07V1076.43Z" fill="#242424"/>
<path d="M12.8657 1076.39H76.2228V1005.12H12.8657V1076.39Z" fill="#3B3B3B"/>
<path d="M2483.76 1147.72H2547.11V1076.45H2483.76V1147.72Z" fill="#535353"/>
<path d="M2420.48 1147.69H2483.84V1076.41H2420.48V1147.69Z" fill="#414141"/>
<path d="M76.2266 78.5228H139.584V7.24609H76.2266V78.5228Z" fill="#3D3D3D"/>
<path d="M2357.04 1147.61H2420.4V1076.34H2357.04V1147.61Z" fill="#414141"/>
<path d="M2293.76 1147.66H2357.11V1076.38H2293.76V1147.66Z" fill="#3C3C3C"/>
<path d="M76.2295 149.82H139.587V78.543H76.2295V149.82Z" fill="#3B3B3B"/>
<path d="M2230.36 1147.67H2293.72V1076.39H2230.36V1147.67Z" fill="#393939"/>
<path d="M2293.69 933.831H2357.05V862.555H2293.69V933.831Z" fill="#464646"/>
<path d="M2167.01 1147.68H2230.37V1076.41H2167.01V1147.68Z" fill="#454545"/>
<path d="M2040.29 1147.68H2103.65V1076.4H2040.29V1147.68Z" fill="#292929"/>
<path d="M1976.94 1147.67H2040.29V1076.39H1976.94V1147.67Z" fill="#1F1F1F"/>
<path d="M12.8452 506.148H76.2023V434.871H12.8452V506.148Z" fill="#414141"/>
<path d="M1913.58 1147.68H1976.93V1076.4H1913.58V1147.68Z" fill="#4D4D4D"/>
<path d="M1850.22 1147.68H1913.58V1076.4H1850.22V1147.68Z" fill="#272727"/>
<path d="M1786.86 1147.68H1850.21V1076.4H1786.86V1147.68Z" fill="#1D1D1D"/>
<path d="M1723.52 1147.68H1786.87V1076.41H1723.52V1147.68Z" fill="#272727"/>
<path d="M1596.8 1147.68H1660.15V1076.4H1596.8V1147.68Z" fill="#3A3A3A"/>
<path d="M1533.44 1147.67H1596.79V1076.39H1533.44V1147.67Z" fill="#434343"/>
<path d="M1470.07 1147.64H1533.43V1076.36H1470.07V1147.64Z" fill="#434343"/>
<path d="M1976.96 363.617H2040.32V292.34H1976.96V363.617Z" fill="#434343"/>
<path d="M1406.73 1147.67H1470.09V1076.39H1406.73V1147.67Z" fill="#4B4B4B"/>
<path d="M1343.36 1147.67H1406.72V1076.39H1343.36V1147.67Z" fill="#4B4B4B"/>
<path d="M1279.99 1147.66H1343.35V1076.38H1279.99V1147.66Z" fill="#393939"/>
<path d="M1660.15 1147.66H1723.5V1076.38H1660.15V1147.66Z" fill="#2D2D2D"/>
<path d="M1026.58 1147.67H1089.93V1076.39H1026.58V1147.67Z" fill="#3D3D3D"/>
<path d="M963.179 1147.69H1026.54V1076.42H963.179V1147.69Z" fill="#464646"/>
<path d="M899.911 1147.68H963.268V1076.4H899.911V1147.68Z" fill="#252525"/>
<path d="M836.511 1147.67H899.868V1076.39H836.511V1147.67Z" fill="#2B2B2B"/>
<path d="M773.145 1147.69H836.502V1076.41H773.145V1147.69Z" fill="#3D3D3D"/>
<path d="M709.796 1147.67H773.153V1076.39H709.796V1147.67Z" fill="#333333"/>
<path d="M646.432 1147.66H709.789V1076.39H646.432V1147.66Z" fill="#282828"/>
<path d="M583.09 1147.69H646.447V1076.41H583.09V1147.69Z" fill="#2F2F2F"/>
<path d="M519.722 1147.67H583.079V1076.39H519.722V1147.67Z" fill="#3B3B3B"/>
<path d="M456.367 1147.67H519.724V1076.39H456.367V1147.67Z" fill="#3A3A3A"/>
<path d="M2040.27 363.632H2103.63V292.355H2040.27V363.632Z" fill="#3E3E3E"/>
<path d="M392.994 1147.74H456.351V1076.46H392.994V1147.74Z" fill="#353535"/>
<path d="M329.667 1147.71H393.024V1076.43H329.667V1147.71Z" fill="#2A2A2A"/>
<path d="M1089.9 720.003H1153.26V648.727H1089.9V720.003Z" fill="#202020"/>
<path d="M266.286 1147.68H329.643V1076.41H266.286V1147.68Z" fill="#2E2E2E"/>
<path d="M202.947 1147.68H266.304V1076.41H202.947V1147.68Z" fill="#3C3C3C"/>
<path d="M139.548 1147.67H202.905V1076.39H139.548V1147.67Z" fill="#3C3C3C"/>
<path d="M76.2573 1147.61H139.614V1076.33H76.2573V1147.61Z" fill="#3C3C3C"/>
<path d="M12.835 1147.68H76.192V1076.4H12.835V1147.68Z" fill="#3B3B3B"/>
<path d="M2420.48 1218.91H2483.83V1147.64H2420.48V1218.91Z" fill="#343434"/>
<path d="M2357.08 1218.95H2420.44V1147.67H2357.08V1218.95Z" fill="#353535"/>
<path d="M2293.71 1218.94H2357.07V1147.66H2293.71V1218.94Z" fill="#3E3E3E"/>
<path d="M2230.34 1218.96H2293.7V1147.68H2230.34V1218.96Z" fill="#4D4D4D"/>
<path d="M2167.03 1218.97H2230.39V1147.69H2167.03V1218.97Z" fill="#494949"/>
<path d="M2103.66 1218.93H2167.01V1147.66H2103.66V1218.93Z" fill="#414141"/>
<path d="M1153.3 1147.7H1216.66V1076.43H1153.3V1147.7Z" fill="#242424"/>
<path d="M2040.29 1218.96H2103.65V1147.68H2040.29V1218.96Z" fill="#1C1C1C"/>
<path d="M1976.94 1218.95H2040.29V1147.67H1976.94V1218.95Z" fill="#373737"/>
<path d="M1850.23 1219H1913.59V1147.72H1850.23V1219Z" fill="#464646"/>
<path d="M1786.86 1218.95H1850.22V1147.67H1786.86V1218.95Z" fill="#383838"/>
<path d="M1723.51 1218.94H1786.87V1147.66H1723.51V1218.94Z" fill="#212121"/>
<path d="M1660.15 1218.96H1723.5V1147.68H1660.15V1218.96Z" fill="#2A2A2A"/>
<path d="M1596.79 1218.94H1660.15V1147.67H1596.79V1218.94Z" fill="#3E3E3E"/>
<path d="M836.503 791.288H899.861V720.012H836.503V791.288Z" fill="#404040"/>
<path d="M1533.43 1218.93H1596.79V1147.66H1533.43V1218.93Z" fill="#323232"/>
<path d="M1470.08 1218.95H1533.44V1147.67H1470.08V1218.95Z" fill="#2C2C2C"/>
<path d="M2230.36 1076.4H2293.72V1005.12H2230.36V1076.4Z" fill="#373737"/>
<path d="M1406.73 1218.95H1470.08V1147.67H1406.73V1218.95Z" fill="#404040"/>
<path d="M1343.37 1218.95H1406.72V1147.68H1343.37V1218.95Z" fill="#393939"/>
<path d="M1280 1218.96H1343.36V1147.68H1280V1218.96Z" fill="#1E1E1E"/>
<path d="M202.939 933.843H266.296V862.566H202.939V933.843Z" fill="#313131"/>
<path d="M1216.63 1218.91H1279.99V1147.64H1216.63V1218.91Z" fill="#353535"/>
<path d="M1596.75 862.531H1660.11V791.254H1596.75V862.531Z" fill="#1D1D1D"/>
<path d="M1153.31 1218.9H1216.66V1147.62H1153.31V1218.9Z" fill="#1D1D1D"/>
<path d="M1089.94 1218.96H1153.3V1147.68H1089.94V1218.96Z" fill="#161616"/>
<path d="M1850.22 363.605H1913.57V292.328H1850.22V363.605Z" fill="#363636"/>
<path d="M1026.58 1218.95H1089.94V1147.68H1026.58V1218.95Z" fill="#3A3A3A"/>
<path d="M963.183 1218.93H1026.54V1147.65H963.183V1218.93Z" fill="#272727"/>
<path d="M899.893 1219H963.25V1147.72H899.893V1219Z" fill="#393939"/>
<path d="M836.519 1218.98H899.876V1147.7H836.519V1218.98Z" fill="#2C2C2C"/>
<path d="M2420.42 577.437H2483.78V506.16H2420.42V577.437Z" fill="#232323"/>
<path d="M773.154 1218.94H836.511V1147.66H773.154V1218.94Z" fill="#202020"/>
<path d="M709.793 1218.94H773.15V1147.67H709.793V1218.94Z" fill="#282828"/>
<path d="M646.436 1218.94H709.793V1147.67H646.436V1218.94Z" fill="#2F2F2F"/>
<path d="M583.044 1218.96H646.401V1147.69H583.044V1218.96Z" fill="#2A2A2A"/>
<path d="M519.761 1218.96H583.118V1147.68H519.761V1218.96Z" fill="#383838"/>
<path d="M456.364 1218.94H519.721V1147.66H456.364V1218.94Z" fill="#303030"/>
<path d="M1596.8 149.777H1660.16V78.5H1596.8V149.777Z" fill="#373737"/>
<path d="M393.012 1218.9H456.369V1147.62H393.012V1218.9Z" fill="#2A2A2A"/>
<path d="M1913.57 1218.97H1976.93V1147.7H1913.57V1218.97Z" fill="#2B2B2B"/>
<path d="M329.653 1218.94H393.01V1147.66H329.653V1218.94Z" fill="#404040"/>
<path d="M1216.65 221.081H1280.01V149.805H1216.65V221.081Z" fill="#3F3F3F"/>
<path d="M266.293 1218.94H329.651V1147.66H266.293V1218.94Z" fill="#525252"/>
<path d="M202.932 1218.93H266.289V1147.66H202.932V1218.93Z" fill="#363636"/>
<path d="M139.567 1218.96H202.924V1147.69H139.567V1218.96Z" fill="#151515"/>
<path d="M76.2407 1218.99H139.598V1147.71H76.2407V1218.99Z" fill="#292929"/>
<path d="M12.8613 1218.94H76.2184V1147.66H12.8613V1218.94Z" fill="#292929"/>
<path d="M2483.8 1290.24H2547.16V1218.96H2483.8V1290.24Z" fill="#323232"/>
<path d="M2420.44 1290.23H2483.79V1218.95H2420.44V1290.23Z" fill="#2B2B2B"/>
<path d="M2357.05 1290.24H2420.41V1218.96H2357.05V1290.24Z" fill="#202020"/>
<path d="M1280.04 1005.11H1343.39V933.832H1280.04V1005.11Z" fill="#191919"/>
<path d="M2293.75 1290.26H2357.1V1218.99H2293.75V1290.26Z" fill="#363636"/>
<path d="M2230.33 1290.22H2293.68V1218.94H2230.33V1290.22Z" fill="#3A3A3A"/>
<path d="M2167.03 1290.23H2230.39V1218.96H2167.03V1290.23Z" fill="#313131"/>
<path d="M519.737 221.093H583.094V149.816H519.737V221.093Z" fill="#1C1C1C"/>
<path d="M2103.66 1290.24H2167.02V1218.96H2103.66V1290.24Z" fill="#1E1E1E"/>
<path d="M2040.29 1290.24H2103.64V1218.96H2040.29V1290.24Z" fill="#323232"/>
<path d="M1976.95 1290.28H2040.3V1219.01H1976.95V1290.28Z" fill="#383838"/>
<path d="M1913.57 1290.2H1976.93V1218.93H1913.57V1290.2Z" fill="#373737"/>
<path d="M1850.22 1290.17H1913.58V1218.89H1850.22V1290.17Z" fill="#242424"/>
<path d="M1786.87 1290.24H1850.23V1218.96H1786.87V1290.24Z" fill="#2B2B2B"/>
<path d="M1913.56 577.523H1976.92V506.246H1913.56V577.523Z" fill="#2D2D2D"/>
<path d="M1723.51 1290.23H1786.87V1218.95H1723.51V1290.23Z" fill="#272727"/>
<path d="M1660.14 1290.21H1723.5V1218.94H1660.14V1290.21Z" fill="#212121"/>
<path d="M1913.58 506.187H1976.94V434.91H1913.58V506.187Z" fill="#292929"/>
<path d="M1596.8 1290.23H1660.16V1218.95H1596.8V1290.23Z" fill="#464646"/>
<path d="M1533.43 1290.23H1596.79V1218.95H1533.43V1290.23Z" fill="#424242"/>
<path d="M1470.08 1290.23H1533.44V1218.95H1470.08V1290.23Z" fill="#2B2B2B"/>
<path d="M1406.72 1290.24H1470.08V1218.96H1406.72V1290.24Z" fill="#2A2A2A"/>
<path d="M1343.37 1290.23H1406.72V1218.95H1343.37V1290.23Z" fill="#242424"/>
<path d="M1279.97 1290.25H1343.33V1218.97H1279.97V1290.25Z" fill="#0E0E0E"/>
<path d="M266.285 221.058H329.642V149.781H266.285V221.058Z" fill="#121212"/>
<path d="M1216.66 1290.36H1280.02V1219.09H1216.66V1290.36Z" fill="#373737"/>
<path d="M1153.32 1290.26H1216.68V1218.98H1153.32V1290.26Z" fill="#464646"/>
<path d="M963.213 149.777H1026.57V78.5H963.213V149.777Z" fill="#323232"/>
<path d="M1089.93 1290.25H1153.28V1218.97H1089.93V1290.25Z" fill="#1C1C1C"/>
<path d="M1026.59 1290.23H1089.94V1218.96H1026.59V1290.23Z" fill="#1B1B1B"/>
<path d="M1026.57 506.191H1089.93V434.914H1026.57V506.191Z" fill="#333333"/>
<path d="M899.827 1290.17H963.184V1218.89H899.827V1290.17Z" fill="#1A1A1A"/>
<path d="M266.317 720.007H329.674V648.73H266.317V720.007Z" fill="#1C1C1C"/>
<path d="M836.53 1290.25H899.887V1218.97H836.53V1290.25Z" fill="#353535"/>
<path d="M773.172 1290.26H836.529V1218.98H773.172V1290.26Z" fill="#282828"/>
<path d="M709.752 1290.27H773.109V1218.99H709.752V1290.27Z" fill="#1B1B1B"/>
<path d="M646.465 1290.33H709.822V1219.05H646.465V1290.33Z" fill="#151515"/>
<path d="M583.075 1290.22H646.432V1218.94H583.075V1290.22Z" fill="#121212"/>
<path d="M1406.71 720.058H1470.07V648.781H1406.71V720.058Z" fill="#2C2C2C"/>
<path d="M519.734 1290.21H583.091V1218.94H519.734V1290.21Z" fill="#464646"/>
<path d="M2357.07 149.808H2420.43V78.5312H2357.07V149.808Z" fill="#525252"/>
<path d="M456.358 1290.23H519.715V1218.96H456.358V1290.23Z" fill="#3D3D3D"/>
<path d="M393.014 1290.23H456.371V1218.96H393.014V1290.23Z" fill="#1B1B1B"/>
<path d="M329.654 1290.18H393.011V1218.9H329.654V1290.18Z" fill="#151515"/>
<path d="M266.305 1290.21H329.662V1218.94H266.305V1290.21Z" fill="#282828"/>
<path d="M202.937 1290.23H266.294V1218.95H202.937V1290.23Z" fill="#1E1E1E"/>
<path d="M139.571 1290.21H202.928V1218.93H139.571V1290.21Z" fill="#1F1F1F"/>
<path d="M2483.75 1218.89H2547.11V1147.61H2483.75V1218.89Z" fill="#202020"/>
<path d="M76.2144 1290.25H139.571V1218.97H76.2144V1290.25Z" fill="#171717"/>
<path d="M12.8838 1290.25H76.2409V1218.97H12.8838V1290.25Z" fill="#363636"/>
<path d="M2483.81 1361.49H2547.16V1290.21H2483.81V1361.49Z" fill="#3E3E3E"/>
<path d="M2420.44 1361.51H2483.8V1290.23H2420.44V1361.51Z" fill="#373737"/>
<path d="M2357.06 1361.48H2420.42V1290.21H2357.06V1361.48Z" fill="#2E2E2E"/>
<path d="M2293.73 1361.46H2357.09V1290.18H2293.73V1361.46Z" fill="#2C2C2C"/>
<path d="M2230.36 1361.5H2293.72V1290.23H2230.36V1361.5Z" fill="#212121"/>
<path d="M1216.66 1147.66H1280.01V1076.38H1216.66V1147.66Z" fill="#2A2A2A"/>
<path d="M2166.94 1361.5H2230.3V1290.23H2166.94V1361.5Z" fill="#333333"/>
<path d="M2103.72 1361.49H2167.07V1290.21H2103.72V1361.49Z" fill="#202020"/>
<path d="M2040.25 1361.47H2103.61V1290.2H2040.25V1361.47Z" fill="#383838"/>
<path d="M1913.57 1361.51H1976.93V1290.24H1913.57V1361.51Z" fill="#4B4B4B"/>
<path d="M1850.24 1361.53H1913.59V1290.26H1850.24V1361.53Z" fill="#1D1D1D"/>
<path d="M1786.85 1361.48H1850.21V1290.21H1786.85V1361.48Z" fill="#111111"/>
<path d="M963.222 1290.22H1026.58V1218.95H963.222V1290.22Z" fill="#303030"/>
<path d="M1723.52 1361.5H1786.87V1290.22H1723.52V1361.5Z" fill="#2A2A2A"/>
<path d="M76.2227 720.023H139.58V648.746H76.2227V720.023Z" fill="#121212"/>
<path d="M1660.15 1361.5H1723.51V1290.23H1660.15V1361.5Z" fill="#272727"/>
<path d="M1596.79 1361.5H1660.15V1290.22H1596.79V1361.5Z" fill="#2E2E2E"/>
<path d="M1533.44 1361.5H1596.8V1290.22H1533.44V1361.5Z" fill="#323232"/>
<path d="M2103.65 1147.69H2167.01V1076.41H2103.65V1147.69Z" fill="#2B2B2B"/>
<path d="M1470.08 1361.51H1533.44V1290.24H1470.08V1361.51Z" fill="#1C1C1C"/>
<path d="M1406.72 1361.5H1470.08V1290.23H1406.72V1361.5Z" fill="#444444"/>
<path d="M1343.36 1361.5H1406.72V1290.22H1343.36V1361.5Z" fill="#353535"/>
<path d="M1279.98 1361.47H1343.34V1290.19H1279.98V1361.47Z" fill="#222222"/>
<path d="M1216.67 1361.36H1280.02V1290.09H1216.67V1361.36Z" fill="#292929"/>
<path d="M1153.31 1361.48H1216.66V1290.2H1153.31V1361.48Z" fill="#232323"/>
<path d="M1723.47 648.726H1786.83V577.449H1723.47V648.726Z" fill="#121212"/>
<path d="M456.359 648.738H519.716V577.461H456.359V648.738Z" fill="#292929"/>
<path d="M1089.91 1361.47H1153.26V1290.19H1089.91V1361.47Z" fill="#3D3D3D"/>
<path d="M1026.57 1361.51H1089.92V1290.23H1026.57V1361.51Z" fill="#383838"/>
<path d="M963.248 1361.62H1026.61V1290.34H963.248V1361.62Z" fill="#484848"/>
<path d="M1089.94 1147.66H1153.29V1076.39H1089.94V1147.66Z" fill="#545454"/>
<path d="M1976.98 1361.46H2040.33V1290.18H1976.98V1361.46Z" fill="#4F4F4F"/>
<path d="M899.882 1361.53H963.239V1290.25H899.882V1361.53Z" fill="#383838"/>
<path d="M836.5 1361.45H899.857V1290.17H836.5V1361.45Z" fill="#363636"/>
<path d="M1406.72 149.812H1470.08V78.5352H1406.72V149.812Z" fill="#3A3A3A"/>
<path d="M773.148 1361.51H836.505V1290.23H773.148V1361.51Z" fill="#2E2E2E"/>
<path d="M709.778 1361.48H773.135V1290.2H709.778V1361.48Z" fill="#272727"/>
<path d="M646.463 1361.4H709.82V1290.12H646.463V1361.4Z" fill="#373737"/>
<path d="M519.721 78.5189H583.078V7.24219H519.721V78.5189Z" fill="#272727"/>
<path d="M583.084 1361.48H646.442V1290.21H583.084V1361.48Z" fill="#222222"/>
<path d="M393.004 292.359H456.361V221.082H393.004V292.359Z" fill="#303030"/>
<path d="M519.723 1361.5H583.08V1290.22H519.723V1361.5Z" fill="#383838"/>
<path d="M456.328 1361.49H519.685V1290.21H456.328V1361.49Z" fill="#3E3E3E"/>
<path d="M2293.74 149.816H2357.09V78.5391H2293.74V149.816Z" fill="#3D3D3D"/>
<path d="M393.032 1361.51H456.389V1290.23H393.032V1361.51Z" fill="#2A2A2A"/>
<path d="M329.664 1361.51H393.021V1290.24H329.664V1361.51Z" fill="#2F2F2F"/>
<path d="M266.254 1361.53H329.611V1290.25H266.254V1361.53Z" fill="#454545"/>
<path d="M202.974 1361.5H266.331V1290.22H202.974V1361.5Z" fill="#292929"/>
<path d="M1533.46 292.242H1596.82V220.965H1533.46V292.242Z" fill="#3B3B3B"/>
<path d="M139.584 1361.51H202.942V1290.23H139.584V1361.51Z" fill="#484848"/>
<path d="M76.186 1361.45H139.543V1290.17H76.186V1361.45Z" fill="#1E1E1E"/>
<path d="M12.8833 1361.54H76.2404V1290.27H12.8833V1361.54Z" fill="#2C2C2C"/>
<path d="M709.798 363.648H773.155V292.371H709.798V363.648Z" fill="#2A2A2A"/>
<path d="M2483.74 1432.85H2547.1V1361.58H2483.74V1432.85Z" fill="#272727"/>
<path d="M2420.49 1432.79H2483.85V1361.52H2420.49V1432.79Z" fill="#212121"/>
<path d="M2167.02 720.007H2230.37V648.73H2167.02V720.007Z" fill="#2C2C2C"/>
<path d="M2357.07 1432.78H2420.43V1361.5H2357.07V1432.78Z" fill="#343434"/>
<path d="M2293.72 1432.82H2357.08V1361.54H2293.72V1432.82Z" fill="#353535"/>
<path d="M2230.35 1432.77H2293.71V1361.49H2230.35V1432.77Z" fill="#454545"/>
<path d="M2483.8 577.452H2547.15V506.176H2483.8V577.452Z" fill="#383838"/>
<path d="M2167 1432.77H2230.35V1361.49H2167V1432.77Z" fill="#454545"/>
<path d="M2103.67 1432.77H2167.03V1361.49H2103.67V1432.77Z" fill="#4B4B4B"/>
<path d="M2483.79 506.191H2547.15V434.914H2483.79V506.191Z" fill="#3A3A3A"/>
<path d="M2040.28 1432.78H2103.63V1361.5H2040.28V1432.78Z" fill="#393939"/>
<path d="M1343.35 1076.33H1406.7V1005.05H1343.35V1076.33Z" fill="#494949"/>
<path d="M1976.96 1432.78H2040.32V1361.5H1976.96V1432.78Z" fill="#383838"/>
<path d="M1913.58 1432.75H1976.94V1361.48H1913.58V1432.75Z" fill="#383838"/>
<path d="M1850.2 1432.75H1913.56V1361.47H1850.2V1432.75Z" fill="#515151"/>
<path d="M1786.88 1432.78H1850.24V1361.5H1786.88V1432.78Z" fill="#3F3F3F"/>
<path d="M1723.51 1432.78H1786.87V1361.5H1723.51V1432.78Z" fill="#2E2E2E"/>
<path d="M456.321 434.925H519.678V363.648H456.321V434.925Z" fill="#343434"/>
<path d="M1660.15 1432.78H1723.51V1361.5H1660.15V1432.78Z" fill="#494949"/>
<path d="M1596.79 1432.78H1660.15V1361.5H1596.79V1432.78Z" fill="#535353"/>
<path d="M1533.44 1432.78H1596.79V1361.5H1533.44V1432.78Z" fill="#4A4A4A"/>
<path d="M1470.08 1432.77H1533.44V1361.49H1470.08V1432.77Z" fill="#424242"/>
<path d="M1406.72 1432.76H1470.07V1361.48H1406.72V1432.76Z" fill="#303030"/>
<path d="M1343.33 1432.8H1406.69V1361.52H1343.33V1432.8Z" fill="#2B2B2B"/>
<path d="M899.864 791.288H963.221V720.012H899.864V791.288Z" fill="#3E3E3E"/>
<path d="M1280.04 1432.8H1343.4V1361.52H1280.04V1432.8Z" fill="#424242"/>
<path d="M1216.63 1432.78H1279.99V1361.51H1216.63V1432.78Z" fill="#303030"/>
<path d="M1153.31 1432.77H1216.67V1361.5H1153.31V1432.77Z" fill="#313131"/>
<path d="M1089.93 1432.8H1153.29V1361.53H1089.93V1432.8Z" fill="#3C3C3C"/>
<path d="M1026.55 1432.78H1089.91V1361.5H1026.55V1432.78Z" fill="#444444"/>
<path d="M963.176 1432.7H1026.53V1361.42H963.176V1432.7Z" fill="#474747"/>
<path d="M899.923 1432.74H963.28V1361.46H899.923V1432.74Z" fill="#2F2F2F"/>
<path d="M836.505 933.843H899.862V862.566H836.505V933.843Z" fill="#252525"/>
<path d="M836.524 1432.8H899.881V1361.52H836.524V1432.8Z" fill="#282828"/>
<path d="M1343.32 78.554H1406.68V7.27734H1343.32V78.554Z" fill="#272727"/>
<path d="M773.122 1432.73H836.479V1361.46H773.122V1432.73Z" fill="#2C2C2C"/>
<path d="M709.829 1432.77H773.186V1361.5H709.829V1432.77Z" fill="#222222"/>
<path d="M646.438 1432.78H709.795V1361.5H646.438V1432.78Z" fill="#353535"/>
<path d="M1786.86 577.46H1850.21V506.184H1786.86V577.46Z" fill="#4D4D4D"/>
<path d="M583.078 1432.78H646.435V1361.51H583.078V1432.78Z" fill="#3F3F3F"/>
<path d="M393.01 221.074H456.367V149.797H393.01V221.074Z" fill="#474747"/>
<path d="M329.651 221.074H393.008V149.797H329.651V221.074Z" fill="#454545"/>
<path d="M519.713 1432.82H583.07V1361.55H519.713V1432.82Z" fill="#393939"/>
<path d="M456.378 1432.81H519.736V1361.53H456.378V1432.81Z" fill="#454545"/>
<path d="M393.009 1432.78H456.366V1361.5H393.009V1432.78Z" fill="#434343"/>
<path d="M329.631 1432.87H392.988V1361.59H329.631V1432.87Z" fill="#363636"/>
<path d="M2483.79 149.796H2547.14V78.5195H2483.79V149.796Z" fill="#3E3E3E"/>
<path d="M266.261 1432.75H329.618V1361.48H266.261V1432.75Z" fill="#3A3A3A"/>
<path d="M202.935 1432.78H266.292V1361.5H202.935V1432.78Z" fill="#484848"/>
<path d="M2040.3 78.5306H2103.66V7.25391H2040.3V78.5306Z" fill="#424242"/>
<path d="M139.639 1432.8H202.996V1361.53H139.639V1432.8Z" fill="#2C2C2C"/>
<path d="M2483.8 434.878H2547.16V363.602H2483.8V434.878Z" fill="#343434"/>
<path d="M1089.95 577.46H1153.31V506.184H1089.95V577.46Z" fill="#2E2E2E"/>
<path d="M76.2227 1432.77H139.58V1361.5H76.2227V1432.77Z" fill="#2A2A2A"/>
<path d="M12.8213 1432.71H76.1784V1361.43H12.8213V1432.71Z" fill="#353535"/>
<path d="M2483.82 78.472H2547.18V7.19531H2483.82V78.472Z" fill="#2E2E2E"/>
</svg>
