<?xml version="1.0" encoding="UTF-8"?>
<svg id="Layer_1" xmlns="http://www.w3.org/2000/svg" version="1.1" viewBox="0 0 100 100">
  <!-- Generator: Adobe Illustrator 29.5.0, SVG Export Plug-In . SVG Version: 2.1.0 Build 137)  -->
  <path d="M50.48,22.04c2.55-.33,5.19-.16,7.63.71,1.84.67,3.56,1.8,4.62,3.47.67,1.05,1,2.29.99,3.55-.02,1.14.12,2.33-.39,3.39-.94,2.03-3,3.29-5.11,3.82,1.89.38,3.79,1.19,5.12,2.64,1.01,1.07,1.6,2.53,1.58,4.01-.03,1.43.14,2.91-.32,4.28-.61,1.97-2.1,3.58-3.86,4.62-2.47,1.48-5.42,2.01-8.28,1.93-2.4-.07-4.85-.49-6.96-1.68-1.72-.95-3.15-2.48-3.92-4.29-.44-1-.71-2.1-.84-3.19h7.31c.12,1.05.62,2.08,1.48,2.73,1.1.84,2.58,1,3.92.9,1.21-.11,2.47-.61,3.14-1.68.62-.95.63-2.13.6-3.23.04-1.01-.33-2.08-1.11-2.76-.96-.84-2.25-1.14-3.47-1.24-1.14-.07-2.28-.02-3.4-.04-.02-1.73,0-3.47,0-5.21,1.47-.04,2.96.13,4.4-.23.92-.24,1.83-.77,2.21-1.68.36-.76.28-1.64.28-2.45,0-.76-.2-1.56-.77-2.11-.76-.76-1.91-.97-2.96-.94-1.03,0-2.12.31-2.84,1.08-.67.67-1,1.59-1.08,2.52-2.44.02-4.87,0-7.31,0,.09-2.21,1.1-4.35,2.7-5.87,1.8-1.72,4.24-2.68,6.68-3" style="fill: #fff;"/>
  <path d="M35.82,71.78h3.71c.79,3.15,1.6,6.32,2.37,9.48.84-3.15,1.67-6.33,2.52-9.48h3.58v11.8h-2.8v-5.63c0-.64.03-1.28-.04-1.91-.59,2.52-1.3,5.02-1.93,7.54h-2.79c-.68-2.63-1.4-5.24-2.07-7.87-.04,2.62,0,5.25-.02,7.87h-2.53v-11.8" style="fill: #fff;"/>
  <path d="M49.52,83.58c1.13-3.94,2.25-7.87,3.38-11.8,1.32.03,2.64-.04,3.94.04,1.2,3.92,2.37,7.85,3.55,11.78h-3c-.23-.86-.48-1.72-.72-2.58h-3.54c-.23.85-.44,1.72-.67,2.59h-2.94M54.85,73.73c-.4,1.7-.8,3.39-1.19,5.07h2.42c-.41-1.7-.83-3.39-1.23-5.07" style="fill: #fff;"/>
  <path d="M61.61,71.78h3.23c.67,1.24,1.32,2.5,1.98,3.75.74-1.23,1.37-2.51,2.06-3.75h3.12c-1.11,1.78-2.24,3.55-3.35,5.31,1.24,2.17,2.48,4.33,3.72,6.49h-3.33c-.7-1.4-1.42-2.77-2.12-4.18-.04-.09-.11-.17-.17-.24-.76,1.48-1.53,2.93-2.28,4.42h-3.24c1.24-2.08,2.49-4.16,3.73-6.25l-3.33-5.56" style="fill: #fff;"/>
  <path d="M12.4,17.3c4.03-2.43,8.07-4.86,12.1-7.3,0,18.74-.02,37.49,0,56.23-1.85,1.12-3.71,2.23-5.55,3.35-2.22,1.32-4.42,2.68-6.65,3.98.03-18.36,0-36.72,0-55.09.03-.39-.09-.81.07-1.17" style="fill: #7fc5de;"/>
  <path d="M24.5,10.01h53.56c1.09-.02,2.19.44,2.95,1.24.71.75,1.15,1.77,1.14,2.81v52.16c-19.21.04-38.42,0-57.64.02-.02-18.74,0-37.49,0-56.23M50.48,22.04c-2.45.33-4.88,1.28-6.68,3-1.6,1.53-2.62,3.65-2.7,5.87h7.31c.08-.92.42-1.86,1.08-2.52.73-.76,1.8-1.08,2.84-1.08,1.05-.03,2.2.18,2.96.94.56.54.76,1.34.77,2.11,0,.83.09,1.69-.28,2.45-.38.91-1.31,1.44-2.21,1.68-1.44.37-2.93.2-4.4.23v5.21c1.14.03,2.28-.04,3.4.04,1.24.12,2.52.42,3.47,1.24.78.68,1.15,1.73,1.11,2.76.03,1.1.02,2.28-.6,3.23-.67,1.07-1.93,1.57-3.14,1.68-1.34.12-2.82-.04-3.92-.9-.85-.65-1.34-1.67-1.48-2.73h-7.31c.12,1.09.38,2.19.84,3.19.77,1.81,2.19,3.34,3.92,4.29,2.12,1.19,4.57,1.61,6.96,1.68,2.85.08,5.8-.44,8.28-1.93,1.76-1.04,3.23-2.65,3.86-4.62.46-1.39.29-2.85.32-4.28.03-1.48-.56-2.94-1.58-4.01-1.33-1.45-3.22-2.26-5.12-2.64,2.11-.53,4.17-1.8,5.11-3.82.52-1.06.37-2.25.39-3.39.02-1.24-.31-2.49-.99-3.55-1.05-1.68-2.78-2.82-4.62-3.47-2.44-.87-5.07-1.03-7.63-.71" style="fill: #39a5cc;"/>
  <path d="M82.15,22.51h5.54v67.48H23.62c-.76.03-1.53-.02-2.22-.35-1.45-.62-2.44-2.13-2.43-3.71v-16.34c1.85-1.12,3.71-2.22,5.55-3.35,19.21-.02,38.43.02,57.64-.02V22.5M35.82,71.78v11.8h2.53c0-2.62-.03-5.25.02-7.87.68,2.63,1.39,5.24,2.07,7.87h2.79c.63-2.52,1.33-5.01,1.93-7.54.07.63.04,1.27.04,1.91v5.63h2.8v-11.8h-3.58c-.84,3.15-1.67,6.33-2.52,9.48-.77-3.16-1.57-6.33-2.37-9.48h-3.71M49.52,83.58h2.94c.22-.86.44-1.72.67-2.59h3.54c.25.85.49,1.72.72,2.58h3c-1.17-3.93-2.36-7.86-3.55-11.78-1.3-.07-2.62,0-3.94-.04-1.12,3.94-2.25,7.87-3.38,11.8M61.61,71.78l3.33,5.56c-1.24,2.08-2.48,4.17-3.73,6.25h3.24c.76-1.48,1.54-2.93,2.28-4.42.06.07.12.15.17.24.7,1.4,1.42,2.77,2.12,4.18h3.33c-1.24-2.16-2.49-4.33-3.72-6.49,1.11-1.78,2.24-3.55,3.35-5.31h-3.12c-.69,1.24-1.32,2.52-2.06,3.75-.66-1.25-1.32-2.51-1.98-3.75h-3.23" style="fill: #36687f;"/>
  <path d="M54.85,73.73c.4,1.7.83,3.39,1.23,5.07h-2.42c.39-1.7.79-3.39,1.19-5.07" style="fill: #36687f;"/>
</svg>