<?xml version="1.0" encoding="UTF-8"?>
<svg id="Layer_1" xmlns="http://www.w3.org/2000/svg" version="1.1" viewBox="0 0 100 100">
  <!-- Generator: Adobe Illustrator 29.5.0, SVG Export Plug-In . SVG Version: 2.1.0 Build 137)  -->
  <path d="M94.91,41.3c0-11.87-9.92-21.44-22.14-21.44-1.12-.03-2.25.03-3.36.18-9.56,1.42-15.95,8.15-19.49,13.46-3.54-5.31-9.92-12.05-19.5-13.46-1.11-.15-2.24-.21-3.36-.18-12.21,0-22.14,9.56-22.14,21.44s9.93,21.48,22.14,21.48c1.12.01,2.24-.06,3.35-.23,9.58-1.42,15.95-8.15,19.49-13.46,3.54,5.31,9.93,12.04,19.49,13.46,1.11.15,2.24.21,3.36.18,12.05-.18,22.14-9.74,22.14-21.44h.01,0ZM29.19,54.94c-.76.14-1.53.2-2.3.17-7.97,0-14.53-6.19-14.53-13.81s6.55-13.81,14.7-13.81c.77-.03,1.55.03,2.3.18,9.04,1.23,14.53,10.09,16.3,13.64-1.95,3.54-7.44,12.23-16.48,13.65h0ZM54.02,41.3c1.89-3.54,7.23-12.4,16.27-13.64.76-.15,1.52-.21,2.3-.18,8.15,0,14.7,6.19,14.7,13.81s-6.55,13.81-14.53,13.81c-.77.03-1.55-.03-2.3-.17-9.21-1.42-14.7-10.1-16.44-13.65h0Z" style="fill: #007481;"/>
  <path d="M33.98,39.18h-13.29v4.25h13.29v-4.25Z" style="fill: #007481;"/>
  <path d="M74.18,43.43h4.43v-4.25h-4.43v-4.61h-4.43v4.61h-4.43v4.25h4.43v4.61h4.43s0-4.61,0-4.61Z" style="fill: #007481;"/>
  <path d="M94.72,21.14c-.12-.28-.28-.54-.5-.76-.22-.21-.47-.38-.75-.51-.3-.13-.62-.2-.95-.2s-.65.07-.95.2c-.28.12-.53.29-.75.51-.22.22-.38.47-.5.76-.13.3-.19.62-.19.95,0,.64.26,1.25.7,1.71.22.21.47.38.75.5.29.13.62.2.95.2s.65-.07.95-.2c.28-.12.53-.29.75-.5.21-.22.38-.48.5-.77.13-.3.19-.62.19-.95,0-.33-.06-.65-.2-.95h0ZM94.2,22.81c-.08.22-.22.42-.39.58-.17.17-.36.3-.57.41-.22.1-.45.15-.69.15s-.48-.05-.71-.15c-.21-.1-.41-.24-.57-.41-.16-.17-.29-.37-.38-.58-.09-.23-.14-.48-.14-.73,0-.25.04-.5.14-.73.09-.22.22-.42.38-.6.16-.17.36-.3.57-.39.22-.09.47-.14.71-.14.24,0,.47.04.69.14.21.09.4.22.57.39.17.17.3.37.39.6.09.23.14.48.14.73s-.04.49-.14.73Z" style="fill: #007481;"/>
  <path d="M93.07,22.32c.13-.06.24-.16.31-.28.07-.12.11-.26.11-.39,0-.22-.08-.43-.23-.58-.23-.18-.52-.27-.81-.24h-.72v2.35h.6v-.77h.24l.42.77h.71l-.61-.84h0ZM92.47,22h-.18v-.63h.2c.26,0,.38.11.38.34s-.13.29-.39.29h0Z" style="fill: #007481;"/>
  <path d="M12.86,80.06l.65-2.59h3.64l.7,2.59h3.33l-4.03-12.67h-3.53l-3.98,12.67h3.21ZM16.5,75.04h-2.4l1.15-4.64,1.25,4.64Z" style="fill: #007481;"/>
  <path d="M22.2,80.06h3.14v-4.02h1.58l1.91,4.02h3.7l-2.47-4.64c1.38-.74,2.09-2.06,2.09-3.8,0-2.44-1.32-4.23-4.83-4.23h-5.11s0,12.67,0,12.67ZM27,73.54h-1.66v-3.59h1.6c1.46,0,1.87.57,1.87,1.7,0,1.4-.72,1.89-1.81,1.89h0Z" style="fill: #007481;"/>
  <path d="M33.7,80.06h4.17c5.38,0,6.3-3.45,6.3-6.45,0-3.98-1.58-6.22-6.32-6.22h-4.15v12.67h0ZM37.75,69.95c2.81,0,3.06,1.32,3.06,3.8,0,2.15-.19,3.72-2.79,3.72h-1.19v-7.52h.92Z" style="fill: #007481;"/>
  <path d="M52.46,75.13c0,1.93-.53,2.57-1.95,2.57-1.19,0-1.93-.49-1.93-2.59v-7.72h-3.14v8.3c0,3.84,2.77,4.56,4.93,4.56s5.11-.8,5.11-4.54v-8.32h-3.02v7.74h0Z" style="fill: #007481;"/>
  <path d="M57.31,80.06h9.7v-2.59h-3.29v-7.49h3.29v-2.59h-9.7v2.59h3.28v7.49h-3.28v2.59Z" style="fill: #007481;"/>
  <path d="M71.56,71.96l4.33,8.11h3.18v-12.67h-2.93v7.6l-4.12-7.6h-3.41v12.67h2.96l-.02-8.11h0Z" style="fill: #007481;"/>
  <path d="M85.47,67.22c-3.84,0-5.3,2.83-5.3,6.65,0,4.19,1.67,6.4,5.32,6.4,4.07,0,5.42-2.86,5.42-6.53,0-4.83-1.83-6.51-5.44-6.51h0ZM85.49,77.71c-1.81,0-1.99-1.28-1.99-3.84,0-3.1.29-4.09,1.97-4.09,1.85,0,2.1.86,2.1,3.95,0,2.93-.26,3.98-2.09,3.98h0Z" style="fill: #007481;"/>
</svg>