<?xml version="1.0" encoding="UTF-8"?>
<svg id="Layer_1" xmlns="http://www.w3.org/2000/svg" version="1.1" xmlns:xlink="http://www.w3.org/1999/xlink"
  viewBox="0 0 100 100">
  <!-- Generator: Adobe Illustrator 29.5.0, SVG Export Plug-In . SVG Version: 2.1.0 Build 137)  -->
  <defs>
    <linearGradient id="astro-linear-gradient" x1="31.54" y1="824.5" x2="66.44" y2="808.01"
      gradientTransform="translate(0 -742)" gradientUnits="userSpaceOnUse">
      <stop offset="0" stop-color="#d83333" />
      <stop offset="1" stop-color="#f041ff" />
    </linearGradient>
  </defs>
  <path
    d="M38.92,78.14c-3.61-3.3-4.67-10.25-3.16-15.27,2.61,3.17,6.23,4.18,9.98,4.74,5.78.87,11.47.55,16.84-2.1.61-.3,1.18-.71,1.85-1.11.5,1.46.64,2.94.46,4.44-.43,3.66-2.25,6.49-5.15,8.63-1.16.86-2.38,1.62-3.58,2.43-3.68,2.48-4.67,5.4-3.29,9.64.03.1.06.21.14.46-1.88-.84-3.25-2.06-4.29-3.67-1.1-1.7-1.63-3.57-1.66-5.61,0-.99,0-1.99-.15-2.96-.32-2.38-1.44-3.44-3.54-3.5-2.16-.06-3.86,1.27-4.32,3.37-.03.16-.08.32-.13.51h0Z"
    style="fill: #fff;" />
  <path
    d="M38.92,78.14c-3.61-3.3-4.67-10.25-3.16-15.27,2.61,3.17,6.23,4.18,9.98,4.74,5.78.87,11.47.55,16.84-2.1.61-.3,1.18-.71,1.85-1.11.5,1.46.64,2.94.46,4.44-.43,3.66-2.25,6.49-5.15,8.63-1.16.86-2.38,1.62-3.58,2.43-3.68,2.48-4.67,5.4-3.29,9.64.03.1.06.21.14.46-1.88-.84-3.25-2.06-4.29-3.67-1.1-1.7-1.63-3.57-1.66-5.61,0-.99,0-1.99-.15-2.96-.32-2.38-1.44-3.44-3.54-3.5-2.16-.06-3.86,1.27-4.32,3.37-.03.16-.08.32-.13.51h0Z"
    style="fill: url(#astro-linear-gradient);" />
  <path
    d="M18.29,62.03s10.7-5.21,21.43-5.21l8.09-25.04c.3-1.21,1.19-2.03,2.19-2.03s1.88.82,2.19,2.03l8.09,25.04c12.71,0,21.43,5.21,21.43,5.21,0,0-18.18-49.52-18.21-49.62-.52-1.46-1.4-2.41-2.59-2.41h-21.81c-1.19,0-2.03.94-2.59,2.41-.04.1-18.22,49.62-18.22,49.62Z"
    style="fill: #231f20;" />
</svg>