<?xml version="1.0" encoding="UTF-8"?>
<svg id="Layer_1" xmlns="http://www.w3.org/2000/svg" version="1.1" viewBox="0 0 100 100">
  <!-- Generator: Adobe Illustrator 29.5.0, SVG Export Plug-In . SVG Version: 2.1.0 Build 137)  -->
  <path d="M47.83,22.65h10.41c3.11,10.38,6.27,20.76,9.39,31.15h-7.94c-.6-2.19-1.23-4.36-1.83-6.53-.04-.09-.03-.31-.19-.26h-9.24c-.58,2.27-1.16,4.52-1.72,6.79-2.6.02-5.18,0-7.77,0,2.98-10.38,5.95-20.77,8.91-31.15M53.01,27.8c-.09.22-.15.44-.17.68-1,4.24-2.01,8.48-3,12.73h6.4c-1-4.2-2.04-8.4-3.04-12.61-.04-.28-.12-.54-.2-.82" style="fill: #fff;"/>
  <path d="M38.85,72.64c.96-.86,2.3-1.16,3.56-1.13,1.16.02,2.41.28,3.28,1.09.75.68,1.08,1.69,1.09,2.68h-2.72c-.04-.59-.28-1.22-.85-1.47-.75-.32-1.73-.24-2.29.4-.36.42-.45.97-.46,1.49v3.8c0,.52.04,1.08.34,1.53.28.45.81.71,1.33.75s1.12-.05,1.51-.45c.34-.35.43-.84.45-1.31h2.76c-.07,1.01-.37,2.08-1.15,2.79-.91.84-2.2,1.08-3.39,1.09-1.28.04-2.62-.33-3.56-1.24-.84-.81-1.26-2-1.28-3.16v-3.61c.02-1.21.44-2.45,1.37-3.27" style="fill: #fff;"/>
  <path d="M50.94,71.81h3.96c1.17,3.94,2.37,7.87,3.56,11.81h-3.01l-.72-2.59h-3.54c-.22.86-.44,1.72-.66,2.59h-2.94c1.12-3.94,2.26-7.87,3.37-11.81M52.91,73.75c-.41,1.7-.8,3.4-1.2,5.08h2.43c-.41-1.7-.83-3.39-1.23-5.08" style="fill: #fff;"/>
  <path d="M59.88,71.8h2.96c1.1,0,2.25-.08,3.32.28,1.16.35,2.18,1.23,2.6,2.37.52,1.27.32,2.66.36,3.99.04,1.32-.28,2.73-1.22,3.7-1,1.06-2.49,1.45-3.89,1.48h-4.12v-11.81M62.84,73.92v7.57c.69-.02,1.42.07,2.08-.2.54-.2.92-.71,1.08-1.25.28-.96.12-1.97.17-2.96,0-.92.05-1.98-.66-2.68-.73-.67-1.78-.44-2.68-.48" style="fill: #fff;"/>
  <path d="M21.49,11.77c1-.59,1.96-1.22,2.98-1.78v56.27c-1.63.98-3.24,1.96-4.88,2.93-.24.13-.45.28-.68.44-2.22,1.27-4.4,2.65-6.61,3.96-.02-18.76,0-37.52,0-56.27,3.06-1.87,6.13-3.7,9.2-5.55" style="fill: #e85984;"/>
  <path d="M53.01,27.8c.08.27.15.53.2.82-.07-.12-.14-.21-.22-.32-.04.04-.11.14-.13.2.02-.24.08-.46.17-.68" style="fill: #e85984;"/>
  <path d="M24.46,9.99c7.84.04,15.69,0,23.53.02h29.69c.52,0,1.07-.04,1.56.13,1.64.47,2.89,2.08,2.9,3.8v51.99c-.02.12.04.37-.16.33H24.46V10M47.83,22.65c-2.96,10.38-5.94,20.77-8.91,31.15,2.6,0,5.18.02,7.77,0,.56-2.28,1.16-4.52,1.72-6.79h9.24c.17-.04.13.17.19.26.6,2.18,1.23,4.36,1.83,6.53,2.65.02,5.3,0,7.94,0-3.12-10.38-6.27-20.76-9.39-31.15-3.47-.02-6.93,0-10.41,0" style="fill: #e51050;"/>
  <path d="M52.99,28.3c.07.11.15.2.22.32,1,4.2,2.04,8.4,3.04,12.61h-6.4c.99-4.25,1.98-8.49,3-12.73.04-.04.11-.14.13-.2" style="fill: #e51050;"/>
  <path d="M82.16,22.49h5.55v67.5H23.66c-.68-.02-1.4.06-2.04-.2-1.56-.53-2.68-2.09-2.69-3.72-.02-5.47,0-10.94,0-16.42.22-.15.44-.31.68-.44,1.64-.98,3.25-1.96,4.88-2.93h57.53c.2.04.13-.21.16-.33V22.49M38.85,72.64c-.92.81-1.35,2.06-1.37,3.27v3.61c.02,1.16.43,2.35,1.28,3.16.93.92,2.28,1.27,3.56,1.24,1.19,0,2.48-.25,3.39-1.09.76-.71,1.08-1.78,1.15-2.79h-2.76c-.04.46-.12.96-.45,1.31-.38.4-.98.49-1.51.45-.52-.03-1.06-.28-1.33-.75-.28-.44-.34-1-.34-1.53v-3.8c0-.52.12-1.08.46-1.49.55-.64,1.55-.72,2.29-.4.57.25.83.88.85,1.47h2.72c-.03-.99-.36-2-1.09-2.68-.87-.82-2.12-1.08-3.28-1.09-1.26-.04-2.6.27-3.56,1.13M50.94,71.81c-1.12,3.94-2.25,7.87-3.37,11.81h2.94c.22-.86.44-1.72.66-2.59h3.54c.24.86.49,1.72.72,2.59h3.01c-1.18-3.94-2.37-7.87-3.56-11.81h-3.96M59.88,71.8v11.81h4.12c1.4-.04,2.91-.42,3.89-1.48.94-.98,1.25-2.38,1.22-3.7-.04-1.32.16-2.72-.36-3.99-.44-1.16-1.43-2.03-2.6-2.37-1.08-.36-2.2-.28-3.32-.28h-2.96" style="fill: #770829;"/>
  <path d="M52.91,73.75c.4,1.7.82,3.39,1.23,5.08h-2.43c.4-1.7.79-3.4,1.2-5.08" style="fill: #770829;"/>
  <path d="M62.84,73.92c.9.04,1.96-.19,2.68.48.71.68.66,1.76.66,2.68-.04.99.11,2-.17,2.96-.15.55-.53,1.05-1.08,1.25-.66.28-1.39.19-2.08.2v-7.57" style="fill: #770829;"/>
</svg>