<?xml version="1.0" encoding="UTF-8"?>
<svg id="Layer_1" xmlns="http://www.w3.org/2000/svg" version="1.1" viewBox="0 0 100 100">
  <!-- Generator: Adobe Illustrator 29.5.0, SVG Export Plug-In . SVG Version: 2.1.0 Build 137)  -->
  <path d="M89.83,31.09c0-1.52-.33-2.85-.98-3.99-.64-1.13-1.61-2.07-2.9-2.82-10.65-6.14-21.33-12.27-31.98-18.43-2.87-1.65-5.66-1.6-8.51.09-4.24,2.51-25.49,14.67-31.82,18.34-2.61,1.51-3.88,3.81-3.88,6.82v37.08c0,1.47.32,2.79.93,3.93.64,1.16,1.62,2.14,2.95,2.9,6.33,3.67,27.57,15.84,31.82,18.34,2.86,1.69,5.64,1.74,8.52.09,10.65-6.15,21.33-12.29,31.98-18.43,1.33-.77,2.3-1.73,2.95-2.9.62-1.14.93-2.44.93-3.93V31.09" style="fill: #a179dc;"/>
  <path d="M49.91,49.51l-39.22,22.59c.64,1.16,1.62,2.14,2.95,2.9,6.33,3.67,27.57,15.84,31.82,18.34,2.86,1.69,5.64,1.74,8.52.09,10.65-6.15,21.33-12.29,31.98-18.43,1.33-.77,2.3-1.73,2.95-2.9l-38.98-22.58" style="fill: #280068;"/>
  <path d="M89.83,31.09c0-1.52-.33-2.85-.98-3.99l-38.94,22.42,38.98,22.58c.62-1.14.93-2.44.93-3.93V31.09" style="fill: #390091;"/>
  <path d="M73.01,41.06v4.22h4.22v-4.22h2.12v4.22h4.22v2.12h-4.22v4.22h4.22v2.12h-4.22v4.22h-2.12v-4.22h-4.22v4.22h-2.12v-4.22h-4.22v-2.12h4.22v-4.22h-4.22v-2.12h4.22v-4.22h2.12ZM77.23,47.39h-4.22v4.22h4.22v-4.22Z" style="fill: #fff;"/>
  <path d="M50,19.86c11.01,0,20.62,5.99,25.77,14.87l-.05-.09-12.96,7.46c-2.55-4.32-7.23-7.23-12.6-7.3h-.17c-8.19,0-14.83,6.64-14.83,14.82,0,2.68.71,5.19,1.96,7.36,2.55,4.47,7.36,7.47,12.87,7.47s10.37-3.05,12.92-7.55l-.07.11,12.94,7.49c-5.1,8.81-14.58,14.77-25.46,14.9h-.34c-11.05,0-20.69-6.02-25.82-14.95-2.51-4.37-3.94-9.42-3.94-14.82,0-16.44,13.32-29.77,29.77-29.77h0Z" style="fill: #fff;"/>
</svg>