<?xml version="1.0" encoding="UTF-8"?>
<svg id="Layer_1" xmlns="http://www.w3.org/2000/svg" version="1.1" viewBox="0 0 100 100">
  <!-- Generator: Adobe Illustrator 29.5.0, SVG Export Plug-In . SVG Version: 2.1.0 Build 137)  -->
  <path d="M87.28,90H23.94c-2.15,0-3.9-1.74-3.9-3.9V23.37h67.22v66.63h.02Z" style="fill: #933c00;"/>
  <path d="M24.88,10h53.66c2.15,0,3.9,1.74,3.9,3.9v52.18H24.88V10Z" style="fill: #fe6b00;"/>
  <polygon points="12.72 73.97 24.88 66.08 24.88 10 12.72 17.89 12.72 73.97" style="fill: #fe9548;"/>
  <g style="isolation: isolate;">
    <g style="isolation: isolate;">
      <g style="isolation: isolate;">
        <g style="isolation: isolate;">
          <text transform="translate(38.9 83.74)" style="fill: #fff; font-family: UniversBold, Univers; font-size: 16.62px; isolation: isolate; letter-spacing: .07em;"><tspan x="0" y="0">CFD</tspan></text>
        </g>
      </g>
    </g>
  </g>
  <path d="M65.15,32.74h-6.82c-.55-5.7-8.38-5.46-8.83.5-.17,2.28-.29,10.74.31,12.53,1.54,4.56,8.94,3.48,8.51-1.6h6.82c.12,4.57-2.56,8.24-7.02,9.32-7.26,1.77-15.46-1.06-16.05-9.42-.22-3.1-.34-10.99.55-13.7,2.02-6.06,8.54-7.79,14.34-6.81,4.98.85,7.98,4.05,8.18,9.17h.01Z" style="fill: #fefcfb;"/>
</svg>