<?xml version="1.0" encoding="UTF-8"?>
<svg id="Layer_1" xmlns="http://www.w3.org/2000/svg" version="1.1" viewBox="0 0 100 100">
  <!-- Generator: Adobe Illustrator 29.5.0, SVG Export Plug-In . SVG Version: 2.1.0 Build 137)  -->
  <path d="M87.28,90H23.95c-2.15,0-3.89-1.74-3.89-3.89V23.37h67.23v66.63h-.01Z" style="fill: #67084c;"/>
  <path d="M24.88,10h53.66c2.15,0,3.89,1.74,3.89,3.89v52.19H24.88V10Z" style="fill: #aa0b7d;"/>
  <polygon points="12.72 73.96 24.88 66.07 24.88 10 12.72 17.88 12.72 73.96" style="fill: #d44fb0;"/>
  <g style="isolation: isolate;">
    <g style="isolation: isolate;">
      <g style="isolation: isolate;">
        <g style="isolation: isolate;">
          <g style="isolation: isolate;">
            <g style="isolation: isolate;">
              <g style="isolation: isolate;">
                <g style="isolation: isolate;">
                  <g style="isolation: isolate;">
                    <path d="M43.81,80h2.34c-.08,1.25-.56,2.23-1.46,2.93-.89.7-1.98,1.05-3.25,1.05-1.56,0-2.8-.48-3.73-1.45-.92-.97-1.38-2.44-1.38-4.41s.45-3.42,1.36-4.43c.91-1.01,2.18-1.52,3.79-1.52,1.27,0,2.34.34,3.22,1.01.88.68,1.32,1.63,1.32,2.85h-2.34c-.07-.66-.3-1.17-.7-1.54-.39-.37-.9-.55-1.54-.55-.89,0-1.58.32-2.06.97-.48.64-.72,1.61-.72,2.91,0,1.57.24,2.69.72,3.38.49.68,1.19,1.01,2.11,1.01.59,0,1.11-.17,1.55-.51.45-.35.7-.91.76-1.7Z" style="fill: #fff;"/>
                    <path d="M51.41,80.6c.04.62.24,1.07.58,1.33.34.26.81.39,1.4.39s1.12-.16,1.53-.49c.42-.32.63-.74.63-1.26s-.22-.97-.65-1.3c-.43-.33-1.09-.5-1.98-.5h-.54v-1.66c1.15-.05,1.92-.23,2.31-.52.39-.29.59-.69.59-1.19,0-.43-.15-.81-.46-1.12-.3-.32-.74-.48-1.32-.48-.51,0-.93.11-1.27.34-.34.22-.52.6-.56,1.14h-2.28c0-1.02.4-1.79,1.18-2.33.78-.54,1.75-.8,2.91-.8s2.14.29,2.91.86c.78.57,1.17,1.33,1.17,2.29,0,.7-.2,1.29-.6,1.77-.4.48-.95.76-1.65.84.89.16,1.53.5,1.92,1.01.4.5.59,1.1.59,1.8,0,.96-.41,1.74-1.24,2.34-.82.6-1.89.9-3.21.9s-2.39-.29-3.13-.87c-.75-.58-1.12-1.42-1.12-2.51h2.28Z" style="fill: #fff;"/>
                    <path d="M61.01,83.74v-11.34h4.4c1.96,0,3.38.52,4.24,1.57.87,1.04,1.3,2.39,1.3,4.06,0,1.77-.49,3.17-1.47,4.19-.97,1.02-2.58,1.53-4.8,1.53h-3.66ZM63.35,81.97h1.5c1.29,0,2.23-.32,2.84-.97.61-.65.92-1.63.92-2.93,0-1.21-.29-2.16-.87-2.85-.57-.7-1.67-1.05-3.3-1.05h-1.09v7.8Z" style="fill: #fff;"/>
                  </g>
                </g>
              </g>
            </g>
          </g>
        </g>
      </g>
    </g>
  </g>
  <path d="M58.13,44.1h6.97c0,.54,1.03,10.03-11.17,10.03-9.23,0-11.93-7.21-11.93-8.84v-13.81s1.07-8.35,11.99-8.35,11.11,8.41,11.11,9.54h-6.97c0-1.09-.23-4.21-4.33-4.21s-4.39,3.52-4.39,4.21v11.43c0,.55.04,4.25,4.53,4.25s4.2-3.75,4.2-4.25h0Z" style="fill: #fff;"/>
</svg>