<?xml version="1.0" encoding="UTF-8"?>
<svg id="Layer_1" xmlns="http://www.w3.org/2000/svg" version="1.1" viewBox="0 0 100 100">
  <!-- Generator: Adobe Illustrator 29.5.0, SVG Export Plug-In . SVG Version: 2.1.0 Build 137)  -->
  <path d="M87.28,90H23.95c-2.15,0-3.89-1.74-3.89-3.89V23.37h67.23v66.63h-.01Z" style="fill: #67084c;"/>
  <path d="M24.88,10h53.66c2.15,0,3.89,1.74,3.89,3.89v52.19H24.88V10Z" style="fill: #aa0b7d;"/>
  <polygon points="12.72 73.96 24.88 66.07 24.88 10 12.72 17.88 12.72 73.96" style="fill: #d44fb0;"/>
  <g style="isolation: isolate;">
    <g style="isolation: isolate;">
      <g style="isolation: isolate;">
        <g style="isolation: isolate;">
          <g style="isolation: isolate;">
            <g style="isolation: isolate;">
              <g style="isolation: isolate;">
                <text transform="translate(35.38 83.74)" style="fill: #fff; font-family: UniversBold, Univers; font-size: 16.62px; isolation: isolate; letter-spacing: .07em;"><tspan x="0" y="0">C3D</tspan></text>
              </g>
            </g>
          </g>
        </g>
      </g>
    </g>
  </g>
  <path d="M58.13,44.1h6.97c0,.54,1.03,10.03-11.17,10.03-9.23,0-11.93-7.21-11.93-8.84v-13.81s1.07-8.35,11.99-8.35,11.11,8.41,11.11,9.54h-6.97c0-1.09-.23-4.21-4.33-4.21s-4.39,3.52-4.39,4.21v11.43c0,.55.04,4.25,4.53,4.25s4.2-3.75,4.2-4.25Z" style="fill: #fff;"/>
</svg>