<?xml version="1.0" encoding="UTF-8"?>
<svg id="Layer_1" xmlns="http://www.w3.org/2000/svg" version="1.1" viewBox="0 0 100 100">
  <!-- Generator: Adobe Illustrator 29.5.0, SVG Export Plug-In . SVG Version: 2.1.0 Build 137)  -->
  <path id="bg" d="M5,5h75.6c7.95,0,14.4,6.45,14.4,14.4v61.2c0,7.95-6.45,14.4-14.4,14.4H19.4c-7.95,0-14.4-6.45-14.4-14.4V5Z" style="fill: #639;"/>
  <path id="fg" d="M37.23,87.8c-5.78,0-9.35-3.26-9.28-9.25v-15.16c0-3.04.89-5.35,2.67-6.93,3.19-3.08,10.6-3.26,13.73.05,1.93,1.7,2.65,5.17,2.48,8.41h-6.63c.05-1.27-.02-3.2-.77-3.93-.97-1.32-3.54-1.16-4.22.21-.42.74-.63,1.84-.63,3.3v13.16c0,2.76.96,4.15,2.88,4.18.9,0,1.58-.33,2.04-.98.65-.77.75-2.48.7-3.72h6.63c.45,6.31-3.27,10.72-9.6,10.65h0ZM58.29,87.8c-6.41.09-9.27-4.47-9.09-10.65h6.26c-.17,2.69.75,5.15,2.97,4.97.99,0,1.69-.31,2.09-.93.77-1.13.91-4.41-.19-5.67-.76-1.22-3.51-2.3-4.96-3.02-2.07-.99-3.56-2.17-4.48-3.53-2.06-3.03-1.87-9.67,1.02-12.37,2.81-3.32,10.13-3.48,12.94-.07,1.73,1.76,2.49,5.21,2.34,8.39h-6.03c.05-1.31-.07-3.42-.58-4.18-.36-.65-1.03-.98-2.02-.98-1.76,0-2.64,1.05-2.64,3.16.02,2.24.89,3.16,2.92,4.09,2.63,1.02,5.98,2.77,7.19,4.88,3.62,6.44,1.14,16.27-7.75,15.9h0s0,0,0,0ZM78.52,87.8c-6.41.09-9.27-4.47-9.09-10.65h6.26c-.17,2.69.75,5.15,2.97,4.97.99,0,1.69-.31,2.09-.93.77-1.13.91-4.41-.19-5.67-.76-1.22-3.51-2.3-4.96-3.02-2.07-.99-3.56-2.17-4.48-3.53-2.06-3.03-1.87-9.67,1.02-12.37,2.81-3.32,10.13-3.48,12.94-.07,1.73,1.76,2.49,5.21,2.34,8.39h-6.03c.05-1.31-.07-3.42-.58-4.18-.36-.65-1.03-.98-2.02-.98-1.76,0-2.64,1.05-2.64,3.16.02,2.24.89,3.16,2.92,4.09,2.63,1.02,5.98,2.77,7.19,4.88,3.62,6.44,1.14,16.27-7.75,15.9h0s0,0,0,0Z" style="fill: #fff;"/>
</svg>