<?xml version="1.0" encoding="UTF-8"?>
<svg id="Layer_1" xmlns="http://www.w3.org/2000/svg" version="1.1" viewBox="0 0 100 100">
  <path
    d="M86.17,90.32s.06.09-.33.17c-.17.04-.34.12-.66.17-.73.06-.9.11-1.65,0-.27-.05-.41-.09-.66-.17-3.24-.91-5.67-3.93-8.77-5.29-.25-.09-.31-.17-.33-.17-.16-.05-.47-.16-.5-.17-.19-.04-.57-.15-.66-.17-.23-.04-.74-.16-.83-.17-.74-.07-2.07-.07-2.81,0-.1.01-.6.13-.83.17-.09.02-.47.12-.66.17-.04.01-.34.12-.5.17-.14.04-.35.12-.5.17-.16.05-.35.11-.5.17-2.45.93-4.95,2.76-7.61,3.81-.04.02-.15.1-.33.17s-.32.11-.5.17c-.17.05-.31.11-.5.17-.11.03-.25.11-.5.17-.04.01-.23.11-.5.17-.31.08-.52.11-.83.17-.4.06-.73.14-1.16.17-.82.06-1.15.08-1.98,0-.39-.04-.62-.08-.99-.17-.26-.06-.32-.11-.5-.17-2.11-.64-3.45-1.6-3.97-3.81-.08-.32-.15-.47-.17-.83-.06-.49-.04-.38,0-.83.04-.31.09-.39.17-.66.69-2.65,2.4-3.55,4.8-4.47.24-.1.33-.11.5-.17.18-.06.32-.11.5-.17.23-.07.43-.1.66-.17.23-.06.42-.11.66-.17.3-.07.54-.11.83-.17.35-.07.65-.11.99-.17.4-.07.76-.11,1.16-.17.45-.07.88-.1,1.32-.17.57-.08,1.11-.09,1.65-.17.56-.08,1.11-.09,1.65-.17.57-.08,1.11-.09,1.65-.17.45-.07.89-.1,1.32-.17.5-.08.99-.1,1.49-.17.38-.06.78-.11,1.16-.17.31-.05.68-.11.99-.17.32-.05.68-.11.99-.17.32-.06.69-.1.99-.17.19-.04.44-.12.66-.17.27-.06.57-.11.83-.17.21-.05.45-.11.66-.17.07-.02.31-.11.5-.17.23-.07.46-.1.66-.17.16-.05.34-.11.5-.17.17-.06.35-.11.5-.17.21-.09.39-.12.5-.17,4.08-1.71,7.56-4.62,9.27-8.77.05-.16.12-.35.17-.5.05-.17.15-.43.17-.5.05-.2.12-.46.17-.66.05-.24.13-.59.17-.83.06-.35.14-.82.17-1.16.04-.76.04-1.72,0-2.48-.04-.32-.11-.83-.17-1.16-.05-.24-.11-.59-.17-.83-.05-.21-.11-.46-.17-.66-.04-.14-.12-.35-.17-.5-.06-.16-.11-.36-.17-.5-1.59-4.09-5.91-7.95-9.93-9.6-.13-.05-.31-.1-.5-.17-.15-.06-.34-.11-.5-.17-.15-.05-.35-.12-.5-.17-.17-.05-.41-.15-.5-.17-.19-.05-.47-.12-.66-.17-.25-.06-.58-.12-.83-.17-.35-.06-.81-.13-1.16-.17-1.11-.08-2.7-.08-3.81,0-.34.04-.81.11-1.16.17-.24.04-.58.11-.83.17-.19.04-.46.11-.66.17-.08.02-.33.12-.5.17-.21.06-.47.11-.66.17-.02,0-.09.09-.33.17-.17.06-.36.11-.5.17-9.53,3.92-19.52,18.89-27.8,21.51-.02,0,0,.08-.33.17-.29.1-.41.1-.66.17-.28.05-.51.14-.83.17-1.01.15-1.47.14-2.48,0-.32-.03-.55-.12-.83-.17-.25-.06-.36-.06-.66-.17-.21-.05-.31-.1-.5-.17-2.21-.82-3.78-2.31-4.47-4.63-.08-.25-.12-.38-.17-.66-.14-.86-.17-1.11,0-1.98.04-.34.14-.5.17-.66.06-.19.08-.28.17-.5.72-2.37,2.37-3.59,4.63-4.47.26-.12.34-.11.5-.17.18-.07.3-.11.5-.17.23-.06.42-.11.66-.17.37-.09.65-.1.99-.17.52-.1.99-.08,1.49-.17.52-.1,1.01-.08,1.49-.17.39-.07.78-.1,1.16-.17.4-.08.78-.09,1.16-.17.28-.06.56-.11.83-.17.27-.05.56-.11.83-.17.27-.05.55-.11.83-.17s.56-.11.83-.17c.2-.05.45-.11.66-.17.21-.05.45-.11.66-.17.08-.02.31-.11.5-.17.23-.07.46-.1.66-.17.15-.05.34-.11.5-.17.16-.05.34-.11.5-.17.17-.06.35-.11.5-.17.17-.06.35-.11.5-.17.02,0,.16-.1.33-.17,5.4-2.36,9.39-6.13,11.75-11.58.08-.23.16-.31.17-.33.05-.15.12-.35.17-.5.05-.17.14-.41.17-.5.05-.19.12-.46.17-.66s.13-.48.17-.66c.05-.25.13-.59.17-.83.05-.31.14-.71.17-.99.17-2.53-.22-5.08.17-7.61.04-.35.07-.49.17-.83.06-.22.08-.29.17-.5.56-1.39,1.84-2.1,2.31-3.31.03-.07.16-.45.17-.5.04-.16.15-.69.17-.83.11-.77.05-2.31,0-3.14-.04-.29-.11-.69-.17-.99-.02-.11-.12-.44-.17-.66-.04-.19-.12-.45-.17-.66-.02-.06-.12-.32-.17-.5-.04-.14-.12-.34-.17-.5,0-.02-.08-.08-.17-.33-.07-.18-.11-.34-.17-.5-.3-.81-.82-1.44-1.16-2.48,0-.02-.09-.08-.17-.33-.03-.11-.11-.26-.17-.5-.12-.38-.1-.57-.17-.83-.09-.36-.09-.67-.17-.99-.18-.63-.05-1.05-.17-1.49-.07-.27-.09-.62-.17-.83-.05-.15-.11-.38-.17-.5-.24-.54-1.91-2.17-2.48-2.31h.04c-.2-.05-1.62-.05-1.82,0-.94.22-2.5,2.1-2.81,2.98-.06.16-.06.61-.17.99-.11.49-.03.94-.17,1.49-.07.23-.05.46-.17.83-.06.22-.11.43-.17.66-.06.18-.11.32-.17.5-.46,1.55-1.3,2.83-1.82,4.3-.05.18-.15.42-.17.5-.05.2-.12.46-.17.66-.05.21-.15.55-.17.66-.06.34-.13.82-.17,1.16-.03.71-.09,1.82,0,2.48.03.21.12.61.17.83.04.15.13.55.17.66.52,1.45,1.93,2.11,2.48,3.81.12.32.1.42.17.66.1.5.13.83.17,1.32.05.68.02,1,0,1.65-.02.71-.09,1.29-.17,1.98-.05.42-.08.73-.17,1.16-.04.24-.12.44-.17.66-.05.24-.1.42-.17.66-.06.19-.1.31-.17.5-.06.16-.06.25-.17.5-1.43,3.93-4.04,5.91-7.77,7.44-.25.11-.37.11-.5.17-.22.09-.35.11-.5.17-.18.07-.32.11-.5.17s-.32.11-.5.17c-.23.07-.43.1-.66.17-.23.06-.43.11-.66.17-.22.05-.43.12-.66.17-.29.06-.55.11-.83.17s-.54.12-.83.17c-.34.06-.67.1-.99.17-.39.07-.78.1-1.16.17-.59.12-1.11.06-1.65.17-.58.1-1.11.08-1.65.17-.34.06-.67.1-.99.17-.26.05-.57.11-.83.17-.19.04-.45.12-.66.17-.2.05-.46.11-.66.17-.11.03-.34.12-.5.17-.15.05-.35.11-.5.17-.02,0-.11.09-.33.17-4.55,1.98-8.37,5.52-10.09,10.26-.05.16-.15.41-.17.5-.05.19-.13.47-.17.66-.05.22-.15.55-.17.66-.05.3-.14.71-.17.99-.08,1.06-.09,2.75,0,3.81.04.29.11.7.17.99.02.12.12.45.17.66.04.19.11.47.17.66.03.11.12.35.17.5,1.68,4.4,5.48,7.93,9.76,9.76.23.08.31.16.33.17.15.05.36.12.5.17.19.06.46.11.66.17.2.05.48.13.66.17.23.05.55.15.66.17.31.05.7.13.99.17,1.24.09,3.07.08,4.3,0,.35-.04.81-.11,1.16-.17.25-.04.57-.11.83-.17.18-.04.45-.12.66-.17.05-.02.31-.12.5-.17.1-.03.34-.12.5-.17.15-.05.35-.11.5-.17.02-.01.11-.09.33-.17,9.74-4.23,19.92-18.91,27.96-21.51.21-.09.31-.11.5-.17.17-.06.3-.11.5-.17.28-.05.51-.14.83-.17.96-.13,1.35-.13,2.31,0,.32.03.55.12.83.17.19.05.33.11.5.17.19.06.29.09.5.17,2.1.66,4.74,2.3,5.29,4.63.08.21.11.26.17.5.24.99.23,1.67,0,2.65-.06.23-.09.3-.17.5-.53,2.36-2.43,3.13-4.47,3.97-.51.24-.7.21-.99.33-.18.06-.33.11-.5.17s-.32.11-.5.17c-.16.05-.32.11-.5.17-.24.08-.44.1-.66.17-.11.03-.29.11-.5.17-.23.06-.43.11-.66.17-.3.08-.56.1-.83.17-.22.05-.43.11-.66.17-.29.07-.54.1-.83.17-.29.06-.55.1-.83.17-.28.06-.55.1-.83.17-.28.06-.56.11-.83.17-.35.08-.68.1-.99.17-.35.08-.68.1-.99.17-.36.08-.67.1-.99.17-.28.06-.55.11-.83.17-.35.08-.67.1-.99.17-.2.05-.44.12-.66.17-.29.07-.56.1-.83.17-.29.07-.56.1-.83.17-.21.05-.44.11-.66.17s-.45.11-.66.17c-.1.03-.32.11-.5.17-.23.07-.45.1-.66.17-.15.05-.34.11-.5.17-.16.05-.34.11-.5.17-.17.06-.35.11-.5.17-.02.01-.15.1-.33.17-.23.1-.41.12-.5.17-3.53,1.59-7.61,4.47-8.93,8.27-.05.14-.14.38-.17.5-.05.16-.14.52-.17.66-.04.21-.16.72-.17.83-.09.8-.09,2.51,0,3.31.02.11.13.62.17.83.03.14.12.5.17.66.03.11.12.37.17.5.91,2.52,3.65,5.14,6.12,6.12.14.05.35.12.5.17.14.05.38.14.5.17.19.05.47.12.66.17.34.08.96.13,1.32.17.71.04,1.59.04,2.31,0,.38-.03.94-.1,1.32-.17.24-.04.57-.12.83-.17.18-.04.46-.12.66-.17.2-.05.46-.11.66-.17.09-.03.33-.11.5-.17.15-.05.34-.11.5-.17.02,0,.1-.09.33-.17,3.56-1.55,7.28-5.39,10.42-6.29.19-.08.3-.11.5-.17.14-.03.34-.13.66-.17,1.08-.22,1.72-.22,2.81,0,.31.04.52.14.66.17.19.06.31.1.5.17,2.58.69,4.55,2.77,6.95,3.81.28.09.31.17.33.17.2.05.47.17.5.17.21.04.63.17.66.17.52.05,1.83.08,2.31,0,.06-.01.54-.14.66-.17.1-.03,1.74-.93,1.82-.99.01-.01-.02-.19.17-.17.04-.21-.19-.17-.33-.17h.07ZM56.31,14.13l.91,1.33-.58,1.82-.95-1.75.62-1.39h0ZM48.61,17.28l-.6-1.75.79-1.39.69,1.39-.88,1.75Z"
    style="fill: #000;" />
</svg>