<?xml version="1.0" encoding="UTF-8"?>
<svg id="Layer_1" xmlns="http://www.w3.org/2000/svg" version="1.1" viewBox="0 0 100 100">
  <!-- Generator: Adobe Illustrator 29.5.0, SVG Export Plug-In . SVG Version: 2.1.0 Build 137)  -->
  <path d="M40.09,47.19l11.7,11.94,7.79-2.96-1.55-18.86-9.02-1.76-8.92,11.64h0Z" style="fill: #685a60;"/>
  <path d="M68.46,45.47l-7.41-7.57-3.03-.59,1.55,18.86.98-.37,7.92-10.34h0Z" style="fill: #7c8b95;"/>
  <path d="M57.8,34.58l-.44-5.37c-.21-2.55.5-5.1,2-7.18l-6.07,7.93,4.52,4.62h0Z" style="fill: #6d668d;"/>
  <path d="M76.32,35.21c-2.51,3.01-6.46,4.41-10.31,3.66l-4.95-.97,7.41,7.57,7.85-10.26h0Z" style="fill: #4a93a7;"/>
  <path d="M81.16,60.03c-.06-.17-.11-.34-.18-.5-2.1-5.54-8.31-8.34-13.85-6.23l-6.58,2.5-.91,1.18.59,7.24c.49,5.91,5.67,10.31,11.58,9.82.82-.06,1.64-.22,2.42-.48,5.65-1.83,8.74-7.9,6.91-13.54h0ZM70.93,67.7c-2.41,0-4.36-1.95-4.36-4.36s1.95-4.36,4.36-4.36,4.36,1.95,4.36,4.36-1.95,4.36-4.36,4.36Z" style="fill: #9a936b;"/>
  <path d="M70.11,17.78c-.15-.03-.3-.06-.46-.08-.82-.12-1.65-.14-2.47-.08-5.91.49-10.31,5.67-9.82,11.58h0l.44,5.37,3.26,3.33,4.95.97c5.82,1.14,11.46-2.66,12.6-8.49,1.14-5.82-2.67-11.47-8.5-12.61h0ZM68.06,32.68c-2.41,0-4.36-1.95-4.36-4.36s1.95-4.36,4.36-4.36,4.36,1.95,4.36,4.36-1.95,4.36-4.36,4.36Z" style="fill: #599dbc;"/>
  <path d="M31.7,10.29l-.42-.09c-5.82-1.14-11.46,2.66-12.6,8.49s2.66,11.46,8.48,12.6l12.77,2.49.03-13.01c.02-4.98-3.41-9.33-8.26-10.49h0ZM29.22,25.09c-2.41,0-4.36-1.95-4.36-4.36s1.95-4.36,4.36-4.36,4.36,1.95,4.36,4.36-1.95,4.36-4.36,4.36Z" style="fill: #c64646;"/>
  <path d="M25.25,69.22c-5.54,2.1-8.34,8.31-6.23,13.85s8.31,8.34,13.85,6.23c4.16-1.58,6.91-5.56,6.93-10.02l.04-15.61-14.6,5.54h0ZM29.06,83.61c-2.41,0-4.36-1.95-4.36-4.36s1.95-4.36,4.36-4.36,4.36,1.95,4.36,4.36-1.95,4.36-4.36,4.36Z" style="fill: #a27366;"/>
  <path d="M49,35.55l4.28-5.58-16.05-16.4c1.77,1.98,2.74,4.54,2.74,7.2l-.03,13.01,9.07,1.77h0Z" style="fill: #925169;"/>
  <path d="M39.93,33.78l-.04,13.22.19.2,8.92-11.64-9.07-1.77h0Z" style="fill: #62403c;"/>
  <path d="M39.89,47.45l-.05,16.22,11.94-4.53-11.7-11.94-.19.26h0Z" style="fill: #434f58;"/>
  <path d="M60.55,55.81l6.58-2.5c3.85-1.46,8.19-.6,11.18,2.22l-9.85-10.06-7.92,10.34h0Z" style="fill: #85827d;"/>
  <path d="M57.8,34.58l-4.52-4.62-4.28,5.58,9.02,1.76-.22-2.74h0Z" style="fill: #8a6984;"/>
  <path d="M55.27,62.7l4.37-5.7-.06-.82-7.79,2.96s3.49,3.56,3.49,3.56Z" style="fill: #848579;"/>
  <path d="M39.93,33.78l-12.77-2.49c-1.96-.38-3.77-1.3-5.24-2.65l17.97,18.36.04-13.22h0Z" style="fill: #b24439;"/>
  <path d="M39.85,63.67l.05-16.22-19.01,24.84c1.18-1.38,2.68-2.43,4.37-3.07,0,0,14.6-5.54,14.6-5.54Z" style="fill: #93605c;"/>
  <path d="M58.02,37.31l3.03.59-3.26-3.33.22,2.74Z" style="fill: #8591a3;"/>
  <path d="M51.78,59.14l-11.94,4.53-.04,15.61c0,2.18-.67,4.31-1.92,6.1l17.38-22.69s-3.49-3.56-3.49-3.56Z" style="fill: #608b7d;"/>
  <path d="M53.28,29.96l6.07-7.93c1.84-2.54,4.7-4.15,7.83-4.42.82-.06,1.66-.04,2.47.08l-37.95-7.41c2.13.51,4.06,1.66,5.52,3.28l16.05,16.39Z" style="fill: #6f4f75;"/>
  <path d="M76.32,35.21l-7.85,10.26,9.85,10.06c1.18,1.12,2.1,2.49,2.67,4.01.3.78.5,1.58.62,2.39l-2.79-34.01c.02.82-.04,1.66-.2,2.46-.34,1.78-1.14,3.43-2.29,4.82" style="fill: #468d95;"/>
  <path d="M62.99,70.58l-7.72-7.88-17.38,22.69c-1.17,1.67-2.78,2.98-4.65,3.77l41.01-15.57c-4.02,1.29-8.42.12-11.26-3" style="fill: #60835d;"/>
  <path d="M39.89,47.45v-.46l-17.96-18.36c-2.1-1.94-3.33-4.63-3.44-7.49l-.16,57.68c.1-2.41.99-4.71,2.55-6.55l19.01-24.84h0Z" style="fill: #9c4135;"/>
  <path d="M62.99,70.58c-1.59-1.75-2.56-3.99-2.76-6.35l-.59-7.24-4.37,5.7,7.72,7.88h0Z" style="fill: #8e7b56;"/>
  <polygon points="59.57 56.18 59.64 56.99 60.55 55.81 59.57 56.18" style="fill: #93957c;"/>
  <polygon points="39.89 46.99 40.09 47.19 39.89 47.45 39.89 46.99" style="fill: #9c4135;"/>
  <circle cx="70.93" cy="63.34" r="4.36" style="fill: #fff;"/>
  <circle cx="68.06" cy="28.32" r="4.36" style="fill: #fff;"/>
  <circle cx="29.22" cy="20.73" r="4.36" style="fill: #fff;"/>
  <circle cx="29.06" cy="79.26" r="4.36" style="fill: #fff;"/>
</svg>