<?xml version="1.0" encoding="UTF-8"?>
<svg id="Layer_1" xmlns="http://www.w3.org/2000/svg" version="1.1" viewBox="0 0 100 100">
  <path
    d="M33.89,77.87c-3.05-2.4-6.3-4.7-8.52-7.93-4.68-5.71-8.28-12.32-10.74-19.26-1.49-4.52-2-9.36-3.91-13.7-2-3.16.35-6.6,3.8-7.6,1.54-.29,4.24-1.75.98-.71-2.93,2.15-3.21-1.95-.21-2.21,2.05-.28,2.8-1.95,2.1-3.46-2.2-1.43,5.33-3.01,1.54-5.15-3.95-4.26,5.52-5.08,3.18-.24-.56,3.72,6.62-.68,4.95,3.61,1.7,2.06,6.34.47,6.22,3.36,2.46.17,3.31,2.24,5.62,2.4,2.4,1.08,6.75,1.94,7.56,4.64-2.38,1.89-7.89-3.89-8.15,1.32.72,7.7.53,15.63,3.35,22.97,1.33,4.44,4.56,7.93,7.48,11.39,2.79,3.39,6.57,5.77,10.43,7.78,3.38,1.59,7.02,2.65,10.71,3.32,1.49-1.15,4.13-5.39,6.46-3.6.12,2.02-4.62,4.21-.22,3.99,2.59-.78,4.38,2,6.51-.51,1.97,2.33,8.15-1.48,6.76,3.26-1.89,1.22-4.64.48-6.54,2.16-3.11-1.56-5.6,1.39-9.05,1.02-3.83.68-7.74.96-11.62.97-6.38-.51-12.88-.72-18.95-2.93-3.41-1-6.75-2.93-9.75-4.88h.03ZM39.28,80.21c3.33,1.44,6.6,2.96,10.25,3.42,5.8.81,11.79,2.05,17.62.92-2.63-1.19-5.36.46-7.99-.85-3.15.68-6.53-.18-9.73-.6-3.64-1.62-7.57-2.74-10.97-4.84-4.26-1.56,2.2,1.99,3.35,2.29,2.66,1.51-2.93-.77-3.72-1.4-2.23-1.25-2.52-.99-.22.28.46.27.92.55,1.4.78h0ZM32.93,75.72c3.24,1.2-.02-2.28-1.49-2.07-.66-1.14-2.51-1.86-1.2-2.47-2.35.82-2.46-3.1-3.57-2.54-2.48-.78-.97-3.57-3.93-5.27-.27-1.8-2.94-3.36-3.79-6.07-.37-1.39-3.02-5.38-1.4-1.66,1.38,3.57,3.81,6.63,5.83,9.69,1.57,2.91,3.42,5.96,6.29,7.77.97.92,1.89,2.34,3.25,2.63h0ZM23.62,65.49c.12-.49.59,1.06,0,0h0ZM36.81,77.16c.72-.32-1.03-.4,0,0h0ZM38.56,77.8c-.18-.88-.8.5,0,0h0ZM40.76,78.71c1.04-1-1.61-.63,0,0h0ZM44.52,80.81c.63-.93-2.04-.36,0,0h0ZM37.29,75.77c1.62-1.05-2.1-.02,0,0h0ZM38.94,76.59c-.04-.55-.59.25,0,0h0ZM47.18,81.74c1.32.84,7.74,1.83,3.72.35-.68.14-7.44-1.91-3.72-.35h0ZM34.11,71.55c-.12-.56-2.05-.61,0,0h0ZM37.94,73.79c1-.69-2.07-.53,0,0h0ZM41.16,75.76c1.43-.54-2.32-.54,0,0h0ZM32.54,69.85c1.56,1.19,6.27.15,2.38-.71-1.77-.94-5.75-1.59-3.04.57l.66.14h0ZM43.35,76.44c.65-1.1-2.71-.63,0,0h0ZM40.07,73.84c3.8,1.08-3.19-2.4-.93-.4l.5.23.44.17h0ZM46.65,77.64c3.6.04-3.25-.5,0,0h0ZM31.16,67.77c-.14-.67-.89.05,0,0h0ZM52.73,81.05c.1-1.21-1.17.9,0,0h0ZM37.3,71.53c-.22-.64-1.13-.03,0,0h0ZM31.49,67.35c2.06-.12-2.83-.91,0,0h0ZM24.63,62.91c-.26-.99-2.25-1.78,0,0h0ZM42.66,74.36c-.38-.44-.18.1,0,0h0ZM53.88,81.24c-.04-.66-.61.25,0,0h0ZM41.67,73.32c.2-.85-1.76-.26,0,0h0ZM33.31,68.02c1.54-.16-2.46-1.04,0,0h0ZM47.46,76.82c2.39-.95-2.34-.46,0,0h0ZM40.09,71.82c2.76.36-3.28-1.88-.6-.2l.6.2h0ZM49.69,77.72c2.58-1.54,1.73,3.61,4.37.44,2.61-1.9-2.25,2.36.96.34,2.33-1.56,5.76.74,7.93,1.48,1.56-.07,3.08,1.35,4.68.48,3.08-.83-6.02-1.24-3.64-2.7-2.82.82-4.9-.98-6.29-2.78-3.16-.73-6.81-2.35-8.39-5.14-.64-1.05.92.15-.56-1.57-1.9-1.7-2.85-3.62-4.13-5.67-1.53-.81-1.71-3.21-1.86-.08,0-1.97-1.84-3.31-2.29-2.76,0-1.9,1.99-.95.59-2.36-.3-1.97-1.29-4.03-1.59-6.26-.46-1.08-.06-3.37-1.58-.94-.55,2.57-.18-3.16.68-1.27,1.13-1.93-.41-1.7-.46-1.43.73-1.63.46-3.93-.19-3.05.39-1.73.62-6.34-.58-5.52.73-1.81,1.38-8.24-1.78-5.79-1.28.02-3.49.46-4.54.99,3.28,1.81-.33.65-1.67.36-.18,1.67-1.49.95-3.16.97,2.64.33-1.29,2.7-2.8,1.78-1.97.94,1.7,3.29.04,4.02.2,1.09-3.01-.4-2.77,2.13-1.91-.81-.27,3,.69,1.72,3.25.88,2.29,2.88,2.37,4.79-.52,1.11-2.61-2.61-.46-2.44-1.7-2.76-1.88-1-3.29.28-.33.09,3.6,1.82,1.14,2.68,2.17.34,2.23,2.23,2.68,3.43,1.3,1.36,1.03-1.49,2.6.13-.99-1.45-5.22-4.1-1.81-3.25-.02-1.47-.62-2.64.43-2.61,1.04-1.88-1.08,4.62,1.25,2.24.65-.28.81-1.88,1.97.15,1.68,1.66.61,2.86-1.77,1.34.43,1.44,3.18,1.96,2.67,4.22.55,1.99,1.32,1.25,1.99,1.14.52,1.93.83.52.85-.41,2.41.52,1.84,1.94,2.6,2.93,1.65.75-2.37-5.07.47-1.75,3,2.7,1.13,3.83-1.57,3.4,1.7-.13,2.25,2.3,4.37,2.21,1.94.92,3.25,4.46-.09,2.99-1.16-1.05-5.26-2.34-1.91-.35,3.09,1.43,5.56,2.29,8.55,4.09,2.13,1.53,3.06,3.27,3.87,3.62-1.8.86-5.42-.68-2.73-1.16-1.67-.3-3.56-1.16-1.96.93,1.37,1.14,4.83,1.02,5.46,1.15-.52,1.16-1.43,1.25.02,1.34-1.62.86.52,1,.67,1.49h0ZM46.37,68.35c-.99-1.03-1.24-2.96-.18-1.28.55.22,1.75,3.16.18,1.28h0ZM57.17,75.22c.61-.04.02.47,0,0h0ZM44.81,65.83c-.04-1.56.36,1.2,0,0h0ZM43.74,64.38c-1.24-2.4,1.57.68,0,0h0ZM30.73,55.41c.73-.2.36,1.24,0,0h0ZM41.09,61.02c.44-1.68.52,1.41,0,0h0ZM33.77,55.93c-.52-.92,1.08.87,0,0h0ZM40.05,57.94c-1.17-2.63.84-1.44.27.44l-.27-.44h0ZM29.23,50.72c-.52-.86-1.4-3.4-1.11-4.17.25,1.26,2.68,5.42,1.19,1.73-1.65-3.1,1.97,1,2.34,1.78.18.76-1.01-.21-.21,1.59-1.47-2.05-.86,1.14-2.21-.92h0ZM25.88,48.42c.13-2.01.76,1.38,0,0h0ZM27.39,48.93c.72-1.52,1.22,2.12,0,0h0ZM23.77,46.13c-1.24-1.24-2.15-2.38.06-.76.84.04-1.89-2.6.2-.84,2.2.4,1.08,3.61-.27,1.6h0ZM25.66,46.09c.73-.72.38.7,0,0h0ZM26.83,46.46c-1.09-2.05,1.33.86,0,0h0ZM24.51,44.24c-3.62-3.22,4.55,1.68.59.6l-.59-.6h0ZM34.88,50.27c-1.57-.93-.42-6.62.12-2.73,1.52-.5-.08,2,1.05,1.98-.18,1.57-.68,2.14-1.16.76h0ZM38.72,52.53c.15-1.71.32,1.16,0,0h0ZM38.06,51.88c.17-.73.02.86,0,0h0ZM25.22,43.18c-2.33-3.21,6.76,3.25,1.49.81-.55-.14-1.21-.2-1.49-.81h0ZM32.61,47.09c-.22-2.7.49.44,0,0h0ZM38.22,50.69c.44-1.54.04,1.02,0,0h0ZM25.58,41.95c1.38-.29,5.73,2.43,1.73.78-.44-.49-1.39-.27-1.73-.78h0ZM37.44,47.87c.15-2.77.83-1.65,0,.4v-.4h0ZM26.6,40.99c.56-.83-1.49-3.73.29-1.04.77.61,2.24,1.03.95,1.29,2.04,1.8-.5.49-1.24-.25h0ZM36.86,47.01c.39-3.15.35,1.84,0,0h0ZM25.43,38.08c.44-.19.23.58,0,0h0ZM28.11,39.68c.68-1.44,1.27,1.61,0,0h0ZM35.65,43.87c0-.55.14.81,0,0h0ZM35.21,42.9c-1.05-2.59.98,1.37,0,0h0ZM34.57,41.21c-.18-1.07.6,1.34,0,0h0ZM35.61,39.52c-.72-1.26.91-5.58,1.09-2.91-.76,2.08-.22,3.25.31.45.98-2.2-.21,4.35-1.4,2.45h0ZM36.69,33.1c.31-.38.07.46,0,0h0ZM34.89,68.49c-.43-.37.05.23,0,0h0ZM38.59,70.35c2.05.52,2.05-.32.19-.57-1-.92-4.16-1.91-1.33-.12.19.47.78.46,1.15.68h0ZM31.29,65.5c1.13.84,4.27,2.39,1.62.32.9-1.04-1.72-1.59-.84-2.29-2.2-1.35-1.73-1.23-.2-1.18-2.64-1.18.38-1.09.24-1.7-1.02-.2-5.07-1.8-2.69.13-2.42-1.24-.58.46-1.31.28-2.47-.68,2.21,1.89-.39,1.25,1.42,1.13,3.82,2.88.6,1.19-.42.61,2.3,1.54,2.98,2h0ZM35.16,67.73c4.7,1.52-2.3-1.85,0,0h0ZM54.96,79.73c.06-.93-.64.8,0,0h0ZM57.01,80.58c1.08-1.05.04,1.67,1.8-.26.02-1.39-.05-2.2-2.02-.52-.54.3-.78,1.57.21.78h0ZM24.68,60.29c-.34-1.31-2.34-1.31,0,0h0ZM26.85,61.71c-.81-1.33-2.88-1.21,0,0h0ZM39.22,69.17c1.21,1.08,5.55.79,1.47.13-.6-.9-3.83-.68-1.47-.13h0ZM56.22,79.67c1.86-1.56-1.8.69,0,0h0ZM60.09,82.32c0-.5-.8.22,0,0h0ZM60.1,81.63c2.05-2.18-1.99.12,0,0h0ZM19.34,55.81c-1.75-2.5-1.09-3.63-2.78-5.67-.32-1.57-2.91-5.1-1.33-1.35,1.43,2.2,1.86,5.6,4.12,7.02h0ZM59.45,80.94c3.79-2.45-1.56-1.07,0,0h0ZM62.34,82.06c1.89-1.63-1.2-.34,0,0h0ZM24.04,57.52c.54-.81-1.4-.11,0,0h0ZM61.74,81.29c1.83-1.18-.42-1-.33.11l.33-.11h0ZM36.83,65.59c-.06-.8-.97.07,0,0h0ZM38.37,66.48c-.49-.99-.76.16,0,0h0ZM64.69,82.09c2.36-1.7-1.42-.33-.5.32l.5-.32h0ZM63.78,81.66c1.91-1.6-2.02.71,0,0h0ZM68.39,84.72c1.28-.86-1.57-.28,0,0h0ZM25.22,56.94c1.73.39,6.89,4.24,3.84.27-1.57-.46-.62-4.28-2.21-3.6,1.07,1.79.88,2.54-1.37,1.42-2.82-1.38-1.58.68-1.03,1.25-.76.17,1,.65.77.67h0ZM17.36,50.74c.31-1.28-2.85-7.02-1.49-2.88.49.87.44,2.52,1.49,2.88h0ZM31.78,59.62c-.89-.74-.04-.11,0,0h0ZM33.97,60.14c0-1.35-2.42-.55,0,0h0ZM52.92,72.08c-.36-.92-1.43-.02,0,0h0ZM53.82,72.75c-.13-.52-.52.1,0,0h0ZM61.34,77.48c.72-.53-.9-.07,0,0h0ZM21.29,51.73c2.06-.8-2.21-.57,0,0h0ZM51.24,70.61c-.03-1.33-1.32.34,0,0h0ZM20.47,49.83c1.32-.44-1.23-.29,0,0h0ZM24.33,51.7c-.02-.44-.41.17,0,0h0ZM71.3,80.51c1.71-.35,5.59.87,6.22-.45-2.07-.05-7.17-1.47-7.41.34l.45.07.73.04h0ZM25.54,52.01c.04-1.36-1.06-.05,0,0h0ZM15.42,44.98c-.46-2.58-1.75-.39,0,0h0ZM17.84,45.59c.04-.83-2.21-.75,0,0h0ZM19.21,46.26c-.4-.32-.31.41,0,0h0ZM27.9,51.84c.41-.37-.97-.28,0,0h0ZM18.3,44.74c-.23-1.95-2.8-.29,0,0h0ZM13.34,41.52c-.07-.9-.48.34,0,0h0ZM14.08,40.96c-.12-1.07-.63.13,0,0h0ZM18.15,43.4c1.73-.68-3.14-1.4-.35-.12l.35.12h0ZM72.61,77.04c1.1-1.01-1.4-.31,0,0h0ZM79.19,80.45c.44-1.31-1.11.17,0,0h0ZM18.56,41.27c.18-1.26-1.37.25,0,0h0ZM12.78,37.39c-.31-1.78-.27-4.91,2.7-3.85-3.97.79,2.75,4.94,1.9,1.66,1.67.08,3.26-.99,2.39.63,3.29-.36,5.57-3.22,8.75-2.81,2.47-.33,5.18-.58,7.85-1.57,2.2-.16,4.3-2.52,3.1-3.92-2.99-.25-6.13.12-9.43.78-3.66.76-6.99,2.21-10.69,2.83-3.6.48.73,1.33-.31,1.52-1.88.65,2.24,1.09-.24,1.78-1.54-.29-3.13-.82-2.47-2.44-3.45.45-6.48,1.89-3.76,5.39h.2,0ZM21.09,33.15c.81-2.98,4.33,2.45,1.32.4-.36-.27-.95-.49-1.32-.4h0ZM21.25,31.71c1.16-.87.62.49,0,0h0ZM22.73,31.73c.11-1.37,3.4.73.54.5l-.54-.5h0ZM24.75,30.92c.74-.86.21.76,0,0h0ZM25.28,30.57c1.24-1.49,6.98-.95,2.77-.15-1.13-.85-1.99.5-2.77.15h0ZM32.78,29.4c-.19-4.05,3.73,1.44,0,0h0ZM34.92,29.4c.78-2.05,3.02-.82.36-.41.05.22-.08,1.05-.36.41h0ZM17.72,40.22c2.33-1.42-2.47-1.24,0,0h0ZM19.44,40.7c.82-.86-1.78-.35,0,0h0ZM14.38,37.1c1.32-1.02-1.57-.39,0,0h0ZM83.08,80.08c.04-1.18-1.01.53,0,0h0ZM76.1,75.31c.2-1.36-.9.12,0,0h0ZM85,80.54c1.86,0,5.63-.58,1.59-.58-.63.1-3.7.08-1.59.58h0ZM20.96,39.86c1.5-.11,2.36-1.65-.29-1.57-4.1-.42,3.62,1.4-.52.88-.56.36.78.79.82.68h0ZM22.28,40.53c-.16-.97-.46.52,0,0h0ZM23.86,36.34c.65-.81-.91-.21,0,0h0ZM18.85,27.97c2.69-.92,6.36-1.94,7.62.45-1.29-1.55-.52-3.08.69-.81,1.73,2.29,2.59-1.04,1.47-1.81,1.28,1.58,2.73,2.34.85.1,2.04-2.45-4.08.32-5.47.29-.67.3-6.91,1.59-5.18,1.78h0ZM20.42,24.96c1.53-1.16,5.3.68,2.88-1.15-.24-.21-5.29,1.4-2.88,1.15h0ZM26.01,25.19c1.79.04-.77-2.41,1.36-1.3-.35-1.15-2.48-1.36-3.53-1.81-.59,1.05,1.2,3.13,2.17,3.11h0ZM21.4,20.13c.62-.84-1.08.43,0,0h0ZM23.69,20.67c2.89-.38-.74-1.24-.58-.04l.58.04h0ZM19.43,17.34c-2.04-2.65,3.82.44,1.76-2.34-1.73-1.39-3.41,1.56-1.76,2.34h0ZM45.52,31.4c.93-1.65-3.85-2.23-.63-.59.29.1.23.7.63.59h0Z"
    style="fill: #000;" />
</svg>