<?xml version="1.0" encoding="UTF-8"?>
<svg id="Layer_1" xmlns="http://www.w3.org/2000/svg" version="1.1" viewBox="0 0 100 100">
  <!-- Generator: Adobe Illustrator 29.5.0, SVG Export Plug-In . SVG Version: 2.1.0 Build 137)  -->
  <polygon points="77.34 10 77.34 20.33 57.53 24.72 49.35 10 77.34 10" style="fill: #f2a82d;"/>
  <polygon points="49.35 10 49.35 26.66 57.53 24.72 49.35 10" style="fill: #c67c00;"/>
  <polygon points="49.35 26.66 71.53 50.37 57.53 24.72 49.35 26.66" style="fill: #e7a929;"/>
  <polygon points="40.62 18.82 49.35 26.66 49.35 10 40.62 18.82" style="fill: #754400;"/>
  <polygon points="28.01 31.31 40.62 18.82 49.35 26.66 28.01 31.31" style="fill: #693d00;"/>
  <polygon points="26.25 50.37 22.66 50.37 28.01 31.31 26.25 50.37" style="fill: #965a00;"/>
  <polygon points="49.35 26.66 49.22 50.37 26.25 50.37 28.01 31.31 49.35 26.66" style="fill: #854d00;"/>
  <polygon points="49.22 50.37 71.53 50.37 49.35 26.66 49.22 50.37" style="fill: #b86800;"/>
  <polygon points="49.22 63.56 49.22 50.37 26.25 50.37 26.2 52.22 49.22 63.56" style="fill: #8d5300;"/>
  <polygon points="26.2 52.22 49.22 63.56 24.3 82.7 26.2 52.22" style="fill: #a16001;"/>
  <polygon points="49.22 90 49.22 63.56 24.3 82.7 49.22 90" style="fill: #c27a00;"/>
  <polygon points="26.25 50.37 26.2 52.22 22.66 50.37 26.25 50.37" style="fill: #c77902;"/>
</svg>