<?xml version="1.0" encoding="UTF-8"?>
<svg id="Layer_1" xmlns="http://www.w3.org/2000/svg" version="1.1" viewBox="0 0 100 100">
  <!-- Generator: Adobe Illustrator 29.5.0, SVG Export Plug-In . SVG Version: 2.1.0 Build 137)  -->
  <path d="M52.8,10c2.52,1.5,5.46,1.92,8.13,3.27,4.02,2.05,8.22,5.71,10.16,9.84.97,2.07,1.24,4.96,2.52,6.68s4.64,2.69,6.59,4.21c3.4,2.65,6.06,7.32,7.42,11.38.86,2.54.97,5.57,2.39,7.81v9.6c-2.05,14.66-16.31,25.25-30.4,27.2h-7.6c-1.39-1.13-3.31-1.32-4.94-2.06-3.33-1.5-6.18-3.45-8.67-6.13-1.26-1.36-2.87-4.37-4.42-5.18-1.94-1.02-4.45-.42-6.53-.67-6.44-.79-10.84-5.85-13.39-11.41-1.69-3.7-2.35-7.68-4.06-11.34v-7.6C12.57,28.55,28.54,12.64,45.6,10h7.2Z" style="fill: #f0f0f0;"/>
  <path d="M35.2,16.4c.79-.2,1.3.1.85.78-11.63,6.77-23.71,19.35-22.65,33.78.66,8.96,5.41,20.87,15.48,22.08,5.4.08,8,.26,10.72,5.36.34-.17.47-.02.4.4.94,1.44,2.14,2.68,3.6,3.6,1.69.96,3.5,1.84,5.41,2.67l.19.53c3.55,1.22,7.28,1.49,11.2.8.04-.28.1-.52.23-.58.97-.4,4.6-1.48,5.67-1.71.14-.03.32.1.5.29,1.44-.4,2.84-1.04,4-2l.37-.73c7.6-4.6,13.95-12.01,15.1-21.05l.54-.61c.17-3.24-.2-6.42-.8-9.6-.98-1.28-1.72-3.6-1.6-5.2-.52-1.41-1.18-2.74-2-4-.59.32-1.15-.65-.8-1.2-.38-.7-.48-.99.4-.8,4.66,6.21,6.8,15.63,5.49,23.29-3.24,18.9-31.45,33.97-46.7,18.93-3.28-3.23-3.14-6.74-8.63-7.37-6.83-.78-9.99-.55-14.31-6.89-13.02-19.06-.74-41.04,17.36-50.76h0Z" style="fill: #e1e1e1;"/>
  <path d="M82,39.2l-.4.8c-1.11-.71-2.21-1.62-3.3-2.72-5.48-2.92-8.71-5.18-10.02-11.68-4.33-9.05-15.17-13.4-24.68-11.2-14.46,5.36-31.37,20.79-29.43,37.49.93,8.07,5.24,19.24,14.37,20.42,3-.23,5.62.2,7.87,1.28,1.38.91,2.96,3.29,3.2,4.8-1.46-1.48-2.64-3.88-4.51-4.49s-3.45-.12-5.24-.36c-7.39-.97-11.4-5.2-14.16-11.84-8.07-19.46,3.66-33.95,19.11-44.31.59-.4,1.2.17.4-.99,11.07-5.94,23.95-5.67,32.21,4.79,2.92,3.7,2.63,8.59,6.22,11.38s5.12,2.29,8.37,6.63Z" style="fill: #e0e0e0;"/>
  <path d="M81.6,40c.21.25.52.82.8,1.2.81,1.25,1.48,2.6,2,4,.53,1.67,1.16,3.53,1.6,5.2.6,3.17.98,6.36.8,9.6-1.52,10.18-7.15,17.42-16,22.4-1.16.96-2.55,1.6-4,2-2.38,1.04-3.88,1.49-6.4,2-3.71.37-7.7.73-11.2-.8-2.33-.68-3.8-1.57-5.6-3.2-1.45-.91-2.67-2.17-3.6-3.6-.13-.14-.27-.26-.4-.4l-3.2-4.8c.13-.3.4-.3.8,0l.5-.04c3.69,6.1,8.43,10.44,15.5,12.04,1.86.18,3.74.16,5.6,0,8.43-1.94,15.95-6.12,21.6-12.8-.38-.74.37-1.78,1.2-1.6,1.51-2.4,2.72-4.91,3.6-7.6,1.47-9.34-.49-21.31-8.76-26.9-5.18-2.21-7.62-5.4-8.78-10.87-2.76-6.43-9.72-9.87-16.06-11.43-1.83-.41-3.77-.42-5.6,0-.3.62-1.46.82-2,.4-.38.02-.53,0-.4-.4,10.35-2.84,21.15,2.1,25.39,12.01,1.5,3.51.65,5.02,4.48,7.52,3.51,2.28,5.16,2.5,8.13,6.07Z" style="fill: #d5d5d5;"/>
  <path d="M60.4,86.4c-3.5.71-5.88.92-9.46.06-.64-.16-1.35-.24-1.74-.86,3.66,1.06,7.42.81,11.2.8Z" style="fill: #e0e0e0;"/>
  <path d="M86.8,60l-.8-9.6c1.02,3.85,1.38,5.68.8,9.6Z" style="fill: #e0e0e0;"/>
  <path d="M43.6,82.4c-1.42-.45-3.16-2.2-3.6-3.6,1.08,1.09,2.53,2.63,3.6,3.6Z" style="fill: #e0e0e0;"/>
  <path d="M84.4,45.2l-2-4c1.32,1.82,1.3,1.81,2,4Z" style="fill: #e0e0e0;"/>
  <path d="M70.8,82.4c-.88,1.15-2.61,1.88-4,2,.95-.42,3.09-1.49,4-2Z" style="fill: #e0e0e0;"/>
  <path d="M43.6,14.4l.4.4c-1.74.79-3.6,1.59-5.6,2.4.2.76-1.13,1.46-1.6.8-1.95,1.06-3.82,2.26-5.6,3.6.02,1.03-1,1.86-2,1.6-2.26,2.02-4.39,4.13-6.4,6.4.57.66-.42,1.94-1.2,1.6-6.78,9.04-8.96,17.61-5.02,28.28,3.02,8.17,7.76,13.34,16.84,12.25,1.33.09,3.64.42,3.78,1.86-.25-.04-.58.06-.8,0-3.68-.96-6.96-.46-10.32-1.48-8.32-2.49-12.86-16.52-12.47-24.32.73-14.38,16.64-29.74,29.99-33.4Z" style="fill: #cfcfcf;"/>
  <path d="M74.4,78c1.92-1.66,3.73-3.46,5.43-5.39l.57.19c-5.33,6.77-12.8,11.62-21.6,12.8-1.85.16-3.74.18-5.6,0-5.6-.82-9.16-3.07-12.79-7.41-1.14-1.36-1.96-3.35-3.21-4.59-2.64-2.62-5.67-1.2-8.97-1.63-10.08-1.32-14.7-17.09-13.78-25.71.62-5.9,3.77-10.56,7.15-15.05l.18.72c-4.88,6.99-7.92,14.49-5.85,23.02,1.64,6.78,5.68,15.82,13.61,16.18,7.05-1,9.11,1.56,12.48,7.11,8.86,10.46,22.59,6.66,32.38-.22h0Z" style="fill: #cbcbcb;"/>
  <path d="M85.2,62.4c-.3,3.24-1.97,6.06-3.6,8.8-.33.48-.83,1.12-1.2,1.6-1.89,1.25-3.27,3.44-5,4.82-.36.29-.86.28-1,.38-.18-.14-.04-.41.4-.8l-.06-.93c2.84-2.43,5.27-5.37,7.07-8.65l.59-.02c4.2-9.54,2.21-23.84-6.89-29.88-3.65-1.93-7.4-3.96-7.91-8.52l-.65-.14c-.64-2.1-1.34-4.12-2.8-5.81l.24-.46c-.68-.68-.68-1.08,0-1.2,1.09.47,1.96,1.4,2.61,2.8,1.88,5.83,3.37,10,9.55,12.38,7.8,5.53,10.14,16.64,8.64,25.63h0Z" style="fill: #c3c3c3;"/>
  <path d="M46,14.4c1.83-.42,3.77-.42,5.6,0,5.38.51,13.33,5.11,15.82,9.98,1.73,3.4,1.43,7.06,4.85,9.55s5.54,2.52,8.46,6.34c4.38,5.72,6.58,16.46,4.47,23.33v-1.2c.9-7.96-1.04-19.26-7.6-24.6-3.32-2.71-6.84-2.74-8.71-7.29-1.63-3.96-1.16-5.44-4.49-8.91l-.79-.04c-6.7-6.87-15.9-7.93-24.49-4.06l-.71-.29c1.38-1.01,3.94-2.02,5.6-2.4.58-.13,1.46-.35,2-.4h0Z" style="fill: #cdcdcd;"/>
  <path d="M85.2,63.6c-.41,3.33-1.88,5.06-3.6,7.6,1.36-2.89,2.82-5.66,3.6-8.8-.04.39.05.81,0,1.2Z" style="fill: #cbcbcb;"/>
  <path d="M51.6,14.4c-1.5-.14-4.11-.15-5.6,0,1.34-.67,4.18-.68,5.6,0Z" style="fill: #cfcfcf;"/>
  <path d="M58.8,85.6c-2.61.35-2.93.39-5.6,0h5.6Z" style="fill: #cfcfcf;"/>
  <path d="M64.4,21.6c.06.36-.1.92,0,1.2-.74.28-1.37-.5-1.6-1.2-2.25-1.73-4.73-3.16-7.43-4.28l-.17-.52c-4-1.3-8.4-1.24-12.4,0l-.27.61c-16.91,6.31-32.99,25.77-23.19,44.19l-.14.8c3.4,6.18,8.26,9.4,15.36,7.58,3.27.52,5.66,2.67,7.18,6.45,9.78,11.96,20.65,7.6,31.88.72.33-.2.79-.08,1.18.04l-.4.8c-10.37,7.78-23.53,11.15-33,0-1.9-2.24-3.1-5.9-6.43-6.37-3.6-.51-6.15.48-9.89-1.31-6.16-2.94-10.15-14.05-10.29-20.51-.16-7.07,3.35-12.82,6.82-18.62.38-.5.82-1.13,1.2-1.6,2-2.26,4.14-4.38,6.4-6.4.66-.55,1.31-1.08,2-1.6,1.78-1.33,3.65-2.53,5.6-3.6.54-.24,1.05-.59,1.6-.8,9.68-3.68,18.49-3.41,26,4.4h0Z" style="fill: #bdbdbd;"/>
  <path d="M29.2,23.2l-6.4,6.4c2.41-2.95,3.48-3.97,6.4-6.4Z" style="fill: #cdcdcd;"/>
  <path d="M36.8,18l-5.6,3.6c2.31-1.72,2.76-2.34,5.6-3.6Z" style="fill: #cdcdcd;"/>
  <path d="M82.4,67.6c-1.26,3.02-5.03,7.6-7.6,9.6-9.3,7.26-23.94,11.19-32.57.77-1.47-1.77-3.39-6-5.54-6.86-2.02-.82-5.62-.03-8-.4-4.98-.78-7.46-4.2-9.5-8.3.8.24,1.46,1.04,2,2.4l1.13.15c2.68,3.64,6.62,5.29,11,3.76l1.07.5c2.23-.78,5.06.46,5.6,2.8l.88.26c7.67,16.68,27.33,10.4,37.03-1.36,7.39-8.96,5.01-20.93-.82-30.1l.11-1.2c1.62.02,3.09,2.58,3.93,4.08,3.83,6.8,4.61,16.82,1.27,23.92h0Z" style="fill: #aeaeae;"/>
  <path d="M82.4,67.6c3.38-8.1,2.16-22.57-5.2-28-1.2.6-4.3-1.58-4.8-2.8-2.37-.77-5.92-3.38-4.8-6-.57-.41-.78-1.32,0-1.6,3.72,7.64,4.67,4.84,10,9.4,6.66,5.68,9.64,21.51,4.8,29Z" style="fill: #b6b4b5;"/>
  <path d="M64.4,22.8c.25.74,1.27,1.68,1.67,2.53.59,1.26.92,2.61,1.53,3.87.04.52-.06,1.08,0,1.6-.26.72-.52.59-.8-.4-.23-.32-.36-.72-.4-1.2-.94-.65-1.61-1.8-2.01-3.45-1.03-1.16-1.56-2.28-1.59-3.35-.38-.5-.38-.76,0-.8.44.42,1.11.81,1.6,1.2Z" style="fill: #b1b1b1;"/>
  <path d="M55.2,16.8c2.7.72,5.63,2.94,7.6,4.8v.8l-1.32-.13c-15.81-13.73-40.03,6.71-43.43,23.07-1.3,6.26.95,12.4,3.43,18.1l-.28,1.37c-.6-.8-1.26-1.72-2-2.4-4.44-8.96-4.86-16.22-.21-25.21,4.08-7.89,15.04-18.41,23.81-20.39,3.99-1.24,8.42-1.3,12.4,0h0Z" style="fill: #ababab;"/>
  <path d="M55.2,16.8c-3.16-.84-9.19-.72-12.4,0,3.64-1.73,8.78-1.72,12.4,0Z" style="fill: #b1b1b1;"/>
  <path d="M71.6,36.8c-.04-.36.23-.36.8,0,1.22.26,3.7,1.99,4.8,2.8,4.91,6.33,7.71,17.66,5.1,25.3-3.82,11.19-21.87,22.34-33.25,17.05-3.24-1.5-8.44-6.33-9.05-9.95-.96-1.14-.96-1.8,0-2-.95-.78-1.02-2.38.4-2.4l-.58-.9c1.44-4.71,4.41-8.43,7.78-11.9-.08-1.86,1.35-3.64,3.2-4,.12-1,4.1-5.7,4.57-5.71.21,0,.42.05.63.11.01-1.05,1.42-3.12,2.4-2.4,1.72-2.29,4.61-6.06,7.6-5.2-.21-1.5,1.35-1.18,2.4-.8.18-.72,1.24-.72,3.2,0h0Z" style="fill: #770027;"/>
  <path d="M62.8,22.4c2.2,2.12,2.9,3.88,3.6,6.8l.5,5.3-.9.7c.84.7.82,1.67,0,2.4-2.83,1.05-5.39,3.22-7.6,5.2-.87-1.28,1.31-4.68,2.8-4.8-.36-1.56.6-4.73,2-5.6l-.74-.62c-.12-1.8-.41-3.6-.86-5.38l-1.22-.29c-6.58-8.58-17.47-5.17-24.82.43l-1.15-.14-.3,1.24c-3.04,2.7-6.01,5.49-8.9,8.36l.18,1.14c-2.14,2.96-3.96,6.12-4.98,9.66l.51.66c-.3,1.89-.34,3.8-.11,5.74.57.48.7,1.28.4,2.4l.88.22c3.84,12.26,8.21,12.63,17.89,4.82l6.62-6.02,1.01.19c-2.5,3.34-6.22,8.79-7.2,12.8l-.4.41c-1.09-.07-2.16-.08-3.2-.01.34.97-.46,1.37-2.4,1.2-5.97,2.08-9.64.31-13.2-4.4-4.26-9.72-6.5-16.79-1.35-26.75,7.33-14.16,28.44-29.69,42.95-15.65Z" style="fill: #5f5f5f;"/>
  <path d="M36.8,68c1.32-.58,3.13.56,3.2,2-.02.58-.09,1.47,0,2-1.68-1.68-3.29-2.34-5.6-2.8.27-.1,1.9-.95,2.4-1.2Z" style="fill: #939393;"/>
  <path d="M67.6,30.8c.37,3.16,2.7,4.09,4.8,6-.23-.05-.54.03-.8,0-4.02-.22-5.76-2.45-4.8-6.4l.8.4Z" style="fill: #a4a4a4;"/>
  <path d="M66.8,30.4c.15.66-.11,1.5.18,2.41.6,1.92,2.67,3.64,4.62,3.99-.78-.09-2.45-.12-3.2,0-1.31.05-2.44,0-2.4-1.6.28-2.02.6-3.93.4-6,.04.19.27.65.4,1.2Z" style="fill: #8d8b8c;"/>
  <path d="M46.4,37.6c1.3.38,2.7.33,4,0,.39-.54,1.32-.68,1.6,0,4.26-.72,5.68.07,4,4.4.13.66-.46,2.34-.84,3.03-1.8,1.83-3.25,3.76-4.36,5.77-1.07,1.29-2.19,2.65-3.2,4-4.51,3.8-11.53,11.92-17.85,11.96-4.64.04-7.64-7.42-8.55-11.16v-3.6c-1.45-2.41.03-6.05,1.3-8.5,2.68-5.16,7.73-10.82,14.02-8.51,3.22,1.13,6.67,1.92,9.88,2.62Z" style="fill: #bebebe;"/>
  <path d="M79.2,63.2c-.84.96-6.24,2-6,0l.22-.54c4.08-.77,4.57-5.66,4.18-9.06l-.86-.34c-1.14-8.14-8.12-14.85-13.98-5.7-1.45,2.26-1.9,3.94-1.16,6.45-.62.97-1.44.75-1.6-.4-.79-1.46-1.48-2.99-2.07-4.58l.47-1.02c.74-.78,1.2-1.88,1.98-2.62,8.86-8.41,15.4-6.84,18.47,5.16,1.12,4.4,1.69,8.29.35,12.65Z" style="fill: #fc9bc9;"/>
  <path d="M50,60.4c-5.18,5.5-8.36,11.47-.53,16.42,7.34,4.64,18.39-.08,21.73-7.57-2.82-2.07-5.56-4.31-8.24-6.73l-.16-1.32c-1.07-.43-.71-1.28.4-1.2l1.12-.26,5.15,4.1c8.69,2.95,4.76,7.45-.73,11.18l-.34.58c-6.72,4.19-14.08,6.9-20.99,1.19-4.48-3.7-5.22-6.02-2.68-11.46.44-.94,2.92-4.97,3.67-5.33l.45-.06c.63-1.44,1.28-1.95,1.95-1.54,1.07.49.29,2.22-.8,2Z" style="fill: #e15994;"/>
  <path d="M25.2,36c3.54-3.6,6.34-5.99,11.44-3.85,6.67,4.96,14.45,4.57,21.89,1.59,2.27-.28,3.17,1.14,2.68,4.26-.84,1.7-2.18,3.02-2.8,4.8-.92.83-1.42,1.36-2.4,2.4-1.34.2-1.02-.42-.5-1.38,1.29-2.05,4.34-7.56-.11-7.21-6.91,1.5-13.34.58-19.96-1.98-7.63-1.3-11.57,6.08-14.22,11.96-.12.27-.46.29-.81.21.73-4.74,2.19-7.04,4.8-10.8Z" style="fill: #ccc;"/>
  <path d="M56,45.2c-1.58,1.66-3.81,3.92-5.2,5.6-.86-.23.08-1.15.31-1.49,1.79-2.55,3.57-4.39,4.89-7.31,1.7-4.4.24-5.08-4-4.4-.53-.02-1.07,0-1.6,0-1.3.34-2.7.38-4,0-1.12-.06-2.15.05-3.3-.1-7.21-.95-10.46-5.36-17.11,1.49-3.79,3.9-4.54,7.82-4.79,13.01.19.65.36,1.4-.4,1.2-.92-1.54-.96-3.69-.82-5.43.04-.54.4-.85.42-.97,2.56-5.21,7.77-14.46,14.82-13.03,4.24.86,7.93,3.32,13.04,3.4,2.23.03,7.86-1.71,9.34-.97,1.63.8.37,4.1-.2,5.4-.46,1.04-2.36,2.58-1.4,3.6h0Z" style="fill: #c4c4c4;"/>
  <path d="M63.2,57.2c3.43,3.06,6.06,5.23,10.41,6.98,2.91-.07,3.62,2.25,2.79,4.62-2.26,3.02-4.87,4.85-8,6.8-.46-.46.26-.94.58-1.21,1.83-1.57,3.5-2.72,4.51-5.1,1.36-3.19-1.52-2.92-3.78-4.4s-4.11-3.63-6.51-4.89c-1.14-.16-1.07-2.48,0-2.8h0Z" style="fill: #e76ea3;"/>
  <path d="M73.2,63.2c.14.03.37.42.96.42,1.42,0,3.38-.82,5.04-.42-.64,2.08-1.47,3.83-2.8,5.6l-.89-3.51c-4.94-.77-9.44-4.17-12.31-8.09-.35-.1-.34-.23,0-.4l.56-.28c2.81,2.63,5.89,4.66,9.24,6.09l.19.59Z" style="fill: #ec86b3;"/>
  <path d="M59.2,53.2l-.48.78c-2.86.19-5.47,2.02-7,4.4l-.92.02c-.84.26-1.61,1.75-2.2,1.99-.22.09-.18-.4-.2-.39,1.63-3.03,4.19-5.43,6.4-8,1.36-.78,4.84-2.35,4.4,1.2Z" style="fill: #e669a0;"/>
  <path d="M60,53.6c-.69.84-.91.66-.8-.4-1.34-2.41-2.02-1.33-3.89-.87-.28.07-.58,0-.51-.33,1.24-1.44,2.29-2.62,3.6-4,.64,1.83,1.8,3.57,1.6,5.6Z" style="fill: #ef7fb2;"/>
  <path d="M40.4,67.6c-.21.87-.36,1.48-.4,2.4l-3.2-2c1.74-.87.89-1.52,3.6-.4Z" style="fill: #7e7e7e;"/>
  <path d="M68.4,36.8c-.23.04-1.99.65-2.4.8-.47-1.08-.1-1.68,0-2.4l2.4,1.6Z" style="fill: #746e70;"/>
  <path d="M61.6,26.4c.66,3.35-1.07,5.88-5.2,7.6-5.82,3.65-16.34,2.16-20.94-3.08-1.07-1.22-2.52-3.14-1.06-4.52,8.41-6.42,19.84-10.24,27.2,0Z" style="fill: #e3e3e3;"/>
  <path d="M56.4,34l3.76-2.29c1.03-.3,2.85-.61,3.04.69-.15,1.44-1.34,4.24-2,5.6-1.54.08-.12-1.6-.87-2.91-1.12-1.94-5.59.44-7.45.79-3.92.76-7.38.62-11.2-.56-3.76-1.17-7.34-4.76-11.44-2.48l-5.04,3.16c2.82-4.06,5.28-6.61,9.2-9.6-.35,3.28,4.37,6.77,7.09,7.91,5.26,2.21,9.83,1.52,14.91-.31Z" style="fill: #d5d5d5;"/>
  <path d="M63.2,32.4c-2.76-.51-4.41.74-6.8,1.6,1.51-1.57,3.84-3.03,4.62-5.18.29-.79-.09-1.88.58-2.42,1.54,2.15,1.91,3.1,1.6,6Z" style="fill: #d8d8d8;"/>
  <path d="M21.2,55.6c-.19-.79-.46-1.57-.4-2.4,0-.06.36-.38.4-1.2.67.74.67,2.86,0,3.6Z" style="fill: #bfbfbf;"/>
  <path d="M35.2,63.2c-2.82,2.71-7.67,2.19-9.93-1.07-5.32-7.66-4.43-18.17,3.17-23.9,5-3.76,9.74-.44,15.37.16,3.12.33,6.46-.28,9.2,0,3.99.41,1.39,4.77.12,6.93-2.81,4.78-7.15,9.12-11.13,12.67-.16-.12-.16-.26,0-.4l-.1-.38c3.32-3.46,6.52-7.22,8.89-11.4l.81-.22c1.69-3.04,2.78-5.87-2-5.68-5.57.53-10.8-.54-16.28-1.68-3.52-.57-6.15,2.45-8.12,4.95.16.21.28.4.23.54-.35.9-1.63,3.62-2.1,4.5-.06.12-.27.16-.53.17-.26,1.72-.19,3.47,0,5.2l.39.22c.99,6.29,4.01,12.08,11.21,9.38.31-.15.58-.15.8,0h0Z" style="fill: #b2b2b2;"/>
  <path d="M42,58c-1.71,1.52-4.49,4.72-6.8,5.2-.24.05-.54-.03-.8,0,2.39-1.98,4.93-3.85,7.6-5.6v.4Z" style="fill: #adadad;"/>
  <path d="M56,42c1.14-4.84-.08-4.26-4-4.4,5.18-1.27,6.02-.07,4,4.4Z" style="fill: #bfbfbf;"/>
  <path d="M50.4,37.6c-.88.68-3.19.66-4,0,1.32.06,2.67-.02,4,0Z" style="fill: #bfbfbf;"/>
  <path d="M59.2,53.2c.21.02.54.33.8.4.43.11,1.33.24,1.6.4.42-.18.73.35.8.8.56.45,1.68,1.62.8,2,.02.13-.02.27,0,.4.07.68.11,2.18,0,2.8-.01.06-.34,1.03-.4,1.2.8.88-.02,2.42-1.2,2,.73.94-.19,1.76-1.2,1.2.51,1.09-.23,1.47-1.2.8.14,1.38-1.9,2.26-2.8,1.2-.27,1.3-1.6,1.12-2.82.91-1.72-.31-4.9-2.22-3.58-4.11-.45-.06-.45-.33,0-.8-.54-.06-.54-.33,0-.8-.98-.06-.71-.7,0-1.2.04-.19.67-1.73.8-2,1.36-2.75,5.26-5.44,8.4-5.2Z" style="fill: #5d0019;"/>
  <path d="M77.6,53.6c.26,1.81.14,4.41-.62,6.09-.45.99-1.49,2.98-2.58,1.91l-.4-.82c4.28-7.48-2.86-23.84-10.86-11.34-.94,1.47-1.1,3-.02,4.46l-.32.9c-.12.29-.25.28-.4,0-.03-.04-.75-.77-.8-.8-2.62-3.32,2.33-10.55,5.59-11.41,6.29-1.66,9.6,6.11,10.41,11.01h0Z" style="fill: #fcb7d8;"/>
  <path d="M73.2,63.2c-3.93-.82-6.63-4.48-10-6.4-.06-.35-.63-1.76-.8-2h.4l.99-.09c3.08,2.86,6.57,5.98,10.61,6.89,2.89-1.18,2.81-5.29,3.2-8,.02.12.37.43.42.97.3,3.36-.43,8.68-4.82,8.63Z" style="fill: #f2abca;"/>
  <path d="M50,60.4c-.07.34.02.82,0,1.2-3.56,3.74-6.87,7.79-2.74,12.44,6.27,7.06,18.54,4.35,21.6-3.93-2.58-1.76-5.19-3.55-7.35-5.85l.09-1.06c.13-.17,1.16-1.89,1.2-2,1.64,1.78,3.72,3.49,5.64,4.96,3.2,2.46,5.42,2.12,1.32,6.59-4.64,5.07-13.85,8.33-20.05,4.53-6.65-4.08-6.65-8.78-2.1-14.68.6-.78,1.36-2.04,2.38-2.22h0Z" style="fill: #d84885;"/>
  <path d="M47.11,22.5c3.26-.44,6.5.31,9.09,2.3,2.92,2.26,3.29,5.5.18,7.76-4.19,3.06-13.24,2.58-17.14-.8-5-4.33,4.26-8.78,7.87-9.26Z" style="fill: #eee;"/>
  <path d="M39.6,40.4c.68.94-.2,1.74-1.2,1.2l-.81.63c-11.81-4.52-17.08,8.39-11.46,17.88,6.04,10.22,21.98-9.9,23.74-15.85.2-.69.24-1.55-.61-1.55-1.78.37-3.14.13-4.06-.71-1.1.29-1.47-.31-.8-1.2-.16-.36-.14-.64.19-.67,1.62-.16,6.92-.61,8.06.42s-.38,3.9-1.05,5.05c-1.27,2.69-7.29,9.86-9.6,12-1.56,1.44-5.77,4.7-7.6,5.6-7.67,3.76-10.54-3.24-11.6-9.6-.19-1.72-.26-3.48,0-5.2.4-1.73,1.28-3.82,2.4-5.2,1.46-1.89,3.73-4.45,6.15-4.93,1.12-.22,8.83.88,8.6,1.62-.06.19-.2.36-.35.52h0s0,0,0,0Z" style="fill: #a8a8a8;"/>
  <path d="M25.2,43.2c.99-2.2,4.5-5.47,6.99-5.53,2.78-.07,7.17,1.6,10.06,1.89,4.96.5,15.82-2.37,9.36,6.04.47-1,1.28-3.88.74-4.74-.37-.59-6.89-.79-7.94-.06-1.08.53-3.57.02-4.8-.4-.24-.86-1.04-.74-1.72-.88-2.03-.42-5.28-1.07-7.26-.7-1.02.19-4.69,3.48-5.42,4.38h0Z" style="fill: #adadad;"/>
  <path d="M22.8,53.6c-.4-2.38-.56-2.75,0-5.2v5.2Z" style="fill: #adadad;"/>
  <path d="M56.4,66.4c2.9,2.18,5.52,4.62,7.88,7.31.46,3.02-9.56,4.89-11.88,3.49-2.04.01-5.2-2.45-5.6-4.4-.4-.51-.4-.78,0-.8l1.01-.03c.57,2.78,11.05,5.55,11.3,3.36.07-.64-8.58-8.02-9.69-8.5-.94-.41-1.44.89-1.63,1.6-.07,1.57-.53,2.49-1.39,2.77-1.78-2.2,1.3-7.08,3.6-8,.79,2.9,3.7,3.89,6.4,3.2h0Z" style="fill: #c0185b;"/>
  <path d="M64.8,74.8c-2.44,2.96-9.13,4.54-12.4,2.4,2.26.9,10.73-.42,11.17-3.06.16-.97-5.8-5.36-6.79-6.34-.47-.47-.96-.72-.38-1.41.99-.25,1.94-.67,2.8-1.2.28-.09.6-.15.84.02.67.46,6.58,5.95,6.77,6.38.66,1.34-.98,2.49-2.01,3.2h0Z" style="fill: #c62566;"/>
  <path d="M50,61.6c-.01.25-.03.55,0,.8-3.82,3.4-4.89,6.86-3.2,10.4,1.47,1.93,3.32,3.49,5.6,4.4,3.88,1.56,9.25.3,12.4-2.4,1.84-1.14,3.37-3.4,1-4.72l-5.38-4.4c-.46-.33-.34-.8-.02-1.28.12-.1,1.15-1.13,1.2-1.2,1.01,1.06,2.29,2.26,3.41,3.19.71.59,4.36,3.05,4.5,3.29,1.28,2.21-5.07,6.38-6.84,7.19-3.64,1.67-8.16,2.32-11.84.49-1.59-.79-5.29-3.82-5.62-5.58-.67-3.6,1.54-8.38,4.78-10.18h0Z" style="fill: #d03575;"/>
  <path d="M64.8,74.8c.2-.17,1.53-1.76,1.56-1.88.5-1.84-6.75-5.58-7.16-7.72.38-.23.88-.52,1.2-.8,1,1.71,7.04,5.35,7.44,6.78.34,1.2-1.75,3.37-3.04,3.62h0Z" style="fill: #ce3272;"/>
  <path d="M50,63.2c-2.04,1.96-4.86,5.02-3.6,8,1.06-.15,1.06-.03.4.8v.8c-.36-.47-.89-.47-1.11-1.48-.72-3.26,1.73-7.1,4.31-8.92.03.26-.06.59,0,.8Z" style="fill: #c62264;"/>
  <path d="M74.4,61.6c-.48.2-.54.48-1.37.44-2.14-.11-8.8-5.46-10.23-7.24-2.21-2.74-1.16-4.92.81-7.39,8.73-10.99,15.94,7.52,10.79,14.19Z" style="fill: #f6c3d9;"/>
  <path d="M47.51,24.5c5-.69,12.92,4.18,6.37,7.17-3.5,1.6-8.68,1.57-11.94-.61-4.1-2.75,2.8-6.17,5.56-6.56h0Z" style="fill: #f9f9f9;"/>
  <path d="M44.4,40.8c.16.11.6.91.8,1.2,2.19.4,2.58,4.68,2.17,6.52-.31,1.4-2.34,5.03-3.77,4.28-.76,1.04-1.3,1.18-1.6.4-.1.8-.51.78-.8,0-.43.63-.66.79-.8,0-.7,1.08-2.91-.49-2.4-1.6-1.04.72-2.28-2.21-1.2-2.8-1.17.22-1.42-1.07-.4-1.6-1.54-.46-.6-2.92.8-3.2-1.12-.77-.16-2.63,1.2-2.4.08-.1,1.13-1.16,1.2-1.2,1.24-.72,3.7-.37,4.8.4Z" style="fill: #2d2d2d;"/>
  <path d="M38.4,41.6c-.7.86-.83,1.43-1.2,2.4l-.69.86c-7.16-.84-12.52-.04-11.7,8.71,1.34,14.25,12.57,7.9,17.76-.07l1.03-.7c3.84-1.92,3.75-7.64,1.6-10.8,2.37.4,6.02-1.39,5.52,2.1-.45,3.13-7.03,11.01-9.51,13.3-4.72,4.36-12.1,10.22-16.08,1.67-2.29-4.92-2.62-10.84.89-15.27,3.69-4.66,7.17-3.42,12.39-2.21h0Z" style="fill: #9a9a9a;"/>
  <path d="M46.8,72c-.14-.19-.3-.56-.4-.8.37-1.73.67-6.02,3.31-5.11.81.28,6.85,5.52,7.9,6.51,1.6,1.51,3.97,3.18.42,4.03-4.17,1-8.72-1.38-11.23-4.63Z" style="fill: #b8094d;"/>
  <path d="M67.89,44.88c7.86-1.81,9.06,14.55,5.43,15.46-1.71.43-9.76-5.73-10.34-7.52-.84-2.62,2.4-7.36,4.9-7.94Z" style="fill: #fad7e7;"/>
  <path d="M40.4,53.2c.34.22.3.38.09.66-1.89,2.52-7.89,8.64-11.17,6.59-2.14-1.34-5.11-9.32-.74-9.02l6.01.24c1.24-.24,2.38-.26,3.41-.08.11.14,2.19,1.54,2.4,1.6h0Z" style="fill: #6a6a6a;"/>
  <path d="M37.2,44c-.43,1.13-.87,1.9-.8,3.2l-.61.86-7.03-.12c-6.09.52-2.73,13.44,1.84,13.66,3.53.17,9.6-5.56,11.39-8.41.66-.06.98-.09,1.6-.4-1.54,3.44-6.78,7.66-10.26,9.14-7.98,3.4-10.74-9.74-7.9-15.1,2.41-4.57,7.48-2.34,11.76-2.84h0Z" style="fill: #8a8a8a;"/>
  <path d="M38,51.6c-1.86,1.88-9.41.02-10.74.86-1.44.91.8,8.53,3.64,8.27,2.42-.22,8.38-5.1,9.5-7.52.2.06.54-.02.8,0,.37.28.42.55.17.88-2.04,2.62-7.17,7.45-10.59,7.54-4.26.11-6.87-10.38-4.44-12.44.38-.32,8.27-.67,9.57-.7l.88.32c.07.26,1.1,2.66,1.2,2.8Z" style="fill: #797979;"/>
  <path d="M36.4,47.2c0,.11.32,1.31.4,1.6-1.75,1.94-8.86-.14-10.21,1.19-1.95,1.93,0,11.36,4.42,11.24,2.76-.08,9.42-5.18,10.2-8.04.25.02.55.02.8,0,.15.91-.29,1.22-.78,1.82-1.57,1.9-7.82,6.97-10.21,7-5.04.06-7.45-10.67-4.8-14.01,1.34-1.69,7.9-.41,10.19-.81h0Z" style="fill: gray;"/>
  <path d="M66.14,47.74c4.45-4.24,7.02,1.18,7.42,5.3.43,4.46-1.2,4.26-4.33,2.32-2.79-1.73-6.32-4.56-3.09-7.63h0Z" style="fill: #fdebf3;"/>
</svg>