<?xml version="1.0" encoding="UTF-8"?>
<svg id="Layer_1" xmlns="http://www.w3.org/2000/svg" version="1.1" viewBox="0 0 100 100">
  <!-- Generator: Adobe Illustrator 29.5.0, SVG Export Plug-In . SVG Version: 2.1.0 Build 137)  -->
  <path d="M70.49,7.85c-.09-.31.24-.45.36-.19,1.96,3.71,1.95,17.25,1.68,18.11v.1c0,.17.07.32.24.41s.58.02.66-.1c1.74-2.59,4.98-4.97,12.77-8.18.2-.08.34.19.19.26-6.87,3.21-10.5,5.53-12.45,8.29-.26.36-.26.61.08.88.71.59.94,2.18,1,2.62.1.85-.14,1.57-.88,2.04-.36.24-1.46.88-1.68,1.02-.48.34-.6.78-.48,1.34.2.87.85,1.43,1.78,1.46.83.07,1.67.09,2.47.17.44.03.92.09,1.34.19.43.08,1.94.59,2.35.48.25-.08-.08-.61.17-.65.6-.07,1.33.03,1.94.07.15,0,.51-.26.66-.27.19-.02.32-.1.37-.31.03-.09.08-.2.1-.31.1-.24.24-.31.48-.27.58.08,1.04.36,1.36.83.08.09.1.2.15.32.1.37-.14.71-.51.75-.24,0-.44-.44-.66-.49-.53-.14-.7,0-1.12.34-.25.19-.44.08-.7.43-.24.34-.17,1.09-.85,1.4-.76.37-1.6-.03-3.98-.6-1.26-.31-2.35-.58-3.61-.78-.82-.15-2.12-.48-3.1.03-.59.31-.99.66-1.1,1.33-.14.66-.1,1.34.02,2.01.49,2.29.51,4.59.53,6.91,0,1.17,0,2.36-.07,3.54-.03.75.2,1.28.75,1.78.88.82,1.77,1.63,2.64,2.47.99.93,1.89,1.94,2.63,3.08.68,1.05,1.57,1.94,2.47,2.79.31.26.54.59.78.88.24.31.31.65.26,1.02-.03.44-.34.66-.76.49-.2-.08-.41-.2-.58-.36-.66-.54-1.19-1.22-1.7-1.94-.37-.51-.75-1.02-1.1-1.55-1.05-1.55-2.38-2.86-3.76-4.1-.78-.75-1.6-1.46-2.35-2.28-1.29-1.36-1.74-2.99-1.6-4.84.03-.36.14-.75.26-1.09.43-1,.58-1.97.48-3.03-.02-.31-.2-.36-.44-.59-.65-.6-.83-1.33-1.57,1.02-.37,1.19-1.4,2.04-2.11,3.06-.93,1.38-1.85,2.76-2.8,4.12-.34.49-.78.92-1.28,1.26-3.64,2.63-7.27,5.25-10.9,7.87-.27.2-.54.42-.83.61-.28.2-.44.49-.54.82-.08.26-.17.53-.25.82-.14.41-.37.68-.75.87-.36.19-.71.37-1.1.51-.42.14-.75.37-.99.75-.34.49-.68.95-.95,1.46-1.04,1.91-2.11,3.81-3.08,5.72-1.61,3.16-3.16,6.37-4.74,9.56-.14.25-.25.51-.36.76-.31.65-.58,1.29-.66,2.01-.07.44-.1.49-.58.51-.24,0-.37.1-.49.27-.25.36-.49.75-.75,1.1-.99,1.46-1.96,2.97-2.97,4.44-.2.32-.48.6-.75.92-.2.25-.49.32-.78.31-.42-.02-.66-.32-.54-.75.07-.25.19-.48.34-.66.54-.75,1.11-1.46,1.67-2.21.7-.93,1.38-1.85,2.06-2.79.34-.44.6-.92.61-1.5,0-.37.24-.68.53-.94.32-.27.6-.66.82-1.04.77-1.33,1.53-2.64,2.25-3.99,2.19-4.17,4.33-8.38,6.34-12.65.34-.75.7-1.46,1.04-2.21.08-.17.19-.32.26-.49.41-.75.95-1.22,1.78-1.45,1.29-.34,2.4-1.04,3.37-1.96,2.01-1.95,4-3.91,5.99-5.87.58-.54,1.11-1.11,1.68-1.67.75-.71,1.6-1.27,2.52-1.72.51-.25,1.02-.53,1.44-.94.25-.25.44-.53.51-.88.02-.1.03-.25.02-.36-.02-.31-.17-.42-.44-.31-.26.09-10.5,7.1-11.36,7.59-4.74,2.64-7.25,2.25-6.2-.66.78-2.18,6.29-10.1,6.84-10.65.71-.75,1.5-1.43,2.23-2.13.1-.1.25-.2.34-.34.17-.2.09-.36-.15-.37-.26,0-.53,0-.78.02-2.98.37-5.89.48-8.89.48-2.55,0-5.15.03-7.7.08-.93,0-1.21.75-2.13.76-.31,0-1.17-.58-1.4-.41-.87.68-1.74,1.34-2.62,2.02-2.72,2.18-8.88,7.06-9.35,7.1-.31.03-1.34.15-1.94.14-1.6-.03-1.77-.02-3.33-.08s-1.12-1.77.24-1c.54.31,4.05.09,4.93-.54,1.44-1.02,2.48-1.72,4.05-2.72,1.33-.85,3.13-2.18,4.32-3.2,1-.85,1.43-1.36,2.12-2.47.53-.87,1.19-.61,1.87-1.29.2-.2.51-.34.77-.34,1.63-.03,3.71.32,5.35.32,2.62.02,5.18-.26,7.7-.87,1.96-.48,3.98-.61,5.96-.6,1,0,2.01,0,2.99.03.66.02,1.19-.19,1.62-.7.68-.77,1.43-1.51,2.06-2.31.53-.68-2.48-.66-2.25-.93.08-.09-4.97.59-4.97.59,0,0-.53-.14-.54-.42,0-.08-2.57,3.76-2.59,3.65,0-.03-.99.27-1.05.24-.07-.03-1.36-.08-1.62-.27-.07-.03-.83-.48-1.17-1-.03-.07-.54.37-.77.25-.26-.15-.32-.66-.27-.92s.49-.36.85-.34c.36,0,1.74,1.33,1.7,1.28-.03-.02.31-.2.71-.14.44.08,1,.37,1,.37,0,0,2.47-3.88,2.46-3.98s.51-.41.49-.48c0-.17.66-.31.66-.31,0,0,5.62.25,5.7.17.08-.09,3.27.44,3.33.36.48-.54.93-1.1,1.4-1.63.75-.85,1.61-1.5,2.65-1.87.25-.09.49-.2.75-.32.49-.25.85-1,.42-1.62s-1.02-2.31-1.02-2.53c0-.27,0-.71.26-.85.27-.15.82-.15,1.02.07.25.24,1.68,1.6,1.62,1.12-.03-.44-.07-.71-.36-.94-.24-.17-.61-.51-.66-.82-.03-.42,0-.65.34-.71.42-.09.88.15,1.02.53.1.37-.03.43,0,.83.07.41.2.49.32.87.03.1.41.76.53.78.61.2.15-.51.19-.77.03-.36.37-.61.71-.7.54-.14.77-.09,1.29,0,.14.02.19.03.32.08.32.07.6,0,.66-.15.14-.27.89-10.39-1.19-17.61h-.02l-.03.04Z" style="fill: #fff;"/>
</svg>