<?xml version="1.0" encoding="UTF-8"?>
<svg id="Layer_1" xmlns="http://www.w3.org/2000/svg" version="1.1" viewBox="0 0 100 100">
  <!-- Generator: Adobe Illustrator 29.5.0, SVG Export Plug-In . SVG Version: 2.1.0 Build 137)  -->
  <path d="M71.69,5.37c-.1-.33.25-.48.38-.2,2.08,3.93,2.06,18.27,1.78,19.18v.11c0,.18.07.34.25.43s.61.02.7-.11c1.84-2.74,5.27-5.26,13.52-8.66.21-.08.36.2.2.28-7.28,3.4-11.12,5.86-13.18,8.78-.28.38-.28.65.08.93.75.62,1,2.31,1.06,2.77.11.9-.15,1.66-.93,2.16-.38.25-1.55.93-1.78,1.08-.51.36-.64.83-.51,1.42.21.92.9,1.51,1.88,1.55.88.07,1.77.1,2.62.18.47.03.97.1,1.42.2.46.08,2.05.62,2.49.51.26-.08-.08-.65.18-.69.64-.07,1.41.03,2.05.07.16,0,.54-.28.7-.29.2-.02.34-.11.39-.33.03-.1.08-.21.11-.33.11-.25.25-.33.51-.29.61.08,1.1.38,1.44.88.08.1.11.21.16.34.11.39-.15.75-.54.79-.25,0-.47-.47-.7-.52-.56-.15-.74,0-1.19.36-.26.2-.47.08-.74.46-.25.36-.18,1.15-.9,1.48-.8.39-1.69-.03-4.21-.64-1.33-.33-2.49-.61-3.82-.83-.87-.16-2.24-.51-3.28.03-.62.33-1.05.7-1.16,1.41-.15.7-.11,1.42.02,2.13.52,2.42.54,4.86.56,7.32,0,1.24,0,2.5-.07,3.75-.03.79.21,1.36.79,1.88.93.87,1.87,1.73,2.8,2.62,1.05.98,2,2.05,2.78,3.26.72,1.11,1.66,2.05,2.62,2.95.33.28.57.62.83.93.25.33.33.69.28,1.08-.03.47-.36.7-.8.52-.21-.08-.43-.21-.61-.38-.7-.57-1.26-1.29-1.8-2.05-.39-.54-.79-1.08-1.16-1.64-1.11-1.64-2.52-3.03-3.98-4.34-.83-.79-1.69-1.55-2.49-2.41-1.37-1.44-1.84-3.17-1.69-5.12.03-.38.15-.79.28-1.15.46-1.06.61-2.09.51-3.21-.02-.33-.21-.38-.47-.62-.69-.64-.88-1.41-1.66,1.08-.39,1.26-1.48,2.16-2.23,3.24-.98,1.46-1.96,2.92-2.96,4.36-.36.52-.83.97-1.36,1.33-3.85,2.78-7.7,5.56-11.54,8.33-.29.21-.57.44-.88.65-.3.21-.47.52-.57.87-.08.28-.18.56-.26.87-.15.43-.39.72-.79.92-.38.2-.75.39-1.16.54-.44.15-.79.39-1.05.79-.36.52-.72,1.01-1.01,1.55-1.1,2.02-2.23,4.03-3.26,6.06-1.7,3.35-3.35,6.74-5.02,10.12-.15.26-.26.54-.38.8-.33.69-.61,1.37-.7,2.13-.07.47-.11.52-.61.54-.25,0-.39.11-.52.29-.26.38-.52.79-.79,1.16-1.05,1.55-2.08,3.14-3.14,4.7-.21.34-.51.64-.79.97-.21.26-.52.34-.83.33-.44-.02-.7-.34-.57-.79.07-.26.2-.51.36-.7.57-.79,1.18-1.55,1.77-2.34.74-.98,1.46-1.96,2.18-2.95.36-.47.64-.97.65-1.59,0-.39.25-.72.56-1,.34-.29.64-.7.87-1.1.82-1.41,1.62-2.8,2.38-4.22,2.32-4.42,4.58-8.87,6.71-13.4.36-.79.74-1.55,1.1-2.34.08-.18.2-.34.28-.52.43-.79,1.01-1.29,1.88-1.54,1.37-.36,2.54-1.1,3.57-2.08,2.13-2.06,4.24-4.14,6.34-6.22.61-.57,1.18-1.18,1.78-1.77.79-.75,1.69-1.34,2.67-1.82.54-.26,1.08-.56,1.52-1,.26-.26.47-.56.54-.93.02-.11.03-.26.02-.38-.02-.33-.18-.44-.47-.33-.28.1-11.12,7.52-12.03,8.04-5.02,2.8-7.68,2.38-6.56-.7.83-2.31,6.66-10.7,7.24-11.28.75-.79,1.59-1.51,2.36-2.26.11-.11.26-.21.36-.36.18-.21.1-.38-.16-.39-.28,0-.56,0-.83.02-3.16.39-6.24.51-9.41.51-2.7,0-5.45.03-8.15.08-.98,0-1.28.79-2.26.8-.33,0-1.24-.61-1.48-.43-.92.72-1.84,1.42-2.77,2.14-2.88,2.31-9.4,7.48-9.9,7.52-.33.03-1.42.16-2.05.15-1.69-.03-1.87-.02-3.53-.08s-1.19-1.87.25-1.06c.57.33,4.29.1,5.22-.57,1.52-1.08,2.63-1.82,4.29-2.88,1.41-.9,3.31-2.31,4.57-3.39,1.06-.9,1.51-1.44,2.24-2.62.56-.92,1.26-.65,1.98-1.37.21-.21.54-.36.82-.36,1.73-.03,3.93.34,5.66.34,2.77.02,5.48-.28,8.15-.92,2.08-.51,4.21-.65,6.31-.64,1.06,0,2.13,0,3.17.03.7.02,1.26-.2,1.72-.74.72-.82,1.51-1.6,2.18-2.45.56-.72-2.63-.7-2.38-.98.08-.1-5.26.62-5.26.62,0,0-.56-.15-.57-.44,0-.08-2.72,3.98-2.74,3.86,0-.03-1.05.29-1.11.25-.07-.03-1.44-.08-1.72-.29-.07-.03-.88-.51-1.24-1.06-.03-.07-.57.39-.82.26-.28-.16-.34-.7-.29-.97s.52-.38.9-.36c.38,0,1.84,1.41,1.8,1.36-.03-.02.33-.21.75-.15.47.08,1.06.39,1.06.39,0,0,2.62-4.11,2.6-4.21s.54-.43.52-.51c0-.18.7-.33.7-.33,0,0,5.95.26,6.04.18.08-.1,3.46.47,3.53.38.51-.57.98-1.16,1.48-1.73.79-.9,1.7-1.59,2.81-1.98.26-.1.52-.21.79-.34.52-.26.9-1.06.44-1.72s-1.08-2.45-1.08-2.68c0-.29,0-.75.28-.9.29-.16.87-.16,1.08.07.26.25,1.78,1.69,1.72,1.19-.03-.47-.07-.75-.38-1-.25-.18-.65-.54-.7-.87-.03-.44,0-.69.36-.75.44-.1.93.16,1.08.56.11.39-.03.46,0,.88.07.43.21.52.34.92.03.11.43.8.56.83.65.21.16-.54.2-.82.03-.38.39-.65.75-.74.57-.15.82-.1,1.37,0,.15.02.2.03.34.08.34.07.64,0,.7-.16.15-.29.94-11-1.26-18.65h-.02,0Z" style="fill: #fff;"/>
</svg>