<?xml version="1.0" encoding="UTF-8"?>
<svg id="Layer_1" xmlns="http://www.w3.org/2000/svg" version="1.1" viewBox="0 0 100 100">
  <!-- Generator: Adobe Illustrator 29.5.0, SVG Export Plug-In . SVG Version: 2.1.0 Build 137)  -->
  <path d="M56.96,58.08l.13.14s.02.1-.02.12c-.05.04-.16,0-.18.06-.02.05-.04.62-.04.74-.04,3.09,0,6.31.17,9.34.14,6.82-.05,13.69.2,20.5.02.3.02.62-.06.91-14.37-4.87-28.69-9.95-43.03-14.93,0-.12.02-.17-.1-.14l-.04.07c-.05-.02-.09-.04-.13-.07-.02-.27.32-.49.49-.66,7.12-6.67,14.64-12.87,21.84-19.45.17-.16.35-.38.49-.58,6.76,1.21,13.5,2.7,20.25,3.94h.02Z" style="fill: #20311f;"/>
  <path d="M56.89,28.22h.06v29.86c-6.75-1.23-13.49-2.72-20.25-3.94l-22.9-20.54c.03-.12-.03-.15.1-.28.17-.16.48-.15.63-.22-.04.22.1.14.23.14,1,.02,2.04-.24,2.98-.37,1.19-.16,2.38-.18,3.57-.36,3.52-.55,7.21-.86,10.79-1.31,2.36-.3,4.84-.65,7.22-.94,5.8-.7,11.71-1.33,17.57-2.04h0Z" style="fill: #3a824b;"/>
  <path d="M36.7,54.15c-.14.2-.32.42-.49.58-7.2,6.58-14.72,12.78-21.84,19.45-.18.17-.51.38-.49.66-.03-.02-.13,0-.16-.06.03-11.73-.15-23.48-.04-35.22.02-1.76-.06-3.98.06-5.69,0-.14.05-.17.07-.25l22.9,20.54h0Z" style="fill: #2f4a2b;"/>
  <path d="M56.89,10.23c.07.12.06.26.06.4.15,5.62,0,11.41,0,17.05,0,.14.07.27.07.35,0,.05-.19.04-.13.18-5.86.72-11.77,1.34-17.57,2.04-2.38.29-4.85.64-7.22.94-3.58.46-7.27.76-10.79,1.31-1.18.18-2.38.2-3.57.36-.94.13-1.98.38-2.98.37-.13,0-.27.07-.23-.14,10.63-5.69,21.22-11.55,31.86-17.27,3.49-1.88,6.98-3.78,10.5-5.59h-.02,0Z" style="fill: #2f6239;"/>
  <path d="M86.1,63.91l-.14.32-14.83,13.78-.14.32h-.2l-13.77-9.83c-.16-3.03-.21-6.26-.17-9.34,0-.12.02-.69.04-.74.02-.07.13-.02.18-.06.04-.02.02-.12.02-.12.15-.1,2.95.56,3.36.64,6.91,1.34,13.82,2.71,20.72,4.07,1.52.3,3.48.46,4.92.97h0Z" style="fill: #2f4a2b;"/>
  <path d="M86.1,63.91c.1.03.26-.05.26.26v25.02l-15.36-10.85.14-.32,14.83-13.78.14-.32h0Z" style="fill: #2f6239;"/>
  <path d="M56.96,28.22h-.06c-.05-.14.13-.14.13-.18,0-.08-.07-.22-.07-.35,0-5.64.16-11.43,0-17.05,0-.14-.03-.26-.06-.4.05-.03.13-.08.22-.13,6.22,5.01,12.35,10.16,18.57,15.18.59.48.02.56-.43.62-6.11.7-12.21,1.58-18.31,2.33h.02v-.02Z" style="fill: #5aa867;"/>
  <path d="M70.8,78.32l-13.39,11.45-.25.13c.09-.3.08-.61.06-.91-.25-6.81-.06-13.67-.2-20.5l13.77,9.83h0Z" style="fill: #2f6239;"/>
  <path d="M14,74.9l.04-.07c.13-.02.1.02.1.14-.05,0-.09-.06-.13-.07h0Z" style="fill: #2f4a2b;"/>
</svg>