<?xml version="1.0" encoding="UTF-8"?>
<svg id="Layer_1" xmlns="http://www.w3.org/2000/svg" version="1.1" viewBox="0 0 100 100">
  <!-- Generator: Adobe Illustrator 29.5.0, SVG Export Plug-In . SVG Version: 2.1.0 Build 137)  -->
  <polygon points="23.92 87.77 18.12 22.69 81.88 22.69 76.07 87.76 49.96 95 23.92 87.77" style="fill: #e44d26;"/>
  <polygon points="50 89.47 71.1 83.62 76.06 28.01 50 28.01 50 89.47" style="fill: #f16529;"/>
  <polygon points="50 52.15 39.44 52.15 38.71 43.97 50 43.97 50 35.99 49.97 35.99 29.98 35.99 30.18 38.13 32.14 60.13 50 60.13 50 52.15" style="fill: #ebebeb;"/>
  <polygon points="50 72.88 49.96 72.89 41.08 70.49 40.51 64.12 36.19 64.12 32.49 64.12 33.61 76.65 49.96 81.19 50 81.18 50 72.88" style="fill: #ebebeb;"/>
  <path d="M24.05,5h4.06v4.01h3.71v-4.01h4.06v12.14h-4.06v-4.06h-3.71v4.06h-4.06V5h0Z" style="fill: #fff;"/>
  <path d="M41.21,9.03h-3.57v-4.03h11.2v4.03h-3.57v8.11h-4.06v-8.11h0Z" style="fill: #fff;"/>
  <path d="M50.62,5h4.23l2.6,4.26,2.6-4.26h4.23v12.14h-4.04v-6.02l-2.79,4.32h-.07l-2.79-4.32v6.02h-3.97V5h0Z" style="fill: #fff;"/>
  <path d="M66.3,5h4.06v8.12h5.7v4.01h-9.76V5h0Z" style="fill: #fff;"/>
  <polygon points="49.97 52.15 49.97 60.13 59.8 60.13 58.88 70.48 49.97 72.88 49.97 81.19 66.34 76.65 66.46 75.31 68.33 54.29 68.53 52.15 66.38 52.15 49.97 52.15" style="fill: #fff;"/>
  <polygon points="49.97 35.99 49.97 40.95 49.97 43.95 49.97 43.97 69.23 43.97 69.23 43.97 69.25 43.97 69.41 42.18 69.78 38.13 69.97 35.99 49.97 35.99" style="fill: #fff;"/>
</svg>