<?xml version="1.0" encoding="UTF-8"?>
<svg id="Layer_1" xmlns="http://www.w3.org/2000/svg" version="1.1" viewBox="0 0 100 100">
  <!-- Generator: Adobe Illustrator 29.5.0, SVG Export Plug-In . SVG Version: 2.1.0 Build 137)  -->
  <rect x="5" y="5" width="90" height="90" style="fill: #f7df1e;"/>
  <path d="M65.46,75.31c1.81,2.96,4.17,5.14,8.34,5.14,3.5,0,5.74-1.75,5.74-4.17,0-2.9-2.3-3.93-6.16-5.61l-2.11-.91c-6.1-2.6-10.16-5.86-10.16-12.74,0-6.34,4.83-11.17,12.39-11.17,5.38,0,9.24,1.87,12.03,6.77l-6.59,4.23c-1.45-2.6-3.01-3.62-5.44-3.62s-4.05,1.57-4.05,3.62c0,2.54,1.57,3.56,5.2,5.14l2.11.91c7.19,3.08,11.24,6.22,11.24,13.29,0,7.61-5.98,11.79-14.01,11.79s-12.93-3.74-15.41-8.65l6.87-3.99h0ZM35.58,76.05c1.33,2.36,2.54,4.35,5.44,4.35s4.53-1.09,4.53-5.31v-28.76h8.46v28.87c0,8.76-5.13,12.74-12.63,12.74-6.77,0-10.69-3.5-12.69-7.73l6.88-4.17h0Z"/>
</svg>