<?xml version="1.0" encoding="UTF-8"?>
<svg id="Layer_1" xmlns="http://www.w3.org/2000/svg" version="1.1" viewBox="0 0 100 100">
  <!-- Generator: Adobe Illustrator 29.5.0, SVG Export Plug-In . SVG Version: 2.1.0 Build 137)  -->
  <path d="M84.61,41.98c-.91.28-1.15-.3-1.92-.51-.27-.08-1.01-.2-1.28-.2-.49,0-1.75.34-2.13.66s-1.53,2.32-1.91,2.9c-1.72,2.61-2.91,4.6-3.4,7.8-.38,2.45-.14,5.96-2.56,7.52-.73.47-1.04.36-1.74.51-.29.06-.44.33-.89.31-1.05-.05-2.16-1.78-1.25-2.65.21-.2.65-.12.97-.37.34-.27.95-1.42,1.12-1.85,1.21-3.19.18-5.88-3.62-5.45-.86.1-1.75.67-2.56.82-2.27.43-5.55-.25-7.35,1.67-2.46,2.62-4.34,5.85-7.05,8.42s-6.89,5.51-10.08,7.59c-1.2.78-3.04,1.99-4.27,2.61-.33.17-1.28.37-1.32.42-.33.47-.34,1.84-.34,2.42-.02,3.65,1.2,6.98,1.66,10.55-1.17.12-2.74-.37-3.5-1.3-.88-1.07-1.03-3.39-1.39-4.77-.56-2.12-2.47-6.59-2.34-8.45.02-.22.12-.8.2-.98.11-.25.42-.17.63-.26.73-.33,1.42-.7,2.13-1.07,1.74-.9,2.85-1.68,4.39-2.85.37-.28.88-.52,1.31-.89,3.76-3.26,4.96-9.33,4.39-14.12-.09-.74-.88-1.51-1.62-1.59-2.18-.24-5.62,2.54-7.48,3.65-.94.56-1.93,1.03-2.88,1.56-1.56.87-3.16,1.79-4.74,2.61-.66.34-1.36.75-2.02,1.07-2.9,1.4-6.55,2.83-9.72,1.6-2.37-.92-5.55-4.53-6.01-7.03-.38-2.06-.18-4.51.97-6.31.4,1.57.58,3.11,1.39,4.54,1.64,2.9,5.88,5.26,9.23,4.65.87-.16,1.43-.74,2.13-1.13,1.6-.9,2.67-1.66,4.15-2.73,1.25-.9,2.35-1.8,3.56-2.73,8.07-6.16,15.95-14.16,26.74-14.7,2.63-.13,5.8,0,8.3.82,3.92,1.28,8.96,6.42,12.03.95.75-1.33,1.29-2.69,1.66-4.15,0-.03.17-.15.21-.32.22-1.04-.29-1.27-.42-2.14-.11-.73.05-1.79.51-2.39.05-.06.6-.58.64-.6.34-.17,1.5-.15,1.9-.07,2.03.43,1.96,3.94,2.5,5.45.79,2.22,3,4.39,4.04,6.39.54,1.05.29,3.73-.97,4.12ZM79.12,27.31c-.53-.51-2.16.07-2.11,1.09.07,1.5,1.55,3.33.41,4.68-.22.26-.47.29-.67.63-.8,1.38-1.25,3.67-1.93,5.18-.6,1.34-1.11.38-2.14.25-2.31-.3-3.82-.39-6.12-1.11-2.46-.77-4.6-2.09-6.94-2.9-3.55-1.23-9.88-.2-13.19,1.57-9.16,4.9-16.41,12.74-24.98,18.54-2.11,1.43-3.94,1.78-6.48,1.43-3.9-.54-7.76-4.78-7.9-8.76-.21-.03-.11.27-.12.41-.21,5.1,2.68,9.49,8.01,9.9,3.43.26,9.25-3.25,12.39-4.92,2.5-1.33,8.35-5.17,10.84-5.29,1.9-.09,4.08,1.3,4.32,3.28.98,8.18-4.56,14.55-11.1,18.52-.38.23-2.45,1.24-2.51,1.41-.27.79.86,2.68,1.11,3.6.2.77.18,1.46.32,2.17.12.6.62,1.37.84,2.01.4,1.21.43,3.18,1.1,4.12.29.41,1.11,1.02,1.33.28.19-.62-.71-3.2-.89-4.04-.39-1.85-.62-3.76-.52-5.66.02-.38.11-1.53.21-1.8.31-.77,2.96-1.58,3.81-2,3.44-1.7,6.11-4.97,9.02-7.46,3.45-2.94,6.32-4.04,7.74-8.74.69-2.31.81-4.43-.03-6.73.92.21,1.95,1.16,2.11,2.1.1.61-.1,1.22.28,1.79,3.09.38,6.36.46,9.19-1.03.73-.38,3.33-2.37,4.07-1.98.4.21,1.9,3.14,2.11,3.71.72,2,.83,5-.86,6.56-.31.28-1.37.76-1.34,1.12.05.57.97.29,1.3.15,1.59-.7,3.06-3.14,3.38-4.8.39-2.04-.18-4.04-.09-6.02.01-.23.06-.48.13-.7.28-.84,2.31-2.48,3.01-3.4.86-1.13,2.04-3.73,3.39-4.19s3.5.42,4.85.52c.15-.13.17-1.98.1-2.27-.02-.07-.8-1.21-.87-1.27-.19-.17-.46-.16-.64-.31-.37-.3-1.59-1.45-1.72-1.84-.21-.6.11-1.03,0-1.54-.14-.68-.99-.82-1.12-1.26-.2-.7-.14-1.93-.32-2.77-.08-.4-.57-2-.8-2.22Z" style="fill: #060504;"/>
  <path d="M77.13,26.09s-.6.54-.64.6c-.46.6-.62,1.66-.51,2.39.13.87.63,1.1.42,2.14-.04.17-.2.29-.21.32-1.89-2.41-3.84-4.6-6.29-6.45-12.13-9.16-29.32-7.31-39.3,4.08-5.15,5.88-7.56,13.61-6.93,21.4.02.25.07.58.24.77-1.48,1.06-2.55,1.83-4.15,2.73-.11-.8-.16-1.62-.25-2.42-2.67-23.67,19.93-42.33,42.79-35.32,4.71,1.44,11.5,5.36,14.62,9.22.14.18.28.27.23.54Z" style="fill: #e3f8fb;"/>
  <path d="M84.61,41.98c1.33,7.51.21,15.09-3.42,21.78-8.42,15.52-27.93,21.57-43.74,13.46-1.53-.79-2.9-1.84-4.43-2.63,0-.58.01-1.95.34-2.42.04-.06.99-.26,1.32-.42.6.69,1.55,1.28,2.34,1.76,20.84,12.57,46.86-3.84,45.1-27.78l-.71-4.45c.27,0,1.01.12,1.28.2.77.21,1.01.79,1.92.51Z" style="fill: #e3f8fb;"/>
  <path d="M23.77,56.68c1.41,4.29,3.62,8.25,6.64,11.62-.71.37-1.4.73-2.13,1.07-.57-.96-1.35-1.78-1.99-2.69-1.96-2.79-3.37-5.73-4.53-8.93.65-.32,1.35-.72,2.02-1.07Z" style="fill: #e3f8fb;"/>
  <path d="M79.12,27.31c.23.22.72,1.82.8,2.22.18.84.12,2.07.32,2.77.13.44.98.58,1.12,1.26.1.51-.21.94,0,1.54.13.39,1.35,1.54,1.72,1.84.18.15.45.14.64.31.07.06.85,1.19.87,1.27.07.29.05,2.14-.1,2.27-1.35-.09-3.55-.96-4.85-.52s-2.54,3.07-3.39,4.19c-.7.92-2.73,2.55-3.01,3.4-.07.22-.12.47-.13.7-.09,1.98.48,3.98.09,6.02-.32,1.67-1.78,4.11-3.38,4.8-.34.15-1.26.43-1.3-.15-.03-.36,1.03-.84,1.34-1.12,1.69-1.56,1.58-4.56.86-6.56-.21-.57-1.71-3.5-2.11-3.71-.73-.39-3.34,1.6-4.07,1.98-2.83,1.49-6.1,1.41-9.19,1.03-.39-.57-.18-1.18-.28-1.79-.16-.94-1.19-1.89-2.11-2.1.84,2.3.72,4.42.03,6.73-1.42,4.7-4.29,5.8-7.74,8.74-2.92,2.49-5.59,5.76-9.02,7.46-.84.42-3.5,1.23-3.81,2-.11.27-.19,1.42-.21,1.8-.1,1.9.13,3.81.52,5.66.18.84,1.07,3.42.89,4.04-.22.74-1.04.13-1.33-.28-.67-.93-.7-2.9-1.1-4.12-.21-.64-.72-1.41-.84-2.01-.14-.71-.12-1.4-.32-2.17-.24-.92-1.38-2.81-1.11-3.6.06-.17,2.13-1.17,2.51-1.41,6.53-3.98,12.07-10.35,11.1-18.52-.24-1.98-2.41-3.37-4.32-3.28-2.5.12-8.34,3.96-10.84,5.29-3.14,1.66-8.96,5.18-12.39,4.92-5.33-.41-8.22-4.8-8.01-9.9,0-.14-.09-.44.12-.41.14,3.98,4,8.22,7.9,8.76,2.54.35,4.37,0,6.48-1.43,8.57-5.8,15.82-13.64,24.98-18.54,3.32-1.77,9.64-2.79,13.19-1.57,2.34.81,4.49,2.13,6.94,2.9,2.31.72,3.81.81,6.12,1.11,1.03.13,1.54,1.09,2.14-.25.68-1.52,1.13-3.8,1.93-5.18.2-.34.45-.37.67-.63,1.14-1.36-.34-3.18-.41-4.68-.05-1.02,1.57-1.6,2.11-1.09Z" style="fill: #fd9833;"/>
  <path d="M74.53,35.69c-3.07,5.47-8.11.33-12.03-.95-2.5-.82-5.67-.96-8.3-.82-10.8.54-18.67,8.55-26.74,14.7-.2-.12-.12-.45-.12-.65-.2-16.31,15.31-28.14,31.07-24.43,6.68,1.57,12.22,5.98,15.74,11.77.1.17.19.32.38.39Z" style="fill: #c8f3f8;"/>
  <path d="M77.37,44.83c.13,1.8.23,3.83.12,5.64-.43,7.57-5.52,15.16-11.87,19.08-7.66,4.72-18.54,5.01-26.19.12-.17-.11-.53-.28-.49-.52,3.19-2.08,7.33-4.99,10.08-7.59,7.63,1.93,15.71-3.13,16.96-10.91,3.8-.43,4.82,2.26,3.62,5.45-.16.43-.78,1.58-1.12,1.85-.32.25-.76.17-.97.37-.91.88.21,2.61,1.25,2.65.45.02.6-.25.89-.31.7-.15,1.02-.04,1.74-.51,2.42-1.56,2.18-5.07,2.56-7.52.49-3.2,1.69-5.19,3.4-7.8Z" style="fill: #c8f3f8;"/>
  <path d="M81.4,41.27l.71,4.45c1.77,23.94-24.26,40.35-45.1,27.78-.79-.48-1.74-1.07-2.34-1.76,1.23-.62,3.07-1.83,4.27-2.61-.04.24.32.41.49.52,7.65,4.9,18.53,4.6,26.19-.12,6.35-3.91,11.45-11.51,11.87-19.08.1-1.81,0-3.84-.12-5.64.38-.58,1.54-2.58,1.91-2.9s1.63-.66,2.13-.66Z" style="fill: #d3f5f9;"/>
  <path d="M76.19,31.54c-.37,1.46-.91,2.82-1.66,4.15-.19-.08-.28-.22-.38-.39-3.52-5.78-9.06-10.2-15.74-11.77-15.76-3.71-31.28,8.12-31.07,24.43,0,.2-.08.53.12.65-1.21.92-2.31,1.83-3.56,2.73-.17-.19-.22-.53-.24-.77-.63-7.8,1.78-15.53,6.93-21.4,9.98-11.39,27.17-13.24,39.3-4.08,2.45,1.85,4.41,4.04,6.29,6.45Z" style="fill: #d3f5f9;"/>
  <path d="M34.8,65.46c-2.95-3.27-5.31-7.04-6.28-11.38.95-.53,1.94-1.01,2.88-1.56,1.86-1.1,5.3-3.88,7.48-3.65.74.08,1.53.85,1.62,1.59.57,4.78-.63,10.85-4.39,14.12-.42.37-.93.6-1.31.89Z" style="fill: #c8f3f8;"/>
  <path d="M49.03,61.55c2.71-2.57,4.59-5.8,7.05-8.42,1.8-1.92,5.08-1.23,7.35-1.67.8-.15,1.7-.73,2.56-.82-1.25,7.78-9.33,12.84-16.96,10.91Z" style="fill: #d3f5f9;"/>
  <path d="M34.8,65.46c-1.54,1.17-2.65,1.94-4.39,2.85-3.02-3.37-5.23-7.33-6.64-11.62,1.58-.82,3.18-1.74,4.74-2.61.98,4.35,3.33,8.12,6.28,11.38Z" style="fill: #d3f5f9;"/>
</svg>