<?xml version="1.0" encoding="UTF-8"?>
<svg id="Layer_1" xmlns="http://www.w3.org/2000/svg" version="1.1" viewBox="0 0 100 100">
  <!-- Generator: Adobe Illustrator 29.5.0, SVG Export Plug-In . SVG Version: 2.1.0 Build 137)  -->
  <path d="M56.03,61.12c-1.1,1.38-2.54,2.43-4.2,3.06-1.83.72-3.79,1.07-5.75,1.06-2.1.04-4.2-.37-6.14-1.22-1.68-.74-3.1-1.96-4.08-3.51-.99-1.64-1.48-3.53-1.39-5.44h3.21c-.06,2.33.66,4.18,2.17,5.58s3.6,2.08,6.28,2.08c2.43,0,4.42-.58,5.97-1.77.73-.53,1.33-1.2,1.74-2.01.41-.78.6-1.64.58-2.5,0-1.86-.72-3.26-2.14-4.23-1.42-.95-3.28-1.43-5.54-1.43h-3.21v-2.5h3.02c1.64.03,3.26-.47,4.58-1.43.63-.46,1.14-1.06,1.48-1.76.34-.69.5-1.43.46-2.18.03-.78-.12-1.55-.46-2.26-.34-.72-.83-1.36-1.45-1.86-1.26-1.02-2.93-1.55-5.02-1.55-2.56,0-4.41.66-5.52,1.99-1.11,1.33-1.74,3-1.87,4.99h-3.26c.16-3.02,1.16-5.34,3-6.98,1.84-1.66,4.39-2.47,7.66-2.47,2.97,0,5.4.7,7.27,2.12,1.87,1.42,2.81,3.37,2.81,5.84.03,1.54-.57,3.03-1.7,4.16-1.1,1.13-2.54,1.87-4.1,2.12v.39c1.92.13,3.72.9,5.1,2.12,1.38,1.24,2.06,2.88,2.06,4.92.03,1.7-.53,3.35-1.57,4.68h.03-.02ZM74.69,35.3c3.09,0,5.77.58,8.06,1.76,2.3,1.16,4.16,2.91,5.36,5.06,1.26,2.21,1.89,4.83,1.89,7.86s-.63,5.66-1.89,7.89c-1.18,2.15-3.06,3.92-5.36,5.1-2.3,1.16-4.99,1.74-8.06,1.74h-11.03v-29.41h11.03ZM83.43,59.04c2.18-2.1,3.26-5.1,3.26-9.07s-1.08-6.97-3.23-9.04c-2.17-2.08-5.28-3.12-9.38-3.12h-7.29v24.37h7.24c4.1,0,7.23-1.06,9.41-3.13h-.02,0ZM32.95,64.69h-3.06c0-6.02-1.11-9.07-3.5-11.09-2.52-2.12-6.04-2.97-13.25-2.52v13.59h-3.14v-29.36h3.12v13.21c12.85-1.45,15.98-12.74,16.13-13.23l2.96.74c-1.16,3.6-3.28,6.86-6.16,9.5-1.26,1.13-3.88,2.84-6.54,3.3v.44c4.76,0,7.3,1.04,8.98,2.46,3.09,2.59,4.45,5.86,4.45,12.98l.02-.02h0Z" style="fill: #fe0049;"/>
</svg>