<?xml version="1.0" encoding="UTF-8"?>
<svg id="Layer_1" xmlns="http://www.w3.org/2000/svg" version="1.1" xmlns:xlink="http://www.w3.org/1999/xlink" viewBox="0 0 100 100">
  <!-- Generator: Adobe Illustrator 29.5.0, SVG Export Plug-In . SVG Version: 2.1.0 Build 137)  -->
  <defs>
    <linearGradient id="linear-gradient" x1="-1232.92" y1="-323.76" x2="-1232.41" y2="-323.76" gradientTransform="translate(-135953.1 -114045.14) rotate(-125.29) scale(139.29 -139.29)" gradientUnits="userSpaceOnUse">
      <stop offset="0" stop-color="#006ead"/>
      <stop offset=".05" stop-color="#0074b8"/>
      <stop offset=".17" stop-color="#0083d2"/>
      <stop offset=".31" stop-color="#008ee6"/>
      <stop offset=".47" stop-color="#0096f4"/>
      <stop offset=".66" stop-color="#009bfc"/>
      <stop offset="1" stop-color="#009dff"/>
    </linearGradient>
  </defs>
  <circle cx="50.2" cy="50" r="35.57" style="fill: url(#linear-gradient);"/>
  <path d="M47.26,71.11c-1.7,0-3.33-.62-4.6-1.75l-10.7-9.55c-1.79-1.59-2.63-4.05-2.2-6.41l2.66-14.4c.45-2.45,2.2-4.47,4.56-5.28l13.71-4.86c.75-.26,1.51-.39,2.27-.39,1.68,0,3.31.61,4.56,1.72l11.09,9.99c1.85,1.63,2.7,4.18,2.16,6.62l-3.09,14.39c-.51,2.37-2.25,4.32-4.55,5.09l-13.68,4.47c-.69.23-1.43.35-2.19.35h0Z"/>
  <path d="M50.2,10c-22.09,0-40,17.91-40,40s17.91,40,40,40,40-17.91,40-40S72.29,10,50.2,10ZM38.71,16.12c3-1.24,16.9-4.36,29.1,2.62.83.47,1.34,1.12,1.36,2.29.06,2.87.21,8.72-.16,15.61-.02.47-.6.71-.99.44,0,0-11.76-12.31-29.32-20.31-.29-.13-.29-.54,0-.66h0ZM68.27,46.27l-3.09,14.39c-.32,1.5-1.41,2.72-2.87,3.21l-13.66,4.46c-1.48.5-3.12.17-4.29-.88l-10.7-9.55c-1.13-1.01-1.66-2.54-1.38-4.04l2.66-14.4c.28-1.55,1.38-2.82,2.87-3.33l13.73-4.87c1.48-.51,3.11-.19,4.29.85l11.07,9.96c1.18,1.04,1.71,2.64,1.38,4.19h0ZM31.71,19.26c.81-.52,1.55-.4,2.67-.05,0,0,6.52,2.28,13.66,7.73.38.29.32.87-.1,1.08,0,0-16.35,4.19-31.99,15.48-.26.19-.61-.02-.57-.33.41-3.22,2.94-15.39,16.33-23.91,0,0,0,0,0,0ZM27.39,76.65c.03.31-.32.52-.57.33-2.58-1.96-11.65-10.85-12.31-26.7-.04-.96.56-1.48,1.42-2.28,0,0,5.6-4.43,13.41-7.88.43-.19.92.15.89.63-.1.64-4.85,17.26-2.82,35.9ZM61.64,83.47c-2.99,1.24-16.85,4.38-29.03-2.58-.83-.47-1.34-1.12-1.37-2.29-.07-2.87-.24-8.7.12-15.58.02-.47.6-.71.98-.44,0,0,11.77,12.27,29.3,20.23.29.13.29.54,0,.66h0ZM68.46,80.5c-.81.51-1.55.39-2.67.03,0,0-6.5-2.31-13.62-7.8-.38-.29-.32-.87.1-1.08,0,0,16.37-4.1,32.06-15.32.26-.19.61.02.57.34-.43,3.22-3.02,15.37-16.45,23.83ZM84.34,51.9s-5.63,4.36-13.46,7.74c-.43.19-.91-.16-.88-.64,0,0,4.92-16.64,3.15-35.82-.03-.31.32-.52.58-.32,2.56,1.99,11.53,10.94,12.05,26.78.03.96-.56,1.47-1.44,2.26h0Z" style="fill: #ededed;"/>
</svg>