<?xml version="1.0" encoding="UTF-8"?>
<svg id="Layer_1" xmlns="http://www.w3.org/2000/svg" version="1.1" viewBox="0 0 100 100">
  <!-- Generator: Adobe Illustrator 29.5.0, SVG Export Plug-In . SVG Version: 2.1.0 Build 137)  -->
  <path d="M93.72,99.88v.12h-.48c.08-.18.32-.11.48-.12ZM43.66,99.88v.12h-.36c.05-.16.23-.11.36-.12Z" style="fill: #9c9c9c;"/>
  <path d="M52.85,25.69c-.4-.08-.6-.66-.45-1.03.36-.86,2.45-.39,3.24-.51.07-2.25.64-4.55,1.52-6.61.37-.85.95-1.66,1.2-2.53-4.55-2.09.25-7.82,3.15-3.69l.78-.66c.05-.33-.46-.59-.62-.92-1.09-2.08,1.08-4.31,3.22-3.22.71.36.85.87,1.27,1.46,2.52-1.16,5.2-1.91,8-2.01.18-.8-.52-3.64.76-3.56s.64,2.73.78,3.56c.81-.06,2.05.4,2.78.35.33-.02,1.38-.52,1.85-.65,3.68-.96,13.5-.53,16.01,2.73,1.75,2.29,0,5.51-2.09,6.92-.75.5-1.51.73-2.29,1.16,1.12,2.4,1.91,4.98,2.01,7.65.84.14,3.36-.47,3.41.79s-2.67.6-3.41.75c0,2.29-.52,4.65-1.37,6.76-.47,1.18-1.5,2.51-1.49,3.75s.18,2.8.42,3.98c.19.96.57,1.89.78,2.85-1.29-.47-2.62-.88-3.99-1.05-.98-.12-2.95-.3-3.87-.11-.47.1-1.38.72-1.91.95-1.43.59-3.04,1.1-4.56,1.37-.37.06-2.19.17-2.26.29-.11.85.44,3.58-1.2,2.89-.67-.29-.23-2.25-.37-2.9-2.08-.15-4.11-.53-6.09-1.2-1.28,3.3-5.57,5.27-8.55,2.86-3.15-2.54-5.77-11.95-4.42-15.7.15-.43.76-1.23.8-1.45.16-.82-.48-2.32-.24-3.26-.8-.12-2.05.16-2.79,0h0ZM83.02,5.89c-.98.04-4,.48-4.24,1.69-.27,1.39,1.02,3.69,1.95,4.69,2.86,3.08,11.61,5.8,13.81.87,2.79-6.27-7.53-7.41-11.51-7.25h0ZM76.17,9.06c-9.77-1.05-18.4,7.55-17.56,17.33,0,0,17.56-17.33,17.56-17.33ZM78.74,12.87l-16.46,16.43c1.1.65,2.04,1.5,2.91,2.42,5.01-4.71,9.78-9.68,14.71-14.48.28-.28,2.14-1.8,2.08-2.07-.7-.44-1.43-.85-2.07-1.37-.29-.23-.84-1.02-1.17-.94h0ZM68.47,40.15c.18.07.36.19.52.03l20.82-20.48c.22-.38-.31-1.43-.53-1.85-.76-1.41-.83-.96-2.37-1.15l-19.18,18.9c-.25.42.24,1.39.35,1.92.18.87.34,1.75.39,2.64h0ZM74.26,41.47c3.24-.01,6.24-.75,9.01-2.44,4.87-3,7.88-8.42,7.72-14.18l-16.73,16.62ZM57.38,29.74c-.76.26-.83,3.03-.79,3.72.18,2.83,2.42,10.81,5.09,12.12,1.83.9,3.78-.79,4.5-2.4,2.03-4.49-1.97-11.45-6.36-13.07-.61-.23-1.84-.57-2.44-.37h0Z" style="fill: #020201;"/>
  <path d="M35.24,29.6c-.08.1-.08.17-.12.24-.02.04-.1.07-.12.12-1.25,1.25-3.18.19-2.75-1.39.51-1.84,3.33-1.39,2.98,1.03Z" style="fill: #030101;"/>
  <path d="M25.51,5.62c4.56.14,8.95,2.03,12.3,5.09.91-.16,1.69-2.27,2.71-1.66,1.3.78-1.63,2.3-1.47,2.89.05.19,1.64,2.11,1.93,2.59,1.79,2.86,2.92,6.34,2.91,9.72.81.12,3.4-.48,3.32.88-.07,1.13-2.55.5-3.32.66-.32,9.72-8.65,18.02-18.39,18.17-.2.86.56,3.57-.77,3.57s-.57-2.72-.77-3.57c-3.38-.03-6.9-1.19-9.72-3.04-.41-.27-2.2-1.78-2.35-1.82-.16-.04-.22.02-.34.1-.69.47-1.86,2.57-2.73,1.79-1.09-.99,2-2.45,1.83-3.12-.02-.08-.94-1.06-1.1-1.28-2.35-3.16-3.84-6.8-3.98-10.79-.69-.13-2.97.32-3.26-.36-.73-1.71,2.39-1.07,3.26-1.18.02-3.36,1.08-6.72,2.85-9.56-4.26-1.57-.74-7.4,2.56-4.46.64.57.44.99,1.23-.16-2.86-3.12,2.17-6.32,3.87-2.45,2.46-1.18,5.14-1.94,7.88-2.01.1-.72-.34-2.81.56-3.07,1.47-.43.87,2.33.98,3.07,0,0,0,0,0,0ZM24.21,8.59c-3.69.13-7.33,1.52-10.08,3.98.21.15.98,1.09,1.12,1.1.09,0,.6-.39.81-.47,2.69-1.11,5.88.51,5.54,3.65-.1.94-.64,1.53-1.18,2.24l3.79,3.76v-14.25s0,0,0,0ZM25.16,8.59v4.87c.24-.15.28-.51.48-.77,2.01-2.56,5.75.27,3.91,2.73-.89,1.19-2.85,1.25-3.79.12-.25-.3-.31-.67-.59-.89v9.14c.21.05.24-.08.36-.18.36-.28,2.44-2.21,2.61-2.49.23-.38.18-.88.37-1.3.43-.99,1.47-1.29,2.42-1.49.48-.75,5.21-4.79,5.15-5.15-.02-.15-.58-.57-.76-.56-.05,0-.36.66-.77.79-1.29.4-2.42-.51-2.09-1.86.08-.34.4-.56.42-.65.05-.24-1.2-.79-1.45-.9-1.94-.88-4.11-1.39-6.25-1.41h0s0,0,0,0ZM23.38,24.38l-.18-.36-4.1-4.22c-.57-.03-1.12.11-1.72.06-1.97-.15-3.55-1.85-3.37-3.86.03-.35.3-.88.22-1.16-.04-.17-1.05-1.18-1.34-1.16-2.62,2.93-4.32,6.71-4.34,10.69h1.9c.68-3.92,6.01-4.93,8.12-1.53.32.51.42,1.03.72,1.53h4.09ZM40.93,24.38c-.01-3.73-1.52-7.64-4.11-10.32l-4.9,4.68c3.14,2.14-.58,6.15-3.09,3.56-.13-.14-.05-.37-.29-.29-.57.68-1.49,1.33-2.02,2.01-.09.12-.23.15-.18.36h8.66c0-.43-.35-.67-.36-1.13-.05-1.67,2.26-2.21,2.91-.77.38.84.03,1.13-.18,1.9h3.56ZM10.33,25.33h-1.78c-.06,2.32.75,4.51,1.54,6.65.34,0,.45-.36.75-.5,2.18-1.08,3.3,2.46.92,2.93,0,.23,1.02,1.48,1.25,1.48l10.73-10.57h-4.51c-.32,5.76-8.55,5.78-8.9,0h0ZM35.24,29.6c1.26-1.53,3.69-1.61,5.1-.24.35-1.31.63-2.67.59-4.04h-14.36l10.04,10.44c.21.04,1.08-1.11.99-1.18-2.38-.11-3.51-2.53-2.61-4.63.04-.04.09-.07.12-.12.05-.09.09-.07.12-.24h0ZM28.6,40.52c2.02-.34,4.04-1.36,5.68-2.56.22-.16,1.35-.97,1.31-1.16l-10.43-10.52c-.18.83.77.87,1.29,1.38,1.22,1.18,1.22,3.3,0,4.48-.38.37-.9.51-1.27.86-.06,1.48-.02,2.96.1,4.43,1.94-.32,3.96.95,3.32,3.08h0ZM21.01,29.6l-4.86,4.69c1.44,0,2.3,1.73,1.19,2.74s-2.61.12-2.62-1.25c-.25.16-.95.59-.95.89,0,.22,1.24,1.15,1.51,1.34,2.1,1.52,4.58,2.5,7.16,2.87-.32-1.06.13-1.98.95-2.67.19-.16.94-.56.96-.61.1-.43-.11-.97-.13-1.4-.03-1.02.02-2.06,0-3.08-1.92-.22-3.27-1.51-3.21-3.51h0Z" style="fill: #030101;"/>
  <path d="M79.6,56.43c2.33.58,4.42,1.82,6.36,3.19.33.03,2.78-2,3.33-2.1.66-.12,1.02.48.84,1.08-.13.44-2.43,1.68-2.93,2,.59,1.21-.02,2.63-1.48,2.47-.68-.07-.79-.72-1.38-.53l-6.24,4.08c-.48.29-1.01.49-1.58.5l.12.18,11.9-1.12c.38-.89,1.31-1.2,2.18-.74.22.11.45.45.58.47.52.1,2.27-.3,2.95-.33.4-.02,1.11-.08,1.43.11.47.28.34,1.08-.15,1.28-.39.15-3.59.27-3.59.45.84,2.21,1.45,4.56,1.43,6.94.77.1,4.37-.51,3.59,1.16-.35.75-2.84.26-3.59.27.36,1.71-1.81,2.86-2.78,1.3-.3-.48-.04-1.29-.38-1.4-.51-.17-2.68,0-3.43,0-1.75-.05-3.99-.03-5.69-.24-.52-.06-3.48-.96-3.62-.83l1.73,3.32c1.12,1,2.16,2.4,3.31,3.34.94.77,2.42,1.2,3.5,1.84,2.4,1.42,4.85,4.94,5.7,7.6.16.51.59,1.52,0,1.79-.41.18-2.11-.51-2.6-.72-2.44-1.04-5.25-3.08-6.59-5.39-.54-.94-.92-2.29-1.54-3.09-.95-1.23-2.6-2.4-3.63-3.61l-3.31-1.73.83,4.1.24,9.08c2.62-.55,2.85,3.1.12,2.97,0,.65-.02,1.31,0,1.96,0,.45.25.72.03,1.21-.24.55-1.09.71-1.37.12-.23-.5-.09-3.18-.21-3.3-1.31-.03-2.66-.21-3.94-.51-.89-.21-2.11-.81-2.89-.91-.24-.03-.15,0-.17.17-.12.94-.03,2.42-.29,3.28-.24.8-1.27.73-1.49-.07l.36-3.92c.02-.4-.44-.53-.55-.88-.26-.84.02-1.58.78-1.99.4-3.87.84-7.78,1.06-11.67l-4.73,7.57c-.07.3.33.49.48.78.49.92-.13,2.11-1.16,2.22-.4.04-.94-.27-1.11-.18s-1.3,2.05-1.61,2.43c-.72.86-1.68.5-1.45-.5.15-.68,2.06-2.75,1.97-3.33-.03-.19-1.27-1.9-1.5-2.31-.72-1.28-1.27-2.66-1.69-4.07-.12-.09-1.6,2.04-2.13,2.21s-1.1-.51-.9-1.02l2.5-2.85c-.02-1.34.51-2.18,1.93-2.16l7.09-8.16c.19-1.14-.58-.13-1.1.09-2.52,1.07-5-1.49-3.89-4.01.57-1.31,2.04-1.82,3.38-1.66-.09-.76.06-1.31.53-1.91,2.1-2.7,6.22.21,4.27,3.2-.3.46-1.06.71.1.94l7.98-6.98c.42-1.04.32-1.7,1.59-1.98.21-.04.4.07.59,0,.56-.17,2.1-2.04,2.79-2.44.39-.22.89-.2,1.12.2.63,1.08-1.73,1.88-2,2.78h.02,0ZM80.07,59.64c-.1-.11-2.48-.69-2.84-.72l2.43,2.01c.25.04.14-.03.19-.16.06-.17.29-1.06.22-1.14h0ZM76.15,62.74c-.48-.28-1.72,2.03-1.89,1.11-.06-.37,1.26-1.34,1.3-1.56.04-.26-.64-.56-.58-.81.4-.56.72.34.99.29.25-.04,1.25-1.51,1.61-1.72.03-.16-.95-.87-1.12-.88-.33,0-3.79,3.17-4.2,3.72.49.4,2.75,3,3.14,3.04s2.66-.82,2.67-1.13c-.56-.59-1.16-1.14-1.73-1.72-.09-.1-.17-.33-.19-.34h0ZM79.49,63.91c.4-.35,3.75-2.27,3.68-2.55-.05-.2-2.44-1.51-2.61-1.37l-1.07,3.92h0ZM79.58,61.44l-1.57-1.07c-.11.02-1.39,1.4-1.5,1.58-.08.12-.14.17-.1.34.05.2,2,2.26,2.18,2.22.28-.29,1.07-2.93.99-3.07ZM71.62,63.33c-.16.04-1.35,1.11-1.36,1.23l1.51,2.39,2.73-.72c.19-.15.08-.12,0-.24-.17-.26-2.29-2.39-2.54-2.56-.12-.08-.17-.14-.34-.1h0ZM71.18,67.23c.13-.15-1.11-2-1.38-2.25-.14-.03-2.19,1.75-2.19,1.95,0,.16.78.96.91.98.44.08,2.05-.73,2.65-.69h0ZM84.95,70.67c.06.08,1.73.3,2,.32.1-.06.96-1.99,1.01-2.2.18-.72-1.25-.55-1.68-.95l-2.66.24.24,2.85c1.19.15.14-1.32.65-1.54.28-.12.24,0,.31.16.12.31.08,1.08.12,1.13h0ZM66.4,68.08c-.34.08-3.38,3.98-3.95,4.49-.11.19.17.5.35.47.25-.04,1.38-1.53,1.74-1.71.21-.11.23-.02.36.12-.2,1.06-2.66,1.78-1.11,2.78.14.03.19-.1.28-.16.35-.27,2.49-2.41,2.63-2.71.13-.27.57-1.87.56-2.15-.02-.39-.4-1.25-.86-1.13h0ZM83.16,68.18c-.43,0-.89-.06-1.29.13-.15.26.21,1.3.1,1.41-.01.01-.45,0-.47,0-.07-.06-.15-1.21-.13-1.42-1.54.22-2.38-.28-1.67,1.73.6.26,1.84,1.84,2.35,1.93.24.04,1.25-.46,1.32-.65.23-.68-.3-2.34-.22-3.13h0ZM89.55,69.95c.1-.16-.28-1.25-.4-1.41-.57-.72-1.2,1.81-1.48,2.08.26-.03,1.83-.58,1.88-.67h0ZM78.88,68.56c-.13-.08-.52-.03-.64.1-.7,1.07-1.51,2.06-2.22,3.12-.09.13-.53.71-.45.8l4.15.95c-.17-.58-.63-4.83-.85-4.97h0ZM77.59,68.66c-.56.1-1.14.07-1.71.13-.14.01-.65.05-.67.22.7-.23,2.22.53,2.37-.36h0ZM72.73,69.13v2.67c0,.18.97.29,1.19.3l.36-3.02c0-.22-1.35.1-1.54.06h0ZM72.25,69.25c-.72-.01-1.44-.03-2.14.18l2.14,2.2v-2.38ZM76.87,69.49c-.4.13-2.06-.22-2.2,0-.08.12-.39,2.76-.29,2.86l.69-.02c.38-.85,1.27-1.62,1.69-2.4.08-.14.16-.23.11-.42h0ZM68.34,75.19h2.13c.05.14-.05.48-.18.48h-1.96c-.19.57-.1,1.19-.12,1.78.88.02,1.74,0,2.61-.12l.59-4.33c-.03-.35-2.21-2.27-2.61-2.67l-.48,4.87h0ZM89.8,70.44c-.39.15-2.28.74-2.43.95-.33.45-.09,2.09-.3,2.73.52-.15,2.37.37,2.67,0,.08-.1.48-1.44.49-1.62.03-.63-.33-1.44-.44-2.06h0s0,0,0,0ZM80.2,73.17c.22-.13,1.36-.6,1.3-.88-.02-.08-.53-.54-.65-.66-.09-.08-.93-.8-1-.71l.36,2.26h0ZM84.65,74.12c.58.09,1.35-.06,1.96,0l.24-2.61c-.06-.08-1.8-.36-1.95-.35-.13,0-.88.36-.9.43-.05.19.19,2.29.27,2.38.01.01.34.14.39.15h0ZM81.44,74c.73.08,1.57-.05,2.31,0-.18-.6-.08-1.24-.24-1.84-.03-.13.08-.23-.18-.18-.58.11-2.25,1.42-2.9,1.72.3.06.72.27,1.01.3ZM65.49,75.78l.77-3.08-1.95,1.97c-.03.17,1.05,1.24,1.18,1.11h0ZM61.89,73.18c-.08.02-1.03,1.14-1.03,1.24,0,.18,1.18,1.37,1.37,1.37.49-.24.83-.77,1.24-1.13-.45-.26-.92-1.12-1.24-1.38-.12-.09-.18-.14-.34-.1h0ZM72.96,80.65l-1.31-6.17-.83,6.05,2.14.12h0ZM58.61,77.45c.29-.29,1.05.65,1.25.83.25-.32,1.99-1.84,1.95-2.06l-1.36-1.38c-.34.52-2.11,2.12-2.19,2.55-.16.85,1.04,3.93,1.48,4.81l1.13,1.78c.13-.61,1.55-2.02,1.41-2.52-.04-.17-2.09-2.15-2.41-2.46-.22-.21-1.62-1.17-1.25-1.54h0ZM63.79,75.2c-.47.12-2.87,3.06-3.52,3.49.41.27,2.06,2.25,2.32,2.31.17.04.19-.1.27-.19.37-.39,1.73-2.51,1.96-3.02.08-.18.4-1.12.41-1.26,0-.2-1.17-1.4-1.44-1.33h0ZM70.71,77.8c-.85.2-1.73.09-2.6.12l-.36,4.03c.44-.2,1.22-1.22,1.54-1.36.3-.13.99,0,1.06-.07.1-.09.29-2.37.36-2.72ZM70.23,81s-.57,0-.71.06c-.12.05-1.82,1.68-1.87,1.81-.04.1-.14.81-.1.87.12.16,1.97.22,2.32.23-.04-.41.48-2.85.36-2.97h0ZM73.2,81.13l-2.38-.07-.47,3.04c.4-.09.79.09,1.14.11.2,0,.38-.11.57-.1.34.02.73.35,1.13.23.2-1.06.14-2.14,0-3.2h0ZM69.76,84.45l-2.18-.12c-.24.06-.46,4.44-.53,5.04.04.11,1.54.79,1.71.79.15,0,.23-.06.27-.2.15-.51.07-1.38.25-1.93-.04-.06-1.05-.23-1.27-.33-.17-.08-.24-.08-.15-.32.15-.38,1.19.23,1.54.06l.36-2.97h0ZM71.65,84.69l-1.42-.12-.11,1.3,1.42.12.11-1.3h0ZM73.08,84.8c-1.21-.32-.95.32-1.05,1.29,1.15.52.95-.47,1.05-1.29ZM71.17,87.88c.38-1.52.33-1.4-1.18-1.53.03.31-.26,1.05-.1,1.29.05.07,1.17.33,1.28.24h0ZM72.72,86.7s-.67-.02-.83-.12c0,.26-.32,1.44-.23,1.54.03.03.9.17.95.12-.08-.28.25-1.42.12-1.54h0ZM73.55,89.44v-2.43s-.17-.24-.24-.12c-.18.53-.33,1.27-.18,1.85.03.13.27.64.42.71h0ZM69.76,88.13c.04.52-.54,2.08-.03,2.35,1.34.72.99-1.13,1.33-1.92-.06-.23-1.03-.32-1.29-.43h0ZM72.7,88.87c-.08-.06-1.1-.3-1.15-.26l-.36,2.25,2.37.24c.17-.17-.71-2.11-.86-2.23h0Z" style="fill: #020403;"/>
  <path d="M24.21,58.86c-.11-.39-.84-.36-.72-1.54.08-.74.7-1,.72-1.09.17-.71-.4-2.97.44-3.22,1.52-.46,1.03,2.28,1.1,3.06,2.13.01,4.25.52,6.22,1.3.24-.05.72-1.71.93-2.04.22-.36.59-.25.52.16-.08.45-.95,1.79-.73,2.13.09.14,2.46,1.32,2.9,1.61s.95.67,1.37,1c.3.23,1.03,1.02,1.25,1.13.11.06.12.06.24,0,.27-.14,1.62-1.9,1.9-1.61.42.44-1.65,1.69-1.53,2.17.03.12,1.4,1.62,1.63,1.94.73,1,1.32,2.1,1.92,3.19.5.32,2.88-1.73,3.18-.22.23,1.13-1.94,1.25-2.59,1.75-.41.32-.26.99-1.1,1.27s-1.12-.21-1.66-.12l-11.24,4.73h12.4c.08,0,.5-.77,1.42-.72.78.04.9.63,1.31.71.74.14,2.85-.37,3.12.56.41,1.39-2.34.92-3.06.98-.05,2.03-.49,4.03-1.19,5.93.75.36,3.22.77,2.5,1.97-.55.92-2.38-.54-3.06-.64-.27-.04-.45.18-.69.21-1,.14-1.65-.31-1.95-1.24-3.41-1.27-6.93-3.22-10.35-4.36-.19-.06-.35-.13-.56-.09l1.84,1.66,8.07,9.14,1.48,1.9-12.81-11.16,4.41,10.6c.31.46,1.11.39,1.34,1.27.2.75-.23.97-.18,1.47.06.66,1.63,2.79.51,3.13-1.28.39-1.38-1.7-1.89-2.48-1.24.31-2.44.72-3.7.93-.52.08-1.75.06-2.09.17-.16.05-.17.14-.19.28-.14.77.5,3.21-.98,2.77-.84-.25-.25-2.38-.47-3.1-.07-.23-.44-.4-.55-.63-.18-.36-.2-.97-.08-1.36.08-.28.66-.71.66-.77v-12.52l-4.69,11.16c-.18.79.37,1.16,0,2.01s-.96.63-1.2.87-.65,2.05-1.03,2.47c-.47.51-1.38.24-1.34-.52.02-.44,1.04-2.25.91-2.44-1.99-.8-3.69-2.16-5.28-3.56l-1.88,1.65c-.2-.15-.23-.24-.12-.48.13-.28,1.6-1.47,1.6-1.6-1.58-1.69-2.93-3.6-3.81-5.75-.21-.15-1.76.73-2.09.8-.17.03-.47.02-.5-.16-.09-.44,2.22-.99,2.26-1.2-.64-2.06-1.18-4.09-1.31-6.26l-.08-.08c-.8-.13-2.9.48-2.9-.76s2.19-.61,3.03-.77c.63-.12.8-1.12,2.12-.58.39.16.51.57.72.59l13.34-.02.11-.51c-3.82-3.03-7.62-6.17-11.52-9.07-2.59,1.35-5.19-1.93-3.17-4.12,1.62-1.76,4.61-.61,4.6,1.78,0,.39-.36,1.04-.15,1.37l9.14,7.24.41.18-6.78-10.25c-2,.21-3.72-1.51-2.79-3.49,1.11-2.36,4.95-1.32,4.45,1.6-.08.47-.49.75-.39,1.15l7.92,11.85.45.02v-13.36h0s0,.01,0,.01ZM30.84,60.12c-1.66-.63-3.43-1.06-5.21-1.08.03,1.78.17,1.26,1.45,1.45.54.08,3.15.85,3.34.81.07-.02.5-1.08.43-1.19h0ZM31.33,60.35c0,.4-.52.96-.3,1.31.07.11,1.9,1.02,2.29,1.28s.8.57,1.16.86c.2.16.49.57.66.66.3.15.81-.66,1.06-.84-1.35-1.42-3.04-2.54-4.86-3.27,0,0,0,0,0,0ZM30.14,61.77c-1.49-.37-2.94-.9-4.51-.83l.13,4.49c.37.19.79.1,1.18.19.31.07,1.4.48,1.54.37l1.65-4.22h0ZM30.63,62.14l-1.66,4.08,2.76,1.85,3.16-3.14c-.35-.6-3.89-3.04-4.26-2.78h0ZM39.63,68.42c.1-.14-1.13-2.13-1.33-2.41-.33-.47-1.15-1.57-1.57-1.87-.35-.24-1.06.62-1,.88.02.08.96,1.09,1.15,1.35.52.72,1,1.48,1.39,2.3.38.35.94-.24,1.37-.24h0ZM37.84,69.12c.13-.18-.8-1.63-.98-1.91-.21-.31-1.33-1.83-1.57-1.88l-3.13,3.14,1.62,2.3c.48-.31,3.94-1.47,4.07-1.66h0ZM28.24,66.52c-.82-.19-1.61-.58-2.48-.47-.14.76-.26,5.91,0,6.17.2.21.2-.08.25-.17.87-1.69,1.44-3.79,2.24-5.53h0ZM28.72,66.76l-2.24,5.43c-.08.24.25.52.45.57.29.07,3.72-3.74,4.26-4.19.07-.27-.49-.63-.71-.8-.54-.42-1.16-.72-1.77-1.02h0ZM33.1,71.15c.27-.31-1.24-2.28-1.46-2.24l-4.23,4.38,5.69-2.14ZM28.95,76.02s-.35-.3-.24.06c.04.13.16.03.24.06.89.36,1.78.7,2.67,1.07l.18-1.19c-.1-.1-2.4.06-2.85,0ZM12.23,76.02h-3.44c0,1.75.42,3.48,1.02,5.11.31.04,3.07-1.11,3.13-1.27-.27-1.27-.67-2.53-.7-3.84h0ZM17.39,76.02h-4.69c.02.49.5,3.6.89,3.65s3.62-1.68,4.33-1.76c-.19-.32-.34-1.83-.53-1.9ZM21.84,76.02h-3.8l.36,1.66c.9-.5,2.32-.78,3.17-1.28.16-.09.32-.14.27-.38ZM37.14,76.02h-4.75c-.03.36-.39,1.26-.12,1.48l4.21,1.72c.23-.05.79-2.78.66-3.2h0ZM41.17,76.02h-3.56c.07,1.18-.36,2.3-.54,3.45l3.15,1.3c.53-1.53.81-3.13.95-4.75ZM22.17,76.75c-.16-.09-3.38,1.25-3.49,1.41-.15.23.89,1.53,1.08,1.79l2.61-2.49c.15-.11-.15-.66-.2-.69h0ZM23.02,77.8l-.48.17-2.31,2.44c.22.19,1.23,1.01,1.48.83l1.31-3.44ZM18.01,78.41l-4.23,1.84c-.07.33,1.88,3.28,2.21,3.36.13.03.24,0,.34-.1l3.13-3.15c-.21-.24-.47-.51-.64-.78-.15-.24-.58-1.17-.82-1.16h0ZM25.63,79.11v8.25c0,.25,1,.07,1.23.04.25-.03,1.96-.42,1.98-.52l-3.21-7.77h0ZM13.29,80.41c-.44.13-3.13,1.14-3.19,1.38.14.74,2.72,4.76,3.24,4.67.16-.03,2.11-2.08,2.32-2.41-.95-1.09-1.85-2.27-2.37-3.64ZM19.78,80.78c-.38.47-3.22,3-3.27,3.27-.05.32,2.5,2.07,3,2.17l1.83-4.23c0-.28-1.25-1.03-1.56-1.21h0ZM15.99,84.58c-.14.04-1.98,1.87-2.11,2.06-.08.12-.14.17-.1.34.12.45,3.83,3,4.19,2.92.61-.95.92-2.09,1.37-3.13-.7-.41-1.39-.81-2.05-1.27-.28-.2-1.03-.98-1.3-.92h0ZM25.63,88.01v3.44c1.62.01,3.23-.38,4.75-.9-.25-1.12-.92-2.13-1.19-3.26-1.15.4-2.35.62-3.56.71h0Z" style="fill: #030304;"/>
  <path d="M83.02,5.89c3.98-.16,14.31.98,11.51,7.25-2.19,4.93-10.95,2.21-13.81-.87-.93-1-2.23-3.3-1.95-4.69.24-1.21,3.26-1.65,4.24-1.69h0Z" style="fill: #f3b14b;"/>
  <path d="M68.47,40.15c-.04-.89-.2-1.77-.39-2.64-.11-.53-.59-1.5-.35-1.92l19.18-18.9c1.54.19,1.6-.25,2.37,1.15.23.43.76,1.47.53,1.85l-20.82,20.48c-.16.16-.34.04-.52-.03h0ZM57.38,29.74c.61-.21,1.84.14,2.44.37,4.38,1.62,8.39,8.59,6.36,13.07-.72,1.6-2.68,3.29-4.5,2.4-2.67-1.31-4.91-9.29-5.09-12.12-.04-.69.03-3.46.79-3.72h0Z" style="fill: #f3b14b;"/>
  <path d="M76.17,9.06l-17.56,17.33c-.84-9.78,7.78-18.39,17.56-17.33ZM78.74,12.87c.32-.08.88.7,1.17.94.65.52,1.37.93,2.07,1.37.06.27-1.8,1.8-2.08,2.07-4.93,4.8-9.69,9.77-14.71,14.48-.87-.93-1.81-1.78-2.91-2.42l16.46-16.43h0ZM74.26,41.47l16.73-16.62c.16,5.76-2.85,11.18-7.72,14.18-2.76,1.7-5.77,2.43-9.01,2.44Z" style="fill: #f2b14b;"/>
  <path d="M25.16,8.59c2.14.02,4.31.52,6.25,1.41.26.11,1.51.66,1.45.9-.02.09-.34.31-.42.65-.33,1.35.8,2.25,2.09,1.86.42-.13.72-.78.77-.79.17-.01.73.4.76.56.06.36-4.67,4.4-5.15,5.15-.96.2-2,.5-2.42,1.49-.18.42-.13.92-.37,1.3-.17.28-2.25,2.22-2.61,2.49-.12.09-.15.23-.36.18v-9.14c.29.22.35.59.59.89.95,1.14,2.9,1.07,3.79-.12,1.84-2.45-1.91-5.28-3.91-2.73-.2.25-.24.61-.48.77v-4.87h0s0,0,0,0ZM40.93,24.38h-3.56c.21-.77.56-1.06.18-1.9-.65-1.44-2.96-.91-2.91.77.01.46.35.7.36,1.13h-8.66c-.05-.21.08-.24.18-.36.53-.69,1.44-1.33,2.02-2.01.24-.07.16.15.29.29,2.51,2.59,6.23-1.42,3.09-3.56l4.9-4.68c2.58,2.68,4.09,6.59,4.11,10.32h0ZM36.74,15.4c-2.08.06-1.95,3.25.22,3.05,1.93-.17,1.64-3.11-.22-3.05Z" style="fill: #e71b23;"/>
  <path d="M24.21,8.59v14.25l-3.79-3.76c.54-.71,1.08-1.3,1.18-2.24.34-3.13-2.85-4.76-5.54-3.65-.2.08-.72.48-.81.47-.14,0-.92-.95-1.12-1.1,2.75-2.46,6.39-3.84,10.08-3.98,0,0,0,0,0,0ZM28.6,40.52c.64-2.14-1.38-3.4-3.32-3.08-.12-1.47-.16-2.95-.1-4.43.37-.36.89-.49,1.27-.86,1.22-1.19,1.22-3.3,0-4.48-.52-.51-1.47-.55-1.29-1.38l10.43,10.52c.03.19-1.08.99-1.31,1.16-1.64,1.2-3.66,2.23-5.68,2.56h0ZM27.85,32.24c-1.34.28-1.41,2.52-.21,2.88,2.73.84,2.94-3.45.21-2.88ZM23.38,24.38h-4.09c-.3-.49-.41-1.02-.72-1.53-2.11-3.39-7.43-2.39-8.12,1.53h-1.9c.01-3.98,1.72-7.76,4.34-10.69.29-.02,1.29.99,1.34,1.16.07.29-.19.81-.22,1.16-.18,2.01,1.4,3.71,3.37,3.86.6.04,1.14-.1,1.72-.06l4.1,4.22.18.36ZM10.33,25.33c.35,5.78,8.58,5.76,8.9,0h4.51l-10.73,10.57c-.22,0-1.26-1.25-1.25-1.48,2.38-.48,1.27-4.01-.92-2.93-.29.14-.41.49-.75.5-.79-2.13-1.61-4.33-1.54-6.65h1.78ZM21.01,29.6c-.05,2,1.29,3.29,3.21,3.51.01,1.02-.04,2.06,0,3.08,0,.43.23.97.13,1.4-.01.05-.76.45-.96.61-.81.69-1.27,1.61-.95,2.67-2.57-.37-5.06-1.35-7.16-2.87-.27-.19-1.51-1.12-1.51-1.34,0-.3.7-.73.95-.89,0,1.38,1.55,2.23,2.62,1.25s.24-2.75-1.19-2.74l4.86-4.69h0ZM21.28,37.04c1.44,1.41,3.62-.96,2.1-2.28-1.6-1.39-3.5.92-2.1,2.28ZM35.12,29.84c.04-.07.03-.13.12-.24-.02.16-.06.15-.12.24ZM35,29.96s.09-.08.12-.12c-.03.04-.08.08-.12.12Z" style="fill: #e91c23;"/>
  <path d="M35,29.96c-.9,2.09.23,4.52,2.61,4.63.08.07-.78,1.23-.99,1.18l-10.04-10.44h14.36c.04,1.37-.25,2.72-.59,4.04-1.41-1.38-3.83-1.3-5.1.24.35-2.42-2.47-2.87-2.98-1.03-.44,1.57,1.5,2.64,2.75,1.39h0Z" style="fill: #e91c23;"/>
  <path d="M76.15,62.74s.09.24.19.34c.56.58,1.16,1.13,1.73,1.72,0,.31-2.27,1.17-2.67,1.13s-2.64-2.64-3.14-3.04c.42-.55,3.87-3.73,4.2-3.72.18,0,1.16.71,1.12.88-.36.21-1.37,1.68-1.61,1.72-.27.05-.6-.85-.99-.29-.05.25.63.56.58.81-.04.22-1.36,1.19-1.3,1.56.16.92,1.41-1.39,1.89-1.11h0ZM58.61,77.45c-.37.37,1.03,1.33,1.25,1.54.32.31,2.37,2.3,2.41,2.46.14.5-1.28,1.92-1.41,2.52l-1.13-1.78c-.44-.88-1.63-3.95-1.48-4.81.08-.44,1.86-2.03,2.19-2.55l1.36,1.38c.04.22-1.7,1.74-1.95,2.06-.2-.18-.96-1.11-1.25-.83h0ZM68.34,75.19l.48-4.87c.4.41,2.58,2.33,2.61,2.67l-.59,4.33c-.87.13-1.73.14-2.61.12.01-.59-.07-1.21.12-1.78h1.96c.12,0,.23-.34.18-.48h-2.14Z" style="fill: #00a14f;"/>
  <path d="M63.79,75.2c.27-.07,1.44,1.13,1.44,1.33,0,.13-.32,1.08-.41,1.26-.24.51-1.6,2.63-1.96,3.02-.08.09-.1.23-.27.19-.25-.05-1.92-2.04-2.32-2.31.65-.43,3.06-3.36,3.52-3.49h0ZM66.4,68.08c.46-.12.84.75.86,1.13.01.28-.43,1.87-.56,2.15-.14.29-2.28,2.44-2.63,2.71-.09.07-.14.19-.28.16-1.55-1,.91-1.72,1.11-2.78-.13-.14-.15-.23-.36-.12-.36.18-1.49,1.67-1.74,1.71-.19.03-.46-.28-.35-.47.57-.51,3.62-4.41,3.95-4.49h0ZM78.88,68.56c.21.13.68,4.38.85,4.97l-4.15-.95c-.08-.09.36-.67.45-.8.71-1.05,1.53-2.05,2.22-3.12.11-.14.51-.19.64-.1h0ZM69.76,84.45l-.36,2.97c-.35.17-1.4-.44-1.54-.06-.09.24-.02.24.15.32.22.11,1.23.27,1.27.33-.18.55-.1,1.43-.25,1.93-.04.14-.12.2-.27.2-.17,0-1.67-.68-1.71-.79.07-.6.29-4.97.53-5.04l2.18.12h0ZM83.16,68.18c-.08.79.45,2.44.22,3.13-.06.19-1.08.7-1.32.65-.51-.1-1.75-1.67-2.35-1.93-.71-2.01.13-1.51,1.67-1.73-.03.2.06,1.36.13,1.42.02.02.45.02.47,0,.11-.1-.25-1.15-.1-1.41.4-.19.86-.13,1.29-.13h0ZM84.95,70.67s0-.82-.12-1.13c-.07-.17-.03-.28-.31-.16-.51.22.54,1.69-.65,1.54l-.24-2.85,2.66-.24c.43.41,1.86.23,1.68.95-.05.21-.91,2.14-1.01,2.2-.28-.02-1.94-.24-2-.32h0ZM89.8,70.44c.1.63.46,1.44.44,2.06,0,.18-.41,1.52-.49,1.62-.31.37-2.14-.16-2.67,0,.2-.63-.03-2.28.3-2.73.15-.21,2.04-.8,2.43-.95h0s0,0,0,0ZM73.2,81.13c.14,1.06.2,2.14,0,3.2-.41.12-.8-.21-1.13-.23-.19,0-.38.11-.57.1-.35-.02-.74-.2-1.14-.11l.47-3.04,2.38.07h0ZM71.62,63.33c.16-.04.22.02.34.1.26.17,2.38,2.31,2.54,2.56.08.12.19.09,0,.24l-2.73.72-1.51-2.39c0-.12,1.2-1.19,1.36-1.23h0ZM70.71,77.8c-.07.36-.26,2.63-.36,2.72-.06.06-.76-.06-1.06.07-.33.15-1.1,1.17-1.54,1.36l.36-4.03c.87-.03,1.75.07,2.6-.12ZM79.58,61.44c.08.14-.71,2.78-.99,3.07-.18.04-2.13-2.02-2.18-2.22-.04-.16.02-.22.1-.34.12-.18,1.4-1.56,1.5-1.58,0,0,1.57,1.07,1.57,1.07ZM84.65,74.12s-.37-.13-.39-.15c-.08-.09-.32-2.19-.27-2.38.02-.07.77-.42.9-.43.16,0,1.9.27,1.95.35l-.24,2.61c-.61-.06-1.38.09-1.96,0h0ZM72.96,80.65l-2.14-.12.83-6.05,1.31,6.18h0ZM79.49,63.91l1.07-3.92c.17-.15,2.56,1.17,2.61,1.37.07.28-3.27,2.21-3.68,2.55h0ZM71.18,67.23c-.6-.05-2.22.77-2.65.69-.13-.02-.91-.82-.91-.98,0-.21,2.04-1.98,2.19-1.95.27.25,1.51,2.09,1.38,2.25h0ZM70.23,81c.12.12-.4,2.56-.36,2.97-.35,0-2.2-.07-2.32-.23-.04-.06.06-.76.1-.87.05-.13,1.75-1.75,1.87-1.81.14-.06.66-.11.71-.06h0ZM76.87,69.49c.04.19-.04.28-.11.42-.42.78-1.31,1.56-1.69,2.4l-.69.02c-.1-.1.21-2.74.29-2.86.14-.21,1.8.14,2.2,0h0ZM72.7,88.87c.15.12,1.03,2.06.86,2.23l-2.37-.24.36-2.25s1.07.2,1.15.26h0ZM72.73,69.13c.2.04,1.53-.28,1.54-.06l-.36,3.02c-.21,0-1.19-.12-1.19-.3v-2.67h0ZM81.44,74c-.29-.03-.71-.23-1.01-.3.66-.31,2.32-1.62,2.9-1.72.26-.05.14.05.18.18.15.6.06,1.24.24,1.84-.74-.05-1.58.08-2.31,0ZM61.89,73.18c.16-.04.23,0,.34.1.32.25.79,1.11,1.24,1.38-.42.36-.75.9-1.24,1.13-.19,0-1.37-1.19-1.37-1.37,0-.1.96-1.21,1.03-1.24h0ZM69.76,88.13c.26.1,1.23.2,1.29.43-.33.79.01,2.65-1.33,1.92-.5-.27.08-1.83.03-2.35h0ZM72.25,69.25v2.38l-2.14-2.2c.69-.21,1.42-.19,2.14-.18ZM65.49,75.78c-.12.13-1.21-.95-1.18-1.11l1.95-1.97-.77,3.08h0ZM80.07,59.64c.07.08-.16.97-.22,1.14-.05.13.06.2-.19.16l-2.43-2.01c.36.02,2.75.6,2.84.72h0ZM80.2,73.17l-.36-2.26c.07-.08.92.63,1,.71.12.11.63.58.65.66.06.28-1.08.75-1.3.88h0ZM71.65,84.69l-.11,1.3-1.42-.12.11-1.3,1.42.12ZM71.17,87.88c-.1.09-1.23-.17-1.28-.24-.15-.24.13-.98.1-1.29,1.5.13,1.55.01,1.18,1.53h0ZM72.72,86.7c.13.13-.2,1.26-.12,1.54-.04.04-.92-.09-.95-.12-.09-.1.24-1.28.23-1.54.16.1.8.09.83.12h0ZM73.08,84.8c-.11.82.09,1.82-1.05,1.29.1-.97-.15-1.61,1.05-1.29ZM73.55,89.44c-.15-.06-.39-.57-.42-.71-.15-.57,0-1.31.18-1.85.06-.12.24.1.24.12v2.43h0ZM77.59,68.66c-.15.89-1.67.13-2.37.36.01-.17.53-.21.67-.22.56-.06,1.14-.03,1.71-.13h0ZM89.55,69.95c-.05.08-1.62.64-1.88.67.28-.27.91-2.8,1.48-2.08.12.15.5,1.25.4,1.41h0Z" style="fill: #00a14f;"/>
  <path d="M30.63,62.14c.37-.26,3.9,2.18,4.26,2.78l-3.16,3.14-2.76-1.85,1.66-4.08h0ZM13.29,80.41c.52,1.36,1.42,2.54,2.37,3.64-.21.33-2.16,2.38-2.32,2.41-.52.09-3.09-3.93-3.24-4.67.05-.24,2.75-1.24,3.19-1.38ZM37.84,69.12c-.13.18-3.59,1.35-4.07,1.66l-1.62-2.3,3.13-3.14c.25.04,1.37,1.56,1.57,1.88.18.27,1.11,1.72.98,1.91h0ZM30.14,61.77l-1.65,4.22c-.14.1-1.23-.3-1.54-.37-.39-.09-.81,0-1.18-.19l-.13-4.49c1.57-.07,3.02.46,4.51.83h0ZM15.99,84.58c.27-.07,1.02.72,1.3.92.66.46,1.36.87,2.05,1.27-.46,1.03-.76,2.19-1.37,3.13-.35.08-4.07-2.47-4.19-2.92-.04-.16.02-.22.1-.34.13-.19,1.96-2.02,2.11-2.06h0ZM12.23,76.02c.03,1.31.44,2.57.7,3.84-.05.16-2.81,1.32-3.13,1.27-.6-1.63-1.02-3.36-1.02-5.11h3.44ZM18.01,78.41c.24-.01.67.92.82,1.16.17.27.43.54.64.78l-3.13,3.15c-.09.1-.2.14-.34.1-.33-.08-2.28-3.03-2.21-3.36l4.23-1.84h0Z" style="fill: #25a8df;"/>
  <path d="M25.63,88.01c1.21-.09,2.41-.31,3.56-.71.27,1.13.95,2.14,1.19,3.26-1.52.52-3.13.91-4.75.9v-3.44h0ZM25.63,79.11l3.21,7.77c-.01.11-1.73.49-1.98.52-.23.03-1.23.21-1.23-.04v-8.25h0Z" style="fill: #25a6db;"/>
  <path d="M41.17,76.02c-.14,1.61-.42,3.22-.95,4.75l-3.15-1.3c.19-1.14.62-2.27.54-3.45h3.56ZM19.78,80.78c.31.18,1.56.93,1.56,1.21l-1.83,4.23c-.5-.09-3.06-1.85-3-2.17.04-.27,2.89-2.81,3.27-3.27h0ZM17.39,76.02c.19.06.34,1.58.53,1.9-.71.07-3.95,1.82-4.33,1.76s-.87-3.16-.89-3.65c0,0,4.69,0,4.69,0ZM28.72,66.76c.61.3,1.23.6,1.77,1.02.21.16.78.52.71.8-.54.45-3.97,4.26-4.26,4.19-.21-.05-.53-.34-.45-.57l2.24-5.43h0ZM37.14,76.02c.13.43-.42,3.15-.66,3.2l-4.21-1.72c-.27-.22.09-1.13.12-1.48h4.75ZM28.24,66.52c-.81,1.75-1.38,3.83-2.24,5.53-.04.09-.04.38-.25.17-.25-.26-.13-5.4,0-6.17.87-.12,1.67.28,2.48.47h0Z" style="fill: #25a8df;"/>
  <path d="M33.1,71.15l-5.69,2.14,4.23-4.38c.22-.04,1.73,1.93,1.46,2.24ZM31.33,60.35c1.82.72,3.51,1.85,4.86,3.27-.26.17-.77.99-1.06.84-.16-.08-.46-.49-.66-.66-.36-.29-.78-.6-1.16-.86s-2.22-1.17-2.29-1.28c-.22-.35.3-.91.3-1.31h0ZM30.84,60.12c.07.1-.35,1.17-.43,1.19-.18.04-2.8-.73-3.34-.81-1.29-.2-1.42.32-1.45-1.45,1.78.02,3.55.45,5.21,1.08h0ZM39.63,68.42c-.43,0-.98.59-1.37.24-.38-.81-.86-1.57-1.39-2.3-.19-.26-1.13-1.27-1.15-1.35-.06-.25.65-1.11,1-.88.43.3,1.25,1.4,1.57,1.87.2.28,1.43,2.27,1.33,2.41h0ZM22.17,76.75c.05.03.35.58.2.69l-2.61,2.49c-.19-.25-1.23-1.55-1.08-1.79.1-.16,3.33-1.5,3.49-1.41h0ZM23.02,77.8l-1.31,3.44c-.25.18-1.26-.63-1.48-.83l2.31-2.44s.48-.17.48-.17ZM21.84,76.02c.04.24-.11.28-.27.38-.85.5-2.26.78-3.17,1.28l-.36-1.66h3.8ZM28.95,76.02c.45.06,2.75-.1,2.85,0l-.18,1.19c-.89-.37-1.78-.71-2.67-1.07v-.12h0Z" style="fill: #25a6db;"/>
  <path d="M28.95,76.02v.12c-.07-.03-.2.07-.24-.06-.11-.36.22-.06.24-.06h0Z" style="fill: #071115;"/>
  <path d="M36.74,15.4c1.86-.06,2.15,2.88.22,3.05-2.17.19-2.3-2.98-.22-3.05ZM27.85,32.24c2.73-.56,2.52,3.73-.21,2.88-1.19-.37-1.13-2.61.21-2.88ZM21.28,37.04c-1.4-1.36.5-3.66,2.1-2.28s-.65,3.68-2.1,2.28Z" style="fill: #030101;"/>
  <rect x="1.17" y=".84" width="47.63" height="47.63" rx="5.13" ry="5.13" style="fill: none; stroke: #999; stroke-dasharray: 5.86 2.39; stroke-linecap: round; stroke-miterlimit: 10;"/>
  <rect x="51.05" y=".84" width="47.63" height="47.63" rx="5.13" ry="5.13" style="fill: none; stroke: #999; stroke-dasharray: 5.86 2.39; stroke-linecap: round; stroke-miterlimit: 10;"/>
  <rect x="51.05" y="51.02" width="47.63" height="47.63" rx="5.13" ry="5.13" style="fill: none; stroke: #999; stroke-dasharray: 5.86 2.39; stroke-linecap: round; stroke-miterlimit: 10;"/>
  <rect x="1.17" y="51.02" width="47.63" height="47.63" rx="5.13" ry="5.13" style="fill: none; stroke: #999; stroke-dasharray: 5.86 2.39; stroke-linecap: round; stroke-miterlimit: 10;"/>
</svg>