<?xml version="1.0" encoding="UTF-8"?>
<svg id="Layer_1" xmlns="http://www.w3.org/2000/svg" version="1.1" viewBox="0 0 100 100">
  <!-- Generator: Adobe Illustrator 29.5.0, SVG Export Plug-In . SVG Version: 2.1.0 Build 137)  -->
  <path d="M56.93,18.91c-3.36-3.99-6.25-8.03-6.84-8.87-.06-.06-.15-.06-.21,0-.59.84-3.48,4.89-6.84,8.87-28.82,36.76,4.55,61.56,4.55,61.56l.28.19c.25,3.83.87,9.34.87,9.34h2.49s.62-5.48.87-9.34l.28-.21s33.4-24.78,4.57-61.54c0,0-.02,0-.02,0ZM49.98,79.92s-1.5-1.28-1.9-1.93v-.06l1.8-40.03c0-.12.19-.12.19,0l1.8,40.03v.06c-.4.65-1.9,1.93-1.9,1.93h0Z" style="fill: #001e2b;"/>
</svg>