<?xml version="1.0" encoding="UTF-8"?>
<svg id="Layer_1" xmlns="http://www.w3.org/2000/svg" version="1.1" viewBox="0 0 100 100">
  <!-- Generator: Adobe Illustrator 29.5.0, SVG Export Plug-In . SVG Version: 2.1.0 Build 137)  -->
  <g id="Layer_2" style="display: none;">
    <rect x="-80" y="5" width="260" height="90" style="fill: none; stroke: #e8e7e7; stroke-miterlimit: 10; stroke-width: 1.13px;"/>
  </g>
  <g>
    <path d="M57.52,11.45c-3.36-.53-6.9-.71-10.26-.18-1.95.35-3.89,1.24-5.49,2.12-5.49-1.77-11.68-2.83-17.34-1.77-4.07.71-7.96,3.19-10.09,6.9-2.65,4.42-3.19,9.73-2.83,14.87.71,5.66,2.12,11.33,3.72,16.81,1.42,4.78,3.01,9.56,5.66,13.8,1.42,2.3,3.54,4.78,6.37,5.49,2.3.53,4.6-.18,6.37-1.59.88.88,1.95,1.59,3.19,1.95,3.36,1.24,7.08,1.24,10.44-.18.18,4.6,0,9.38,1.77,13.63.71,2.12,1.77,4.07,3.72,5.31,2.12,1.42,4.6,1.59,7.08,1.24,2.12-.35,4.42-1.06,6.19-2.12,1.95-1.24,3.54-3.01,4.42-5.13,2.12-4.78,2.3-9.91,2.48-15.04,4.96.35,10.09-.88,13.8-4.25,1.42-1.24,2.65-3.19,2.12-5.13-.53-1.77-2.48-3.01-4.25-2.83-1.95.18-3.72.71-5.66.71,4.25-7.43,7.61-15.4,9.03-23.71.53-3.54,1.06-7.08,0-10.62-.53-1.95-1.95-3.54-3.36-4.96-3.19-3.19-7.61-5.31-12.03-6.19-5.13-1.06-10.26-.53-15.04.88Z" style="fill: #fff;"/>
    <path d="M57.34,13.57c5.31-1.59,10.97-2.12,16.28-.53,4.25,1.24,8.14,3.72,10.8,7.26,1.06,1.42,1.42,3.36,1.42,5.13.18,3.19-.53,6.37-1.24,9.38-1.95,8.14-5.49,15.75-9.91,22.83,2.48,1.06,5.31.53,7.79.18,1.06-.18,2.48-.53,3.19.53s0,2.3-.71,3.01c-3.72,3.72-9.38,4.6-14.33,3.72-.53,4.42-1.06,8.85-1.77,13.45-.35,2.48-1.24,5.13-3.19,6.72-1.77,1.59-4.25,2.3-6.55,2.65s-5.13.18-6.9-1.59c-1.95-1.77-3.19-4.42-3.36-6.9-.53-4.42-.53-9.03-.53-13.45-2.12,1.77-4.96,2.83-7.79,2.65-1.95-.18-4.25-.53-5.66-1.95-.88-.71-.71-2.12.18-2.83,1.59-1.24,3.72-1.06,5.49-1.77,1.42-.35,2.12-1.77,2.83-2.65-1.59-.18-3.19-.53-4.42-1.24-2.12,2.3-4.25,4.78-6.19,7.08-1.24,1.42-2.83,2.65-4.78,2.3-2.12-.35-3.72-1.95-4.96-3.54-2.3-3.36-3.89-7.26-5.13-11.15-1.95-6.37-3.54-12.74-4.42-19.29-.53-4.96,0-10.26,2.83-14.33,2.3-3.36,6.19-5.13,10.09-5.49,5.31-.53,10.62.53,15.57,2.3,4.07-2.65,9.38-3.19,14.16-2.12.53-.35.88-.18,1.24-.35ZM61.23,14.98c1.06.71,2.12,1.24,3.19,1.95,4.25,2.83,7.61,6.9,9.56,11.5.53,1.42,1.24,2.65,1.06,4.25,0,3.01-1.06,6.02-.71,9.03.35,3.19,1.06,6.55.18,9.73-.18,1.06-.88,2.12-1.24,3.19,0,.18.18.53.18.53.35-.53.71-1.06,1.06-1.59,3.36-5.49,5.84-11.5,7.61-17.7.88-3.36,1.59-6.9,1.59-10.44,0-1.42-.18-3.01-1.06-4.25-1.95-2.48-4.6-4.42-7.61-5.66-4.42-1.42-9.2-1.59-13.8-.53ZM48.84,15.34c-3.36.35-6.55,2.3-8.49,4.96-2.65,3.72-3.89,8.32-4.25,12.74,2.83-1.24,5.84-2.48,9.03-1.77,1.95.53,3.54,2.3,3.89,4.25.88,4.07,1.42,8.14.53,12.21-.71,3.19-2.65,6.02-3.36,9.38.88,0,1.77.18,2.48.53,1.59.88,2.48,2.65,2.3,4.42-.18,4.42-.18,8.85.18,13.27.18,1.77.18,3.72.71,5.49.71,2.12,2.12,4.25,4.42,4.78,2.48.35,4.96-.35,7.26-1.42,2.12-1.06,3.19-3.54,3.54-5.84.71-4.78,1.24-9.56,1.77-14.33.18-1.77-.18-3.54.88-5.13.53-1.06,1.59-1.42,2.48-1.95-.71-1.06-1.59-2.12-2.3-3.19-2.3-4.96-5.49-9.56-6.55-14.87-.35-2.3-.18-4.96,1.77-6.55,2.12-1.77,4.96-1.59,7.61-1.59-1.59-4.42-4.42-8.32-7.96-11.15-4.6-3.36-10.44-4.96-15.93-4.25ZM25.31,15.69c-3.01.53-6.02,2.3-7.61,5.13-2.12,3.72-2.3,7.96-1.95,12.03.71,5.31,1.95,10.62,3.54,15.93,1.42,4.42,2.83,8.85,5.31,12.74.88,1.42,1.95,2.83,3.54,3.36,1.42.35,2.48-.88,3.36-1.77,1.77-2.3,3.89-4.42,5.84-6.72-2.83-2.48-4.25-6.37-3.89-10.26.35-2.83.53-5.84.35-8.85-.35-4.07.35-8.32,1.59-12.39.88-3.01,2.48-5.66,4.6-7.96-4.78-1.06-9.91-2.12-14.69-1.24ZM66.54,33.92c-1.42,1.06-1.42,3.19-1.06,4.78,1.06,5.13,4.07,9.38,6.19,13.98,1.77-3.36.71-7.26.35-10.97-.35-3.01.53-5.84.71-8.67-1.95,0-4.25-.35-6.19.88ZM35.92,35.87c0,2.48.18,4.96,0,7.26-.18,2.12-.71,4.25-.18,6.37.71,3.89,4.07,7.08,8.14,7.08.53-1.95,1.24-3.89,2.12-5.66,2.48-4.78,1.95-10.26.71-15.22-.35-1.42-1.59-2.48-3.01-2.48-2.83,0-5.49,1.24-7.79,2.65ZM71.85,59.76c-.71.71-.71,1.77-.71,2.65,1.59.53,3.36.53,5.13.35,2.48-.35,5.13-1.06,7.08-3.01-3.01.35-6.37,1.06-9.38-.35-.71-.35-1.59,0-2.12.35ZM42.65,63.3c-1.77,1.06-3.89.88-5.49,1.77,3.54,1.77,8.67,1.24,11.15-2.12,1.24-1.24,0-3.72-1.59-3.54-1.77,1.06-2.48,3.01-4.07,3.89Z" style="fill: #fff;"/>
    <path d="M67.25,34.63c1.06-.71,2.48-.71,3.54-.35,0,1.42-1.77,2.48-3.01,1.77-.35-.18-1.06-.88-.53-1.42Z" style="fill: #fff;"/>
    <path d="M42.3,34.81c1.06-.35,2.3-.18,3.19.53.53.53,0,1.42-.53,1.59-1.24.88-3.19,0-3.36-1.42,0-.35.35-.71.71-.71Z" style="fill: #fff;"/>
    <path d="M61.23,14.98c4.42-1.06,9.38-.88,13.63.71,3.01,1.06,5.66,3.19,7.61,5.66,1.06,1.24,1.06,2.83,1.06,4.25,0,3.54-.71,6.9-1.59,10.44-1.77,6.19-4.25,12.21-7.61,17.7-.35.53-.71,1.06-1.06,1.59,0-.18-.18-.53-.18-.53.35-1.06,1.06-2.12,1.24-3.19.88-3.19.18-6.55-.18-9.73-.35-3.01.71-6.02.71-9.03.18-1.42-.53-2.83-1.06-4.25-2.12-4.6-5.31-8.67-9.56-11.5-.71-.88-1.95-1.42-3.01-2.12Z" style="fill: #326690;"/>
    <path d="M48.84,15.34c5.49-.71,11.33.88,15.75,4.25,3.54,2.83,6.55,6.72,7.96,11.15-2.48,0-5.49-.18-7.61,1.59-1.95,1.59-2.12,4.25-1.77,6.55,1.06,5.49,4.25,10.09,6.55,14.87.53,1.24,1.42,2.12,2.3,3.19-1.06.53-1.95.88-2.48,1.95-.88,1.59-.53,3.36-.88,5.13-.53,4.78-1.06,9.56-1.77,14.33-.35,2.3-1.42,4.78-3.54,5.84-2.12,1.06-4.78,1.77-7.26,1.42-2.3-.35-3.89-2.65-4.42-4.78-.53-1.77-.53-3.72-.71-5.49-.18-4.42-.18-8.85-.18-13.27.18-1.77-.71-3.54-2.3-4.42-.71-.35-1.59-.53-2.48-.53.71-3.19,2.65-6.02,3.36-9.38.88-4.07.35-8.14-.53-12.21-.35-1.95-1.95-3.72-3.89-4.25-3.19-.71-6.19.35-9.03,1.77.35-4.42,1.59-9.03,4.25-12.74,2.12-2.65,5.31-4.42,8.67-4.96Z" style="fill: #326690;"/>
    <path d="M25.31,15.69c4.96-.88,9.91,0,14.69,1.42-2.12,2.3-3.72,4.96-4.6,7.96-1.24,3.89-1.77,8.14-1.59,12.39.18,3.01.18,5.84-.35,8.85-.53,3.72,1.06,7.61,3.89,10.26-1.95,2.3-3.89,4.42-5.84,6.72-.88,1.06-1.95,2.12-3.36,1.77-1.59-.53-2.65-1.95-3.54-3.36-2.48-3.89-3.89-8.32-5.31-12.74-1.59-5.13-2.83-10.44-3.54-15.93-.35-4.07-.18-8.49,1.95-12.03,1.59-2.83,4.42-4.6,7.61-5.31Z" style="fill: #326690;"/>
    <path d="M66.54,33.92c1.77-1.24,4.25-1.06,6.19-.88-.18,2.83-1.06,5.66-.71,8.67.35,3.54,1.24,7.43-.35,10.97-2.3-4.6-5.31-8.85-6.19-13.98-.18-1.59-.18-3.54,1.06-4.78ZM67.25,34.63c-.53.53,0,1.24.53,1.42,1.24.71,3.01-.35,3.01-1.77-1.06-.35-2.48-.35-3.54.35Z" style="fill: #326690;"/>
    <path d="M35.92,35.87c2.3-1.42,4.96-2.65,7.61-2.48,1.42,0,2.65,1.06,3.01,2.48,1.24,4.96,1.59,10.44-.71,15.22-.88,1.77-1.59,3.72-2.12,5.66-4.07,0-7.43-3.36-8.14-7.08-.53-2.12.18-4.25.18-6.37.35-2.65.18-4.96.18-7.43ZM42.3,34.81c-.35.18-.71.35-.71.71.18,1.42,2.12,2.3,3.36,1.42.53-.35,1.06-1.06.53-1.59-.88-.71-2.12-.88-3.19-.53Z" style="fill: #326690;"/>
    <path d="M71.85,59.76c.53-.35,1.42-.88,2.12-.35,2.83,1.59,6.19.71,9.38.35-1.95,1.77-4.42,2.65-7.08,3.01-1.77.18-3.54.35-5.13-.35,0-.88,0-1.95.71-2.65Z" style="fill: #326690;"/>
    <path d="M42.65,63.3c1.59-.88,2.3-2.83,3.89-3.89,1.59-.18,3.01,2.3,1.59,3.54-2.48,3.36-7.61,4.07-11.15,2.12,1.77-.71,3.89-.71,5.66-1.77Z" style="fill: #326690;"/>
    <path d="M57.52,11.45c4.78-1.24,9.91-1.77,14.87-.88,4.42.71,8.67,3.01,12.03,6.19,1.42,1.42,2.83,3.01,3.36,4.96,1.06,3.54.53,7.08,0,10.62-1.59,8.32-4.78,16.28-9.03,23.71,1.95,0,3.72-.53,5.66-.71,1.77-.18,3.89,1.06,4.25,2.83.53,1.95-.71,3.89-2.12,5.13-3.89,3.36-9.2,4.42-13.98,4.25-.35,5.13-.35,10.26-2.48,15.04-1.06,2.12-2.48,3.89-4.42,5.13-1.95,1.24-4.07,1.77-6.19,2.12-2.3.35-4.96.18-7.08-1.24-1.95-1.24-3.01-3.19-3.72-5.31-1.59-4.42-1.42-9.03-1.77-13.63-3.36,1.42-7.08,1.42-10.44.18-1.24-.35-2.3-1.06-3.19-1.95-1.77,1.42-4.07,2.12-6.37,1.59-2.83-.71-4.78-3.19-6.37-5.49-2.65-4.25-4.25-9.03-5.66-13.8-1.59-5.49-3.01-10.97-3.72-16.81-.35-5.13,0-10.44,2.83-14.87,2.12-3.54,6.02-6.02,10.09-6.9,5.84-1.24,11.86,0,17.34,1.59,1.77-.88,3.54-1.77,5.49-2.12,3.72-.53,7.26-.18,10.62.35ZM57.34,13.57c-.35.18-.88-.18-1.24-.18-4.78-1.06-10.09-.53-14.16,2.12-4.96-1.77-10.26-2.83-15.57-2.3-3.89.35-7.96,2.3-10.09,5.49-2.83,4.25-3.19,9.56-2.83,14.33.88,6.55,2.48,12.92,4.42,19.11,1.42,3.89,2.83,7.79,5.13,11.15,1.24,1.59,2.83,3.36,4.96,3.54,1.95.18,3.54-.88,4.78-2.3,2.12-2.48,4.07-4.78,6.19-7.08,1.42.71,3.01,1.06,4.42,1.24-.88,1.06-1.59,2.3-2.83,2.65-1.77.71-3.89.53-5.49,1.77-.88.71-1.06,2.12-.18,2.83,1.42,1.42,3.72,1.77,5.66,1.95,2.83.18,5.66-.71,7.79-2.65,0,4.42,0,9.03.53,13.45.18,2.65,1.42,5.31,3.36,6.9,1.77,1.59,4.6,1.95,6.9,1.59,2.3-.53,4.78-1.24,6.55-2.65,1.95-1.77,2.83-4.25,3.19-6.72.71-4.42,1.24-8.85,1.77-13.45,4.96.88,10.62-.18,14.33-3.72.71-.71,1.59-2.12.71-3.01-.71-.88-2.12-.71-3.19-.53-2.48.53-5.31,1.06-7.79-.18,4.42-7.08,7.96-14.69,9.91-22.83.71-3.01,1.24-6.19,1.24-9.38-.18-1.77-.35-3.72-1.42-5.13-2.65-3.54-6.55-6.02-10.8-7.26-5.13-.71-10.97-.35-16.28,1.24Z"/>
  </g>
</svg>