<?xml version="1.0" encoding="UTF-8"?>
<svg id="Layer_1" xmlns="http://www.w3.org/2000/svg" version="1.1" viewBox="0 0 100 100">
  <!-- Generator: Adobe Illustrator 29.5.0, SVG Export Plug-In . SVG Version: 2.1.0 Build 137)  -->
  <path d="M9.96,50.03c0,6.04,5.9,11.68,15.2,14.86-1.86,9.35-.34,16.89,4.76,19.82,5.23,3.02,13.03.93,20.43-5.54,7.22,6.21,14.5,8.65,19.59,5.7,5.23-3.02,6.82-11.07,4.91-20.72,9.69-3.21,15.1-8.01,15.1-14.14s-5.91-11.01-15.09-14.17c2.06-10.04.31-17.39-4.99-20.46-5.11-2.95-12.49-.38-19.81,5.99-7.61-6.74-14.9-8.81-20.21-5.74-5.1,2.95-6.57,10.63-4.7,20.15-8.98,3.13-15.2,8.35-15.2,14.23Z" style="fill: #fff;"/>
  <path d="M72.94,39c-.74-.26-1.5-.5-2.29-.72.13-.53.25-1.05.35-1.56,1.74-8.41.6-15.18-3.26-17.4-3.7-2.14-9.77.09-15.89,5.42-.58.51-1.18,1.06-1.77,1.62-.39-.38-.78-.74-1.18-1.09-6.42-5.7-12.85-8.1-16.71-5.86-3.7,2.14-4.8,8.51-3.24,16.47.15.77.33,1.56.53,2.35-.91.26-1.79.54-2.63.82-7.52,2.62-12.33,6.73-12.33,10.99s5.16,8.82,12.99,11.5c.62.21,1.26.41,1.92.6-.22.86-.4,1.71-.56,2.54-1.49,7.82-.33,14.04,3.37,16.17,3.82,2.2,10.22-.06,16.45-5.51.5-.43.98-.89,1.48-1.37.64.62,1.28,1.21,1.92,1.75,6.04,5.2,12,7.3,15.69,5.16,3.81-2.21,5.05-8.88,3.44-17.01-.12-.62-.26-1.26-.42-1.9.45-.14.89-.27,1.32-.41,8.14-2.7,13.45-7.06,13.45-11.52s-4.96-8.42-12.63-11.06h0Z" style="fill: #53c1de;"/>
  <path d="M71.17,58.7c-.39.13-.78.25-1.19.38-.9-2.85-2.11-5.87-3.6-9,1.42-3.06,2.58-6.04,3.46-8.87.73.21,1.43.43,2.11.66,6.58,2.26,10.58,5.61,10.58,8.18,0,2.74-4.33,6.31-11.36,8.64h0ZM68.26,64.48c.71,3.59.81,6.84.34,9.38-.42,2.28-1.27,3.8-2.33,4.41-2.24,1.3-7.02-.39-12.19-4.83-.59-.51-1.19-1.06-1.78-1.63,2-2.19,4-4.74,5.95-7.56,3.43-.3,6.68-.8,9.62-1.49.14.58.27,1.16.38,1.72h0ZM38.74,78.04c-2.19.78-3.93.79-4.98.19-2.24-1.3-3.18-6.28-1.9-12.98.14-.77.32-1.55.52-2.36,2.91.65,6.13,1.1,9.58,1.38,1.97,2.77,4.02,5.3,6.1,7.54-.46.44-.9.86-1.35,1.25-2.76,2.41-5.52,4.12-7.95,4.98h0ZM28.5,58.68c-3.46-1.18-6.33-2.72-8.29-4.4-1.76-1.51-2.65-3.01-2.65-4.22,0-2.58,3.86-5.89,10.29-8.13.78-.27,1.6-.53,2.45-.77.89,2.9,2.06,5.91,3.46,8.98-1.42,3.1-2.61,6.18-3.5,9.1-.6-.18-1.19-.35-1.75-.55h0ZM31.93,35.29c-1.34-6.82-.45-11.97,1.78-13.26,2.38-1.38,7.63.58,13.17,5.5.35.31.71.65,1.06.98-2.06,2.22-4.1,4.74-6.06,7.49-3.34.31-6.54.81-9.48,1.47-.18-.74-.35-1.47-.49-2.19h0ZM62.58,42.87c-.7-1.22-1.42-2.4-2.16-3.55,2.26.29,4.44.66,6.48,1.13-.62,1.96-1.38,4.02-2.27,6.12-.65-1.22-1.33-2.46-2.04-3.7h0ZM50.08,30.69c1.4,1.51,2.8,3.21,4.18,5.05-1.39-.06-2.79-.1-4.22-.1s-2.8.03-4.18.1c1.38-1.82,2.79-3.51,4.22-5.05h0ZM37.5,42.88c-.7,1.22-1.37,2.44-2.01,3.67-.88-2.1-1.64-4.16-2.26-6.14,2.03-.46,4.19-.82,6.44-1.1-.74,1.16-1.47,2.36-2.18,3.58h0ZM39.74,61.02c-2.33-.26-4.52-.61-6.54-1.06.63-2.02,1.4-4.13,2.3-6.27.63,1.23,1.31,2.46,2.02,3.67h0c.72,1.24,1.46,2.46,2.23,3.65h0ZM50.16,69.64c-1.44-1.55-2.87-3.27-4.28-5.11,1.36.06,2.75.08,4.16.08s2.88-.03,4.29-.1c-1.38,1.88-2.78,3.6-4.17,5.13h0ZM64.65,53.59c.95,2.16,1.75,4.26,2.38,6.25-2.06.47-4.28.85-6.63,1.13.74-1.17,1.46-2.38,2.18-3.62.72-1.26,1.41-2.51,2.06-3.76h0ZM59.96,55.84c-1.11,1.93-2.25,3.76-3.41,5.5-2.11.15-4.29.23-6.5.23s-4.36-.07-6.43-.21c-1.21-1.76-2.37-3.6-3.47-5.51h0c-1.1-1.9-2.11-3.82-3.03-5.73.92-1.91,1.93-3.83,3.02-5.73h0c1.1-1.9,2.25-3.74,3.45-5.48,2.11-.16,4.28-.24,6.46-.24h0c2.2,0,4.37.09,6.48.25,1.18,1.74,2.32,3.56,3.42,5.46,1.11,1.93,2.14,3.83,3.06,5.7-.92,1.9-1.94,3.82-3.06,5.75h0ZM66.22,21.95c2.38,1.37,3.3,6.9,1.81,14.16-.1.46-.2.94-.32,1.41-2.94-.68-6.14-1.18-9.5-1.5-1.95-2.78-3.98-5.3-6.01-7.5.54-.53,1.09-1.02,1.63-1.5,5.25-4.57,10.14-6.37,12.38-5.08h0Z" style="fill: #fff;"/>
  <path d="M50.05,43.72c3.5,0,6.34,2.84,6.34,6.34s-2.84,6.34-6.34,6.34-6.34-2.84-6.34-6.34,2.84-6.34,6.34-6.34" style="fill: #53c1de;"/>
</svg>