<?xml version="1.0" encoding="UTF-8"?>
<svg id="Layer_1" xmlns="http://www.w3.org/2000/svg" version="1.1" viewBox="0 0 100 100">
  <!-- Generator: Adobe Illustrator 29.5.0, SVG Export Plug-In . SVG Version: 2.1.0 Build 137)  -->
  <path d="M87.28,90H23.95c-2.15,0-3.89-1.74-3.89-3.89V23.37h67.23v66.63h-.01Z" style="fill: #0b3c8f;"/>
  <path d="M24.88,10h53.66c2.15,0,3.89,1.74,3.89,3.89v52.19H24.88V10Z" style="fill: #1a6afe;"/>
  <polygon points="12.72 73.96 24.88 66.07 24.88 10 12.72 17.88 12.72 73.96" style="fill: #699bea;"/>
  <path d="M65.16,50.38v3.64c-.76.31-1.58.47-2.42.44-1.11.03-2.2-.26-3.16-.83-1-.68-1.81-1.64-2.33-2.75l-4.6-8.87h-5.11v11.99h-5.62v-31.18h10.52c2.82-.13,5.61.66,7.94,2.25,1.95,1.4,3.07,3.67,3,6.06v2.59c.02,1.56-.5,3.07-1.46,4.28-1.05,1.32-2.42,2.34-3.98,2.94l4.14,7.94c.51,1,1.56,1.58,2.67,1.51l.42-.02h0v-.02h0l.02.02h-.03ZM47.55,37.86h4.68c1.43.09,2.84-.31,4.04-1.11,1-.75,1.56-1.93,1.48-3.16v-2.22c.06-1.24-.5-2.43-1.48-3.16-1.19-.8-2.6-1.19-4.04-1.12h-4.68v10.78h0Z" style="fill: #fff;"/>
  <g style="isolation: isolate;">
    <g style="isolation: isolate;">
      <g style="isolation: isolate;">
        <g style="isolation: isolate;">
          <g style="isolation: isolate;">
            <g style="isolation: isolate;">
              <g style="isolation: isolate;">
                <g style="isolation: isolate;">
                  <path d="M40.11,83.74v-11.34h4.77c1.38,0,2.39.27,3.02.82.63.55.94,1.26.94,2.13,0,.73-.22,1.33-.66,1.8-.44.48-1.01.79-1.72.93.54.05.99.23,1.34.55.35.31.58.97.69,1.96.2,1.78.43,2.83.68,3.16h-2.52c-.15-.49-.29-1.33-.43-2.53-.08-.83-.24-1.38-.46-1.66-.22-.28-.68-.41-1.39-.41h-1.92v4.6h-2.34ZM42.45,77.37h1.43c.89,0,1.55-.14,1.98-.41.43-.28.65-.69.65-1.24,0-.45-.16-.82-.49-1.11-.32-.29-.83-.44-1.52-.44h-2.05v3.2Z" style="fill: #fff;"/>
                  <path d="M56.72,81.17l3.02-8.76h2.34l-4.22,11.34h-2.48l-4.22-11.34h2.52l3.04,8.76Z" style="fill: #fff;"/>
                  <path d="M64.39,72.4h9.33v1.77h-3.5v9.57h-2.34v-9.57h-3.5v-1.77Z" style="fill: #fff;"/>
                </g>
              </g>
            </g>
          </g>
        </g>
      </g>
    </g>
  </g>
</svg>