<?xml version="1.0" encoding="UTF-8"?>
<svg id="Layer_1" xmlns="http://www.w3.org/2000/svg" version="1.1" viewBox="0 0 100 100">
  <!-- Generator: Adobe Illustrator 29.5.0, SVG Export Plug-In . SVG Version: 2.1.0 Build 137)  -->
  <path d="M87.28,90H23.95c-2.15,0-3.89-1.74-3.89-3.89V23.37h67.23v66.63h0Z" style="fill: #0b3c8f;"/>
  <path d="M24.88,10h53.66c2.15,0,3.89,1.74,3.89,3.89v52.19H24.88V10Z" style="fill: #1a6afe;"/>
  <polygon points="12.72 73.96 24.88 66.07 24.88 10 12.72 17.88 12.72 73.96" style="fill: #699bea;"/>
  <path d="M65.16,50.38v3.64c-.76.31-1.58.47-2.42.44-1.11.03-2.2-.26-3.16-.83-1-.68-1.81-1.64-2.33-2.75l-4.6-8.87h-5.11v11.99h-5.62v-31.18h10.52c2.82-.13,5.61.66,7.94,2.25,1.95,1.4,3.07,3.67,3,6.06v2.59c.02,1.56-.5,3.07-1.46,4.28-1.05,1.32-2.42,2.34-3.98,2.94l4.14,7.94c.51,1,1.56,1.58,2.67,1.51l.42-.02h0v-.02h0l.02.02h0ZM47.55,37.86h4.68c1.43.09,2.84-.31,4.04-1.11,1-.75,1.56-1.93,1.48-3.16v-2.22c.06-1.24-.5-2.43-1.48-3.16-1.19-.8-2.6-1.19-4.04-1.12h-4.68v10.78h0Z" style="fill: #fff;"/>
  <g style="isolation: isolate;">
    <g style="isolation: isolate;">
      <g style="isolation: isolate;">
        <g style="isolation: isolate;">
          <g style="isolation: isolate;">
            <g style="isolation: isolate;">
              <text transform="translate(38.9 83.74)" style="fill: #fff; font-family: UniversBold, Univers; font-size: 16.62px; isolation: isolate; letter-spacing: .07em;"><tspan x="0" y="0">RVT</tspan></text>
            </g>
          </g>
        </g>
      </g>
    </g>
  </g>
</svg>