<?xml version="1.0" encoding="UTF-8"?>
<svg id="Layer_1" xmlns="http://www.w3.org/2000/svg" version="1.1" viewBox="0 0 100 100">
  <!-- Generator: Adobe Illustrator 29.5.0, SVG Export Plug-In . SVG Version: 2.1.0 Build 137)  -->
  <path d="M10,13.75h80v25h-51.56V15.94h-4.38v22.82H10V13.75ZM82.5,37.19l-42.18-18.13.19,1.28c13.15,5.64,26.18,11.58,39.36,17.14l2.63-.29h0ZM13.13,37.5l1.58-.14c4.73-4.38,9.7-8.66,14.36-13.14,1.32-1.26,3.69-2.98,3.43-4.85l-19.37,18.12ZM59.69,37.5l-19.38-16.56.06,1.5,16.65,14.44c.74.7,1.7.67,2.66.62,0,0,0,0,0,0Z" style="fill: #182f7c;"/>
  <polygon points="10 44.38 34.06 44.38 34.06 53.44 38.44 53.44 38.44 44.38 90 44.38 90 55.62 10 55.62 10 44.38" style="fill: #182f7c;"/>
  <path d="M62.19,86.25l3.46-21.54,5.88.02,4.26,11.22,4.5-11.06c.37-.48,4.94-.07,5.94-.16l3.16,21.53h-5.62l-1.72-12.19-4.88,12.15-2.82-.14-4.96-12-1.57,12.18h-5.63,0Z" style="fill: #182f7c;"/>
  <path d="M28.44,86.25h-7.18c-1.34-2.78-3.18-5.33-5-7.81v7.81h-5.63v-21.56h11.41c1.77,0,4.26,3.48,4.5,5.18.54,3.91-1.02,6.46-4.66,7.78l6.56,8.59h0ZM16.25,74.38c5.82.5,6.01-6.24,0-5.31v5.31Z" style="fill: #182f7c;"/>
  <polygon points="59.38 64.69 59.38 69.38 52.82 69.38 52.82 72.81 59.06 72.81 59.06 77.81 52.82 77.81 52.82 81.56 59.38 81.56 59.38 86.25 46.87 86.25 46.87 64.69 59.38 64.69" style="fill: #182f7c;"/>
  <path d="M43.75,64.69v4.69h-6.87v3.44h5.78s.46.44.46.46v4.53h-6.25v8.44h-5.94v-21.56h12.82,0Z" style="fill: #182f7c;"/>
</svg>