<?xml version="1.0" encoding="UTF-8"?>
<svg id="Layer_1" xmlns="http://www.w3.org/2000/svg" version="1.1" viewBox="0 0 100 100">
  <!-- Generator: Adobe Illustrator 29.5.0, SVG Export Plug-In . SVG Version: 2.1.0 Build 137)  -->
  <path d="M86.77,27.45l-26.04-15.01s-4.12-2.42-10.71-2.42-10.82,2.49-10.82,2.49l-24.12,13.8,36.69,21.09v42.62l24.14-13.79s4.31-2.38,7.59-8.05c2.89-4.99,3.25-9.81,3.25-9.81v-30.93h0ZM47.5,34.39s5.39-1,9.93,1.64c4.55,2.62,7.24,4.17,7.24,4.17v9.12c0,4.37-3.71,8.91-3.71,8.91v-16.05l-13.47-7.78h0ZM68.84,69.6l-7.86,4.51v-4.22l6.12-3.49c5.82-4.2,6.79-10.39,6.79-12.53l-.03-19.02-16.69-9.6s-2.53-1.66-7.1-1.66-7.04,1.54-7.04,1.54l-5.86,3.37-3.7-2.13,8.1-4.62s3.17-1.75,8.47-1.75c4.87,0,8.67,1.9,8.67,1.9l18.84,10.88-.03,20.76c.13,3.19-1.35,10.99-8.7,16.12h0v-.02l.02-.02Z" style="fill: #005f9e;"/>
  <path d="M13.23,40.12l25.73,14.76-.03,4.39-14.63-8.39-9.2,5.24,23.82,13.73.02,4.23-25.53-14.68c.06,1.72,1.63,7.02,4.61,11.13,3.02,4.15,6.48,5.92,6.48,5.92l23.58,13.58v-40.5L13.25,29.51l-.03,10.61h0Z" style="fill: #005f9e;"/>
</svg>