<?xml version="1.0" encoding="UTF-8"?>
<svg id="Ebene_1" xmlns="http://www.w3.org/2000/svg" version="1.1" viewBox="0 0 100 100">
  <!-- Generator: Adobe Illustrator 29.5.0, SVG Export Plug-In . SVG Version: 2.1.0 Build 137)  -->
  <path d="M23.23,45.75c3.17-1.37,6.27-2.91,9.26-4.63,2.8.19,5.59.57,8.34,1.13-3.36,1.88-6.84,3.54-10.42,4.96-2.26-.68-4.57-1.16-6.92-1.43h-.26v-.02ZM35.09,39.57c3.02-1.86,5.94-3.9,8.85-6.11v.1c2.86.2,5.71.58,8.53,1.13-3.07,2.28-6.26,4.4-9.55,6.35-2.17-.62-4.38-1.06-6.62-1.32l-1.2-.14h-.01ZM45.92,31.94c3.07-2.41,6.15-5.02,9.34-7.83,2.92.2,5.83.6,8.7,1.2-3.16,2.79-6.4,5.5-9.73,8.05-2.02-.56-4.08-.96-6.16-1.2-.79-.1-1.53-.18-2.14-.23h0ZM65.98,25.93c2.61.86,5.1,2.05,7.42,3.52-3.18,2.8-6.44,5.52-9.79,8.08-2.31-1.46-4.78-2.64-7.36-3.51.69-.53,1.37-1.07,2.06-1.64,3.99-3.21,7.04-5.89,7.68-6.46ZM62.02,38.67c-3.19,2.37-6.5,4.56-9.91,6.58-2.17-1.41-4.5-2.57-6.94-3.45,3.08-1.9,6.16-4.07,9.41-6.54h.1c2.58.82,5.04,1.96,7.34,3.38v.04ZM50.36,46.26c-3.51,1.98-7.15,3.71-10.9,5.17-2.05-1.36-4.25-2.48-6.54-3.36,3.58-1.47,7.04-3.19,10.37-5.15,2.48.84,4.85,1.95,7.07,3.32h0ZM37.33,52.21c-5.28,1.8-12.46,3.46-12.46,3.46-1.87-1.23-3.86-2.28-5.93-3.13,3.9-.96,7.74-2.14,11.51-3.52,2.39.8,4.68,1.87,6.83,3.19h.05ZM74.87,30.45c2.88,2.08,5.46,4.55,7.68,7.33-3.15,2.82-6.39,5.53-9.72,8.1-2.25-2.78-4.85-5.24-7.75-7.34.88-.67,1.76-1.37,2.66-2.11,3.31-2.66,5.95-4.94,7.13-6.02v.04ZM71.35,46.97c-3.22,2.44-6.56,4.7-10.02,6.78-2.19-2.76-4.73-5.23-7.55-7.34,3.38-2.06,6.65-4.3,9.79-6.71,2.91,2.06,5.53,4.5,7.78,7.27ZM39.15,53.4c2.91,2.07,5.52,4.52,7.77,7.29-4.44,1.61-10.83,3.18-12.76,3.61-2.13-2.71-4.59-5.14-7.31-7.25,4.18-.97,8.31-2.18,12.35-3.61l-.05-.04ZM41.18,52.63c3.77-1.47,7.42-3.21,10.92-5.22,2.87,2.05,5.45,4.48,7.68,7.22-3.56,2.05-7.26,3.84-11.07,5.37-2.18-2.77-4.7-5.25-7.51-7.39l-.02.02ZM83.64,39.17c2.36,3.19,4.49,6.55,6.36,10.05-3.42,3.01-6.62,5.74-9.66,8.14-1.88-3.53-4.04-6.9-6.45-10.09.83-.64,1.66-1.3,2.51-1.98,3.4-2.73,6.1-5.08,7.22-6.02v-.1ZM78.91,58.42c-3.22,2.49-6.59,4.79-10.08,6.88-1.86-3.52-3.99-6.89-6.35-10.09,3.45-2.11,6.79-4.41,10-6.88,2.41,3.19,4.56,6.57,6.44,10.11h0ZM48.05,62.17c2.36,3.15,4.48,6.48,6.33,9.96-4.18,1.48-8.44,2.74-12.76,3.75-1.86-3.46-3.95-6.78-6.27-9.95,4.3-1.02,8.54-2.27,12.7-3.77ZM49.81,61.51c3.83-1.5,7.55-3.29,11.12-5.35,2.38,3.18,4.51,6.55,6.36,10.07-3.6,2.03-7.36,3.8-11.22,5.27-1.84-3.48-3.93-6.82-6.26-10h0ZM10,50.25c3.39-.9,6.58-1.92,9.62-3.06,2.67.18,5.33.53,7.96,1.03-4.44,1.5-10.09,2.89-11.72,3.27-1.92-.55-3.87-.95-5.85-1.2l-.02-.05Z" style="fill: #00abf5; fill-rule: evenodd;"/>
</svg>