<?xml version="1.0" encoding="UTF-8"?>
<svg id="Layer_1" xmlns="http://www.w3.org/2000/svg" version="1.1" xmlns:xlink="http://www.w3.org/1999/xlink" viewBox="0 0 100 100">
  <!-- Generator: Adobe Illustrator 29.5.0, SVG Export Plug-In . SVG Version: 2.1.0 Build 137)  -->
  <defs>
    <linearGradient id="linear-gradient" x1="-984.05" y1="583.92" x2="-984.05" y2="583.59" gradientTransform="translate(145455.93 91126.42) scale(147.77 -156.03)" gradientUnits="userSpaceOnUse">
      <stop offset="0" stop-color="#97d9f6"/>
      <stop offset=".92" stop-color="#0f80cc"/>
      <stop offset="1" stop-color="#0f80cc"/>
    </linearGradient>
  </defs>
  <path d="M70.54,13.55H20.35c-3.36,0-6.12,2.75-6.12,6.12v55.36c0,3.36,2.75,6.12,6.12,6.12h33.06c-.37-16.45,5.24-48.38,17.13-67.59h0Z" style="fill: #0f80cc;"/>
  <path d="M68.72,15.34H20.35c-2.39,0-4.33,1.94-4.33,4.33v51.32c10.96-4.21,27.4-7.83,38.77-7.67,2.29-11.95,9-35.36,13.94-47.98h0Z" style="fill: url(#linear-gradient);"/>
  <path d="M82.25,11.74c-3.44-3.07-7.6-1.83-11.71,1.81-.61.54-1.22,1.14-1.82,1.78-7.03,7.45-13.55,21.27-15.58,31.81.79,1.6,1.41,3.65,1.81,5.2.1.4.2.78.27,1.09.18.76.27,1.25.27,1.25,0,0-.06-.24-.32-.99-.05-.14-.1-.3-.17-.49-.03-.07-.07-.17-.11-.27-.46-1.07-1.73-3.31-2.29-4.29-.48,1.41-.9,2.73-1.25,3.92,1.61,2.95,2.59,8,2.59,8,0,0-.09-.33-.49-1.47-.36-1.01-2.15-4.15-2.58-4.88-.72,2.68-1.01,4.49-.75,4.93.5.85.98,2.33,1.41,3.95.95,3.67,1.62,8.13,1.62,8.13,0,0,.02.3.06.75-.13,3.08-.05,6.27.19,9.16.32,3.82.91,7.1,1.67,8.86l.51-.28c-1.11-3.46-1.57-7.99-1.37-13.23.3-7.99,2.14-17.63,5.54-27.68,5.74-15.17,13.71-27.34,21-33.15-6.64,6-15.64,25.43-18.33,32.63-3.01,8.06-5.15,15.62-6.44,22.86,2.22-6.79,9.41-9.71,9.41-9.71,0,0,3.52-4.34,7.64-10.55-2.46.56-6.52,1.53-7.87,2.09-2,.84-2.54,1.13-2.54,1.13,0,0,6.48-3.95,12.04-5.74,7.65-12.04,15.98-29.15,7.59-36.64" style="fill: #003b57;"/>
</svg>