<?xml version="1.0" encoding="UTF-8"?>
<svg viewBox="0 0 100 100" fill="none" xmlns="http://www.w3.org/2000/svg">
    <path
        d="M90.7812 5H9.21875C6.8888 5 5 6.8888 5 9.21875V90.7812C5 93.1112 6.8888 95 9.21875 95H90.7812C93.1112 95 95 93.1112 95 90.7812V9.21875C95 6.8888 93.1112 5 90.7812 5Z"
        fill="#3178C6" />
    <path fill-rule="evenodd" clip-rule="evenodd"
        d="M57.2156 74.9385V84.8005C58.8134 85.6217 60.703 86.2383 62.8846 86.649C65.0662 87.0603 67.3654 87.2656 69.7825 87.2656C72.1382 87.2656 74.376 87.0399 76.4958 86.5878C78.6165 86.1357 80.4748 85.3911 82.073 84.3533C83.6705 83.3155 84.9355 81.9598 85.8678 80.285C86.7995 78.6108 87.2656 76.5408 87.2656 74.0755C87.2656 72.2881 86.9992 70.7215 86.4668 69.3757C85.9339 68.0301 85.1661 66.8333 84.162 65.7855C83.1587 64.7377 81.955 63.7977 80.5522 62.9657C79.1488 62.1335 77.5667 61.3477 75.8047 60.608C74.5143 60.0739 73.357 59.5551 72.3328 59.0517C71.3086 58.5484 70.438 58.0348 69.7211 57.5109C69.0041 56.9869 68.4511 56.4322 68.0619 55.8467C67.6727 55.2611 67.4781 54.5986 67.4781 53.8589C67.4781 53.1809 67.6522 52.5697 68.0005 52.0252C68.3487 51.4808 68.8403 51.0133 69.4753 50.623C70.1103 50.2326 70.8886 49.9296 71.8104 49.7139C72.7322 49.4981 73.7564 49.3902 74.883 49.3902C75.7027 49.3902 76.5676 49.4519 77.4795 49.5752C78.3908 49.6984 79.3077 49.8885 80.2295 50.1453C81.1513 50.4021 82.047 50.7257 82.9182 51.1161C83.7887 51.5064 84.5923 51.9584 85.33 52.472V43.2576C83.8344 42.6822 82.201 42.2559 80.4292 41.9786C78.6573 41.7012 76.6245 41.5625 74.33 41.5625C71.9948 41.5625 69.7825 41.8141 67.6932 42.3175C65.6038 42.8209 63.7653 43.6068 62.1778 44.6751C60.5903 45.7435 59.3357 47.1046 58.4139 48.7584C57.4921 50.4124 57.0313 52.3899 57.0313 54.691C57.0313 57.6289 57.8762 60.1354 59.5662 62.2106C61.2561 64.2857 63.8217 66.0423 67.263 67.4804C68.615 68.0352 69.8747 68.5797 71.0423 69.1138C72.2099 69.648 73.2187 70.2027 74.0688 70.7779C74.9189 71.3533 75.5895 71.9799 76.081 72.6579C76.5732 73.3359 76.8186 74.1063 76.8186 74.9692C76.8186 75.6064 76.6653 76.197 76.358 76.7413C76.0508 77.2855 75.5846 77.758 74.9599 78.1587C74.3351 78.5595 73.5567 78.8732 72.6246 79.0988C71.6927 79.3245 70.6019 79.4377 69.3524 79.4377C67.222 79.4377 65.1122 79.063 63.0228 78.3127C60.9335 77.5632 58.9978 76.4382 57.2156 74.9385ZM40.6503 50.3898H53.5156V42.2656H17.6562V50.3898H30.4587V86.5625H40.6503V50.3898Z"
        fill="white" />
</svg>