<?xml version="1.0" encoding="UTF-8"?>
<svg id="Layer_1" xmlns="http://www.w3.org/2000/svg" version="1.1" viewBox="0 0 100 100">
  <!-- Generator: Adobe Illustrator 29.5.0, SVG Export Plug-In . SVG Version: 2.1.0 Build 137)  -->
  <path d="M23.27,79.59c-12.35-11.14-16.57-29.48-10.19-44.96.45-1.11,4.44-9.9,5.6-6.21.53,1.7.29,6.72.61,8.96,1.64,11.17,7.55,28.37,16.44,35.73,10.08,8.32,16.78-5.61,20.1-13.43,4.17-9.82,8.56-31.57,22.53-30.63,6.44.44,9.45,6.13,10.63,11.86,7.92,38.24-36.82,64.77-65.73,38.69h.01Z" style="fill: #fefefe;"/>
  <path d="M32.33,14.86c9.34-8.66,34.24-4.8,42.91,4.38-2.77,1.52-5.82,2.26-8.56,3.87-12.72,7.45-14.52,22.65-20.21,34.83-4.02,8.62-5.49,8.81-10.37.45-4.18-7.16-7.24-17.46-7.77-25.73-.38-5.99-.72-13.42,4.01-17.8h-.01Z" style="fill: #fefefe;"/>
</svg>