<svg width="1920" height="1080" viewBox="0 0 1920 1080" fill="none" xmlns="http://www.w3.org/2000/svg">
<path d="M310.73 507.58C314.137 507.629 315.662 506.155 315.306 503.156C314.95 500.157 313.585 498.464 311.213 498.079C308.84 497.694 307.315 499.169 306.637 502.504C305.96 505.838 307.324 507.53 310.73 507.58Z" stroke="white"/>
<path d="M310.766 510.631C317.98 510.838 320.916 508.09 319.574 502.386C318.233 496.682 315.525 493.661 311.45 493.321C307.376 492.982 304.44 495.73 302.642 501.566C300.845 507.402 303.553 510.423 310.766 510.631Z" stroke="white"/>
<path d="M310.765 513.524C321.226 513.905 325.768 509.761 324.392 501.093C323.017 492.424 318.963 487.717 312.231 486.972C305.499 486.227 300.956 490.37 298.603 499.403C296.25 508.435 300.303 513.142 310.765 513.524Z" stroke="white"/>
<path d="M830.138 1002.54C830.283 1009.78 835.827 1014.08 846.771 1015.44L877.197 1018.87C886.538 1019.79 896.041 1019.97 905.705 1019.39C915.369 1018.82 924.963 1017.85 934.488 1016.49C944.013 1015.14 953.454 1013.32 962.812 1011.04C972.169 1008.76 981.447 1006.2 990.646 1003.37L1018 994.129L1044.8 983.403L1071.09 971.457L1096.91 958.532L1122.18 944.58L1146.97 929.771L1171.26 914.156L1194.98 897.695L1218.16 880.474L1240.69 862.425L1262.49 843.496L1283.51 823.696L1303.61 802.973L1322.66 781.275C1328.82 773.875 1334.74 766.288 1340.42 758.515C1346.1 750.742 1351.51 742.783 1356.65 734.64C1361.79 726.496 1366.55 718.136 1370.94 709.56C1375.32 700.984 1379.28 692.216 1382.82 683.257C1386.36 674.298 1389.4 665.17 1391.96 655.872C1394.51 646.575 1396.27 637.129 1397.24 627.534C1398.2 617.939 1398.4 608.315 1397.83 598.662C1397.26 589.008 1395.33 579.625 1392.04 570.515C1388.76 561.404 1384.36 552.861 1378.85 544.887C1373.33 536.913 1366.76 529.959 1359.13 524.024C1351.49 518.089 1343.52 512.684 1335.21 507.811C1326.91 502.938 1318.38 498.486 1309.63 494.457" stroke="white"/>
<path d="M830.138 1001.22C824.269 1009.13 826.624 1016.47 837.202 1023.23C847.78 1030 858.323 1035.02 868.832 1038.3C879.342 1041.59 890.136 1044.13 901.217 1045.92C912.297 1047.72 923.441 1048.62 934.648 1048.63C945.855 1048.63 957.015 1047.93 968.128 1046.53C979.241 1045.12 990.27 1043.25 1001.22 1040.91C1012.16 1038.57 1023.01 1035.84 1033.76 1032.7C1044.51 1029.57 1055.12 1026.05 1065.61 1022.13L1096.78 1009.67C1107.07 1005.27 1117.24 1000.6 1127.28 995.655L1157.06 980.154L1186.11 963.333L1214.45 945.339L1242.04 926.221L1268.78 905.921L1294.59 884.463L1319.39 861.838L1343.06 838.03C1350.75 829.897 1358.18 821.538 1365.37 812.951C1372.55 804.365 1379.45 795.561 1386.08 786.539C1392.71 777.516 1399.01 768.271 1404.98 758.801C1410.95 749.332 1416.55 739.643 1421.77 729.736C1426.99 719.828 1431.68 709.672 1435.82 699.269C1439.97 688.865 1443.52 678.257 1446.47 667.445C1449.42 656.633 1451.58 645.661 1452.94 634.528C1454.3 623.395 1454.6 612.225 1453.84 601.016C1453.08 589.808 1450.95 578.847 1447.43 568.134C1443.91 557.421 1438.64 547.629 1431.63 538.76C1424.62 529.89 1416.28 522.524 1406.62 516.66C1396.95 510.796 1386.66 506.539 1375.74 503.888C1364.82 501.238 1353.77 499.515 1342.57 498.72C1331.37 497.925 1320.39 495.914 1309.63 492.688" stroke="white"/>
<path d="M830.138 999.891C819.793 1013.74 822.662 1027.94 838.744 1042.5C854.826 1057.06 871.538 1067.77 888.881 1074.65" stroke="white"/>
<path d="M830.138 998.566C815.633 1004.52 810.928 1015.76 816.022 1032.29C821.116 1048.81 827.956 1062.94 836.543 1074.65" stroke="white"/>
<path d="M830.138 997.242C814.45 1001.13 805.39 1011.26 802.956 1027.64C800.523 1044.02 800.218 1059.69 802.04 1074.65" stroke="white"/>
<path d="M830.138 995.918C810.865 999.233 796.709 1009.32 787.672 1026.17C778.634 1043.02 769.567 1059.18 760.469 1074.65" stroke="white"/>
<path d="M697.36 1074.66C689.868 1053.29 690.048 1032.06 697.902 1010.97C705.756 989.876 718.203 972.05 735.243 957.493C752.283 942.936 772.153 935.04 794.853 933.806C817.554 932.571 837.162 940.126 853.677 956.47C870.192 972.814 877.628 992.342 875.985 1015.05C874.341 1037.76 866.082 1057.63 851.208 1074.66" stroke="white"/>
<path d="M790.137 1065.12C768.653 1062.33 754.286 1050.56 747.038 1029.81C739.789 1009.06 743.56 990.345 758.351 973.671C773.142 956.997 791.32 950.071 812.886 952.894C834.452 955.718 848.792 967.651 855.907 988.694C863.021 1009.74 859.209 1028.43 844.47 1044.78C829.732 1061.13 811.621 1067.91 790.137 1065.12Z" stroke="white"/>
<path d="M810.054 1040.33C785.918 1041.95 772.955 1030.82 771.165 1006.93C769.375 983.043 780.798 969.916 805.435 967.549C830.072 965.183 843.035 976.317 844.325 1000.95C845.614 1025.58 834.19 1038.71 810.054 1040.33Z" stroke="white"/>
<path d="M810.069 1027.3C792.954 1027.53 784.378 1019.11 784.342 1002.03C784.306 984.954 792.889 976.311 810.091 976.101C827.292 975.892 835.868 984.315 835.817 1001.37C835.767 1018.42 827.184 1027.07 810.069 1027.3Z" stroke="white"/>
<path d="M810.298 1015.65C800.81 1015.51 796.316 1010.47 796.817 1000.53C797.319 990.599 802.083 985.97 811.109 986.647C820.136 987.323 824.629 992.362 824.589 1001.76C824.55 1011.17 819.786 1015.79 810.298 1015.65Z" stroke="white"/>
<path d="M810.201 1012.71C803.093 1012.65 799.866 1009.13 800.523 1002.14C801.179 995.159 804.618 991.875 810.841 992.293C817.063 992.711 820.289 996.232 820.519 1002.86C820.749 1009.48 817.309 1012.76 810.201 1012.71Z" stroke="white"/>
<path d="M810.188 1009.88C805.264 1009.85 803.029 1007.41 803.484 1002.57C803.938 997.729 806.321 995.454 810.631 995.743C814.942 996.033 817.176 998.472 817.335 1003.06C817.495 1007.65 815.112 1009.92 810.188 1009.88Z" stroke="white"/>
<path d="M810.162 1004.24C809.607 1004.23 809.354 1003.96 809.406 1003.41C809.457 1002.87 809.726 1002.61 810.212 1002.64C810.698 1002.68 810.95 1002.95 810.968 1003.47C810.986 1003.99 810.718 1004.24 810.162 1004.24Z" stroke="white"/>
<path d="M810.175 1007.06C807.436 1007.04 806.192 1005.68 806.445 1002.99C806.698 1000.3 808.024 999.032 810.422 999.193C812.82 999.355 814.064 1000.71 814.152 1003.26C814.241 1005.82 812.915 1007.08 810.175 1007.06Z" stroke="white"/>
<path d="M846.625 7.08984C820.462 50.0527 794.242 50.0527 767.963 7.08984" stroke="white"/>
<path d="M837.172 7.08984C819.155 33.676 801.027 33.676 782.79 7.08984" stroke="white"/>
<path d="M826.766 7.08984C815.779 24.3657 805.126 24.3657 794.805 7.08984" stroke="white"/>
<path d="M828.452 7.09152L830.138 10.857L850.117 19.7735L864.607 24.5614L870.095 27.4954L890.074 34.1912L910.053 39.4267L930.032 43.7126L935.001 44.5401L950.011 47.4238L969.99 50.4749L989.968 52.9862L1009.95 55.0865L1029.93 56.8753L1049.9 58.4335L1069.88 59.8296L1144.77 64.5189L1169.78 66.1508L1209.74 69.0131L1229.71 70.5973L1249.69 72.2924L1269.67 74.0963L1309.63 77.984L1369.57 84.1305L1389.54 86.1257L1409.52 88.0086L1429.5 89.7147L1449.48 91.181L1469.46 92.3445L1489.44 93.1454L1509.42 93.5298L1529.4 93.452L1549.37 92.8759L1569.35 91.7759L1589.33 90.1372L1609.31 87.9551L1629.29 85.2341L1649.27 82.0407L1669.25 78.3616L1689.23 74.2009L1709.2 69.5829L1729.18 64.5339L1749.16 59.1697L1769.14 53.4278L1789.12 47.3343L1809.1 40.9625L1829.08 34.3239L1849.06 27.4031L1869.04 20.2683L1889.01 12.9207L1908.99 5.34766" stroke="white"/>
<path d="M857.736 7.08984L870.096 8.80429L890.074 10.7294L910.053 12.0489L930.032 12.881L950.011 13.3165L969.99 13.4329L989.969 13.2978L1009.95 12.9702L1029.93 12.5015L1069.88 11.3111L1129.82 9.37064L1169.78 8.2182L1209.74 7.27112L1219.47 7.08984" stroke="white"/>
<path d="M809.335 7.08984C807.39 9.39959 805.873 12.1672 804.784 15.3926C801.139 26.1946 798.73 37.2296 797.56 48.4977C796.39 59.7658 796.488 71.0268 797.856 82.2807C799.224 93.5346 801.807 104.488 805.604 115.14C809.4 125.792 814.262 135.95 820.187 145.614C826.113 155.277 832.98 164.212 840.789 172.42C848.598 180.627 857.031 188.115 866.086 194.882C875.142 201.65 884.596 207.802 894.449 213.338C904.302 218.875 914.444 223.811 924.875 228.146C935.307 232.482 945.877 236.437 956.585 240.011C967.294 243.586 978.096 246.852 988.991 249.811L1021.82 258.12L1054.84 265.623L1087.91 272.903L1120.9 280.568L1153.68 289.067C1164.57 292.054 1175.34 295.417 1185.99 299.154C1196.65 302.892 1207.17 306.984 1217.55 311.432C1227.93 315.879 1238 320.953 1247.76 326.654C1257.51 332.354 1266.87 338.65 1275.84 345.542C1284.8 352.434 1292.97 360.203 1300.33 368.85C1307.69 377.497 1313.7 387.032 1318.35 397.454C1323 407.875 1325.9 418.586 1327.04 429.588C1328.19 440.589 1328.48 452.412 1327.92 465.058C1327.37 477.703 1321.27 485.155 1309.63 487.412C1286.77 466.06 1259.79 450.435 1228.68 440.539C1197.57 430.64 1165.91 424.92 1133.7 423.38C1101.49 421.84 1069.32 421.887 1037.17 423.522C1005.02 425.157 972.976 427.903 941.037 431.759C909.097 435.615 877.344 441.054 845.777 448.075C814.211 455.097 784.571 467.295 756.857 484.671C729.143 502.047 708.2 525.462 694.027 554.915C679.854 584.369 669.429 614.854 662.751 646.372C656.072 677.89 650.94 709.651 647.353 741.656C643.766 773.66 642.76 805.804 644.337 838.086C645.913 870.369 653.65 901.612 667.547 931.815C681.444 962.019 704.163 982.779 735.702 994.097C767.242 1005.42 798.721 1005.14 830.138 993.269" stroke="white"/>
<path d="M799.862 7.08984C795.832 10.441 792.377 14.631 789.498 19.6599C780.981 34.5328 773.375 49.4888 766.678 64.5278C759.982 79.5668 756.141 95.4422 755.155 112.154C754.17 128.866 755.864 145.264 760.235 161.349C764.607 177.435 771.537 192.346 781.026 206.082C790.514 219.819 801.734 231.899 814.684 242.323C827.633 252.748 841.538 261.639 856.397 268.996C871.256 276.354 886.559 282.595 902.306 287.718C918.053 292.842 934.001 297.212 950.15 300.827C966.299 304.443 982.524 307.664 998.824 310.49L1047.77 318.693L1096.68 327.073C1112.96 330.017 1129.15 333.427 1145.24 337.303C1161.33 341.179 1177.18 345.874 1192.8 351.388C1208.41 356.903 1223.47 363.708 1237.98 371.806C1252.5 379.903 1265.68 389.664 1277.55 401.089C1289.41 412.514 1299.05 426.316 1306.47 442.494C1313.9 458.671 1314.95 473.04 1309.63 485.6" stroke="white"/>
<path d="M813.083 7.08984C811.711 9.74943 811.292 13.1297 811.824 17.2308C813.328 28.8277 815.221 39.5643 817.505 49.4407C819.788 59.317 823.336 68.8651 828.149 78.0849C832.961 87.3047 838.413 96.0939 844.503 104.453C850.594 112.811 857.436 120.516 865.03 127.567C872.623 134.618 880.657 141.109 889.132 147.038C897.607 152.968 906.371 158.44 915.423 163.455C924.475 168.469 933.779 172.959 943.335 176.925C952.89 180.89 962.549 184.58 972.31 187.994C982.071 191.409 991.924 194.535 1001.87 197.373L1031.81 205.453L1061.95 212.816L1092.16 219.832L1122.35 226.939L1152.43 234.503L1182.27 242.961L1211.74 252.64C1221.5 256.076 1231.12 259.85 1240.61 263.962C1250.09 268.074 1259.42 272.535 1268.58 277.343C1277.74 282.151 1286.61 287.454 1295.18 293.254C1303.76 299.053 1311.94 305.367 1319.74 312.194C1327.54 319.021 1334.63 326.527 1341.03 334.71C1347.43 342.894 1352.76 351.715 1357.02 361.173C1361.28 370.631 1364.11 380.517 1365.5 390.831C1366.89 401.146 1366.43 411.385 1364.1 421.55C1361.77 431.715 1358.23 441.362 1353.48 450.491C1348.74 459.62 1343.01 468.118 1336.32 475.984C1329.62 483.851 1320.72 488.237 1309.63 489.143" stroke="white"/>
<path d="M823.492 7.08984C818.91 13.7133 820.093 22.405 827.041 33.165C836.344 47.572 846.049 60.0141 856.159 70.4913C866.268 80.9685 877.595 90.345 890.141 98.6208C902.688 106.897 915.775 114.082 929.402 120.175C943.03 126.269 956.947 131.603 971.153 136.177C985.36 140.751 999.694 144.865 1014.16 148.517C1028.62 152.17 1043.15 155.533 1057.75 158.607L1101.57 167.638L1145.39 176.7L1189.01 186.638C1203.5 190.17 1217.9 194.061 1232.2 198.309C1246.5 202.558 1260.66 207.259 1274.66 212.413C1288.66 217.566 1302.43 223.284 1315.97 229.567C1329.5 235.849 1342.73 242.735 1355.65 250.224C1368.57 257.713 1380.97 265.972 1392.84 275.001C1404.72 284.03 1416.03 293.749 1426.8 304.159C1437.56 314.568 1447.23 325.789 1455.79 337.82C1464.36 349.851 1471.48 363.286 1477.13 378.123C1482.79 392.961 1480.24 405.929 1469.48 417.028C1458.73 428.127 1446.74 437.073 1433.5 443.865C1420.27 450.658 1406.86 457.065 1393.29 463.087C1379.72 469.109 1366.2 475.549 1352.75 482.408C1339.29 489.266 1324.92 492.102 1309.63 490.914" stroke="white"/>
<path d="M823.961 7.08984L830.138 20.8875L837.325 24.5597L850.117 37.8395L861.802 44.5385L870.096 51.2088L890.075 61.9916L896.324 64.5173L910.053 71.2194L930.032 78.7701L948.483 84.4961L950.011 85.0291L969.99 90.622L989.969 95.3484L1009.95 99.4457L1029.93 103.081L1038.51 104.475L1049.91 106.422L1069.88 109.53L1109.84 115.323L1149.8 121.066L1172.23 124.454L1189.76 127.241L1209.74 130.603L1229.71 134.199L1249.69 138.06L1269.67 142.205L1289.65 146.65L1309.63 151.407L1329.61 156.459L1359.43 164.411L1409.52 178.87L1428.93 184.39L1429.5 184.568L1449.48 190.232L1469.46 195.479L1489.44 200.127L1509.42 204.017L1511.81 204.369L1529.4 207.175L1549.37 209.327L1569.35 210.411L1589.33 210.432L1609.31 209.429L1629.29 207.466L1649.27 204.622L1650.66 204.369L1669.25 201.102L1689.23 196.883L1709.21 192.03L1729.18 186.613L1736.67 184.39L1749.16 180.786L1769.14 174.564L1789.12 167.941L1809.1 161.025L1829.08 153.851L1849.06 146.385L1869.04 138.74L1889.01 130.881L1908.99 122.826" stroke="white"/>
<path d="M1054.12 1074.65L1069.88 1070.46L1089.86 1064.22L1092.09 1063.46L1109.84 1057.23L1129.82 1049.4L1143.64 1043.48L1149.8 1040.78L1169.78 1031.43L1185.49 1023.5L1189.76 1021.3L1209.73 1010.43L1221.71 1003.52C1248.08 987.992 1273.51 971.066 1298.02 952.744C1322.53 934.422 1345.92 914.763 1368.19 893.768C1390.46 872.773 1411.26 850.403 1430.6 826.658C1449.94 802.913 1467.34 777.814 1482.79 751.361C1498.24 724.907 1511.09 697.197 1521.34 668.23C1531.58 639.262 1538.67 609.725 1542.61 579.619C1546.55 549.513 1546.78 518.169 1543.31 485.589C1539.85 453.009 1551.43 427.786 1578.05 409.92C1604.67 392.053 1631.84 376.9 1659.56 364.461L1742.75 326.429L1825.94 287.735L1908.99 248.844" stroke="white"/>
<path d="M398.944 7.08984C400.697 37.8758 391.506 68.2215 371.371 98.1268C335.981 150.689 299.045 199.696 260.562 245.148C222.08 290.6 194.112 343.374 176.659 403.471C159.206 463.568 169.165 519.783 206.535 572.115C243.905 624.447 293.674 649.958 355.84 648.646C418.006 647.335 478.517 638.883 537.374 623.292C596.23 607.701 653.763 612.301 709.972 637.092C766.181 661.883 818.025 692.648 865.503 729.388C912.982 766.128 955.248 808.27 992.301 855.813C1029.35 903.356 1058.79 955.151 1080.61 1011.2C1088.8 1032.24 1096.6 1053.39 1104.02 1074.65" stroke="white"/>
<path d="M193.476 7.08984C196.029 41.6207 194.165 76.2428 187.885 110.956C177.633 167.613 164.081 223.319 147.228 278.073C130.375 332.827 122.704 389.427 124.217 447.872C125.729 506.317 145.244 558.548 182.762 604.564C220.28 650.58 267.631 679.6 324.815 691.623C381.998 703.645 439.182 706.502 496.365 700.193C553.548 693.884 610.451 695.806 667.075 705.958C723.698 716.111 777.199 735.385 827.58 763.78C877.96 792.175 921.459 828.759 958.077 873.532C994.696 918.304 1021.2 968.299 1037.59 1023.52C1042.63 1040.51 1047.37 1057.56 1051.79 1074.65" stroke="white"/>
<path d="M61.7559 7.08984C70.5874 61.9269 73.7478 117.082 71.2372 172.556C68.5113 232.787 66.3084 293.119 64.6287 353.55C62.949 413.982 72.0149 473.204 91.8266 531.218C111.638 589.232 145.292 637.896 192.788 677.209C240.283 716.522 293.906 742.133 353.655 754.044C413.404 765.953 473.417 770.883 533.694 768.832C593.97 766.781 654.152 770.283 714.239 779.338C774.326 788.393 829.484 810.983 879.712 847.108C929.941 883.233 964.475 930.505 983.316 988.924C992.459 1017.28 999.613 1045.85 1004.78 1074.65" stroke="white"/>
<path d="M1320.36 7.08984C1320.55 22.8969 1320.22 38.7395 1319.37 54.6177C1316.72 104.167 1306.99 152.184 1290.19 198.67C1273.38 245.156 1252.65 290.054 1228 333.365C1203.35 376.676 1190.73 423.964 1190.15 475.229C1189.57 526.495 1208.06 569.501 1245.62 604.248C1283.18 638.995 1325.35 664.557 1372.15 680.934C1418.95 697.311 1463.97 717.456 1507.23 741.367C1550.48 765.279 1590.53 793.739 1627.38 826.747C1664.23 859.755 1698.82 894.892 1731.15 932.16C1763.48 969.427 1794.34 1007.87 1823.73 1047.48L1843.67 1074.65" stroke="white"/>
<path d="M1250.78 7.08984C1251.09 31.1481 1250.06 55.2467 1247.7 79.3859C1242.55 131.915 1231.02 182.845 1213.11 232.175C1195.19 281.506 1179.16 331.864 1165.03 383.249C1150.89 434.635 1152.61 485.89 1170.17 537.015C1187.73 588.14 1217.79 629.749 1260.35 661.841C1302.9 693.934 1346.87 723.125 1392.25 749.413C1437.63 775.701 1480.51 805.707 1520.89 839.431C1561.26 873.155 1598.96 909.601 1633.97 948.772C1668.98 987.942 1702.16 1028.58 1733.52 1070.68L1736.48 1074.65" stroke="white"/>
<path d="M1187.97 7.08984C1188.81 40.7167 1186.82 74.3095 1182 107.868C1173.96 163.866 1161.56 218.865 1144.81 272.865C1128.05 326.865 1119.21 382.512 1118.28 439.806C1117.36 497.1 1131.96 550.219 1162.08 599.162C1192.19 648.106 1229.54 690.029 1274.1 724.931C1318.67 759.833 1362.69 795.208 1406.18 831.057C1449.67 866.906 1490.45 905.675 1528.51 947.364C1565.71 988.105 1600.81 1030.53 1633.82 1074.65" stroke="white"/>
<path d="M1130.76 7.08984C1131.81 36.3138 1130.51 65.5748 1126.84 94.8728C1119.86 150.697 1109.12 205.761 1094.61 260.064C1080.1 314.367 1073.13 369.866 1073.71 426.562C1074.3 483.258 1087.51 536.905 1113.35 587.504C1139.19 638.102 1171.89 683.372 1211.46 723.312C1251.03 763.253 1291.17 802.47 1331.88 840.964C1372.59 879.458 1411.26 919.944 1447.89 962.424C1479.17 998.703 1509 1036.11 1537.37 1074.65" stroke="white"/>
<path d="M1079 7.08984C1079.9 29.2065 1079.14 51.4304 1076.74 73.7615C1070.74 129.411 1060.33 184.14 1045.5 237.948C1030.67 291.756 1023.15 346.742 1022.93 402.908C1022.71 459.073 1033.92 512.915 1056.55 564.435C1079.18 615.954 1108.06 663.363 1143.2 706.662C1178.34 749.96 1214.79 792.041 1252.54 832.905C1290.3 873.768 1326.63 915.87 1361.55 959.212C1391.75 996.701 1420.62 1035.18 1448.15 1074.65" stroke="white"/>
<path d="M1032.03 7.08984C1032.42 19.2657 1032.18 31.5428 1031.31 43.9211C1027.34 100.297 1016.28 155.043 998.135 208.16C979.989 261.276 969.16 315.981 965.648 372.275C962.136 428.568 970.977 482.922 992.172 535.337C1013.37 587.752 1040.31 636.654 1073.01 682.042C1105.71 727.43 1139.84 771.668 1175.4 814.756C1210.96 857.844 1245.33 901.867 1278.51 946.826C1309.23 988.464 1338.54 1031.07 1366.43 1074.65" stroke="white"/>
<path d="M989.3 7.08984C991.098 61.5828 980.993 113.517 958.986 162.892C935.501 215.581 916.952 270.073 903.337 326.366C889.723 382.658 892.966 438.176 913.068 492.919C933.169 547.662 959.67 598.435 992.569 645.237C1025.47 692.039 1059.53 737.96 1094.75 782.999C1129.97 828.039 1163.74 874.148 1196.06 921.328C1228.37 968.509 1258.76 1016.9 1287.2 1066.51L1291.86 1074.65" stroke="white"/>
<path d="M953.995 7.08984C954.555 38.0533 949.174 67.948 937.854 96.7742C925.301 128.739 909.585 158.867 890.707 187.157C871.828 215.448 853.804 244.415 836.632 274.058C819.461 303.701 808.856 335.692 804.818 370.032C800.78 404.372 805.273 437.511 818.297 469.448C831.322 501.385 847.36 531.449 866.413 559.641C885.465 587.832 905.575 615.245 926.742 641.88C947.909 668.516 969.311 694.956 990.947 721.2C1012.58 747.444 1033.79 774.036 1054.57 800.976C1075.35 827.915 1095.23 855.503 1114.22 883.739C1133.21 911.975 1151.16 940.855 1168.07 970.378C1184.99 999.901 1201.13 1029.84 1216.5 1060.19L1223.78 1074.65" stroke="white"/>
<path d="M923.368 7.08984C923.361 22.1396 921.139 36.9589 916.702 51.5476C910.703 71.2757 901.951 89.6431 890.449 106.65C878.946 123.657 865.762 139.19 850.898 153.248C836.034 167.307 820.358 180.361 803.868 192.411C787.378 204.461 770.621 216.109 753.595 227.356L702.587 261.138C685.608 272.413 668.188 283.158 650.328 293.372C632.468 303.587 613.366 310.007 593.022 312.633C572.677 315.259 552.523 314.066 532.558 309.056C512.592 304.045 492.529 299.9 472.368 296.621C452.207 293.341 431.887 292.191 411.408 293.171C390.93 294.151 370.888 297.665 351.283 303.712C331.678 309.759 313.139 318.166 295.666 328.934C278.194 339.702 262.585 352.762 248.84 368.115C235.095 383.468 224.265 400.681 216.349 419.756C208.433 438.83 204.505 458.696 204.565 479.356C204.625 500.015 209.208 519.701 218.315 538.412C227.422 557.124 240.406 572.553 257.269 584.699C274.132 596.845 292.717 604.838 313.025 608.678C333.333 612.519 353.571 612.331 373.739 608.113C393.907 603.896 413.067 597.05 431.22 587.574C449.373 578.099 466.596 567.198 482.889 554.871C499.182 542.543 515.129 529.853 530.73 516.8C546.331 503.746 563.553 492.517 582.396 483.113C601.239 473.708 620.639 472.553 640.597 479.648C660.555 486.742 678.68 496.432 694.973 508.716C711.265 521 727.206 533.727 742.794 546.896C758.382 560.064 773.747 573.493 788.888 587.181L833.906 628.699L878.22 670.978L921.709 714.1C936.029 728.653 950.073 743.469 963.84 758.549C977.608 773.628 990.973 789.057 1003.94 804.835C1016.9 820.613 1029.35 836.789 1041.29 853.362C1053.22 869.935 1064.57 886.902 1075.32 904.263C1086.07 921.625 1096.3 939.288 1106.01 957.254C1115.72 975.219 1124.91 993.448 1133.57 1011.94C1142.23 1030.43 1150.54 1049.08 1158.49 1067.88L1161.35 1074.65" stroke="white"/>
<path d="M125.882 1074.47C137.82 1061.26 149.408 1047.74 160.647 1033.93C171.886 1020.12 182.722 1005.99 193.155 991.561C203.589 977.128 213.57 962.388 223.097 947.341C232.625 932.293 241.672 916.963 250.238 901.349C258.804 885.735 266.912 869.887 274.56 853.804C282.209 837.721 289.374 821.426 296.054 804.917C302.735 788.409 308.863 771.695 314.439 754.777C320.014 737.859 324.886 720.742 329.054 703.428C333.221 686.113 336.455 668.6 338.755 650.89C341.056 633.18 341.742 615.465 340.814 597.744C339.886 580.024 337.364 562.185 333.246 544.226C329.129 526.266 321.61 511.407 310.689 499.648" stroke="white"/>
<path d="M247.981 1074.65C257.437 1061.15 266.408 1047.32 274.895 1033.17C285.95 1014.74 296.092 995.816 305.321 976.405C314.549 956.994 322.963 937.239 330.563 917.14C338.162 897.042 345.046 876.701 351.213 856.119C357.379 835.537 362.842 814.768 367.6 793.814C372.357 772.86 376.206 751.733 379.146 730.434C382.086 709.134 383.565 687.729 383.583 666.217C383.602 644.705 381.252 623.357 376.535 602.175C371.817 580.992 363.269 561.568 350.89 543.901C338.51 526.235 325.11 510.791 310.689 497.57" stroke="white"/>
<path d="M371.327 1074.65L380.841 1052.69C390.499 1028.71 398.469 1004.19 404.75 979.129C411.032 954.071 416.347 928.819 420.695 903.373C425.044 877.926 428.818 852.397 432.017 826.785C435.215 801.173 437.59 775.47 439.141 749.678C440.692 723.885 440.315 698.115 438.01 672.367C435.705 646.618 429.827 621.476 420.376 596.938C410.926 572.401 395.934 552.103 375.4 536.044C354.867 519.985 333.297 506.468 310.689 495.492" stroke="white"/>
<path d="M1454.99 1074.65L1469.46 1064.41L1470.78 1063.46L1489.44 1049.7L1497.71 1043.48L1509.42 1034.44L1523.39 1023.5L1529.4 1018.66L1547.96 1003.52C1610.53 950.478 1670.6 894.729 1728.18 836.272C1785.75 777.815 1846.03 722.294 1908.99 669.707" stroke="white"/>
<path d="M1579.8 1074.65L1615.98 1047.39L1670.74 1003.52C1749.97 936.031 1829.38 868.772 1908.99 801.742" stroke="white"/>
<path d="M1333.26 1074.65L1349.59 1064.47L1351.17 1063.46L1369.56 1051.38L1381.16 1043.48L1389.54 1037.62L1409.1 1023.5L1429.5 1008.04L1435.32 1003.52C1522.76 932.722 1601.08 852.814 1670.27 763.798C1739.47 674.781 1819.04 596.321 1908.99 528.418" stroke="white"/>
<path d="M1207.09 1074.65L1209.73 1073.42L1229.55 1063.46L1249.69 1052.66L1265.81 1043.48L1269.67 1041.23L1289.65 1029.09L1298.45 1023.5L1309.63 1016.21L1328.24 1003.52C1408.24 948.883 1475.47 882.21 1529.93 803.498C1584.4 724.787 1639.28 646.433 1694.58 568.435C1749.88 490.437 1821.35 429.306 1908.99 385.039" stroke="white"/>
<path d="M1713.84 1074.66L1806.9 1003.52L1908.99 923.965" stroke="white"/>
<path d="M508.407 1074.65C510.355 1051.15 510.596 1027.67 509.128 1004.22C507.269 974.51 506.047 944.784 505.463 915.043C504.878 885.303 504.907 855.56 505.55 825.816C506.191 796.071 506.468 766.331 506.379 736.593C506.291 706.855 503.976 677.148 499.436 647.472C494.895 617.796 483.978 590.378 466.683 565.219C449.39 540.06 426.432 522.663 397.812 513.029C369.192 503.395 340.151 496.857 310.689 493.414" stroke="white"/>
<path d="M11.0073 451.582C19.205 489.374 31.0948 525.986 46.6768 561.418C62.2588 596.851 82.004 629.827 105.912 660.346C129.821 690.865 157.335 717.68 188.455 740.789C219.575 763.899 252.995 782.918 288.713 797.846C324.432 812.774 361.317 823.72 399.371 830.685C437.424 837.65 475.755 840.98 514.362 840.675C552.97 840.37 591.487 838.506 629.916 835.083C668.345 831.661 706.913 831.738 745.62 835.317C784.327 838.895 820.723 850.539 854.811 870.249C888.898 889.959 915.03 917.31 933.207 952.301C951.384 987.292 960.875 1024.23 961.679 1063.12L961.838 1074.65" stroke="white"/>
<path d="M11.0073 619.461C28.541 650.992 48.7953 680.669 71.7703 708.49C94.7452 736.312 120.091 761.775 147.808 784.879C175.525 807.982 205.083 828.414 236.481 846.172C267.879 863.931 300.557 878.887 334.516 891.041C368.475 903.195 403.358 911.846 439.167 916.995C474.975 922.143 510.765 922.267 546.537 917.364C582.31 912.461 617.466 904.832 652.006 894.477C686.546 884.122 722.126 878.5 758.746 877.613C795.366 876.725 829.137 886.817 860.058 907.889C890.978 928.961 910.825 957.57 919.596 993.716C926.222 1021.02 927.608 1048 923.755 1074.65" stroke="white"/>
<path d="M11.0073 733.051C32.9248 761.699 56.7258 788.683 82.4103 814C108.095 839.318 135.366 862.791 164.224 884.418C193.081 906.045 223.233 925.696 254.679 943.371C286.126 961.046 318.606 976.485 352.12 989.688C385.635 1002.89 420.373 1012.78 456.333 1019.37C492.294 1025.95 527.586 1023.62 562.209 1012.37C596.832 1001.13 628.355 984.198 656.777 961.58C685.198 938.961 717.547 922.845 753.822 913.234C790.098 903.622 823.621 910.516 854.393 933.915C885.165 957.314 899.335 987.973 896.904 1025.89C895.797 1043.15 892.554 1059.41 887.174 1074.65" stroke="white"/>
<path d="M1859.31 1074.65L1908.99 1038.68" stroke="white"/>
<path d="M11.0073 955.125L30.9861 976.072L50.9649 996.294L70.9437 1015.87L90.9225 1034.87L100.286 1043.48L110.901 1053.37L122.15 1063.46L130.88 1071.42L134.555 1074.65" stroke="white"/>
<path d="M11.0073 841.398L13.059 843.689L30.9861 863.31L31.3266 863.668L50.5878 883.647L50.9649 884.034L70.9437 903.678L90.9225 922.366L110.901 940.18L130.88 957.193L150.859 973.461L163.868 983.541L170.838 989.032L190.263 1003.52L190.816 1003.94L210.795 1018.39L218.274 1023.5L230.774 1032.28L247.642 1043.48L250.753 1045.61L270.732 1058.58L278.691 1063.46L290.71 1071.13L296.545 1074.65" stroke="white"/>
<path d="M859.648 7.08984C858.582 15.4132 855.452 23.3539 850.261 30.9122C841.249 44.0313 829.047 52.4626 813.655 56.2061C798.262 59.9496 783.943 57.4349 770.699 48.662C757.454 39.8891 748.922 27.9303 745.104 12.7854L743.964 7.08984" stroke="white"/>
<path d="M876.262 7.08984C875.81 11.2352 875.003 15.4453 873.841 19.7202C867.628 42.5737 854.558 59.9978 834.632 71.9922C814.706 83.9867 793.269 88.072 770.323 84.2482C747.377 80.4244 728.68 69.0735 714.234 50.1954C703.96 36.7694 699.015 22.4009 699.398 7.08984" stroke="white"/>
<path d="M897.328 7.08984C897.017 14.2685 895.954 21.4974 894.141 28.7766C888.463 51.5637 877.479 71.255 861.189 87.8505C844.9 104.446 825.985 116.995 804.445 125.496C782.906 133.998 760.561 138.182 737.41 138.048C714.26 137.915 691.978 133.693 670.562 125.383C649.147 117.073 629.5 105.164 611.623 89.6551C593.746 74.1463 583.527 54.7079 580.966 31.3401C580.044 22.9263 580.276 14.8429 581.662 7.08984" stroke="white"/>
<path d="M792.782 7.08984C780.35 12.312 768.402 18.8606 756.937 26.7357C734.404 42.2133 713.989 60.2526 695.692 80.8535C677.396 101.455 665.666 125.407 660.504 152.712C655.342 180.017 656.616 207.068 664.325 233.864C672.034 260.66 686.238 283.313 706.938 301.822C727.637 320.332 751.262 333.282 777.81 340.672C804.359 348.062 831.138 353.515 858.149 357.031C885.16 360.547 912.267 363.201 939.472 364.992L1021.09 370.069C1048.3 371.662 1075.46 373.95 1102.58 376.932C1129.69 379.913 1156.47 384.802 1182.92 391.597C1209.37 398.393 1234.44 409.089 1258.13 423.685C1281.83 438.28 1299 458.546 1309.63 484.481" stroke="white"/>
<path d="M1397.96 7.08984L1398.39 36.5258C1398.28 83.8078 1391.53 130.347 1378.15 176.143C1364.77 221.94 1342.59 262.667 1311.6 298.324C1280.61 333.981 1253.83 373.766 1231.25 417.68C1208.66 461.594 1210.36 505.134 1236.34 548.299C1262.32 591.464 1299.14 617.559 1346.78 626.582C1394.43 635.606 1441.3 644.908 1487.39 654.486C1533.49 664.065 1576.36 682.005 1616.01 708.304C1655.67 734.604 1692.34 764.234 1726.04 797.196C1759.75 830.157 1791.7 864.732 1821.89 900.921C1852.08 937.109 1881.12 974.195 1908.99 1012.18" stroke="white"/>
<path d="M1484.66 7.08984C1486.1 27.1683 1486.87 47.2879 1486.97 67.4485C1487.1 97.7941 1485.14 128.016 1481.08 158.115C1477.01 188.214 1469 217.476 1457.05 245.899C1445.09 274.323 1426.91 297.802 1402.5 316.337C1378.09 334.872 1352.51 351.388 1325.76 365.885C1299.01 380.382 1276.52 400.572 1258.29 426.455C1240.05 452.338 1234.79 480.847 1242.48 511.981C1250.18 543.114 1268.42 565.365 1297.21 578.731C1326 592.097 1355.53 596.363 1385.8 591.529C1416.07 586.695 1446.05 580.691 1475.74 573.516C1505.42 566.341 1535.25 566.109 1565.21 572.819C1595.17 579.529 1623.07 590.977 1648.92 607.162C1674.76 623.347 1699.23 641.263 1722.33 660.911C1745.43 680.559 1767.62 701.182 1788.9 722.782C1810.19 744.382 1830.8 766.598 1850.75 789.431C1870.69 812.264 1890.1 835.537 1908.99 859.249" stroke="white"/>
<path d="M1580.84 7.08984L1581.58 12.2017C1587.85 56.326 1592.46 100.527 1595.43 144.805C1598.39 189.083 1600.52 233.925 1601.83 279.331C1603.13 324.736 1616.61 365.923 1642.26 402.89C1667.91 439.858 1696.74 473.843 1728.75 504.845C1760.76 535.847 1791.72 567.835 1821.65 600.81C1851.57 633.784 1880.69 667.457 1908.99 701.829" stroke="white"/>
<path d="M1685.37 7.08984C1691.77 35.5237 1697.79 64.1003 1703.43 92.8197C1734.91 253.219 1803.43 397.176 1908.99 524.691" stroke="white"/>
<path d="M1794.12 7.08984C1825.37 106.532 1863.66 203.284 1908.99 297.347" stroke="white"/>
<path d="M11.0073 68.5551C36.1431 65.1227 61.3638 62.4993 86.6695 60.685C111.975 58.8706 137.317 58.0621 162.696 58.2595C188.074 58.457 213.378 59.9255 238.608 62.665C263.838 65.4044 288.781 70.0972 313.439 76.7433C338.096 83.3894 360.816 94.3093 381.597 109.503C402.379 124.697 418.141 144.01 428.884 167.443C439.626 190.876 446.772 215.239 450.32 240.531C453.869 265.823 453.091 291.058 447.987 316.236C442.882 341.414 433.01 364.425 418.369 385.27C403.728 406.115 388.048 426.373 371.329 446.044C354.609 465.715 334.396 480.12 310.689 489.259" stroke="white"/>
<path d="M11.0073 170.368C42.5106 168.14 74.0306 168.247 105.567 170.69C137.104 173.133 167.954 179.37 198.116 189.403C228.279 199.435 255.614 214.799 280.123 235.495C304.631 256.191 322.613 281.52 334.067 311.482C345.522 341.444 349.1 372.711 344.8 405.285C340.5 437.858 329.13 465.156 310.689 487.178" stroke="white"/>
<path d="M11.0073 259.59C35.244 258.237 59.4597 258.598 83.6542 260.674C107.849 262.75 131.652 267.102 155.064 273.732C178.476 280.361 200.595 290.088 221.419 302.914C242.243 315.739 260.17 331.792 275.199 351.072C290.229 370.352 301.073 392.07 307.732 416.228C314.391 440.386 315.376 463.344 310.689 485.101" stroke="white"/>
<path d="M11.0073 337.675C30.9102 335.976 50.8488 335.379 70.8234 335.885C90.7979 336.39 110.627 338.427 130.31 341.996C149.992 345.564 169.148 351.037 187.777 358.413C206.405 365.789 223.746 375.51 239.799 387.575C255.852 399.641 269.654 413.874 281.206 430.274C292.757 446.674 301.208 464.607 306.559 484.073" stroke="white"/>
<path d="M11.0073 407.528C28.2593 404.84 45.5959 402.837 63.017 401.518C80.4382 400.199 97.8741 399.977 115.325 400.851C132.775 401.725 150.1 403.766 167.298 406.975C184.495 410.183 201.206 415.101 217.43 421.73C233.654 428.358 248.815 436.907 262.915 447.376C277.014 457.845 288.838 470.077 298.387 484.072" stroke="white"/>
<path d="M11.0073 472.451C56.9555 459.791 104.072 452.817 152.356 451.528C200.641 450.24 246.158 461.088 288.907 484.073" stroke="white"/>
<path d="M11.0073 535.955C55.9425 518.417 102.215 504.313 149.826 493.644C197.436 482.975 245.245 481.93 293.254 490.509" stroke="white"/>
<path d="M11.0073 672.449L29.3462 660.266L47.7579 648.193L66.1866 636.146L84.7142 624.252L103.247 612.367L121.897 600.667L140.595 589.047L159.425 577.639L178.373 566.435L197.452 555.457L216.698 544.792L236.144 534.477L255.656 524.422C262.1 521.025 268.914 518.15 276.099 515.796C283.285 513.442 289.111 509.527 293.577 504.051" stroke="white"/>
<path d="M11.0073 752.209L30.8827 736.271L50.792 720.376L70.5884 704.338L90.2937 688.19L109.885 671.906L129.452 655.594L149.019 639.285L168.517 622.894L187.955 606.425L207.296 589.848L226.498 573.13L245.773 556.523L265.053 539.966L284.455 523.9C291.011 518.754 296.03 512.138 299.513 504.051" stroke="white"/>
<path d="M11.0073 843.387L33.3928 823.219L55.5403 802.791L77.4024 782.058L98.9734 761.023L120.243 739.683L141.178 718.014L161.751 696.004L181.977 673.673L201.88 651.054L221.421 628.126L240.453 604.777L258.666 580.798L275.977 556.115C281.619 547.78 286.943 539.341 291.948 530.797C296.953 522.253 301.454 513.337 305.45 504.051" stroke="white"/>
<path d="M11.0073 947.335L37.1807 922.283L62.8243 896.692L87.8086 870.455L112.163 843.634L135.864 816.234L158.891 788.264L181.084 759.631L202.425 730.353L222.845 700.431L242.263 669.844C248.59 659.555 254.637 649.103 260.406 638.487C266.174 627.871 271.622 617.093 276.748 606.152C281.874 595.211 286.635 584.131 291.033 572.912C295.431 561.692 299.273 550.223 302.559 538.505C305.845 526.786 308.555 515.22 310.689 503.809" stroke="white"/>
<path d="M11.0073 1062.72L42.8727 1032.28L73.8374 1000.92C84.0014 990.313 93.9554 979.511 103.699 968.516L132.347 935.031C141.701 923.703 150.823 912.19 159.713 900.493C168.602 888.796 177.242 876.917 185.634 864.857C194.026 852.797 202.157 840.565 210.027 828.159C217.897 815.753 225.498 803.184 232.831 790.454C240.164 777.724 247.196 764.829 253.929 751.772C260.663 738.714 267.038 725.482 273.055 712.078C279.072 698.673 284.648 685.09 289.785 671.326C294.921 657.562 299.469 643.592 303.427 629.414C307.386 615.237 310.484 600.93 312.723 586.493C314.961 572.057 316.419 557.222 317.098 541.989C317.777 526.756 315.641 513.336 310.689 501.73" stroke="white"/>
<path d="M830.138 989.296C808.961 992.039 795.838 984.396 790.77 966.368C785.702 948.34 782.854 930.685 782.224 913.404C781.595 896.123 783.027 878.896 786.521 861.723C790.015 844.55 794.799 827.782 800.873 811.418C806.947 795.054 814.202 779.227 822.637 763.936C831.073 748.646 840.458 733.966 850.793 719.896C861.128 705.826 872.362 692.514 884.495 679.959C896.629 667.404 909.518 655.689 923.165 644.812C936.811 633.935 950.983 623.797 965.679 614.397C980.376 604.997 995.493 596.331 1011.03 588.397C1026.56 580.463 1042.35 573.077 1058.39 566.238C1074.43 559.4 1090.65 553.019 1107.05 547.097C1123.45 541.175 1139.98 535.644 1156.64 530.504C1173.31 525.364 1190.1 520.699 1207.04 516.508C1223.97 512.317 1241.04 508.837 1258.26 506.067C1275.47 503.298 1292.6 500.042 1309.63 496.301C1320.55 499.591 1328.65 505.571 1333.94 514.239C1339.23 522.913 1343.99 532.168 1348.22 542.006C1352.45 551.845 1355.38 561.995 1357.02 572.458C1358.66 582.92 1358.94 593.449 1357.87 604.042C1356.79 614.636 1354.78 625.025 1351.83 635.209C1348.88 645.393 1345.28 655.34 1341.02 665.051C1336.77 674.761 1331.98 684.203 1326.67 693.375C1321.36 702.548 1315.61 711.437 1309.42 720.044C1303.24 728.65 1296.78 737.047 1290.06 745.234C1283.34 753.421 1276.37 761.394 1269.15 769.151L1246.91 791.842L1223.59 813.431L1199.38 834.013L1174.42 853.684L1148.81 872.493L1122.62 890.501L1095.89 907.68L1068.63 924.018L1040.89 939.513L1012.61 954.002L983.743 967.294L954.287 979.216C944.37 982.95 934.327 986.312 924.157 989.302C913.987 992.291 903.704 994.824 893.307 996.9C882.911 998.976 872.433 1000.47 861.875 1001.39C851.317 1002.31 840.738 1002.43 830.138 1001.74" stroke="white"/>
<path d="M830.138 986.644C815.788 987.895 810.405 982.803 813.988 971.368L823.228 940.148C825.806 930.769 829.173 921.469 833.332 912.247C837.49 903.025 841.902 893.969 846.566 885.079C851.23 876.189 856.237 867.484 861.588 858.962C866.938 850.441 872.575 842.117 878.498 833.991L896.9 810.104L916.541 787.231L937.323 765.386L959.111 744.541L981.831 724.718L1005.36 705.857L1029.5 687.795L1054.17 670.454L1079.28 653.76L1104.74 637.593L1130.44 621.829L1156.28 606.281L1182.05 590.638L1207.71 574.798L1233.29 558.852L1258.57 542.449C1266.91 536.847 1275.02 531.036 1282.92 525.014C1290.82 518.992 1297.94 512.004 1304.27 504.049L1309.63 502.312" stroke="white"/>
<path d="M1309.63 499.774C1317.83 503.888 1320.85 510.993 1318.7 521.089C1316.55 531.184 1314.83 540.717 1313.53 549.687C1312.22 558.657 1309.86 567.463 1306.44 576.104C1303.02 584.746 1299.24 593.199 1295.11 601.462C1290.98 609.726 1286.31 617.681 1281.1 625.327C1275.89 632.973 1270.42 640.422 1264.7 647.674L1246.92 668.912L1227.99 689.146L1208.16 708.501L1187.66 727.14L1166.64 745.206L1145.24 762.81L1123.53 780.035L1101.59 796.971L1079.49 813.699L1057.27 830.257L1034.95 846.682L1012.56 863.021L990.139 879.311L967.729 895.615L945.181 911.725L922.45 927.579L899.694 943.367L876.715 958.822C868.979 963.871 861.497 969.29 854.269 975.077C847.043 980.862 839 985.172 830.138 988.008C811.52 990.182 802.461 983.292 802.962 967.339C803.463 951.384 804.595 936.596 806.359 922.975C808.123 909.354 811.15 895.809 815.44 882.342C819.73 868.874 824.813 855.76 830.689 842.998C836.565 830.237 843.138 817.841 850.407 805.81C857.676 793.78 865.474 782.106 873.801 770.789C882.128 759.473 890.971 748.574 900.33 738.091C909.69 727.609 919.489 717.556 929.728 707.933C939.967 698.31 950.558 689.094 961.501 680.286C972.445 671.477 983.684 663.063 995.219 655.043C1006.75 647.023 1018.52 639.357 1030.51 632.045C1042.51 624.733 1054.67 617.709 1066.99 610.975L1104.32 591.444L1142.22 573.045L1180.59 555.631L1219.19 538.826C1232.06 533.251 1245.16 528.049 1258.47 523.217C1271.79 518.386 1284 511.998 1295.1 504.053L1309.63 499.344" stroke="white"/>
<path d="M830.138 991.946C812.184 995.407 795.023 993.786 778.654 987.082C762.285 980.379 748.48 970.097 737.24 956.238C725.998 942.379 717.607 927.024 712.066 910.174C706.524 893.324 703.175 876.086 702.02 858.46C700.865 840.833 701.099 823.245 702.725 805.694C704.35 788.144 707.059 770.761 710.853 753.548C714.647 736.334 719.429 719.4 725.198 702.747C730.968 686.094 737.83 669.9 745.782 654.165C753.736 638.43 762.916 623.434 773.322 609.176C783.73 594.918 795.492 581.873 808.611 570.039C821.73 558.205 835.815 547.684 850.866 538.474C865.916 529.265 881.549 521.202 897.765 514.287C913.981 507.371 930.504 501.311 947.335 496.107C964.166 490.902 981.164 486.332 998.33 482.394C1015.5 478.457 1032.77 475.054 1050.14 472.186C1067.52 469.318 1084.97 466.999 1102.49 465.228C1120.02 463.458 1137.58 462.383 1155.18 462.004C1172.79 461.624 1190.4 462.167 1208.01 463.63C1225.63 465.094 1242.81 468.501 1259.55 473.853L1309.63 490.428" stroke="white"/>
<path d="M830.138 994.594C813.407 997.132 798.475 1002.76 785.341 1011.48C772.206 1020.21 757.777 1027.12 742.054 1032.22C726.329 1037.32 710.143 1039.4 693.495 1038.46C676.848 1037.53 661.791 1032.05 648.327 1022.03C634.863 1012 623.931 999.893 615.532 985.691C607.133 971.489 600.5 956.559 595.634 940.901C590.767 925.243 586.988 909.34 584.299 893.192C581.608 877.043 579.724 860.805 578.646 844.475C577.567 828.145 576.963 811.801 576.834 795.443L577.041 746.372L577.677 697.306C577.833 680.95 577.671 664.593 577.189 648.235C576.708 631.877 575.441 615.577 573.388 599.335C571.335 583.092 567.938 567.091 563.195 551.33C558.453 535.569 551.012 521.13 540.871 508.013C530.732 494.896 518.023 485.11 502.747 478.656C487.471 472.201 471.61 468.642 455.165 467.98C438.72 467.318 422.395 468.245 406.191 470.761C389.986 473.278 374.136 477.323 358.64 482.897C343.144 488.47 327.161 491.283 310.689 491.337" stroke="white"/>
<path d="M310.896 529.119C323.116 530.411 333.066 526.026 340.744 515.964C348.423 505.902 349.507 495.113 343.996 483.595C338.485 472.078 329.638 466.058 317.455 465.533C305.272 465.008 295.405 469.553 287.854 479.167C280.304 488.78 279.201 499.186 284.547 510.383C289.893 521.581 298.676 527.826 310.896 529.119Z" stroke="white"/>
<path d="M291.594 534.505C306.637 544.21 322.165 544.768 338.18 536.18C354.195 527.593 362.609 514.48 363.422 496.843C364.236 479.207 357.087 465.506 341.976 455.74C326.864 445.974 311.512 445.353 295.92 453.875C280.327 462.398 271.947 475.541 270.78 493.304C269.613 511.067 276.551 524.801 291.594 534.505Z" stroke="white"/>
<path d="M830.138 994.888C839.704 992.818 849.152 990.315 858.481 987.381C867.811 984.446 876.963 981.027 885.938 977.124L912.711 965.131L939.048 952.237L964.832 938.249L990.227 923.571L1015.36 908.449L1040.18 892.814L1064.66 876.65L1088.84 860.048L1112.74 843.04L1136.31 825.578L1159.49 807.591L1182.16 788.983L1204.26 769.7L1225.69 749.665L1246.23 728.734L1265.67 706.783C1271.95 699.288 1277.99 691.601 1283.79 683.723C1289.59 675.846 1295 667.706 1300.03 659.306C1305.05 650.905 1309.62 642.267 1313.75 633.391C1317.88 624.516 1321.33 615.389 1324.08 606.011C1326.83 596.632 1328.92 587.06 1330.36 577.295C1331.79 567.53 1331.67 557.907 1330 548.426C1328.32 538.946 1327.25 528.822 1326.78 518.055C1326.32 507.289 1320.6 500.604 1309.63 498" stroke="white"/>
<path d="M830.138 983.996C831.159 977.805 835.184 971.45 842.212 964.93L862.002 945.619L880.952 926.728L900.488 908.184L920.317 889.983L940.457 872.113L960.832 854.512L981.423 837.166L1002.25 820.107L1023.28 803.29L1044.47 786.673L1065.75 770.187L1087.09 753.767L1108.45 737.369L1129.76 720.912L1150.94 704.287L1171.9 687.391L1192.53 670.092L1212.68 652.246L1232.18 633.697L1250.81 614.275C1256.85 607.64 1262.64 600.804 1268.18 593.768C1273.72 586.732 1279.03 579.487 1284.1 572.035C1289.18 564.582 1293.44 556.78 1296.9 548.628C1300.35 540.475 1304.37 532.085 1308.94 523.456C1313.52 514.828 1313.75 507.523 1309.63 501.543" stroke="white"/>
<path d="M830.138 985.322C821.377 983.998 819.591 978.896 824.78 970.017L838.843 946.347L852.263 925.561L866.794 904.956L882.011 884.919L898.221 865.656L915.204 847.074L932.678 828.959L950.672 811.357L969.121 794.231L988.007 777.585L1007.29 761.404L1026.91 745.623L1046.79 730.174L1066.9 715.026L1087.2 700.138L1107.62 685.417L1128.06 670.72L1148.51 656.036L1168.94 641.316L1189.17 626.334L1209.06 610.916L1228.58 595.029L1247.59 578.576L1265.79 561.236L1282.96 543.091C1288.5 536.947 1293.96 530.44 1299.32 523.57C1304.69 516.7 1308.12 509.949 1309.63 503.316" stroke="white"/>
<path d="M830.138 990.62C803.499 993.214 783.868 983.576 771.242 961.706C758.617 939.836 751.17 917.044 748.902 893.331C746.634 869.618 747.549 846.003 751.649 822.485C755.748 798.967 762.092 776.101 770.68 753.887C779.268 731.674 789.882 710.466 802.522 690.263C815.162 670.061 829.775 651.4 846.362 634.282C862.949 617.164 881.105 601.927 900.831 588.571C920.558 575.215 941.22 563.555 962.82 553.591C984.419 543.628 1006.5 534.905 1029.06 527.422C1051.62 519.94 1074.46 513.459 1097.58 507.98C1120.7 502.501 1144.03 498.033 1167.57 494.578C1191.11 491.123 1214.76 489.529 1238.52 489.799C1262.27 490.068 1285.98 491.268 1309.63 493.398" stroke="white"/>
<path d="M291.102 552.442C298.332 555.927 305.956 558.044 313.974 558.794C321.992 559.544 329.918 558.896 337.754 556.851C345.589 554.805 352.804 551.472 359.4 546.849C365.995 542.227 371.862 536.805 377 530.584C382.138 524.363 385.834 517.369 388.087 509.601C390.34 501.832 391.403 493.933 391.278 485.903C391.152 477.873 389.471 470.175 386.234 462.809C382.998 455.443 378.595 448.903 373.028 443.191C367.461 437.479 361.047 432.87 353.786 429.364C346.526 425.859 338.888 423.812 330.872 423.225C322.856 422.637 314.905 423.244 307.02 425.046C299.135 426.848 291.892 430.045 285.291 434.638C278.69 439.231 272.891 444.684 267.896 450.998C262.9 457.312 259.046 464.291 256.335 471.935C253.624 479.578 252.499 487.447 252.961 495.542C253.423 503.637 255.254 511.377 258.455 518.763C261.656 526.149 266.089 532.738 271.756 538.529C277.423 544.32 283.872 548.957 291.102 552.442Z" stroke="white"/>
<path d="M290.995 574.55C300.984 578.708 311.381 580.959 322.187 581.305C332.993 581.651 343.656 580.534 354.175 577.954C364.695 575.374 374.508 571.181 383.615 565.375C392.722 559.569 401.061 552.842 408.631 545.195C416.2 537.548 422.758 529.082 428.304 519.799C433.849 510.516 437.704 500.577 439.866 489.98C442.028 479.384 442.496 468.686 441.271 457.885C440.045 447.085 436.515 437.103 430.68 427.94C424.844 418.776 417.833 410.694 409.646 403.692C401.458 396.689 392.309 391.271 382.198 387.436C372.088 383.602 361.63 381.35 350.824 380.682C340.018 380.015 329.359 380.942 318.848 383.463C308.338 385.985 298.384 389.874 288.987 395.131C279.589 400.388 271.021 406.804 263.28 414.378C255.54 421.952 249.2 430.55 244.259 440.172C239.318 449.794 235.812 459.905 233.742 470.505C231.672 481.105 231.476 491.776 233.155 502.518C234.833 513.261 238.295 523.356 243.542 532.805C248.789 542.253 255.512 550.533 263.712 557.646C271.912 564.758 281.006 570.393 290.995 574.55Z" stroke="white"/>
<path d="M1310.07 515.202C1313.52 515.707 1317.61 514.796 1322.33 512.471C1327.05 510.145 1329.78 506.978 1330.53 502.97C1331.28 498.961 1330.2 495.025 1327.3 491.161C1324.4 487.296 1320.64 484.075 1316.03 481.496C1311.42 478.917 1307.94 479.837 1305.6 484.259C1303.25 488.68 1300.62 492.995 1297.73 497.204C1294.84 501.413 1295.3 505.339 1299.14 508.982C1302.97 512.624 1306.61 514.698 1310.07 515.202Z" stroke="white"/>
<path d="M1310.69 520.176C1316.46 522.172 1322.41 521.438 1328.53 517.973C1334.65 514.509 1338.55 509.726 1340.22 503.626C1341.9 497.526 1341.18 491.404 1338.07 485.262C1334.95 479.12 1329.92 475.019 1322.98 472.961C1316.04 470.903 1309.79 471.728 1304.25 475.438C1298.7 479.148 1294.74 484.412 1292.36 491.23C1289.99 498.049 1291 504.079 1295.42 509.32C1299.83 514.562 1304.92 518.181 1310.69 520.176Z" stroke="white"/>
<path d="M1310.3 531.423C1319.74 534.014 1328.62 532.629 1336.95 527.268C1345.28 521.907 1351.02 514.536 1354.17 505.155C1357.31 495.774 1356.08 486.984 1350.48 478.784C1344.87 470.584 1337.37 465.108 1327.97 462.353C1318.57 459.599 1309.47 460.745 1300.67 465.792C1291.87 470.839 1285.96 478.269 1282.92 488.083C1279.88 497.897 1281.32 506.926 1287.25 515.17C1293.18 523.414 1300.87 528.832 1310.3 531.423Z" stroke="white"/>
<path d="M1309.53 544.708C1324.05 548.35 1337.7 546.549 1350.48 539.304C1363.26 532.059 1372.48 521.595 1378.14 507.913C1383.8 494.231 1382.67 481.179 1374.75 468.757C1366.83 456.336 1355.94 448.21 1342.09 444.38C1328.23 440.55 1314.68 441.857 1301.45 448.3C1288.22 454.743 1279.17 464.969 1274.28 478.98C1269.39 492.99 1270.41 506.537 1277.35 519.62C1284.28 532.703 1295.01 541.065 1309.53 544.708Z" stroke="white"/>
<path d="M1329.57 564.551C1344.58 565.14 1358.86 562.379 1372.41 556.269C1385.97 550.158 1398.09 542.019 1408.79 531.85C1419.49 521.681 1427.65 509.46 1433.27 495.189C1438.89 480.918 1438.98 466.793 1433.54 452.814C1428.09 438.835 1418.79 428.196 1405.62 420.895C1392.45 413.595 1378.41 409.554 1363.48 408.773C1348.55 407.992 1334.05 409.943 1319.99 414.626C1305.92 419.31 1293.46 426.741 1282.6 436.919C1271.74 447.098 1264.17 459.512 1259.88 474.159C1255.6 488.807 1256.23 503.087 1261.77 516.999C1267.32 530.91 1276.25 542.167 1288.57 550.768C1300.9 559.369 1314.56 563.963 1329.57 564.551Z" stroke="white"/>
<path d="M11.0073 601.439L45.0204 583.966L70.9437 571.431L86.5247 563.987L110.901 553.163L130.88 544.604L132.234 544.008L150.859 536.704L170.838 529.288L185.585 524.03L210.795 516.41L230.774 511.106L250.753 506.563L262.482 504.051" stroke="white"/>
<path d="M1309.63 513.266L1324.13 504.052L1309.63 488.613L1300.45 504.052L1309.63 513.266Z" stroke="white"/>
<path d="M1309.63 508.358L1316.41 504.05L1309.63 496.832L1305.34 504.05L1309.63 508.358Z" stroke="white"/>
<path d="M294.614 503.617C298.846 516.68 307.405 521.349 320.291 517.624C333.178 513.898 337.437 505.48 333.07 492.369C328.702 479.258 320.143 474.589 307.392 478.362C294.642 482.135 290.382 490.553 294.614 503.617Z" stroke="white"/>
<path d="M310.698 504.769C311.391 504.779 311.701 504.479 311.628 503.869C311.556 503.259 311.278 502.915 310.796 502.836C310.313 502.758 310.003 503.058 309.865 503.736C309.727 504.415 310.005 504.759 310.698 504.769Z" stroke="white"/>
</svg>
