<svg xmlns="http://www.w3.org/2000/svg" fill="none" viewBox="0 0 25 25">
  <path fill="white"
    d="M21.875 5.46875V22.6562C21.875 23.9507 20.8257 25 19.5312 25H5.46875C4.17432 25 3.125 23.9507 3.125 22.6562V5.46875C3.125 4.17432 4.17432 3.125 5.46875 3.125H9.375C9.375 1.40186 10.7769 0 12.5 0C14.2231 0 15.625 1.40186 15.625 3.125H19.5312C20.8257 3.125 21.875 4.17432 21.875 5.46875ZM12.5 1.95312C11.8528 1.95312 11.3281 2.47778 11.3281 3.125C11.3281 3.77222 11.8528 4.29688 12.5 4.29688C13.1472 4.29688 13.6719 3.77222 13.6719 3.125C13.6719 2.47778 13.1472 1.95312 12.5 1.95312ZM17.1875 7.51953V6.54297C17.1875 6.46527 17.1566 6.39075 17.1017 6.33581C17.0467 6.28087 16.9722 6.25 16.8945 6.25H8.10547C8.02777 6.25 7.95325 6.28087 7.89831 6.33581C7.84337 6.39075 7.8125 6.46527 7.8125 6.54297V7.51953C7.8125 7.59723 7.84337 7.67175 7.89831 7.72669C7.95325 7.78163 8.02777 7.8125 8.10547 7.8125H16.8945C16.9722 7.8125 17.0467 7.78163 17.1017 7.72669C17.1566 7.67175 17.1875 7.59723 17.1875 7.51953Z" />
</svg>