<svg xmlns="http://www.w3.org/2000/svg" viewBox="0 0 25 25">
    <path fill="white"
        d="M19.5312 3.125H15.625C15.625 1.40137 14.2236 0 12.5 0C10.7764 0 9.375 1.40137 9.375 3.125H5.46875C4.1748 3.125 3.125 4.1748 3.125 5.46875V22.6562C3.125 23.9502 4.1748 25 5.46875 25H19.5312C20.8252 25 21.875 23.9502 21.875 22.6562V5.46875C21.875 4.1748 20.8252 3.125 19.5312 3.125ZM12.5 1.95312C13.1494 1.95312 13.6719 2.47559 13.6719 3.125C13.6719 3.77441 13.1494 4.29688 12.5 4.29688C11.8506 4.29688 11.3281 3.77441 11.3281 3.125C11.3281 2.47559 11.8506 1.95312 12.5 1.95312ZM18.418 12.2715L11.4355 19.1953C11.2061 19.4248 10.835 19.4199 10.6055 19.1904L6.57227 15.123C6.34277 14.8936 6.34766 14.5225 6.57715 14.293L7.96387 12.916C8.19336 12.6865 8.56445 12.6914 8.79395 12.9209L11.04 15.1865L16.2158 10.0498C16.4453 9.82031 16.8164 9.8252 17.0459 10.0547L18.4229 11.4414C18.6523 11.6758 18.6475 12.042 18.418 12.2715Z" />
</svg>