<svg xmlns="http://www.w3.org/2000/svg" viewBox="0 0 24 24">
  <path
    d="M23.5002 6.22325C23.2236 5.18999 22.4116 4.37801 21.3783 4.10142C19.5054 3.59961 12 3.59961 12 3.59961C12 3.59961 4.49457 3.59961 2.62364 4.10142C1.59039 4.37801 0.7784 5.18999 0.501811 6.22325C0 8.09418 0 12 0 12C0 12 0 15.9058 0.501811 17.7768C0.7784 18.81 1.59039 19.622 2.62364 19.8986C4.49457 20.4004 12 20.4004 12 20.4004C12 20.4004 19.5054 20.4004 21.3764 19.8986C22.4096 19.622 23.2216 18.81 23.4982 17.7768C24 15.9058 24 12 24 12C24 12 24 8.09418 23.4982 6.22325H23.5002Z"
    fill="black" />
  <path d="M9.59961 15.5996L15.8367 12L9.59961 8.40039V15.5996Z" fill="white" />
  <style>
    @media (prefers-color-scheme: light) {
      :root {
        filter: none;
      }
    }

    @media (prefers-color-scheme: dark) {
      :root {
        filter: invert(100%);
      }
    }
  </style>
</svg>