<svg width="1920" height="1080" viewBox="0 0 1920 1080" fill="none" xmlns="http://www.w3.org/2000/svg">
<path d="M1214.57 681.909L1239.82 659.435L1241.11 619.504L1214.57 681.909Z" stroke="white" stroke-width="1.33333" stroke-linecap="round" stroke-linejoin="round"/>
<path d="M1233.67 648.956L1241.11 619.503L1239.73 579.941L1233.67 648.956Z" stroke="white" stroke-width="1.33333" stroke-linecap="round" stroke-linejoin="round"/>
<path d="M1185.23 699.841L1214.57 681.908L1233.67 648.955L1185.23 699.841Z" stroke="white" stroke-width="1.33333" stroke-linecap="round" stroke-linejoin="round"/>
<path d="M668.924 697.548L684.229 681.646L668.116 654.252L668.924 697.548Z" stroke="white" stroke-width="1.33333" stroke-linecap="round" stroke-linejoin="round"/>
<path d="M668.924 697.549L704.348 714.419L684.229 681.646L668.924 697.549Z" stroke="white" stroke-width="1.33333" stroke-linecap="round" stroke-linejoin="round"/>
<path d="M1156.08 720.902L1185.23 699.841L1211.52 674.715L1156.08 720.902Z" stroke="white" stroke-width="1.33333" stroke-linecap="round" stroke-linejoin="round"/>
<path d="M1156.08 720.902L1211.52 674.715L1184.06 698.754L1156.08 720.902Z" stroke="white" stroke-width="1.33333" stroke-linecap="round" stroke-linejoin="round"/>
<path d="M1211.52 674.716L1241.07 609.463L1226.94 638.509L1211.52 674.716Z" stroke="white" stroke-width="1.33333" stroke-linecap="round" stroke-linejoin="round"/>
<path d="M668.116 654.251L676.347 636.914L670.842 608.926L668.116 654.251Z" stroke="white" stroke-width="1.33333" stroke-linecap="round" stroke-linejoin="round"/>
<path d="M668.116 654.255L684.229 681.648L676.347 636.918L668.116 654.255Z" stroke="white" stroke-width="1.33333" stroke-linecap="round" stroke-linejoin="round"/>
<path d="M704.349 714.421L743.596 729.383L717.321 704.832L704.349 714.421Z" stroke="white" stroke-width="1.33333" stroke-linecap="round" stroke-linejoin="round"/>
<path d="M704.349 714.419L717.321 704.83L684.229 681.646L704.349 714.419Z" stroke="white" stroke-width="1.33333" stroke-linecap="round" stroke-linejoin="round"/>
<path d="M1226.94 638.509L1241.07 609.463L1245.27 568.076L1226.94 638.509Z" stroke="white" stroke-width="1.33333" stroke-linecap="round" stroke-linejoin="round"/>
<path d="M853.461 244.873L924.103 224.916L890.645 234.019L853.461 244.873Z" stroke="white" stroke-width="1.33333" stroke-linecap="round" stroke-linejoin="round"/>
<path d="M924.103 224.917L997.878 225.143L961.427 221.158L924.103 224.917Z" stroke="white" stroke-width="1.33333" stroke-linecap="round" stroke-linejoin="round"/>
<path d="M997.877 225.143L1068.61 244.698L1032.04 234.888L997.877 225.143Z" stroke="white" stroke-width="1.33333" stroke-linecap="round" stroke-linejoin="round"/>
<path d="M670.842 608.927L672.756 588.501L670.747 561.656L670.842 608.927Z" stroke="white" stroke-width="1.33333" stroke-linecap="round" stroke-linejoin="round"/>
<path d="M1126.03 743.994L1156.08 720.903L1184.06 698.756L1126.03 743.994Z" stroke="white" stroke-width="1.33333" stroke-linecap="round" stroke-linejoin="round"/>
<path d="M853.461 244.873L885.603 234.324L924.103 224.916L853.461 244.873Z" stroke="white" stroke-width="1.33333" stroke-linecap="round" stroke-linejoin="round"/>
<path d="M1226.94 638.509L1245.27 568.076L1235.44 597.343L1226.94 638.509Z" stroke="white" stroke-width="1.33333" stroke-linecap="round" stroke-linejoin="round"/>
<path d="M670.842 608.928L676.347 636.916L672.756 588.502L670.842 608.928Z" stroke="white" stroke-width="1.33333" stroke-linecap="round" stroke-linejoin="round"/>
<path d="M997.877 225.143L1035.47 234.242L1068.61 244.698L997.877 225.143Z" stroke="white" stroke-width="1.33333" stroke-linecap="round" stroke-linejoin="round"/>
<path d="M1126.03 743.994L1184.06 698.756L1154.01 722.961L1126.03 743.994Z" stroke="white" stroke-width="1.33333" stroke-linecap="round" stroke-linejoin="round"/>
<path d="M924.103 224.916L960.53 225.998L997.878 225.142L924.103 224.916Z" stroke="white" stroke-width="1.33333" stroke-linecap="round" stroke-linejoin="round"/>
<path d="M1184.06 698.752L1226.94 638.506L1203.31 665.474L1184.06 698.752Z" stroke="white" stroke-width="1.33333" stroke-linecap="round" stroke-linejoin="round"/>
<path d="M743.597 729.381L783.581 747.941L756.189 726.439L743.597 729.381Z" stroke="white" stroke-width="1.33333" stroke-linecap="round" stroke-linejoin="round"/>
<path d="M743.596 729.383L756.189 726.441L717.321 704.832L743.596 729.383Z" stroke="white" stroke-width="1.33333" stroke-linecap="round" stroke-linejoin="round"/>
<path d="M684.23 681.648L700.271 664.741L676.348 636.918L684.23 681.648Z" stroke="white" stroke-width="1.33333" stroke-linecap="round" stroke-linejoin="round"/>
<path d="M684.229 681.644L717.321 704.827L700.27 664.736L684.229 681.644Z" stroke="white" stroke-width="1.33333" stroke-linecap="round" stroke-linejoin="round"/>
<path d="M670.746 561.659L670.762 538.034L669.932 512.852L670.746 561.659Z" stroke="white" stroke-width="1.33333" stroke-linecap="round" stroke-linejoin="round"/>
<path d="M670.747 561.657L672.756 588.502L670.762 538.033L670.747 561.657Z" stroke="white" stroke-width="1.33333" stroke-linecap="round" stroke-linejoin="round"/>
<path d="M1235.44 597.342L1245.27 568.075L1248.52 524.998L1235.44 597.342Z" stroke="white" stroke-width="1.33333" stroke-linecap="round" stroke-linejoin="round"/>
<path d="M814.709 257.257L885.602 234.326L853.46 244.875L814.709 257.257Z" stroke="white" stroke-width="1.33333" stroke-linecap="round" stroke-linejoin="round"/>
<path d="M1203.31 665.476L1226.94 638.508L1235.44 597.342L1203.31 665.476Z" stroke="white" stroke-width="1.33333" stroke-linecap="round" stroke-linejoin="round"/>
<path d="M1235.44 597.342L1248.52 524.998L1239.54 552.982L1235.44 597.342Z" stroke="white" stroke-width="1.33333" stroke-linecap="round" stroke-linejoin="round"/>
<path d="M1035.47 234.24L1106.69 256.235L1068.61 244.696L1035.47 234.24Z" stroke="white" stroke-width="1.33333" stroke-linecap="round" stroke-linejoin="round"/>
<path d="M814.709 257.257L845.889 248.27L885.602 234.326L814.709 257.257Z" stroke="white" stroke-width="1.33333" stroke-linecap="round" stroke-linejoin="round"/>
<path d="M885.603 234.324L960.53 225.998L924.103 224.916L885.603 234.324Z" stroke="white" stroke-width="1.33333" stroke-linecap="round" stroke-linejoin="round"/>
<path d="M960.53 225.999L1035.47 234.242L997.877 225.143L960.53 225.999Z" stroke="white" stroke-width="1.33333" stroke-linecap="round" stroke-linejoin="round"/>
<path d="M669.931 512.849L670.15 485.998L669.138 462.914L669.931 512.849Z" stroke="white" stroke-width="1.33333" stroke-linecap="round" stroke-linejoin="round"/>
<path d="M783.581 747.94L824.927 768.007L798.054 747.885L783.581 747.94Z" stroke="white" stroke-width="1.33333" stroke-linecap="round" stroke-linejoin="round"/>
<path d="M1035.47 234.24L1074.37 248.272L1106.69 256.235L1035.47 234.24Z" stroke="white" stroke-width="1.33333" stroke-linecap="round" stroke-linejoin="round"/>
<path d="M1154.01 722.959L1184.06 698.753L1203.31 665.475L1154.01 722.959Z" stroke="white" stroke-width="1.33333" stroke-linecap="round" stroke-linejoin="round"/>
<path d="M885.603 234.326L921.416 235.111L960.53 226L885.603 234.326Z" stroke="white" stroke-width="1.33333" stroke-linecap="round" stroke-linejoin="round"/>
<path d="M676.347 636.916L690.599 616.779L672.756 588.502L676.347 636.916Z" stroke="white" stroke-width="1.33333" stroke-linecap="round" stroke-linejoin="round"/>
<path d="M669.932 512.848L670.762 538.031L670.15 485.998L669.932 512.848Z" stroke="white" stroke-width="1.33333" stroke-linecap="round" stroke-linejoin="round"/>
<path d="M783.581 747.941L798.054 747.886L756.189 726.439L783.581 747.941Z" stroke="white" stroke-width="1.33333" stroke-linecap="round" stroke-linejoin="round"/>
<path d="M960.53 226L998.699 235.215L1035.47 234.243L960.53 226Z" stroke="white" stroke-width="1.33333" stroke-linecap="round" stroke-linejoin="round"/>
<path d="M1203.31 665.476L1235.44 597.342L1214.22 624.918L1203.31 665.476Z" stroke="white" stroke-width="1.33333" stroke-linecap="round" stroke-linejoin="round"/>
<path d="M676.348 636.916L700.271 664.74L690.6 616.779L676.348 636.916Z" stroke="white" stroke-width="1.33333" stroke-linecap="round" stroke-linejoin="round"/>
<path d="M1154.01 722.959L1203.31 665.475L1173.77 690.987L1154.01 722.959Z" stroke="white" stroke-width="1.33333" stroke-linecap="round" stroke-linejoin="round"/>
<path d="M717.321 704.833L756.189 726.442L735.209 690.529L717.321 704.833Z" stroke="white" stroke-width="1.33333" stroke-linecap="round" stroke-linejoin="round"/>
<path d="M717.321 704.827L735.209 690.523L700.271 664.736L717.321 704.827Z" stroke="white" stroke-width="1.33333" stroke-linecap="round" stroke-linejoin="round"/>
<path d="M669.139 462.915L671.21 432.669L667.73 412.213L669.139 462.915Z" stroke="white" stroke-width="1.33333" stroke-linecap="round" stroke-linejoin="round"/>
<path d="M1239.54 552.979L1248.51 524.996L1250.67 479.902L1239.54 552.979Z" stroke="white" stroke-width="1.33333" stroke-linecap="round" stroke-linejoin="round"/>
<path d="M669.138 462.913L670.15 485.998L671.209 432.668L669.138 462.913Z" stroke="white" stroke-width="1.33333" stroke-linecap="round" stroke-linejoin="round"/>
<path d="M1239.54 552.979L1250.67 479.902L1239.55 505.536L1239.54 552.979Z" stroke="white" stroke-width="1.33333" stroke-linecap="round" stroke-linejoin="round"/>
<path d="M672.756 588.502L685.802 564.811L670.762 538.033L672.756 588.502Z" stroke="white" stroke-width="1.33333" stroke-linecap="round" stroke-linejoin="round"/>
<path d="M824.928 768.008L867.609 788.686L842.363 769.036L824.928 768.008Z" stroke="white" stroke-width="1.33333" stroke-linecap="round" stroke-linejoin="round"/>
<path d="M1146.51 270.557L1187.26 291.598L1215.66 297.85L1146.51 270.557Z" stroke="white" stroke-width="1.33333" stroke-linecap="round" stroke-linejoin="round"/>
<path d="M774.219 271.392L845.889 248.27L814.71 257.257L774.219 271.392Z" stroke="white" stroke-width="1.33333" stroke-linecap="round" stroke-linejoin="round"/>
<path d="M672.756 588.502L690.599 616.779L685.802 564.811L672.756 588.502Z" stroke="white" stroke-width="1.33333" stroke-linecap="round" stroke-linejoin="round"/>
<path d="M1214.22 624.917L1235.44 597.341L1239.54 552.98L1214.22 624.917Z" stroke="white" stroke-width="1.33333" stroke-linecap="round" stroke-linejoin="round"/>
<path d="M824.927 768.007L842.363 769.035L798.054 747.885L824.927 768.007Z" stroke="white" stroke-width="1.33333" stroke-linecap="round" stroke-linejoin="round"/>
<path d="M1074.37 248.271L1146.51 270.554L1106.69 256.235L1074.37 248.271Z" stroke="white" stroke-width="1.33333" stroke-linecap="round" stroke-linejoin="round"/>
<path d="M774.219 271.392L805.123 268.096L845.889 248.27L774.219 271.392Z" stroke="white" stroke-width="1.33333" stroke-linecap="round" stroke-linejoin="round"/>
<path d="M667.729 412.211L676.072 378.091L662.611 360.967L667.729 412.211Z" stroke="white" stroke-width="1.33333" stroke-linecap="round" stroke-linejoin="round"/>
<path d="M845.889 248.27L921.415 235.111L885.603 234.326L845.889 248.27Z" stroke="white" stroke-width="1.33333" stroke-linecap="round" stroke-linejoin="round"/>
<path d="M921.416 235.111L998.7 235.215L960.53 226L921.416 235.111Z" stroke="white" stroke-width="1.33333" stroke-linecap="round" stroke-linejoin="round"/>
<path d="M1250.94 432.315L1256.44 360.713L1245.58 381.698L1250.94 432.315Z" stroke="white" stroke-width="1.33333" stroke-linecap="round" stroke-linejoin="round"/>
<path d="M1074.37 248.271L1114.34 269.37L1146.51 270.554L1074.37 248.271Z" stroke="white" stroke-width="1.33333" stroke-linecap="round" stroke-linejoin="round"/>
<path d="M1173.77 690.988L1203.31 665.475L1214.22 624.918L1173.77 690.988Z" stroke="white" stroke-width="1.33333" stroke-linecap="round" stroke-linejoin="round"/>
<path d="M998.699 235.212L1074.37 248.272L1035.47 234.24L998.699 235.212Z" stroke="white" stroke-width="1.33333" stroke-linecap="round" stroke-linejoin="round"/>
<path d="M1214.22 624.917L1239.54 552.98L1218.25 579.371L1214.22 624.917Z" stroke="white" stroke-width="1.33333" stroke-linecap="round" stroke-linejoin="round"/>
<path d="M1121.7 747.802L1154.01 722.964L1173.77 690.992L1121.7 747.802Z" stroke="white" stroke-width="1.33333" stroke-linecap="round" stroke-linejoin="round"/>
<path d="M756.189 726.437L798.054 747.883L776.555 714.441L756.189 726.437Z" stroke="white" stroke-width="1.33333" stroke-linecap="round" stroke-linejoin="round"/>
<path d="M845.889 248.268L880.916 251.495L921.415 235.109L845.889 248.268Z" stroke="white" stroke-width="1.33333" stroke-linecap="round" stroke-linejoin="round"/>
<path d="M667.73 412.212L671.21 432.668L676.073 378.092L667.73 412.212Z" stroke="white" stroke-width="1.33333" stroke-linecap="round" stroke-linejoin="round"/>
<path d="M998.699 235.211L1038.32 252.143L1074.37 248.271L998.699 235.211Z" stroke="white" stroke-width="1.33333" stroke-linecap="round" stroke-linejoin="round"/>
<path d="M700.271 664.74L721.307 644.366L690.6 616.779L700.271 664.74Z" stroke="white" stroke-width="1.33333" stroke-linecap="round" stroke-linejoin="round"/>
<path d="M1121.7 747.802L1173.77 690.992L1139.38 715.568L1121.7 747.802Z" stroke="white" stroke-width="1.33333" stroke-linecap="round" stroke-linejoin="round"/>
<path d="M700.271 664.739L735.209 690.526L721.307 644.365L700.271 664.739Z" stroke="white" stroke-width="1.33333" stroke-linecap="round" stroke-linejoin="round"/>
<path d="M756.188 726.442L776.554 714.446L735.208 690.529L756.188 726.442Z" stroke="white" stroke-width="1.33333" stroke-linecap="round" stroke-linejoin="round"/>
<path d="M921.416 235.109L959.577 245.512L998.7 235.213L921.416 235.109Z" stroke="white" stroke-width="1.33333" stroke-linecap="round" stroke-linejoin="round"/>
<path d="M662.612 360.972L693.432 323.96L660 308.883L662.612 360.972Z" stroke="white" stroke-width="1.33333" stroke-linecap="round" stroke-linejoin="round"/>
<path d="M1173.77 690.988L1214.22 624.918L1184.47 650.55L1173.77 690.988Z" stroke="white" stroke-width="1.33333" stroke-linecap="round" stroke-linejoin="round"/>
<path d="M670.762 538.031L685.252 510.293L670.15 485.998L670.762 538.031Z" stroke="white" stroke-width="1.33333" stroke-linecap="round" stroke-linejoin="round"/>
<path d="M1239.55 505.538L1250.67 479.903L1250.94 432.314L1239.55 505.538Z" stroke="white" stroke-width="1.33333" stroke-linecap="round" stroke-linejoin="round"/>
<path d="M867.609 788.684L910.989 810.33L889.016 789.448L867.609 788.684Z" stroke="white" stroke-width="1.33333" stroke-linecap="round" stroke-linejoin="round"/>
<path d="M670.762 538.036L685.802 564.814L685.252 510.297L670.762 538.036Z" stroke="white" stroke-width="1.33333" stroke-linecap="round" stroke-linejoin="round"/>
<path d="M660 308.879L693.432 323.957L732.477 289.902L660 308.879Z" stroke="white" stroke-width="1.33333" stroke-linecap="round" stroke-linejoin="round"/>
<path d="M1187.26 291.6L1260 310.789L1215.66 297.852L1187.26 291.6Z" stroke="white" stroke-width="1.33333" stroke-linecap="round" stroke-linejoin="round"/>
<path d="M1239.55 505.538L1250.94 432.314L1233.61 454.671L1239.55 505.538Z" stroke="white" stroke-width="1.33333" stroke-linecap="round" stroke-linejoin="round"/>
<path d="M867.609 788.685L889.015 789.45L842.362 769.035L867.609 788.685Z" stroke="white" stroke-width="1.33333" stroke-linecap="round" stroke-linejoin="round"/>
<path d="M1245.58 381.698L1256.44 360.713L1260 310.785L1245.58 381.698Z" stroke="white" stroke-width="1.33333" stroke-linecap="round" stroke-linejoin="round"/>
<path d="M662.611 360.969L676.072 378.093L693.432 323.957L662.611 360.969Z" stroke="white" stroke-width="1.33333" stroke-linecap="round" stroke-linejoin="round"/>
<path d="M1187.26 291.6L1224.08 329.786L1260 310.789L1187.26 291.6Z" stroke="white" stroke-width="1.33333" stroke-linecap="round" stroke-linejoin="round"/>
<path d="M670.15 485.998L690.122 453.973L671.21 432.668L670.15 485.998Z" stroke="white" stroke-width="1.33333" stroke-linecap="round" stroke-linejoin="round"/>
<path d="M732.477 289.902L805.123 268.094L774.22 271.39L732.477 289.902Z" stroke="white" stroke-width="1.33333" stroke-linecap="round" stroke-linejoin="round"/>
<path d="M1245.58 381.698L1260 310.785L1224.08 329.782L1245.58 381.698Z" stroke="white" stroke-width="1.33333" stroke-linecap="round" stroke-linejoin="round"/>
<path d="M1218.25 579.372L1239.54 552.982L1239.55 505.539L1218.25 579.372Z" stroke="white" stroke-width="1.33333" stroke-linecap="round" stroke-linejoin="round"/>
<path d="M1114.34 269.371L1187.26 291.596L1146.51 270.555L1114.34 269.371Z" stroke="white" stroke-width="1.33333" stroke-linecap="round" stroke-linejoin="round"/>
<path d="M798.054 747.883L842.363 769.033L822.715 736.209L798.054 747.883Z" stroke="white" stroke-width="1.33333" stroke-linecap="round" stroke-linejoin="round"/>
<path d="M732.477 289.902L764.545 298.156L805.123 268.094L732.477 289.902Z" stroke="white" stroke-width="1.33333" stroke-linecap="round" stroke-linejoin="round"/>
<path d="M690.599 616.779L713.632 591.99L685.801 564.811L690.599 616.779Z" stroke="white" stroke-width="1.33333" stroke-linecap="round" stroke-linejoin="round"/>
<path d="M1029.82 825.128L1062.05 794.877L1086.84 773.354L1029.82 825.128Z" stroke="white" stroke-width="1.33333" stroke-linecap="round" stroke-linejoin="round"/>
<path d="M690.6 616.775L721.307 644.362L713.632 591.986L690.6 616.775Z" stroke="white" stroke-width="1.33333" stroke-linecap="round" stroke-linejoin="round"/>
<path d="M1218.25 579.372L1239.55 505.539L1215.8 529.593L1218.25 579.372Z" stroke="white" stroke-width="1.33333" stroke-linecap="round" stroke-linejoin="round"/>
<path d="M1114.34 269.371L1153.81 301.94L1187.26 291.596L1114.34 269.371Z" stroke="white" stroke-width="1.33333" stroke-linecap="round" stroke-linejoin="round"/>
<path d="M670.15 486L685.252 510.294L690.122 453.975L670.15 486Z" stroke="white" stroke-width="1.33333" stroke-linecap="round" stroke-linejoin="round"/>
<path d="M1184.47 650.552L1214.22 624.92L1218.25 579.373L1184.47 650.552Z" stroke="white" stroke-width="1.33333" stroke-linecap="round" stroke-linejoin="round"/>
<path d="M805.124 268.096L880.917 251.496L845.89 248.27L805.124 268.096Z" stroke="white" stroke-width="1.33333" stroke-linecap="round" stroke-linejoin="round"/>
<path d="M1029.82 825.128L1086.84 773.354L1047.35 798.132L1029.82 825.128Z" stroke="white" stroke-width="1.33333" stroke-linecap="round" stroke-linejoin="round"/>
<path d="M798.054 747.883L822.715 736.209L776.555 714.441L798.054 747.883Z" stroke="white" stroke-width="1.33333" stroke-linecap="round" stroke-linejoin="round"/>
<path d="M671.21 432.668L703.407 396.971L676.073 378.092L671.21 432.668Z" stroke="white" stroke-width="1.33333" stroke-linecap="round" stroke-linejoin="round"/>
<path d="M1038.32 252.144L1114.34 269.37L1074.37 248.271L1038.32 252.144Z" stroke="white" stroke-width="1.33333" stroke-linecap="round" stroke-linejoin="round"/>
<path d="M1086.84 773.356L1121.7 747.8L1139.38 715.566L1086.84 773.356Z" stroke="white" stroke-width="1.33333" stroke-linecap="round" stroke-linejoin="round"/>
<path d="M735.208 690.525L776.554 714.442L761.069 670.117L735.208 690.525Z" stroke="white" stroke-width="1.33333" stroke-linecap="round" stroke-linejoin="round"/>
<path d="M910.988 810.334L953.401 835.641L939.052 807.244L910.988 810.334Z" stroke="white" stroke-width="1.33333" stroke-linecap="round" stroke-linejoin="round"/>
<path d="M735.21 690.526L761.071 670.118L721.307 644.365L735.21 690.526Z" stroke="white" stroke-width="1.33333" stroke-linecap="round" stroke-linejoin="round"/>
<path d="M880.916 251.495L959.576 245.512L921.415 235.109L880.916 251.495Z" stroke="white" stroke-width="1.33333" stroke-linecap="round" stroke-linejoin="round"/>
<path d="M1139.38 715.563L1173.77 690.986L1184.47 650.549L1139.38 715.563Z" stroke="white" stroke-width="1.33333" stroke-linecap="round" stroke-linejoin="round"/>
<path d="M805.124 268.094L839.489 276.633L880.917 251.494L805.124 268.094Z" stroke="white" stroke-width="1.33333" stroke-linecap="round" stroke-linejoin="round"/>
<path d="M959.577 245.51L1038.32 252.143L998.699 235.211L959.577 245.51Z" stroke="white" stroke-width="1.33333" stroke-linecap="round" stroke-linejoin="round"/>
<path d="M1233.61 454.671L1250.94 432.314L1245.58 381.697L1233.61 454.671Z" stroke="white" stroke-width="1.33333" stroke-linecap="round" stroke-linejoin="round"/>
<path d="M1184.47 650.552L1218.25 579.373L1187.27 604.005L1184.47 650.552Z" stroke="white" stroke-width="1.33333" stroke-linecap="round" stroke-linejoin="round"/>
<path d="M1038.32 252.146L1078.86 278.518L1114.34 269.373L1038.32 252.146Z" stroke="white" stroke-width="1.33333" stroke-linecap="round" stroke-linejoin="round"/>
<path d="M1086.84 773.356L1139.38 715.566L1099.09 738.58L1086.84 773.356Z" stroke="white" stroke-width="1.33333" stroke-linecap="round" stroke-linejoin="round"/>
<path d="M880.916 251.494L918.573 264.13L959.576 245.512L880.916 251.494Z" stroke="white" stroke-width="1.33333" stroke-linecap="round" stroke-linejoin="round"/>
<path d="M1139.38 715.563L1184.47 650.549L1147.36 674.37L1139.38 715.563Z" stroke="white" stroke-width="1.33333" stroke-linecap="round" stroke-linejoin="round"/>
<path d="M959.577 245.512L999.613 264.658L1038.32 252.145L959.577 245.512Z" stroke="white" stroke-width="1.33333" stroke-linecap="round" stroke-linejoin="round"/>
<path d="M1233.61 454.671L1245.58 381.697L1217.56 400.8L1233.61 454.671Z" stroke="white" stroke-width="1.33333" stroke-linecap="round" stroke-linejoin="round"/>
<path d="M910.988 810.331L939.052 807.241L889.015 789.449L910.988 810.331Z" stroke="white" stroke-width="1.33333" stroke-linecap="round" stroke-linejoin="round"/>
<path d="M671.21 432.671L690.122 453.976L703.407 396.975L671.21 432.671Z" stroke="white" stroke-width="1.33333" stroke-linecap="round" stroke-linejoin="round"/>
<path d="M685.802 564.814L712.17 535.649L685.252 510.297L685.802 564.814Z" stroke="white" stroke-width="1.33333" stroke-linecap="round" stroke-linejoin="round"/>
<path d="M693.432 323.957L764.544 298.157L732.476 289.902L693.432 323.957Z" stroke="white" stroke-width="1.33333" stroke-linecap="round" stroke-linejoin="round"/>
<path d="M842.362 769.036L889.015 789.451L873.647 754.426L842.362 769.036Z" stroke="white" stroke-width="1.33333" stroke-linecap="round" stroke-linejoin="round"/>
<path d="M693.432 323.96L728.816 342.814L764.544 298.16L693.432 323.96Z" stroke="white" stroke-width="1.33333" stroke-linecap="round" stroke-linejoin="round"/>
<path d="M953.401 835.64L997.898 858.843L995.617 814.617L953.401 835.64Z" stroke="white" stroke-width="1.33333" stroke-linecap="round" stroke-linejoin="round"/>
<path d="M676.073 378.093L728.816 342.811L693.433 323.957L676.073 378.093Z" stroke="white" stroke-width="1.33333" stroke-linecap="round" stroke-linejoin="round"/>
<path d="M1153.81 301.943L1224.08 329.786L1187.26 291.6L1153.81 301.943Z" stroke="white" stroke-width="1.33333" stroke-linecap="round" stroke-linejoin="round"/>
<path d="M685.801 564.809L713.632 591.988L712.17 535.645L685.801 564.809Z" stroke="white" stroke-width="1.33333" stroke-linecap="round" stroke-linejoin="round"/>
<path d="M1215.8 529.592L1239.55 505.538L1233.61 454.672L1215.8 529.592Z" stroke="white" stroke-width="1.33333" stroke-linecap="round" stroke-linejoin="round"/>
<path d="M1217.56 400.798L1245.58 381.695L1224.08 329.779L1217.56 400.798Z" stroke="white" stroke-width="1.33333" stroke-linecap="round" stroke-linejoin="round"/>
<path d="M1153.81 301.943L1188.19 348.352L1224.08 329.786L1153.81 301.943Z" stroke="white" stroke-width="1.33333" stroke-linecap="round" stroke-linejoin="round"/>
<path d="M676.073 378.095L703.407 396.974L728.816 342.812L676.073 378.095Z" stroke="white" stroke-width="1.33333" stroke-linecap="round" stroke-linejoin="round"/>
<path d="M1217.56 400.798L1224.08 329.779L1188.19 348.345L1217.56 400.798Z" stroke="white" stroke-width="1.33333" stroke-linecap="round" stroke-linejoin="round"/>
<path d="M842.363 769.033L873.647 754.423L822.715 736.209L842.363 769.033Z" stroke="white" stroke-width="1.33333" stroke-linecap="round" stroke-linejoin="round"/>
<path d="M1215.8 529.592L1233.61 454.672L1205.39 475.875L1215.8 529.592Z" stroke="white" stroke-width="1.33333" stroke-linecap="round" stroke-linejoin="round"/>
<path d="M997.897 858.842L1029.82 825.128L1047.35 798.133L997.897 858.842Z" stroke="white" stroke-width="1.33333" stroke-linecap="round" stroke-linejoin="round"/>
<path d="M776.555 714.443L822.715 736.211L807.973 692.916L776.555 714.443Z" stroke="white" stroke-width="1.33333" stroke-linecap="round" stroke-linejoin="round"/>
<path d="M721.307 644.362L751.446 618.288L713.632 591.986L721.307 644.362Z" stroke="white" stroke-width="1.33333" stroke-linecap="round" stroke-linejoin="round"/>
<path d="M685.252 510.294L718.559 476.8L690.122 453.975L685.252 510.294Z" stroke="white" stroke-width="1.33333" stroke-linecap="round" stroke-linejoin="round"/>
<path d="M764.545 298.156L839.489 276.633L805.123 268.094L764.545 298.156Z" stroke="white" stroke-width="1.33333" stroke-linecap="round" stroke-linejoin="round"/>
<path d="M997.897 858.842L1047.34 798.133L995.616 814.616L997.897 858.842Z" stroke="white" stroke-width="1.33333" stroke-linecap="round" stroke-linejoin="round"/>
<path d="M721.307 644.365L761.071 670.118L751.446 618.291L721.307 644.365Z" stroke="white" stroke-width="1.33333" stroke-linecap="round" stroke-linejoin="round"/>
<path d="M1187.27 604.004L1218.25 579.372L1215.8 529.594L1187.27 604.004Z" stroke="white" stroke-width="1.33333" stroke-linecap="round" stroke-linejoin="round"/>
<path d="M1078.86 278.516L1153.81 301.94L1114.34 269.371L1078.86 278.516Z" stroke="white" stroke-width="1.33333" stroke-linecap="round" stroke-linejoin="round"/>
<path d="M953.401 835.641L995.617 814.618L939.053 807.244L953.401 835.641Z" stroke="white" stroke-width="1.33333" stroke-linecap="round" stroke-linejoin="round"/>
<path d="M776.555 714.442L807.972 692.916L761.07 670.117L776.555 714.442Z" stroke="white" stroke-width="1.33333" stroke-linecap="round" stroke-linejoin="round"/>
<path d="M764.545 298.157L798.964 313.353L839.489 276.633L764.545 298.157Z" stroke="white" stroke-width="1.33333" stroke-linecap="round" stroke-linejoin="round"/>
<path d="M1047.34 798.135L1086.84 773.356L1099.08 738.58L1047.34 798.135Z" stroke="white" stroke-width="1.33333" stroke-linecap="round" stroke-linejoin="round"/>
<path d="M889.015 789.452L939.052 807.244L929.99 766.152L889.015 789.452Z" stroke="white" stroke-width="1.33333" stroke-linecap="round" stroke-linejoin="round"/>
<path d="M1078.86 278.518L1118.25 316.706L1153.81 301.941L1078.86 278.518Z" stroke="white" stroke-width="1.33333" stroke-linecap="round" stroke-linejoin="round"/>
<path d="M1187.27 604.004L1215.8 529.594L1182.96 552.555L1187.27 604.004Z" stroke="white" stroke-width="1.33333" stroke-linecap="round" stroke-linejoin="round"/>
<path d="M1147.36 674.374L1184.47 650.553L1187.27 604.006L1147.36 674.374Z" stroke="white" stroke-width="1.33333" stroke-linecap="round" stroke-linejoin="round"/>
<path d="M839.489 276.633L918.574 264.129L880.916 251.494L839.489 276.633Z" stroke="white" stroke-width="1.33333" stroke-linecap="round" stroke-linejoin="round"/>
<path d="M1047.34 798.135L1099.08 738.58L1049.86 757.463L1047.34 798.135Z" stroke="white" stroke-width="1.33333" stroke-linecap="round" stroke-linejoin="round"/>
<path d="M1099.08 738.577L1139.38 715.563L1147.36 674.371L1099.08 738.577Z" stroke="white" stroke-width="1.33333" stroke-linecap="round" stroke-linejoin="round"/>
<path d="M685.252 510.293L712.17 535.645L718.559 476.799L685.252 510.293Z" stroke="white" stroke-width="1.33333" stroke-linecap="round" stroke-linejoin="round"/>
<path d="M999.613 264.66L1078.86 278.518L1038.32 252.146L999.613 264.66Z" stroke="white" stroke-width="1.33333" stroke-linecap="round" stroke-linejoin="round"/>
<path d="M918.574 264.13L999.613 264.658L959.577 245.512L918.574 264.13Z" stroke="white" stroke-width="1.33333" stroke-linecap="round" stroke-linejoin="round"/>
<path d="M1147.36 674.374L1187.27 604.006L1147.87 626.997L1147.36 674.374Z" stroke="white" stroke-width="1.33333" stroke-linecap="round" stroke-linejoin="round"/>
<path d="M839.489 276.634L876.349 292.265L918.574 264.131L839.489 276.634Z" stroke="white" stroke-width="1.33333" stroke-linecap="round" stroke-linejoin="round"/>
<path d="M999.613 264.66L1040.84 293.519L1078.86 278.518L999.613 264.66Z" stroke="white" stroke-width="1.33333" stroke-linecap="round" stroke-linejoin="round"/>
<path d="M1099.08 738.577L1147.36 674.371L1101.99 695.567L1099.08 738.577Z" stroke="white" stroke-width="1.33333" stroke-linecap="round" stroke-linejoin="round"/>
<path d="M1205.39 475.876L1233.61 454.674L1217.56 400.803L1205.39 475.876Z" stroke="white" stroke-width="1.33333" stroke-linecap="round" stroke-linejoin="round"/>
<path d="M918.574 264.131L958.53 284.546L999.613 264.659L918.574 264.131Z" stroke="white" stroke-width="1.33333" stroke-linecap="round" stroke-linejoin="round"/>
<path d="M690.122 453.976L735.271 417.623L703.407 396.975L690.122 453.976Z" stroke="white" stroke-width="1.33333" stroke-linecap="round" stroke-linejoin="round"/>
<path d="M889.016 789.451L929.99 766.151L873.647 754.426L889.016 789.451Z" stroke="white" stroke-width="1.33333" stroke-linecap="round" stroke-linejoin="round"/>
<path d="M1205.39 475.876L1217.56 400.803L1184.55 419.955L1205.39 475.876Z" stroke="white" stroke-width="1.33333" stroke-linecap="round" stroke-linejoin="round"/>
<path d="M728.816 342.814L798.964 313.357L764.545 298.16L728.816 342.814Z" stroke="white" stroke-width="1.33333" stroke-linecap="round" stroke-linejoin="round"/>
<path d="M713.631 591.988L748.229 561.287L712.169 535.645L713.631 591.988Z" stroke="white" stroke-width="1.33333" stroke-linecap="round" stroke-linejoin="round"/>
<path d="M822.715 736.213L873.647 754.427L861.629 710.688L822.715 736.213Z" stroke="white" stroke-width="1.33333" stroke-linecap="round" stroke-linejoin="round"/>
<path d="M1118.25 316.708L1188.19 348.352L1153.81 301.943L1118.25 316.708Z" stroke="white" stroke-width="1.33333" stroke-linecap="round" stroke-linejoin="round"/>
<path d="M690.122 453.975L718.559 476.8L735.271 417.621L690.122 453.975Z" stroke="white" stroke-width="1.33333" stroke-linecap="round" stroke-linejoin="round"/>
<path d="M728.816 342.811L763.015 361.788L798.964 313.354L728.816 342.811Z" stroke="white" stroke-width="1.33333" stroke-linecap="round" stroke-linejoin="round"/>
<path d="M713.632 591.991L751.446 618.292L748.23 561.289L713.632 591.991Z" stroke="white" stroke-width="1.33333" stroke-linecap="round" stroke-linejoin="round"/>
<path d="M703.407 396.974L763.015 361.79L728.816 342.812L703.407 396.974Z" stroke="white" stroke-width="1.33333" stroke-linecap="round" stroke-linejoin="round"/>
<path d="M1118.25 316.705L1152.76 366.168L1188.19 348.349L1118.25 316.705Z" stroke="white" stroke-width="1.33333" stroke-linecap="round" stroke-linejoin="round"/>
<path d="M1184.55 419.953L1217.56 400.801L1188.19 348.348L1184.55 419.953Z" stroke="white" stroke-width="1.33333" stroke-linecap="round" stroke-linejoin="round"/>
<path d="M939.053 807.242L995.617 814.616L990.85 767.279L939.053 807.242Z" stroke="white" stroke-width="1.33333" stroke-linecap="round" stroke-linejoin="round"/>
<path d="M761.07 670.117L807.972 692.915L797.605 642.18L761.07 670.117Z" stroke="white" stroke-width="1.33333" stroke-linecap="round" stroke-linejoin="round"/>
<path d="M995.616 814.615L1047.34 798.131L1049.86 757.459L995.616 814.615Z" stroke="white" stroke-width="1.33333" stroke-linecap="round" stroke-linejoin="round"/>
<path d="M703.407 396.973L735.271 417.621L763.015 361.789L703.407 396.973Z" stroke="white" stroke-width="1.33333" stroke-linecap="round" stroke-linejoin="round"/>
<path d="M1184.55 419.953L1188.19 348.348L1152.76 366.167L1184.55 419.953Z" stroke="white" stroke-width="1.33333" stroke-linecap="round" stroke-linejoin="round"/>
<path d="M1182.96 552.556L1215.8 529.595L1205.39 475.877L1182.96 552.556Z" stroke="white" stroke-width="1.33333" stroke-linecap="round" stroke-linejoin="round"/>
<path d="M822.715 736.211L861.629 710.685L807.973 692.916L822.715 736.211Z" stroke="white" stroke-width="1.33333" stroke-linecap="round" stroke-linejoin="round"/>
<path d="M995.616 814.615L1049.86 757.459L990.85 767.278L995.616 814.615Z" stroke="white" stroke-width="1.33333" stroke-linecap="round" stroke-linejoin="round"/>
<path d="M761.07 670.118L797.605 642.18L751.446 618.291L761.07 670.118Z" stroke="white" stroke-width="1.33333" stroke-linecap="round" stroke-linejoin="round"/>
<path d="M939.052 807.244L990.849 767.281L929.989 766.152L939.052 807.244Z" stroke="white" stroke-width="1.33333" stroke-linecap="round" stroke-linejoin="round"/>
<path d="M1182.96 552.556L1205.39 475.877L1170.71 496.995L1182.96 552.556Z" stroke="white" stroke-width="1.33333" stroke-linecap="round" stroke-linejoin="round"/>
<path d="M798.964 313.353L876.349 292.264L839.489 276.633L798.964 313.353Z" stroke="white" stroke-width="1.33333" stroke-linecap="round" stroke-linejoin="round"/>
<path d="M1049.86 757.461L1099.09 738.578L1101.99 695.568L1049.86 757.461Z" stroke="white" stroke-width="1.33333" stroke-linecap="round" stroke-linejoin="round"/>
<path d="M1040.84 293.519L1118.25 316.706L1078.86 278.518L1040.84 293.519Z" stroke="white" stroke-width="1.33333" stroke-linecap="round" stroke-linejoin="round"/>
<path d="M1147.87 626.994L1187.27 604.003L1182.96 552.555L1147.87 626.994Z" stroke="white" stroke-width="1.33333" stroke-linecap="round" stroke-linejoin="round"/>
<path d="M712.169 535.645L753.536 500.818L718.558 476.799L712.169 535.645Z" stroke="white" stroke-width="1.33333" stroke-linecap="round" stroke-linejoin="round"/>
<path d="M798.964 313.355L835.014 331.756L876.349 292.266L798.964 313.355Z" stroke="white" stroke-width="1.33333" stroke-linecap="round" stroke-linejoin="round"/>
<path d="M1147.87 626.994L1182.96 552.555L1142.41 574.786L1147.87 626.994Z" stroke="white" stroke-width="1.33333" stroke-linecap="round" stroke-linejoin="round"/>
<path d="M1101.99 695.567L1147.36 674.372L1147.87 626.994L1101.99 695.567Z" stroke="white" stroke-width="1.33333" stroke-linecap="round" stroke-linejoin="round"/>
<path d="M1040.84 293.516L1081.09 333.559L1118.25 316.703L1040.84 293.516Z" stroke="white" stroke-width="1.33333" stroke-linecap="round" stroke-linejoin="round"/>
<path d="M1049.86 757.461L1101.99 695.568L1047.1 711.838L1049.86 757.461Z" stroke="white" stroke-width="1.33333" stroke-linecap="round" stroke-linejoin="round"/>
<path d="M873.647 754.427L929.99 766.152L921.527 720.52L873.647 754.427Z" stroke="white" stroke-width="1.33333" stroke-linecap="round" stroke-linejoin="round"/>
<path d="M712.169 535.645L748.229 561.288L753.536 500.818L712.169 535.645Z" stroke="white" stroke-width="1.33333" stroke-linecap="round" stroke-linejoin="round"/>
<path d="M876.349 292.265L958.53 284.546L918.574 264.131L876.349 292.265Z" stroke="white" stroke-width="1.33333" stroke-linecap="round" stroke-linejoin="round"/>
<path d="M1101.99 695.567L1147.87 626.994L1099.54 647.537L1101.99 695.567Z" stroke="white" stroke-width="1.33333" stroke-linecap="round" stroke-linejoin="round"/>
<path d="M958.53 284.548L1040.84 293.519L999.613 264.66L958.53 284.548Z" stroke="white" stroke-width="1.33333" stroke-linecap="round" stroke-linejoin="round"/>
<path d="M876.349 292.264L915.587 313.015L958.53 284.545L876.349 292.264Z" stroke="white" stroke-width="1.33333" stroke-linecap="round" stroke-linejoin="round"/>
<path d="M958.53 284.545L1000.35 313.298L1040.84 293.517L958.53 284.545Z" stroke="white" stroke-width="1.33333" stroke-linecap="round" stroke-linejoin="round"/>
<path d="M873.646 754.427L921.526 720.52L861.628 710.688L873.646 754.427Z" stroke="white" stroke-width="1.33333" stroke-linecap="round" stroke-linejoin="round"/>
<path d="M1170.71 496.991L1205.39 475.873L1184.55 419.951L1170.71 496.991Z" stroke="white" stroke-width="1.33333" stroke-linecap="round" stroke-linejoin="round"/>
<path d="M1170.71 496.991L1184.55 419.951L1148.77 439.455L1170.71 496.991Z" stroke="white" stroke-width="1.33333" stroke-linecap="round" stroke-linejoin="round"/>
<path d="M718.56 476.8L770.104 439.605L735.272 417.621L718.56 476.8Z" stroke="white" stroke-width="1.33333" stroke-linecap="round" stroke-linejoin="round"/>
<path d="M751.446 618.292L792.265 585.867L748.23 561.289L751.446 618.292Z" stroke="white" stroke-width="1.33333" stroke-linecap="round" stroke-linejoin="round"/>
<path d="M763.015 361.788L835.014 331.755L798.964 313.354L763.015 361.788Z" stroke="white" stroke-width="1.33333" stroke-linecap="round" stroke-linejoin="round"/>
<path d="M807.973 692.918L861.629 710.687L851.807 661.148L807.973 692.918Z" stroke="white" stroke-width="1.33333" stroke-linecap="round" stroke-linejoin="round"/>
<path d="M751.446 618.293L797.605 642.182L792.265 585.867L751.446 618.293Z" stroke="white" stroke-width="1.33333" stroke-linecap="round" stroke-linejoin="round"/>
<path d="M990.85 767.28L1049.86 757.461L1047.1 711.838L990.85 767.28Z" stroke="white" stroke-width="1.33333" stroke-linecap="round" stroke-linejoin="round"/>
<path d="M1081.09 333.561L1152.76 366.168L1118.25 316.705L1081.09 333.561Z" stroke="white" stroke-width="1.33333" stroke-linecap="round" stroke-linejoin="round"/>
<path d="M929.989 766.148L990.849 767.277L984.975 720.547L929.989 766.148Z" stroke="white" stroke-width="1.33333" stroke-linecap="round" stroke-linejoin="round"/>
<path d="M763.015 361.787L798.28 381.925L835.014 331.754L763.015 361.787Z" stroke="white" stroke-width="1.33333" stroke-linecap="round" stroke-linejoin="round"/>
<path d="M718.56 476.802L753.538 500.821L770.104 439.607L718.56 476.802Z" stroke="white" stroke-width="1.33333" stroke-linecap="round" stroke-linejoin="round"/>
<path d="M807.972 692.915L851.806 661.146L797.605 642.18L807.972 692.915Z" stroke="white" stroke-width="1.33333" stroke-linecap="round" stroke-linejoin="round"/>
<path d="M990.849 767.28L1047.1 711.838L984.976 720.55L990.849 767.28Z" stroke="white" stroke-width="1.33333" stroke-linecap="round" stroke-linejoin="round"/>
<path d="M1081.09 333.561L1116.49 384.252L1152.76 366.167L1081.09 333.561Z" stroke="white" stroke-width="1.33333" stroke-linecap="round" stroke-linejoin="round"/>
<path d="M735.271 417.621L798.28 381.926L763.015 361.789L735.271 417.621Z" stroke="white" stroke-width="1.33333" stroke-linecap="round" stroke-linejoin="round"/>
<path d="M1148.77 439.455L1184.55 419.952L1152.76 366.166L1148.77 439.455Z" stroke="white" stroke-width="1.33333" stroke-linecap="round" stroke-linejoin="round"/>
<path d="M929.991 766.152L984.976 720.551L921.527 720.52L929.991 766.152Z" stroke="white" stroke-width="1.33333" stroke-linecap="round" stroke-linejoin="round"/>
<path d="M1148.77 439.455L1152.76 366.166L1116.49 384.25L1148.77 439.455Z" stroke="white" stroke-width="1.33333" stroke-linecap="round" stroke-linejoin="round"/>
<path d="M735.271 417.621L770.102 439.605L798.28 381.926L735.271 417.621Z" stroke="white" stroke-width="1.33333" stroke-linecap="round" stroke-linejoin="round"/>
<path d="M1142.41 574.786L1182.96 552.555L1170.71 496.994L1142.41 574.786Z" stroke="white" stroke-width="1.33333" stroke-linecap="round" stroke-linejoin="round"/>
<path d="M1142.41 574.786L1170.71 496.994L1130.6 518.407L1142.41 574.786Z" stroke="white" stroke-width="1.33333" stroke-linecap="round" stroke-linejoin="round"/>
<path d="M1047.1 711.837L1101.99 695.567L1099.54 647.537L1047.1 711.837Z" stroke="white" stroke-width="1.33333" stroke-linecap="round" stroke-linejoin="round"/>
<path d="M1099.54 647.537L1147.87 626.994L1142.41 574.785L1099.54 647.537Z" stroke="white" stroke-width="1.33333" stroke-linecap="round" stroke-linejoin="round"/>
<path d="M1047.1 711.837L1099.54 647.537L1042.08 663.485L1047.1 711.837Z" stroke="white" stroke-width="1.33333" stroke-linecap="round" stroke-linejoin="round"/>
<path d="M835.015 331.756L915.587 313.017L876.349 292.266L835.015 331.756Z" stroke="white" stroke-width="1.33333" stroke-linecap="round" stroke-linejoin="round"/>
<path d="M1000.35 313.297L1081.09 333.559L1040.84 293.516L1000.35 313.297Z" stroke="white" stroke-width="1.33333" stroke-linecap="round" stroke-linejoin="round"/>
<path d="M1099.54 647.537L1142.41 574.785L1093.57 595.606L1099.54 647.537Z" stroke="white" stroke-width="1.33333" stroke-linecap="round" stroke-linejoin="round"/>
<path d="M1000.35 313.295L1042.1 352.357L1081.09 333.557L1000.35 313.295Z" stroke="white" stroke-width="1.33333" stroke-linecap="round" stroke-linejoin="round"/>
<path d="M835.015 331.757L872.964 352.339L915.587 313.018L835.015 331.757Z" stroke="white" stroke-width="1.33333" stroke-linecap="round" stroke-linejoin="round"/>
<path d="M861.628 710.687L921.526 720.52L913.206 671.842L861.628 710.687Z" stroke="white" stroke-width="1.33333" stroke-linecap="round" stroke-linejoin="round"/>
<path d="M748.23 561.288L794.432 525.136L753.537 500.818L748.23 561.288Z" stroke="white" stroke-width="1.33333" stroke-linecap="round" stroke-linejoin="round"/>
<path d="M748.23 561.288L792.265 585.866L794.432 525.137L748.23 561.288Z" stroke="white" stroke-width="1.33333" stroke-linecap="round" stroke-linejoin="round"/>
<path d="M915.586 313.018L957.355 339.2L1000.35 313.301L915.586 313.018Z" stroke="white" stroke-width="1.33333" stroke-linecap="round" stroke-linejoin="round"/>
<path d="M861.629 710.687L913.207 671.842L851.807 661.148L861.629 710.687Z" stroke="white" stroke-width="1.33333" stroke-linecap="round" stroke-linejoin="round"/>
<path d="M915.586 313.015L1000.35 313.298L958.53 284.545L915.586 313.015Z" stroke="white" stroke-width="1.33333" stroke-linecap="round" stroke-linejoin="round"/>
<path d="M797.605 642.182L844.672 606.897L792.265 585.867L797.605 642.182Z" stroke="white" stroke-width="1.33333" stroke-linecap="round" stroke-linejoin="round"/>
<path d="M797.605 642.18L851.806 661.146L844.672 606.895L797.605 642.18Z" stroke="white" stroke-width="1.33333" stroke-linecap="round" stroke-linejoin="round"/>
<path d="M984.976 720.55L1047.1 711.838L1042.08 663.486L984.976 720.55Z" stroke="white" stroke-width="1.33333" stroke-linecap="round" stroke-linejoin="round"/>
<path d="M921.527 720.517L984.976 720.548L978.319 672.275L921.527 720.517Z" stroke="white" stroke-width="1.33333" stroke-linecap="round" stroke-linejoin="round"/>
<path d="M1130.6 518.409L1170.71 496.996L1148.77 439.459L1130.6 518.409Z" stroke="white" stroke-width="1.33333" stroke-linecap="round" stroke-linejoin="round"/>
<path d="M1130.6 518.409L1148.77 439.459L1110.29 459.574L1130.6 518.409Z" stroke="white" stroke-width="1.33333" stroke-linecap="round" stroke-linejoin="round"/>
<path d="M984.976 720.55L1042.08 663.486L978.318 672.278L984.976 720.55Z" stroke="white" stroke-width="1.33333" stroke-linecap="round" stroke-linejoin="round"/>
<path d="M921.527 720.52L978.318 672.278L913.207 671.842L921.527 720.52Z" stroke="white" stroke-width="1.33333" stroke-linecap="round" stroke-linejoin="round"/>
<path d="M798.28 381.925L872.964 352.335L835.014 331.754L798.28 381.925Z" stroke="white" stroke-width="1.33333" stroke-linecap="round" stroke-linejoin="round"/>
<path d="M753.537 500.821L808.064 462.4L770.102 439.607L753.537 500.821Z" stroke="white" stroke-width="1.33333" stroke-linecap="round" stroke-linejoin="round"/>
<path d="M753.537 500.82L794.431 525.138L808.064 462.398L753.537 500.82Z" stroke="white" stroke-width="1.33333" stroke-linecap="round" stroke-linejoin="round"/>
<path d="M1042.1 352.36L1116.49 384.252L1081.09 333.561L1042.1 352.36Z" stroke="white" stroke-width="1.33333" stroke-linecap="round" stroke-linejoin="round"/>
<path d="M798.28 381.927L835.299 402.985L872.964 352.338L798.28 381.927Z" stroke="white" stroke-width="1.33333" stroke-linecap="round" stroke-linejoin="round"/>
<path d="M1042.1 352.361L1078.95 402.924L1116.49 384.253L1042.1 352.361Z" stroke="white" stroke-width="1.33333" stroke-linecap="round" stroke-linejoin="round"/>
<path d="M770.102 439.605L835.299 402.983L798.279 381.926L770.102 439.605Z" stroke="white" stroke-width="1.33333" stroke-linecap="round" stroke-linejoin="round"/>
<path d="M1110.29 459.57L1148.77 439.455L1116.49 384.25L1110.29 459.57Z" stroke="white" stroke-width="1.33333" stroke-linecap="round" stroke-linejoin="round"/>
<path d="M1093.57 595.608L1130.6 518.408L1084.03 539.84L1093.57 595.608Z" stroke="white" stroke-width="1.33333" stroke-linecap="round" stroke-linejoin="round"/>
<path d="M1110.29 459.57L1116.49 384.25L1078.95 402.922L1110.29 459.57Z" stroke="white" stroke-width="1.33333" stroke-linecap="round" stroke-linejoin="round"/>
<path d="M770.102 439.606L808.064 462.398L835.299 402.984L770.102 439.606Z" stroke="white" stroke-width="1.33333" stroke-linecap="round" stroke-linejoin="round"/>
<path d="M1042.08 663.486L1099.54 647.538L1093.57 595.607L1042.08 663.486Z" stroke="white" stroke-width="1.33333" stroke-linecap="round" stroke-linejoin="round"/>
<path d="M1093.57 595.608L1142.41 574.787L1130.6 518.408L1093.57 595.608Z" stroke="white" stroke-width="1.33333" stroke-linecap="round" stroke-linejoin="round"/>
<path d="M1042.08 663.486L1093.57 595.607L1035.85 612.648L1042.08 663.486Z" stroke="white" stroke-width="1.33333" stroke-linecap="round" stroke-linejoin="round"/>
<path d="M851.807 661.149L913.207 671.843L905.573 620.27L851.807 661.149Z" stroke="white" stroke-width="1.33333" stroke-linecap="round" stroke-linejoin="round"/>
<path d="M851.807 661.146L905.572 620.266L844.672 606.895L851.807 661.146Z" stroke="white" stroke-width="1.33333" stroke-linecap="round" stroke-linejoin="round"/>
<path d="M792.265 585.866L842.373 548.056L794.432 525.137L792.265 585.866Z" stroke="white" stroke-width="1.33333" stroke-linecap="round" stroke-linejoin="round"/>
<path d="M792.265 585.866L844.672 606.896L842.373 548.057L792.265 585.866Z" stroke="white" stroke-width="1.33333" stroke-linecap="round" stroke-linejoin="round"/>
<path d="M957.355 339.199L1000.9 373.702L1042.1 352.362L957.355 339.199Z" stroke="white" stroke-width="1.33333" stroke-linecap="round" stroke-linejoin="round"/>
<path d="M872.964 352.338L913.198 374.776L957.356 339.199L872.964 352.338Z" stroke="white" stroke-width="1.33333" stroke-linecap="round" stroke-linejoin="round"/>
<path d="M872.964 352.339L957.356 339.2L915.587 313.018L872.964 352.339Z" stroke="white" stroke-width="1.33333" stroke-linecap="round" stroke-linejoin="round"/>
<path d="M957.355 339.194L1042.1 352.357L1000.35 313.295L957.355 339.194Z" stroke="white" stroke-width="1.33333" stroke-linecap="round" stroke-linejoin="round"/>
<path d="M978.318 672.28L1042.08 663.489L1035.85 612.65L978.318 672.28Z" stroke="white" stroke-width="1.33333" stroke-linecap="round" stroke-linejoin="round"/>
<path d="M913.207 671.841L978.318 672.278L971.473 622.08L913.207 671.841Z" stroke="white" stroke-width="1.33333" stroke-linecap="round" stroke-linejoin="round"/>
<path d="M978.318 672.28L1035.85 612.65L971.473 622.082L978.318 672.28Z" stroke="white" stroke-width="1.33333" stroke-linecap="round" stroke-linejoin="round"/>
<path d="M913.206 671.843L971.473 622.082L905.572 620.27L913.206 671.843Z" stroke="white" stroke-width="1.33333" stroke-linecap="round" stroke-linejoin="round"/>
<path d="M1084.03 539.837L1110.29 459.57L1068.44 480.464L1084.03 539.837Z" stroke="white" stroke-width="1.33333" stroke-linecap="round" stroke-linejoin="round"/>
<path d="M1084.03 539.837L1130.6 518.406L1110.29 459.57L1084.03 539.837Z" stroke="white" stroke-width="1.33333" stroke-linecap="round" stroke-linejoin="round"/>
<path d="M794.432 525.138L849.898 485.208L808.064 462.398L794.432 525.138Z" stroke="white" stroke-width="1.33333" stroke-linecap="round" stroke-linejoin="round"/>
<path d="M794.432 525.137L842.374 548.056L849.898 485.207L794.432 525.137Z" stroke="white" stroke-width="1.33333" stroke-linecap="round" stroke-linejoin="round"/>
<path d="M835.299 402.985L913.198 374.776L872.964 352.338L835.299 402.985Z" stroke="white" stroke-width="1.33333" stroke-linecap="round" stroke-linejoin="round"/>
<path d="M1035.85 612.645L1084.03 539.836L1028.9 559.205L1035.85 612.645Z" stroke="white" stroke-width="1.33333" stroke-linecap="round" stroke-linejoin="round"/>
<path d="M1035.85 612.645L1093.57 595.604L1084.03 539.836L1035.85 612.645Z" stroke="white" stroke-width="1.33333" stroke-linecap="round" stroke-linejoin="round"/>
<path d="M1000.9 373.701L1040.73 421.716L1078.95 402.924L1000.9 373.701Z" stroke="white" stroke-width="1.33333" stroke-linecap="round" stroke-linejoin="round"/>
<path d="M1000.9 373.701L1078.95 402.924L1042.1 352.361L1000.9 373.701Z" stroke="white" stroke-width="1.33333" stroke-linecap="round" stroke-linejoin="round"/>
<path d="M835.299 402.982L873.855 423.976L913.198 374.773L835.299 402.982Z" stroke="white" stroke-width="1.33333" stroke-linecap="round" stroke-linejoin="round"/>
<path d="M808.064 462.398L873.855 423.978L835.299 402.984L808.064 462.398Z" stroke="white" stroke-width="1.33333" stroke-linecap="round" stroke-linejoin="round"/>
<path d="M844.672 606.896L899.698 565.617L842.374 548.057L844.672 606.896Z" stroke="white" stroke-width="1.33333" stroke-linecap="round" stroke-linejoin="round"/>
<path d="M844.672 606.894L905.572 620.265L899.698 565.615L844.672 606.894Z" stroke="white" stroke-width="1.33333" stroke-linecap="round" stroke-linejoin="round"/>
<path d="M1068.45 480.467L1078.95 402.926L1040.73 421.718L1068.45 480.467Z" stroke="white" stroke-width="1.33333" stroke-linecap="round" stroke-linejoin="round"/>
<path d="M1068.44 480.467L1110.29 459.574L1078.95 402.926L1068.44 480.467Z" stroke="white" stroke-width="1.33333" stroke-linecap="round" stroke-linejoin="round"/>
<path d="M808.064 462.396L849.898 485.206L873.855 423.977L808.064 462.396Z" stroke="white" stroke-width="1.33333" stroke-linecap="round" stroke-linejoin="round"/>
<path d="M913.197 374.776L956.737 401.007L1000.9 373.701L913.197 374.776Z" stroke="white" stroke-width="1.33333" stroke-linecap="round" stroke-linejoin="round"/>
<path d="M913.197 374.776L1000.9 373.702L957.355 339.199L913.197 374.776Z" stroke="white" stroke-width="1.33333" stroke-linecap="round" stroke-linejoin="round"/>
<path d="M971.473 622.08L1035.85 612.648L1028.9 559.209L971.473 622.08Z" stroke="white" stroke-width="1.33333" stroke-linecap="round" stroke-linejoin="round"/>
<path d="M905.572 620.268L971.473 622.08L965.163 570.523L905.572 620.268Z" stroke="white" stroke-width="1.33333" stroke-linecap="round" stroke-linejoin="round"/>
<path d="M971.473 622.08L1028.9 559.209L965.163 570.523L971.473 622.08Z" stroke="white" stroke-width="1.33333" stroke-linecap="round" stroke-linejoin="round"/>
<path d="M1028.9 559.207L1068.45 480.465L1020.19 501.896L1028.9 559.207Z" stroke="white" stroke-width="1.33333" stroke-linecap="round" stroke-linejoin="round"/>
<path d="M905.572 620.265L965.163 570.521L899.697 565.615L905.572 620.265Z" stroke="white" stroke-width="1.33333" stroke-linecap="round" stroke-linejoin="round"/>
<path d="M1028.9 559.207L1084.03 539.838L1068.45 480.465L1028.9 559.207Z" stroke="white" stroke-width="1.33333" stroke-linecap="round" stroke-linejoin="round"/>
<path d="M842.374 548.056L898.533 506.565L849.898 485.207L842.374 548.056Z" stroke="white" stroke-width="1.33333" stroke-linecap="round" stroke-linejoin="round"/>
<path d="M842.374 548.054L899.698 565.615L898.533 506.562L842.374 548.054Z" stroke="white" stroke-width="1.33333" stroke-linecap="round" stroke-linejoin="round"/>
<path d="M956.738 401.006L1002.62 439.864L1040.73 421.715L956.738 401.006Z" stroke="white" stroke-width="1.33333" stroke-linecap="round" stroke-linejoin="round"/>
<path d="M873.855 423.976L956.738 401.005L913.198 374.773L873.855 423.976Z" stroke="white" stroke-width="1.33333" stroke-linecap="round" stroke-linejoin="round"/>
<path d="M1020.19 501.896L1040.73 421.715L1002.62 439.864L1020.19 501.896Z" stroke="white" stroke-width="1.33333" stroke-linecap="round" stroke-linejoin="round"/>
<path d="M873.855 423.977L912.816 443.146L956.738 401.006L873.855 423.977Z" stroke="white" stroke-width="1.33333" stroke-linecap="round" stroke-linejoin="round"/>
<path d="M956.738 401.007L1040.73 421.716L1000.9 373.701L956.738 401.007Z" stroke="white" stroke-width="1.33333" stroke-linecap="round" stroke-linejoin="round"/>
<path d="M849.897 485.206L912.816 443.145L873.855 423.977L849.897 485.206Z" stroke="white" stroke-width="1.33333" stroke-linecap="round" stroke-linejoin="round"/>
<path d="M849.897 485.205L898.532 506.563L912.816 443.145L849.897 485.205Z" stroke="white" stroke-width="1.33333" stroke-linecap="round" stroke-linejoin="round"/>
<path d="M1020.19 501.896L1068.45 480.465L1040.73 421.715L1020.19 501.896Z" stroke="white" stroke-width="1.33333" stroke-linecap="round" stroke-linejoin="round"/>
<path d="M965.163 570.522L1028.9 559.207L1020.19 501.896L965.163 570.522Z" stroke="white" stroke-width="1.33333" stroke-linecap="round" stroke-linejoin="round"/>
<path d="M899.697 565.617L965.163 570.523L960.215 519.021L899.697 565.617Z" stroke="white" stroke-width="1.33333" stroke-linecap="round" stroke-linejoin="round"/>
<path d="M965.163 570.522L1020.19 501.896L960.216 519.02L965.163 570.522Z" stroke="white" stroke-width="1.33333" stroke-linecap="round" stroke-linejoin="round"/>
<path d="M899.698 565.615L960.216 519.019L898.533 506.562L899.698 565.615Z" stroke="white" stroke-width="1.33333" stroke-linecap="round" stroke-linejoin="round"/>
<path d="M912.816 443.145L957.745 462.692L1002.62 439.863L912.816 443.145Z" stroke="white" stroke-width="1.33333" stroke-linecap="round" stroke-linejoin="round"/>
<path d="M960.215 519.019L1002.62 439.863L957.746 462.692L960.215 519.019Z" stroke="white" stroke-width="1.33333" stroke-linecap="round" stroke-linejoin="round"/>
<path d="M912.816 443.146L1002.62 439.864L956.737 401.006L912.816 443.146Z" stroke="white" stroke-width="1.33333" stroke-linecap="round" stroke-linejoin="round"/>
<path d="M898.533 506.566L960.216 519.023L957.746 462.695L898.533 506.566Z" stroke="white" stroke-width="1.33333" stroke-linecap="round" stroke-linejoin="round"/>
<path d="M898.533 506.563L957.746 462.692L912.816 443.145L898.533 506.563Z" stroke="white" stroke-width="1.33333" stroke-linecap="round" stroke-linejoin="round"/>
<path d="M960.216 519.019L1020.19 501.895L1002.62 439.863L960.216 519.019Z" stroke="white" stroke-width="1.33333" stroke-linecap="round" stroke-linejoin="round"/>
</svg>
