<?xml version="1.0" standalone="no"?>
<!DOCTYPE svg PUBLIC "-//W3C//DTD SVG 20010904//EN"
 "http://www.w3.org/TR/2001/REC-SVG-20010904/DTD/svg10.dtd">
<svg version="1.0" xmlns="http://www.w3.org/2000/svg"
 width="700.000000pt" height="700.000000pt" viewBox="0 0 700.000000 700.000000"
 preserveAspectRatio="xMidYMid meet">
<metadata>
Created by potrace 1.14, written by Peter Selinger 2001-2017
</metadata>
<g transform="translate(0.000000,700.000000) scale(0.100000,-0.100000)"
fill="#000000" stroke="none">
<path d="M4829 4433 c-1708 -1708 -2169 -2175 -2177 -2203 -6 -19 -9 -48 -7
-65 2 -16 3 -35 4 -42 2 -19 51 -73 85 -90 29 -16 139 -17 1384 -18 l1352 0 1
135 c1 140 0 182 -7 189 -2 2 -510 4 -1129 4 -619 0 -1125 1 -1125 3 0 2 853
857 1895 1899 l1895 1895 0 230 c0 126 -1 230 -3 230 -1 0 -977 -975 -2168
-2167z"/>
<path d="M1519 4928 c-1 -28 -1 -266 0 -290 1 -18 -82 -17 2026 -18 l240 0
-1893 -1893 -1892 -1892 0 -228 c0 -125 3 -227 6 -227 3 0 977 972 2164 2159
1349 1351 2161 2170 2168 2189 26 74 -8 161 -76 200 l-40 22 -1351 0 -1351 0
-1 -22z"/>
</g>
</svg>
