<svg width="1920" height="1080" viewBox="0 0 1920 1080" fill="none" xmlns="http://www.w3.org/2000/svg">
<path d="M322.834 429.789L314.812 440.517L305.742 450.373L295.762 459.31L285.028 467.322" stroke="#777777" stroke-linecap="round" stroke-linejoin="round" stroke-dasharray="2 2"/>
<path d="M1130.86 577.087L1125.25 569.296L1118.01 561.925L1107.63 555.448L1094.68 552.35" stroke="#777777" stroke-linecap="round" stroke-linejoin="round" stroke-dasharray="2 2"/>
<path d="M132.495 604.895L140.638 594.461L142.961 581.334L138.605 569.195L132.357 557.347" stroke="#777777" stroke-linecap="round" stroke-linejoin="round" stroke-dasharray="2 2"/>
<path d="M732.784 330.256L694.682 367.897" stroke="#777777" stroke-linecap="round" stroke-linejoin="round" stroke-dasharray="2 2"/>
<path d="M363.306 202.034L332.306 245.743" stroke="#777777" stroke-linecap="round" stroke-linejoin="round" stroke-dasharray="2 2"/>
<path d="M126.049 601.695L124.152 588.939L117.572 577.265L118.156 565.297L117.095 552.043" stroke="#777777" stroke-linecap="round" stroke-linejoin="round" stroke-dasharray="2 2"/>
<path d="M159.169 452.537L122.172 413.781" stroke="#777777" stroke-linecap="round" stroke-linejoin="round" stroke-dasharray="2 2"/>
<path d="M341.022 884.381L290.223 867.295" stroke="#777777" stroke-linecap="round" stroke-linejoin="round" stroke-dasharray="2 2"/>
<path d="M760.573 381.015L748.648 387.12L737.17 394.031L726.155 401.659L715.698 410.033" stroke="#777777" stroke-linecap="round" stroke-linejoin="round" stroke-dasharray="2 2"/>
<path d="M793.546 548.892L764.203 504.165" stroke="#777777" stroke-linecap="round" stroke-linejoin="round" stroke-dasharray="2 2"/>
<path d="M182.064 687.839L178.099 675.102L177.312 661.736L177.663 648.342L177.411 634.95" stroke="#777777" stroke-linecap="round" stroke-linejoin="round" stroke-dasharray="2 2"/>
<path d="M589.327 1003.92L576.657 1008.27L563.468 1008.44L550.222 1006.42L536.94 1004.66" stroke="#777777" stroke-linecap="round" stroke-linejoin="round" stroke-dasharray="2 2"/>
<path d="M693.485 416.678L682.99 424.992L673.392 434.331L664.604 444.443L656.276 454.939" stroke="#777777" stroke-linecap="round" stroke-linejoin="round" stroke-dasharray="2 2"/>
<path d="M129.598 747.321L126.88 734.2L125.119 720.921L124.502 707.538L124.363 694.139" stroke="#777777" stroke-linecap="round" stroke-linejoin="round" stroke-dasharray="2 2"/>
<path d="M634.393 996.659L621.062 997.777L607.77 999.449L594.38 999.777L581 999.062" stroke="#777777" stroke-linecap="round" stroke-linejoin="round" stroke-dasharray="2 2"/>
<path d="M768.027 547.411L760.214 536.524L752.4 525.638L743.889 515.385L732.014 509.245" stroke="#777777" stroke-linecap="round" stroke-linejoin="round" stroke-dasharray="2 2"/>
<path d="M1709.46 905.709L1722.65 903.346L1735.84 900.983L1748.77 897.574L1760.8 891.766" stroke="#777777" stroke-linecap="round" stroke-linejoin="round" stroke-dasharray="2 2"/>
<path d="M711.5 735.004L764.208 744.737" stroke="#777777" stroke-linecap="round" stroke-linejoin="round" stroke-dasharray="2 2"/>
<path d="M993.433 559.124L975.175 539.506L966.077 529.668L957.058 519.757" stroke="#777777" stroke-linecap="round" stroke-linejoin="round" stroke-dasharray="2 2"/>
<path d="M551.701 608.981L588.554 647.737" stroke="#777777" stroke-linecap="round" stroke-linejoin="round" stroke-dasharray="2 2"/>
<path d="M1244.1 745.687L1236.7 734.563L1231.53 722.223L1228.08 709.276L1225.27 696.175" stroke="#777777" stroke-linecap="round" stroke-linejoin="round" stroke-dasharray="2 2"/>
<path d="M646.726 972.352L633.739 975.645L620.592 978.212L607.238 979.224L593.862 978.63" stroke="#777777" stroke-linecap="round" stroke-linejoin="round" stroke-dasharray="2 2"/>
<path d="M1741.15 410.899L1777.01 410.973" stroke="#777777" stroke-linecap="round" stroke-linejoin="round" stroke-dasharray="2 2"/>
<path d="M1661.46 281.359L1668.43 274.122L1677.85 270.243L1689.04 268.28L1702.02 265.007" stroke="#777777" stroke-linecap="round" stroke-linejoin="round" stroke-dasharray="2 2"/>
<path d="M690.977 376L650.098 410.505" stroke="#777777" stroke-linecap="round" stroke-linejoin="round" stroke-dasharray="2 2"/>
<path d="M285.676 878.066L281.441 867.035L273.274 856.549L264.85 846.128L256.426 835.707" stroke="#777777" stroke-linecap="round" stroke-linejoin="round" stroke-dasharray="2 2"/>
<path d="M1303.18 733.556L1291.43 727.374L1283.02 717.041L1277.83 704.706L1274.4 691.758" stroke="#777777" stroke-linecap="round" stroke-linejoin="round" stroke-dasharray="2 2"/>
<path d="M607.851 993.71L595.08 997.761L581.837 999.597L568.461 998.968L555.174 997.232" stroke="#777777" stroke-linecap="round" stroke-linejoin="round" stroke-dasharray="2 2"/>
<path d="M1735 399.722L1788.6 399.85" stroke="#777777" stroke-linecap="round" stroke-linejoin="round" stroke-dasharray="2 2"/>
<path d="M965.666 604.993L957.863 594.099L934.374 561.476" stroke="#777777" stroke-linecap="round" stroke-linejoin="round" stroke-dasharray="2 2"/>
<path d="M259 91.5L238.154 111.408" stroke="#777777" stroke-linecap="round" stroke-linejoin="round" stroke-dasharray="2 2"/>
<path d="M1785.81 618.233L1794.67 628.283L1796.56 639.06L1793.56 652.109L1791.92 665.407" stroke="#777777" stroke-linecap="round" stroke-linejoin="round" stroke-dasharray="2 2"/>
<path d="M1259.93 242.418L1256.64 238.519L1249.19 228.72L1240.47 218.565L1229.4 211.105" stroke="#777777" stroke-linecap="round" stroke-linejoin="round" stroke-dasharray="2 2"/>
<path d="M139.617 740.101L135.361 727.4L132.658 714.285L131.375 700.95L130.743 687.564" stroke="#777777" stroke-linecap="round" stroke-linejoin="round" stroke-dasharray="2 2"/>
<path d="M581.536 579.455L586.66 591.833L593.051 603.6L600.59 614.673L608.845 625.223" stroke="#777777" stroke-linecap="round" stroke-linejoin="round" stroke-dasharray="2 2"/>
<path d="M1353.13 1004.34L1299.71 1007.02" stroke="#777777" stroke-linecap="round" stroke-linejoin="round" stroke-dasharray="2 2"/>
<path d="M987.164 456.06L939.593 431.36" stroke="#777777" stroke-linecap="round" stroke-linejoin="round" stroke-dasharray="2 2"/>
<path d="M137.278 686.843L141.877 633.535" stroke="#777777" stroke-linecap="round" stroke-linejoin="round" stroke-dasharray="2 2"/>
<path d="M625.897 778.614L625.201 791.945L623.146 805.184L619.986 818.202L615.791 830.922" stroke="#777777" stroke-linecap="round" stroke-linejoin="round" stroke-dasharray="2 2"/>
<path d="M1716.19 218L1707.06 224.025L1707.27 226.196L1709.78 232.787L1717.08 243.574" stroke="#777777" stroke-linecap="round" stroke-linejoin="round" stroke-dasharray="2 2"/>
<path d="M1214.76 778.991L1215.17 725.418" stroke="#777777" stroke-linecap="round" stroke-linejoin="round" stroke-dasharray="2 2"/>
<path d="M298.476 302.095L276.522 350.994" stroke="#777777" stroke-linecap="round" stroke-linejoin="round" stroke-dasharray="2 2"/>
<path d="M1175.13 1003.18L1168.1 1006.52L1160.28 996.003L1153.01 984.742L1145.75 973.482" stroke="#777777" stroke-linecap="round" stroke-linejoin="round" stroke-dasharray="2 2"/>
<path d="M978.358 605.942L962.919 584.036L955.137 573.126L947.213 562.32" stroke="#777777" stroke-linecap="round" stroke-linejoin="round" stroke-dasharray="2 2"/>
<path d="M902.508 282.24L897.379 245.629" stroke="#777777" stroke-linecap="round" stroke-linejoin="round" stroke-dasharray="2 2"/>
<path d="M443.758 264.506L431.107 268.845L419.834 276.037L409.217 284.211L399.399 293.318" stroke="#777777" stroke-linecap="round" stroke-linejoin="round" stroke-dasharray="2 2"/>
<path d="M1168.31 595.094L1156.7 588.4L1144.65 582.545L1132.08 577.941L1118.97 575.256" stroke="#777777" stroke-linecap="round" stroke-linejoin="round" stroke-dasharray="2 2"/>
<path d="M1255.33 704.696L1249.68 699.669L1247.64 691.991L1246.13 683.969L1244.9 674.825" stroke="#777777" stroke-linecap="round" stroke-linejoin="round" stroke-dasharray="2 2"/>
<path d="M735.053 728.932L787.758 738.688" stroke="#777777" stroke-linecap="round" stroke-linejoin="round" stroke-dasharray="2 2"/>
<path d="M162.808 311.388L153.618 321.084L143.042 327.726L132.923 330.775L122.805 333.824" stroke="#777777" stroke-linecap="round" stroke-linejoin="round" stroke-dasharray="2 2"/>
<path d="M119.84 646.863L124.391 634.261L127.196 621.183L127.653 607.81L125.726 594.555" stroke="#777777" stroke-linecap="round" stroke-linejoin="round" stroke-dasharray="2 2"/>
<path d="M734.24 740.262L786.937 750.061" stroke="#777777" stroke-linecap="round" stroke-linejoin="round" stroke-dasharray="2 2"/>
<path d="M1468.3 514.412L1479.63 507.26L1490.41 499.307L1500.48 490.471L1509.85 480.896" stroke="#777777" stroke-linecap="round" stroke-linejoin="round" stroke-dasharray="2 2"/>
<path d="M1596 212.884L1602.81 201.387L1611.21 190.955L1620.16 180.991L1629.91 171.812" stroke="#777777" stroke-linecap="round" stroke-linejoin="round" stroke-dasharray="2 2"/>
<path d="M314.476 299.932L289.534 347.351" stroke="#777777" stroke-linecap="round" stroke-linejoin="round" stroke-dasharray="2 2"/>
<path d="M346.605 765.901L293.005 765.581" stroke="#777777" stroke-linecap="round" stroke-linejoin="round" stroke-dasharray="2 2"/>
<path d="M994.017 540.567L958.278 500.64" stroke="#777777" stroke-linecap="round" stroke-linejoin="round" stroke-dasharray="2 2"/>
<path d="M930.531 535.287L905.833 487.74" stroke="#777777" stroke-linecap="round" stroke-linejoin="round" stroke-dasharray="2 2"/>
<path d="M1448.2 188.156L1501.24 180.613" stroke="#777777" stroke-linecap="round" stroke-linejoin="round" stroke-dasharray="2 2"/>
<path d="M853.575 956.946L848.242 946.306L838.804 936.797L829.329 927.321L819.854 917.846" stroke="#777777" stroke-linecap="round" stroke-linejoin="round" stroke-dasharray="2 2"/>
<path d="M274.831 254.027L239.505 294.295" stroke="#777777" stroke-linecap="round" stroke-linejoin="round" stroke-dasharray="2 2"/>
<path d="M1492.52 228.545L1503.75 221.226L1515.25 214.351L1527.19 208.288L1539.59 203.199" stroke="#777777" stroke-linecap="round" stroke-linejoin="round" stroke-dasharray="2 2"/>
<path d="M232.04 743.799L224.629 732.642L218.762 720.609L214.855 707.805L212.695 694.586" stroke="#777777" stroke-linecap="round" stroke-linejoin="round" stroke-dasharray="2 2"/>
<path d="M199.62 726.522L193.927 714.412L190.675 701.431L189.262 688.111L188.578 674.729" stroke="#777777" stroke-linecap="round" stroke-linejoin="round" stroke-dasharray="2 2"/>
<path d="M195.971 66L199.925 78.5299L199.484 91.854L195.15 104.509L189.111 116.467" stroke="#777777" stroke-linecap="round" stroke-linejoin="round" stroke-dasharray="2 2"/>
<path d="M1250.43 145.979L1199.12 161.492" stroke="#777777" stroke-linecap="round" stroke-linejoin="round" stroke-dasharray="2 2"/>
<path d="M764.5 191.5L749.155 177.156" stroke="#777777" stroke-linecap="round" stroke-linejoin="round" stroke-dasharray="2 2"/>
<path d="M976.57 371.216L965.938 363.059L933.961 338.695" stroke="#777777" stroke-linecap="round" stroke-linejoin="round" stroke-dasharray="2 2"/>
<path d="M1727.64 874.433L1740.73 871.569L1753.66 868.072L1766.35 863.785L1777.5 856.529" stroke="#777777" stroke-linecap="round" stroke-linejoin="round" stroke-dasharray="2 2"/>
<path d="M1612 210L1625.15 212.398L1637.39 217.811L1648.8 224.819L1659.52 232.86" stroke="#777777" stroke-linecap="round" stroke-linejoin="round" stroke-dasharray="2 2"/>
<path d="M149.946 715.876L145.76 703.161L143.803 689.917L143.249 676.531L142.969 663.134" stroke="#777777" stroke-linecap="round" stroke-linejoin="round" stroke-dasharray="2 2"/>
<path d="M1317.45 794.788L1306.07 789.739L1295.65 781.375L1287.51 770.765L1281.96 758.594" stroke="#777777" stroke-linecap="round" stroke-linejoin="round" stroke-dasharray="2 2"/>
<path d="M1523.86 197.285L1535.37 190.425L1547.4 184.528L1559.87 179.643L1572.59 175.415" stroke="#777777" stroke-linecap="round" stroke-linejoin="round" stroke-dasharray="2 2"/>
<path d="M1045.67 66.7822L1032.42 69.0577L1020.29 74.7298L1008.72 81.485L996.467 86.862" stroke="#777777" stroke-linecap="round" stroke-linejoin="round" stroke-dasharray="2 2"/>
<path d="M202.007 68L210.151 77.3978L210.865 90.6922L208.309 103.833L204.035 116.525" stroke="#777777" stroke-linecap="round" stroke-linejoin="round" stroke-dasharray="2 2"/>
<path d="M1567.89 95.0225L1621.35 99.0272" stroke="#777777" stroke-linecap="round" stroke-linejoin="round" stroke-dasharray="2 2"/>
<path d="M1747.79 615.79L1756.82 625.682L1766.2 635.257L1774.79 645.527L1782.11 656.728" stroke="#777777" stroke-linecap="round" stroke-linejoin="round" stroke-dasharray="2 2"/>
<path d="M1300.76 770.65L1290.54 762.119L1282.29 751.571L1276.04 739.745L1271.76 727.051" stroke="#777777" stroke-linecap="round" stroke-linejoin="round" stroke-dasharray="2 2"/>
<path d="M1545.74 304.269L1553.95 293.716L1564.51 285.526L1576.79 280.24L1589.96 277.941" stroke="#777777" stroke-linecap="round" stroke-linejoin="round" stroke-dasharray="2 2"/>
<path d="M1247.09 736.147L1241.32 724.342L1236.95 711.681L1234.27 698.568L1232.45 685.293" stroke="#777777" stroke-linecap="round" stroke-linejoin="round" stroke-dasharray="2 2"/>
<path d="M1526 162.166L1579.46 159.859" stroke="#777777" stroke-linecap="round" stroke-linejoin="round" stroke-dasharray="2 2"/>
<path d="M1676.97 556.337L1708.14 599.944" stroke="#777777" stroke-linecap="round" stroke-linejoin="round" stroke-dasharray="2 2"/>
<path d="M1176.31 678.806L1187.54 671.496L1198.77 664.186L1206.23 656.629L1201.99 647.519" stroke="#777777" stroke-linecap="round" stroke-linejoin="round" stroke-dasharray="2 2"/>
<path d="M1437.49 219.232L1489.2 205.298" stroke="#777777" stroke-linecap="round" stroke-linejoin="round" stroke-dasharray="2 2"/>
<path d="M1661.28 187.204L1663.29 200.452L1666.62 213.416L1671.75 225.769L1679.48 236.682" stroke="#777777" stroke-linecap="round" stroke-linejoin="round" stroke-dasharray="2 2"/>
<path d="M851.35 879.288L844.821 881.21" stroke="#777777" stroke-linecap="round" stroke-linejoin="round" stroke-dasharray="2 2"/>
<path d="M283.192 461.746L273.389 470.871L262.693 478.94L251.595 486.445L239.607 492.328" stroke="#777777" stroke-linecap="round" stroke-linejoin="round" stroke-dasharray="2 2"/>
<path d="M202.699 348.916L189.568 351.542L176.265 353.104L162.871 353.155L149.534 351.909" stroke="#777777" stroke-linecap="round" stroke-linejoin="round" stroke-dasharray="2 2"/>
<path d="M133.685 644.415L135.744 631.194L137.461 617.916L137.455 604.524L136.11 591.193" stroke="#777777" stroke-linecap="round" stroke-linejoin="round" stroke-dasharray="2 2"/>
<path d="M1202.95 155L1152 171.632" stroke="#777777" stroke-linecap="round" stroke-linejoin="round" stroke-dasharray="2 2"/>
<path d="M1708.52 560.834L1737.94 605.573" stroke="#777777" stroke-linecap="round" stroke-linejoin="round" stroke-dasharray="2 2"/>
<path d="M553.963 455L537.783 506.101" stroke="#777777" stroke-linecap="round" stroke-linejoin="round" stroke-dasharray="2 2"/>
<path d="M1768.21 800.207L1780.98 796.148L1793.75 792.089L1794.1 788.308L1784.64 784.699" stroke="#777777" stroke-linecap="round" stroke-linejoin="round" stroke-dasharray="2 2"/>
<path d="M459.023 239.721L445.848 242.149L433.023 245.997L420.934 251.747L409.945 259.391" stroke="#777777" stroke-linecap="round" stroke-linejoin="round" stroke-dasharray="2 2"/>
<path d="M1221.9 119.861L1171.01 136.691" stroke="#777777" stroke-linecap="round" stroke-linejoin="round" stroke-dasharray="2 2"/>
<path d="M602.887 985.62L590.089 989.584L576.83 991.318L563.449 990.763L550.143 989.19" stroke="#777777" stroke-linecap="round" stroke-linejoin="round" stroke-dasharray="2 2"/>
<path d="M999.293 288.044L977.84 287.132" stroke="#777777" stroke-linecap="round" stroke-linejoin="round" stroke-dasharray="2 2"/>
<path d="M1688.37 306.934L1692.45 294.17L1695.66 287.817L1699.36 286.102L1703.5 284.684" stroke="#777777" stroke-linecap="round" stroke-linejoin="round" stroke-dasharray="2 2"/>
<path d="M732.586 380L722.143 388.396L712.272 397.455L703.076 407.198L694.315 417.335" stroke="#777777" stroke-linecap="round" stroke-linejoin="round" stroke-dasharray="2 2"/>
<path d="M438.725 265.396L425.845 269.016L413.988 275.208L403.558 283.595L394.402 293.369" stroke="#777777" stroke-linecap="round" stroke-linejoin="round" stroke-dasharray="2 2"/>
<path d="M1324.48 452.676L1300.07 500.232" stroke="#777777" stroke-linecap="round" stroke-linejoin="round" stroke-dasharray="2 2"/>
<path d="M752.467 414.355L740.684 420.714L729.933 428.695L720.345 438.045L711.608 448.202" stroke="#777777" stroke-linecap="round" stroke-linejoin="round" stroke-dasharray="2 2"/>
<path d="M1005.45 237.1L964.242 268.435" stroke="#777777" stroke-linecap="round" stroke-linejoin="round" stroke-dasharray="2 2"/>
<path d="M1428.28 840.913L1423.56 894.262" stroke="#777777" stroke-linecap="round" stroke-linejoin="round" stroke-dasharray="2 2"/>
<path d="M369.042 207.333L337.521 250.656" stroke="#777777" stroke-linecap="round" stroke-linejoin="round" stroke-dasharray="2 2"/>
<path d="M994.623 230L983.359 236.392L972.805 244.636L962.417 252.794L950.382 255.533" stroke="#777777" stroke-linecap="round" stroke-linejoin="round" stroke-dasharray="2 2"/>
<path d="M1430.88 1009.99L1377.28 1009.97" stroke="#777777" stroke-linecap="round" stroke-linejoin="round" stroke-dasharray="2 2"/>
<path d="M165.343 752.368L161.261 739.605L157.998 726.614L156.115 713.352L155.124 699.989" stroke="#777777" stroke-linecap="round" stroke-linejoin="round" stroke-dasharray="2 2"/>
<path d="M160.53 404.829L119.715 370.307" stroke="#777777" stroke-linecap="round" stroke-linejoin="round" stroke-dasharray="2 2"/>
<path d="M1583.17 485.138L1620.1 447.777" stroke="#777777" stroke-linecap="round" stroke-linejoin="round" stroke-dasharray="2 2"/>
<path d="M418.159 277.86L406.175 282.508L394.728 289.425L384.469 298.032L375.046 307.554" stroke="#777777" stroke-linecap="round" stroke-linejoin="round" stroke-dasharray="2 2"/>
<path d="M1570.51 130.95L1622.97 141.945" stroke="#777777" stroke-linecap="round" stroke-linejoin="round" stroke-dasharray="2 2"/>
<path d="M330.549 469.402L320.94 478.731L310.217 486.756L298.893 493.917L287.038 500.15" stroke="#777777" stroke-linecap="round" stroke-linejoin="round" stroke-dasharray="2 2"/>
<path d="M680.983 828.961L640.902 864.549" stroke="#777777" stroke-linecap="round" stroke-linejoin="round" stroke-dasharray="2 2"/>
<path d="M1238.82 773.783L1236.04 760.69L1234.71 747.358L1234.55 733.965L1235.32 720.587" stroke="#777777" stroke-linecap="round" stroke-linejoin="round" stroke-dasharray="2 2"/>
<path d="M810.156 992.811L808.225 990.711L806.382 985.045L804.488 972.744L802.726 959.465" stroke="#777777" stroke-linecap="round" stroke-linejoin="round" stroke-dasharray="2 2"/>
<path d="M167.154 624.151L166.001 610.863L167.76 597.588L169.386 584.321L165.822 571.461" stroke="#777777" stroke-linecap="round" stroke-linejoin="round" stroke-dasharray="2 2"/>
<path d="M1193.46 705.923L1216.46 678.601" stroke="#777777" stroke-linecap="round" stroke-linejoin="round" stroke-dasharray="2 2"/>
<path d="M599.27 702.543L650.125 719.479" stroke="#777777" stroke-linecap="round" stroke-linejoin="round" stroke-dasharray="2 2"/>
<path d="M1303.32 450.394L1303.5 460.443L1298.43 472.822L1292.4 484.788L1286.36 496.754" stroke="#777777" stroke-linecap="round" stroke-linejoin="round" stroke-dasharray="2 2"/>
<path d="M296.853 493.016L288.815 503.721L280.023 513.831L270.346 523.084L259.471 530.893" stroke="#777777" stroke-linecap="round" stroke-linejoin="round" stroke-dasharray="2 2"/>
<path d="M1544 149.326L1557.23 151.346L1570.63 151.502L1584 150.624L1597.22 148.481" stroke="#777777" stroke-linecap="round" stroke-linejoin="round" stroke-dasharray="2 2"/>
<path d="M1174.22 767.145L1196.71 718.545" stroke="#777777" stroke-linecap="round" stroke-linejoin="round" stroke-dasharray="2 2"/>
<path d="M288.398 580.156L280.188 569.726L270.212 560.79L258.874 553.684L246.572 548.387" stroke="#777777" stroke-linecap="round" stroke-linejoin="round" stroke-dasharray="2 2"/>
<path d="M352.655 876.724L301.631 860.326" stroke="#777777" stroke-linecap="round" stroke-linejoin="round" stroke-dasharray="2 2"/>
<path d="M1351.83 510.44L1345.84 510.4L1335.15 513.991L1322.5 518.409L1309.87 522.89" stroke="#777777" stroke-linecap="round" stroke-linejoin="round" stroke-dasharray="2 2"/>
<path d="M682.903 330L648.73 371.282" stroke="#777777" stroke-linecap="round" stroke-linejoin="round" stroke-dasharray="2 2"/>
<path d="M278.28 498.052L268.864 505.169L257.953 509.872L245.745 515.104L232.91 518.912" stroke="#777777" stroke-linecap="round" stroke-linejoin="round" stroke-dasharray="2 2"/>
<path d="M980.112 395.429L937.508 362.903" stroke="#777777" stroke-linecap="round" stroke-linejoin="round" stroke-dasharray="2 2"/>
<path d="M1577 203.453L1616.81 167.673" stroke="#777777" stroke-linecap="round" stroke-linejoin="round" stroke-dasharray="2 2"/>
<path d="M188.841 282.595L180.326 292.901L169.534 300.775L157.126 305.783L144.208 309.334" stroke="#777777" stroke-linecap="round" stroke-linejoin="round" stroke-dasharray="2 2"/>
<path d="M1224.21 160.655L1173.26 177.287" stroke="#777777" stroke-linecap="round" stroke-linejoin="round" stroke-dasharray="2 2"/>
<path d="M467.555 271.483L454.641 275.024L442.476 280.594L431.591 288.384L421.718 297.437" stroke="#777777" stroke-linecap="round" stroke-linejoin="round" stroke-dasharray="2 2"/>
<path d="M1356.89 715.827L1343.57 715.574L1330.43 712.964L1317.69 708.845L1306.06 702.249" stroke="#777777" stroke-linecap="round" stroke-linejoin="round" stroke-dasharray="2 2"/>
<path d="M1755.35 830.524L1762.32 828.273L1775.08 824.192L1786.46 818.381L1789.9 806.73" stroke="#777777" stroke-linecap="round" stroke-linejoin="round" stroke-dasharray="2 2"/>
<path d="M1708.57 870.906L1721.18 866.391L1733.31 860.683L1745.34 854.787L1755.84 846.625" stroke="#777777" stroke-linecap="round" stroke-linejoin="round" stroke-dasharray="2 2"/>
<path d="M322.461 885.465L271.584 868.627" stroke="#777777" stroke-linecap="round" stroke-linejoin="round" stroke-dasharray="2 2"/>
<path d="M961.617 465.885L953.838 461.468L930.455 448.122" stroke="#777777" stroke-linecap="round" stroke-linejoin="round" stroke-dasharray="2 2"/>
<path d="M1476.17 156.203L1489.55 156.939L1502.94 156.575L1516.28 155.381L1529.55 153.526" stroke="#777777" stroke-linecap="round" stroke-linejoin="round" stroke-dasharray="2 2"/>
<path d="M178.807 721.457L172.897 709.45L169.319 696.554L167.549 683.277L166.472 669.92" stroke="#777777" stroke-linecap="round" stroke-linejoin="round" stroke-dasharray="2 2"/>
<path d="M1691.35 198.993L1686.59 211.428L1688.35 223.864L1695.44 235.215L1703.98 245.525" stroke="#777777" stroke-linecap="round" stroke-linejoin="round" stroke-dasharray="2 2"/>
<path d="M175.898 327.893L165.076 335.761L152.859 341.13L139.807 343.811L126.49 345.179" stroke="#777777" stroke-linecap="round" stroke-linejoin="round" stroke-dasharray="2 2"/>
<path d="M1579.02 218.336L1591.05 212.657L1604.36 212.798L1616.92 217.336L1628.23 224.51" stroke="#777777" stroke-linecap="round" stroke-linejoin="round" stroke-dasharray="2 2"/>
<path d="M1592.18 615.511L1605.43 614.957L1618.22 618.898L1630.69 623.804L1642.95 629.191" stroke="#777777" stroke-linecap="round" stroke-linejoin="round" stroke-dasharray="2 2"/>
<path d="M1508.6 529.734L1539.52 485.996" stroke="#777777" stroke-linecap="round" stroke-linejoin="round" stroke-dasharray="2 2"/>
<path d="M378.803 450.59L369.934 460.631L360.166 469.795L349.549 477.964L338.296 485.233" stroke="#777777" stroke-linecap="round" stroke-linejoin="round" stroke-dasharray="2 2"/>
<path d="M385.639 863.468L334.736 846.716" stroke="#777777" stroke-linecap="round" stroke-linejoin="round" stroke-dasharray="2 2"/>
<path d="M253.333 565.577L243.913 561.994" stroke="#777777" stroke-linecap="round" stroke-linejoin="round" stroke-dasharray="2 2"/>
<path d="M1201.01 573.754L1147.69 568.547" stroke="#777777" stroke-linecap="round" stroke-linejoin="round" stroke-dasharray="2 2"/>
<path d="M1060.63 105.798L1049.28 98.6904L1036.75 94.1768L1023.5 95.6505L1010.39 98.4101" stroke="#777777" stroke-linecap="round" stroke-linejoin="round" stroke-dasharray="2 2"/>
<path d="M441.523 262.613L428.488 265.691L415.99 270.49L404.418 277.209L394.218 285.879" stroke="#777777" stroke-linecap="round" stroke-linejoin="round" stroke-dasharray="2 2"/>
<path d="M1646.81 580.808L1690.91 611.121" stroke="#777777" stroke-linecap="round" stroke-linejoin="round" stroke-dasharray="2 2"/>
<path d="M1217.51 140.857L1166.56 157.489" stroke="#777777" stroke-linecap="round" stroke-linejoin="round" stroke-dasharray="2 2"/>
<path d="M1206.58 563.128L1153 561.857" stroke="#777777" stroke-linecap="round" stroke-linejoin="round" stroke-dasharray="2 2"/>
<path d="M1068.25 200.936L1060.65 211.97L1051.76 221.982L1041.49 230.564L1030.33 237.977" stroke="#777777" stroke-linecap="round" stroke-linejoin="round" stroke-dasharray="2 2"/>
<path d="M1191.22 266.403L1192.76 253.092L1192.83 239.806L1184.6 229.977L1172.38 224.478" stroke="#777777" stroke-linecap="round" stroke-linejoin="round" stroke-dasharray="2 2"/>
<path d="M826.14 947.519L818.124 936.101" stroke="#777777" stroke-linecap="round" stroke-linejoin="round" stroke-dasharray="2 2"/>
<path d="M989.662 591.92L954.558 551.415" stroke="#777777" stroke-linecap="round" stroke-linejoin="round" stroke-dasharray="2 2"/>
<path d="M974.183 356.049L963.524 347.927L931.548 323.562" stroke="#777777" stroke-linecap="round" stroke-linejoin="round" stroke-dasharray="2 2"/>
<path d="M912.129 556.591L906.14 544.604L900.286 532.55L888.786 508.342" stroke="#777777" stroke-linecap="round" stroke-linejoin="round" stroke-dasharray="2 2"/>
<path d="M1420.28 865.474L1426.8 913.676" stroke="#777777" stroke-linecap="round" stroke-linejoin="round" stroke-dasharray="2 2"/>
<path d="M1566.58 548.972L1574.48 538.15L1599.8 506.933" stroke="#777777" stroke-linecap="round" stroke-linejoin="round" stroke-dasharray="2 2"/>
<path d="M1548.6 636.7L1557.27 626.606L1569.34 621.011L1582.65 620.109L1595.83 622.426" stroke="#777777" stroke-linecap="round" stroke-linejoin="round" stroke-dasharray="2 2"/>
<path d="M1584 309.734L1593.15 300.051L1605.23 294.424L1618.46 292.419L1631.79 293.382" stroke="#777777" stroke-linecap="round" stroke-linejoin="round" stroke-dasharray="2 2"/>
<path d="M148.221 641.08L147.138 587.579" stroke="#777777" stroke-linecap="round" stroke-linejoin="round" stroke-dasharray="2 2"/>
<path d="M1180.92 543.089L1167.64 544.81L1154.25 545.094L1140.87 544.307L1127.54 542.99" stroke="#777777" stroke-linecap="round" stroke-linejoin="round" stroke-dasharray="2 2"/>
<path d="M1751 428.308L1794.85 429.401" stroke="#777777" stroke-linecap="round" stroke-linejoin="round" stroke-dasharray="2 2"/>
<path d="M359.162 633.121L339.641 611.404" stroke="#777777" stroke-linecap="round" stroke-linejoin="round" stroke-dasharray="2 2"/>
<path d="M1437.09 853.287L1434.9 906.816" stroke="#777777" stroke-linecap="round" stroke-linejoin="round" stroke-dasharray="2 2"/>
<path d="M1717.98 307.974L1720.79 302.449" stroke="#777777" stroke-linecap="round" stroke-linejoin="round" stroke-dasharray="2 2"/>
<path d="M668.366 722.963L720.806 734.051" stroke="#777777" stroke-linecap="round" stroke-linejoin="round" stroke-dasharray="2 2"/>
<path d="M670.62 778.542L666.465 791.272L660.984 803.495L654.521 815.23L647.286 826.508" stroke="#777777" stroke-linecap="round" stroke-linejoin="round" stroke-dasharray="2 2"/>
<path d="M1635.77 232.111L1680.2 251.238" stroke="#777777" stroke-linecap="round" stroke-linejoin="round" stroke-dasharray="2 2"/>
<path d="M363.586 203.999L332.929 247.948" stroke="#777777" stroke-linecap="round" stroke-linejoin="round" stroke-dasharray="2 2"/>
<path d="M361.158 750.371L311.138 750.107" stroke="#777777" stroke-linecap="round" stroke-linejoin="round" stroke-dasharray="2 2"/>
<path d="M1602.01 271.773L1614.35 266.796L1627.71 266.254L1641.04 267.536L1654.22 269.914" stroke="#777777" stroke-linecap="round" stroke-linejoin="round" stroke-dasharray="2 2"/>
<path d="M584.381 453L563.235 502.253" stroke="#777777" stroke-linecap="round" stroke-linejoin="round" stroke-dasharray="2 2"/>
<path d="M1702.49 152L1700.04 165.172L1699.07 178.515L1701.65 191.62L1707.65 203.527" stroke="#777777" stroke-linecap="round" stroke-linejoin="round" stroke-dasharray="2 2"/>
<path d="M159.014 693.071L157.776 639.593" stroke="#777777" stroke-linecap="round" stroke-linejoin="round" stroke-dasharray="2 2"/>
<path d="M688.585 187.905L697.841 173.072" stroke="#777777" stroke-linecap="round" stroke-linejoin="round" stroke-dasharray="2 2"/>
<path d="M583.635 400.448L567.63 451.604" stroke="#777777" stroke-linecap="round" stroke-linejoin="round" stroke-dasharray="2 2"/>
<path d="M1585.12 454.329L1622.87 416.274" stroke="#777777" stroke-linecap="round" stroke-linejoin="round" stroke-dasharray="2 2"/>
<path d="M789.302 991.453L791.564 950.775" stroke="#777777" stroke-linecap="round" stroke-linejoin="round" stroke-dasharray="2 2"/>
<path d="M334.97 638.178L335.43 635.626L331.687 626.705L324.237 615.631L313.684 607.452" stroke="#777777" stroke-linecap="round" stroke-linejoin="round" stroke-dasharray="2 2"/>
<path d="M626.165 449.281L602.557 497.39" stroke="#777777" stroke-linecap="round" stroke-linejoin="round" stroke-dasharray="2 2"/>
<path d="M543.052 483L526.787 534.074" stroke="#777777" stroke-linecap="round" stroke-linejoin="round" stroke-dasharray="2 2"/>
<path d="M1529 136.464L1542.16 138.994L1555.51 139.903L1568.9 139.459L1582.19 137.806" stroke="#777777" stroke-linecap="round" stroke-linejoin="round" stroke-dasharray="2 2"/>
<path d="M268.975 289.505L232.712 328.895" stroke="#777777" stroke-linecap="round" stroke-linejoin="round" stroke-dasharray="2 2"/>
<path d="M718.749 993.159L665.759 1001.16" stroke="#777777" stroke-linecap="round" stroke-linejoin="round" stroke-dasharray="2 2"/>
<path d="M325.167 242.884L298.863 289.583" stroke="#777777" stroke-linecap="round" stroke-linejoin="round" stroke-dasharray="2 2"/>
<path d="M1503.03 244.76L1547.55 215.051" stroke="#777777" stroke-linecap="round" stroke-linejoin="round" stroke-dasharray="2 2"/>
<path d="M558.11 1001.09L553.909 1007.16L544.751 997.401L535.39 987.812L526.029 978.224" stroke="#777777" stroke-linecap="round" stroke-linejoin="round" stroke-dasharray="2 2"/>
<path d="M261.847 486.917L251.078 494.891L240.308 502.864L229.512 510.801L216.605 512.281" stroke="#777777" stroke-linecap="round" stroke-linejoin="round" stroke-dasharray="2 2"/>
<path d="M1549.98 224.308L1592.01 191.091" stroke="#777777" stroke-linecap="round" stroke-linejoin="round" stroke-dasharray="2 2"/>
<path d="M1169.38 995.076L1168.98 1008.43L1165.95 997.835L1163.54 984.657L1161.86 971.363" stroke="#777777" stroke-linecap="round" stroke-linejoin="round" stroke-dasharray="2 2"/>
<path d="M296.215 600.484L295.935 587.263L289.863 575.425L279.041 567.71L266.346 563.463" stroke="#777777" stroke-linecap="round" stroke-linejoin="round" stroke-dasharray="2 2"/>
<path d="M1087.36 94.1764L1076.07 86.9683L1063.96 81.3141L1050.68 80.8223L1037.63 83.829" stroke="#777777" stroke-linecap="round" stroke-linejoin="round" stroke-dasharray="2 2"/>
<path d="M116.532 648.371L116.527 594.778" stroke="#777777" stroke-linecap="round" stroke-linejoin="round" stroke-dasharray="2 2"/>
<path d="M878.36 263.425L877.958 235.037" stroke="#777777" stroke-linecap="round" stroke-linejoin="round" stroke-dasharray="2 2"/>
<path d="M124.001 609.767L130.438 598.026L133.133 584.984L130.528 572.048L128.119 558.873" stroke="#777777" stroke-linecap="round" stroke-linejoin="round" stroke-dasharray="2 2"/>
<path d="M571.874 626.327L614.168 659.252" stroke="#777777" stroke-linecap="round" stroke-linejoin="round" stroke-dasharray="2 2"/>
<path d="M717.758 376.549L707.194 384.79L697.043 393.536L687.491 402.929L678.673 413.016" stroke="#777777" stroke-linecap="round" stroke-linejoin="round" stroke-dasharray="2 2"/>
<path d="M1732.5 564.941L1762.8 609.024" stroke="#777777" stroke-linecap="round" stroke-linejoin="round" stroke-dasharray="2 2"/>
<path d="M713.213 397.651L701.842 404.679L692.213 413.974L684.04 424.583L676.904 435.921" stroke="#777777" stroke-linecap="round" stroke-linejoin="round" stroke-dasharray="2 2"/>
<path d="M775 181.5L758.381 166.449" stroke="#777777" stroke-linecap="round" stroke-linejoin="round" stroke-dasharray="2 2"/>
<path d="M375.132 568.108L368.943 570.83L356.662 574.025L343.704 570.827L331.086 566.318" stroke="#777777" stroke-linecap="round" stroke-linejoin="round" stroke-dasharray="2 2"/>
<path d="M1508.64 866.627L1495.25 886.349" stroke="#777777" stroke-linecap="round" stroke-linejoin="round" stroke-dasharray="2 2"/>
<path d="M691.134 392L680.31 399.899L669.947 408.389L660.356 417.741L651.467 427.766" stroke="#777777" stroke-linecap="round" stroke-linejoin="round" stroke-dasharray="2 2"/>
<path d="M168.844 382.822L120.629 359.474" stroke="#777777" stroke-linecap="round" stroke-linejoin="round" stroke-dasharray="2 2"/>
<path d="M977.743 202.46L974.321 215.403L969.207 227.781L961.326 238.36L948.264 239.013" stroke="#777777" stroke-linecap="round" stroke-linejoin="round" stroke-dasharray="2 2"/>
<path d="M925.29 513.543L902.325 465.112" stroke="#777777" stroke-linecap="round" stroke-linejoin="round" stroke-dasharray="2 2"/>
<path d="M1001.42 267.059L978.271 273.654" stroke="#777777" stroke-linecap="round" stroke-linejoin="round" stroke-dasharray="2 2"/>
<path d="M671.825 413L640.038 456.112" stroke="#777777" stroke-linecap="round" stroke-linejoin="round" stroke-dasharray="2 2"/>
<path d="M1571.51 510.911L1600.76 466.021" stroke="#777777" stroke-linecap="round" stroke-linejoin="round" stroke-dasharray="2 2"/>
<path d="M1016.84 203L1010.18 214.618L1002.65 225.697L994.387 236.242L985.028 245.815" stroke="#777777" stroke-linecap="round" stroke-linejoin="round" stroke-dasharray="2 2"/>
<path d="M1176.39 712.093L1183.63 700.828L1192.14 690.487L1201.23 680.653L1205.61 668.249" stroke="#777777" stroke-linecap="round" stroke-linejoin="round" stroke-dasharray="2 2"/>
<path d="M1275.29 159.842L1224.05 175.566" stroke="#777777" stroke-linecap="round" stroke-linejoin="round" stroke-dasharray="2 2"/>
<path d="M670.723 826.321L629.589 860.688" stroke="#777777" stroke-linecap="round" stroke-linejoin="round" stroke-dasharray="2 2"/>
<path d="M1007.23 367.622L985.188 352.374L963.631 336.451" stroke="#777777" stroke-linecap="round" stroke-linejoin="round" stroke-dasharray="2 2"/>
<path d="M291.056 476.655L280.893 485.358L269.219 491.905L256.942 497.271L244.292 501.657" stroke="#777777" stroke-linecap="round" stroke-linejoin="round" stroke-dasharray="2 2"/>
<path d="M1214.6 245.227L1215.13 232.049L1206.97 222.368L1194.34 217.918L1181.42 214.374" stroke="#777777" stroke-linecap="round" stroke-linejoin="round" stroke-dasharray="2 2"/>
<path d="M565.038 467.356L547.614 518.044" stroke="#777777" stroke-linecap="round" stroke-linejoin="round" stroke-dasharray="2 2"/>
<path d="M1572.99 295.089L1582.56 285.825L1594.9 280.764L1608.19 279.261L1621.52 280.425" stroke="#777777" stroke-linecap="round" stroke-linejoin="round" stroke-dasharray="2 2"/>
<path d="M204.79 315.599L195.742 325.437L184.428 332.539L171.664 336.53L158.367 338.05" stroke="#777777" stroke-linecap="round" stroke-linejoin="round" stroke-dasharray="2 2"/>
<path d="M713.016 719.568L765.205 731.725" stroke="#777777" stroke-linecap="round" stroke-linejoin="round" stroke-dasharray="2 2"/>
<path d="M270.273 581.427L266.96 570.107L257.027 561.315L244.879 555.665L232.513 550.516" stroke="#777777" stroke-linecap="round" stroke-linejoin="round" stroke-dasharray="2 2"/>
<path d="M1168.43 1003.67L1169.71 1005.14L1169.1 991.753L1168.5 978.366L1167.9 964.979" stroke="#777777" stroke-linecap="round" stroke-linejoin="round" stroke-dasharray="2 2"/>
<path d="M366.416 165.874L328.639 203.87" stroke="#777777" stroke-linecap="round" stroke-linejoin="round" stroke-dasharray="2 2"/>
<path d="M1686.96 684.486L1698.06 689.016" stroke="#777777" stroke-linecap="round" stroke-linejoin="round" stroke-dasharray="2 2"/>
<path d="M526.865 453L510.762 504.125" stroke="#777777" stroke-linecap="round" stroke-linejoin="round" stroke-dasharray="2 2"/>
<path d="M1473.03 828.088L1467.04 881.342" stroke="#777777" stroke-linecap="round" stroke-linejoin="round" stroke-dasharray="2 2"/>
<path d="M659.925 788.911L627.38 831.383" stroke="#777777" stroke-linecap="round" stroke-linejoin="round" stroke-dasharray="2 2"/>
<path d="M124.184 687.085L131.568 634.07" stroke="#777777" stroke-linecap="round" stroke-linejoin="round" stroke-dasharray="2 2"/>
<path d="M932.07 614.632L914.546 582.864" stroke="#777777" stroke-linecap="round" stroke-linejoin="round" stroke-dasharray="2 2"/>
<path d="M1269.79 184.18L1256.93 187.874L1243.57 188.852L1230.17 188.89L1216.77 188.745" stroke="#777777" stroke-linecap="round" stroke-linejoin="round" stroke-dasharray="2 2"/>
<path d="M1762.09 604.691L1769.73 615.695L1777.12 626.856L1782.43 639.126L1785.83 652.086" stroke="#777777" stroke-linecap="round" stroke-linejoin="round" stroke-dasharray="2 2"/>
<path d="M992.56 393.268L962.443 366.642L952.135 358.08" stroke="#777777" stroke-linecap="round" stroke-linejoin="round" stroke-dasharray="2 2"/>
<path d="M696.247 839.361L655.068 867.752" stroke="#777777" stroke-linecap="round" stroke-linejoin="round" stroke-dasharray="2 2"/>
<path d="M1737.86 637.599L1775.59 675.659" stroke="#777777" stroke-linecap="round" stroke-linejoin="round" stroke-dasharray="2 2"/>
<path d="M970.137 542.804L954.781 520.839L946.875 510.02L938.654 499.438" stroke="#777777" stroke-linecap="round" stroke-linejoin="round" stroke-dasharray="2 2"/>
<path d="M451.272 232.618L438.25 235.767L425.651 240.3L413.781 246.502L402.335 253.467" stroke="#777777" stroke-linecap="round" stroke-linejoin="round" stroke-dasharray="2 2"/>
<path d="M758.238 551.455L761.565 538.541L760.255 525.253L756.561 512.394L748.718 501.815" stroke="#777777" stroke-linecap="round" stroke-linejoin="round" stroke-dasharray="2 2"/>
<path d="M535.05 466L518.787 517.074" stroke="#777777" stroke-linecap="round" stroke-linejoin="round" stroke-dasharray="2 2"/>
<path d="M126.703 648.936L128.328 635.636L129.492 622.295L130.032 608.91L128.919 595.559" stroke="#777777" stroke-linecap="round" stroke-linejoin="round" stroke-dasharray="2 2"/>
<path d="M541.348 711.95L553.469 717.646L563.755 726.041L569.083 738.272L572.805 751.141" stroke="#777777" stroke-linecap="round" stroke-linejoin="round" stroke-dasharray="2 2"/>
<path d="M304.338 203.561L269.992 244.681" stroke="#777777" stroke-linecap="round" stroke-linejoin="round" stroke-dasharray="2 2"/>
<path d="M737.457 359L726.817 367.143L716.71 375.938L707.362 385.532L698.93 395.941" stroke="#777777" stroke-linecap="round" stroke-linejoin="round" stroke-dasharray="2 2"/>
<path d="M1710.37 559.65L1739.07 604.855" stroke="#777777" stroke-linecap="round" stroke-linejoin="round" stroke-dasharray="2 2"/>
<path d="M1002.42 425.729L959.639 393.445" stroke="#777777" stroke-linecap="round" stroke-linejoin="round" stroke-dasharray="2 2"/>
<path d="M1608.34 503.717L1640.59 460.906" stroke="#777777" stroke-linecap="round" stroke-linejoin="round" stroke-dasharray="2 2"/>
<path d="M1687.39 853.237L1700.25 849.465L1712.95 845.204L1725.49 840.486L1736.28 832.768" stroke="#777777" stroke-linecap="round" stroke-linejoin="round" stroke-dasharray="2 2"/>
<path d="M1037.07 223L1029.19 233.823L1019.58 243.124L1008.32 250.365L996.234 256.14" stroke="#777777" stroke-linecap="round" stroke-linejoin="round" stroke-dasharray="2 2"/>
<path d="M1286.52 475.306L1284.94 478.195" stroke="#777777" stroke-linecap="round" stroke-linejoin="round" stroke-dasharray="2 2"/>
<path d="M646.483 104.506L655.998 113.941L666.578 121.954L679.067 126.811L691.556 131.668" stroke="#777777" stroke-linecap="round" stroke-linejoin="round" stroke-dasharray="2 2"/>
<path d="M295.613 282.91L288.406 294.207L280.793 305.231L272.426 315.695L263.029 325.246" stroke="#777777" stroke-linecap="round" stroke-linejoin="round" stroke-dasharray="2 2"/>
<path d="M1539.07 255.929L1549.05 246.991L1559.58 238.698L1570.9 231.549L1582.89 225.574" stroke="#777777" stroke-linecap="round" stroke-linejoin="round" stroke-dasharray="2 2"/>
<path d="M1794.61 865.367L1796.25 863.728L1797.88 862.089L1799.52 860.45L1799.61 852.899" stroke="#777777" stroke-linecap="round" stroke-linejoin="round" stroke-dasharray="2 2"/>
<path d="M761.221 993.551L765.614 970.973" stroke="#777777" stroke-linecap="round" stroke-linejoin="round" stroke-dasharray="2 2"/>
<path d="M686.356 348L650.84 388.092" stroke="#777777" stroke-linecap="round" stroke-linejoin="round" stroke-dasharray="2 2"/>
<path d="M411.556 291.34L400.6 298.934L391.787 309.01L383.75 319.732L375.898 330.59" stroke="#777777" stroke-linecap="round" stroke-linejoin="round" stroke-dasharray="2 2"/>
<path d="M907.973 611.089L901.952 582.525" stroke="#777777" stroke-linecap="round" stroke-linejoin="round" stroke-dasharray="2 2"/>
<path d="M1044.38 44.4355L1033.27 46.4771L1022.16 53.9628L1011.04 61.4486L999.927 68.9343" stroke="#777777" stroke-linecap="round" stroke-linejoin="round" stroke-dasharray="2 2"/>
<path d="M547.009 432.209L531.883 483.631" stroke="#777777" stroke-linecap="round" stroke-linejoin="round" stroke-dasharray="2 2"/>
<path d="M1729.07 204L1717.87 211.29L1714 223.009L1721.21 232.785L1732.26 240.366" stroke="#777777" stroke-linecap="round" stroke-linejoin="round" stroke-dasharray="2 2"/>
<path d="M195.123 385.412L144.571 367.922" stroke="#777777" stroke-linecap="round" stroke-linejoin="round" stroke-dasharray="2 2"/>
<path d="M588.946 584.503L622.07 626.518" stroke="#777777" stroke-linecap="round" stroke-linejoin="round" stroke-dasharray="2 2"/>
<path d="M353.971 443.751L345.099 453.789L335.329 462.951L324.711 471.12L313.458 478.389" stroke="#777777" stroke-linecap="round" stroke-linejoin="round" stroke-dasharray="2 2"/>
<path d="M567.303 1007.51L514.417 1001.43" stroke="#777777" stroke-linecap="round" stroke-linejoin="round" stroke-dasharray="2 2"/>
<path d="M824.641 948.421L817.166 936.306" stroke="#777777" stroke-linecap="round" stroke-linejoin="round" stroke-dasharray="2 2"/>
<path d="M1682.23 154.476L1683.25 167.834L1684.11 181.204L1686.79 194.314L1692.15 206.561" stroke="#777777" stroke-linecap="round" stroke-linejoin="round" stroke-dasharray="2 2"/>
<path d="M998.205 413.805L968.397 386.834L958.569 377.725" stroke="#777777" stroke-linecap="round" stroke-linejoin="round" stroke-dasharray="2 2"/>
<path d="M1351.33 469.43L1310.98 504.041" stroke="#777777" stroke-linecap="round" stroke-linejoin="round" stroke-dasharray="2 2"/>
<path d="M642 125L651.482 134.469L662.663 138.851L674.344 141.737L686.026 144.623" stroke="#777777" stroke-linecap="round" stroke-linejoin="round" stroke-dasharray="2 2"/>
<path d="M317.927 208.503L283.39 249.47" stroke="#777777" stroke-linecap="round" stroke-linejoin="round" stroke-dasharray="2 2"/>
<path d="M434.336 257.635L421.589 261.722L409.781 268.015L399.254 276.285L389.798 285.775" stroke="#777777" stroke-linecap="round" stroke-linejoin="round" stroke-dasharray="2 2"/>
<path d="M784.603 676.836L790.908 684.591" stroke="#777777" stroke-linecap="round" stroke-linejoin="round" stroke-dasharray="2 2"/>
<path d="M1594.74 77.9814L1648.2 81.9873" stroke="#777777" stroke-linecap="round" stroke-linejoin="round" stroke-dasharray="2 2"/>
<path d="M297.33 865.911L243.823 863.949" stroke="#777777" stroke-linecap="round" stroke-linejoin="round" stroke-dasharray="2 2"/>
<path d="M1521 223.645L1531.69 215.563L1542.74 207.992L1554.23 201.102L1566.2 195.086" stroke="#777777" stroke-linecap="round" stroke-linejoin="round" stroke-dasharray="2 2"/>
<path d="M172.372 550.931L169.042 541.896" stroke="#777777" stroke-linecap="round" stroke-linejoin="round" stroke-dasharray="2 2"/>
<path d="M753.81 393.448L742.507 400.638L731.817 408.717L721.629 417.416L712.066 426.801" stroke="#777777" stroke-linecap="round" stroke-linejoin="round" stroke-dasharray="2 2"/>
<path d="M1671 167L1671.66 180.375L1672.69 193.721L1676.59 206.499L1683.62 217.871" stroke="#777777" stroke-linecap="round" stroke-linejoin="round" stroke-dasharray="2 2"/>
<path d="M574.793 385.057L558.358 436.072" stroke="#777777" stroke-linecap="round" stroke-linejoin="round" stroke-dasharray="2 2"/>
<path d="M1158.65 649.163L1160.91 648.926L1164.49 647.828L1170.81 644.498L1171.16 640.039" stroke="#777777" stroke-linecap="round" stroke-linejoin="round" stroke-dasharray="2 2"/>
<path d="M1691.2 519.267L1705.07 542.168L1720.83 563.844" stroke="#777777" stroke-linecap="round" stroke-linejoin="round" stroke-dasharray="2 2"/>
<path d="M1422.96 977.552L1369.38 978.158" stroke="#777777" stroke-linecap="round" stroke-linejoin="round" stroke-dasharray="2 2"/>
<path d="M312.165 292.873L285.916 339.564" stroke="#777777" stroke-linecap="round" stroke-linejoin="round" stroke-dasharray="2 2"/>
<path d="M1092.76 68.3042L1081.48 61.0835L1069.29 55.5946L1056.04 54.1416L1042.87 56.4718" stroke="#777777" stroke-linecap="round" stroke-linejoin="round" stroke-dasharray="2 2"/>
<path d="M1572.49 624.911L1583.4 617.382L1596.58 615.521L1609.81 617.569L1622.6 621.522" stroke="#777777" stroke-linecap="round" stroke-linejoin="round" stroke-dasharray="2 2"/>
<path d="M317.638 862.33L265.468 850.578" stroke="#777777" stroke-linecap="round" stroke-linejoin="round" stroke-dasharray="2 2"/>
<path d="M774.442 445.578L761.086 444.569L747.938 446.624L735.239 450.891L723.403 457.039" stroke="#777777" stroke-linecap="round" stroke-linejoin="round" stroke-dasharray="2 2"/>
<path d="M345.29 294.018L318.109 340.201" stroke="#777777" stroke-linecap="round" stroke-linejoin="round" stroke-dasharray="2 2"/>
<path d="M1356.49 505.852L1343.99 503.221L1330.99 506.398L1318.13 510.161L1305.27 513.923" stroke="#777777" stroke-linecap="round" stroke-linejoin="round" stroke-dasharray="2 2"/>
<path d="M741.714 584.375L743.228 571.078L741.977 557.763L738.289 544.902L731.688 533.254" stroke="#777777" stroke-linecap="round" stroke-linejoin="round" stroke-dasharray="2 2"/>
<path d="M1347.3 703.299L1334.01 702.872L1321.38 698.423L1310 691.612L1301.82 681.008" stroke="#777777" stroke-linecap="round" stroke-linejoin="round" stroke-dasharray="2 2"/>
<path d="M1595.68 504.325L1627.9 461.5" stroke="#777777" stroke-linecap="round" stroke-linejoin="round" stroke-dasharray="2 2"/>
<path d="M373.997 572.09L367.42 574.717L360.058 576.468L346.961 576.823L333.842 574.122" stroke="#777777" stroke-linecap="round" stroke-linejoin="round" stroke-dasharray="2 2"/>
<path d="M1240.85 249.371L1236.74 236.995L1229.99 225.588L1220.31 216.397L1208.73 209.69" stroke="#777777" stroke-linecap="round" stroke-linejoin="round" stroke-dasharray="2 2"/>
<path d="M440.4 284.273L427.489 287.722L415.8 294.214L405.792 303.098L396.977 313.185" stroke="#777777" stroke-linecap="round" stroke-linejoin="round" stroke-dasharray="2 2"/>
<path d="M1004.99 438.829L961.729 407.198" stroke="#777777" stroke-linecap="round" stroke-linejoin="round" stroke-dasharray="2 2"/>
<path d="M679.449 460.286L651.123 491.834" stroke="#777777" stroke-linecap="round" stroke-linejoin="round" stroke-dasharray="2 2"/>
<path d="M1710.39 638.104L1747.86 676.421" stroke="#777777" stroke-linecap="round" stroke-linejoin="round" stroke-dasharray="2 2"/>
<path d="M607.622 724.669L616.393 734.526L618.533 747.638L615.904 760.738L610.705 773.075" stroke="#777777" stroke-linecap="round" stroke-linejoin="round" stroke-dasharray="2 2"/>
<path d="M353.432 256.055L321.205 298.869" stroke="#777777" stroke-linecap="round" stroke-linejoin="round" stroke-dasharray="2 2"/>
<path d="M1724.78 855.118L1737.63 851.302L1750.68 848.28L1763.38 844.252L1771.18 833.743" stroke="#777777" stroke-linecap="round" stroke-linejoin="round" stroke-dasharray="2 2"/>
<path d="M291.787 305.392L269.846 354.296" stroke="#777777" stroke-linecap="round" stroke-linejoin="round" stroke-dasharray="2 2"/>
<path d="M1585 250.346L1597.69 246.418L1611.07 246.174L1624.24 248.481L1636.79 253.155" stroke="#777777" stroke-linecap="round" stroke-linejoin="round" stroke-dasharray="2 2"/>
<path d="M577.667 621.466L619.377 655.111" stroke="#777777" stroke-linecap="round" stroke-linejoin="round" stroke-dasharray="2 2"/>
<path d="M1564.87 199.907L1604.07 163.444" stroke="#777777" stroke-linecap="round" stroke-linejoin="round" stroke-dasharray="2 2"/>
<path d="M670.257 954.606L657.482 958.645L644.536 962.099L631.385 964.648L618.056 965.981" stroke="#777777" stroke-linecap="round" stroke-linejoin="round" stroke-dasharray="2 2"/>
<path d="M300.093 893.383L288.818 886.161L276.557 880.785L263.702 877.028L250.533 874.569" stroke="#777777" stroke-linecap="round" stroke-linejoin="round" stroke-dasharray="2 2"/>
<path d="M1475.2 474.011L1478.85 474.201L1483.05 473.628L1487.77 472.257L1493.48 469.278" stroke="#777777" stroke-linecap="round" stroke-linejoin="round" stroke-dasharray="2 2"/>
<path d="M942.083 497.567L940.487 495.288L934.49 485.16L926.236 474.629L916.867 465.049" stroke="#777777" stroke-linecap="round" stroke-linejoin="round" stroke-dasharray="2 2"/>
<path d="M700.772 350.094L665.022 390.014" stroke="#777777" stroke-linecap="round" stroke-linejoin="round" stroke-dasharray="2 2"/>
<path d="M1258.55 600.7L1205.13 596.427" stroke="#777777" stroke-linecap="round" stroke-linejoin="round" stroke-dasharray="2 2"/>
<path d="M406.494 482.805L383.802 495.802" stroke="#777777" stroke-linecap="round" stroke-linejoin="round" stroke-dasharray="2 2"/>
<path d="M1374.87 1008.89L1321.28 1008.1" stroke="#777777" stroke-linecap="round" stroke-linejoin="round" stroke-dasharray="2 2"/>
<path d="M119.554 674.312L124.595 621.041" stroke="#777777" stroke-linecap="round" stroke-linejoin="round" stroke-dasharray="2 2"/>
<path d="M746.569 695.952L755.682 705.767L765.794 714.547L776.827 722.137L788.699 728.336" stroke="#777777" stroke-linecap="round" stroke-linejoin="round" stroke-dasharray="2 2"/>
<path d="M1505.69 524.684L1533.41 479.899" stroke="#777777" stroke-linecap="round" stroke-linejoin="round" stroke-dasharray="2 2"/>
<path d="M206.358 62.8311L214.015 67.1512L219.217 79.4162L220.981 92.5749L218.633 105.744" stroke="#777777" stroke-linecap="round" stroke-linejoin="round" stroke-dasharray="2 2"/>
<path d="M288.047 294.976L266.066 343.862" stroke="#777777" stroke-linecap="round" stroke-linejoin="round" stroke-dasharray="2 2"/>
<path d="M872.823 919.374L830.01 905.97" stroke="#777777" stroke-linecap="round" stroke-linejoin="round" stroke-dasharray="2 2"/>
<path d="M272.386 476.758L295.435 468.078L287.263 457.13L272.386 476.758Z" fill="white"/>
<path d="M1079.34 548.679L1100.76 560.827L1103.94 547.54L1079.34 548.679Z" fill="white"/>
<path d="M124.999 543.392L129.994 567.509L142.078 561.137L124.999 543.392Z" fill="white"/>
<path d="M684.13 379.624L705.035 366.602L694.879 357.464L684.13 379.624Z" fill="white"/>
<path d="M323.513 258.84L342.373 243L331.03 235.386L323.513 258.84Z" fill="white"/>
<path d="M115.836 536.316L110.915 560.449L124.533 559.359L115.836 536.316Z" fill="white"/>
<path d="M111.439 402.219L122.53 424.21L132.543 414.916L111.439 402.219Z" fill="white"/>
<path d="M275.193 862.498L295.659 876.201L299.813 863.186L275.193 862.498Z" fill="white"/>
<path d="M703.384 419.894L726.125 410.434L717.585 399.771L703.384 419.894Z" fill="white"/>
<path d="M755.701 490.876L762.7 514.49L774.208 507.127L755.701 490.876Z" fill="white"/>
<path d="M177.114 619.178L170.729 642.965L184.389 642.708L177.114 619.178Z" fill="white"/>
<path d="M521.301 1002.59L543.864 1012.46L545.655 998.921L521.301 1002.59Z" fill="white"/>
<path d="M646.471 467.296L666.53 453.005L655.828 444.514L646.471 467.296Z" fill="white"/>
<path d="M124.2 678.364L117.614 702.097L131.275 701.955L124.2 678.364Z" fill="white"/>
<path d="M565.247 998.22L588.512 1006.3L589.241 992.661L565.247 998.22Z" fill="white"/>
<path d="M718 502L735.883 518.935L742.157 506.799L718 502Z" fill="white"/>
<path d="M1775.01 884.906L1750.73 889.043L1756.67 901.346L1775.01 884.906Z" fill="white"/>
<path d="M779.705 747.688L757.738 736.551L755.182 749.971L779.705 747.688Z" fill="white"/>
<path d="M946.441 508.089L957.315 530.188L967.419 520.993L946.441 508.089Z" fill="white"/>
<path d="M600.201 658.375L587.336 637.373L578.123 647.46L600.201 658.375Z" fill="white"/>
<path d="M1221.96 680.751L1220.25 705.321L1233.6 702.453L1221.96 680.751Z" fill="white"/>
<path d="M578.102 977.929L601.439 985.803L602.045 972.154L578.102 977.929Z" fill="white"/>
<path d="M1792.78 411.008L1769.14 404.123L1769.11 417.785L1792.78 411.008Z" fill="white"/>
<path d="M1717.32 261.148L1692.7 260.312L1696.04 273.559L1717.32 261.148Z" fill="white"/>
<path d="M639 421.717L660.502 409.706L650.792 400.095L639 421.717Z" fill="white"/>
<path d="M246.508 823.438L256.072 846.135L266.697 837.546L246.508 823.438Z" fill="white"/>
<path d="M1270.35 676.509L1269.82 701.132L1283.02 697.63L1270.35 676.509Z" fill="white"/>
<path d="M539.532 995.189L562.11 1005.03L563.88 991.481L539.532 995.189Z" fill="white"/>
<path d="M1804.38 399.887L1780.73 393L1780.7 406.662L1804.38 399.887Z" fill="white"/>
<path d="M925.049 548.751L933.526 571.875L944.545 563.8L925.049 548.751Z" fill="white"/>
<path d="M227 122.564L248.561 110.66L238.9 101L227 122.564Z" fill="white"/>
<path d="M1790 681.064L1799.67 658.413L1786.11 656.743L1790 681.064Z" fill="white"/>
<path d="M1216.32 202.289L1232.13 221.178L1239.76 209.849L1216.32 202.289Z" fill="white"/>
<path d="M129.999 671.807L124.292 695.765L137.938 695.121L129.999 671.807Z" fill="white"/>
<path d="M618.566 637.646L609.364 614.801L598.604 623.22L618.566 637.646Z" fill="white"/>
<path d="M1283.94 1006.88L1307.54 1013.91L1307.66 1000.25L1283.94 1006.88Z" fill="white"/>
<path d="M925.593 424.091L943.446 441.057L949.741 428.932L925.593 424.091Z" fill="white"/>
<path d="M143.114 617.809L134.448 640.863L148.067 641.935L143.114 617.809Z" fill="white"/>
<path d="M610.851 845.904L624.749 825.571L611.774 821.292L610.851 845.904Z" fill="white"/>
<path d="M1725.92 256.636L1718.31 233.212L1707 240.871L1725.92 256.636Z" fill="white"/>
<path d="M1215.78 709.654L1208.04 733.037L1221.69 733.563L1215.78 709.654Z" fill="white"/>
<path d="M270.063 365.386L285.983 346.593L273.518 341L270.063 365.386Z" fill="white"/>
<path d="M1137.2 960.226L1144.29 983.813L1155.77 976.406L1137.2 960.226Z" fill="white"/>
<path d="M937.884 549.598L946.369 572.719L957.386 564.64L937.884 549.598Z" fill="white"/>
<path d="M894.51 230.117L892.096 254.628L905.53 252.143L894.51 230.117Z" fill="white"/>
<path d="M387.833 304.046L409.828 292.962L400.537 282.945L387.833 304.046Z" fill="white"/>
<path d="M1103.51 572.09L1125.32 583.53L1128.06 570.146L1103.51 572.09Z" fill="white"/>
<path d="M1242.79 659.191L1239.18 683.554L1252.72 681.733L1242.79 659.191Z" fill="white"/>
<path d="M803.27 741.559L781.246 730.535L778.759 743.969L803.27 741.559Z" fill="white"/>
<path d="M107.701 338.376L132.329 338.089L128.387 325.008L107.701 338.376Z" fill="white"/>
<path d="M123.456 578.942L120.1 603.342L133.62 601.376L123.456 578.942Z" fill="white"/>
<path d="M802.44 752.977L780.448 741.889L777.922 755.315L802.44 752.977Z" fill="white"/>
<path d="M1520.88 469.62L1499.45 481.757L1509.21 491.311L1520.88 469.62Z" fill="white"/>
<path d="M1641.4 161L1619.48 172.242L1628.84 182.191L1641.4 161Z" fill="white"/>
<path d="M282.641 361.541L299.124 343.24L286.835 337.271L282.641 361.541Z" fill="white"/>
<path d="M277.23 765.486L300.852 772.458L300.933 758.797L277.23 765.486Z" fill="white"/>
<path d="M948.172 488.526L958.084 511.073L968.575 502.322L948.172 488.526Z" fill="white"/>
<path d="M898.008 474.042L903.814 497.977L915.676 491.201L898.008 474.042Z" fill="white"/>
<path d="M1516.74 177.703L1492.23 175.354L1494.75 188.781L1516.74 177.703Z" fill="white"/>
<path d="M808.699 906.69L820.6 928.253L830.261 918.593L808.699 906.69Z" fill="white"/>
<path d="M228.611 305.704L249.893 293.307L240.012 283.872L228.611 305.704Z" fill="white"/>
<path d="M1554.18 197.207L1529.7 199.875L1534.89 212.513L1554.18 197.207Z" fill="white"/>
<path d="M210.152 679.016L207.226 703.47L220.709 701.267L210.152 679.016Z" fill="white"/>
<path d="M187.771 658.974L182.158 682.955L195.802 682.257L187.771 658.974Z" fill="white"/>
<path d="M182 130.549L198.764 112.506L186.569 106.348L182 130.549Z" fill="white"/>
<path d="M1184.02 166.073L1208.65 165.737L1204.68 152.664L1184.02 166.073Z" fill="white"/>
<path d="M738 166L749.901 187.563L759.562 177.903L738 166Z" fill="white"/>
<path d="M921.393 329.16L936.116 348.905L944.373 338.021L921.393 329.16Z" fill="white"/>
<path d="M1790.72 847.928L1767.16 855.104L1774.61 866.556L1790.72 847.928Z" fill="white"/>
<path d="M1672.14 242.327L1657.31 222.661L1649.11 233.589L1672.14 242.327Z" fill="white"/>
<path d="M142.639 647.361L136.304 671.162L149.963 670.876L142.639 647.361Z" fill="white"/>
<path d="M1275.4 744.243L1279.02 768.606L1291.45 762.931L1275.4 744.243Z" fill="white"/>
<path d="M1587.56 170.437L1562.95 171.421L1567.26 184.385L1587.56 170.437Z" fill="white"/>
<path d="M997.841 104.085L1022.25 100.832L1016.76 88.3213L997.841 104.085Z" fill="white"/>
<path d="M199 131.475L213.025 111.229L200.078 106.869L199 131.475Z" fill="white"/>
<path d="M1637.08 100.206L1613.99 91.626L1612.97 105.25L1637.08 100.206Z" fill="white"/>
<path d="M1266.73 712.101L1267.81 736.706L1280.76 732.344L1266.73 712.101Z" fill="white"/>
<path d="M1605.5 275.23L1581.02 272.568L1583.36 286.027L1605.5 275.23Z" fill="white"/>
<path d="M1230.31 669.662L1226.75 694.032L1240.29 692.182L1230.31 669.662Z" fill="white"/>
<path d="M1595.13 158.005L1570.83 154L1572.43 167.567L1595.13 158.005Z" fill="white"/>
<path d="M1717.19 612.865L1709.21 589.564L1698.02 597.402L1717.19 612.865Z" fill="white"/>
<path d="M1195.35 633.212L1199.12 657.55L1211.51 651.794L1195.35 633.212Z" fill="white"/>
<path d="M1504.6 201.872L1480.02 200.342L1482.98 213.678L1504.6 201.872Z" fill="white"/>
<path d="M1688.6 249.556L1680.5 226.298L1669.35 234.194L1688.6 249.556Z" fill="white"/>
<path d="M829.202 878.994L851.671 889.079L853.589 875.553L829.202 878.994Z" fill="white"/>
<path d="M225.445 499.277L249.697 494.986L243.679 482.721L225.445 499.277Z" fill="white"/>
<path d="M133.826 350.441L156.751 359.444L158.022 345.842L133.826 350.441Z" fill="white"/>
<path d="M134.527 575.497L130.104 599.726L143.697 598.355L134.527 575.497Z" fill="white"/>
<path d="M1137 176.527L1161.61 175.678L1157.38 162.69L1137 176.527Z" fill="white"/>
<path d="M1745.87 619.21L1739.88 595.321L1728.07 602.191L1745.87 619.21Z" fill="white"/>
<path d="M533 521.133L546.684 500.655L533.665 496.513L533 521.133Z" fill="white"/>
<path d="M1769.9 779.075L1789.58 793.893L1794.45 781.129L1769.9 779.075Z" fill="white"/>
<path d="M396.995 268.4L420.321 260.494L412.52 249.279L396.995 268.4Z" fill="white"/>
<path d="M1156.02 141.623L1180.63 140.712L1176.36 127.735L1156.02 141.623Z" fill="white"/>
<path d="M534.476 987.338L557.173 996.899L558.777 983.332L534.476 987.338Z" fill="white"/>
<path d="M962.068 286.841L985.601 294.106L985.852 280.446L962.068 286.841Z" fill="white"/>
<path d="M1718.42 279.564L1693.82 280.782L1698.25 293.705L1718.42 279.564Z" fill="white"/>
<path d="M684 429.271L704.641 415.835L694.305 406.901L684 429.271Z" fill="white"/>
<path d="M383.618 304.883L404.78 292.283L394.809 282.943L383.618 304.883Z" fill="white"/>
<path d="M1292.03 513.803L1309.97 496.928L1298.21 489.964L1292.03 513.803Z" fill="white"/>
<path d="M701.32 460.162L721.93 446.678L711.573 437.769L701.32 460.162Z" fill="white"/>
<path d="M952.529 279.004L974.674 268.223L965.522 258.08L952.529 279.004Z" fill="white"/>
<path d="M1423.02 910.029L1430.66 886.614L1417 886.146L1423.02 910.029Z" fill="white"/>
<path d="M328.683 263.724L347.598 247.949L336.281 240.296L328.683 263.724Z" fill="white"/>
<path d="M935 259.033L959.589 260.442L956.557 247.121L935 259.033Z" fill="white"/>
<path d="M1361.51 1009.96L1385.16 1016.81L1385.17 1003.15L1361.51 1009.96Z" fill="white"/>
<path d="M153.957 684.257L148.895 708.36L162.519 707.35L153.957 684.257Z" fill="white"/>
<path d="M108.75 358.965L120.286 380.726L130.108 371.23L108.75 358.965Z" fill="white"/>
<path d="M1631.21 436.574L1609.7 448.569L1619.4 458.188L1631.21 436.574Z" fill="white"/>
<path d="M363.949 318.766L385.449 306.752L375.739 297.142L363.949 318.766Z" fill="white"/>
<path d="M1638.41 145.181L1616.65 133.642L1613.85 147.013L1638.41 145.181Z" fill="white"/>
<path d="M273.074 507.491L297.198 502.525L290.839 490.433L273.074 507.491Z" fill="white"/>
<path d="M629.152 875.076L651.334 864.374L642.218 854.198L629.152 875.076Z" fill="white"/>
<path d="M1236.23 704.838L1228.05 728.069L1241.69 728.854L1236.23 704.838Z" fill="white"/>
<path d="M800.65 943.826L796.992 968.182L810.535 966.385L800.65 943.826Z" fill="white"/>
<path d="M161.609 556.259L161.346 580.887L174.511 577.238L161.609 556.259Z" fill="white"/>
<path d="M1225.9 665.965L1206.27 680.828L1217.21 689.008L1225.9 665.965Z" fill="white"/>
<path d="M665.092 724.462L644.799 710.505L640.482 723.467L665.092 724.462Z" fill="white"/>
<path d="M1279.26 510.841L1296.01 492.784L1283.81 486.636L1279.26 510.841Z" fill="white"/>
<path d="M246.657 540.094L269.862 531.84L261.894 520.743L246.657 540.094Z" fill="white"/>
<path d="M1612.79 145.956L1588.34 143L1590.52 156.486L1612.79 145.956Z" fill="white"/>
<path d="M1202.38 703.823L1187.5 723.45L1200.25 728.36L1202.38 703.823Z" fill="white"/>
<path d="M232.082 542.147L251.115 557.779L256.517 545.231L232.082 542.147Z" fill="white"/>
<path d="M286.58 855.602L307.111 869.205L311.202 856.171L286.58 855.602Z" fill="white"/>
<path d="M1295 528.165L1319.58 526.69L1315.02 513.814L1295 528.165Z" fill="white"/>
<path d="M639 383.7L658.971 369.286L648.217 360.86L639 383.7Z" fill="white"/>
<path d="M217.787 523.4L242.415 523.217L238.529 510.12L217.787 523.4Z" fill="white"/>
<path d="M924.905 353.415L939.702 373.104L947.918 362.189L924.905 353.415Z" fill="white"/>
<path d="M1628.43 157L1606.38 167.978L1615.62 178.039L1628.43 157Z" fill="white"/>
<path d="M128.997 313.515L153.624 313.829L150.003 300.656L128.997 313.515Z" fill="white"/>
<path d="M1158.26 182.181L1182.88 181.332L1178.64 168.345L1158.26 182.181Z" fill="white"/>
<path d="M410.09 308.098L432.147 297.141L422.914 287.071L410.09 308.098Z" fill="white"/>
<path d="M1292.34 694.466L1309.55 712.081L1316.29 700.197L1292.34 694.466Z" fill="white"/>
<path d="M1794.36 791.6L1781.11 812.362L1794.22 816.228L1794.36 791.6Z" fill="white"/>
<path d="M1768.29 836.944L1745.42 846.072L1753.8 856.859L1768.29 836.944Z" fill="white"/>
<path d="M256.488 864.049L277.15 877.453L281.115 864.379L256.488 864.049Z" fill="white"/>
<path d="M916.789 440.242L933.876 457.981L940.7 446.146L916.789 440.242Z" fill="white"/>
<path d="M1545.18 151.342L1520.8 147.853L1522.69 161.383L1545.18 151.342Z" fill="white"/>
<path d="M165.204 654.194L160.297 678.33L173.915 677.232L165.204 654.194Z" fill="white"/>
<path d="M1714.04 257.675L1704.21 235.093L1693.69 243.806L1714.04 257.675Z" fill="white"/>
<path d="M110.797 346.79L135.034 351.168L133.638 337.577L110.797 346.79Z" fill="white"/>
<path d="M1641.55 232.961L1625.22 214.517L1617.91 226.053L1641.55 232.961Z" fill="white"/>
<path d="M1657.4 635.532L1638.48 619.765L1632.99 632.274L1657.4 635.532Z" fill="white"/>
<path d="M1548.39 472.956L1529.43 488.673L1540.72 496.361L1548.39 472.956Z" fill="white"/>
<path d="M325.045 493.792L348.628 486.691L341.215 475.215L325.045 493.792Z" fill="white"/>
<path d="M319.848 841.501L339.923 855.77L344.438 842.876L319.848 841.501Z" fill="white"/>
<path d="M229.063 556.668L249.031 571.086L253.643 558.227L229.063 556.668Z" fill="white"/>
<path d="M1131.95 567.453L1155.08 575.906L1156.03 562.277L1131.95 567.453Z" fill="white"/>
<path d="M979.127 90.7754L1003.69 92.5868L1000.88 79.2178L979.127 90.7754Z" fill="white"/>
<path d="M382.199 296.097L404.652 285.976L395.804 275.566L382.199 296.097Z" fill="white"/>
<path d="M1703.22 620.987L1689.03 600.857L1680.49 611.518L1703.22 620.987Z" fill="white"/>
<path d="M1151.56 162.384L1176.17 161.535L1171.94 148.548L1151.56 162.384Z" fill="white"/>
<path d="M1137.23 561.31L1160.64 568.956L1161.12 555.303L1137.23 561.31Z" fill="white"/>
<path d="M1017.19 246.706L1040.68 239.3L1033.12 227.921L1017.19 246.706Z" fill="white"/>
<path d="M1158 218L1176.77 233.944L1182.38 221.486L1158 218Z" fill="white"/>
<path d="M807.914 924.074L818.02 946.535L828.435 937.693L807.914 924.074Z" fill="white"/>
<path d="M944.162 539.549L954.617 561.849L964.893 552.846L944.162 539.549Z" fill="white"/>
<path d="M919 314L933.682 333.775L941.962 322.908L919 314Z" fill="white"/>
<path d="M882.042 494.079L885.982 518.391L898.333 512.551L882.042 494.079Z" fill="white"/>
<path d="M1428.91 929.308L1432.51 904.943L1418.97 906.774L1428.91 929.308Z" fill="white"/>
<path d="M1609.97 494.87L1589.49 508.561L1599.94 517.366L1609.97 494.87Z" fill="white"/>
<path d="M1611.37 625.157L1589.25 614.333L1586.88 627.789L1611.37 625.157Z" fill="white"/>
<path d="M1647.53 294.517L1624.42 286L1623.43 299.626L1647.53 294.517Z" fill="white"/>
<path d="M145.409 571.899L141.211 596.168L154.791 594.671L145.409 571.899Z" fill="white"/>
<path d="M1111.84 541.44L1134.72 550.563L1136.06 536.968L1111.84 541.44Z" fill="white"/>
<path d="M1810.58 430.577L1787.49 422L1786.47 435.624L1810.58 430.577Z" fill="white"/>
<path d="M328.853 599.894L340.051 621.83L350.019 612.488L328.853 599.894Z" fill="white"/>
<path d="M1434.83 922.591L1441.77 898.959L1428.11 898.897L1434.83 922.591Z" fill="white"/>
<path d="M1735.09 295.795L1710.76 299.583L1716.52 311.97L1735.09 295.795Z" fill="white"/>
<path d="M736.205 737.468L714.584 725.673L711.625 739.01L736.205 737.468Z" fill="white"/>
<path d="M638.768 839.785L657.295 823.557L645.796 816.18L638.768 839.785Z" fill="white"/>
<path d="M1694.23 258.448L1676.31 241.558L1670.07 253.709L1694.23 258.448Z" fill="white"/>
<path d="M324.271 261.136L342.967 245.103L331.546 237.605L324.271 261.136Z" fill="white"/>
<path d="M295.363 750.015L318.985 756.984L319.065 743.322L295.363 750.015Z" fill="white"/>
<path d="M1669.75 272.714L1647.67 261.791L1645.25 275.236L1669.75 272.714Z" fill="white"/>
<path d="M557 516.743L572.626 497.706L560.077 492.307L557 516.743Z" fill="white"/>
<path d="M1714.75 217.615L1710.2 193.409L1698 199.555L1714.75 217.615Z" fill="white"/>
<path d="M157.392 623.822L151.139 647.644L164.796 647.312L157.392 623.822Z" fill="white"/>
<path d="M706.803 160.089L687.739 175.682L698.982 183.443L706.803 160.089Z" fill="white"/>
<path d="M562.941 466.667L576.496 446.103L563.451 442.043L562.941 466.667Z" fill="white"/>
<path d="M1633.98 405.073L1612.47 417.062L1622.16 426.684L1633.98 405.073Z" fill="white"/>
<path d="M791.707 935L784.662 958.6L798.323 958.724L791.707 935Z" fill="white"/>
<path d="M301.215 597.788L315.734 617.683L324.103 606.885L301.215 597.788Z" fill="white"/>
<path d="M595.981 511.729L612.054 493.067L599.636 487.372L595.981 511.729Z" fill="white"/>
<path d="M522 549.106L535.689 528.632L522.671 524.486L522 549.106Z" fill="white"/>
<path d="M1597.84 135.859L1573.52 132L1575.2 145.557L1597.84 135.859Z" fill="white"/>
<path d="M221.675 340.166L243.111 328.038L233.35 318.479L221.675 340.166Z" fill="white"/>
<path d="M650.191 1003.71L674.647 1006.62L672.437 993.141L650.191 1003.71Z" fill="white"/>
<path d="M291.243 303.396L308.654 285.977L296.692 279.377L291.243 303.396Z" fill="white"/>
<path d="M1561.27 207.261L1537.31 213.004L1544.06 224.885L1561.27 207.261Z" fill="white"/>
<path d="M515.008 966.936L526.65 988.639L536.426 979.096L515.008 966.936Z" fill="white"/>
<path d="M200.932 514.079L225.219 518.169L223.663 504.596L200.932 514.079Z" fill="white"/>
<path d="M1604.65 181.655L1581.6 190.334L1589.78 201.283L1604.65 181.655Z" fill="white"/>
<path d="M1159.89 955.712L1156.07 980.044L1169.63 978.334L1159.89 955.712Z" fill="white"/>
<path d="M251.386 558.458L271.659 572.444L275.993 559.488L251.386 558.458Z" fill="white"/>
<path d="M1022.25 87.3693L1046.85 88.7146L1043.78 75.4014L1022.25 87.3693Z" fill="white"/>
<path d="M116.375 579.003L109.771 602.73L123.433 602.599L116.375 579.003Z" fill="white"/>
<path d="M133.929 514.478L136.075 539.013L148.821 534.095L133.929 514.478Z" fill="white"/>
<path d="M877.735 219.263L871.239 243.02L884.9 242.827L877.735 219.263Z" fill="white"/>
<path d="M125.28 543.355L122.818 567.861L136.257 565.403L125.28 543.355Z" fill="white"/>
<path d="M626.706 668.825L612.043 649.036L603.753 659.895L626.706 668.825Z" fill="white"/>
<path d="M668.291 424.892L689.008 411.573L678.722 402.581L668.291 424.892Z" fill="white"/>
<path d="M1770.65 622.706L1764.79 598.782L1752.95 605.582L1770.65 622.706Z" fill="white"/>
<path d="M668.5 449.272L686.886 432.883L675.323 425.606L668.5 449.272Z" fill="white"/>
<path d="M747.226 155.295L759.127 176.858L768.788 167.198L747.226 155.295Z" fill="white"/>
<path d="M316.23 561.011L336.215 575.405L340.812 562.539L316.23 561.011Z" fill="white"/>
<path d="M1488.17 900.442L1504.9 882.368L1492.69 876.232L1488.17 900.442Z" fill="white"/>
<path d="M641 439.569L661.811 426.396L651.589 417.332L641 439.569Z" fill="white"/>
<path d="M106.634 352.192L124.474 369.173L130.779 357.053L106.634 352.192Z" fill="white"/>
<path d="M932.508 239.8L956.483 245.442L955.801 231.797L932.508 239.8Z" fill="white"/>
<path d="M895.643 450.821L899.478 475.15L911.854 469.363L895.643 450.821Z" fill="white"/>
<path d="M963.185 278.264L987.811 277.881L983.818 264.815L963.185 278.264Z" fill="white"/>
<path d="M631 469.041L650.156 453.56L638.958 445.733L631 469.041Z" fill="white"/>
<path d="M1609.82 453.108L1590.64 468.552L1601.82 476.401L1609.82 453.108Z" fill="white"/>
<path d="M974 257.095L995.426 244.95L985.657 235.399L974 257.095Z" fill="white"/>
<path d="M1210.87 653.375L1196.54 673.406L1209.42 677.962L1210.87 653.375Z" fill="white"/>
<path d="M1208.9 179.985L1233.53 179.914L1229.71 166.799L1208.9 179.985Z" fill="white"/>
<path d="M617.483 870.802L640.022 860.873L631.263 850.389L617.483 870.802Z" fill="white"/>
<path d="M951 327L965.854 346.646L974.039 335.708L951 327Z" fill="white"/>
<path d="M229.387 506.824L253.982 505.527L249.507 492.619L229.387 506.824Z" fill="white"/>
<path d="M1166.21 210.2L1187.22 223.048L1190.84 209.873L1166.21 210.2Z" fill="white"/>
<path d="M542.643 533.016L556.582 512.711L543.616 508.406L542.643 533.016Z" fill="white"/>
<path d="M1637.24 281.797L1614.26 272.934L1613.07 286.544L1637.24 281.797Z" fill="white"/>
<path d="M142.693 339.839L166.978 343.94L165.428 330.366L142.693 339.839Z" fill="white"/>
<path d="M780.461 735.734L759.312 723.112L755.839 736.325L780.461 735.734Z" fill="white"/>
<path d="M217.949 544.451L237.168 559.853L242.419 547.241L217.949 544.451Z" fill="white"/>
<path d="M1167.19 949.22L1161.43 973.166L1175.08 972.551L1167.19 949.22Z" fill="white"/>
<path d="M317.926 215.449L339.01 202.718L328.981 193.44L317.926 215.449Z" fill="white"/>
<path d="M1711.85 696.671L1694.48 679.214L1687.84 691.159L1711.85 696.671Z" fill="white"/>
<path d="M506 519.164L519.654 498.666L506.629 494.543L506 519.164Z" fill="white"/>
<path d="M1465.65 897.056L1474.54 874.09L1460.94 872.881L1465.65 897.056Z" fill="white"/>
<path d="M616.891 843.168L637.726 830.033L627.521 820.95L616.891 843.168Z" fill="white"/>
<path d="M133.76 618.447L123.707 640.931L137.236 642.83L133.76 618.447Z" fill="white"/>
<path d="M906.432 569.336L912.745 593.142L924.461 586.116L906.432 569.336Z" fill="white"/>
<path d="M1201 188.575L1224.59 195.661L1224.74 182L1201 188.575Z" fill="white"/>
<path d="M1789.84 667.344L1790.43 642.722L1777.22 646.192L1789.84 667.344Z" fill="white"/>
<path d="M940 348L953.837 368.375L962.567 357.866L940 348Z" fill="white"/>
<path d="M642.604 877.423L665.487 868.313L657.112 857.52L642.604 877.423Z" fill="white"/>
<path d="M1786.48 687.072L1775.09 665.236L1765.2 674.668L1786.48 687.072Z" fill="white"/>
<path d="M928.976 486.98L938.099 509.858L948.888 501.476L928.976 486.98Z" fill="white"/>
<path d="M388.859 261.668L412.624 255.202L405.522 243.531L388.859 261.668Z" fill="white"/>
<path d="M739.322 489.143L747.928 512.219L758.903 504.083L739.322 489.143Z" fill="white"/>
<path d="M514 532.105L527.689 511.631L514.671 507.485L514 532.105Z" fill="white"/>
<path d="M127.608 579.837L122.767 603.986L136.381 602.851L127.608 579.837Z" fill="white"/>
<path d="M577.189 766.294L577.175 741.665L564.051 745.462L577.189 766.294Z" fill="white"/>
<path d="M259.39 256.363L280.351 243.43L270.234 234.249L259.39 256.363Z" fill="white"/>
<path d="M689 408.2L709.202 394.112L698.587 385.513L689 408.2Z" fill="white"/>
<path d="M1747.11 618.429L1740.93 594.588L1729.17 601.549L1747.11 618.429Z" fill="white"/>
<path d="M947.142 383.818L961.718 403.671L970.056 392.848L947.142 383.818Z" fill="white"/>
<path d="M1650.08 448.307L1630.39 463.096L1641.3 471.316L1650.08 448.307Z" fill="white"/>
<path d="M1749.11 823.59L1725.89 831.797L1733.84 842.91L1749.11 823.59Z" fill="white"/>
<path d="M982 262.941L1006.3 258.902L1000.41 246.575L982 262.941Z" fill="white"/>
<path d="M1277.16 491.918L1294.78 474.701L1282.89 467.964L1277.16 491.918Z" fill="white"/>
<path d="M706.258 137.386L686.68 122.442L681.729 135.175L706.258 137.386Z" fill="white"/>
<path d="M251.964 336.491L273.429 324.414L263.691 314.832L251.964 336.491Z" fill="white"/>
<path d="M1597 218.535L1572.78 222.979L1578.87 235.206L1597 218.535Z" fill="white"/>
<path d="M1799.8 837.125L1792.69 860.706L1806.35 860.866L1799.8 837.125Z" fill="white"/>
<path d="M767.252 955.283L758 978.109L771.588 979.528L767.252 955.283Z" fill="white"/>
<path d="M641 400.424L661.098 386.188L650.42 377.667L641 400.424Z" fill="white"/>
<path d="M366.653 343.373L386.055 328.201L374.984 320.195L366.653 343.373Z" fill="white"/>
<path d="M896.941 567.565L897.979 592.173L910.934 587.834L896.941 567.565Z" fill="white"/>
<path d="M986.843 77.7468L1010.29 70.1937L1002.65 58.8623L986.843 77.7468Z" fill="white"/>
<path d="M527.369 498.746L540.685 478.028L527.595 474.118L527.369 498.746Z" fill="white"/>
<path d="M1745.27 249.291L1729.62 230.271L1721.89 241.537L1745.27 249.291Z" fill="white"/>
<path d="M130.019 361.829L149.208 377.269L154.484 364.667L130.019 361.829Z" fill="white"/>
<path d="M632.751 638.128L621.756 616.089L611.703 625.339L632.751 638.128Z" fill="white"/>
<path d="M300.207 486.948L323.79 479.847L316.378 468.371L300.207 486.948Z" fill="white"/>
<path d="M498.699 1000.08L521.693 1008.91L522.858 995.295L498.699 1000.08Z" fill="white"/>
<path d="M807.773 923.631L816.374 946.709L827.35 938.575L807.773 923.631Z" fill="white"/>
<path d="M1698.48 221.009L1695.24 196.594L1682.73 202.077L1698.48 221.009Z" fill="white"/>
<path d="M947 367L959.71 388.096L968.998 378.077L947 367Z" fill="white"/>
<path d="M1299.56 514.924L1321.41 503.543L1311.98 493.653L1299.56 514.924Z" fill="white"/>
<path d="M701.341 148.405L680.007 136.099L676.73 149.362L701.341 148.405Z" fill="white"/>
<path d="M272.78 261.144L293.75 248.226L283.64 239.038L272.78 261.144Z" fill="white"/>
<path d="M378.662 296.949L400.203 285.009L390.526 275.365L378.662 296.949Z" fill="white"/>
<path d="M802.756 695.007L789.494 674.253L780.474 684.513L802.756 695.007Z" fill="white"/>
<path d="M1663.93 83.1662L1640.84 74.5859L1639.82 88.2096L1663.93 83.1662Z" fill="white"/>
<path d="M228.068 863.141L251.35 871.175L252.05 857.531L228.068 863.141Z" fill="white"/>
<path d="M1580.29 188L1556.08 192.525L1562.22 204.731L1580.29 188Z" fill="white"/>
<path d="M162.067 527.747L166.403 551.992L178.657 545.951L162.067 527.747Z" fill="white"/>
<path d="M700.807 437.85L722.48 426.151L712.911 416.4L700.807 437.85Z" fill="white"/>
<path d="M1691.91 231.29L1685.28 207.57L1673.66 214.754L1691.91 231.29Z" fill="white"/>
<path d="M553.645 451.127L567.234 430.586L554.196 426.504L553.645 451.127Z" fill="white"/>
<path d="M1172.42 624.313L1163.73 647.357L1177.35 648.445L1172.42 624.313Z" fill="white"/>
<path d="M1730.01 576.673L1721.8 553.455L1710.69 561.406L1730.01 576.673Z" fill="white"/>
<path d="M1353.6 978.068L1377.22 985.034L1377.3 971.372L1353.6 978.068Z" fill="white"/>
<path d="M278.782 353.634L295.575 335.617L283.39 329.439L278.782 353.634Z" fill="white"/>
<path d="M1027.33 59.2189L1051.82 61.8241L1049.44 48.3711L1027.33 59.2189Z" fill="white"/>
<path d="M1637.68 626.176L1617.08 612.666L1613.05 625.719L1637.68 626.176Z" fill="white"/>
<path d="M250.245 846.44L271.287 859.239L274.871 846.056L250.245 846.44Z" fill="white"/>
<path d="M709.403 464.311L733.551 459.466L727.253 447.342L709.403 464.311Z" fill="white"/>
<path d="M310.476 354.006L327.903 336.603L315.948 329.992L310.476 354.006Z" fill="white"/>
<path d="M1290.13 518.353L1314.76 518.264L1310.92 505.152L1290.13 518.353Z" fill="white"/>
<path d="M723.909 519.528L729.634 543.483L741.519 536.747L723.909 519.528Z" fill="white"/>
<path d="M1292.18 668.52L1301.23 691.426L1312.05 683.079L1292.18 668.52Z" fill="white"/>
<path d="M1637.53 449.005L1617.67 463.577L1628.49 471.917L1637.53 449.005Z" fill="white"/>
<path d="M318.39 570.94L340.189 582.403L342.945 569.021L318.39 570.94Z" fill="white"/>
<path d="M1195.07 201.786L1212.13 219.555L1218.97 207.731L1195.07 201.786Z" fill="white"/>
<path d="M386.595 325.063L407.31 311.74L397.023 302.75L386.595 325.063Z" fill="white"/>
<path d="M949.158 397.668L963.888 417.406L972.142 406.519L949.158 397.668Z" fill="white"/>
<path d="M641.426 504.277L661.359 489.81L650.583 481.413L641.426 504.277Z" fill="white"/>
<path d="M1758.72 687.865L1747.39 665.997L1737.48 675.401L1758.72 687.865Z" fill="white"/>
<path d="M604.578 787.611L620.062 768.458L607.473 763.152L604.578 787.611Z" fill="white"/>
<path d="M312.008 311.686L331.352 296.441L320.252 288.478L312.008 311.686Z" fill="white"/>
<path d="M1780.59 821.078L1760.99 836.003L1771.96 844.148L1780.59 821.078Z" fill="white"/>
<path d="M263.388 368.689L279.307 349.895L266.842 344.303L263.388 368.689Z" fill="white"/>
<path d="M1651.57 258.66L1631.78 244L1627.02 256.803L1651.57 258.66Z" fill="white"/>
<path d="M631.889 664.719L617.281 644.89L608.96 655.725L631.889 664.719Z" fill="white"/>
<path d="M1615.97 153.085L1593.64 163.471L1602.61 173.775L1615.97 153.085Z" fill="white"/>
<path d="M602.358 967.55L626.584 971.992L625.224 958.398L602.358 967.55Z" fill="white"/>
<path d="M235.025 871.674L257.032 882.732L259.54 869.302L235.025 871.674Z" fill="white"/>
<path d="M1507.47 461.985L1483.33 466.867L1489.64 478.982L1507.47 461.985Z" fill="white"/>
<path d="M905.837 453.77L917.497 475.464L927.265 465.912L905.837 453.77Z" fill="white"/>
<path d="M654.87 402.088L675.326 388.372L664.869 379.58L654.87 402.088Z" fill="white"/>
<path d="M1189.38 595.516L1212.61 603.701L1213.4 590.062L1189.38 595.516Z" fill="white"/>
<path d="M370.585 504.414L394.14 497.217L386.68 485.771L370.585 504.414Z" fill="white"/>
<path d="M1305.5 1007.96L1329.1 1015.01L1329.23 1001.34L1305.5 1007.96Z" fill="white"/>
<path d="M125.236 605.278L117.449 628.644L131.1 629.199L125.236 605.278Z" fill="white"/>
<path d="M802.682 735.637L784.868 718.63L778.544 730.74L802.682 735.637Z" fill="white"/>
<path d="M1541.71 466.482L1523.45 483.014L1535.07 490.201L1541.71 466.482Z" fill="white"/>
<path d="M215.864 121.273L226.742 99.1764L213.292 96.7783L215.864 121.273Z" fill="white"/>
<path d="M259.606 358.255L275.527 339.463L263.063 333.869L259.606 358.255Z" fill="white"/>
<path d="M814.965 901.224L835.477 914.857L839.587 901.828L814.965 901.224Z" fill="white"/>
</svg>
