<svg width="1920" height="1080" viewBox="0 0 1920 1080" fill="none" xmlns="http://www.w3.org/2000/svg">
<path d="M1359.21 647.641L1356.69 608.446L1353.87 572.801L1350.77 540.445L1347.43 511.127L1343.86 484.61L1340.11 460.669L1336.19 439.094L1332.12 419.69L1327.92 402.275L1323.62 386.683L1319.22 372.761L1314.73 360.37L1310.18 349.381L1305.58 339.682L1300.92 331.169L1296.23 323.75L1291.51 317.344L1286.76 311.88L1282 307.294L1277.22 303.533L1272.44 300.552L1267.65 298.314L1262.86 296.789L1258.07 295.955L1253.29 295.796L1248.51 296.303L1243.75 297.476L1238.98 299.318L1234.23 301.842L1229.49 305.066L1224.76 309.014L1220.03 313.718L1215.32 319.218L1210.61 325.558L1205.91 332.793L1201.22 340.983L1196.53 350.198L1191.85 360.515L1187.17 372.021L1182.5 384.811L1177.82 398.989L1173.14 414.671L1168.45 431.98L1163.77 451.052L1159.07 472.031L1154.37 495.073L1149.65 520.345L1144.92 548.022L1140.18 578.29" stroke="#5A5A5A" stroke-width="2" stroke-linecap="square" stroke-linejoin="bevel"/>
<path d="M1351.18 649.91L1348.54 611.508L1345.62 576.556L1342.43 544.802L1339.01 516.005L1335.38 489.936L1331.57 466.377L1327.6 445.126L1323.5 425.995L1319.27 408.808L1314.94 393.405L1310.51 379.638L1306.02 367.371L1301.46 356.482L1296.84 346.86L1292.18 338.406L1287.49 331.029L1282.77 324.652L1278.03 319.204L1273.27 314.625L1268.51 310.863L1263.73 307.874L1258.96 305.62L1254.18 304.074L1249.41 303.213L1244.65 303.022L1239.89 303.493L1235.14 304.624L1230.4 306.419L1225.67 308.89L1220.95 312.053L1216.24 315.932L1211.54 320.559L1206.86 325.971L1202.18 332.211L1197.51 339.331L1192.85 347.391L1188.2 356.456L1183.56 366.602L1178.92 377.911L1174.29 390.475L1169.66 404.395L1165.03 419.781L1160.4 436.753L1155.77 455.439L1151.13 475.98L1146.49 498.524L1141.85 523.232L1137.2 550.271L1132.54 579.822" stroke="#5A5A5A" stroke-width="2" stroke-linecap="square" stroke-linejoin="bevel"/>
<path d="M1343.05 652.205L1340.3 614.658L1337.26 580.455L1333.98 549.354L1330.49 521.122L1326.79 495.538L1322.93 472.396L1318.91 451.499L1314.77 432.667L1310.51 415.731L1306.15 400.536L1301.71 386.94L1297.2 374.812L1292.63 364.034L1288.01 354.5L1283.35 346.112L1278.65 338.784L1273.94 332.441L1269.2 327.014L1264.45 322.445L1259.69 318.683L1254.93 315.685L1250.17 313.416L1245.41 311.848L1240.66 310.959L1235.91 310.734L1231.17 311.166L1226.44 312.251L1221.72 313.994L1217.01 316.405L1212.32 319.502L1207.63 323.306L1202.96 327.848L1198.31 333.163L1193.66 339.293L1189.03 346.287L1184.4 354.203L1179.79 363.104L1175.19 373.062L1170.59 384.156L1166 396.475L1161.42 410.114L1156.84 425.179L1152.26 441.785L1147.69 460.055L1143.12 480.122L1138.55 502.13L1133.97 526.231L1129.4 552.586L1124.82 581.366" stroke="#5A5A5A" stroke-width="2" stroke-linecap="square" stroke-linejoin="bevel"/>
<path d="M1334.83 654.528L1331.95 617.894L1328.81 584.493L1325.44 554.09L1321.86 526.465L1318.1 501.404L1314.18 478.71L1310.12 458.196L1305.94 439.688L1301.65 423.025L1297.26 408.057L1292.8 394.647L1288.28 382.672L1283.7 372.017L1279.07 362.58L1274.41 354.266L1269.72 346.994L1265 340.689L1260.27 335.287L1255.53 330.731L1250.78 326.971L1246.04 323.966L1241.29 321.681L1236.54 320.091L1231.8 319.172L1227.07 318.911L1222.35 319.3L1217.65 320.336L1212.95 322.022L1208.27 324.37L1203.6 327.394L1198.94 331.116L1194.3 335.565L1189.67 340.773L1185.06 346.783L1180.46 353.641L1175.87 361.401L1171.3 370.124L1166.73 379.878L1162.18 390.74L1157.64 402.793L1153.1 416.13L1148.57 430.85L1144.05 447.063L1139.54 464.887L1135.03 484.449L1130.53 505.884L1126.03 529.338L1121.53 554.965L1117.03 582.927" stroke="#5A5A5A" stroke-width="2" stroke-linecap="square" stroke-linejoin="bevel"/>
<path d="M1326.51 656.878L1323.51 621.212L1320.26 588.66L1316.8 558.999L1313.14 532.018L1309.32 507.515L1305.34 485.3L1301.23 465.195L1297 447.035L1292.68 430.664L1288.27 415.94L1283.8 402.734L1279.26 390.925L1274.67 380.404L1270.03 371.072L1265.37 362.841L1260.68 355.631L1255.97 349.37L1251.25 343.997L1246.52 339.456L1241.78 335.699L1237.05 332.688L1232.31 330.389L1227.58 328.774L1222.86 327.825L1218.15 327.525L1213.45 327.868L1208.77 328.851L1204.1 330.477L1199.44 332.756L1194.79 335.701L1190.17 339.335L1185.56 343.682L1180.96 348.777L1176.38 354.657L1171.81 361.367L1167.26 368.958L1162.72 377.489L1158.2 387.025L1153.69 397.638L1149.19 409.407L1144.71 422.421L1140.23 436.773L1135.77 452.569L1131.31 469.919L1126.87 488.945L1122.43 509.774L1118 532.545L1113.58 557.403L1109.16 584.502" stroke="#5A5A5A" stroke-width="2" stroke-linecap="square" stroke-linejoin="bevel"/>
<path d="M1318.09 659.256L1314.96 624.606L1311.61 592.946L1308.06 564.067L1304.32 537.766L1300.43 513.852L1296.39 492.144L1292.24 472.473L1287.97 454.682L1283.62 438.623L1279.19 424.161L1274.69 411.172L1270.14 399.542L1265.54 389.165L1260.9 379.95L1256.24 371.809L1251.55 364.666L1246.85 358.455L1242.13 353.114L1237.41 348.591L1232.69 344.84L1227.96 341.824L1223.25 339.509L1218.54 337.87L1213.83 336.888L1209.14 336.549L1204.47 336.844L1199.8 337.77L1195.15 339.331L1190.52 341.536L1185.91 344.397L1181.31 347.935L1176.73 352.174L1172.16 357.146L1167.62 362.886L1163.08 369.438L1158.57 376.849L1154.07 385.176L1149.59 394.479L1145.13 404.827L1140.68 416.295L1136.24 428.965L1131.82 442.929L1127.41 458.284L1123.01 475.135L1118.63 493.596L1114.26 513.789L1109.9 535.843L1105.55 559.896L1101.22 586.094" stroke="#5A5A5A" stroke-width="2" stroke-linecap="square" stroke-linejoin="bevel"/>
<path d="M1309.57 661.663L1306.32 628.071L1302.86 597.343L1299.21 569.279L1295.4 543.69L1291.44 520.393L1287.35 499.217L1283.15 480.003L1278.85 462.602L1274.46 446.873L1270.01 432.689L1265.49 419.931L1260.93 408.491L1256.32 398.27L1251.68 389.178L1247.01 381.135L1242.33 374.067L1237.63 367.909L1232.92 362.605L1228.21 358.103L1223.5 354.36L1218.79 351.339L1214.09 349.01L1209.4 347.347L1204.72 346.331L1200.05 345.949L1195.39 346.193L1190.75 347.06L1186.13 348.552L1181.53 350.677L1176.94 353.449L1172.37 356.885L1167.82 361.009L1163.29 365.849L1158.77 371.441L1154.28 377.824L1149.8 385.045L1145.35 393.154L1140.91 402.211L1136.49 412.278L1132.08 423.429L1127.7 435.739L1123.33 449.295L1118.98 464.187L1114.64 480.515L1110.32 498.387L1106.01 517.916L1101.73 539.224L1097.45 562.44L1093.2 587.7" stroke="#5A5A5A" stroke-width="2" stroke-linecap="square" stroke-linejoin="bevel"/>
<path d="M1300.94 664.1L1297.57 631.602L1294.01 601.839L1290.27 574.622L1286.38 549.772L1282.36 527.117L1278.21 506.497L1273.96 487.76L1269.62 470.766L1265.21 455.384L1260.73 441.492L1256.2 428.978L1251.62 417.74L1247.01 407.685L1242.36 398.726L1237.7 390.787L1233.02 383.799L1228.32 377.701L1223.63 372.436L1218.93 367.959L1214.23 364.225L1209.54 361.202L1204.85 358.858L1200.18 357.17L1195.52 356.119L1190.87 355.693L1186.24 355.884L1181.62 356.687L1177.03 358.106L1172.45 360.148L1167.89 362.825L1163.35 366.152L1158.83 370.154L1154.33 374.856L1149.86 380.291L1145.4 386.496L1140.96 393.514L1136.55 401.395L1132.15 410.192L1127.77 419.966L1123.42 430.783L1119.08 442.717L1114.76 455.846L1110.47 470.257L1106.19 486.042L1101.93 503.302L1097.69 522.142L1093.47 542.678L1089.28 565.029L1085.1 589.324" stroke="#5A5A5A" stroke-width="2" stroke-linecap="square" stroke-linejoin="bevel"/>
<path d="M1292.21 666.564L1288.73 635.191L1285.06 606.421L1281.23 580.076L1277.26 555.989L1273.17 533.998L1268.97 513.953L1264.68 495.712L1260.31 479.143L1255.86 464.122L1251.36 450.535L1246.81 438.277L1242.22 427.252L1237.6 417.371L1232.96 408.553L1228.29 400.726L1223.62 393.824L1218.93 387.789L1214.24 382.569L1209.56 378.118L1204.87 374.397L1200.2 371.371L1195.53 369.013L1190.88 367.3L1186.24 366.214L1181.61 365.742L1177 365.877L1172.42 366.614L1167.84 367.957L1163.29 369.91L1158.77 372.486L1154.26 375.7L1149.77 379.572L1145.31 384.128L1140.86 389.398L1136.44 395.416L1132.05 402.223L1127.67 409.864L1123.32 418.39L1118.99 427.857L1114.68 438.327L1110.39 449.869L1106.13 462.556L1101.89 476.468L1097.67 491.691L1093.47 508.32L1089.3 526.452L1085.15 546.194L1081.02 567.657L1076.92 590.961" stroke="#5A5A5A" stroke-width="2" stroke-linecap="square" stroke-linejoin="bevel"/>
<path d="M1283.38 669.061L1279.77 638.836L1276 611.08L1272.09 585.629L1268.05 562.323L1263.89 541.015L1259.64 521.562L1255.31 503.832L1250.9 487.702L1246.43 473.055L1241.9 459.786L1237.34 447.795L1232.74 436.992L1228.11 427.293L1223.46 418.624L1218.8 410.915L1214.13 404.105L1209.45 398.138L1204.78 392.966L1200.1 388.545L1195.43 384.838L1190.77 381.812L1186.13 379.441L1181.49 377.703L1176.87 376.58L1172.27 376.061L1167.69 376.137L1163.13 376.805L1158.58 378.068L1154.06 379.929L1149.56 382.4L1145.09 385.494L1140.63 389.231L1136.2 393.634L1131.8 398.73L1127.42 404.552L1123.06 411.138L1118.72 418.529L1114.41 426.773L1110.13 435.922L1105.87 446.033L1101.63 457.17L1097.42 469.401L1093.23 482.799L1089.07 497.446L1084.93 513.427L1080.82 530.834L1076.74 549.764L1072.68 570.322L1068.66 592.617" stroke="#5A5A5A" stroke-width="2" stroke-linecap="square" stroke-linejoin="bevel"/>
<path d="M1274.43 671.586L1270.71 642.526L1266.85 615.801L1262.85 591.258L1258.73 568.75L1254.52 548.138L1250.22 529.291L1245.84 512.085L1241.4 496.406L1236.9 482.146L1232.36 469.204L1227.78 457.49L1223.17 446.918L1218.54 437.41L1213.89 428.896L1209.23 421.312L1204.56 414.598L1199.89 408.705L1195.23 403.584L1190.57 399.196L1185.91 395.505L1181.27 392.48L1176.64 390.096L1172.03 388.333L1167.43 387.173L1162.86 386.604L1158.3 386.621L1153.76 387.218L1149.25 388.396L1144.76 390.161L1140.29 392.522L1135.84 395.492L1131.42 399.087L1127.03 403.33L1122.66 408.246L1118.31 413.865L1114 420.221L1109.7 427.353L1105.44 435.306L1101.2 444.126L1096.98 453.867L1092.79 464.587L1088.63 476.35L1084.5 489.223L1080.4 503.28L1076.32 518.6L1072.27 535.269L1068.25 553.375L1064.27 573.014L1060.31 594.288" stroke="#5A5A5A" stroke-width="2" stroke-linecap="square" stroke-linejoin="bevel"/>
<path d="M1265.38 674.145L1261.55 646.259L1257.59 620.575L1253.51 596.951L1249.32 575.251L1245.05 555.346L1240.7 537.115L1236.28 520.444L1231.8 505.226L1227.28 491.361L1222.72 478.756L1218.13 467.327L1213.51 456.993L1208.87 447.683L1204.22 439.331L1199.57 431.877L1194.91 425.266L1190.25 419.449L1185.6 414.384L1180.95 410.031L1176.31 406.358L1171.69 403.336L1167.08 400.94L1162.49 399.152L1157.92 397.954L1153.36 397.336L1148.83 397.29L1144.32 397.813L1139.84 398.905L1135.38 400.57L1130.94 402.817L1126.53 405.656L1122.14 409.105L1117.78 413.182L1113.45 417.911L1109.14 423.319L1104.86 429.438L1100.61 436.303L1096.39 443.955L1092.19 452.438L1088.03 461.8L1083.89 472.094L1079.78 483.379L1075.7 495.716L1071.65 509.174L1067.63 523.825L1063.65 539.746L1059.69 557.019L1055.77 575.732L1051.88 595.976" stroke="#5A5A5A" stroke-width="2" stroke-linecap="square" stroke-linejoin="bevel"/>
<path d="M1256.21 676.734L1252.28 650.025L1248.22 625.386L1244.06 602.686L1239.81 581.8L1235.48 562.609L1231.08 545.002L1226.63 528.873L1222.12 514.123L1217.58 500.661L1213 488.401L1208.39 477.263L1203.77 467.175L1199.13 458.069L1194.48 449.885L1189.83 442.566L1185.18 436.061L1180.53 430.326L1175.89 425.319L1171.25 421.005L1166.64 417.352L1162.03 414.334L1157.44 411.928L1152.87 410.114L1148.32 408.878L1143.8 408.209L1139.29 408.1L1134.81 408.546L1130.35 409.549L1125.92 411.11L1121.52 413.239L1117.14 415.944L1112.79 419.241L1108.46 423.146L1104.17 427.682L1099.9 432.873L1095.66 438.748L1091.45 445.34L1087.27 452.684L1083.12 460.821L1079 469.796L1074.91 479.657L1070.85 490.457L1066.82 502.252L1062.83 515.104L1058.87 529.079L1054.94 544.247L1051.05 560.683L1047.19 578.467L1043.37 597.681" stroke="#5A5A5A" stroke-width="2" stroke-linecap="square" stroke-linejoin="bevel"/>
<path d="M1246.93 679.355L1242.89 653.82L1238.75 630.224L1234.52 608.448L1230.2 588.377L1225.82 569.903L1221.38 552.922L1216.88 537.34L1212.35 523.063L1207.78 510.009L1203.19 498.099L1198.57 487.259L1193.94 477.422L1189.3 468.526L1184.65 460.514L1180.01 453.335L1175.36 446.941L1170.73 441.291L1166.1 436.346L1161.48 432.073L1156.88 428.443L1152.29 425.43L1147.73 423.014L1143.18 421.175L1138.66 419.901L1134.15 419.18L1129.68 419.006L1125.22 419.374L1120.8 420.284L1116.39 421.74L1112.02 423.746L1107.68 426.313L1103.36 429.454L1099.07 433.183L1094.81 437.52L1090.58 442.489L1086.38 448.114L1082.22 454.425L1078.08 461.456L1073.97 469.242L1069.9 477.824L1065.86 487.246L1061.85 497.556L1057.87 508.804L1053.93 521.047L1050.03 534.344L1046.15 548.758L1042.32 564.358L1038.52 581.215L1034.77 599.403" stroke="#5A5A5A" stroke-width="2" stroke-linecap="square" stroke-linejoin="bevel"/>
<path d="M1237.53 682.01L1233.4 657.637L1229.17 635.076L1224.87 614.218L1220.49 594.959L1216.06 577.2L1211.58 560.848L1207.05 545.812L1202.49 532.012L1197.9 519.37L1193.29 507.813L1188.67 497.275L1184.03 487.693L1179.39 479.011L1174.75 471.176L1170.1 464.141L1165.47 457.862L1160.84 452.3L1156.23 447.42L1151.63 443.19L1147.05 439.585L1142.48 436.58L1137.94 434.154L1133.41 432.291L1128.91 430.979L1124.44 430.205L1119.99 429.965L1115.56 430.253L1111.17 431.069L1106.8 432.415L1102.45 434.297L1098.14 436.722L1093.86 439.702L1089.61 443.251L1085.39 447.385L1081.2 452.126L1077.04 457.497L1072.91 463.524L1068.82 470.236L1064.75 477.667L1060.73 485.852L1056.73 494.832L1052.77 504.648L1048.85 515.348L1044.96 526.981L1041.1 539.601L1037.29 553.265L1033.51 568.033L1029.78 583.97L1026.08 601.144" stroke="#5A5A5A" stroke-width="2" stroke-linecap="square" stroke-linejoin="bevel"/>
<path d="M1228.01 684.7L1223.79 661.47L1219.48 639.93L1215.11 619.98L1210.68 601.526L1206.2 584.477L1201.68 568.748L1197.12 554.259L1192.54 540.935L1187.93 528.705L1183.31 517.504L1178.68 507.27L1174.04 497.946L1169.4 489.481L1164.76 481.827L1160.12 474.939L1155.5 468.777L1150.88 463.307L1146.29 458.494L1141.7 454.311L1137.14 450.732L1132.59 447.735L1128.07 445.302L1123.57 443.416L1119.1 442.064L1114.65 441.238L1110.23 440.931L1105.83 441.137L1101.46 441.857L1097.12 443.092L1092.82 444.846L1088.54 447.126L1084.29 449.942L1080.08 453.307L1075.89 457.235L1071.74 461.745L1067.62 466.858L1063.53 472.596L1059.48 478.987L1055.46 486.059L1051.48 493.846L1047.53 502.382L1043.62 511.705L1039.74 521.858L1035.9 532.885L1032.1 544.832L1028.34 557.752L1024.62 571.698L1020.94 586.729L1017.3 602.903" stroke="#5A5A5A" stroke-width="2" stroke-linecap="square" stroke-linejoin="bevel"/>
<path d="M1218.37 687.423L1214.06 665.313L1209.69 644.773L1205.25 625.715L1200.77 608.052L1196.25 591.703L1191.69 576.592L1187.1 562.645L1182.5 549.794L1177.87 537.975L1173.24 527.129L1168.6 517.2L1163.96 508.137L1159.32 499.891L1154.69 492.419L1150.06 485.681L1145.45 479.64L1140.85 474.263L1136.26 469.521L1131.7 465.386L1127.15 461.835L1122.63 458.848L1118.13 456.408L1113.66 454.499L1109.21 453.109L1104.78 452.23L1100.39 451.854L1096.02 451.979L1091.69 452.601L1087.38 453.722L1083.11 455.347L1078.86 457.479L1074.65 460.129L1070.47 463.307L1066.32 467.026L1062.21 471.302L1058.13 476.154L1054.08 481.602L1050.07 487.67L1046.1 494.383L1042.16 501.771L1038.26 509.864L1034.39 518.698L1030.56 528.307L1026.77 538.733L1023.02 550.017L1019.31 562.204L1015.64 575.342L1012.02 589.483L1008.43 604.679" stroke="#5A5A5A" stroke-width="2" stroke-linecap="square" stroke-linejoin="bevel"/>
<path d="M1208.6 690.18L1204.22 669.159L1199.78 649.594L1195.29 631.406L1190.76 614.518L1186.19 598.856L1181.6 584.351L1176.99 570.938L1172.36 558.555L1167.73 547.144L1163.08 536.651L1158.44 527.026L1153.8 518.223L1149.16 510.197L1144.53 502.909L1139.92 496.323L1135.32 490.404L1130.73 485.123L1126.16 480.452L1121.62 476.367L1117.09 472.847L1112.59 469.871L1108.11 467.425L1103.66 465.493L1099.24 464.066L1094.85 463.133L1090.48 462.689L1086.15 462.73L1081.84 463.254L1077.57 464.261L1073.32 465.754L1069.11 467.737L1064.94 470.219L1060.79 473.208L1056.68 476.716L1052.61 480.757L1048.57 485.347L1044.56 490.504L1040.59 496.249L1036.66 502.604L1032.76 509.595L1028.9 517.25L1025.08 525.598L1021.3 534.671L1017.56 544.505L1013.86 555.137L1010.2 566.606L1006.58 578.955L1003 592.228L999.475 606.473" stroke="#5A5A5A" stroke-width="2" stroke-linecap="square" stroke-linejoin="bevel"/>
<path d="M1198.71 692.974L1194.25 673.003L1189.75 654.382L1185.21 637.038L1180.63 620.903L1176.04 605.91L1171.42 591.998L1166.78 579.107L1162.14 567.183L1157.49 556.174L1152.84 546.03L1148.19 536.707L1143.55 528.161L1138.92 520.355L1134.3 513.251L1129.69 506.817L1125.1 501.022L1120.53 495.838L1115.98 491.24L1111.46 487.207L1106.95 483.717L1102.47 480.754L1098.02 478.302L1093.6 476.349L1089.2 474.884L1084.83 473.899L1080.5 473.387L1076.19 473.344L1071.92 473.768L1067.67 474.659L1063.47 476.02L1059.29 477.854L1055.15 480.166L1051.04 482.966L1046.97 486.263L1042.93 490.068L1038.93 494.396L1034.96 499.263L1031.03 504.687L1027.14 510.687L1023.29 517.286L1019.47 524.508L1015.7 532.378L1011.96 540.925L1008.26 550.181L1004.61 560.176L1001 570.946L997.427 582.528L993.902 594.961L990.421 608.285" stroke="#5A5A5A" stroke-width="2" stroke-linecap="square" stroke-linejoin="bevel"/>
<path d="M1188.69 695.804L1184.17 676.842L1179.61 659.127L1175.02 642.596L1170.41 627.187L1165.78 612.841L1161.13 599.504L1156.48 587.122L1151.82 575.645L1147.16 565.028L1142.51 555.227L1137.86 546.2L1133.22 537.909L1128.59 530.32L1123.98 523.399L1119.39 517.117L1114.81 511.445L1110.26 506.358L1105.73 501.835L1101.22 497.853L1096.73 494.396L1092.28 491.446L1087.85 488.99L1083.45 487.016L1079.08 485.514L1074.74 484.476L1070.44 483.896L1066.16 483.77L1061.92 484.094L1057.71 484.87L1053.53 486.098L1049.39 487.782L1045.28 489.926L1041.21 492.536L1037.18 495.622L1033.18 499.193L1029.21 503.262L1025.29 507.842L1021.4 512.948L1017.55 518.598L1013.74 524.812L1009.96 531.608L1006.23 539.012L1002.54 547.047L998.885 555.739L995.275 565.117L991.709 575.211L988.185 586.053L984.707 597.676L981.273 610.118" stroke="#5A5A5A" stroke-width="2" stroke-linecap="square" stroke-linejoin="bevel"/>
<path d="M1178.54 698.672L1173.96 680.668L1169.35 663.817L1164.72 648.063L1160.07 633.349L1155.41 619.625L1150.74 606.84L1146.07 594.949L1141.41 583.905L1136.74 573.669L1132.08 564.2L1127.44 555.462L1122.8 547.421L1118.18 540.045L1113.58 533.304L1109 527.172L1104.44 521.622L1099.9 516.633L1095.39 512.183L1090.9 508.254L1086.44 504.829L1082 501.894L1077.6 499.434L1073.23 497.44L1068.89 495.902L1064.58 494.811L1060.3 494.164L1056.05 493.954L1051.84 494.18L1047.67 494.841L1043.52 495.938L1039.42 497.472L1035.34 499.448L1031.31 501.871L1027.31 504.748L1023.35 508.088L1019.42 511.901L1015.53 516.198L1011.68 520.993L1007.87 526.301L1004.1 532.137L1000.37 538.521L996.678 545.471L993.028 553.009L989.42 561.158L985.853 569.941L982.331 579.386L978.852 589.519L975.417 600.37L972.029 611.97" stroke="#5A5A5A" stroke-width="2" stroke-linecap="square" stroke-linejoin="bevel"/>
<path d="M1168.26 701.577L1163.62 684.477L1158.97 668.442L1154.3 653.422L1149.62 639.369L1144.94 626.236L1140.25 613.978L1135.57 602.555L1130.89 591.927L1126.22 582.057L1121.56 572.908L1116.92 564.45L1112.29 556.651L1107.68 549.482L1103.09 542.916L1098.52 536.93L1093.97 531.501L1089.45 526.607L1084.96 522.23L1080.49 518.353L1076.06 514.961L1071.65 512.04L1067.27 509.577L1062.92 507.563L1058.61 505.989L1054.33 504.848L1050.08 504.133L1045.87 503.842L1041.69 503.97L1037.54 504.518L1033.43 505.484L1029.36 506.871L1025.32 508.682L1021.32 510.92L1017.36 513.593L1013.43 516.706L1009.54 520.268L1005.7 524.29L1001.88 528.782L998.114 533.757L994.382 539.229L990.691 545.214L987.041 551.728L983.432 558.789L979.865 566.417L976.341 574.632L972.86 583.458L969.424 592.918L966.032 603.037L962.687 613.841" stroke="#5A5A5A" stroke-width="2" stroke-linecap="square" stroke-linejoin="bevel"/>
<path d="M1157.83 704.52L1153.15 688.262L1148.46 672.99L1143.76 658.659L1139.06 645.225L1134.36 632.648L1129.66 620.888L1124.96 609.908L1120.28 599.674L1115.61 590.151L1110.95 581.308L1106.31 573.117L1101.69 565.549L1097.09 558.579L1092.51 552.182L1087.95 546.338L1083.43 541.024L1078.92 536.223L1074.45 531.917L1070.01 528.091L1065.59 524.731L1061.21 521.823L1056.86 519.358L1052.54 517.325L1048.25 515.716L1044 514.525L1039.78 513.745L1035.6 513.373L1031.45 513.406L1027.34 513.842L1023.26 514.682L1019.22 515.925L1015.22 517.574L1011.25 519.633L1007.33 522.106L1003.44 524.999L999.586 528.319L995.774 532.074L992.002 536.274L988.269 540.929L984.577 546.052L980.925 551.655L977.315 557.752L973.746 564.36L970.219 571.494L966.736 579.173L963.296 587.415L959.901 596.241L956.55 605.672L953.246 615.732" stroke="#5A5A5A" stroke-width="2" stroke-linecap="square" stroke-linejoin="bevel"/>
<path d="M1147.27 707.504L1142.55 692.022L1137.83 677.454L1133.1 663.759L1128.38 650.899L1123.66 638.839L1118.95 627.542L1114.25 616.976L1109.56 607.109L1104.89 597.912L1100.24 589.356L1095.6 581.416L1090.99 574.067L1086.4 567.285L1081.84 561.048L1077.3 555.338L1072.79 550.135L1068.3 545.422L1063.85 541.184L1059.43 537.407L1055.04 534.077L1050.68 531.182L1046.35 528.714L1042.06 526.662L1037.8 525.019L1033.58 523.779L1029.39 522.936L1025.24 522.486L1021.12 522.427L1017.04 522.755L1013 523.472L1009 524.576L1005.03 526.069L1001.1 527.955L997.207 530.236L993.354 532.918L989.54 536.006L985.765 539.507L982.03 543.429L978.336 547.78L974.682 552.572L971.069 557.814L967.497 563.518L963.967 569.699L960.48 576.37L957.036 583.546L953.636 591.244L950.28 599.48L946.969 608.274L943.704 617.644" stroke="#5A5A5A" stroke-width="2" stroke-linecap="square" stroke-linejoin="bevel"/>
<path d="M1136.57 710.527L1131.82 695.749L1127.07 681.819L1122.32 668.703L1117.58 656.367L1112.85 644.778L1108.13 633.905L1103.43 623.718L1098.74 614.189L1094.07 605.292L1089.42 597.002L1084.79 589.294L1080.19 582.147L1075.62 575.54L1071.07 569.452L1066.54 563.867L1062.05 558.767L1057.59 554.136L1053.16 549.961L1048.76 546.229L1044.39 542.926L1040.06 540.044L1035.76 537.572L1031.5 535.501L1027.27 533.826L1023.07 532.539L1018.92 531.635L1014.79 531.11L1010.71 530.962L1006.66 531.188L1002.65 531.786L998.681 532.758L994.747 534.104L990.852 535.825L986.996 537.925L983.179 540.407L979.401 543.276L975.663 546.537L971.966 550.198L968.308 554.265L964.692 558.746L961.117 563.652L957.583 568.992L954.092 574.777L950.643 581.02L947.238 587.733L943.876 594.93L940.558 602.625L937.285 610.835L934.058 619.575" stroke="#5A5A5A" stroke-width="2" stroke-linecap="square" stroke-linejoin="bevel"/>
<path d="M1125.72 713.591L1120.94 699.437L1116.17 686.075L1111.41 673.475L1106.66 661.606L1101.92 650.439L1097.19 639.945L1092.49 630.098L1087.8 620.873L1083.14 612.246L1078.5 604.195L1073.88 596.697L1069.29 589.732L1064.73 583.283L1060.2 577.33L1055.69 571.858L1051.22 566.851L1046.78 562.294L1042.37 558.176L1037.99 554.483L1033.65 551.205L1029.34 548.332L1025.07 545.856L1020.84 543.767L1016.64 542.059L1012.47 540.727L1008.34 539.766L1004.25 539.171L1000.2 538.938L996.186 539.067L992.21 539.556L988.272 540.404L984.372 541.611L980.512 543.179L976.69 545.11L972.909 547.407L969.167 550.073L965.466 553.113L961.804 556.533L958.184 560.338L954.605 564.536L951.067 569.134L947.571 574.141L944.117 579.566L940.706 585.42L937.338 591.714L934.014 598.458L930.734 605.666L927.499 613.351L924.309 621.528" stroke="#5A5A5A" stroke-width="2" stroke-linecap="square" stroke-linejoin="bevel"/>
<path d="M1114.72 716.697L1109.93 703.081L1105.14 690.211L1100.36 678.058L1095.6 666.593L1090.86 655.791L1086.13 645.627L1081.43 636.076L1076.75 627.115L1072.09 618.724L1067.46 610.88L1062.86 603.565L1058.28 596.76L1053.74 590.448L1049.22 584.612L1044.73 579.239L1040.28 574.312L1035.86 569.82L1031.48 565.75L1027.13 562.091L1022.81 558.833L1018.53 555.966L1014.28 553.483L1010.08 551.376L1005.9 549.638L1001.77 548.263L997.673 547.248L993.614 546.587L989.593 546.277L985.611 546.317L981.667 546.705L977.762 547.439L973.897 548.52L970.071 549.949L966.285 551.726L962.538 553.855L958.832 556.338L955.167 559.179L951.542 562.383L947.958 565.953L944.415 569.897L940.915 574.221L937.456 578.932L934.039 584.037L930.666 589.547L927.335 595.47L924.048 601.815L920.805 608.595L917.607 615.819L914.453 623.501" stroke="#5A5A5A" stroke-width="2" stroke-linecap="square" stroke-linejoin="bevel"/>
<path d="M1103.57 719.846L1098.76 706.677L1093.96 694.214L1089.18 682.431L1084.42 671.302L1079.67 660.804L1074.95 650.913L1070.25 641.608L1065.58 632.867L1060.93 624.671L1056.31 617L1051.72 609.836L1047.16 603.163L1042.63 596.965L1038.13 591.226L1033.67 585.933L1029.24 581.073L1024.84 576.632L1020.48 572.6L1016.15 568.967L1011.86 565.723L1007.61 562.859L1003.39 560.367L999.209 558.241L995.066 556.473L990.962 555.059L986.896 553.994L982.868 553.273L978.879 552.894L974.929 552.854L971.018 553.152L967.147 553.786L963.316 554.755L959.524 556.061L955.772 557.704L952.061 559.686L948.391 562.009L944.761 564.677L941.172 567.692L937.625 571.059L934.119 574.784L930.655 578.871L927.233 583.327L923.853 588.158L920.517 593.373L917.223 598.979L913.974 604.985L910.768 611.4L907.606 618.234L904.49 625.498" stroke="#5A5A5A" stroke-width="2" stroke-linecap="square" stroke-linejoin="bevel"/>
<path d="M1092.27 723.039L1087.45 710.217L1082.65 698.07L1077.86 686.574L1073.1 675.706L1068.36 665.443L1063.64 655.764L1058.95 646.649L1054.28 638.078L1049.65 630.032L1045.04 622.494L1040.46 615.446L1035.92 608.874L1031.41 602.762L1026.93 597.096L1022.48 591.863L1018.08 587.05L1013.7 582.646L1009.36 578.641L1005.06 575.024L1000.8 571.786L996.57 568.919L992.381 566.416L988.229 564.27L984.116 562.474L980.042 561.024L976.006 559.914L972.01 559.141L968.053 558.702L964.135 558.594L960.257 558.814L956.42 559.363L952.622 560.238L948.865 561.441L945.148 562.971L941.472 564.831L937.837 567.021L934.243 569.544L930.69 572.404L927.179 575.604L923.71 579.148L920.283 583.041L916.898 587.289L913.556 591.897L910.257 596.871L907.001 602.22L903.789 607.951L900.62 614.071L897.497 620.589L894.417 627.516" stroke="#5A5A5A" stroke-width="2" stroke-linecap="square" stroke-linejoin="bevel"/>
<path d="M1080.81 726.276L1075.99 713.694L1071.18 701.765L1066.4 690.468L1061.63 679.778L1056.9 669.677L1052.19 660.143L1047.51 651.156L1042.85 642.699L1038.23 634.754L1033.64 627.304L1029.08 620.332L1024.55 613.825L1020.06 607.768L1015.6 602.147L1011.18 596.95L1006.79 592.165L1002.44 587.781L998.127 583.787L993.851 580.175L989.613 576.936L985.413 574.061L981.251 571.543L977.128 569.376L973.045 567.553L969 566.07L964.995 564.923L961.03 564.106L957.105 563.616L953.22 563.452L949.376 563.611L945.571 564.091L941.808 564.893L938.085 566.015L934.403 567.457L930.762 569.222L927.163 571.31L923.605 573.723L920.089 576.464L916.615 579.537L913.183 582.944L909.793 586.69L906.446 590.781L903.141 595.22L899.88 600.015L896.663 605.171L893.489 610.696L890.359 616.596L887.274 622.88L884.233 629.555" stroke="#5A5A5A" stroke-width="2" stroke-linecap="square" stroke-linejoin="bevel"/>
<path d="M1069.19 729.558L1064.37 717.103L1059.56 705.289L1054.78 694.094L1050.03 683.497L1045.3 673.476L1040.6 664.013L1035.92 655.089L1031.28 646.687L1026.68 638.788L1022.1 631.376L1017.56 624.437L1013.05 617.956L1008.58 611.919L1004.14 606.313L999.738 601.126L995.374 596.345L991.048 591.962L986.759 587.965L982.509 584.345L978.297 581.094L974.124 578.204L969.991 575.668L965.897 573.479L961.843 571.631L957.829 570.12L953.855 568.94L949.921 568.088L946.028 567.561L942.176 567.355L938.364 567.469L934.594 567.902L930.864 568.651L927.176 569.717L923.53 571.1L919.925 572.8L916.362 574.819L912.84 577.16L909.361 579.823L905.924 582.812L902.53 586.13L899.178 589.781L895.87 593.77L892.604 598.101L889.382 602.78L886.204 607.813L883.07 613.206L879.981 618.966L876.936 625.101L873.936 631.618" stroke="#5A5A5A" stroke-width="2" stroke-linecap="square" stroke-linejoin="bevel"/>
<path d="M1057.41 732.887L1052.59 720.441L1047.79 708.633L1043.01 697.44L1038.26 686.842L1033.55 676.818L1028.86 667.349L1024.2 658.417L1019.57 650.004L1014.98 642.094L1010.42 634.669L1005.89 627.716L1001.41 621.219L996.952 615.164L992.536 609.54L988.158 604.334L983.817 599.534L979.515 595.13L975.251 591.113L971.027 587.471L966.842 584.199L962.697 581.286L958.591 578.727L954.527 576.515L950.502 574.644L946.518 573.109L942.575 571.905L938.673 571.028L934.813 570.476L930.993 570.244L927.215 570.332L923.479 570.737L919.784 571.458L916.131 572.495L912.52 573.848L908.952 575.518L905.425 577.505L901.941 579.812L898.5 582.44L895.102 585.392L891.746 588.672L888.434 592.283L885.165 596.23L881.94 600.517L878.759 605.148L875.622 610.131L872.53 615.471L869.483 621.175L866.481 627.25L863.524 633.703" stroke="#5A5A5A" stroke-width="2" stroke-linecap="square" stroke-linejoin="bevel"/>
<path d="M1045.46 736.262L1040.64 723.704L1035.85 711.788L1031.08 700.494L1026.34 689.799L1021.63 679.684L1016.96 670.13L1012.31 661.117L1007.7 652.627L1003.13 644.644L998.584 637.152L994.078 630.135L989.608 623.578L985.176 617.468L980.781 611.792L976.425 606.537L972.108 601.692L967.83 597.246L963.591 593.189L959.393 589.513L955.235 586.207L951.117 583.265L947.04 580.679L943.004 578.442L939.01 576.55L935.056 574.995L931.145 573.775L927.275 572.884L923.447 572.319L919.66 572.078L915.916 572.158L912.215 572.558L908.555 573.277L904.938 574.314L901.364 575.669L897.832 577.342L894.344 579.336L890.899 581.65L887.496 584.289L884.138 587.254L880.823 590.549L877.551 594.177L874.324 598.142L871.142 602.45L868.004 607.106L864.911 612.114L861.863 617.482L858.861 623.216L855.904 629.324L852.995 635.812" stroke="#5A5A5A" stroke-width="2" stroke-linecap="square" stroke-linejoin="bevel"/>
<path d="M1033.33 739.687L1028.52 726.891L1023.74 714.754L1018.98 703.252L1014.26 692.364L1009.56 682.069L1004.9 672.347L1000.27 663.178L995.671 654.545L991.111 646.428L986.586 638.813L982.099 631.682L977.649 625.021L973.237 618.816L968.864 613.053L964.53 607.719L960.237 602.803L955.983 598.293L951.769 594.18L947.597 590.453L943.465 587.103L939.375 584.124L935.327 581.506L931.321 579.244L927.356 577.332L923.434 575.763L919.553 574.533L915.716 573.639L911.921 573.077L908.168 572.843L904.459 572.936L900.793 573.353L897.169 574.095L893.589 575.16L890.053 576.549L886.56 578.262L883.11 580.3L879.705 582.665L876.343 585.36L873.026 588.388L869.753 591.751L866.525 595.454L863.342 599.501L860.204 603.897L857.112 608.647L854.066 613.759L851.066 619.237L848.112 625.089L845.205 631.322L842.346 637.945" stroke="#5A5A5A" stroke-width="2" stroke-linecap="square" stroke-linejoin="bevel"/>
<path d="M1021.03 743.161L1016.23 730.002L1011.46 717.528L1006.71 705.713L1002 694.534L997.314 683.97L992.664 673.999L988.048 664.601L983.468 655.756L978.924 647.446L974.417 639.652L969.948 632.359L965.517 625.55L961.126 619.211L956.774 613.326L952.463 607.884L948.192 602.871L943.962 598.276L939.774 594.088L935.627 590.296L931.523 586.893L927.461 583.868L923.441 581.215L919.464 578.927L915.53 576.996L911.638 575.418L907.79 574.188L903.986 573.301L900.224 572.754L896.507 572.544L892.833 572.669L889.203 573.127L885.617 573.917L882.075 575.039L878.577 576.493L875.124 578.28L871.715 580.401L868.351 582.859L865.032 585.656L861.759 588.795L858.531 592.28L855.348 596.115L852.212 600.305L849.122 604.856L846.079 609.773L843.083 615.063L840.134 620.734L837.233 626.791L834.38 633.244L831.577 640.102" stroke="#5A5A5A" stroke-width="2" stroke-linecap="square" stroke-linejoin="bevel"/>
<path d="M1008.56 746.685L1003.76 733.041L998.998 720.115L994.262 707.883L989.558 696.319L984.887 685.398L980.25 675.099L975.649 665.399L971.083 656.277L966.555 647.713L962.065 639.689L957.614 632.186L953.203 625.186L948.831 618.675L944.5 612.637L940.211 607.058L935.963 601.924L931.758 597.223L927.594 592.943L923.474 589.075L919.396 585.607L915.362 582.531L911.371 579.838L907.424 577.522L903.52 575.576L899.661 573.994L895.845 572.77L892.074 571.901L888.348 571.383L884.665 571.213L881.028 571.388L877.435 571.908L873.888 572.771L870.385 573.977L866.928 575.527L863.517 577.422L860.151 579.663L856.831 582.253L853.557 585.196L850.33 588.494L847.149 592.152L844.015 596.176L840.929 600.569L837.89 605.34L834.9 610.493L831.958 616.037L829.065 621.979L826.221 628.328L823.428 635.093L820.685 642.283" stroke="#5A5A5A" stroke-width="2" stroke-linecap="square" stroke-linejoin="bevel"/>
<path d="M995.896 750.26L991.11 736.009L986.353 722.522L981.627 709.77L976.933 697.727L972.273 686.366L967.648 675.662L963.059 665.59L958.508 656.129L953.995 647.255L949.521 638.949L945.087 631.191L940.694 623.962L936.342 617.244L932.032 611.022L927.764 605.279L923.539 600.002L919.357 595.176L915.219 590.79L911.124 586.831L907.073 583.29L903.067 580.157L899.105 577.422L895.188 575.078L891.316 573.119L887.489 571.537L883.707 570.327L879.971 569.486L876.28 569.009L872.634 568.894L869.035 569.137L865.481 569.739L861.973 570.697L858.512 572.013L855.098 573.688L851.73 575.722L848.409 578.118L845.135 580.879L841.909 584.008L838.73 587.511L835.6 591.391L832.518 595.656L829.486 600.31L826.502 605.362L823.569 610.819L820.685 616.688L817.853 622.981L815.072 629.704L812.343 636.871L809.667 644.49" stroke="#5A5A5A" stroke-width="2" stroke-linecap="square" stroke-linejoin="bevel"/>
<path d="M983.049 753.889L978.269 738.913L973.518 724.756L968.799 711.387L964.113 698.776L959.462 686.893L954.848 675.71L950.27 665.202L945.732 655.341L941.232 646.105L936.774 637.47L932.356 629.415L927.98 621.919L923.647 614.963L919.357 608.528L915.11 602.598L910.908 597.156L906.749 592.189L902.636 587.682L898.567 583.624L894.544 580.001L890.566 576.805L886.634 574.025L882.748 571.654L878.907 569.683L875.114 568.106L871.366 566.918L867.665 566.114L864.011 565.69L860.403 565.643L856.843 565.971L853.33 566.672L849.864 567.748L846.446 569.197L843.076 571.022L839.754 573.225L836.481 575.807L833.256 578.774L830.081 582.13L826.954 585.879L823.878 590.027L820.852 594.583L817.877 599.552L814.953 604.944L812.081 610.768L809.262 617.032L806.495 623.748L803.783 630.927L801.125 638.581L798.522 646.722" stroke="#5A5A5A" stroke-width="2" stroke-linecap="square" stroke-linejoin="bevel"/>
<path d="M970.011 757.572L965.233 741.755L960.486 726.824L955.771 712.743L951.091 699.478L946.447 686.996L941.841 675.266L937.273 664.257L932.745 653.943L928.258 644.295L923.813 635.287L919.411 626.897L915.051 619.1L910.736 611.875L906.465 605.202L902.239 599.063L898.059 593.44L893.924 588.316L889.835 583.677L885.793 579.509L881.797 575.799L877.848 572.536L873.946 569.709L870.091 567.31L866.284 565.331L862.524 563.764L858.812 562.603L855.148 561.844L851.532 561.483L847.964 561.517L844.445 561.944L840.974 562.763L837.552 563.975L834.18 565.579L830.856 567.579L827.583 569.976L824.36 572.774L821.187 575.979L818.065 579.596L814.995 583.63L811.976 588.09L809.01 592.983L806.097 598.318L803.237 604.106L800.432 610.356L797.682 617.08L794.987 624.291L792.349 632.002L789.769 640.227L787.247 648.98" stroke="#5A5A5A" stroke-width="2" stroke-linecap="square" stroke-linejoin="bevel"/>
<path d="M943.345 765.104L938.559 747.276L933.807 730.497L929.09 714.723L924.412 699.908L919.772 686.011L915.174 672.992L910.618 660.814L906.106 649.438L901.638 638.832L897.215 628.962L892.838 619.797L888.509 611.31L884.226 603.472L879.992 596.259L875.806 589.648L871.668 583.615L867.58 578.142L863.541 573.209L859.551 568.8L855.612 564.9L851.722 561.494L847.882 558.571L844.093 556.119L840.355 554.13L836.667 552.595L833.029 551.507L829.443 550.862L825.908 550.655L822.425 550.884L818.994 551.547L815.614 552.644L812.287 554.176L809.013 556.146L805.791 558.556L802.624 561.412L799.51 564.719L796.452 568.486L793.448 572.718L790.501 577.427L787.61 582.622L784.777 588.316L782.002 594.521L779.286 601.251L776.631 608.521L774.037 616.347L771.505 624.747L769.038 633.738L766.636 643.341L764.3 653.577" stroke="#5A5A5A" stroke-width="2" stroke-linecap="square" stroke-linejoin="bevel"/>
<path d="M929.708 768.955L924.909 749.962L920.147 732.117L915.422 715.368L910.738 699.664L906.096 684.959L901.496 671.206L896.942 658.363L892.433 646.388L887.971 635.242L883.557 624.889L879.191 615.292L874.874 606.421L870.606 598.245L866.389 590.734L862.222 583.863L858.106 577.607L854.04 571.944L850.026 566.854L846.064 562.316L842.153 558.316L838.294 554.836L834.487 551.864L830.732 549.388L827.03 547.398L823.38 545.885L819.782 544.842L816.238 544.263L812.746 544.146L809.308 544.486L805.924 545.283L802.593 546.537L799.317 548.251L796.096 550.426L792.93 553.069L789.82 556.184L786.767 559.779L783.771 563.863L780.832 568.445L777.952 573.537L775.132 579.151L772.373 585.301L769.675 592.003L767.04 599.273L764.468 607.129L761.963 615.59L759.523 624.677L757.153 634.411L754.852 644.816L752.622 655.915" stroke="#5A5A5A" stroke-width="2" stroke-linecap="square" stroke-linejoin="bevel"/>
<path d="M915.862 772.867L911.044 752.607L906.266 733.604L901.528 715.799L896.833 699.136L892.182 683.559L887.578 669.017L883.022 655.462L878.514 642.845L874.055 631.124L869.647 620.256L865.29 610.201L860.984 600.924L856.73 592.39L852.529 584.566L848.381 577.424L844.286 570.935L840.244 565.075L836.255 559.821L832.32 555.151L828.439 551.048L824.611 547.493L820.838 544.473L817.119 541.975L813.454 539.986L809.843 538.499L806.288 537.505L802.786 536.999L799.34 536.978L795.95 537.437L792.615 538.378L789.336 539.8L786.114 541.707L782.949 544.102L779.842 546.992L776.793 550.383L773.803 554.284L770.873 558.707L768.004 563.662L765.196 569.164L762.452 575.227L759.771 581.867L757.156 589.104L754.607 596.956L752.127 605.445L749.716 614.593L747.376 624.425L745.11 634.965L742.92 646.242L740.806 658.283" stroke="#5A5A5A" stroke-width="2" stroke-linecap="square" stroke-linejoin="bevel"/>
<path d="M901.802 776.839L896.957 755.213L892.155 734.965L887.397 716.027L882.686 698.335L878.023 681.827L873.409 666.444L868.847 652.131L864.336 638.834L859.878 626.503L855.474 615.092L851.123 604.556L846.828 594.853L842.587 585.944L838.401 577.794L834.271 570.37L830.197 563.64L826.178 557.577L822.215 552.155L818.308 547.35L814.457 543.142L810.663 539.513L806.924 536.446L803.242 533.926L799.616 531.943L796.047 530.485L792.535 529.545L789.079 529.117L785.681 529.197L782.34 529.784L779.057 530.876L775.833 532.475L772.668 534.585L769.562 537.212L766.516 540.362L763.532 544.044L760.609 548.269L757.75 553.05L754.954 558.4L752.224 564.336L749.56 570.875L746.964 578.037L744.437 585.843L741.981 594.317L739.598 603.482L737.29 613.366L735.059 623.997L732.906 635.404L730.835 647.62L728.848 660.678" stroke="#5A5A5A" stroke-width="2" stroke-linecap="square" stroke-linejoin="bevel"/>
<path d="M887.523 780.871L882.642 757.785L877.809 736.207L873.024 716.061L868.29 697.275L863.609 679.779L858.981 663.506L854.409 648.392L849.892 634.379L845.432 621.409L841.029 609.429L836.683 598.389L832.396 588.242L828.167 578.945L823.996 570.458L819.884 562.742L815.83 555.765L811.835 549.493L807.898 543.9L804.02 538.958L800.201 534.646L796.44 530.942L792.738 527.829L789.094 525.291L785.509 523.315L781.983 521.89L778.516 521.008L775.108 520.663L771.76 520.851L768.472 521.57L765.244 522.821L762.077 524.605L758.971 526.928L755.928 529.797L752.948 533.219L750.032 537.205L747.181 541.769L744.396 546.925L741.679 552.689L739.03 559.081L736.452 566.122L733.946 573.834L731.514 582.242L729.158 591.372L726.88 601.255L724.682 611.921L722.567 623.403L720.537 635.735L718.596 648.955L716.745 663.101" stroke="#5A5A5A" stroke-width="2" stroke-linecap="square" stroke-linejoin="bevel"/>
<path d="M873.021 784.967L868.095 760.329L863.221 737.341L858.401 715.917L853.638 695.975L848.933 677.437L844.286 660.227L839.699 644.274L835.172 629.51L830.707 615.872L826.303 603.3L821.96 591.737L817.68 581.131L813.461 571.433L809.305 562.597L805.21 554.583L801.177 547.352L797.206 540.869L793.296 535.102L789.448 530.023L785.661 525.606L781.935 521.828L778.27 518.67L774.667 516.116L771.125 514.15L767.644 512.762L764.224 511.942L760.867 511.685L757.571 511.985L754.338 512.843L751.168 514.259L748.061 516.235L745.019 518.779L742.042 521.898L739.131 525.603L736.287 529.905L733.511 534.821L730.806 540.367L728.171 546.564L725.61 553.432L723.123 560.997L720.713 569.284L718.382 578.323L716.133 588.145L713.967 598.783L711.888 610.274L709.898 622.655L708 635.966L706.199 650.251L704.497 665.555" stroke="#5A5A5A" stroke-width="2" stroke-linecap="square" stroke-linejoin="bevel"/>
<path d="M858.289 789.128L853.307 762.851L848.383 738.375L843.521 715.606L838.721 694.449L833.985 674.819L829.313 656.629L824.707 639.799L820.167 624.254L815.692 609.922L811.285 596.736L806.943 584.633L802.668 573.553L798.459 563.443L794.316 554.252L790.238 545.933L786.226 538.444L782.279 531.746L778.397 525.804L774.579 520.587L770.826 516.065L767.137 512.215L763.512 509.015L759.951 506.447L756.453 504.494L753.02 503.146L749.65 502.392L746.345 502.226L743.105 502.644L739.93 503.645L736.82 505.231L733.777 507.406L730.802 510.178L727.894 513.556L725.056 517.552L722.288 522.18L719.593 527.46L716.971 533.41L714.425 540.054L711.956 547.417L709.566 555.526L707.259 564.412L705.036 574.11L702.9 584.654L700.854 596.083L698.902 608.438L697.046 621.764L695.291 636.106L693.64 651.513L692.098 668.038" stroke="#5A5A5A" stroke-width="2" stroke-linecap="square" stroke-linejoin="bevel"/>
<path d="M843.323 793.356L838.273 765.356L833.29 739.32L828.375 715.141L823.531 692.716L818.757 671.945L814.055 652.735L809.424 634.995L804.866 618.64L800.38 603.59L795.966 589.771L791.623 577.112L787.351 565.546L783.151 555.015L779.021 545.46L774.96 536.832L770.97 529.082L767.047 522.167L763.194 516.05L759.408 510.694L755.69 506.069L752.039 502.148L748.455 498.908L744.938 496.328L741.487 494.391L738.104 493.086L734.787 492.401L731.537 492.33L728.355 492.87L725.241 494.019L722.195 495.78L719.219 498.16L716.314 501.165L713.479 504.808L710.718 509.103L708.031 514.068L705.42 519.721L702.887 526.088L700.434 533.193L698.063 541.065L695.776 549.738L693.578 559.245L691.469 569.625L689.455 580.919L687.537 593.172L685.721 606.429L684.009 620.741L682.407 636.161L680.918 652.745L679.548 670.552" stroke="#5A5A5A" stroke-width="2" stroke-linecap="square" stroke-linejoin="bevel"/>
<path d="M828.116 797.65L822.986 767.851L817.932 740.188L812.955 714.54L808.058 690.794L803.24 668.84L798.5 648.571L793.841 629.889L789.26 612.698L784.759 596.91L780.335 582.44L775.989 569.211L771.72 557.149L767.527 546.188L763.409 536.264L759.366 527.322L755.397 519.308L751.5 512.176L747.676 505.882L743.923 500.389L740.242 495.663L736.631 491.673L733.09 488.394L729.619 485.805L726.218 483.888L722.887 482.628L719.625 482.016L716.434 482.043L713.313 482.708L710.263 484.009L707.284 485.95L704.379 488.538L701.547 491.783L698.79 495.697L696.11 500.299L693.508 505.606L690.986 511.643L688.547 518.436L686.192 526.014L683.925 534.411L681.748 543.663L679.664 553.81L677.678 564.895L675.792 576.965L674.011 590.069L672.34 604.262L670.782 619.599L669.343 636.142L668.027 653.952L666.842 673.097" stroke="#5A5A5A" stroke-width="2" stroke-linecap="square" stroke-linejoin="bevel"/>
<path d="M812.663 802.015L807.44 770.345L802.303 740.99L797.255 713.819L792.296 688.706L787.425 665.527L782.643 644.167L777.949 624.514L773.342 606.464L768.821 589.917L764.385 574.782L760.034 560.97L755.766 548.403L751.579 537.005L747.474 526.708L743.448 517.449L739.5 509.17L735.63 501.819L731.837 495.35L728.119 489.72L724.475 484.893L720.906 480.837L717.411 477.522L713.989 474.927L710.64 473.031L707.363 471.82L704.16 471.283L701.029 471.413L697.973 472.205L694.99 473.662L692.083 475.786L689.251 478.587L686.497 482.075L683.821 486.266L681.226 491.179L678.714 496.836L676.286 503.264L673.945 510.492L671.695 518.554L669.537 527.488L667.476 537.334L665.515 548.137L663.658 559.947L661.909 572.815L660.273 586.799L658.756 601.957L657.361 618.354L656.096 636.058L654.967 655.139L653.979 675.673" stroke="#5A5A5A" stroke-width="2" stroke-linecap="square" stroke-linejoin="bevel"/>
<path d="M835.739 553.152L831.924 554.518L828.164 556.328L824.46 558.583L820.81 561.287L817.217 564.443L813.68 568.058L810.199 572.137L806.776 576.687L803.411 581.717L800.104 587.235L796.856 593.253L793.668 599.78L790.54 606.829L787.474 614.414L784.47 622.547L781.529 631.243L778.652 640.52L775.841 650.392" stroke="#5A5A5A" stroke-width="2" stroke-linecap="square" stroke-linejoin="bevel"/>
<path d="M812.664 802.016L807.44 770.346L802.304 740.991L797.256 713.82L792.297 688.707L787.426 665.528L782.644 644.168L777.949 624.515L773.342 606.465L768.821 589.918L764.386 574.783L760.034 560.971L755.766 548.404L751.58 537.006L747.474 526.709L743.448 517.45L739.501 509.171L735.631 501.82L731.837 495.351L728.119 489.721L724.476 484.894L720.907 480.838L717.412 477.523L713.989 474.928L710.64 473.032L707.364 471.821L704.16 471.284L701.03 471.414L697.973 472.206L694.991 473.663L692.083 475.787L689.252 478.588L686.497 482.076L683.822 486.267L681.227 491.18L678.714 496.837L667.476 537.335L665.515 548.138L663.658 559.948L661.909 572.816L660.274 586.8L658.756 601.958L657.362 618.355L656.097 636.059L654.967 655.14L653.979 675.674" stroke="white" stroke-width="2" stroke-linecap="square" stroke-linejoin="bevel"/>
<path d="M828.116 797.651L822.986 767.852L817.932 740.188L812.956 714.541L808.058 690.795L803.24 668.841L798.501 648.572L793.841 629.89L789.261 612.699L784.759 596.911L780.336 582.441L775.99 569.212L771.72 557.15L767.528 546.189L763.41 536.265L759.367 527.323L755.397 519.309L751.501 512.177L747.677 505.883L743.924 500.39L740.243 495.664L736.632 491.674L733.091 488.395L729.62 485.806L726.219 483.889L722.887 482.629L719.626 482.017L716.434 482.044L713.313 482.709L710.263 484.01L707.285 485.951L704.379 488.539L701.547 491.784L698.791 495.698L696.11 500.299L693.508 505.607L690.987 511.644L688.547 518.437L686.192 526.015L683.925 534.412L681.748 543.664L679.665 553.811L677.678 564.896L675.793 576.966L674.012 590.07L672.34 604.263L670.782 619.6L669.343 636.143L668.028 653.953L666.842 673.097" stroke="white" stroke-width="2" stroke-linecap="square" stroke-linejoin="bevel"/>
<path d="M843.323 793.356L838.273 765.357L833.29 739.321L828.375 715.142L823.531 692.717L818.757 671.946L814.055 652.735L809.424 634.995L804.866 618.64L800.38 603.591L795.966 589.772L791.623 577.112L787.351 565.547L783.151 555.015L779.021 545.461L774.96 536.832L770.97 529.082L767.047 522.168L763.194 516.05L759.408 510.694L755.69 506.07L752.039 502.149L748.455 498.908L744.938 496.328L741.487 494.392L738.104 493.086M728.355 492.87L725.241 494.019L722.195 495.781L719.219 498.16L716.314 501.166L713.479 504.809L710.718 509.104L708.031 514.068L705.42 519.722L702.887 526.088L700.434 533.193L698.063 541.066L695.777 549.738L693.578 559.246L691.469 569.626L689.455 580.92L687.537 593.172L685.721 606.429L684.009 620.741L682.407 636.162L680.918 652.746L679.548 670.553" stroke="white" stroke-width="2" stroke-linecap="square" stroke-linejoin="bevel"/>
<path d="M858.289 789.129L853.307 762.852L848.383 738.376L843.521 715.606L838.721 694.45L833.985 674.819L829.313 656.629L824.707 639.8L820.167 624.255L815.692 609.923L811.285 596.737L806.943 584.633L802.668 573.554L798.459 563.444L794.316 554.253L790.238 545.934L786.226 538.445L782.279 531.747L778.397 525.805L774.58 520.588L770.826 516.066L767.137 512.216L763.512 509.016L759.951 506.447L752.843 502.79M736.82 505.232L733.777 507.407L730.802 510.179L727.894 513.556L725.056 517.552L722.288 522.181L719.593 527.461L716.971 533.411L714.425 540.055L711.956 547.417L709.566 555.527L707.259 564.413L705.036 574.111L702.9 584.655L700.854 596.084L698.902 608.439L697.046 621.764L695.291 636.107L693.64 651.514L692.098 668.039" stroke="white" stroke-width="2" stroke-linecap="square" stroke-linejoin="bevel"/>
<path d="M873.021 784.969L868.095 760.331L863.221 737.342L858.401 715.918L853.638 695.977L848.933 677.438L844.286 660.228L839.699 644.275L835.172 629.512L830.707 615.874L826.303 603.302L821.96 591.738L817.68 581.132L813.461 571.434L809.305 562.599L805.21 554.585L801.177 547.354L797.206 540.871L793.296 535.104L789.448 530.025L785.661 525.608L781.935 521.83L778.27 518.672L774.667 516.118L771.125 514.152L767.644 512.764M744.095 519.586L742.042 521.9L739.131 525.604L736.287 529.907L733.511 534.823L730.806 540.369L728.171 546.565L725.61 553.434L723.123 560.998L720.713 569.286L718.382 578.325L716.133 588.147L713.967 598.785L711.888 610.276L709.898 622.656L708 635.968L706.199 650.253L704.497 665.556" stroke="white" stroke-width="2" stroke-linecap="square" stroke-linejoin="bevel"/>
<path d="M887.524 780.872L882.643 757.787L877.81 736.209L873.025 716.063L868.291 697.277L863.61 679.781L858.982 663.507L854.41 648.394L849.893 634.381L845.433 621.411L841.03 609.431L836.684 598.391L832.397 588.244L828.168 578.947L823.997 570.46L819.885 562.744L815.831 555.766L811.836 549.495L807.899 543.902L804.021 538.96L800.202 534.648L796.441 530.944L792.739 527.831L789.095 525.292L785.51 523.316L781.984 521.892M750.916 535.734L747.182 541.771L744.397 546.927L741.68 552.691L739.031 559.083L736.453 566.124L733.947 573.835L731.515 582.243L729.159 591.374L726.881 601.257L724.683 611.923L722.568 623.404L720.538 635.737L718.597 648.957L716.746 663.103" stroke="white" stroke-width="2" stroke-linecap="square" stroke-linejoin="bevel"/>
<path d="M901.802 776.838L896.957 755.213L892.155 734.965L887.397 716.027L882.686 698.334L878.023 681.826L873.409 666.443L868.847 652.13L864.336 638.833L859.878 626.503L855.474 615.092L851.123 604.555L846.828 594.852L842.587 585.944L838.401 577.794L834.271 570.369L830.197 563.64L826.178 557.576L822.215 552.154L818.308 547.35L814.457 543.142L810.663 539.513L806.924 536.445L803.242 533.926L799.616 531.942L796.047 530.484M757.385 553.772L754.954 558.4L752.224 564.335L749.56 570.875L746.964 578.037L744.437 585.843L741.981 594.316L739.598 603.482L737.29 613.366L735.059 623.996L732.906 635.404L730.835 647.62L728.848 660.678" stroke="white" stroke-width="2" stroke-linecap="square" stroke-linejoin="bevel"/>
<path d="M915.862 772.867L911.044 752.607L906.266 733.605L901.528 715.8L896.833 699.136L892.182 683.559L887.578 669.018L883.022 655.462L878.514 642.846L874.055 631.124L869.647 620.256L865.29 610.201L860.984 600.924L856.73 592.39L852.529 584.566L848.381 577.424L844.286 570.935L840.244 565.075L836.255 559.821L832.32 555.151L828.439 551.048L824.611 547.493L820.838 544.473L817.119 541.975L813.454 539.986L809.843 538.499M763.73 572.06L759.771 581.868L757.156 589.104L754.607 596.957L752.127 605.445L749.716 614.593L747.377 624.425L745.111 634.965L742.92 646.242L740.806 658.283" stroke="white" stroke-width="2" stroke-linecap="square" stroke-linejoin="bevel"/>
<path d="M929.708 768.956L924.909 749.963L920.147 732.118L915.422 715.368L910.738 699.665L906.096 684.96L901.496 671.207L896.942 658.364L892.433 646.389L887.971 635.243L883.557 624.889L879.191 615.293L874.874 606.422L870.606 598.245L866.389 590.735L862.222 583.864L858.106 577.608L854.04 571.945L850.026 566.855L846.064 562.317L842.153 558.316L838.294 554.837L834.487 551.865L830.732 549.389L827.03 547.399L823.38 545.886M769.452 592.712L767.04 599.274L764.468 607.13L761.963 615.591L759.524 624.678L757.153 634.412L754.852 644.817L752.622 655.916" stroke="white" stroke-width="2" stroke-linecap="square" stroke-linejoin="bevel"/>
<path d="M943.345 765.105L938.559 747.277L933.807 730.498L929.09 714.723L924.412 699.909L919.772 686.012L915.174 672.993L910.618 660.814L906.106 649.439L901.638 638.832L897.215 628.962L892.838 619.798L888.509 611.311L884.226 603.473L879.992 596.26L875.806 589.648L871.668 583.616L867.58 578.142L863.541 573.21L859.551 568.801L855.612 564.9L851.722 561.495L847.882 558.572L844.093 556.12L840.355 554.131L836.667 552.596M775.175 613.239L771.505 624.747L769.038 633.739L766.636 643.342L764.3 653.578" stroke="white" stroke-width="2" stroke-linecap="square" stroke-linejoin="bevel"/>
<path d="M956.778 761.31L951.999 744.542L947.251 728.736L942.538 713.852L937.86 699.851L933.22 686.697L928.62 674.353L924.059 662.787L919.54 651.966L915.064 641.86L910.631 632.44L906.242 623.678L901.898 615.55L897.6 608.031L893.347 601.098L889.142 594.731L884.983 588.91L880.871 583.617L876.807 578.835L872.791 574.549L868.823 570.746L864.904 567.413L861.032 564.539L857.21 562.113L853.436 560.127L849.712 558.574L846.036 557.447M780.335 634.863L778.274 641.813L775.841 651.266" stroke="white" stroke-width="2" stroke-linecap="square" stroke-linejoin="bevel"/>
<path d="M970.012 757.573L965.233 741.756L960.486 726.825L955.772 712.744L951.092 699.479L946.448 686.997L941.841 675.267L937.274 664.259L932.746 653.944L928.259 644.296L923.814 635.289L919.411 626.898L915.052 619.101L910.737 611.876L906.466 605.204L902.24 599.064L898.059 593.441L893.925 588.317L889.836 583.678L885.793 579.51L881.797 575.8L877.848 572.537L873.947 569.711L870.092 567.312L866.284 565.332L862.525 563.765L858.812 562.604" stroke="white" stroke-width="2" stroke-linecap="square" stroke-linejoin="bevel"/>
<path d="M983.049 753.89L978.269 738.914L973.518 724.757L968.799 711.388L964.113 698.776L959.463 686.893L954.848 675.711L950.271 665.202L945.732 655.342L941.233 646.106L936.774 637.471L932.356 629.416L927.98 621.92L923.647 614.963L919.357 608.528L915.11 602.598L910.908 597.157L906.75 592.19L902.636 587.683L898.567 583.624L894.544 580.002L890.566 576.806L886.634 574.026L882.748 571.655L878.908 569.684L875.114 568.107L871.366 566.919" stroke="white" stroke-width="2" stroke-linecap="square" stroke-linejoin="bevel"/>
<path d="M995.896 750.261L991.11 736.01L986.353 722.523L981.627 709.771L976.933 697.728L972.273 686.367L967.648 675.663L963.059 665.591L958.508 656.13L953.995 647.257L949.521 638.951L945.087 631.192L940.694 623.963L936.342 617.246L932.032 611.023L927.764 605.28L923.539 600.003L919.357 595.177L915.219 590.791L911.124 586.833L907.073 583.291L903.067 580.158L899.105 577.423L895.188 575.079L891.316 573.12L887.489 571.538L883.707 570.329L879.971 569.487" stroke="white" stroke-width="2" stroke-linecap="square" stroke-linejoin="bevel"/>
<path d="M1008.56 746.685L980.251 675.099L975.649 665.399L957.615 632.185L953.203 625.186L948.832 618.675L944.501 612.637L940.212 607.058L935.964 601.924L931.758 597.223L927.595 592.943L923.474 589.074L919.397 585.607L915.362 582.531L911.371 579.838L907.424 577.522L903.521 575.576L899.661 573.994L895.846 572.77L892.075 571.901L888.348 571.383L884.666 571.213" stroke="white" stroke-width="2" stroke-linecap="square" stroke-linejoin="bevel"/>
<path d="M1021.03 743.162L1016.23 730.003L1011.46 717.529L1006.71 705.714L1002 694.535L997.315 683.971L992.665 674L988.049 664.602L983.469 655.757L978.925 647.446L974.418 639.653L969.949 632.36L965.518 625.551L961.127 619.212L956.775 613.327L952.464 607.885L948.193 602.872L943.963 598.277L939.775 594.088L935.629 590.297L931.524 586.894L927.462 583.869L923.442 581.216L919.465 578.928L915.531 576.997L911.639 575.419L907.791 574.189L903.987 573.302L900.225 572.755L896.508 572.545" stroke="white" stroke-width="2" stroke-linecap="square" stroke-linejoin="bevel"/>
<path d="M1033.33 739.687L1028.52 726.891L1023.74 714.754L1018.98 703.252L1014.26 692.364L1009.56 682.069L1004.9 672.347L1000.27 663.178L977.649 625.022L973.238 618.816L968.865 613.053L964.531 607.719L960.237 602.803L955.983 598.293L951.77 594.18L947.597 590.453L943.466 587.103L939.376 584.124L935.328 581.506L931.321 579.244L927.356 577.332L923.434 575.763L919.554 574.533L915.716 573.639L911.921 573.077L908.169 572.843L904.459 572.936" stroke="white" stroke-width="2" stroke-linecap="square" stroke-linejoin="bevel"/>
<path d="M1045.46 736.264L1016.96 670.132L1012.31 661.119L1007.7 652.629L1003.13 644.646L998.584 637.154L994.078 630.137L989.609 623.58L985.176 617.47L980.782 611.794L976.426 606.539L972.109 601.694L967.83 597.248L963.592 593.191L959.394 589.515L955.235 586.209L951.118 583.267L947.041 580.681L943.005 578.444L939.01 576.552L935.057 574.997L931.145 573.777L927.275 572.886L923.447 572.321L919.661 572.08L915.917 572.16L912.215 572.56" stroke="white" stroke-width="2" stroke-linecap="square" stroke-linejoin="bevel"/>
<path d="M1057.41 732.887L1052.58 720.442L1047.79 708.634L1043.01 697.441L1038.26 686.843L1033.54 676.819L1028.86 667.35L1024.2 658.418L1019.57 650.005L1014.98 642.095L1010.42 634.67L1005.89 627.717L1001.4 621.22L996.952 615.165L992.536 609.541L988.157 604.335L983.817 599.535L979.514 595.131L975.251 591.113L971.026 587.472L966.841 584.2L962.696 581.287L958.591 578.728L954.526 576.516L950.502 574.645L946.518 573.11L942.575 571.906L938.673 571.029L934.812 570.477L930.993 570.245L927.215 570.333L923.478 570.738L919.784 571.459" stroke="white" stroke-width="2" stroke-linecap="square" stroke-linejoin="bevel"/>
<path d="M1069.19 729.559L1059.56 705.29L1054.78 694.095L1050.03 683.498L1045.3 673.477L1040.6 664.014L1035.93 655.091L1031.28 646.688L1026.68 638.789L1022.1 631.377L1017.56 624.438L1013.05 617.957L1008.58 611.92L1004.14 606.314L999.738 601.127L995.374 596.346L991.048 591.963L986.759 587.966L982.509 584.346L978.297 581.095L974.125 578.205L969.991 575.669L965.898 573.48L961.843 571.632L957.829 570.121L953.855 568.941L949.922 568.089L946.029 567.562L942.176 567.356L938.365 567.47L934.594 567.903L930.865 568.652L927.177 569.718L923.53 571.101" stroke="white" stroke-width="2" stroke-linecap="square" stroke-linejoin="bevel"/>
<path d="M1080.81 726.276L1075.99 713.694L1071.18 701.765L1066.4 690.468L1061.64 679.778L1056.9 669.677L1052.19 660.143L1047.51 651.156L1042.85 642.699L1038.23 634.754L1033.64 627.304L1029.08 620.332L1024.55 613.825L1020.06 607.768L1015.6 602.147L1011.18 596.95L1006.79 592.165L1002.44 587.781L998.127 583.787L993.851 580.175L989.613 576.936L985.413 574.061L981.251 571.543L977.129 569.376L973.045 567.553L969.001 566.071L964.996 564.923L961.031 564.106L957.106 563.616L953.221 563.452L949.376 563.611L945.572 564.091L941.808 564.893L938.085 566.015L933.156 568.116" stroke="white" stroke-width="2" stroke-linecap="square" stroke-linejoin="bevel"/>
<path d="M1092.27 723.039L1087.45 710.217L1082.65 698.07L1077.86 686.574L1073.1 675.706L1068.36 665.443L1063.64 655.764L1058.95 646.649L1054.28 638.078L1049.65 630.032L1045.04 622.494L1040.46 615.446L1035.92 608.874L1031.41 602.762L1026.93 597.096L1022.48 591.863L1018.08 587.05L1013.7 582.646L1009.36 578.641L1005.06 575.024L1000.8 571.786L996.57 568.919L992.381 566.416L988.229 564.27L984.116 562.474L980.042 561.024L976.006 559.914L972.01 559.141L968.053 558.702L964.135 558.594L960.257 558.814L956.42 559.363L952.622 560.238L948.865 561.441L945.148 562.971L941.472 564.831" stroke="white" stroke-width="2" stroke-linecap="square" stroke-linejoin="bevel"/>
<path d="M1103.58 719.847L1098.76 706.678L1093.97 694.215L1089.18 682.432L1084.42 671.303L1079.67 660.805L1074.95 650.914L1070.25 641.609L1065.58 632.868L1060.93 624.672L1056.31 617.001L1051.72 609.837L1047.16 603.164L1042.63 596.966L1038.13 591.227L1033.67 585.934L1029.24 581.074L1024.84 576.633L1020.48 572.601L1016.15 568.968L1011.86 565.724L1007.61 562.86L1003.39 560.368L999.209 558.242L995.067 556.474L990.963 555.06L986.896 553.995L982.869 553.274L978.88 552.895L974.93 552.855L971.019 553.153L967.148 553.787L963.316 554.756L959.525 556.062L949.913 561.047" stroke="white" stroke-width="2" stroke-linecap="square" stroke-linejoin="bevel"/>
<path d="M1114.72 716.699L1109.93 703.083L1105.14 690.213L1100.36 678.06L1095.6 666.595L1090.86 655.793L1086.14 645.629L1081.43 636.078L1076.75 627.117L1072.09 618.726L1067.46 610.882L1062.86 603.567L1058.28 596.762L1053.74 590.45L1049.22 584.614L1044.74 579.241L1040.28 574.314L1035.86 569.822L1031.48 565.752L1027.13 562.093L1022.81 558.835L1018.53 555.968L1014.28 553.485L1010.08 551.378L1005.9 549.64L1001.77 548.265L997.673 547.25L993.614 546.589L989.593 546.279L985.611 546.319L981.667 546.707L977.763 547.441L973.897 548.522L970.071 549.951L966.285 551.728L958.029 556.662" stroke="white" stroke-width="2" stroke-linecap="square" stroke-linejoin="bevel"/>
<path d="M1125.72 713.592L1120.94 699.438L1116.17 686.076L1111.41 673.476L1106.66 661.607L1101.92 650.44L1097.19 639.946L1092.49 630.099L1087.8 620.874L1083.14 612.247L1078.5 604.196L1073.88 596.698L1069.29 589.733L1064.73 583.284L1060.2 577.331L1055.69 571.859L1051.22 566.852L1046.78 562.295L1042.37 558.177L1037.99 554.484L1033.65 551.206L1029.35 548.333L1025.07 545.857L1020.84 543.768L1016.64 542.06L1012.47 540.728L1008.34 539.767L1004.25 539.172L1000.2 538.939L996.187 539.068L992.21 539.557L988.272 540.405L984.373 541.612L980.512 543.18L976.691 545.111L967.128 551.206" stroke="white" stroke-width="2" stroke-linecap="square" stroke-linejoin="bevel"/>
<path d="M1136.57 710.528L1131.82 695.75L1127.07 681.82L1122.32 668.704L1117.58 656.368L1112.85 644.779L1108.13 633.906L1103.43 623.719L1098.74 614.19L1094.07 605.293L1089.42 597.003L1084.79 589.295L1080.19 582.148L1075.62 575.541L1071.07 569.453L1066.54 563.868L1062.05 558.768L1057.59 554.137L1053.16 549.962L1048.76 546.23L1044.39 542.927L1040.06 540.045L1035.76 537.573L1031.5 535.502L1027.27 533.827L1023.07 532.54L1018.92 531.636L1014.79 531.111L1010.71 530.963L1006.66 531.189L1002.65 531.787L998.681 532.759L994.748 534.105L990.852 535.826L986.996 537.926L979.237 543.636" stroke="white" stroke-width="2" stroke-linecap="square" stroke-linejoin="bevel"/>
<path d="M1147.27 707.505L1142.55 692.023L1137.83 677.455L1133.1 663.76L1128.38 650.9L1123.66 638.84L1118.95 627.543L1114.25 616.976L1109.56 607.11L1104.89 597.913L1100.24 589.357L1095.6 581.417L1090.99 574.068L1086.4 567.286L1081.84 561.049L1077.3 555.339L1072.79 550.136L1068.3 545.423L1063.85 541.185L1059.43 537.408L1055.04 534.078L1050.68 531.183L1046.35 528.715L1042.06 526.663L1037.8 525.02L1033.58 523.78L1029.39 522.937L1025.24 522.487L1021.12 522.428L1017.04 522.756L1013 523.473L1009 524.577L1005.03 526.07L1001.1 527.956L997.206 530.237L993.353 532.919L989.539 536.007L985.765 539.508" stroke="white" stroke-width="2" stroke-linecap="square" stroke-linejoin="bevel"/>
<path d="M1157.83 704.521L1153.15 688.263L1148.46 672.991L1143.76 658.66L1139.06 645.226L1134.36 632.649L1129.66 620.889L1124.96 609.909L1120.28 599.675L1115.61 590.152L1110.95 581.309L1106.31 573.118L1101.69 565.55L1097.09 558.579L1092.51 552.183L1087.96 546.339L1083.43 541.025L1078.92 536.224L1074.45 531.918L1070.01 528.092L1065.59 524.732L1061.21 521.824L1056.86 519.359L1052.54 517.326L1048.25 515.717L1044 514.526L1039.78 513.746L1035.6 513.374L1031.45 513.407L1027.34 513.843L1023.26 514.682L1019.22 515.926L1015.22 517.575L1011.25 519.634L1007.33 522.107L1003.44 525L999.586 528.32" stroke="white" stroke-width="2" stroke-linecap="square" stroke-linejoin="bevel"/>
<path d="M1168.26 701.577L1163.62 684.477L1158.97 668.442L1154.3 653.422L1149.62 639.369L1144.94 626.236L1140.25 613.978L1135.57 602.555L1130.89 591.927L1126.22 582.057L1121.56 572.908L1116.92 564.45L1112.29 556.651L1107.68 549.482L1103.09 542.916L1098.52 536.93L1093.97 531.501L1089.45 526.607L1084.96 522.23L1080.49 518.353L1076.06 514.961L1071.65 512.04L1067.27 509.577L1062.92 507.563L1058.61 505.989L1054.33 504.848L1050.08 504.133L1045.87 503.842L1041.69 503.97L1037.54 504.518L1033.43 505.484L1029.36 506.871L1025.32 508.682L1021.32 510.92L1017.36 513.593L1013.43 516.706L1009.54 520.268" stroke="white" stroke-width="2" stroke-linecap="square" stroke-linejoin="bevel"/>
<path d="M1178.54 698.673L1173.96 680.669L1169.35 663.818L1164.72 648.064L1160.07 633.35L1155.41 619.626L1150.74 606.841L1146.07 594.95L1141.41 583.906L1136.74 573.67L1132.08 564.201L1127.44 555.463L1122.8 547.422L1118.18 540.046L1113.58 533.305L1109 527.173L1104.44 521.623L1099.9 516.634L1095.39 512.184L1090.9 508.255L1086.44 504.83L1082 501.895L1077.6 499.435L1073.23 497.441L1068.89 495.903L1064.58 494.812L1060.3 494.165L1056.05 493.955L1051.84 494.181L1047.67 494.842L1043.52 495.939L1039.42 497.473L1035.34 499.449L1031.31 501.872L1027.31 504.749L1023.35 508.089L1019.42 511.902" stroke="white" stroke-width="2" stroke-linecap="square" stroke-linejoin="bevel"/>
<path d="M1188.69 695.805L1184.17 676.843L1179.61 659.128L1175.02 642.597L1170.41 627.188L1165.78 612.842L1161.13 599.505L1156.48 587.123L1151.82 575.646L1147.16 565.029L1142.51 555.228L1137.86 546.201L1133.22 537.91L1128.59 530.321L1123.98 523.4L1119.39 517.118L1114.81 511.446L1110.26 506.359L1105.73 501.836L1101.22 497.854L1096.74 494.397L1092.28 491.447L1087.85 488.991L1083.45 487.017L1079.08 485.515L1074.74 484.477L1070.44 483.897L1066.16 483.771L1061.92 484.095L1057.71 484.871L1053.53 486.099L1049.39 487.783L1045.28 489.927L1041.21 492.537L1037.18 495.623L1033.18 499.194L1029.21 503.263" stroke="white" stroke-width="2" stroke-linecap="square" stroke-linejoin="bevel"/>
<path d="M1198.71 692.975L1194.26 673.004L1189.75 654.383L1185.21 637.039L1180.64 620.904L1176.04 605.911L1171.42 591.999L1166.78 579.108L1162.14 567.184L1157.49 556.175L1152.84 546.031L1148.19 536.708L1143.55 528.162L1138.92 520.356L1134.3 513.252L1129.69 506.818L1125.11 501.023L1120.53 495.839L1115.98 491.241L1111.46 487.208L1106.95 483.718L1102.47 480.755L1098.02 478.303L1093.6 476.35L1089.2 474.885L1084.83 473.9L1080.5 473.388L1076.19 473.345L1071.92 473.769L1067.68 474.66L1063.47 476.021L1059.29 477.855L1055.15 480.167L1051.04 482.967L1046.97 486.264L1042.93 490.069L1038.93 494.397" stroke="white" stroke-width="2" stroke-linecap="square" stroke-linejoin="bevel"/>
<path d="M1208.6 690.181L1204.22 669.16L1199.78 649.595L1195.29 631.407L1190.76 614.519L1186.19 598.857L1181.6 584.352L1176.99 570.939L1172.36 558.556L1167.73 547.145L1163.08 536.652L1158.44 527.027L1153.8 518.224L1149.16 510.198L1144.53 502.91L1139.92 496.324L1135.32 490.405L1130.73 485.124L1126.16 480.453L1121.62 476.368L1117.09 472.848L1112.59 469.872L1108.11 467.426L1103.66 465.494L1099.24 464.067L1094.85 463.134L1090.48 462.69L1086.15 462.731L1081.84 463.255L1077.57 464.262L1073.32 465.755L1069.11 467.738L1064.94 470.22L1060.79 473.209L1056.68 476.717L1052.61 480.758L1049.14 484.528" stroke="white" stroke-width="2" stroke-linecap="square" stroke-linejoin="bevel"/>
<path d="M1218.37 687.424L1214.06 665.314L1209.69 644.774L1205.25 625.716L1200.77 608.053L1196.25 591.704L1191.69 576.593L1187.1 562.645L1182.5 549.795L1177.87 537.976L1173.24 527.13L1168.6 517.201L1163.96 508.138L1159.32 499.892L1154.69 492.42L1150.06 485.682L1145.45 479.641L1140.85 474.264L1136.26 469.522L1131.7 465.387L1127.15 461.836L1122.63 458.849L1118.13 456.409L1113.66 454.5L1109.21 453.11L1104.78 452.231L1100.39 451.855L1096.02 451.98L1091.69 452.602L1087.38 453.723L1083.11 455.348L1078.86 457.48L1074.65 460.13L1070.47 463.308L1066.32 467.027L1062.21 471.303L1058.83 474.776" stroke="white" stroke-width="2" stroke-linecap="square" stroke-linejoin="bevel"/>
<path d="M1228.01 684.7L1223.79 661.47L1219.48 639.93L1215.11 619.98L1210.68 601.526L1206.2 584.477L1201.68 568.748L1197.12 554.259L1192.54 540.935L1187.93 528.705L1183.31 517.504L1178.68 507.27L1174.04 497.946L1169.39 489.481L1164.76 481.827L1160.12 474.939L1155.5 468.777L1150.88 463.307L1146.29 458.494L1141.7 454.311L1137.14 450.732L1132.59 447.735L1128.07 445.302L1123.57 443.416L1119.1 442.064L1114.65 441.238L1110.22 440.931L1105.83 441.137L1101.46 441.857L1097.12 443.092L1092.82 444.846L1088.54 447.126L1084.29 449.942L1080.08 453.307L1075.89 457.235L1071.74 461.745L1068.32 465.219" stroke="white" stroke-width="2" stroke-linecap="square" stroke-linejoin="bevel"/>
<path d="M1237.53 682.011L1233.4 657.638L1229.17 635.077L1224.87 614.219L1220.49 594.96L1216.06 577.201L1211.58 560.849L1207.05 545.813L1202.49 532.013L1197.9 519.371L1193.29 507.814L1188.67 497.276L1184.03 487.694L1179.39 479.012L1174.75 471.177L1170.1 464.142L1165.47 457.863L1160.84 452.301L1156.23 447.421L1151.63 443.191L1147.05 439.586L1142.48 436.581L1137.94 434.155L1133.41 432.292L1128.91 430.98L1124.44 430.206L1119.99 429.966L1115.56 430.254L1111.17 431.07L1106.8 432.416L1102.46 434.298L1098.14 436.723L1093.86 439.703L1089.61 443.252L1085.39 447.386L1081.2 452.127" stroke="white" stroke-width="2" stroke-linecap="square" stroke-linejoin="bevel"/>
<path d="M1246.93 679.357L1242.89 653.822L1238.75 630.226L1234.52 608.45L1230.2 588.379L1225.82 569.905L1221.38 552.924L1212.35 523.065L1207.78 510.011L1203.19 498.101L1198.57 487.261L1193.94 477.424L1189.3 468.528L1184.65 460.516L1180.01 453.337L1175.36 446.943L1170.73 441.292L1166.1 436.348L1161.48 432.075L1156.88 428.445L1152.29 425.432L1147.73 423.016L1143.18 421.177L1138.66 419.903L1134.15 419.182L1129.68 419.008L1125.22 419.376L1120.8 420.286L1116.39 421.742L1112.02 423.748L1107.68 426.315L1103.36 429.456L1099.07 433.185L1094.81 437.522L1090.58 442.491" stroke="white" stroke-width="2" stroke-linecap="square" stroke-linejoin="bevel"/>
<path d="M1256.21 676.735L1252.28 650.026L1248.22 625.387L1244.06 602.687L1239.81 581.801L1235.48 562.61L1231.08 545.003L1226.63 528.874L1222.12 514.124L1217.58 500.662L1213 488.402L1208.39 477.264L1203.77 467.176L1199.13 458.07L1194.48 449.886L1189.83 442.567L1185.18 436.062L1180.53 430.327L1175.89 425.32L1171.25 421.006L1166.64 417.353L1162.03 414.335L1157.44 411.929L1152.87 410.115L1148.32 408.879L1143.8 408.21L1139.29 408.101L1134.81 408.547L1130.35 409.55L1125.92 411.111L1121.52 413.24L1117.14 415.945L1112.79 419.242L1108.46 423.147L1104.17 427.683L1099.9 432.874" stroke="white" stroke-width="2" stroke-linecap="square" stroke-linejoin="bevel"/>
<path d="M1265.38 674.145L1261.55 646.26L1257.59 620.576L1253.51 596.952L1249.32 575.252L1245.05 555.347L1240.7 537.116L1236.28 520.445L1231.8 505.227L1227.28 491.362L1222.72 478.757L1218.13 467.328L1213.51 456.994L1208.87 447.684L1204.23 439.332L1199.57 431.878L1194.91 425.267L1190.25 419.45L1185.6 414.385L1180.95 410.032L1176.31 406.359L1171.69 403.337L1167.08 400.941L1162.49 399.153L1157.92 397.955L1153.36 397.337L1148.83 397.291L1144.32 397.814L1139.84 398.906L1135.38 400.571L1130.94 402.818L1126.53 405.657L1122.14 409.106L1117.78 413.183L1113.45 417.912" stroke="white" stroke-width="2" stroke-linecap="square" stroke-linejoin="bevel"/>
<path d="M1274.43 671.588L1270.71 642.528L1266.85 615.803L1262.85 591.26L1258.73 568.752L1254.52 548.14L1250.22 529.293L1245.84 512.087L1241.4 496.408L1236.9 482.148L1232.36 469.206L1227.78 457.492L1223.17 446.92L1218.54 437.412L1213.89 428.898L1209.23 421.313L1204.56 414.6L1199.89 408.707L1195.23 403.586L1190.57 399.198L1185.91 395.507L1181.27 392.482L1176.64 390.098L1172.03 388.334L1167.43 387.175L1162.86 386.606L1158.3 386.623L1153.76 387.22L1149.25 388.398L1144.76 390.163L1140.29 392.524L1135.84 395.494L1131.42 399.089L1127.03 403.332L1122.66 408.248" stroke="white" stroke-width="2" stroke-linecap="square" stroke-linejoin="bevel"/>
<path d="M1283.38 669.061L1279.77 638.836L1276 611.08L1272.09 585.628L1268.05 562.323L1263.89 541.015L1259.64 521.562L1255.31 503.832L1250.9 487.702L1246.43 473.055L1241.9 459.786L1237.34 447.795L1232.74 436.992L1228.11 427.293L1223.47 418.624L1218.8 410.915L1214.13 404.105L1209.45 398.138L1204.78 392.966L1200.1 388.545L1195.43 384.838L1190.78 381.812L1186.13 379.441L1181.49 377.703L1176.87 376.58L1172.27 376.061L1167.69 376.137L1163.13 376.805L1158.58 378.068L1154.06 379.929L1149.56 382.4L1145.09 385.494L1140.63 389.231L1136.2 393.633L1131.8 398.73" stroke="white" stroke-width="2" stroke-linecap="square" stroke-linejoin="bevel"/>
<path d="M1292.21 666.565L1288.73 635.192L1285.06 606.422L1281.23 580.077L1277.26 555.99L1273.17 533.999L1268.97 513.954L1264.68 495.713L1260.31 479.144L1255.86 464.123L1251.36 450.536L1246.81 438.278L1242.22 427.253L1237.6 417.372L1232.96 408.554L1228.29 400.727L1223.62 393.825L1218.93 387.79L1214.24 382.57L1209.56 378.119L1204.87 374.398L1200.2 371.372L1195.53 369.014L1190.88 367.301L1186.24 366.215L1181.61 365.743L1177 365.878L1172.41 366.615L1167.84 367.958L1163.29 369.911L1158.77 372.487L1154.26 375.701L1149.77 379.573L1145.31 384.129L1140.86 389.399" stroke="white" stroke-width="2" stroke-linecap="square" stroke-linejoin="bevel"/>
<path d="M1300.94 664.1L1286.38 549.772L1282.36 527.117L1278.21 506.497L1273.96 487.76L1269.62 470.766L1265.21 455.384L1260.73 441.492L1256.2 428.978L1251.62 417.74L1247.01 407.685L1242.36 398.726L1237.7 390.787L1233.02 383.799L1228.32 377.701L1223.63 372.436L1218.93 367.959L1214.23 364.225L1209.54 361.202L1204.85 358.858L1200.18 357.17L1195.52 356.119L1190.87 355.693L1186.24 355.884L1181.62 356.687L1177.03 358.106L1172.45 360.148L1167.89 362.825L1163.35 366.152L1158.83 370.154L1154.33 374.856" stroke="white" stroke-width="2" stroke-linecap="square" stroke-linejoin="bevel"/>
<path d="M1309.57 661.664L1299.22 569.28L1295.4 543.691L1291.44 520.394L1287.35 499.218L1283.15 480.004L1278.85 462.603L1274.46 446.874L1270.01 432.69L1265.49 419.932L1260.93 408.492L1256.32 398.271L1251.68 389.179L1247.01 381.136L1242.33 374.068L1237.63 367.91L1232.92 362.606L1228.21 358.104L1223.5 354.361L1218.79 351.34L1214.09 349.011L1209.4 347.348L1204.72 346.332L1200.05 345.95L1195.39 346.194L1190.76 347.061L1186.13 348.553L1181.53 350.678L1176.94 353.45L1172.37 356.886L1167.82 361.01L1163.29 365.85" stroke="white" stroke-width="2" stroke-linecap="square" stroke-linejoin="bevel"/>
<path d="M1318.09 659.258L1308.06 564.069L1304.32 537.768L1300.43 513.854L1296.39 492.146L1292.24 472.475L1287.98 454.684L1283.62 438.625L1279.19 424.163L1274.69 411.174L1270.14 399.543L1265.54 389.167L1260.9 379.951L1256.24 371.811L1251.55 364.668L1246.85 358.457L1242.13 353.116L1237.41 348.593L1232.69 344.842L1227.96 341.826L1223.25 339.511L1218.54 337.872L1213.83 336.89L1209.14 336.551L1204.47 336.846L1199.8 337.772L1195.16 339.333L1190.52 341.538L1185.91 344.399L1181.31 347.937L1171.57 357.732" stroke="white" stroke-width="2" stroke-linecap="square" stroke-linejoin="bevel"/>
<path d="M1326.51 656.879L1316.8 559L1313.14 532.019L1309.32 507.516L1305.34 485.301L1301.23 465.196L1297.01 447.036L1292.68 430.665L1288.28 415.941L1283.8 402.735L1279.26 390.926L1274.67 380.405L1270.03 371.073L1265.37 362.842L1260.68 355.632L1255.97 349.371L1251.25 343.998L1246.52 339.457L1241.78 335.7L1237.05 332.689L1232.31 330.39L1227.58 328.775L1222.86 327.826L1218.15 327.526L1213.45 327.869L1208.77 328.852L1204.1 330.478L1199.44 332.757L1194.79 335.702L1183.8 345.682" stroke="white" stroke-width="2" stroke-linecap="square" stroke-linejoin="bevel"/>
<path d="M1334.83 654.529L1325.44 554.091L1321.86 526.466L1318.1 501.405L1314.18 478.711L1310.12 458.197L1305.94 439.689L1301.65 423.025L1297.26 408.057L1292.8 394.648L1288.28 382.673L1283.7 372.018L1279.07 362.581L1274.41 354.267L1269.72 346.995L1265 340.69L1260.27 335.288L1255.53 330.732L1250.78 326.972L1246.04 323.967L1241.29 321.682L1236.54 320.091L1231.8 319.173L1227.07 318.912L1222.35 319.301L1217.65 320.337L1212.95 322.023L1208.27 324.371L1203.6 327.395L1198.94 331.117L1192.91 337.238" stroke="white" stroke-width="2" stroke-linecap="square" stroke-linejoin="bevel"/>
<path d="M1343.05 652.206L1333.98 549.355L1330.49 521.123L1326.79 495.539L1322.93 472.397L1318.91 451.5L1314.77 432.668L1310.51 415.732L1306.15 400.537L1301.71 386.941L1297.2 374.813L1292.63 364.035L1288.01 354.501L1283.35 346.113L1278.65 338.785L1273.94 332.442L1269.2 327.015L1264.45 322.446L1259.69 318.684L1254.93 315.686L1250.17 313.417L1245.41 311.849L1240.66 310.96L1235.91 310.735L1231.17 311.167L1226.44 312.252L1221.72 313.995L1217.01 316.406L1212.32 319.503L1207.63 323.307L1202.96 327.849" stroke="white" stroke-width="2" stroke-linecap="square" stroke-linejoin="bevel"/>
<path d="M1351.18 649.91L1342.43 544.802L1339.01 516.005L1335.38 489.936L1331.57 466.377L1327.6 445.126L1323.5 425.995L1319.27 408.808L1314.94 393.405L1310.52 379.638L1306.02 367.371L1301.46 356.482L1296.84 346.86L1292.19 338.406L1287.49 331.029L1282.77 324.652L1278.03 319.204L1273.27 314.625L1268.51 310.863L1263.73 307.874L1258.96 305.62L1254.18 304.074L1249.41 303.213L1244.65 303.022L1239.89 303.493L1235.14 304.624L1230.4 306.419L1225.67 308.89L1220.95 312.053L1216.24 315.932L1211.54 320.559" stroke="white" stroke-width="2" stroke-linecap="square" stroke-linejoin="bevel"/>
<path d="M1359.21 647.643L1350.77 540.447L1347.43 511.129L1343.86 484.612L1340.11 460.671L1336.19 439.096L1332.12 419.692L1327.92 402.277L1323.62 386.685L1319.22 372.763L1314.73 360.372L1310.18 349.383L1305.58 339.684L1300.92 331.171L1296.23 323.752L1291.51 317.346L1286.76 311.882L1282 307.296L1277.22 303.535L1272.44 300.554L1267.65 298.316L1262.86 296.791L1258.07 295.957L1253.29 295.798L1248.52 296.305L1243.75 297.478L1238.98 299.32L1234.23 301.844L1229.49 305.068L1224.76 309.016L1220.03 313.72" stroke="white" stroke-width="2" stroke-linecap="square" stroke-linejoin="bevel"/>
</svg>
