<svg width="1920" height="1080" viewBox="0 0 1920 1080" fill="none" xmlns="http://www.w3.org/2000/svg">
<path d="M759.938 778.736C762.904 780.031 765.87 781.327 770.65 783.368C775.429 785.409 782.022 788.197 790.405 790.624C798.789 793.052 808.964 795.119 819.22 796.613C829.476 798.107 839.812 799.027 850.184 799.29C860.556 799.552 870.964 799.158 881.244 797.912C891.523 796.667 901.674 794.569 911.757 792.128C921.84 789.687 931.856 786.901 939.948 783.658C948.041 780.415 954.211 776.715 958.64 773.967C963.07 771.22 965.758 769.425 968.446 767.631" stroke="white" stroke-width="1.33333" stroke-linecap="round" stroke-linejoin="round"/>
<path d="M1017.98 720.453C1016.13 722.855 1014.29 725.257 1010.97 728.805C1007.66 732.354 1002.87 737.049 996.402 742.045C989.934 747.041 981.783 752.337 973.248 756.907C964.714 761.476 955.796 765.32 946.704 768.7C937.613 772.08 928.347 774.997 918.908 777.168C909.468 779.34 899.854 780.766 890.212 781.819C880.57 782.872 870.901 783.552 861.223 783.743C851.546 783.935 841.861 783.638 832.187 782.99C822.513 782.342 812.851 781.341 803.324 779.609C793.798 777.877 784.407 775.413 775.094 772.685C765.781 769.956 756.547 766.962 747.698 763.066C738.849 759.17 730.387 754.372 723.571 749.876C716.755 745.38 711.584 741.186 707.961 737.975C704.338 734.765 702.262 732.538 700.186 730.312" stroke="white" stroke-width="1.33333" stroke-linecap="round" stroke-linejoin="round"/>
<path d="M661.906 661.223C675.042 702.682 701.173 738.813 736.433 764.271C771.694 789.73 814.212 803.164 857.698 802.586C901.185 802.009 943.332 787.451 977.904 761.065C1012.48 734.68 1037.64 697.868 1049.67 656.074" stroke="white" stroke-width="1.33333" stroke-linecap="round" stroke-linejoin="round"/>
<path d="M982.843 756.717C980.049 758.573 977.256 760.43 972.695 763.3C968.135 766.17 961.808 770.053 953.507 773.641C945.206 777.228 934.931 780.52 924.554 783.333C914.176 786.146 903.696 788.481 893.085 790.102C882.474 791.724 871.732 792.633 860.983 792.879C850.235 793.126 839.48 792.711 828.783 791.658C818.087 790.605 807.449 788.914 796.967 786.568C786.484 784.222 776.158 781.221 766.138 777.368C756.118 773.515 746.405 768.81 738.617 764.19C730.829 759.57 724.967 755.036 720.828 751.598C716.69 748.16 714.276 745.818 711.862 743.477" stroke="white" stroke-width="1.33333" stroke-linecap="round" stroke-linejoin="round"/>
<path d="M1050.57 651.755C1050.26 653.808 1049.94 655.861 1048.61 658.996C1047.28 662.131 1044.92 666.348 1041.72 671.173C1038.51 675.998 1034.46 681.431 1029.89 686.429C1025.33 691.427 1020.24 695.99 1014.91 700.208C1009.58 704.425 1004 708.298 998.216 711.857C992.434 715.416 986.451 718.662 980.314 721.575C974.177 724.487 967.886 727.066 961.512 729.426C955.138 731.786 948.68 733.927 942.152 735.799C935.625 737.671 929.027 739.274 922.375 740.649C915.722 742.024 909.015 743.172 902.293 744.135C895.57 745.098 888.832 745.877 882.068 746.466C875.304 747.055 868.513 747.455 861.718 747.592C854.922 747.729 848.121 747.603 841.338 747.265C834.556 746.927 827.793 746.377 821.026 745.773C814.259 745.168 807.488 744.509 800.79 743.403C794.091 742.296 787.465 740.743 780.863 739.119C774.261 737.495 767.684 735.8 761.171 733.884C754.658 731.968 748.208 729.831 741.902 727.308C735.596 724.784 729.433 721.874 723.429 718.702C717.425 715.529 711.58 712.094 705.824 708.452C700.069 704.811 694.403 700.963 689.336 696.481C684.269 691.999 679.8 686.884 675.468 681.589C671.136 676.294 666.939 670.82 664.274 665.856C661.608 660.893 660.472 656.441 659.593 653.132C658.714 649.823 658.091 647.657 657.468 645.49" stroke="white" stroke-width="1.33333" stroke-linecap="round" stroke-linejoin="round"/>
<path d="M1041.37 678.117C1042.57 678.196 1043.77 678.274 1045.56 678.383C1047.36 678.492 1049.75 678.631 1052.74 678.882C1055.73 679.134 1059.32 679.497 1062.91 679.523C1066.5 679.548 1070.09 679.235 1073.69 679.024C1077.28 678.813 1080.87 678.703 1084.46 678.517C1088.05 678.33 1091.64 678.066 1095.19 677.583C1098.75 677.101 1102.29 676.4 1105.82 675.718C1109.36 675.035 1112.89 674.37 1116.41 673.624C1119.92 672.878 1123.42 672.051 1126.92 671.195C1130.41 670.338 1133.9 669.451 1137.32 668.347C1140.74 667.243 1144.09 665.922 1147.41 664.531C1150.73 663.14 1154.02 661.678 1157.23 660.059C1160.44 658.441 1163.57 656.665 1166.69 654.871C1169.8 653.077 1172.91 651.265 1175.9 649.281C1178.9 647.297 1181.78 645.142 1184.26 643.378C1186.73 641.614 1188.8 640.24 1190.26 639.192C1191.72 638.143 1192.58 637.419 1193.43 636.695" stroke="white" stroke-width="1.33333" stroke-linecap="round" stroke-linejoin="round"/>
<path d="M681.71 704.83C682.852 706.568 683.993 708.306 686.103 710.849C688.212 713.392 691.29 716.74 695.359 720.544C699.429 724.347 704.491 728.606 709.832 732.491C715.173 736.376 720.794 739.888 726.574 743.105C732.354 746.323 738.292 749.246 744.354 751.884C750.416 754.523 756.602 756.876 762.852 759.056C769.101 761.235 775.415 763.239 781.841 764.776C788.266 766.313 794.803 767.382 801.325 768.525C807.847 769.667 814.353 770.883 820.918 771.643C827.483 772.403 834.107 772.707 840.723 772.892C847.34 773.077 853.948 773.142 860.557 773.048C867.166 772.954 873.775 772.701 880.376 772.239C886.977 771.777 893.57 771.107 900.108 770.129C906.645 769.151 913.128 767.864 919.566 766.371C926.004 764.879 932.397 763.179 938.779 761.415C945.161 759.651 951.531 757.822 957.715 755.493C963.898 753.164 969.894 750.336 975.759 747.284C981.625 744.233 987.358 740.958 992.991 737.477C998.624 733.996 1004.16 730.307 1009.1 725.947C1014.05 721.587 1018.42 716.555 1022.1 712.258C1025.79 707.962 1028.79 704.402 1030.66 701.676C1032.53 698.951 1033.26 697.06 1033.99 695.17" stroke="white" stroke-width="1.33333" stroke-linecap="round" stroke-linejoin="round"/>
<path d="M1230.18 596.98C1229.42 598.17 1228.66 599.359 1227.31 601.163C1225.95 602.967 1224.01 605.386 1221.42 608.169C1218.83 610.952 1215.59 614.098 1212.22 617.089C1208.84 620.079 1205.33 622.914 1201.7 625.57C1198.06 628.227 1194.29 630.704 1190.43 633.037C1186.58 635.37 1182.63 637.557 1178.58 639.549C1174.53 641.541 1170.39 643.337 1166.2 645.014C1162.01 646.69 1157.78 648.247 1153.52 649.731C1149.27 651.216 1144.98 652.627 1140.66 653.919C1136.34 655.21 1131.98 656.381 1127.58 657.338C1123.17 658.295 1118.72 659.038 1114.26 659.725C1109.8 660.412 1105.33 661.043 1100.87 661.661C1096.4 662.28 1091.93 662.886 1087.44 663.17C1082.94 663.453 1078.42 663.415 1073.91 663.587C1069.4 663.759 1064.9 664.141 1061.05 663.947C1057.19 663.752 1053.99 662.98 1051.74 662.809C1049.5 662.637 1048.22 663.066 1046.94 663.495" stroke="white" stroke-width="1.33333" stroke-linecap="round" stroke-linejoin="round"/>
<path d="M1050.31 653.12C1051.85 653.112 1053.4 653.104 1055.72 653.065C1058.03 653.026 1061.12 652.956 1064.99 653.062C1068.85 653.168 1073.49 653.449 1078.12 653.256C1082.74 653.062 1087.34 652.393 1091.96 651.91C1096.57 651.428 1101.2 651.132 1105.8 650.629C1110.41 650.127 1115 649.419 1119.55 648.541C1124.1 647.664 1128.62 646.619 1133.12 645.531C1137.63 644.443 1142.12 643.313 1146.62 642.166C1151.11 641.018 1155.61 639.852 1160 638.386C1164.39 636.919 1168.67 635.152 1172.93 633.307C1177.18 631.463 1181.4 629.541 1185.55 627.465C1189.69 625.389 1193.76 623.159 1197.72 620.762C1201.68 618.366 1205.53 615.803 1209.38 613.205C1213.23 610.607 1217.07 607.973 1220.55 604.926C1224.03 601.879 1227.14 598.418 1230.08 594.829C1233.02 591.24 1235.79 587.522 1238.01 584.305C1240.23 581.087 1241.91 578.369 1243.04 576.351C1244.18 574.332 1244.78 573.013 1245.39 571.693" stroke="white" stroke-width="1.33333" stroke-linecap="round" stroke-linejoin="round"/>
<path d="M1051.95 646.271C1053.1 645.404 1054.26 644.538 1056.3 643.48C1058.34 642.422 1061.27 641.172 1065.03 640.781C1068.79 640.389 1073.39 640.856 1077.96 640.807C1082.53 640.758 1087.07 640.194 1091.63 639.842C1096.19 639.49 1100.76 639.35 1105.29 638.825C1109.83 638.3 1114.31 637.389 1118.8 636.496C1123.28 635.603 1127.76 634.727 1132.25 633.878C1136.74 633.028 1141.24 632.206 1145.66 631.063C1150.08 629.921 1154.41 628.459 1158.73 626.957C1163.05 625.455 1167.35 623.913 1171.6 622.256C1175.86 620.599 1180.07 618.826 1184.22 616.935C1188.38 615.043 1192.48 613.032 1196.51 610.885C1200.53 608.738 1204.49 606.456 1208.35 604.01C1212.22 601.565 1215.98 598.956 1219.57 596.13C1223.15 593.304 1226.55 590.259 1229.94 587.18C1233.33 584.102 1236.71 580.989 1239.59 577.465C1242.46 573.94 1244.84 570.005 1246.77 566.661C1248.71 563.316 1250.21 560.564 1251.27 558.543C1252.32 556.523 1252.94 555.236 1253.57 553.949" stroke="white" stroke-width="1.33333" stroke-linecap="round" stroke-linejoin="round"/>
<path d="M669.272 680.095C670.048 681.921 670.825 683.748 672.505 686.382C674.185 689.017 676.769 692.459 680.17 696.482C683.57 700.506 687.787 705.111 692.286 709.463C696.785 713.815 701.566 717.913 706.669 721.551C711.773 725.189 717.198 728.366 722.752 731.276C728.306 734.187 733.988 736.83 739.778 739.224C745.569 741.619 751.468 743.763 757.429 745.7C763.39 747.636 769.413 749.364 775.455 751.045C781.497 752.726 787.557 754.361 793.708 755.519C799.859 756.677 806.1 757.358 812.321 758.185C818.543 759.012 824.744 759.985 830.987 760.464C837.229 760.942 843.512 760.927 849.779 760.954C856.046 760.982 862.297 761.052 868.554 760.851C874.811 760.65 881.073 760.177 887.309 759.522C893.546 758.866 899.755 758.027 905.935 756.999C912.115 755.97 918.266 754.752 924.4 753.449C930.533 752.147 936.649 750.761 942.655 748.989C948.661 747.217 954.557 745.06 960.394 742.769C966.232 740.478 972.01 738.053 977.668 735.356C983.326 732.658 988.862 729.688 994.189 726.403C999.517 723.118 1004.63 719.517 1009.65 715.73C1014.66 711.944 1019.56 707.971 1023.87 703.461C1028.19 698.951 1031.92 693.903 1034.84 689.487C1037.76 685.07 1039.87 681.284 1041.26 678.473C1042.66 675.663 1043.34 673.827 1044.02 671.992" stroke="white" stroke-width="1.33333" stroke-linecap="round" stroke-linejoin="round"/>
<path d="M1261.38 529.879C1260.94 531.209 1260.5 532.54 1259.65 534.595C1258.79 536.651 1257.51 539.431 1256.03 542.929C1254.56 546.426 1252.88 550.64 1250.44 554.348C1247.99 558.055 1244.78 561.257 1241.67 564.5C1238.57 567.744 1235.56 571.03 1232.32 574.092C1229.08 577.153 1225.61 579.989 1222.04 582.696C1218.48 585.402 1214.82 587.978 1211.03 590.357C1207.25 592.735 1203.34 594.916 1199.37 596.994C1195.41 599.072 1191.4 601.047 1187.33 602.886C1183.26 604.725 1179.13 606.43 1174.97 608.076C1170.81 609.721 1166.63 611.308 1162.37 612.673C1158.11 614.038 1153.79 615.181 1149.5 616.45C1145.2 617.718 1140.94 619.112 1136.59 620.115C1132.24 621.117 1127.81 621.727 1123.38 622.386C1118.96 623.044 1114.54 623.749 1110.12 624.368C1105.69 624.986 1101.25 625.517 1096.8 625.959C1092.35 626.401 1087.89 626.753 1083.42 626.934C1078.96 627.115 1074.49 627.124 1070.02 627.486C1065.55 627.848 1061.06 628.564 1058.35 630.638C1055.63 632.712 1054.68 636.144 1053.97 638.519C1053.26 640.893 1052.8 642.21 1052.33 643.526" stroke="white" stroke-width="1.33333" stroke-linecap="round" stroke-linejoin="round"/>
<path d="M658.974 548.036C658.473 551.429 657.972 554.821 657.278 560.429C656.584 566.036 655.697 573.857 657.903 582.792C660.11 591.726 665.41 601.773 671.919 610.799C678.428 619.825 686.145 627.828 694.793 634.698C703.44 641.568 713.018 647.305 722.886 652.395C732.755 657.485 742.913 661.929 753.382 665.514C763.85 669.099 774.628 671.824 785.477 674.099C796.327 676.374 807.247 678.199 818.244 679.417C829.24 680.635 840.312 681.247 851.393 681.407C862.474 681.568 873.565 681.277 884.595 680.297C895.626 679.317 906.597 677.646 917.455 675.479C928.314 673.311 939.059 670.646 949.634 667.348C960.209 664.051 970.613 660.121 980.61 655.377C990.607 650.633 1000.2 645.074 1009.26 638.613C1018.32 632.152 1026.86 624.79 1033.75 616.243C1040.64 607.696 1045.89 597.964 1050.22 587.027C1054.54 576.091 1057.96 563.949 1066.2 559.566C1074.45 555.183 1087.54 558.558 1099.31 559.151C1111.09 559.743 1121.56 557.552 1132.2 555.004C1142.84 552.456 1153.64 549.55 1164.18 546.014C1174.71 542.477 1184.98 538.309 1194.88 533.342C1204.77 528.375 1214.3 522.61 1223.12 515.9C1231.93 509.19 1240.03 501.535 1246.8 492.69C1253.58 483.846 1259.03 473.813 1261.52 464.914C1264 456.015 1263.52 448.252 1263 442.667C1262.48 437.081 1261.93 433.674 1261.37 430.268" stroke="white" stroke-width="1.33333" stroke-linecap="round" stroke-linejoin="round"/>
<path d="M654.853 570.738C654.129 575.852 653.404 580.966 654.029 589.297C654.653 597.628 656.626 609.176 663.538 620.905C670.45 632.633 682.3 644.543 695.485 654.409C708.67 664.275 723.19 672.098 738.358 678.28C753.526 684.461 769.342 689.002 785.386 692.43C801.431 695.859 817.704 698.176 834.06 699.173C850.417 700.169 866.858 699.846 883.226 698.49C899.593 697.135 915.887 694.748 931.791 690.909C947.695 687.07 963.208 681.78 979.807 674.109C996.405 666.438 1014.09 656.386 1026.43 645.244C1038.77 634.102 1045.76 621.87 1051.26 608.418C1056.77 594.966 1060.78 580.294 1066.82 576.636C1072.86 572.978 1080.92 580.334 1099.56 579.509C1118.2 578.684 1147.43 569.677 1169.52 561.787C1191.62 553.896 1206.59 547.12 1220.27 537.865C1233.95 528.609 1246.33 516.873 1254.41 502.779C1262.48 488.686 1266.25 472.234 1266.36 458.479C1266.47 444.724 1262.92 433.665 1260.29 425.745C1257.66 417.825 1255.95 413.043 1254.23 408.262" stroke="white" stroke-width="1.33333" stroke-linecap="round" stroke-linejoin="round"/>
<path d="M1193.43 636.699C1192.59 637.384 1191.76 638.068 1190.31 639.033C1188.87 639.997 1186.8 641.241 1184.24 642.697C1181.69 644.153 1178.63 645.821 1175.59 647.511C1172.55 649.201 1169.52 650.912 1166.39 652.421C1163.27 653.931 1160.04 655.237 1156.78 656.439C1153.52 657.641 1150.22 658.738 1146.91 659.805C1143.6 660.872 1140.28 661.909 1136.94 662.854C1133.59 663.798 1130.22 664.65 1126.84 665.449C1123.45 666.248 1120.06 666.995 1116.67 667.791C1113.28 668.586 1109.9 669.43 1106.46 669.943C1103.03 670.457 1099.55 670.64 1096.08 670.916C1092.61 671.192 1089.16 671.56 1085.7 671.897C1082.24 672.235 1078.77 672.542 1075.3 672.646C1071.82 672.75 1068.35 672.65 1064.87 672.615C1061.39 672.581 1057.91 672.613 1054.98 672.569C1052.05 672.526 1049.66 672.407 1047.93 672.298C1046.19 672.189 1045.11 672.091 1044.03 671.992" stroke="white" stroke-width="1.33333" stroke-linecap="round" stroke-linejoin="round"/>
<path d="M1267.34 471.787C1267.34 476.506 1267.34 481.225 1266.37 488.887C1265.4 496.548 1263.45 507.153 1257 517.994C1250.56 528.834 1239.61 539.911 1227.62 549.317C1215.64 558.724 1202.62 566.46 1188.79 572.641C1174.95 578.823 1160.29 583.448 1141.17 587.985C1122.05 592.523 1098.46 596.973 1085.02 596.323C1071.57 595.673 1068.26 589.924 1063.28 598.306C1058.3 606.687 1051.64 629.2 1041.86 644.897C1032.07 660.595 1019.16 669.477 1006.02 677.398C992.891 685.319 979.543 692.279 965.504 697.781C951.465 703.283 936.736 707.327 921.851 710.311C906.965 713.295 891.923 715.218 876.808 716.168C861.692 717.117 846.502 717.091 831.388 716.038C816.273 714.984 801.234 712.901 786.417 709.791C771.601 706.682 757.008 702.546 742.857 697.151C728.707 691.755 715 685.101 702.375 676.73C689.751 668.36 678.209 658.272 670.099 648.325C661.988 638.378 657.308 628.571 654.973 621.291C652.639 614.011 652.65 609.259 652.661 604.506" stroke="white" stroke-width="1.33333" stroke-linecap="round" stroke-linejoin="round"/>
<path d="M726.362 443.774C722.442 446.396 718.522 449.017 712.656 454.491C706.79 459.965 698.978 468.292 695.268 480.792C691.558 493.292 691.95 509.966 697.815 523.994C703.68 538.022 715.018 549.404 727.592 558.594C740.167 567.784 753.979 574.782 768.427 580.084C782.875 585.386 797.959 588.993 813.222 591.382C828.485 593.771 843.927 594.944 859.352 594.748C874.777 594.553 890.185 592.989 905.384 590.076C920.583 587.163 935.573 582.9 949.697 576.81C963.82 570.719 977.078 562.801 989.139 553.061C1001.2 543.321 1012.06 531.76 1015.53 514.979C1018.99 498.197 1015.04 476.195 1022.74 469.465C1030.44 462.735 1049.78 471.277 1066.42 474.083C1083.06 476.889 1097 473.959 1111.67 470.712C1126.35 467.465 1141.75 463.902 1156.29 458.485C1170.83 453.069 1184.5 445.799 1196.56 435.979C1208.61 426.159 1219.05 413.788 1223.75 399.3C1228.44 384.813 1227.38 368.208 1222.67 356.05C1217.96 343.892 1209.59 336.18 1203.43 331.042C1197.26 325.905 1193.31 323.342 1189.36 320.779" stroke="white" stroke-width="1.33333" stroke-linecap="round" stroke-linejoin="round"/>
<path d="M699.633 470.548C696.796 473.352 693.959 476.157 690.189 481.544C686.419 486.93 681.715 494.9 680.005 505.525C678.294 516.151 679.577 529.433 684.296 541.272C689.016 553.111 697.174 563.506 706.696 572.168C716.218 580.83 727.104 587.759 738.557 593.476C750.009 599.193 762.027 603.699 774.298 607.361C786.57 611.023 799.095 613.84 811.76 615.758C824.425 617.675 837.231 618.691 850.043 618.864C862.856 619.037 875.675 618.367 888.401 616.944C901.127 615.52 913.759 613.344 926.185 610.134C938.612 606.924 950.833 602.68 962.358 597.257C973.883 591.834 984.713 585.231 995.286 577.645C1005.86 570.058 1016.18 561.487 1021.72 546.569C1027.26 531.651 1028.02 510.386 1033.64 501.077C1039.26 491.768 1049.73 494.415 1061.47 495.937C1073.2 497.458 1086.18 497.854 1098.98 496.829C1111.78 495.804 1124.39 493.359 1136.76 489.987C1149.13 486.615 1161.25 482.315 1172.88 476.972C1184.51 471.629 1195.63 465.243 1205.84 457.439C1216.04 449.634 1225.31 440.412 1231.59 429.271C1237.88 418.13 1241.17 405.07 1240.91 394.34C1240.64 383.61 1236.82 375.21 1233.75 369.413C1230.68 363.616 1228.35 360.421 1226.03 357.227" stroke="white" stroke-width="1.33333" stroke-linecap="round" stroke-linejoin="round"/>
<path d="M1246.31 391.127C1247.79 394.335 1249.28 397.542 1251.64 402.803C1254.01 408.063 1257.26 415.376 1258.01 424.882C1258.77 434.389 1257.03 446.089 1252.73 456.609C1248.44 467.13 1241.58 476.472 1233.63 484.646C1225.68 492.821 1216.62 499.828 1206.98 505.869C1197.34 511.91 1187.11 516.986 1176.59 521.335C1166.08 525.685 1155.29 529.309 1144.29 532.29C1133.3 535.271 1122.11 537.608 1110.8 538.862C1099.5 540.115 1088.07 540.284 1078.23 539.361C1068.4 538.438 1060.15 536.424 1054.24 544.48C1048.32 552.536 1044.73 570.663 1038.73 583.735C1032.73 596.808 1024.32 604.827 1015.45 612.062C1006.58 619.296 997.241 625.747 987.335 631.284C977.429 636.821 966.956 641.445 956.238 645.267C945.519 649.09 934.554 652.111 923.453 654.575C912.353 657.039 901.116 658.946 889.809 660.221C878.502 661.496 867.125 662.14 855.761 662.107C844.398 662.074 833.047 661.365 821.714 660.272C810.381 659.178 799.066 657.7 787.962 655.291C776.858 652.882 765.965 649.543 755.181 645.828C744.397 642.113 733.722 638.023 723.716 632.714C713.711 627.405 704.375 620.878 695.629 613.504C686.884 606.13 678.729 597.911 672.787 588.243C666.845 578.575 663.115 567.459 661.815 557.929C660.514 548.399 661.643 540.457 663.039 534.914C664.435 529.37 666.098 526.227 667.761 523.083" stroke="white" stroke-width="1.33333" stroke-linecap="round" stroke-linejoin="round"/>
<path d="M1230.4 363.535C1232.68 367.172 1234.97 370.809 1238.59 376.362C1242.22 381.916 1247.18 389.386 1249.32 399.875C1251.47 410.364 1250.79 423.871 1246.54 436.099C1242.29 448.327 1234.45 459.275 1225.1 468.376C1215.76 477.478 1204.89 484.732 1193.53 491.057C1182.17 497.381 1170.32 502.776 1157.95 506.891C1145.58 511.006 1132.69 513.841 1120.1 516.34C1107.51 518.839 1095.24 521.003 1081.73 521.003C1068.23 521.003 1053.49 518.84 1045.77 525.89C1038.04 532.94 1037.32 549.203 1032.61 562.107C1027.89 575.011 1019.17 584.557 1009.41 592.935C999.64 601.313 988.822 608.522 977.294 614.395C965.766 620.267 953.527 624.802 941.084 628.667C928.64 632.532 915.99 635.727 903.156 637.742C890.321 639.758 877.301 640.594 864.285 640.889C851.269 641.184 838.257 640.939 825.304 639.821C812.351 638.704 799.457 636.714 786.784 633.769C774.11 630.823 761.657 626.921 749.63 622.012C737.603 617.102 726.002 611.184 715.037 604.111C704.071 597.038 693.741 588.81 685.693 578.564C677.645 568.318 671.879 556.053 669.776 545.354C667.673 534.654 669.233 525.52 670.797 519.083C672.361 512.646 673.929 508.906 675.497 505.166" stroke="white" stroke-width="1.33333" stroke-linecap="round" stroke-linejoin="round"/>
<path d="M987.055 293.959C984.096 295.17 981.138 296.381 976.727 298.997C972.315 301.614 966.452 305.636 960.29 311.879C954.128 318.122 947.669 326.587 944.855 336.325C942.041 346.062 942.874 357.071 947.068 366.372C951.262 375.674 958.817 383.267 967.056 389.537C975.296 395.808 984.22 400.757 993.629 404.742C1003.04 408.727 1012.93 411.749 1022.97 413.909C1033.01 416.07 1043.19 417.37 1053.43 417.996C1063.68 418.623 1074 418.575 1084.2 417.531C1094.39 416.487 1104.46 414.445 1114.41 411.89C1124.36 409.334 1134.19 406.263 1143.45 401.953C1152.7 397.643 1161.39 392.092 1168.94 384.934C1176.48 377.775 1182.88 369.008 1185.39 359.24C1187.91 349.472 1186.52 338.702 1182.32 329.319C1178.13 319.935 1171.12 311.938 1164.49 306.447C1157.87 300.956 1151.63 297.973 1146.98 295.74C1142.32 293.507 1139.25 292.026 1136.17 290.545" stroke="white" stroke-width="1.33333" stroke-linecap="round" stroke-linejoin="round"/>
<path d="M986.303 307.231C991.42 301.767 997.911 297.828 1004.56 294.312C1011.21 290.797 1018.02 287.706 1025.14 285.547C1032.26 283.388 1039.7 282.162 1047.14 281.364C1054.58 280.566 1062.02 280.196 1069.51 280.254C1076.99 280.312 1084.51 280.797 1091.86 282.2C1099.21 283.603 1106.39 285.924 1113.32 288.712C1120.24 291.501 1126.9 294.758 1133.29 298.856C1139.67 302.954 1145.77 307.893 1149.47 314.32C1153.17 320.747 1154.46 328.662 1153.27 335.983C1152.08 343.305 1148.41 350.033 1143.37 355.456C1138.33 360.879 1131.93 364.997 1125.3 368.57C1118.67 372.144 1111.83 375.172 1104.71 377.338C1097.59 379.503 1090.21 380.804 1082.77 381.703C1075.34 382.601 1067.85 383.096 1060.38 382.887C1052.91 382.678 1045.45 381.765 1038.08 380.387C1030.72 379.01 1023.44 377.167 1016.51 374.469C1009.57 371.772 1002.97 368.219 996.717 363.981C990.467 359.744 984.568 354.821 980.79 348.489C977.012 342.157 975.356 334.415 976.4 327.05C977.443 319.684 981.186 312.695 986.303 307.231Z" stroke="white" stroke-width="1.33333" stroke-linecap="round" stroke-linejoin="round"/>
<path d="M957.433 308.316L957.424 308.321L949.241 313.818L935.382 324.875L928.205 330.847" stroke="white" stroke-width="1.33333" stroke-linecap="round" stroke-linejoin="round"/>
<path d="M917.483 407.758L933.901 410.715L938.032 411.609L945.85 413.74L946.811 413.788L946.821 413.179L942.376 409.101L935.978 401.724L932.657 398.138L929.082 393.014L926.387 388.708L923.538 383.069L922.871 381.415L922.488 380.065L921.081 372.425L919.653 364.912L919.603 364.495L919.653 364.079L921.087 356.567L922.5 348.932L922.887 347.573L923.56 345.909L926.406 340.282L929.093 335.996L932.678 330.864L936.013 327.266L942.404 319.906L949.155 314.278L949.157 314.277L958.428 307.598L969.189 301.541L976.587 297.752L988.669 292.872L1000.16 288.264" stroke="white" stroke-width="1.33333" stroke-linecap="round" stroke-linejoin="round"/>
<path d="M1040.25 681.119L1047.79 681.741L1062.77 682.79L1077.42 682.089L1090.88 681.252L1101.86 679.164L1109.04 677.641L1126.13 673.196L1130.78 671.598" stroke="white" stroke-width="1.33333" stroke-linecap="round" stroke-linejoin="round"/>
<path d="M1183.43 316.281C1185.94 318.395 1188.44 320.51 1192.25 324.347C1196.07 328.184 1201.2 333.744 1204.82 341.939C1208.45 350.133 1210.57 360.962 1209.11 371.366C1207.65 381.77 1202.61 391.749 1195.94 400.054C1189.26 408.359 1180.95 414.99 1172.02 420.71C1163.08 426.43 1153.51 431.24 1143.56 434.891C1133.61 438.543 1123.28 441.036 1112.88 443.168C1102.47 445.301 1092 447.072 1081.43 447.803C1070.87 448.535 1060.22 448.227 1049.61 447.513C1039.01 446.798 1028.45 445.678 1019.66 444.066C1010.87 442.454 1003.85 440.352 998.762 438.791C993.676 437.23 990.526 436.211 987.46 435.529L985.152 436.187L984.163 437.75C984.674 440.288 986.417 443.107 988.87 447.84C991.322 452.573 994.484 459.22 996.707 467.987C998.929 476.755 1000.21 487.642 997.743 497.743C995.273 507.843 989.052 517.156 981.63 524.915C974.208 532.674 965.586 538.879 956.377 544.117C947.168 549.356 937.372 553.629 927.283 556.995C917.194 560.361 906.811 562.819 896.327 564.596C885.843 566.373 875.257 567.468 864.645 567.88C854.033 568.291 843.395 568.019 832.793 567.168C822.191 566.316 811.625 564.884 801.281 562.45C790.938 560.015 780.818 556.578 771.05 552.404C761.282 548.231 751.866 543.322 743.041 537.351C734.216 531.38 725.983 524.349 719.93 515.544C713.878 506.74 710.006 496.163 709.94 485.706C709.875 475.25 713.616 464.915 718.024 457.039C722.433 449.162 727.51 443.743 731.433 440.104C735.356 436.464 738.126 434.604 740.896 432.744" stroke="white" stroke-width="1.33333" stroke-linecap="round" stroke-linejoin="round"/>
<path d="M921.237 408.962C924.448 410.412 927.658 411.861 932.709 414.311C937.759 416.762 944.65 420.213 952.214 426.055C959.778 431.898 968.015 440.13 972.499 450.265C976.982 460.4 977.713 472.437 974.096 482.898C970.479 493.359 962.516 502.244 953.578 509.343C944.64 516.442 934.727 521.755 924.292 525.862C913.858 529.968 902.902 532.868 891.828 534.888C880.754 536.907 869.563 538.046 858.344 538.25C847.124 538.454 835.877 537.723 824.759 536.081C813.64 534.44 802.652 531.889 792.055 528.192C781.459 524.495 771.254 519.653 761.845 513.351C752.436 507.049 743.824 499.287 738.548 489.382C733.272 479.478 731.333 467.431 734.15 456.785C736.967 446.139 744.541 436.894 753.144 429.4C761.746 421.906 771.377 416.162 779.962 412.256C788.546 408.35 796.083 406.283 801.565 404.88C807.047 403.477 810.473 402.737 813.898 401.998" stroke="white" stroke-width="1.33333" stroke-linecap="round" stroke-linejoin="round"/>
<path d="M930.092 478.659C924.564 483.648 917.974 487.284 911.235 490.61C904.496 493.937 897.608 496.953 890.421 498.833C883.234 500.712 875.747 501.454 868.267 502.07C860.788 502.686 853.316 503.177 845.883 502.778C838.449 502.38 831.054 501.092 823.745 499.408C816.436 497.723 809.213 495.642 802.365 492.769C795.518 489.896 789.045 486.232 783.112 481.57C777.179 476.908 771.786 471.247 768.852 464.486C765.918 457.725 765.443 449.864 767.448 442.782C769.453 435.7 773.937 429.398 779.467 424.416C784.997 419.435 791.571 415.776 798.303 412.439C805.035 409.103 811.924 406.089 819.113 404.214C826.302 402.338 833.79 401.601 841.269 400.983C848.748 400.366 856.217 399.868 863.649 400.27C871.082 400.672 878.477 401.973 885.787 403.654C893.097 405.335 900.322 407.396 907.178 410.254C914.033 413.112 920.519 416.768 926.433 421.447C932.347 426.125 937.69 431.827 940.614 438.587C943.538 445.348 944.044 453.167 942.064 460.248C940.084 467.328 935.62 473.67 930.092 478.659Z" stroke="white" stroke-width="1.33333" stroke-linecap="round" stroke-linejoin="round"/>
<path d="M1135.18 670.084L1146.86 664.77" stroke="white" stroke-width="1.33333" stroke-linecap="round" stroke-linejoin="round"/>
<path d="M1267.34 480.074V488.361L1266.48 497.143L1265.4 504.802L1264.68 513.071" stroke="white" stroke-width="1.33333" stroke-linecap="round" stroke-linejoin="round"/>
<path d="M1266.36 463.564L1267.34 471.789" stroke="white" stroke-width="1.33333" stroke-linecap="round" stroke-linejoin="round"/>
<path d="M1264.68 513.07C1264.12 517.005 1263.56 520.939 1260.79 526.814C1258.01 532.689 1253.02 540.504 1245.56 548.745C1238.1 556.985 1228.17 565.651 1217.4 572.865C1206.63 580.079 1195.01 585.842 1182.97 590.673C1170.92 595.503 1158.44 599.401 1140.56 604.23C1122.69 609.059 1099.41 614.819 1085.09 615.171C1070.78 615.522 1065.42 610.465 1061.28 614.7C1057.14 618.934 1054.22 632.46 1049.01 644.497C1043.8 656.533 1036.3 667.08 1027.2 676.161C1018.1 685.243 1007.4 692.858 996.116 699.259C984.828 705.659 972.946 710.845 960.763 715.215C948.58 719.585 936.097 723.14 923.432 725.827C910.768 728.514 897.923 730.333 885.024 731.435C872.124 732.537 859.171 732.922 846.223 732.668C833.275 732.413 820.331 731.52 807.506 729.74C794.68 727.96 781.973 725.294 769.491 721.851C757.009 718.409 744.753 714.191 732.917 708.959C721.081 703.726 709.665 697.48 699.11 690.001C688.554 682.523 678.858 673.814 672.11 665.376C665.362 656.939 661.562 648.774 659.139 642.726C656.717 636.677 655.672 632.745 654.628 628.813" stroke="white" stroke-width="1.33333" stroke-linecap="round" stroke-linejoin="round"/>
<path d="M904.259 356.23L904.256 356.234L903.887 356.795L900.139 363.317L897.534 367.933L894.931 373.284L891.62 380.473L891.491 380.822L891.411 381.196L890.628 389.112L889.253 396.371L889.14 397.52L889.252 398.669L889.838 401.024" stroke="white" stroke-width="1.33333" stroke-linecap="round" stroke-linejoin="round"/>
<path d="M713.051 455.424L699.663 470.512L690.98 480.512L683.115 493.288L675.489 505.161L670.169 517.694L663.451 533.216L659.684 544.686" stroke="white" stroke-width="1.33333" stroke-linecap="round" stroke-linejoin="round"/>
<path d="M1052.33 643.527L1049.67 656.076" stroke="white" stroke-width="1.33333" stroke-linecap="round" stroke-linejoin="round"/>
<path d="M1193.42 636.701L1201.44 629.951" stroke="white" stroke-width="1.33333" stroke-linecap="round" stroke-linejoin="round"/>
<path d="M1157.24 299.758L1171.67 307.906" stroke="white" stroke-width="1.33333" stroke-linecap="round" stroke-linejoin="round"/>
<path d="M659.684 544.686L657.564 554.965L655.946 562.318" stroke="white" stroke-width="1.33333" stroke-linecap="round" stroke-linejoin="round"/>
<path d="M879.24 399.306L880.58 396.548L883.709 390.068L887.46 382.334" stroke="white" stroke-width="1.33333" stroke-linecap="round" stroke-linejoin="round"/>
<path d="M799.861 405.17L783.59 410.742L775.373 414.104" stroke="white" stroke-width="1.33333" stroke-linecap="round" stroke-linejoin="round"/>
<path d="M680.602 497.201L682.74 493.296L685.764 488.986" stroke="white" stroke-width="1.33333" stroke-linecap="round" stroke-linejoin="round"/>
<path d="M1023.85 711.125L1018.36 720.015L1017.98 720.452" stroke="white" stroke-width="1.33333" stroke-linecap="round" stroke-linejoin="round"/>
<path d="M1037.3 687.395L1033.99 695.171" stroke="white" stroke-width="1.33333" stroke-linecap="round" stroke-linejoin="round"/>
<path d="M887.958 381.309L888.769 379.637L897.015 367.176L903.887 356.791" stroke="white" stroke-width="1.33333" stroke-linecap="round" stroke-linejoin="round"/>
<path d="M694.794 723.506L693.926 722.437L693.401 721.689" stroke="white" stroke-width="1.33333" stroke-linecap="round" stroke-linejoin="round"/>
<path d="M904.257 356.233L904.602 355.711L910.784 348.8L915.812 343.416L928.205 330.848" stroke="white" stroke-width="1.33333" stroke-linecap="round" stroke-linejoin="round"/>
<path d="M1230.16 363.175L1224.31 354.752L1216.09 345.397L1211.11 339.984L1201.38 330.184" stroke="white" stroke-width="1.33333" stroke-linecap="round" stroke-linejoin="round"/>
<path d="M652.68 587.953L652.661 596.229V612.802" stroke="white" stroke-width="1.33333" stroke-linecap="round" stroke-linejoin="round"/>
<path d="M652.661 612.803L653.627 620.531L655.644 637.222" stroke="white" stroke-width="1.33333" stroke-linecap="round" stroke-linejoin="round"/>
<path d="M655.645 637.223L658.377 649.609L661.906 661.225" stroke="white" stroke-width="1.33333" stroke-linecap="round" stroke-linejoin="round"/>
<path d="M775.372 414.104L764.974 418.594L753.239 424.714L742.251 431.733L733.111 438.551L725.987 444.064L713.051 455.424" stroke="white" stroke-width="1.33333" stroke-linecap="round" stroke-linejoin="round"/>
<path d="M667.242 524.457L670.054 517.006L672.232 512.834" stroke="white" stroke-width="1.33333" stroke-linecap="round" stroke-linejoin="round"/>
<path d="M655.947 562.318L654.668 571.343L652.68 587.954L653.777 579.034" stroke="white" stroke-width="1.33333" stroke-linecap="round" stroke-linejoin="round"/>
<path d="M1143.62 293.844L1146.53 294.971L1157.24 299.758L1146.72 295.216" stroke="white" stroke-width="1.33333" stroke-linecap="round" stroke-linejoin="round"/>
<path d="M1146.72 295.215L1135.3 290.158L1126.11 286.983L1109.01 282.543L1101.84 281.016L1090.88 278.933L1077.42 278.097L1062.77 277.395L1047.78 278.445L1034.43 279.545L1024.16 281.764L1016.98 283.509L1000.16 288.265" stroke="white" stroke-width="1.33333" stroke-linecap="round" stroke-linejoin="round"/>
<path d="M1264.28 514.631L1262.32 526.671L1258.83 538.526L1256.54 545.489L1252.31 557.527L1246.58 569.377L1239.88 582.309L1231.8 594.643L1224.33 605.403L1216.1 614.776L1211.12 620.189L1201.44 629.952" stroke="white" stroke-width="1.33333" stroke-linecap="round" stroke-linejoin="round"/>
<path d="M1201.38 330.182L1191.73 322.577L1182.07 315.248L1171.67 307.906" stroke="white" stroke-width="1.33333" stroke-linecap="round" stroke-linejoin="round"/>
<path d="M903.763 403.361L903.759 403.354L891.353 401.268L874.729 398.578L861.757 398.047L847.923 397.756L832.857 399.116L820.433 400.421L807.037 403.656L799.86 405.169" stroke="white" stroke-width="1.33333" stroke-linecap="round" stroke-linejoin="round"/>
<path d="M697.383 726.832L696.61 725.872L691.438 719.128L690.856 718.281" stroke="white" stroke-width="1.33333" stroke-linecap="round" stroke-linejoin="round"/>
<path d="M887.958 381.309L887.457 382.347L885.017 388.847L882.888 394.252L881.618 398.381L881.294 399.547" stroke="white" stroke-width="1.33333" stroke-linecap="round" stroke-linejoin="round"/>
<path d="M1130.78 671.598L1135.19 670.064L1136.09 669.684L1136.09 669.682" stroke="white" stroke-width="1.33333" stroke-linecap="round" stroke-linejoin="round"/>
<path d="M930.076 329.291L930.069 329.297L926.375 332.976L919.707 339.888L915.085 345.607L912.953 348.499L909.811 353.553L908.676 355.717L907.858 357.812L905.516 365.328L903.366 371.644L903.075 372.912L903.012 374.126L903.186 381.007L903.007 387.886L903.07 389.103L903.36 390.374L905.507 396.691L907.844 404.215L908.045 404.732" stroke="white" stroke-width="1.33333" stroke-linecap="round" stroke-linejoin="round"/>
<path d="M1085.38 278.592L1084.23 278.479L1077.61 278.047L1071.62 277.773L1070.29 277.756" stroke="white" stroke-width="1.33333" stroke-linecap="round" stroke-linejoin="round"/>
<path d="M1055.02 277.938L1053.98 277.975L1047.51 278.418L1040.09 279.05L1039.26 279.147" stroke="white" stroke-width="1.33333" stroke-linecap="round" stroke-linejoin="round"/>
<path d="M903.764 403.361L907.505 404.556L921.237 408.964" stroke="white" stroke-width="1.33333" stroke-linecap="round" stroke-linejoin="round"/>
<path d="M987.055 293.959L1000.16 288.264" stroke="white" stroke-width="1.33333" stroke-linecap="round" stroke-linejoin="round"/>
</svg>
