<?xml version="1.0" encoding="UTF-8"?>
<svg id="Layer_1" xmlns="http://www.w3.org/2000/svg" version="1.1" xmlns:xlink="http://www.w3.org/1999/xlink" viewBox="0 0 420.61 446.28">
  <!-- Generator: Adobe Illustrator 29.5.0, SVG Export Plug-In . SVG Version: 2.1.0 Build 137)  -->
  <defs>
    <clipPath id="clippath">
      <rect x="-109.71" y="-16.85" width="640" height="480" style="fill: none;"/>
    </clipPath>
  </defs>
  <g style="clip-path: url(#clippath);">
    <g>
      <path d="M212.97,67.12c14.22-1.81,28.97-.9,42.53,3.96,10.25,3.7,19.92,10.06,25.78,19.42,3.72,5.86,5.56,12.82,5.48,19.75-.08,6.32.68,13-2.18,18.88-5.27,11.29-16.79,18.34-28.52,21.33,10.59,2.16,21.11,6.66,28.55,14.73,5.68,5.94,8.93,14.13,8.82,22.37-.13,7.99.8,16.2-1.78,23.92-3.44,11.02-11.7,19.99-21.5,25.81-13.81,8.31-30.28,11.2-46.23,10.77-13.38-.38-27.08-2.71-38.85-9.36-9.66-5.3-17.53-13.82-21.85-23.97-2.5-5.64-3.96-11.7-4.65-17.81h40.73c.72,5.85,3.46,11.6,8.23,15.2,6.15,4.75,14.35,5.62,21.85,4.99,6.73-.58,13.78-3.44,17.48-9.38,3.5-5.32,3.53-11.93,3.39-18.07.19-5.67-1.83-11.59-6.2-15.35-5.34-4.66-12.55-6.35-19.43-6.96-6.33-.4-12.68-.1-19.01-.24-.09-9.68-.03-19.37-.03-29.05,8.18-.27,16.52.77,24.54-1.31,5.1-1.35,10.2-4.35,12.37-9.38,2.04-4.28,1.5-9.12,1.56-13.72-.02-4.24-1.18-8.73-4.32-11.76-4.28-4.28-10.68-5.42-16.51-5.28-5.76-.06-11.79,1.74-15.85,5.97-3.72,3.7-5.58,8.89-6.02,14.05-13.58.1-27.16.02-40.75.04.47-12.36,6.17-24.26,15.08-32.77,10.08-9.65,23.65-14.93,37.32-16.78" style="fill: #fff;"/>
      <path d="M131.19,344.69c6.9-.01,13.8.03,20.71-.01,4.44,17.64,8.92,35.28,13.25,52.94,4.7-17.64,9.34-35.29,14.01-52.93,6.67.03,13.33-.01,20.01.02v65.87c-5.2,0-10.41-.01-15.61,0-.03-10.48,0-20.96-.02-31.44-.04-3.55.15-7.12-.27-10.66-3.27,14.09-7.22,28.03-10.74,42.06-5.19.02-10.38.02-15.56,0-3.8-14.67-7.75-29.3-11.55-43.97-.2,14.65-.03,29.31-.08,43.96-4.72.02-9.43.02-14.15,0v-65.88" style="fill: #fff;"/>
      <path d="M207.6,410.56c6.3-21.95,12.56-43.91,18.83-65.87,7.31.13,14.72-.24,21.96.18,6.68,21.87,13.26,43.8,19.82,65.72-5.59-.02-11.18,0-16.77-.03-1.31-4.8-2.66-9.6-4.03-14.39-6.57.01-13.15.03-19.72-.01-1.28,4.79-2.44,9.62-3.69,14.41-5.47,0-10.94.01-16.41-.01M237.38,355.57c-2.25,9.44-4.48,18.88-6.66,28.34,4.5.03,9,.01,13.5.01-2.26-9.46-4.59-18.9-6.84-28.36" style="fill: #fff;"/>
      <path d="M275.04,344.71c6-.03,11.98-.01,17.98,0,3.71,6.96,7.41,13.93,11.07,20.92,4.09-6.83,7.63-13.98,11.52-20.93h17.41c-6.21,9.9-12.5,19.75-18.7,29.66,6.91,12.08,13.84,24.15,20.78,36.21-6.19.03-12.39.03-18.59,0-3.91-7.78-7.95-15.5-11.87-23.28-.27-.47-.58-.92-.92-1.32-4.19,8.24-8.54,16.39-12.75,24.62-6.04,0-12.09,0-18.14.01,6.98-11.59,13.9-23.22,20.83-34.84-6.21-10.35-12.41-20.7-18.63-31.05" style="fill: #fff;"/>
      <path d="M.46,40.7C23,27.19,45.49,13.56,68.02,0c.02,104.59-.07,209.18.04,313.78-10.29,6.26-20.65,12.44-30.96,18.68-12.39,7.38-24.64,15-37.1,22.24C.12,252.23.02,149.73.05,47.25c.15-2.17-.49-4.5.4-6.55" style="fill: #7fc5de;"/>
      <path d="M68.02,0c99.63-.02,199.25,0,298.87,0,6.13-.08,12.2,2.52,16.45,6.93,3.99,4.17,6.39,9.88,6.34,15.68.05,15.71,0,31.42.03,47.13.06,81.32.06,162.64,0,243.97-107.21.19-214.43,0-321.65.09-.11-104.59-.02-209.19-.04-313.78M212.97,67.12c-13.68,1.85-27.24,7.13-37.32,16.78-8.91,8.51-14.62,20.41-15.08,32.77,13.59-.02,27.17.06,40.75-.04.44-5.15,2.3-10.35,6.02-14.05,4.06-4.24,10.1-6.04,15.85-5.97,5.83-.14,12.24.99,16.51,5.28,3.14,3.02,4.3,7.52,4.32,11.76-.06,4.59.48,9.43-1.56,13.72-2.16,5.03-7.27,8.03-12.37,9.38-8.02,2.08-16.36,1.05-24.54,1.31,0,9.68-.06,19.36.03,29.05,6.34.14,12.68-.16,19.01.24,6.89.61,14.09,2.3,19.43,6.96,4.37,3.76,6.39,9.68,6.2,15.35.14,6.14.11,12.74-3.39,18.07-3.7,5.93-10.75,8.79-17.48,9.38-7.51.63-15.71-.24-21.85-4.99-4.77-3.6-7.51-9.35-8.23-15.2h-40.73c.7,6.12,2.16,12.17,4.65,17.81,4.32,10.15,12.2,18.67,21.85,23.97,11.78,6.65,25.47,8.98,38.85,9.36,15.95.43,32.41-2.46,46.23-10.77,9.8-5.82,18.06-14.79,21.5-25.81,2.58-7.72,1.65-15.93,1.78-23.92.12-8.23-3.13-16.43-8.82-22.37-7.44-8.07-17.96-12.57-28.55-14.73,11.73-3,23.25-10.05,28.52-21.33,2.86-5.89,2.1-12.56,2.18-18.88.08-6.93-1.76-13.89-5.48-19.75-5.86-9.36-15.54-15.73-25.78-19.42-13.56-4.85-28.31-5.76-42.53-3.96" style="fill: #39a5cc;"/>
      <path d="M389.72,69.73c10.29-.03,20.59,0,30.89-.01,0,125.52.02,251.04,0,376.57H63.08c-4.2.12-8.54-.09-12.41-1.91-8.06-3.46-13.65-11.9-13.54-20.69-.02-30.41,0-60.81,0-91.21,10.31-6.25,20.66-12.42,30.96-18.68,107.22-.08,214.44.1,321.65-.09.05-81.32.05-162.64,0-243.97M131.19,344.69c-.02,21.96,0,43.92,0,65.88,4.72.01,9.43.01,14.15,0,.06-14.65-.12-29.31.08-43.96,3.79,14.67,7.74,29.3,11.55,43.97,5.19.01,10.38.01,15.56,0,3.52-14.04,7.47-27.97,10.74-42.06.42,3.54.23,7.11.27,10.66,0,10.48,0,20.96.02,31.44,5.2-.02,10.41-.01,15.61,0v-65.88c-6.67-.03-13.34,0-20.01-.02-4.67,17.64-9.31,35.29-14.01,52.93-4.33-17.67-8.81-35.3-13.25-52.94-6.91.04-13.81,0-20.71.01M207.6,410.56c5.47.03,10.94.01,16.41.01,1.25-4.8,2.41-9.62,3.69-14.41,6.57.05,13.15.03,19.72.01,1.37,4.79,2.72,9.58,4.03,14.39,5.58.04,11.18,0,16.77.03-6.56-21.92-13.14-43.84-19.82-65.72-7.24-.42-14.65-.05-21.96-.18-6.27,21.96-12.53,43.92-18.83,65.87M275.04,344.71c6.21,10.35,12.42,20.7,18.63,31.05-6.93,11.61-13.85,23.25-20.83,34.84,6.05-.02,12.1,0,18.14-.01,4.2-8.23,8.56-16.38,12.75-24.62.34.4.65.85.92,1.32,3.92,7.78,7.95,15.49,11.87,23.28,6.19.03,12.39.03,18.59,0-6.94-12.06-13.87-24.13-20.78-36.21,6.2-9.9,12.49-19.76,18.7-29.66h-17.41c-3.89,6.95-7.43,14.1-11.52,20.93-3.66-6.99-7.36-13.96-11.07-20.92-5.99,0-11.98-.02-17.98,0" style="fill: #36687f;"/>
      <path d="M237.38,355.57c2.24,9.46,4.58,18.9,6.84,28.36-4.5,0-9,.02-13.5-.01,2.18-9.46,4.41-18.9,6.66-28.34" style="fill: #36687f;"/>
    </g>
  </g>
</svg>