<?xml version="1.0" encoding="UTF-8"?>
<svg id="Layer_1" xmlns="http://www.w3.org/2000/svg" version="1.1" viewBox="0 0 162 109">
  <!-- Generator: Adobe Illustrator 29.5.0, SVG Export Plug-In . SVG Version: 2.1.0 Build 137)  -->
  <path d="M161.82,38.89C161.82,17.54,143.99.34,122,.34c-2.02-.05-4.04.05-6.04.32-17.2,2.55-28.68,14.65-35.05,24.21C74.54,15.32,63.08,3.21,45.85.66c-2-.27-4.02-.38-6.04-.32C17.85.34,0,17.54,0,38.89s17.85,38.63,39.82,38.63c2.02.02,4.03-.11,6.03-.41,17.22-2.55,28.68-14.65,35.05-24.2,6.37,9.54,17.85,21.65,35.05,24.2,2,.27,4.03.38,6.04.32,21.67-.32,39.82-17.52,39.82-38.55h.02ZM43.64,63.42c-1.37.25-2.76.36-4.14.31-14.33,0-26.12-11.14-26.12-24.84s11.78-24.84,26.44-24.84c1.39-.05,2.78.06,4.14.32,16.25,2.22,26.12,18.15,29.31,24.52-3.51,6.37-13.38,21.99-29.63,24.54ZM88.3,38.89c3.4-6.37,13.01-22.3,29.26-24.52,1.36-.27,2.74-.38,4.13-.32,14.65,0,26.44,11.14,26.44,24.84s-11.78,24.84-26.12,24.84c-1.39.05-2.78-.05-4.14-.31-16.56-2.55-26.44-18.17-29.56-24.54Z" style="fill: #007481;"/>
  <path d="M52.25,35.07h-23.89v7.64h23.89v-7.64Z" style="fill: #007481;"/>
  <path d="M124.55,42.71h7.96v-7.64h-7.96v-8.29h-7.96v8.29h-7.96v7.64h7.96v8.29h7.96v-8.29Z" style="fill: #007481;"/>
  <path d="M161.48,2.63c-.21-.51-.51-.97-.9-1.36-.39-.38-.84-.69-1.34-.92-.54-.24-1.11-.36-1.7-.36s-1.16.12-1.7.36c-.5.22-.95.53-1.34.92-.39.39-.69.85-.9,1.36-.23.54-.34,1.11-.34,1.7,0,1.15.46,2.25,1.26,3.07.39.38.84.68,1.34.9.53.24,1.11.36,1.7.36s1.16-.12,1.7-.36c.5-.22.95-.52,1.34-.9.38-.4.69-.87.9-1.38.23-.54.35-1.11.34-1.7,0-.59-.11-1.17-.36-1.7ZM160.55,5.64c-.15.4-.39.76-.7,1.05-.3.3-.64.54-1.02.73-.39.18-.81.27-1.24.27-.44,0-.87-.09-1.27-.27-.38-.18-.73-.43-1.02-.73-.29-.3-.52-.66-.68-1.05-.17-.41-.26-.86-.25-1.31,0-.45.08-.9.25-1.32.16-.4.39-.76.68-1.07.29-.3.64-.54,1.02-.7.4-.17.84-.26,1.27-.25.43,0,.85.08,1.24.25.38.17.72.4,1.02.7.3.31.54.67.7,1.07.17.42.25.87.25,1.32,0,.45-.08.89-.25,1.31Z" style="fill: #007481;"/>
  <path d="M158.51,4.76c.23-.11.43-.29.56-.51.12-.22.19-.46.19-.71,0-.39-.15-.77-.42-1.05-.41-.33-.94-.49-1.46-.44h-1.29v4.23h1.07v-1.39h.44l.75,1.39h1.27l-1.1-1.51ZM157.44,4.18h-.32v-1.14h.36c.46,0,.68.2.68.61s-.24.53-.71.53Z" style="fill: #007481;"/>
  <path d="M14.27,108.59l1.16-4.66h6.55l1.26,4.66h5.99l-7.25-22.78h-6.34l-7.15,22.78h5.78ZM20.83,99.55h-4.31l2.07-8.34,2.24,8.34Z" style="fill: #007481;"/>
  <path d="M31.08,108.59h5.64v-7.22h2.84l3.43,7.22h6.66l-4.45-8.34c2.49-1.33,3.75-3.71,3.75-6.83,0-4.38-2.38-7.61-8.69-7.61h-9.18v22.78ZM39.7,96.85h-2.98v-6.45h2.87c2.63,0,3.36,1.02,3.36,3.05,0,2.52-1.3,3.4-3.26,3.4Z" style="fill: #007481;"/>
  <path d="M51.75,108.59h7.5c9.67,0,11.32-6.2,11.32-11.6,0-7.15-2.84-11.18-11.36-11.18h-7.47v22.78ZM59.04,90.4c5.05,0,5.5,2.38,5.5,6.83,0,3.86-.35,6.69-5.01,6.69h-2.14v-13.53h1.65Z" style="fill: #007481;"/>
  <path d="M85.48,99.72c0,3.47-.95,4.63-3.5,4.63-2.14,0-3.47-.88-3.47-4.66v-13.88h-5.64v14.93c0,6.9,4.98,8.2,8.87,8.2s9.18-1.44,9.18-8.17v-14.97h-5.43v13.91Z" style="fill: #007481;"/>
  <path d="M94.2,108.59h17.45v-4.66h-5.92v-13.46h5.92v-4.66h-17.45v4.66h5.89v13.46h-5.89v4.66Z" style="fill: #007481;"/>
  <path d="M119.84,94.01l7.78,14.58h5.71v-22.78h-5.26v13.67l-7.4-13.67h-6.13v22.78h5.33l-.04-14.58Z" style="fill: #007481;"/>
  <path d="M144.85,85.49c-6.9,0-9.53,5.08-9.53,11.95,0,7.54,3.01,11.5,9.57,11.5,7.32,0,9.74-5.15,9.74-11.74,0-8.69-3.29-11.71-9.78-11.71ZM144.88,104.35c-3.26,0-3.57-2.31-3.57-6.9,0-5.57.53-7.36,3.54-7.36,3.33,0,3.78,1.54,3.78,7.11,0,5.26-.46,7.15-3.75,7.15Z" style="fill: #007481;"/>
</svg>