<?xml version="1.0" encoding="UTF-8"?>
<svg id="Layer_1" xmlns="http://www.w3.org/2000/svg" version="1.1" viewBox="0 0 256 288">
  <!-- Generator: Adobe Illustrator 29.5.0, SVG Export Plug-In . SVG Version: 2.1.0 Build 137)  -->
  <path d="M255.57,84.45c0-4.83-1.04-9.1-3.12-12.76-2.05-3.6-5.12-6.62-9.25-9.01-34.02-19.62-68.08-39.18-102.1-58.82-9.17-5.29-18.06-5.1-27.16.27-13.54,7.99-81.35,46.83-101.55,58.54C4.06,67.49,0,74.86,0,84.44c0,39.46,0,78.91,0,118.37,0,4.72.99,8.91,2.99,12.52,2.05,3.71,5.17,6.81,9.39,9.25,20.21,11.7,88.02,50.55,101.56,58.54,9.11,5.37,18,5.57,27.17.27,34.01-19.64,68.07-39.2,102.1-58.82,4.22-2.44,7.33-5.54,9.39-9.25,1.99-3.61,2.99-7.79,2.99-12.52,0,0,0-78.89,0-118.35" style="fill: #a179dc;"/>
  <path d="M128.18,143.24L2.99,215.33c2.05,3.71,5.17,6.81,9.39,9.25,20.21,11.7,88.02,50.55,101.56,58.54,9.11,5.37,18,5.57,27.17.27,34.01-19.64,68.07-39.2,102.1-58.82,4.22-2.44,7.33-5.54,9.39-9.25l-124.41-72.07" style="fill: #280068;"/>
  <path d="M255.57,84.45c0-4.83-1.04-9.1-3.12-12.76l-124.26,71.55,124.41,72.07c1.99-3.61,2.99-7.79,2.99-12.52,0,0,0-78.89,0-118.35" style="fill: #390091;"/>
  <path d="M201.89,116.29v13.47h13.47v-13.47h6.74v13.47h13.47v6.74h-13.47v13.47h13.47v6.74h-13.47v13.47h-6.74v-13.47h-13.47v13.47h-6.74v-13.47h-13.47v-6.74h13.47v-13.47h-13.47v-6.74h13.47v-13.47s6.74,0,6.74,0ZM215.37,136.5h-13.47v13.47h13.47v-13.47Z" style="fill: #fff;"/>
  <path d="M128.46,48.63c35.14,0,65.83,19.09,82.26,47.46l-.16-.27-41.35,23.81c-8.15-13.79-23.08-23.1-40.21-23.29h-.54c-26.13,0-47.31,21.18-47.31,47.3,0,8.54,2.28,16.55,6.24,23.47,8.15,14.24,23.48,23.84,41.07,23.84s33.11-9.72,41.22-24.11l-.2.35,41.29,23.92c-16.25,28.13-46.52,47.16-81.25,47.54h-1.06c-35.25,0-66.03-19.2-82.42-47.72-8-13.92-12.58-30.06-12.58-47.28,0-52.47,42.53-95,95-95v-.02Z" style="fill: #fff;"/>
</svg>