<?xml version="1.0" encoding="UTF-8"?>
<svg id="Layer_1" xmlns="http://www.w3.org/2000/svg" version="1.1" viewBox="0 0 269.1 288.74">
  <!-- Generator: Adobe Illustrator 29.5.0, SVG Export Plug-In . SVG Version: 2.1.0 Build 137)  -->
  <path d="M269.1,288.74H40.52c-7.77,0-14.06-6.3-14.06-14.06V48.24h242.64v240.5Z" style="fill: #933c00;"/>
  <path d="M43.88,0h193.69c7.77,0,14.06,6.3,14.06,14.06v188.34H43.88V0Z" style="fill: #fe6b00;"/>
  <polygon points="0 230.88 43.88 202.41 43.88 0 0 28.48 0 230.88" style="fill: #fe9548;"/>
  <g style="isolation: isolate;">
    <text transform="translate(94.46 266.17)" style="fill: #fff; font-family: UniversBold, Univers; font-size: 60px; isolation: isolate; letter-spacing: .07em;"><tspan x="0" y="0">CFD</tspan></text>
  </g>
  <path d="M189.23,82.09h-24.6c-1.99-20.6-30.26-19.7-31.87,1.78-.62,8.23-1.05,38.75,1.14,45.23,5.57,16.47,32.28,12.55,30.73-5.77h24.6c.42,16.48-9.24,29.74-25.32,33.65-26.22,6.38-55.82-3.85-57.93-33.98-.78-11.17-1.25-39.68,2-49.44,7.27-21.86,30.84-28.11,51.74-24.56,17.97,3.05,28.8,14.62,29.51,33.08h0Z" style="fill: #fefcfb;"/>
</svg>