<?xml version="1.0" encoding="UTF-8"?>
<svg id="Layer_1" xmlns="http://www.w3.org/2000/svg" version="1.1" viewBox="0 0 135.85 166.67">
  <!-- Generator: Adobe Illustrator 29.5.0, SVG Export Plug-In . SVG Version: 2.1.0 Build 137)  -->
  <path d="M74.64.46c1.05.26,4.15,3.28,4.59,4.28.1.22.21.64.31.92.14.39.18,1.03.31,1.53.21.81-.03,1.58.31,2.75.14.6.15,1.17.31,1.84.13.47.08.83.31,1.53.11.43.25.71.31.92.15.46.3.58.31.61.62,1.93,1.59,3.09,2.14,4.59.11.3.18.59.31.92.16.47.3.58.31.61.09.29.23.66.31.92.09.33.28.8.31.92.09.38.23.87.31,1.22.09.4.27,1.02.31,1.22.1.56.24,1.3.31,1.84.09,1.53.2,4.38,0,5.81-.04.26-.23,1.24-.31,1.53-.02.08-.25.79-.31.92-.87,2.23-3.25,3.54-4.28,6.12-.16.39-.19.51-.31.92-.18.62-.23.89-.31,1.53-.72,4.69.01,9.4-.31,14.08-.06.53-.22,1.27-.31,1.84-.07.44-.21,1.06-.31,1.53-.07.34-.22.85-.31,1.22s-.21.86-.31,1.22c-.05.17-.21.61-.31.92-.08.27-.21.64-.31.92-.01.03-.16.19-.31.61-4.36,10.08-11.75,17.05-21.73,21.42-.31.13-.58.29-.61.31-.28.11-.6.19-.92.31-.28.1-.61.2-.92.31-.29.1-.62.21-.92.31s-.64.22-.92.31c-.37.12-.8.18-1.22.31-.35.1-.77.27-.92.31-.39.1-.83.21-1.22.31s-.85.22-1.22.31c-.49.11-1.02.2-1.53.31s-1.03.21-1.53.31-1.03.21-1.53.31-1.02.2-1.53.31c-.69.14-1.4.16-2.14.31-.69.13-1.41.18-2.14.31-.89.17-1.79.13-2.75.31-.91.16-1.78.13-2.75.31-.64.12-1.16.15-1.84.31-.44.1-.8.19-1.22.31-.37.1-.58.18-.92.31-.3.11-.44.09-.92.31-4.19,1.62-7.23,3.88-8.57,8.26-.17.41-.19.56-.31.92-.06.29-.24.59-.31,1.22-.31,1.61-.26,2.08,0,3.67.08.51.17.76.31,1.22,1.26,4.3,4.17,7.06,8.26,8.57.35.13.54.21.92.31.56.2.75.19,1.22.31.51.09.94.25,1.53.31,1.87.26,2.72.28,4.59,0,.59-.05,1.02-.22,1.53-.31.46-.12.68-.12,1.22-.31.63-.16.58-.3.61-.31,15.31-4.85,33.79-32.53,51.41-39.78.26-.11.61-.19.92-.31.44-.15.58-.3.61-.31.35-.11.83-.2,1.22-.31.31-.09.78-.27.92-.31.37-.1.87-.23,1.22-.31.46-.1,1.08-.23,1.53-.31.64-.11,1.51-.24,2.14-.31,2.05-.15,4.98-.14,7.04,0,.64.07,1.5.19,2.14.31.46.08,1.07.2,1.53.31.35.08.86.21,1.22.31.16.04.61.21.92.31.27.08.64.21.92.31.3.1.65.2.92.31.35.13.68.21.92.31,7.43,3.05,15.41,10.18,18.36,17.75.1.26.2.62.31.92.09.27.23.66.31.92.11.36.21.84.31,1.22.11.43.22,1.08.31,1.53.11.61.24,1.54.31,2.14.08,1.41.08,3.18,0,4.59-.06.62-.2,1.5-.31,2.14-.07.44-.21,1.08-.31,1.53-.08.36-.21.85-.31,1.22-.03.13-.21.61-.31.92-.08.27-.21.63-.31.92-3.16,7.68-9.59,13.06-17.14,16.22-.2.08-.53.15-.92.31-.27.1-.61.2-.92.31-.29.1-.62.21-.92.31-.36.12-.8.18-1.22.31-.35.1-.79.27-.92.31-.39.1-.84.21-1.22.31-.48.11-1.03.2-1.53.31-.4.09-.86.23-1.22.31-.57.12-1.24.2-1.84.31-.59.11-1.24.21-1.84.31-.59.1-1.26.22-1.84.31-.7.11-1.44.2-2.14.31-.91.13-1.82.17-2.75.31-.81.12-1.62.18-2.45.31-1,.15-2.01.16-3.06.31-1,.14-2.02.16-3.06.31-1.01.14-2.01.16-3.06.31-.82.12-1.61.18-2.45.31-.73.11-1.4.18-2.14.31-.64.11-1.19.18-1.84.31-.53.11-.98.18-1.53.31-.44.1-.8.19-1.22.31s-.79.18-1.22.31c-.32.11-.59.19-.92.31-.31.11-.48.12-.92.31-4.43,1.7-7.59,3.35-8.87,8.26-.15.5-.23.65-.31,1.22-.07.83-.12.62,0,1.53.03.66.17.94.31,1.53.95,4.08,3.43,5.85,7.34,7.04.32.11.43.19.92.31.7.16,1.12.23,1.84.31,1.54.15,2.15.11,3.67,0,.79-.05,1.4-.2,2.14-.31.56-.11.96-.16,1.53-.31.5-.1.85-.29.92-.31.45-.11.72-.25.92-.31.34-.1.61-.21.92-.31.33-.11.58-.18.92-.31.33-.13.53-.27.61-.31,4.92-1.94,9.54-5.32,14.08-7.04.27-.1.63-.21.92-.31.27-.09.66-.23.92-.31.3-.09.85-.29.92-.31.35-.08,1.05-.28,1.22-.31.42-.07,1.35-.29,1.53-.31,1.37-.13,3.83-.13,5.2,0,.16.02,1.1.24,1.53.31.17.03.87.23,1.22.31.05,0,.62.22.92.31.03,0,.15.15.61.31,5.74,2.52,10.22,8.11,16.22,9.79.47.14.72.22,1.22.31,1.4.2,1.71.11,3.06,0,.59-.08.9-.24,1.22-.31.72-.14.58-.31.61-.31.26,0,.69-.08.61.31-.35-.05-.29.29-.31.31-.15.12-3.18,1.78-3.37,1.84-.23.06-1.11.29-1.22.31-.9.14-3.32.1-4.28,0-.06,0-.83-.23-1.22-.31-.05,0-.55-.21-.92-.31-.03,0-.09-.14-.61-.31-4.44-1.92-8.08-5.76-12.85-7.04-.34-.12-.56-.2-.92-.31-.26-.05-.64-.23-1.22-.31-2.01-.4-3.2-.4-5.2,0-.59.07-.96.26-1.22.31-.36.11-.56.17-.92.31-5.81,1.66-12.69,8.77-19.28,11.63-.42.15-.58.3-.61.31-.3.1-.64.22-.92.31-.31.1-.75.26-.92.31-.37.1-.85.22-1.22.31s-.88.24-1.22.31c-.48.09-1.08.23-1.53.31-.71.12-1.75.25-2.45.31-1.33.07-2.96.08-4.28,0-.68-.07-1.82-.16-2.45-.31-.35-.08-.87-.21-1.22-.31-.22-.06-.66-.22-.92-.31-.28-.09-.67-.21-.92-.31-4.56-1.82-9.63-6.65-11.32-11.32-.08-.23-.25-.71-.31-.92-.08-.3-.25-.96-.31-1.22-.07-.38-.28-1.33-.31-1.53-.16-1.48-.16-4.64,0-6.12.02-.2.23-1.14.31-1.53.05-.26.22-.93.31-1.22.06-.22.22-.67.31-.92,2.44-7.03,10-12.35,16.52-15.3.17-.08.49-.13.92-.31.34-.13.58-.29.61-.31.28-.1.61-.2.92-.31.29-.1.63-.21.92-.31s.64-.22.92-.31c.38-.12.8-.18,1.22-.31.33-.1.73-.26.92-.31.39-.11.82-.2,1.22-.31s.84-.21,1.22-.31c.49-.12,1-.18,1.53-.31.5-.12,1-.18,1.53-.31.41-.09.85-.22,1.22-.31.6-.13,1.19-.16,1.84-.31.51-.11,1.01-.19,1.53-.31.6-.13,1.18-.16,1.84-.31.59-.13,1.19-.16,1.84-.31.59-.13,1.19-.16,1.84-.31.5-.11,1.01-.19,1.53-.31s1.01-.19,1.53-.31,1-.19,1.53-.31.99-.18,1.53-.31c.42-.1.82-.21,1.22-.31.5-.12.98-.17,1.53-.31.42-.11.8-.19,1.22-.31.38-.1.72-.25.92-.31.41-.12.77-.17,1.22-.31.32-.1.62-.21.92-.31.32-.1.61-.2.92-.31s.59-.19.92-.31c.54-.22.9-.16,1.84-.61,3.76-1.55,7.28-2.98,8.26-7.34.14-.36.2-.49.31-.92.43-1.82.45-3.07,0-4.9-.11-.43-.16-.53-.31-.92-1.03-4.31-5.9-7.34-9.79-8.57-.38-.15-.56-.19-.92-.31-.31-.1-.56-.21-.92-.31-.51-.09-.94-.25-1.53-.31-1.78-.24-2.5-.24-4.28,0-.59.06-1.01.21-1.53.31-.36.1-.6.2-.92.31-.35.11-.53.15-.92.31-14.86,4.81-33.69,31.95-51.71,39.78-.41.15-.58.29-.61.31-.28.1-.64.22-.92.31-.3.09-.73.25-.92.31-.34.09-.83.28-.92.31-.38.09-.88.24-1.22.31-.48.1-1.07.23-1.53.31-.65.11-1.49.23-2.14.31-2.29.15-5.67.17-7.96,0-.54-.07-1.27-.21-1.84-.31-.2-.03-.8-.22-1.22-.31-.34-.07-.85-.21-1.22-.31s-.87-.2-1.22-.31c-.26-.08-.64-.21-.92-.31-.03,0-.19-.16-.61-.31-7.92-3.38-14.95-9.91-18.05-18.05-.09-.28-.25-.71-.31-.92-.1-.35-.23-.87-.31-1.22-.09-.39-.27-1-.31-1.22-.1-.54-.24-1.31-.31-1.84-.16-1.96-.15-5.08,0-7.04.06-.53.21-1.29.31-1.84.04-.21.22-.82.31-1.22.07-.35.21-.86.31-1.22.04-.16.21-.63.31-.92,3.18-8.76,10.25-15.31,18.67-18.97.41-.15.58-.29.61-.31.28-.1.65-.22.92-.31.3-.09.71-.25.92-.31.37-.1.85-.22,1.22-.31.39-.09.86-.23,1.22-.31.48-.1,1.04-.21,1.53-.31.6-.12,1.22-.19,1.84-.31,1.01-.16,1.98-.12,3.06-.31,1-.19,1.97-.09,3.06-.31.7-.12,1.41-.18,2.14-.31.6-.12,1.21-.19,1.84-.31.53-.09,1.02-.21,1.53-.31s1-.19,1.53-.31c.43-.09.82-.21,1.22-.31.43-.1.8-.19,1.22-.31s.79-.18,1.22-.31c.33-.1.6-.2.92-.31s.58-.18.92-.31c.28-.11.51-.14.92-.31.24-.1.46-.1.92-.31,6.91-2.83,11.73-6.5,14.38-13.77.2-.46.2-.63.31-.92.13-.34.2-.57.31-.92.12-.44.21-.77.31-1.22.09-.4.23-.77.31-1.22.16-.79.21-1.36.31-2.14.15-1.29.28-2.36.31-3.67.04-1.21.09-1.81,0-3.06-.07-.92-.13-1.53-.31-2.45-.12-.44-.09-.63-.31-1.22-1.02-3.14-3.63-4.35-4.59-7.04-.07-.21-.24-.94-.31-1.22-.09-.41-.25-1.14-.31-1.53-.16-1.22-.05-3.28,0-4.59.07-.63.2-1.51.31-2.14.03-.2.22-.83.31-1.22.08-.36.21-.85.31-1.22.04-.14.21-.58.31-.92.96-2.73,2.51-5.09,3.37-7.96.11-.32.2-.59.31-.92.11-.42.2-.81.31-1.22.21-.68.18-1.1.31-1.53.25-1.02.1-1.85.31-2.75.19-.72.2-1.55.31-1.84.58-1.63,3.46-5.1,5.2-5.51.37-.09,3-.09,3.37,0h-.07Z" style="fill: #fff;"/>
</svg>