<?xml version="1.0" encoding="UTF-8"?>
<svg id="Layer_1" xmlns="http://www.w3.org/2000/svg" version="1.1" viewBox="0 0 11.99 15.13">
  <!-- Generator: Adobe Illustrator 29.5.0, SVG Export Plug-In . SVG Version: 2.1.0 Build 137)  -->
  <path d="M4.12,7.05l2.21,2.26,1.47-.56-.29-3.56-1.7-.33-1.68,2.2h-.01Z" style="fill: #685a60;"/>
  <path d="M8.45,11.46c-.3-.33-.48-.75-.52-1.2l-.11-1.37-.83,1.08,1.46,1.49Z" style="fill: #8e7b56;"/>
  <path d="M6.61,3.79l1.15-1.5c.35-.48.89-.78,1.48-.83h.47L2.54.08c.4.1.77.31,1.04.62l3.03,3.1h0Z" style="fill: #6f4f75;"/>
  <path d="M10.96,4.79l-1.48,1.94,1.86,1.9c.22.21.4.47.5.76.06.15.09.3.12.45l-.53-6.42c0,.16,0,.31-.04.47-.07.34-.21.65-.43.91" style="fill: #468d95;"/>
  <path d="M7.47,4.67l-.08-1.01c-.04-.48.09-.96.38-1.35l-1.15,1.5.85.87h0Z" style="fill: #6d668d;"/>
  <path d="M11.88,9.47s-.02-.06-.03-.09c-.4-1.05-1.57-1.57-2.62-1.18l-1.24.47-.17.22.11,1.37c.09,1.12,1.07,1.95,2.19,1.86.16-.01.31-.04.46-.09,1.07-.35,1.65-1.49,1.31-2.56,0,0-.01,0-.01,0ZM9.97,10.88c-.45,0-.82-.37-.82-.82s.37-.82.82-.82.82.37.82.82-.37.82-.82.82Z" style="fill: #9a936b;"/>
  <path d="M10.96,4.79c-.47.57-1.22.83-1.95.69l-.93-.18,1.4,1.43s1.48-1.94,1.48-1.94Z" style="fill: #4a93a7;"/>
  <path d="M9.79,1.49h-.09c-.15-.02-.31-.03-.47,0-1.12.09-1.95,1.07-1.86,2.19l.08,1.01.61.63.93.18c1.1.21,2.16-.5,2.38-1.6.21-1.1-.5-2.17-1.6-2.38h.02v-.03ZM9.37,4.28c-.45,0-.82-.37-.82-.82s.37-.82.82-.82.82.37.82.82-.37.82-.82.82Z" style="fill: #599dbc;"/>
  <path d="M2.54.08l-.08-.02C1.36-.15.3.57.08,1.66c-.21,1.1.5,2.16,1.6,2.38l2.41.47v-2.46c0-.94-.64-1.76-1.55-1.98h0ZM2.07,2.88c-.45,0-.82-.37-.82-.82s.37-.82.82-.82.82.37.82.82-.37.82-.82.82Z" style="fill: #c64646;"/>
  <path d="M1.32,11.21c-1.05.4-1.57,1.57-1.18,2.62.4,1.05,1.57,1.57,2.62,1.18.79-.3,1.31-1.05,1.31-1.89v-2.95l-2.75,1.05h0ZM2.07,13.88c-.45,0-.82-.37-.82-.82s.37-.82.82-.82.82.37.82.82-.37.82-.82.82Z" style="fill: #a27366;"/>
  <path d="M5.81,4.85l.81-1.06L3.58.7c.33.37.52.86.52,1.36v2.46l1.71.33Z" style="fill: #925169;"/>
  <path d="M4.09,4.51v2.5l.03.04,1.68-2.2-1.71-.33h0Z" style="fill: #62403c;"/>
  <path d="M4.09,7.1v3.06l2.25-.86-2.21-2.26-.04.05h0Z" style="fill: #434f58;"/>
  <path d="M7.99,8.67l1.24-.47c.73-.28,1.55-.11,2.11.42l-1.86-1.9-1.5,1.95h.01Z" style="fill: #85827d;"/>
  <path d="M7.47,4.67l-.85-.87-.81,1.06,1.7.33s-.04-.52-.04-.52Z" style="fill: #8a6984;"/>
  <path d="M6.99,9.98l.83-1.08v-.15l-1.48.56.66.67h0Z" style="fill: #848579;"/>
  <path d="M4.09,4.51l-2.41-.47c-.37-.07-.71-.25-.99-.5l3.39,3.47v-2.5h.01Z" style="fill: #b24439;"/>
  <path d="M4.08,10.16v-3.06L.5,11.79c.22-.26.51-.46.83-.58l2.76-1.05h-.01Z" style="fill: #93605c;"/>
  <path d="M7.51,5.18l.57.11-.62-.63.04.52h.01Z" style="fill: #8591a3;"/>
  <path d="M6.33,9.3l-2.25.86v2.95c0,.41-.14.81-.37,1.15l3.28-4.28-.66-.67h0Z" style="fill: #608b7d;"/>
  <path d="M9.48,6.72l-1.4-1.43-.57-.11.29,3.56.18-.07s1.5-1.95,1.5-1.95Z" style="fill: #7c8b95;"/>
  <path d="M8.45,11.46l-1.46-1.49-3.28,4.28c-.22.32-.52.56-.88.71l7.74-2.94c-.76.24-1.59.02-2.13-.57" style="fill: #60835d;"/>
  <path d="M4.09,7.1v-.09L.69,3.54C.3,3.18.06,2.67.04,2.13l-.04,10.89c.02-.45.19-.89.48-1.24l3.59-4.69h.02Z" style="fill: #9c4135;"/>
  <polygon points="7.8 8.74 7.99 8.67 7.82 8.9 7.8 8.74" style="fill: #93957c;"/>
  <polygon points="4.09 7.01 4.12 7.05 4.09 7.1 4.09 7.01" style="fill: #51535b;"/>
  <circle cx="9.97" cy="10.06" r=".82" style="fill: #fff;"/>
  <circle cx="9.37" cy="3.46" r=".82" style="fill: #fff;"/>
  <circle cx="2.07" cy="2.06" r=".82" style="fill: #fff;"/>
  <circle cx="2.07" cy="13.06" r=".82" style="fill: #fff;"/>
</svg>