<?xml version="1.0" encoding="UTF-8"?>
<svg id="Layer_1" xmlns="http://www.w3.org/2000/svg" version="1.1" viewBox="0 0 321.43 320">
  <!-- Generator: Adobe Illustrator 29.5.0, SVG Export Plug-In . SVG Version: 2.1.0 Build 137)  -->
  <g>
    <path d="M300.72,32h-110.92V5.85L7.48,34v246.67l182.33,31.4v-38.73h110.92c7.37,0,13.35-5.37,13.35-12V44c0-6.63-5.98-12-13.35-12h0ZM302.48,263.33h-113.04l-.18-20.69h27.23v-24.09h-27.44l-.13-14.24h27.57v-24.09h-27.78l-.13-14.24h27.91v-24.09h-28v-14.24h28v-24.09h-28v-14.24h28v-24.09h-28v-21.89h114v220h0Z" style="fill: #20744b; fill-rule: evenodd;"/>
    <rect x="231.81" y="65.22" width="47.33" height="24.09" style="fill: #20744b;"/>
    <rect x="231.81" y="103.55" width="47.33" height="24.09" style="fill: #20744b;"/>
    <rect x="231.81" y="141.89" width="47.33" height="24.09" style="fill: #20744b;"/>
    <rect x="231.81" y="180.22" width="47.33" height="24.09" style="fill: #20744b;"/>
    <rect x="231.81" y="218.55" width="47.33" height="24.09" style="fill: #20744b;"/>
  </g>
  <polygon points="55.08 100.62 78.58 99.28 93.35 139.9 110.8 97.6 134.3 96.26 105.77 153.92 134.3 211.73 109.46 210.05 92.68 165.99 75.89 208.37 53.07 206.36 79.58 155.3 55.08 100.62" style="fill: #fff; fill-rule: evenodd;"/>
</svg>