<?xml version="1.0" encoding="UTF-8"?>
<svg id="Layer_1" xmlns="http://www.w3.org/2000/svg" version="1.1" viewBox="0 0 256 329">
  <!-- Generator: Adobe Illustrator 29.5.0, SVG Export Plug-In . SVG Version: 2.1.0 Build 137)  -->
  <path d="M76.5,203.35c-9.75-7.67-20.15-15.02-27.26-25.38-14.96-18.26-26.48-39.4-34.35-61.62-4.76-14.45-6.39-29.94-12.53-43.83-6.41-10.09,1.1-21.11,12.16-24.32,4.92-.95,13.57-5.59,3.13-2.27-9.36,6.87-10.27-6.24-.67-7.07,6.55-.87,8.96-6.23,6.72-11.06-7.04-4.59,17.05-9.63,4.93-16.47-12.62-13.62,17.66-16.24,10.19-.77-1.79,11.9,21.17-2.18,15.84,11.55,5.42,6.6,20.27,1.5,19.9,10.76,7.89.54,10.59,7.17,17.99,7.68,7.68,3.47,21.58,6.19,24.19,14.84-7.61,6.02-25.23-12.44-26.08,4.23,2.3,24.64,1.71,50.02,10.73,73.48,4.26,14.2,14.6,25.38,23.93,36.45,8.93,10.83,21.03,18.47,33.36,24.89,10.82,5.1,22.48,8.48,34.26,10.61,4.78-3.66,13.22-17.25,20.68-11.52.36,6.45-14.8,13.47-.71,12.76,8.28-2.5,14.01,6.39,20.83-1.63,6.28,7.44,26.09-4.75,21.62,10.45-6.04,3.9-14.85,1.54-20.9,6.91-9.97-4.98-17.91,4.45-28.96,3.26-12.26,2.2-24.74,3.08-37.17,3.1-20.4-1.61-41.22-2.29-60.62-9.39-10.93-3.18-21.6-9.4-31.2-15.63h-.01ZM93.72,210.82c10.67,4.61,21.11,9.47,32.81,10.95,18.56,2.58,37.72,6.55,56.35,2.93-8.43-3.8-17.15,1.48-25.54-2.72-10.07,2.16-20.88-.56-31.12-1.9-11.64-5.18-24.21-8.75-35.11-15.48-13.63-4.98,7.04,6.38,10.72,7.31,8.51,4.83-9.36-2.48-11.89-4.49-7.13-4-8.04-3.17-.7.9,1.48.86,2.94,1.77,4.48,2.51h0ZM73.41,196.47c10.35,3.83-.05-7.27-4.78-6.63-2.1-3.64-8.02-5.94-3.85-7.9-7.51,2.61-7.87-9.92-11.4-8.13-7.95-2.51-3.09-11.4-12.57-16.87-.86-5.76-9.41-10.74-12.13-19.42-1.2-4.45-9.66-17.2-4.47-5.33,4.42,11.43,12.2,21.23,18.67,31,5.02,9.31,10.96,19.05,20.11,24.86,3.09,2.96,6.06,7.49,10.42,8.42h0ZM43.62,163.75c.36-1.56,1.89,3.38,0,0h0ZM85.81,201.06c2.29-1.03-3.3-1.29,0,0h0ZM91.42,203.1c-.58-2.83-2.56,1.58,0,0h0ZM98.45,206.03c3.34-3.19-5.16-2.01,0,0h0ZM110.49,212.75c2.03-3-6.51-1.13,0,0h0ZM87.36,196.62c5.19-3.36-6.72-.05,0,0h0ZM92.63,199.25c-.15-1.77-1.88.8,0,0h0ZM118.98,215.7c4.24,2.68,24.74,5.86,11.9,1.1-2.15.45-23.8-6.13-11.9-1.1h0ZM77.16,183.12c-.41-1.78-6.58-1.97,0,0h0ZM89.42,190.27c3.2-2.23-6.62-1.72,0,0h0ZM99.73,196.6c4.58-1.73-7.43-1.73,0,0h0ZM72.16,177.69c4.97,3.81,20.05.49,7.61-2.27-5.66-3.01-18.41-5.08-9.72,1.82l2.1.46h.01ZM106.73,198.78c2.07-3.53-8.68-2.02,0,0h0ZM96.22,190.44c12.15,3.43-10.22-7.69-3-1.27l1.6.73,1.4.54h0ZM117.28,202.61c11.51.11-10.4-1.59,0,0h0ZM67.73,171.03c-.45-2.14-2.84.18,0,0h0ZM136.75,213.53c.31-3.87-3.75,2.88,0,0h0ZM87.38,183.05c-.7-2.04-3.6-.09,0,0h0ZM68.82,169.68c6.61-.4-9.05-2.91,0,0h0ZM46.85,155.48c-.82-3.17-7.19-5.69,0,0h0ZM104.54,192.09c-1.21-1.38-.57.3,0,0h0ZM140.45,214.13c-.11-2.11-1.96.8,0,0h0ZM101.36,188.81c.65-2.72-5.64-.83,0,0h0ZM74.61,171.85c4.92-.52-7.88-3.32,0,0h0ZM119.86,199.97c7.66-3.03-7.47-1.48,0,0h0ZM96.33,184c8.83,1.14-10.51-6.01-1.94-.64l1.94.64h0ZM127.01,202.86c8.25-4.92,5.53,11.54,13.99,1.39,8.34-6.09-7.21,7.53,3.07,1.09,7.44-4.98,18.43,2.36,25.36,4.75,4.99-.24,9.84,4.32,14.96,1.54,9.85-2.65-19.26-3.94-11.63-8.64-9.01,2.62-15.67-3.13-20.1-8.9-10.11-2.34-21.79-7.5-26.84-16.45-2.06-3.35,2.97.48-1.78-5.02-6.09-5.42-9.13-11.57-13.22-18.15-4.88-2.6-5.46-10.27-5.95-.25.04-6.32-5.9-10.58-7.35-8.82-.03-6.09,6.36-3.03,1.89-7.54-.96-6.31-4.13-12.89-5.08-20.02-1.48-3.43-.21-10.79-5.05-3.01-1.76,8.22-.58-10.1,2.16-4.06,3.6-6.16-1.3-5.43-1.49-4.58,2.34-5.2,1.48-12.58-.61-9.76,1.25-5.51,1.98-20.28-1.86-17.66,2.33-5.77,4.41-26.38-5.7-18.52-4.09.06-11.19,1.48-14.54,3.15,10.51,5.79-1.06,2.09-5.34,1.17-.56,5.36-4.79,3.05-10.09,3.1,8.46,1.05-4.12,8.65-8.96,5.7-6.3,3.01,5.43,10.53.12,12.85.65,3.5-9.65-1.27-8.85,6.83-6.12-2.58-.84,9.6,2.22,5.48,10.4,2.82,7.32,9.23,7.58,15.33-1.69,3.55-8.37-8.35-1.48-7.8-5.43-8.82-6.01-3.19-10.52.91-1.05.29,11.51,5.83,3.63,8.57,6.93,1.07,7.13,7.14,8.55,10.98,4.16,4.34,3.31-4.79,8.3.43-3.16-4.65-16.71-13.1-5.8-10.39-.06-4.68-1.98-8.45,1.37-8.36,3.32-6-3.47,14.79,4,7.17,2.07-.9,2.58-6,6.3.48,5.39,5.31,1.95,9.15-5.66,4.29,1.36,4.62,10.18,6.27,8.52,13.5,1.76,6.36,4.22,4.01,6.36,3.65,1.68,6.17,2.64,1.64,2.72-1.31,7.7,1.65,5.89,6.2,8.3,9.38,5.3,2.39-7.59-16.22,1.51-5.6,9.58,8.65,3.6,12.26-5,10.87,5.44-.44,7.19,7.36,14,7.08,6.21,2.95,10.41,14.29-.29,9.57-3.71-3.35-16.85-7.47-6.11-1.11,9.9,4.59,17.77,7.33,27.33,13.09,6.83,4.88,9.79,10.47,12.38,11.57-5.75,2.75-17.31-2.19-8.72-3.7-5.36-.97-11.39-3.69-6.26,2.99,4.37,3.65,15.46,3.26,17.46,3.67-1.69,3.71-4.58,4.01.07,4.3-5.19,2.77,1.67,3.2,2.14,4.77h-.01ZM116.4,172.91c-3.16-3.3-3.98-9.48-.56-4.11,1.75.71,5.6,10.1.56,4.11h0ZM150.95,194.85c1.97-.13.06,1.5,0,0h0ZM111.42,164.81c-.13-4.99,1.14,3.85,0,0h0ZM107.99,160.19c-3.98-7.67,5,2.17,0,0h0ZM66.37,131.48c2.34-.62,1.15,3.99,0,0h0ZM99.49,149.42c1.43-5.38,1.68,4.51,0,0h0ZM76.1,133.15c-1.65-2.97,3.45,2.79,0,0h0ZM96.17,139.59c-3.76-8.42,2.67-4.6.84,1.38l-.84-1.38h0ZM61.55,116.5c-1.68-2.77-4.46-10.87-3.56-13.35.8,4.03,8.57,17.35,3.8,5.52-5.26-9.92,6.3,3.22,7.49,5.69.56,2.46-3.25-.67-.67,5.1-4.7-6.57-2.77,3.63-7.05-2.96h-.01ZM50.85,109.12c.44-6.43,2.45,4.41,0,0h0ZM55.66,110.78c2.3-4.85,3.89,6.76,0,0h0ZM44.08,101.83c-3.98-3.96-6.87-7.61.19-2.46,2.71.1-6.04-8.3.65-2.67,7.04,1.28,3.47,11.54-.84,5.13h0ZM50.16,101.67c2.32-2.3,1.23,2.26,0,0h0ZM53.91,102.87c-3.51-6.57,4.26,2.76,0,0h0ZM46.47,95.76c-11.58-10.31,14.55,5.39,1.89,1.91l-1.89-1.91h0ZM79.65,115.03c-5.02-3-1.33-21.15.38-8.74,4.87-1.58-.27,6.41,3.36,6.34-.57,5.04-2.2,6.85-3.74,2.41h0ZM91.93,122.29c.49-5.47,1.03,3.74,0,0h0ZM89.8,120.18c.55-2.33.05,2.75,0,0h0ZM48.74,92.37c-7.44-10.27,21.62,10.38,4.77,2.6-1.76-.46-3.88-.63-4.77-2.6h0ZM72.37,104.9c-.7-8.64,1.57,1.43,0,0h0ZM90.32,116.41c1.39-4.92.11,3.26,0,0h0ZM49.88,88.45c4.42-.95,18.32,7.76,5.56,2.49-1.42-1.57-4.45-.86-5.56-2.49h0ZM87.85,107.38c.47-8.84,2.64-5.28.02,1.27l-.02-1.27h0ZM53.17,85.37c1.8-2.64-4.79-11.95.95-3.34,2.48,1.97,7.17,3.3,3.03,4.13,6.52,5.75-1.59,1.56-3.98-.79h0ZM85.98,104.62c1.24-10.07,1.1,5.9,0,0h0ZM49.4,76.08c1.38-.59.73,1.84,0,0h0ZM57.96,81.17c2.2-4.62,4.06,5.15,0,0h0ZM82.1,94.59c-.02-1.77.46,2.58,0,0h0ZM80.7,91.5c-3.35-8.27,3.12,4.37,0,0h0ZM78.65,86.08c-.56-3.41,1.91,4.29,0,0h0ZM81.99,80.64c-2.3-4.05,2.9-17.85,3.49-9.29-2.43,6.67-.7,10.4.99,1.45,3.13-7.04-.67,13.9-4.47,7.84h0ZM85.43,60.11c1-1.23.22,1.48,0,0h0ZM79.69,173.32c-1.36-1.19.18.75,0,0h0ZM91.52,179.31c6.58,1.69,6.55-1.02.6-1.83-3.2-2.97-13.3-6.13-4.26-.37.6,1.52,2.49,1.48,3.66,2.2h0ZM68.15,163.78c3.62,2.71,13.66,7.66,5.17,1.03,2.86-3.33-5.48-5.1-2.71-7.33-7.04-4.31-5.56-3.92-.62-3.79-8.46-3.79,1.22-3.5.77-5.44-3.26-.64-16.21-5.76-8.59.42-7.74-3.94-1.84,1.47-4.18.9-7.92-2.16,7.05,6.03-1.26,4,4.54,3.6,12.22,9.22,1.92,3.8-1.35,1.96,7.38,4.92,9.52,6.4h-.02ZM80.53,170.9c15.05,4.85-7.38-5.93,0,0h0ZM143.89,209.28c.2-2.99-2.05,2.55,0,0h0ZM150.41,212.02c3.47-3.36.14,5.36,5.75-.82.06-4.43-.17-7.04-6.45-1.66-1.73.96-2.5,5.04.69,2.49h0ZM47.02,147.1c-1.07-4.19-7.47-4.17,0,0h0ZM53.97,151.65c-2.58-4.28-9.21-3.88,0,0h0ZM93.54,175.51c3.87,3.43,17.74,2.52,4.69.43-1.93-2.86-12.27-2.17-4.69-.43h0ZM147.93,209.11c5.94-4.99-5.76,2.22,0,0h0ZM160.29,217.6c.04-1.6-2.56.7,0,0h0ZM160.31,215.36c6.58-6.97-6.38.41,0,0h0ZM29.92,132.78c-5.61-8-3.49-11.6-8.9-18.14-1.03-5-9.29-16.34-4.27-4.33,4.59,7.03,5.95,17.91,13.17,22.47h0ZM158.25,213.14c12.12-7.83-4.97-3.41,0,0h0ZM167.49,216.76c6.07-5.21-3.84-1.09,0,0h0ZM44.96,138.25c1.73-2.58-4.48-.33,0,0h0ZM165.56,214.29c5.87-3.78-1.35-3.2-1.06.35l1.06-.35h0ZM85.87,164.06c-.2-2.56-3.11.22,0,0h0ZM90.79,166.89c-1.57-3.17-2.41.5,0,0h0ZM174.99,216.85c7.53-5.43-4.56-1.04-1.58,1.03l1.58-1.03h0ZM172.1,215.46c6.13-5.13-6.47,2.27,0,0h0ZM186.83,225.26c4.11-2.75-5-.89,0,0h0ZM48.74,136.38c5.51,1.24,22.04,13.58,12.29.86-5-1.48-2-13.69-7.09-11.53,3.42,5.72,2.81,8.14-4.37,4.54-9.02-4.41-5.07,2.18-3.3,4-2.41.55,3.18,2.09,2.47,2.13h0ZM23.61,116.54c.99-4.09-9.1-22.47-4.76-9.21,1.56,2.78,1.4,8.04,4.76,9.21h0ZM69.73,144.98c-2.84-2.37-.14-.34,0,0h0ZM76.72,146.61c0-4.33-7.73-1.76,0,0h0ZM137.34,184.81c-1.16-2.96-4.57-.07,0,0h0ZM140.25,186.94c-.43-1.65-1.68.32,0,0h0ZM164.28,202.08c2.31-1.71-2.88-.22,0,0h0ZM36.16,119.74c6.61-2.56-7.08-1.82,0,0h0ZM132,180.12c-.08-4.28-4.22,1.07,0,0h0ZM33.55,113.66c4.24-1.43-3.93-.94,0,0h0ZM45.87,119.62c-.07-1.4-1.3.54,0,0h0ZM196.17,211.79c5.46-1.1,17.9,2.78,19.91-1.44-6.63-.16-22.93-4.68-23.7,1.07l1.45.23,2.34.14h0ZM49.78,120.61c.1-4.34-3.38-.16,0,0h0ZM17.39,98.14c-1.47-8.26-5.6-1.25,0,0h0ZM25.11,100.08c.1-2.65-7.07-2.39,0,0h0ZM29.53,102.25c-1.28-1.03-.99,1.3,0,0h0ZM57.31,120.07c1.31-1.2-3.1-.89,0,0h0ZM26.59,97.36c-.75-6.24-8.95-.94,0,0h0ZM10.74,87.08c-.22-2.88-1.54,1.08,0,0h0ZM13.11,85.3c-.39-3.41-2.03.43,0,0h0ZM26.12,93.07c5.51-2.16-10.03-4.47-1.12-.41l1.12.41h0ZM200.34,200.69c3.52-3.23-4.47-1,0,0h0ZM221.39,211.6c1.41-4.17-3.56.55,0,0h0ZM27.45,86.25c.58-4.04-4.37.8,0,0h0ZM8.93,73.84c-.99-5.7-.86-15.71,8.66-12.33-12.7,2.52,8.8,15.79,6.08,5.31,5.34.26,10.45-3.16,7.64,2.03,10.53-1.16,17.82-10.29,27.99-9,7.92-1.05,16.58-1.84,25.11-5.04,7.02-.5,13.77-8.06,9.93-12.54-9.57-.81-19.59.39-30.16,2.49-11.72,2.43-22.36,7.06-34.19,9.05-11.53,1.55,2.32,4.26-.99,4.87-6.01,2.09,7.17,3.49-.78,5.69-4.91-.93-10.02-2.62-7.92-7.8-11.04,1.44-20.74,6.02-12.02,17.25h.65v.02ZM35.54,60.29c2.58-9.53,13.86,7.85,4.24,1.27-1.15-.86-3.04-1.56-4.24-1.27h0ZM36.04,55.67c3.73-2.78,1.98,1.56,0,0h0ZM40.78,55.75c.34-4.39,10.86,2.32,1.73,1.58l-1.73-1.58h0ZM47.26,53.14c2.37-2.77.69,2.46,0,0h0ZM48.93,52.03c3.95-4.74,22.34-3.03,8.88-.47-3.61-2.72-6.37,1.6-8.88.47h0ZM72.94,48.32c-.59-12.96,11.93,4.6,0,0h0ZM79.75,48.28c2.49-6.53,9.67-2.62,1.16-1.31.18.7-.25,3.37-1.16,1.31h0ZM24.76,82.9c7.44-4.56-7.9-3.96,0,0h0ZM30.27,84.43c2.61-2.77-5.68-1.12,0,0h0ZM14.05,72.92c4.25-3.27-5.04-1.24,0,0h0ZM233.82,210.41c.12-3.79-3.25,1.71,0,0h0ZM211.49,195.16c.63-4.36-2.87.38,0,0h0ZM239.96,211.88c5.94.02,18.01-1.85,5.08-1.84-2.03.31-11.83.25-5.08,1.84h0ZM35.11,81.75c4.81-.33,7.53-5.3-.94-5.02-13.11-1.35,11.57,4.49-1.68,2.82-1.78,1.18,2.51,2.53,2.62,2.2h0ZM39.35,83.9c-.5-3.09-1.49,1.64,0,0h0ZM44.38,70.49c2.09-2.59-2.89-.69,0,0h0ZM28.37,43.74c8.59-2.92,20.34-6.2,24.39,1.44-4.13-4.96-1.67-9.85,2.23-2.59,5.51,7.34,8.27-3.34,4.69-5.81,4.09,5.07,8.73,7.47,2.73.32,6.52-7.84-13.05,1.03-17.49.93-2.14.96-22.09,5.09-16.55,5.7h0ZM33.4,34.1c4.9-3.69,16.94,2.2,9.21-3.68-.76-.67-16.92,4.46-9.21,3.68h0ZM51.26,34.84c5.73.14-2.47-7.7,4.36-4.15-1.12-3.66-7.95-4.35-11.29-5.81-1.89,3.35,3.84,10,6.94,9.96h0ZM36.53,18.63c1.98-2.69-3.48,1.37,0,0h0ZM43.83,20.38c9.24-1.22-2.36-3.98-1.86-.1l1.86.1h0ZM30.21,9.72c-6.51-8.49,12.24,1.43,5.62-7.47-5.56-4.43-10.91,4.99-5.62,7.47h0ZM113.68,54.67c2.98-5.28-12.31-7.13-2.01-1.87.95.31.73,2.24,2.01,1.87h0Z" style="fill: #fff;"/>
  <g>
    <path d="M53.11,251.49c-.66,2.61-1.07,6.98-1.22,13.12,0,1.21-.54,1.81-1.63,1.81s-1.85-.53-2.28-1.58c-1.17-2.84-2.27-4.82-3.32-5.95-1.24-1.32-2.89-2.12-4.96-2.39-2.21-.35-7.73-.53-16.56-.53-2.02,0-3.34.21-3.96.64-.39.27-.58.85-.58,1.75v26.41c0,.89.56,1.32,1.69,1.28,3.46-.04,8.47-.28,15.04-.7,1.28-.16,2.15-.57,2.6-1.26.45-.68.89-2.44,1.31-5.28.27-1.55,1.19-2.16,2.74-1.81,1.32.27,1.89.87,1.69,1.81-1.09,5.29-1.44,12.17-1.05,20.64.04,1.01-.6,1.55-1.92,1.63-1.09.12-1.77-.47-2.04-1.75-1.01-4.86-2.89-7.45-5.62-7.79-2.74-.33-7.2-.49-13.38-.49-.7,0-1.05.25-1.05.76v26.24c0,1.94.72,3.27,2.15,3.96,1.13.58,3.56,1.11,7.29,1.58,1.91.19,2.74,1.03,2.51,2.51-.24,1.28-1.94,1.79-5.13,1.52-9.21-.74-16.81-.7-22.79.12-1.67.23-2.51-.45-2.51-2.04,0-1.01.83-1.6,2.51-1.75,3.81-.43,5.71-3.77,5.71-10.03v-49.91c0-2.56-.46-4.53-1.37-5.91-.92-1.38-2.62-2.64-5.1-3.76-1.55-.7-2.14-1.65-1.75-2.86.19-.74.51-1.15.93-1.22.39-.12,1.42-.04,3.09.23,2.45.39,8.22.58,17.32.58,10.73,0,20-.24,27.81-.7,2.6-.16,3.91.06,3.91.64,0,.16-.02.31-.06.47h-.02Z" style="fill: #fff;"/>
    <path d="M90.92,325.5c0,1.55-.87,2.23-2.62,2.04-5.36-.51-12.01-.43-19.94.23-1.6.16-2.57.12-2.95-.11-.37-.24-.55-.87-.55-1.93,0-.93,1.06-1.72,3.17-2.36,2.12-.64,3.18-2.55,3.18-5.74v-52.76c0-3.15-.46-5.46-1.37-6.94-.92-1.48-2.52-2.62-4.81-3.44-1.21-.43-1.81-1.03-1.81-1.81,0-1.17.87-2.04,2.62-2.62,2.64-.86,5.39-2.17,8.22-3.96,2.33-1.4,3.81-2.1,4.43-2.1,1.44,0,2.16.99,2.16,2.97,0-.15-.08,1.79-.24,5.83-.11,3.85-.15,7.64-.11,11.37l.23,52.06c0,2.37.58,4.09,1.75,5.16s3.17,1.78,6,2.13c1.75.19,2.62.85,2.62,1.98h.02Z" style="fill: #fff;"/>
    <path d="M143.64,322.06c0,.82-1.49,2.05-4.46,3.7-2.98,1.65-5.36,2.48-7.14,2.48-1.52,0-2.86-.74-4.02-2.21-1.17-1.48-1.98-2.21-2.45-2.21-.35,0-2.19.8-5.54,2.39-3.34,1.6-6.7,2.39-10.08,2.39-3.19,0-5.85-.93-7.99-2.8-2.33-2.06-3.5-4.86-3.5-8.4,0-6.72,7.7-11.54,23.09-14.46,2.64-.51,3.98-1.58,4.02-3.21l.12-3.73c.23-6.37-2.58-9.56-8.45-9.56-1.67,0-3.25,1.49-4.75,4.49-1.49,3-3.64,4.61-6.44,4.84-3.19.31-4.78-1.03-4.78-4.02,0-1.87,2.37-4.04,7.11-6.53,4.98-2.6,9.76-3.91,14.34-3.91,7.89,0,11.79,3.75,11.72,11.25l-.24,24.02c-.04,2.53,1.03,3.79,3.21,3.79.43,0,1.25-.1,2.45-.29,1.21-.19,1.91-.29,2.1-.29,1.13,0,1.69.76,1.69,2.27h0ZM125.69,308.77c.04-.97-.19-1.62-.67-1.92-.49-.31-1.25-.37-2.3-.18-9.37,1.67-14.05,4.72-14.05,9.15s2.43,6.7,7.29,6.7c1.94,0,3.95-.37,6-1.1,2.41-.86,3.62-1.89,3.62-3.09l.12-9.56h-.01Z" style="fill: #fff;"/>
    <path d="M186.99,315.36c0,4.12-1.59,7.4-4.75,9.83-3.17,2.43-7.49,3.64-12.97,3.64-3.65,0-7.31-.39-10.96-1.17-3.15-.7-4.98-1.34-5.48-1.92-.31-.55-.47-3.21-.47-7.99,0-2.06.47-3.13,1.4-3.21.93-.12,1.73.39,2.39,1.51,2.91,5.09,7.62,7.64,14.11,7.64,5.48,0,8.22-1.91,8.22-5.72,0-1.67-.62-3.07-1.87-4.19-1.36-1.28-4-2.78-7.93-4.49-5.68-2.53-9.47-4.74-11.37-6.65-2.06-2.02-3.09-4.74-3.09-8.16,0-4.2,1.61-7.46,4.84-9.79,2.99-2.26,7-3.38,12.01-3.38,3.15,0,6.02.25,8.63.76,2.8.51,4.26,1.13,4.37,1.87.31,2.17.95,5.32,1.92,9.45.12.5-.43.91-1.63,1.22-1.28.27-2.14.06-2.57-.64-3.07-5.02-6.96-7.52-11.66-7.52-5.32,0-7.99,1.71-7.99,5.13,0,1.91.72,3.42,2.16,4.55,1.28.97,4.29,2.49,9.04,4.55,4.97,2.14,8.36,4.06,10.15,5.77,2.33,2.21,3.5,5.19,3.5,8.92h0Z" style="fill: #fff;"/>
    <path d="M255.58,325.56c0,1.36-.92,2.08-2.74,2.16-2.72.04-6.28.23-10.67.58-2.18.43-3.73.16-4.66-.81-6.14-6.61-11.35-13.53-15.63-20.76-.35-.62-.79-.93-1.34-.93-.66,0-1.81.58-3.44,1.75-1.83,1.01-2.74,2.45-2.74,4.31,0,1.32.04,3.23.12,5.72s.7,4.12,1.86,4.89c.82.55,2.71.97,5.66,1.28,1.83.23,2.74.91,2.74,2.04,0,.9-.15,1.45-.44,1.66-.29.21-1.06.26-2.3.15-3.89-.35-10.45-.15-19.7.58-2.33.19-3.6-.1-3.79-.87-.08-.27-.12-.66-.12-1.17,0-1.2,1.19-2.12,3.56-2.74,2.14-.55,3.21-3.05,3.21-7.52v-50.96c0-3.19-.31-5.4-.93-6.64-.85-1.6-2.64-2.84-5.36-3.73-1.28-.42-1.92-1.03-1.92-1.81,0-1.13.92-2,2.74-2.62,2.92-.97,5.69-2.31,8.34-4.02,2.14-1.4,3.46-2.1,3.96-2.1,1.6,0,2.39,1.01,2.39,3.03,0-.27-.02,1.65-.06,5.77-.04,2.84-.06,6.65-.06,11.43l.12,36.49c0,1.01.27,1.51.81,1.51.58,0,1.48-.5,2.68-1.51,3.23-2.53,7.19-5.83,11.89-9.91.93-.97,1.4-1.75,1.4-2.33,0-1.05-1.57-1.79-4.72-2.21-1.36-.16-2-.92-1.93-2.28.12-1.36.8-1.94,2.04-1.75,2.8.39,6.88.6,12.24.64,3.73.04,7.45.06,11.14.06,1.2.04,1.81.76,1.81,2.16,0,1.32-.95,2.04-2.85,2.16-3,.11-5.81.79-8.45,2.04-3.69,1.67-7.64,4.6-11.84,8.8-.31.23-.47.53-.47.87,0,.54.66,1.85,1.98,3.91,4.86,7.38,9.45,12.96,13.76,16.73,2.76,2.37,5.34,3.55,7.75,3.55,1.79,0,2.9.13,3.32.38.43.25.64.92.64,2.01h0Z" style="fill: #fff;"/>
  </g>
</svg>