<?xml version="1.0" encoding="UTF-8"?>
<svg id="Layer_1" xmlns="http://www.w3.org/2000/svg" version="1.1" viewBox="0 0 240.26 351.49">
  <!-- Generator: Adobe Illustrator 29.5.0, SVG Export Plug-In . SVG Version: 2.1.0 Build 137)  -->
  <polygon points="240.26 0 240.26 45.36 153.19 64.68 117.28 0 240.26 0" style="fill: #f2a82d;"/>
  <polygon points="117.28 0 117.28 73.19 153.19 64.68 117.28 0" style="fill: #c67c00;"/>
  <polygon points="117.28 73.19 214.72 177.36 153.19 64.68 117.28 73.19" style="fill: #e7a929;"/>
  <polygon points="78.89 38.72 117.28 73.19 117.28 0 78.89 38.72" style="fill: #754400;"/>
  <polygon points="23.49 93.62 78.89 38.72 117.28 73.19 23.49 93.62" style="fill: #693d00;"/>
  <polygon points="15.77 177.36 0 177.36 23.49 93.62 15.77 177.36" style="fill: #965a00;"/>
  <polygon points="117.28 73.19 116.72 177.36 15.77 177.36 23.49 93.62 117.28 73.19" style="fill: #854d00;"/>
  <polygon points="116.72 177.36 214.72 177.36 117.28 73.19 116.72 177.36" style="fill: #b86800;"/>
  <polygon points="116.72 235.32 116.72 177.36 15.77 177.36 15.57 185.53 116.72 235.32" style="fill: #8d5300;"/>
  <polygon points="15.57 185.53 116.72 235.32 7.24 319.43 15.57 185.53" style="fill: #a16001;"/>
  <polygon points="116.72 351.49 116.72 235.32 7.24 319.43 116.72 351.49" style="fill: #c27a00;"/>
  <polygon points="15.77 177.36 15.57 185.53 0 177.36 15.77 177.36" style="fill: #c77902;"/>
</svg>