<?xml version="1.0" encoding="UTF-8"?>
<svg id="Layer_1" xmlns="http://www.w3.org/2000/svg" version="1.1" viewBox="0 0 200 200">
  <!-- Generator: Adobe Illustrator 29.5.0, SVG Export Plug-In . SVG Version: 2.1.0 Build 137)  -->
  <path d="M107,0c6.3,3.76,13.66,4.79,20.32,8.18,10.05,5.12,20.55,14.28,25.39,24.61,2.42,5.17,3.11,12.41,6.29,16.71s11.61,6.72,16.48,10.52c8.5,6.63,15.14,18.3,18.56,28.44,2.14,6.35,2.42,13.92,5.97,19.53v24c-5.12,36.64-40.77,63.14-76,68h-19c-3.47-2.83-8.27-3.29-12.36-5.14-8.32-3.76-15.44-8.62-21.67-15.33-3.15-3.4-7.18-10.93-11.05-12.95-4.86-2.55-11.13-1.05-16.32-1.68-16.09-1.97-27.1-14.62-33.47-28.53C5.92,127.12,4.26,117.16,0,108v-19C6.41,46.37,46.33,6.6,89,0h18Z" style="fill: #f0f0f0;"/>
  <path d="M63,16c1.97-.51,3.24.25,2.12,1.94C36.05,34.86,5.83,66.31,8.5,102.4c1.66,22.39,13.52,52.19,38.69,55.2,13.49.21,19.99.64,26.8,13.4.86-.42,1.17-.05,1,1,2.35,3.6,5.35,6.7,9,9,4.23,2.39,8.74,4.61,13.53,6.67l.47,1.33c8.87,3.06,18.21,3.73,28,2,.1-.71.24-1.3.58-1.44,2.43-1.01,11.49-3.7,14.17-4.28.35-.08.79.26,1.25.72,3.61-.99,7.1-2.6,10-5l.92-1.83c19-11.51,34.88-30.02,37.74-52.64l1.34-1.53c.43-8.09-.5-16.06-2-24-2.45-3.19-4.3-9-4-13-1.31-3.52-2.95-6.85-5-10-1.47.81-2.88-1.62-2-3-.96-1.76-1.2-2.48,1-2,11.66,15.52,17,39.08,13.72,58.22-8.09,47.25-78.63,84.93-116.76,47.32-8.19-8.08-7.86-16.84-21.58-18.42-17.08-1.96-24.97-1.38-35.78-17.22C-12.95,95.25,17.74,40.29,63,15.99h0Z" style="fill: #e1e1e1;"/>
  <path d="M180,73l-1,2c-2.78-1.78-5.53-4.05-8.24-6.79-13.71-7.3-21.77-12.95-25.05-29.21-10.83-22.63-37.92-33.49-61.71-28C47.85,24.39,5.58,62.97,10.41,104.73c2.33,20.18,13.1,48.11,35.93,51.06,7.49-.58,14.05.49,19.67,3.2,3.46,2.28,7.41,8.23,8,12-3.64-3.71-6.61-9.71-11.27-11.23s-8.62-.3-13.11-.89c-18.48-2.42-28.5-12.99-35.39-29.61C-5.93,80.6,23.4,44.39,62.01,18.47c1.48-.99,3,.42.99-2.47C90.68,1.14,122.89,1.82,143.53,27.97c7.29,9.24,6.58,21.47,15.54,28.46s12.79,5.73,20.93,16.57Z" style="fill: #e0e0e0;"/>
  <path d="M179,75c.52.62,1.3,2.04,2,3,2.03,3.13,3.7,6.5,5,10,1.33,4.17,2.89,8.82,4,13,1.5,7.92,2.44,15.91,2,24-3.81,25.45-17.87,43.55-40,56-2.91,2.41-6.37,4-10,5-5.96,2.61-9.69,3.72-16,5-9.28.93-19.25,1.83-28-2-5.83-1.69-9.5-3.92-14-8-3.63-2.27-6.68-5.42-9-9-.33-.34-.67-.66-1-1l-8-12c.33-.74.99-.74,2,0l1.24-.11c9.23,15.26,21.07,26.1,38.76,30.11,4.65.45,9.35.41,14,0,21.07-4.84,39.87-15.3,54-32-.96-1.85.93-4.45,3-4,3.77-5.99,6.79-12.27,9-19,3.68-23.35-1.23-53.29-21.9-67.25-12.94-5.53-19.05-13.51-21.96-27.17-6.89-16.07-24.31-24.67-40.14-28.58-4.57-1.03-9.42-1.06-14,0-.74,1.56-3.64,2.06-5,1-.95.05-1.32.01-1-1,25.88-7.09,52.88,5.26,63.48,30.02,3.76,8.78,1.62,12.56,11.2,18.8,8.78,5.71,12.91,6.24,20.32,15.18Z" style="fill: #d5d5d5;"/>
  <path d="M126,191c-8.76,1.78-14.69,2.3-23.65.15-1.61-.39-3.38-.6-4.35-2.15,9.15,2.65,18.55,2.03,28,2Z" style="fill: #e0e0e0;"/>
  <path d="M192,125l-2-24c2.56,9.62,3.46,14.2,2,24Z" style="fill: #e0e0e0;"/>
  <path d="M84,181c-3.56-1.13-7.9-5.49-9-9,2.69,2.72,6.32,6.57,9,9Z" style="fill: #e0e0e0;"/>
  <path d="M186,88l-5-10c3.3,4.56,3.26,4.52,5,10Z" style="fill: #e0e0e0;"/>
  <path d="M152,181c-2.2,2.87-6.53,4.71-10,5,2.37-1.04,7.73-3.72,10-5Z" style="fill: #e0e0e0;"/>
  <path d="M84,11l1,1c-4.34,1.98-9,3.98-14,6,.51,1.91-2.83,3.66-4,2-4.87,2.66-9.54,5.66-14,9,.05,2.58-2.49,4.64-5,4-5.64,5.05-10.98,10.33-16,16,1.42,1.66-1.05,4.85-3,4-16.96,22.59-22.4,44.02-12.55,70.71,7.54,20.42,19.4,33.34,42.11,30.63,3.32.23,9.09,1.05,9.44,4.66-.63-.1-1.45.14-2,0-9.21-2.39-17.39-1.16-25.81-3.69-20.79-6.22-32.16-41.29-31.17-60.81C10.84,58.55,50.62,20.15,84,11Z" style="fill: #cfcfcf;"/>
  <path d="M161,170c4.8-4.16,9.32-8.66,13.57-13.48l1.43.48c-13.33,16.93-31.99,29.05-54,32-4.63.41-9.35.45-14,0-13.99-2.06-22.9-7.68-31.98-18.52-2.84-3.39-4.91-8.38-8.02-11.48-6.59-6.56-14.18-3.01-22.42-4.08-25.19-3.3-36.74-42.73-34.46-64.29,1.56-14.76,9.43-26.4,17.88-37.62l.45,1.79c-12.21,17.48-19.79,36.23-14.63,57.55,4.1,16.96,14.19,39.55,34.03,40.45,17.62-2.5,22.78,3.89,31.2,17.78,22.16,26.15,56.49,16.65,80.95-.56v-.02Z" style="fill: #cbcbcb;"/>
  <path d="M188,131c-.74,8.11-4.92,15.15-9,22-.82,1.21-2.07,2.81-3,4-4.73,3.13-8.18,8.6-12.5,12.04-.91.73-2.16.69-2.5.96-.45-.35-.11-1.02,1-2l-.16-2.32c7.11-6.07,13.18-13.43,17.68-21.62l1.48-.06c10.51-23.85,5.53-59.61-17.23-74.71-9.12-4.83-18.5-9.9-19.77-21.29l-1.63-.34c-1.61-5.24-3.34-10.31-6.99-14.52l.61-1.15c-1.7-1.7-1.7-2.7,0-3,2.73,1.18,4.9,3.51,6.52,6.99,4.7,14.57,8.42,25,23.87,30.94,19.49,13.83,25.35,41.6,21.61,64.07h.01Z" style="fill: #c3c3c3;"/>
  <path d="M90,11c4.57-1.06,9.42-1.04,14,0,13.45,1.27,33.33,12.78,39.54,24.96,4.33,8.5,3.58,17.64,12.13,23.87s13.86,6.3,21.16,15.84c10.95,14.29,16.44,41.14,11.17,58.33v-3c2.26-19.89-2.61-48.16-18.99-61.51-8.31-6.78-17.11-6.84-21.78-18.22-4.07-9.9-2.89-13.59-11.23-22.27l-1.98-.11c-16.75-17.18-39.75-19.83-61.24-10.16l-1.78-.73c3.46-2.52,9.84-5.06,14-6,1.45-.33,3.65-.87,5-1h0Z" style="fill: #cdcdcd;"/>
  <path d="M188,134c-1.03,8.32-4.7,12.65-9,19,3.41-7.23,7.05-14.14,9-22-.11.98.12,2.03,0,3Z" style="fill: #cbcbcb;"/>
  <path d="M104,11c-3.75-.35-10.27-.37-14,0,3.35-1.67,10.44-1.7,14,0Z" style="fill: #cfcfcf;"/>
  <path d="M122,189c-6.52.87-7.33.98-14,0h14Z" style="fill: #cfcfcf;"/>
  <path d="M136,29c.16.89-.24,2.29,0,3-1.84.7-3.42-1.25-4-3-5.63-4.32-11.82-7.89-18.57-10.7l-.43-1.3c-9.99-3.25-21-3.1-31,0l-.67,1.53C39.06,34.31-1.14,82.95,23.34,129.01l-.34,1.99c8.51,15.45,20.64,23.51,38.39,18.95,8.17,1.29,14.15,6.67,17.94,16.13,24.45,29.91,51.64,18.99,79.71,1.81.83-.51,1.97-.19,2.95.11l-1,2c-25.93,19.45-58.83,27.87-82.51,0-4.76-5.6-7.75-14.74-16.08-15.92-9-1.28-15.37,1.19-24.73-3.27-15.41-7.34-25.37-35.12-25.73-51.27-.39-17.68,8.37-32.05,17.05-46.55.95-1.26,2.04-2.82,3-4,5.01-5.66,10.36-10.95,16-16,1.65-1.38,3.27-2.71,5-4,4.45-3.33,9.12-6.33,14-9,1.35-.6,2.63-1.48,4-2,24.21-9.2,46.23-8.53,65,11h0Z" style="fill: #bdbdbd;"/>
  <path d="M48,33l-16,16c6.02-7.37,8.7-9.92,16-16Z" style="fill: #cdcdcd;"/>
  <path d="M67,20l-14,9c5.78-4.3,6.91-5.85,14-9Z" style="fill: #cdcdcd;"/>
  <path d="M181,144c-3.15,7.55-12.58,18.99-19,24-23.25,18.15-59.86,27.98-81.42,1.92-3.67-4.43-8.48-14.99-13.84-17.16-5.05-2.05-14.06-.07-20-1-12.46-1.94-18.65-10.49-23.74-20.76,1.99.6,3.65,2.6,5,6l2.83.38c6.69,9.1,16.55,13.22,27.51,9.39l2.67,1.24c5.58-1.94,12.66,1.16,14,7l2.19.66c19.18,41.71,68.34,25.99,92.58-3.4,18.47-22.39,12.52-52.33-2.04-75.26l.27-3c4.04.04,7.73,6.45,9.83,10.19,9.57,17.01,11.52,42.04,3.17,59.81h-.01Z" style="fill: #aeaeae;"/>
  <path d="M181,144c8.46-20.26,5.41-56.44-13-70-3,1.51-10.75-3.95-12-7-5.92-1.93-14.79-8.46-12-15-1.42-1.03-1.96-3.29,0-4,9.29,19.1,11.67,12.1,25.01,23.49,16.64,14.21,24.1,53.77,11.99,72.51Z" style="fill: #b6b4b5;"/>
  <path d="M136,32c.63,1.86,3.17,4.19,4.17,6.33,1.48,3.14,2.3,6.53,3.83,9.67.1,1.31-.15,2.7,0,4-.64,1.81-1.3,1.48-2-1-.58-.8-.91-1.8-1-3-2.34-1.62-4.02-4.49-5.02-8.62-2.58-2.91-3.9-5.71-3.98-8.38-.96-1.24-.96-1.9,0-2,1.1,1.04,2.77,2.03,4,3Z" style="fill: #b1b1b1;"/>
  <path d="M113,17c6.74,1.79,14.08,7.35,19,12v2l-3.3-.33C89.17-3.66,28.61,47.45,20.12,88.35c-3.25,15.65,2.38,31.01,8.57,45.24l-.7,3.42c-1.51-2-3.15-4.29-5-6-11.11-22.4-12.15-40.54-.52-63.02,10.21-19.73,37.6-46.03,59.52-50.98,9.97-3.11,21.05-3.25,31,0h.01Z" style="fill: #ababab;"/>
  <path d="M113,17c-7.9-2.1-22.98-1.81-31,0,9.09-4.33,21.96-4.31,31,0Z" style="fill: #b1b1b1;"/>
  <path d="M154,67c-.1-.89.57-.89,2,0,3.06.65,9.25,4.97,12,7,12.27,15.83,19.28,44.16,12.76,63.26-9.55,27.97-54.67,55.85-83.13,42.62-8.09-3.76-21.1-15.83-22.63-24.87-2.41-2.85-2.41-4.51,0-5-2.37-1.96-2.55-5.96,1-6l-1.46-2.24c3.59-11.77,11.03-21.08,19.46-29.76-.19-4.65,3.38-9.1,8-10,.3-2.51,10.24-14.26,11.43-14.28.52-.01,1.04.12,1.57.28.03-2.63,3.55-7.79,6-6,4.31-5.72,11.52-15.16,19-13-.53-3.76,3.38-2.96,6-2,.45-1.81,3.11-1.81,8,0h0Z" style="fill: #770027;"/>
  <path d="M132,31c5.49,5.31,7.25,9.69,9,17l1.26,13.26-2.26,1.74c2.09,1.76,2.05,4.18,0,6-7.08,2.62-13.48,8.04-19,13-2.18-3.21,3.28-11.71,7-12-.91-3.89,1.49-11.82,5-14l-1.86-1.55c-.31-4.5-1.02-8.99-2.14-13.45l-3.06-.73c-16.45-21.45-43.67-12.93-62.06,1.07l-2.88-.34-.74,3.1c-7.6,6.75-15.02,13.72-22.26,20.9l.46,2.86c-5.35,7.39-9.91,15.31-12.46,24.14l1.27,1.66c-.76,4.73-.85,9.51-.27,14.34,1.42,1.19,1.75,3.19,1,6l2.2.54c9.61,30.66,20.53,31.58,44.72,12.06l16.55-15.06,2.52.47c-6.25,8.35-15.55,21.98-18,32l-.99,1.03c-2.73-.18-5.4-.2-8.01-.03.86,2.42-1.14,3.42-6,3-14.93,5.21-24.11.77-33-11-10.65-24.29-16.25-41.98-3.38-66.88C42.93,34.73,95.72-4.11,132,31Z" style="fill: #5f5f5f;"/>
  <path d="M67,145c3.31-1.46,7.82,1.41,8,5-.06,1.46-.22,3.68,0,5-4.21-4.2-8.22-5.85-14-7,.68-.24,4.75-2.38,6-3Z" style="fill: #939393;"/>
  <path d="M144,52c.92,7.91,6.74,10.22,12,15-.58-.12-1.35.07-2,0-10.04-.56-14.39-6.12-12-16l2,1Z" style="fill: #a4a4a4;"/>
  <path d="M142,51c.38,1.64-.27,3.74.46,6.03,1.51,4.8,6.67,9.1,11.54,9.97-1.95-.22-6.13-.29-8,0-3.28.12-6.1-.02-6-4,.69-5.06,1.49-9.82,1-15,.11.47.68,1.62,1,3Z" style="fill: #8d8b8c;"/>
  <path d="M91,69c3.24.95,6.75.83,10,0,.98-1.34,3.31-1.71,4,0,10.66-1.79,14.21.18,10,11,.33,1.64-1.14,5.86-2.1,7.58-4.49,4.58-8.13,9.39-10.9,14.42-2.68,3.23-5.48,6.63-8,10-11.27,9.51-28.83,29.79-44.62,29.91-11.59.09-19.1-18.56-21.38-27.91v-9c-3.62-6.03.07-15.13,3.26-21.26,6.7-12.89,19.32-27.04,35.04-21.28,8.05,2.83,16.67,4.81,24.7,6.54Z" style="fill: #bebebe;"/>
  <path d="M173,133c-2.11,2.39-15.6,4.99-15,0l.56-1.34c10.19-1.93,11.42-14.14,10.44-22.66l-2.14-.86c-2.85-20.34-20.3-37.12-34.96-14.26-3.63,5.66-4.76,9.85-2.9,16.12-1.54,2.42-3.6,1.87-4-1-1.98-3.65-3.71-7.47-5.17-11.46l1.17-2.54c1.84-1.94,3.01-4.69,4.96-6.54,22.16-21.02,38.5-17.11,46.17,12.91,2.81,11.01,4.22,20.72.87,31.63Z" style="fill: #fc9bc9;"/>
  <path d="M100,126c-12.95,13.74-20.89,28.68-1.33,41.06,18.35,11.61,45.97-.19,54.32-18.93-7.04-5.17-13.91-10.78-20.59-16.83l-.4-3.3c-2.68-1.07-1.78-3.19,1-3l2.79-.66,12.88,10.26c21.72,7.38,11.9,18.62-1.83,27.96l-.84,1.44c-16.8,10.48-35.21,17.25-52.47,2.97-11.2-9.26-13.04-15.04-6.7-28.64,1.1-2.36,7.31-12.43,9.17-13.33l1.13-.15c1.58-3.59,3.2-4.88,4.87-3.85,2.68,1.23.72,5.55-2,5Z" style="fill: #e15994;"/>
  <path d="M38,65c8.85-8.99,15.86-14.97,28.59-9.63,16.67,12.4,36.12,11.43,54.72,3.97,5.68-.7,7.92,2.86,6.69,10.66-2.09,4.25-5.46,7.56-7,12-2.31,2.07-3.55,3.41-6,6-3.34.49-2.56-1.04-1.26-3.44,3.22-5.13,10.86-18.9-.27-18.02-17.27,3.76-33.35,1.44-49.89-4.95-19.07-3.25-28.93,15.21-35.56,29.89-.3.67-1.16.73-2.02.52,1.83-11.84,5.47-17.59,12-27Z" style="fill: #ccc;"/>
  <path d="M115,88c-3.94,4.16-9.52,9.81-13,14-2.14-.58.19-2.88.78-3.73,4.47-6.37,8.93-10.97,12.22-18.27,4.25-11,.59-12.7-10-11-1.33-.05-2.67.02-4,0-3.26.84-6.74.95-10,0-2.79-.14-5.37.12-8.25-.26-18.02-2.37-26.14-13.4-42.78,3.73-9.47,9.75-11.35,19.56-11.97,32.53.47,1.62.91,3.51-1,3-2.29-3.84-2.39-9.22-2.04-13.58.11-1.34.99-2.12,1.04-2.42,6.39-13.03,19.42-36.15,37.05-32.57,10.61,2.15,19.82,8.31,32.6,8.5,5.58.08,19.64-4.27,23.35-2.43,4.07,2.01.93,10.25-.51,13.5-1.16,2.61-5.9,6.45-3.5,9h.01Z" style="fill: #c4c4c4;"/>
  <path d="M133,118c8.57,7.65,15.16,13.08,26.03,17.46,7.28-.17,9.06,5.62,6.97,11.54-5.64,7.54-12.17,12.12-20,17-1.15-1.15.66-2.34,1.45-3.02,4.58-3.92,8.75-6.8,11.27-12.74,3.39-7.97-3.8-7.3-9.45-11.01s-10.28-9.07-16.28-12.22c-2.86-.41-2.67-6.21,0-7h0Z" style="fill: #e76ea3;"/>
  <path d="M158,133c.35.07.92,1.05,2.41,1.05,3.55,0,8.45-2.06,12.59-1.05-1.59,5.2-3.68,9.57-7,14l-2.23-8.77c-12.35-1.93-23.61-10.43-30.77-20.23-.88-.25-.86-.58,0-1l1.41-.7c7.02,6.57,14.72,11.64,23.11,15.22l.48,1.48Z" style="fill: #ec86b3;"/>
  <path d="M123,108l-1.19,1.96c-7.16.47-13.68,5.06-17.51,11l-2.3.04c-2.09.65-4.02,4.37-5.5,4.98-.55.23-.45-1.01-.5-.98,4.07-7.58,10.48-13.58,16-20,3.41-1.94,12.11-5.88,11,3Z" style="fill: #e669a0;"/>
  <path d="M125,109c-1.72,2.11-2.27,1.65-2-1-3.34-6.02-5.06-3.33-9.72-2.17-.69.17-1.45,0-1.28-.83,3.1-3.6,5.72-6.54,9-10,1.6,4.57,4.51,8.93,4,14Z" style="fill: #ef7fb2;"/>
  <path d="M76,144c-.53,2.17-.91,3.69-1,6l-8-5c4.36-2.18,2.22-3.79,9-1Z" style="fill: #7e7e7e;"/>
  <path d="M146,67c-.57.09-4.97,1.62-6,2-1.17-2.71-.24-4.21,0-6l6,4Z" style="fill: #746e70;"/>
  <path d="M129,41c1.65,8.37-2.68,14.7-13,19-14.54,9.13-40.86,5.41-52.35-7.71-2.67-3.05-6.29-7.86-2.65-11.29,21.02-16.05,49.6-25.6,68,0Z" style="fill: #e3e3e3;"/>
  <path d="M116,60l9.39-5.73c2.57-.76,7.13-1.52,7.61,1.73-.38,3.61-3.34,10.61-5,14-3.84.2-.29-3.99-2.18-7.28-2.8-4.86-13.97,1.09-18.62,1.98-9.81,1.89-18.44,1.56-28-1.4-9.4-2.92-18.34-11.9-28.59-6.19l-12.61,7.89c7.04-10.16,13.2-16.52,23-24-.88,8.2,10.92,16.93,17.72,19.78,13.14,5.52,24.57,3.81,37.28-.78Z" style="fill: #d5d5d5;"/>
  <path d="M133,56c-6.9-1.28-11.03,1.84-17,4,3.77-3.92,9.59-7.57,11.54-12.95.72-1.98-.22-4.7,1.46-6.05,3.86,5.37,4.77,7.75,4,15Z" style="fill: #d8d8d8;"/>
  <path d="M28,114c-.48-1.97-1.16-3.92-1-6,.01-.16.9-.96,1-3,1.68,1.86,1.68,7.14,0,9Z" style="fill: #bfbfbf;"/>
  <path d="M63,133c-7.06,6.77-19.18,5.47-24.83-2.67-13.31-19.16-11.08-45.43,7.92-59.75,12.49-9.41,24.35-1.09,38.43.4,7.8.83,16.14-.69,23.01.02,9.98,1.02,3.48,11.93.3,17.32-7.03,11.94-17.87,22.8-27.82,31.68-.41-.31-.4-.65,0-1l-.25-.95c8.3-8.64,16.29-18.04,22.23-28.49l2.02-.55c4.22-7.61,6.95-14.67-4.99-14.19-13.93,1.33-27.01-1.35-40.71-4.19-8.81-1.42-15.38,6.12-20.3,12.38.41.53.69,1.01.57,1.34-.88,2.26-4.07,9.05-5.25,11.24-.16.29-.68.39-1.32.42-.64,4.31-.48,8.68,0,13l.98.56c2.47,15.73,10.03,30.21,28.02,23.44.77-.38,1.44-.38,2,0h-.01Z" style="fill: #b2b2b2;"/>
  <path d="M80,120c-4.28,3.81-11.23,11.79-17,13-.59.12-1.36-.08-2,0,5.98-4.95,12.32-9.62,19-14v1Z" style="fill: #adadad;"/>
  <path d="M115,80c2.85-12.11-.2-10.66-10-11,12.94-3.18,15.04-.18,10,11Z" style="fill: #bfbfbf;"/>
  <path d="M101,69c-2.21,1.71-7.98,1.66-10,0,3.31.16,6.68-.06,10,0Z" style="fill: #bfbfbf;"/>
  <path d="M123,108c.52.04,1.36.83,2,1,1.07.28,3.33.59,4,1,1.06-.44,1.82.87,2,2,1.41,1.13,4.19,4.05,2,5,.05.32-.04.67,0,1,.18,1.69.28,5.44,0,7-.03.16-.84,2.58-1,3,2.01,2.19-.04,6.05-3,5,1.82,2.35-.48,4.41-3,3,1.28,2.72-.58,3.68-3,2,.34,3.45-4.74,5.64-7,3-.67,3.24-3.99,2.81-7.06,2.27-4.29-.77-12.25-5.55-8.94-10.27-1.12-.15-1.12-.82,0-2-1.34-.16-1.34-.83,0-2-2.44-.14-1.77-1.74,0-3,.09-.47,1.67-4.33,2-5,3.41-6.88,13.14-13.61,21-13Z" style="fill: #5d0019;"/>
  <path d="M169,109c.64,4.52.35,11.02-1.56,15.23-1.12,2.47-3.73,7.46-6.44,4.77l-.99-2.05c10.69-18.71-7.16-59.6-27.14-28.36-2.35,3.68-2.75,7.5-.06,11.14l-.8,2.26c-.29.72-.62.71-1,0-.08-.11-1.88-1.93-2-2-6.56-8.3,5.82-26.37,13.97-28.52,15.72-4.16,24.01,15.28,26.03,27.52h0Z" style="fill: #fcb7d8;"/>
  <path d="M158,133c-9.82-2.05-16.58-11.2-25-16-.15-.87-1.57-4.41-2-5h1l2.48-.22c7.7,7.16,16.43,14.96,26.52,17.22,7.23-2.95,7.03-13.23,8-20,.05.31.92,1.08,1.04,2.42.74,8.41-1.07,21.71-12.04,21.58Z" style="fill: #f2abca;"/>
  <path d="M100,126c-.17.84.05,2.04,0,3-8.9,9.35-17.17,19.48-6.85,31.11,15.68,17.66,46.34,10.88,54.01-9.83-6.45-4.39-12.97-8.88-18.37-14.63l.22-2.65c.32-.42,2.9-4.73,3-5,4.1,4.44,9.29,8.73,14.09,12.41,8.01,6.15,13.54,5.29,3.3,16.48-11.59,12.68-34.62,20.83-50.12,11.33-16.63-10.19-16.62-21.94-5.24-36.69,1.51-1.95,3.41-5.09,5.96-5.54h0Z" style="fill: #d84885;"/>
  <path d="M92.76,31.26c8.14-1.1,16.25.77,22.72,5.76,7.31,5.64,8.22,13.74.46,19.41-10.47,7.65-33.09,6.46-42.86-2.01-12.49-10.83,10.64-21.94,19.68-23.16Z" style="fill: #eee;"/>
  <path d="M74,76c1.69,2.36-.51,4.34-3,3l-2.03,1.58c-29.53-11.3-42.69,20.97-28.64,44.71,15.11,25.54,54.96-24.76,59.35-39.63.51-1.73.61-3.88-1.52-3.88-4.46.93-7.84.33-10.15-1.77-2.76.73-3.68-.78-2-3-.41-.91-.35-1.6.48-1.68,4.06-.4,17.31-1.52,20.14,1.06s-.95,9.76-2.62,12.63c-3.18,6.73-18.23,24.66-24,30-3.9,3.61-14.42,11.76-19,14-19.18,9.4-26.34-8.09-29-24-.48-4.3-.64-8.69,0-13,1-4.32,3.19-9.55,6-13,3.65-4.73,9.32-11.13,15.38-12.33,2.8-.55,22.08,2.19,21.5,4.04-.15.48-.49.89-.88,1.29v-.02Z" style="fill: #a8a8a8;"/>
  <path d="M38,83c2.48-5.51,11.24-13.67,17.47-13.83,6.94-.18,17.93,4,25.14,4.72,12.41,1.25,39.54-5.93,23.4,15.1,1.17-2.49,3.2-9.69,1.86-11.86-.92-1.47-17.23-1.98-19.86-.14-2.7,1.32-8.92.06-12-1-.61-2.14-2.61-1.85-4.3-2.2-5.07-1.06-13.21-2.67-18.15-1.75-2.54.47-11.72,8.7-13.55,10.95h0Z" style="fill: #adadad;"/>
  <path d="M32,109c-.99-5.94-1.41-6.88,0-13v13Z" style="fill: #adadad;"/>
  <path d="M116,141c7.24,5.46,13.81,11.55,19.71,18.28,1.16,7.55-23.89,12.23-29.71,8.72-5.09.03-13.01-6.13-14-11-.99-1.27-.99-1.94,0-2l2.52-.07c1.43,6.96,27.62,13.87,28.24,8.39.18-1.6-21.46-20.05-24.22-21.26-2.34-1.03-3.59,2.23-4.07,4.01-.18,3.93-1.33,6.23-3.47,6.92-4.46-5.51,3.26-17.7,9-20,1.97,7.24,9.26,9.72,16,8h0Z" style="fill: #c0185b;"/>
  <path d="M137,162c-6.09,7.4-22.83,11.34-31,6,5.66,2.24,26.82-1.04,27.93-7.64.41-2.43-14.51-13.41-16.98-15.84-1.18-1.17-2.4-1.81-.95-3.52,2.47-.63,4.84-1.68,7-3,.7-.22,1.5-.37,2.1.05,1.67,1.15,16.46,14.87,16.92,15.94,1.65,3.35-2.45,6.22-5.03,8.01h0Z" style="fill: #c62566;"/>
  <path d="M100,129c-.03.63-.08,1.38,0,2-9.56,8.5-12.23,17.16-8,26,3.68,4.83,8.31,8.72,14,11,9.69,3.89,23.13.74,31-6,4.59-2.85,8.43-8.5,2.49-11.8l-13.45-11c-1.16-.83-.85-2-.04-3.2.31-.26,2.87-2.83,3-3,2.52,2.65,5.72,5.66,8.53,7.97,1.78,1.47,10.91,7.62,11.26,8.23,3.2,5.53-12.68,15.95-17.1,17.98-9.09,4.18-20.4,5.79-29.59,1.22-3.98-1.98-13.22-9.54-14.05-13.95-1.68-8.99,3.84-20.96,11.95-25.45h0Z" style="fill: #d03575;"/>
  <path d="M137,162c.49-.42,3.82-4.4,3.9-4.7,1.24-4.61-16.88-13.95-17.9-19.3.94-.58,2.2-1.31,3-2,2.51,4.28,17.59,13.38,18.61,16.96.86,3.01-4.38,8.43-7.61,9.04h0Z" style="fill: #ce3272;"/>
  <path d="M100,133c-5.1,4.91-12.15,12.55-9,20,2.66-.37,2.65-.07,1,2v2c-.9-1.18-2.23-1.17-2.78-3.71-1.79-8.15,4.32-17.74,10.78-22.29.08.65-.14,1.47,0,2Z" style="fill: #c62264;"/>
  <path d="M161,129c-1.2.49-1.34,1.2-3.42,1.09-5.36-.27-21.99-13.65-25.58-18.09-5.52-6.84-2.89-12.29,2.02-18.48,21.83-27.48,39.86,18.8,26.98,35.48Z" style="fill: #f6c3d9;"/>
  <path d="M93.76,36.26c12.5-1.73,32.3,10.44,15.93,17.93-8.76,4-21.71,3.92-29.84-1.53-10.24-6.87,7.01-15.43,13.91-16.39h0Z" style="fill: #f9f9f9;"/>
  <path d="M86,77c.4.28,1.51,2.28,2,3,5.48,1,6.46,11.7,5.43,16.31-.78,3.49-5.84,12.58-9.43,10.69-1.9,2.61-3.24,2.94-4,1-.26,2-1.28,1.95-2,0-1.08,1.57-1.65,1.97-2,0-1.75,2.71-7.27-1.22-6-4-2.6,1.79-5.71-5.52-3-7-2.92.55-3.54-2.68-1-4-3.85-1.14-1.5-7.31,2-8-2.79-1.92-.4-6.57,3-6,.21-.25,2.82-2.89,3-3,3.1-1.81,9.26-.92,12,1Z" style="fill: #2d2d2d;"/>
  <path d="M71,79c-1.76,2.16-2.08,3.57-3,6l-1.73,2.15c-17.89-2.09-31.3-.09-29.25,21.77,3.34,35.63,31.42,19.76,44.4-.18l2.58-1.74c9.61-4.81,9.38-19.09,4-27,5.92,1.01,15.04-3.47,13.79,5.25-1.12,7.83-17.57,27.53-23.77,33.26-11.8,10.91-30.26,25.55-40.21,4.18-5.72-12.29-6.56-27.09,2.22-38.17,9.22-11.64,17.93-8.54,30.98-5.52h-.01Z" style="fill: #9a9a9a;"/>
  <path d="M92,155c-.36-.47-.74-1.39-1-2,.93-4.32,1.68-15.05,8.27-12.78,2.02.69,17.13,13.8,19.75,16.27,4.01,3.78,9.92,7.95,1.05,10.08-10.43,2.5-21.81-3.46-28.07-11.57Z" style="fill: #b8094d;"/>
  <path d="M144.71,87.21c19.65-4.52,22.65,36.38,13.58,38.65-4.27,1.07-24.39-14.32-25.84-18.81-2.11-6.55,6-18.4,12.26-19.84Z" style="fill: #fad7e7;"/>
  <path d="M76,108c.85.56.75.95.23,1.65-4.72,6.31-19.72,21.61-27.92,16.48-5.35-3.35-12.78-23.29-1.86-22.56l15.02.61c3.11-.59,5.96-.66,8.53-.19.27.34,5.48,3.85,6,4h0Z" style="fill: #6a6a6a;"/>
  <path d="M68,85c-1.07,2.82-2.17,4.75-2,8l-1.53,2.16-17.57-.29c-15.23,1.3-6.82,33.6,4.61,34.14,8.82.42,23.99-13.89,28.48-21.02,1.66-.16,2.45-.23,4-1-3.85,8.61-16.94,19.14-25.64,22.85-19.95,8.51-26.84-24.34-19.76-37.75,6.03-11.42,18.69-5.85,29.4-7.1h0Z" style="fill: #8a8a8a;"/>
  <path d="M70,104c-4.65,4.7-23.53.05-26.86,2.14-3.61,2.27,1.99,21.32,9.1,20.67,6.05-.56,20.94-12.75,23.75-18.81.49.14,1.35-.05,2,0,.92.7,1.06,1.38.43,2.19-5.09,6.55-17.93,18.63-26.47,18.86-10.64.28-17.17-25.95-11.09-31.09.96-.81,20.67-1.67,23.93-1.75l2.21.79c.18.66,2.74,6.66,3,7Z" style="fill: #797979;"/>
  <path d="M66,93c.01.28.8,3.28,1,4-4.38,4.85-22.15-.36-25.53,2.97-4.87,4.82,0,28.41,11.04,28.11,6.89-.19,23.54-12.94,25.49-20.09.63.05,1.38.06,2,0,.38,2.27-.73,3.05-1.96,4.54-3.92,4.75-19.56,17.43-25.52,17.5-12.61.15-18.62-26.67-12.01-35.02,3.34-4.22,19.74-1.03,25.48-2.02h0Z" style="fill: gray;"/>
  <path d="M140.35,94.35c11.13-10.6,17.55,2.94,18.55,13.26,1.08,11.15-3,10.64-10.82,5.81-6.98-4.32-15.79-11.39-7.73-19.07h0Z" style="fill: #fdebf3;"/>
</svg>