<?xml version="1.0" encoding="UTF-8"?>
<svg id="Layer_1" xmlns="http://www.w3.org/2000/svg" version="1.1" viewBox="0 0 60 60">
  <!-- Generator: Adobe Illustrator 29.5.0, SVG Export Plug-In . SVG Version: 2.1.0 Build 137)  -->
  <defs>
    <style>
      .st0 {
        fill: #579141;
      }
    </style>
  </defs>
  <path class="st0" d="M41.13,7.17c-.05-.16.12-.24.19-.1,1.04,1.96,1.03,9.13.89,9.59,0,.02,0,.04,0,.06,0,.09.03.17.12.21.09.04.3.01.35-.06.92-1.37,2.64-2.63,6.76-4.33.11-.04.18.1.1.14-3.64,1.7-5.56,2.93-6.59,4.39-.14.19-.14.33.04.47.38.31.5,1.15.53,1.38.06.45-.07.83-.47,1.08-.19.12-.78.47-.89.54-.25.18-.32.42-.25.71.11.46.45.75.94.78.44.03.88.05,1.31.09.24.02.48.05.71.1.23.04,1.02.31,1.24.25.13-.04-.04-.33.09-.34.32-.03.7.02,1.02.03.08,0,.27-.14.35-.15.1-.01.17-.06.2-.16.02-.05.04-.11.06-.16.06-.12.12-.16.25-.15.3.04.55.19.72.44.04.05.06.11.08.17.06.2-.07.38-.27.39-.12,0-.24-.24-.35-.26-.28-.07-.37,0-.6.18-.13.1-.24.04-.37.23-.12.18-.09.57-.45.74-.4.2-.84-.02-2.1-.32-.66-.16-1.24-.3-1.91-.42-.43-.08-1.12-.25-1.64.02-.31.16-.52.35-.58.7-.07.35-.06.71.01,1.06.26,1.21.27,2.43.28,3.66,0,.62,0,1.25-.03,1.87-.02.39.11.68.39.94.47.43.93.87,1.4,1.31.52.49,1,1.02,1.39,1.63.36.56.83,1.02,1.31,1.47.16.14.29.31.42.47.12.16.16.34.14.54-.02.24-.18.35-.4.26-.11-.04-.21-.11-.3-.19-.35-.29-.63-.65-.9-1.02-.2-.27-.39-.54-.58-.82-.56-.82-1.26-1.51-1.99-2.17-.42-.39-.84-.78-1.24-1.2-.69-.72-.92-1.59-.84-2.56.02-.19.07-.39.14-.57.23-.53.3-1.05.25-1.6-.01-.16-.11-.19-.24-.31-.34-.32-.44-.7-.83.54-.2.63-.74,1.08-1.11,1.62-.49.73-.98,1.46-1.48,2.18-.18.26-.42.48-.68.66-1.92,1.39-3.85,2.78-5.77,4.17-.15.11-.29.22-.44.33-.15.11-.24.26-.29.43-.04.14-.09.28-.13.43-.07.21-.2.36-.39.46-.19.1-.38.2-.58.27-.22.07-.39.2-.52.39-.18.26-.36.51-.51.78-.55,1.01-1.11,2.01-1.63,3.03-.85,1.68-1.68,3.37-2.51,5.06-.07.13-.13.27-.19.4-.16.34-.3.69-.35,1.06-.03.24-.06.26-.3.27-.12,0-.2.06-.26.15-.13.19-.26.39-.39.58-.52.78-1.04,1.57-1.57,2.35-.11.17-.25.32-.39.48-.11.13-.26.17-.42.16-.22-.01-.35-.17-.29-.39.03-.13.1-.25.18-.35.29-.39.59-.78.88-1.17.37-.49.73-.98,1.09-1.47.18-.24.32-.48.33-.79,0-.2.12-.36.28-.5.17-.15.32-.35.43-.55.41-.7.81-1.4,1.19-2.11,1.16-2.21,2.29-4.44,3.36-6.7.18-.39.37-.78.55-1.17.04-.09.1-.17.14-.26.21-.39.51-.65.94-.77.69-.18,1.27-.55,1.78-1.04,1.06-1.03,2.12-2.07,3.17-3.11.3-.29.59-.59.89-.88.39-.38.84-.67,1.33-.91.27-.13.54-.28.76-.5.13-.13.24-.28.27-.47.01-.06.02-.13.01-.19-.01-.16-.09-.22-.24-.16-.14.05-5.56,3.76-6.02,4.02-2.51,1.4-3.84,1.19-3.28-.35.42-1.15,3.33-5.35,3.62-5.64.38-.39.79-.75,1.18-1.13.06-.06.13-.11.18-.18.09-.11.05-.19-.08-.2-.14,0-.28,0-.42.01-1.58.2-3.12.25-4.71.25-1.35,0-2.73.02-4.08.04-.49,0-.64.39-1.13.4-.16,0-.62-.3-.74-.21-.46.36-.92.71-1.38,1.07-1.44,1.15-4.7,3.74-4.95,3.76-.16.02-.71.08-1.02.07-.84-.02-.93-.01-1.77-.04-.84-.03-.6-.93.12-.53.29.16,2.14.05,2.61-.29.76-.54,1.32-.91,2.14-1.44.7-.45,1.65-1.15,2.28-1.69.53-.45.75-.72,1.12-1.31.28-.46.63-.33.99-.69.11-.11.27-.18.41-.18.87-.02,1.96.17,2.83.17,1.38.01,2.74-.14,4.08-.46,1.04-.25,2.1-.33,3.16-.32.53,0,1.06,0,1.59.02.35.01.63-.1.86-.37.36-.41.75-.8,1.09-1.23.28-.36-1.32-.35-1.19-.49.04-.05-2.63.31-2.63.31,0,0-.28-.07-.29-.22,0-.04-1.36,1.99-1.37,1.93,0-.02-.52.15-.56.12-.03-.02-.72-.04-.86-.15-.03-.02-.44-.25-.62-.53-.02-.03-.29.2-.41.13-.14-.08-.17-.35-.15-.48.02-.13.26-.19.45-.18.19,0,.92.7.9.68-.02-.01.16-.11.38-.07.24.04.53.2.53.2,0,0,1.31-2.05,1.3-2.1-.01-.05.27-.21.26-.25,0-.09.35-.16.35-.16,0,0,2.98.13,3.02.09.04-.05,1.73.24,1.77.19.25-.29.49-.58.74-.87.39-.45.85-.79,1.41-.99.13-.05.26-.11.39-.17.26-.13.45-.53.22-.86-.23-.33-.54-1.23-.54-1.34,0-.15,0-.38.14-.45.15-.08.43-.08.54.03.13.12.89.84.86.6-.02-.24-.03-.38-.19-.5-.12-.09-.33-.27-.35-.43-.02-.22,0-.34.18-.38.22-.05.47.08.54.28.06.2-.02.23,0,.44.03.21.11.26.17.46.02.06.21.4.28.42.33.11.08-.27.1-.41.02-.19.2-.33.38-.37.29-.07.41-.05.69,0,.07.01.1.02.17.04.17.03.32,0,.35-.08.07-.15.44-5.5-.66-9.33h0Z"/>
</svg>