<?xml version="1.0" encoding="UTF-8"?>
<svg id="Layer_1" xmlns="http://www.w3.org/2000/svg" version="1.1" viewBox="0 0 1098.62 1095.84">
  <!-- Generator: Adobe Illustrator 29.5.0, SVG Export Plug-In . SVG Version: 2.1.0 Build 137)  -->
  <path d="M654.62,658.84l2,2c-.07.05.24,1.35-.32,1.7-.87.56-2.47-.09-2.75.86-.19.67-.53,8.48-.55,10.1-.54,42.37.05,86.7,2.62,128.33,2.06,93.74-.66,187.95,3.04,281.46.17,4.19.25,8.5-1.04,12.54-217.05-66.93-433.32-136.71-650-205,.1-1.7.36-2.34-1.49-1.99l-.51.99c-.73-.34-1.29-.59-2-1-.21-3.7,4.79-6.65,7.52-8.98,107.6-91.62,221.2-176.74,329.95-267.05,2.65-2.2,5.42-5.23,7.52-7.98,102.19,16.64,203.91,37.07,306,54v.02Z" style="fill: #20311f;"/>
  <path d="M653.62,248.84c.33-.04.67.04,1,0v410c-102.09-16.93-203.81-37.36-306-54L2.62,322.84c.49-1.64-.49-2.13,1.59-3.89,2.59-2.19,7.27-2.07,9.41-3.11-.56,2.98,1.53,1.98,3.45,2,15.18.17,30.8-3.35,45-5.07,18.01-2.18,36.03-2.41,53.99-4.98,53.13-7.62,108.82-11.75,162.97-18.02,35.74-4.14,73.14-8.89,109.13-12.88,87.67-9.71,176.89-18.2,265.45-28.04h.01Z" style="fill: #3a824b;"/>
  <path d="M348.62,604.84c-2.1,2.75-4.87,5.78-7.52,7.98-108.76,90.3-222.35,175.43-329.95,267.05-2.73,2.33-7.74,5.27-7.52,8.98-.47-.28-1.89.09-2.53-.93.47-161.05-2.24-322.48-.52-483.62.26-24.13-.98-54.74.98-78.07.16-1.96.75-2.29,1.07-3.38l346,282h-.01Z" style="fill: #2f4a2b;"/>
  <path d="M653.62,1.84c1.13,1.66.98,3.55,1.04,5.45,2.32,77.13-.04,156.69-.1,234.09,0,1.91,1.1,3.75,1.08,4.88,0,.63-2.82.56-2.02,2.57-88.55,9.85-177.78,18.34-265.45,28.04-35.99,3.99-73.39,8.74-109.13,12.88-54.16,6.27-109.84,10.4-162.97,18.02-17.96,2.58-35.98,2.8-53.99,4.98-14.2,1.72-29.83,5.24-45,5.07-1.92-.02-4.02.98-3.45-2,160.48-78.09,320.7-158.64,481.34-237.16,52.72-25.77,105.5-51.91,158.66-76.84v.02Z" style="fill: #2f6239;"/>
  <path d="M1094.62,738.84l-2.06,4.44-223.86,189.14-2.08,4.42h-3l-208-135c-2.58-41.63-3.16-85.96-2.62-128.33.02-1.62.36-9.44.55-10.1.27-.96,1.87-.31,2.75-.86.56-.36.25-1.66.32-1.7,2.16-1.41,44.44,7.65,50.75,8.75,104.41,18.3,208.74,37.2,313.03,55.97,22.91,4.12,52.58,6.38,74.23,13.27h0Z" style="fill: #2f4a2b;"/>
  <path d="M1094.62,738.84c1.49.47,4-.64,4,3.5v343.5l-232-149,2.08-4.42,223.86-189.14,2.06-4.44h0Z" style="fill: #2f6239;"/>
  <path d="M654.62,248.84c-.33.04-.67-.04-1,0-.79-2.02,2.01-1.95,2.02-2.57.02-1.13-1.08-2.97-1.08-4.88.05-77.4,2.41-156.96.1-234.09-.06-1.9.09-3.79-1.04-5.45.88-.41,1.36-2.05,3.33-1.81,93.96,68.8,186.66,139.48,280.61,208.38,8.85,6.62.28,7.72-6.45,8.42-92.32,9.62-184.41,21.77-276.49,32.01h0Z" style="fill: #5aa867;"/>
  <path d="M863.62,936.84l-202.27,157.25-3.73,1.75c1.29-4.04,1.21-8.35,1.04-12.54-3.7-93.5-.98-187.72-3.04-281.46l208,135h0Z" style="fill: #2f6239;"/>
  <path d="M5.62,889.84l.51-.99c1.85-.35,1.59.29,1.49,1.99-.85,0-1.41-.73-2-1Z" style="fill: #2f4a2b;"/>
</svg>