<?xml version="1.0" encoding="UTF-8"?>
<svg id="Layer_1" xmlns="http://www.w3.org/2000/svg" version="1.1" viewBox="0 0 362.74 512">
  <!-- Generator: Adobe Illustrator 29.5.0, SVG Export Plug-In . SVG Version: 2.1.0 Build 137)  -->
  <polygon points="33.01 470.88 0 100.62 362.74 100.62 329.69 470.82 181.15 512 33.01 470.88" style="fill: #e44d26;"/>
  <polygon points="181.37 480.52 301.4 447.25 329.64 130.89 181.37 130.89 181.37 480.52" style="fill: #f16529;"/>
  <polygon points="181.37 268.22 121.28 268.22 117.13 221.72 181.37 221.72 181.37 176.3 181.21 176.3 67.5 176.3 68.59 188.49 79.75 313.63 181.37 313.63 181.37 268.22" style="fill: #ebebeb;"/>
  <polygon points="181.37 386.15 181.17 386.21 130.6 372.55 127.36 336.33 102.79 336.33 81.78 336.33 88.14 407.63 181.16 433.46 181.37 433.4 181.37 386.15" style="fill: #ebebeb;"/>
  <path d="M33.75,0h23.08v22.8h21.11V0h23.08v69.04h-23.08v-23.12h-21.11v23.12h-23.08V0h0Z" style="fill: #fff;"/>
  <path d="M131.36,22.9h-20.32V0h63.72v22.9h-20.32v46.15h-23.08V22.9h0Z" style="fill: #fff;"/>
  <path d="M184.88,0h24.06l14.8,24.26L238.53,0h24.07v69.04h-22.98v-34.22l-15.88,24.55h-.4l-15.89-24.55v34.22h-22.58V0h.01Z" style="fill: #fff;"/>
  <path d="M274.09,0h23.08v46.22h32.45v22.82h-55.54V0h.01Z" style="fill: #fff;"/>
  <polygon points="181.21 268.22 181.21 313.63 237.13 313.63 231.86 372.52 181.21 386.19 181.21 433.43 274.31 407.63 274.99 399.96 285.66 280.41 286.77 268.22 274.53 268.22 181.21 268.22" style="fill: #fff;"/>
  <polygon points="181.21 176.3 181.21 204.51 181.21 221.6 181.21 221.72 290.76 221.72 290.76 221.72 290.9 221.72 291.81 211.51 293.88 188.49 294.97 176.3 181.21 176.3" style="fill: #fff;"/>
</svg>