<?xml version="1.0" encoding="UTF-8"?>
<svg id="Layer_1" xmlns="http://www.w3.org/2000/svg" version="1.1" viewBox="0 0 60 60">
  <!-- Generator: Adobe Illustrator 29.5.0, SVG Export Plug-In . SVG Version: 2.1.0 Build 137)  -->
  <path d="M17.51,45.36s-1.01-3.07-.55-3.22c2.06-.63,9.04-4.08,9.04-10.9,0-3.97-.68-4.47-2.18-3.85-1.14.47-11.25,6.74-14.6,7.47-5.14,1.12-8.57-5.15-6.82-9.48.4,3.53,3.77,7.62,7.74,6.37,10.4-3.27,14.86-14.91,27.02-14.91,6.62,0,6.41,2.98,10.97,2.98,1.46,0,3.44-3.69,3.44-4.67,0-1.48-1.2-3.41.48-3.89,2.36-.68,2.56,2.35,2.56,3.54.54,1.44,3.43,4.68,3.43,5.48,0,.66-.06,2.21-.76,2.21-.85,0-.91-.73-2.45-.73-2.13,0-5.47,6.52-5.47,9.8,0,.77-.23,2.37-1.13,3.29-.92.93-2.23,1.41-3.07.66-.84-.75,1.81-1.54,1.87-4.33.04-2.12-.85-2.58-1.71-2.58-1.31,0-3.55.3-5.4.57-1.85.27-3.66,1.04-4.99,3.7-1.07,2.15-7.4,8.07-13.93,10.9-.66.29-.25,4.47,0,4.97s1.08,3.86.5,4.04c-.66.21-2.43-.82-2.43-1.51-.23-1.53-.7-4.15-1.58-5.92Z" style="fill: #fff;"/>
</svg>