<?xml version="1.0" encoding="UTF-8"?>
<svg id="Layer_1" xmlns="http://www.w3.org/2000/svg" version="1.1" xmlns:xlink="http://www.w3.org/1999/xlink" viewBox="0 0 183 21">
  <!-- Generator: Adobe Illustrator 29.5.0, SVG Export Plug-In . SVG Version: 2.1.0 Build 137)  -->
  <defs>
    <clipPath id="clippath">
      <rect y=".1" width="183" height="20.82" style="fill: none;"/>
    </clipPath>
  </defs>
  <g style="clip-path: url(#clippath);">
    <path d="M31.6,14.46h-10.07l-2.59,6.1h-2.23L25.14.47h2.56l8.89,20.1h-2.26l-2.72-6.1h0ZM30.91,12.77l-3.31-7.52c-.39-.9-.72-1.83-.98-2.78h-.36c-.24.95-.55,1.88-.92,2.78l-3.18,7.52s8.76,0,8.76,0ZM71.83,14.46h-10.07l-2.59,6.1h-2.23L65.37.47h2.56l8.89,20.1h-2.26l-2.72-6.1h0ZM71.13,12.77l-3.3-7.52c-.39-.9-.71-1.83-.97-2.78h-.36c-.24.95-.55,1.88-.93,2.78l-3.18,7.52h8.74ZM82.22.47l5.71,13.06c.68,1.6,1.27,3.23,1.77,4.89h.26c.4-1.34,1.01-2.97,1.82-4.9L97.44.47h3.16v20.1h-2.16V6.68c0-1.11.09-2.45.26-4.05l-.33-.06c-.33,1.39-.77,2.75-1.31,4.08l-6.07,13.9h-2.26l-6-13.78c-.58-1.35-1.05-2.75-1.41-4.17l-.36.03c.18,1.39.28,2.78.29,4.18v13.75h-2.13V.47h3.11ZM114.37.47c2.14,0,3.82.45,5.05,1.34,1.22.9,1.84,2.14,1.84,3.73,0,1.25-.4,2.26-1.21,3.04-.81.77-1.84,1.27-2.95,1.4v.3c.86.06,1.69.28,2.47.63.78.35,1.45.91,1.94,1.62.52.78.79,1.69.76,2.61.01.97-.28,1.93-.82,2.74-.62.87-1.48,1.55-2.47,1.95-1.11.48-2.44.73-4.02.73h-9.25V.47s8.67,0,8.67,0ZM117.83,8.43c.4-.33.71-.73.92-1.18s.3-.94.28-1.43c.02-.49-.08-.99-.28-1.44-.21-.46-.53-.87-.92-1.19-.8-.67-1.97-1-3.52-1h-6.47v7.22h6.46c1.55,0,2.73-.33,3.53-.98h0ZM118.74,17.77c.41-.36.74-.8.96-1.27.45-.96.45-2.07,0-3.04-.23-.49-.55-.92-.95-1.28-.85-.72-2.12-1.07-3.8-1.07h-7.12v7.73h7.11c1.66,0,2.93-.35,3.79-1.07ZM137.64,14.46h-10.07l-2.59,6.1h-2.23L131.18.47h2.56l8.89,20.1h-2.27l-2.72-6.1h0ZM136.96,12.77l-3.32-7.52c-.39-.9-.72-1.83-.98-2.78h-.36c-.24.95-.55,1.88-.92,2.78l-3.18,7.52h8.77s0,0,0,0ZM159.79,18.11c-.75.94-1.74,1.66-2.87,2.09-1.25.49-2.59.73-3.93.72-1.44.03-2.87-.25-4.2-.83-1.15-.51-2.12-1.34-2.79-2.4-.68-1.12-1.01-2.41-.95-3.72h2.19c-.04,1.59.45,2.86,1.48,3.81,1.03.95,2.46,1.42,4.29,1.42,1.66,0,3.02-.4,4.08-1.21.5-.36.91-.82,1.19-1.37.28-.53.41-1.12.4-1.71,0-1.27-.49-2.23-1.46-2.89-.97-.65-2.24-.98-3.79-.98h-2.19v-1.71h2.06c1.12.02,2.23-.32,3.13-.98.43-.31.78-.72,1.01-1.2.23-.47.34-.98.31-1.49.02-.53-.08-1.06-.31-1.54-.23-.49-.57-.93-.99-1.27-.86-.7-2-1.06-3.43-1.06-1.75,0-3.01.45-3.77,1.36-.76.91-1.19,2.05-1.28,3.41h-2.23c.11-2.06.79-3.65,2.05-4.77,1.26-1.13,3-1.69,5.23-1.69,2.03,0,3.69.48,4.97,1.45,1.28.97,1.92,2.3,1.92,3.99.02,1.05-.39,2.07-1.16,2.84-.75.77-1.74,1.28-2.8,1.45v.27c1.31.09,2.54.61,3.48,1.45.94.85,1.41,1.97,1.41,3.36.02,1.16-.36,2.29-1.07,3.2h0ZM172.54.47c2.11,0,3.94.4,5.51,1.2,1.57.79,2.84,1.99,3.66,3.46.86,1.51,1.29,3.3,1.29,5.37,0,2.07-.43,3.87-1.29,5.39-.81,1.47-2.09,2.68-3.66,3.48-1.57.79-3.41,1.19-5.51,1.19h-7.54V.47h7.54ZM178.51,16.69c1.49-1.43,2.23-3.49,2.23-6.2s-.74-4.76-2.21-6.18c-1.48-1.42-3.61-2.13-6.41-2.13h-4.98v16.65h4.95c2.8,0,4.94-.72,6.43-2.14ZM15.68,20.55h-2.09c0-4.11-.76-6.2-2.39-7.58-1.72-1.45-4.13-2.03-9.06-1.72v9.29H0V.47h2.13v9.03C10.91,8.51,13.05.79,13.15.46l2.02.51c-.79,2.46-2.24,4.69-4.21,6.49-.86.77-2.65,1.94-4.47,2.25v.3c3.25,0,4.99.71,6.14,1.68,2.11,1.77,3.04,4,3.04,8.87ZM47.9.5c4.09,0,7.36,1.72,7.36,5.46,0,2.69-1.9,4.55-4.35,4.86v.3c2.62.15,3.71,1.36,3.71,4.31v5.13h-2.15v-4.56c0-3.17-1.21-4.07-4.48-4.07h-6.58v8.62h-2.13V.5h8.61ZM53.04,6.17c0-2.87-2.06-3.95-5.17-3.95h-6.44v7.99h6.71c2.78,0,4.91-1.15,4.91-4.04Z" style="fill: #fe0049;"/>
  </g>
</svg>