<?xml version="1.0" encoding="UTF-8"?>
<svg id="Layer_1" xmlns="http://www.w3.org/2000/svg" version="1.1" xmlns:xlink="http://www.w3.org/1999/xlink"
  viewBox="0 0 100 100">
  <defs>
    <linearGradient id="linear-gradient" x1="-982.78" y1="794.74" x2="-982.14" y2="794.74"
      gradientTransform="translate(-169367.3 -47699.29) rotate(-125.29) scale(139.29)" gradientUnits="userSpaceOnUse">
      <stop offset="0" stop-color="#006ead" />
      <stop offset=".05" stop-color="#0074b8" />
      <stop offset=".17" stop-color="#0083d2" />
      <stop offset=".31" stop-color="#008ee6" />
      <stop offset=".47" stop-color="#0096f4" />
      <stop offset=".66" stop-color="#009bfc" />
      <stop offset="1" stop-color="#009dff" />
    </linearGradient>
  </defs>
  <circle cx="50.2" cy="50" r="44.2" style="fill: url(#linear-gradient);" />
  <path
    d="M46.55,76.23c-2.11,0-4.14-.77-5.72-2.18l-13.3-11.87c-2.22-1.98-3.27-5.03-2.73-7.96l3.3-17.89c.56-3.04,2.73-5.56,5.66-6.56l17.03-6.04c.93-.32,1.87-.48,2.82-.48,2.09,0,4.11.76,5.67,2.14l13.78,12.41c2.3,2.03,3.35,5.19,2.69,8.22l-3.84,17.88c-.63,2.94-2.8,5.37-5.65,6.33l-17,5.55c-.86.29-1.78.44-2.72.44h0Z" />
  <path
    d="M50.2.3C22.75.3.5,22.55.5,50s22.25,49.7,49.7,49.7,49.7-22.25,49.7-49.7S77.65.3,50.2.3ZM35.92,7.9c3.73-1.54,21-5.42,36.16,3.25,1.03.59,1.66,1.39,1.69,2.85.08,3.57.26,10.83-.2,19.39-.03.59-.74.88-1.23.55,0,0-14.61-15.29-36.43-25.23-.36-.16-.36-.67,0-.82h0ZM72.65,45.36l-3.84,17.88c-.4,1.86-1.75,3.38-3.56,3.99l-16.97,5.54c-1.84.62-3.88.21-5.33-1.09l-13.3-11.87c-1.41-1.26-2.06-3.16-1.72-5.02l3.3-17.89c.35-1.92,1.72-3.5,3.56-4.14l17.06-6.05c1.84-.63,3.87-.23,5.33,1.06l13.75,12.38c1.47,1.29,2.13,3.28,1.71,5.2h0ZM27.22,11.81c1.01-.64,1.92-.5,3.32-.06,0,0,8.1,2.83,16.97,9.6.47.36.4,1.08-.13,1.34,0,0-20.32,5.2-39.75,19.24-.32.23-.76-.02-.71-.41.51-4,3.65-19.12,20.29-29.71h.01ZM21.86,83.11c.04.39-.4.65-.71.41-3.21-2.44-14.47-13.48-15.3-33.18-.05-1.19.69-1.84,1.76-2.83,0,0,6.96-5.5,16.66-9.79.54-.24,1.14.19,1.1.78-.12.8-6.03,21.45-3.51,44.61ZM64.42,91.59c-3.72,1.54-20.93,5.44-36.07-3.2-1.03-.59-1.66-1.39-1.7-2.85-.09-3.56-.3-10.81.15-19.36.03-.59.74-.88,1.22-.55,0,0,14.62,15.24,36.41,25.14.36.16.36.67,0,.82h0ZM72.89,87.9c-1.01.63-1.93.49-3.32.04,0,0-8.08-2.87-16.92-9.69-.47-.36-.4-1.08.13-1.34,0,0,20.34-5.09,39.84-19.04.32-.23.76.02.71.42-.53,4-3.75,19.1-20.44,29.61ZM92.62,52.36s-7,5.42-16.73,9.62c-.54.23-1.13-.2-1.09-.79,0,0,6.11-20.67,3.91-44.51-.04-.39.4-.64.72-.4,3.18,2.47,14.33,13.59,14.97,33.27.04,1.19-.7,1.83-1.79,2.81h0Z"
    style="fill: #ededed;" />
</svg>