<?xml version="1.0" encoding="UTF-8"?>
<svg id="Layer_1" xmlns="http://www.w3.org/2000/svg" version="1.1" viewBox="0 0 201.12 202.08">
  <!-- Generator: Adobe Illustrator 29.5.0, SVG Export Plug-In . SVG Version: 2.1.0 Build 137)  -->
  <path d="M132.08.08c1.45.92,1.16,2.52-.41,3.07-3.76-.17-8.01.4-11.71.06-2.01-.18-2.81-1.88-1.07-3.13h13.19ZM0,140.18v-13.19c.91-1.45,2.52-1.16,3.07.41-.17,3.76.4,8.01.06,11.72-.18,2.02-1.88,2.81-3.13,1.07h0ZM0,172.09v-13.19c.91-1.45,2.52-1.16,3.07.41-.17,3.76.4,8.01.06,11.72-.18,2.02-1.88,2.81-3.13,1.07h0ZM163.96.08c1.45.92,1.16,2.52-.41,3.07-3.76-.17-8.01.4-11.71.06-2.01-.18-2.81-1.88-1.07-3.13h13.19ZM0,54.06v-13.19c1.44-1.52,2.94-1.06,3.13,1.07.18,2.02.32,10.03-.06,11.72s-2.23,1.85-3.07.41h0ZM0,85.96v-13.19c1.44-1.52,2.94-1.06,3.13,1.07.18,2.02.32,10.03-.06,11.72s-2.23,1.85-3.07.41h0Z" style="fill: #9c9c9c;"/>
  <path d="M174.75,202.08h-12.94c-1.68-1.17-1.33-2.93.83-3.13s10.19-.32,11.95.06c1.63.36,1.43,2.32.17,3.07h0ZM142.87,202.08h-12.94c-1.68-1.17-1.33-2.93.83-3.13s10.19-.32,11.95.06c1.63.36,1.43,2.32.17,3.07h0Z" style="fill: #9b9b9b;"/>
  <path d="M148.14.08c1.05.97,1.1,2.64-.46,3.01-1.84.45-9.2.27-11.41.11s-3.08-1.22-1.55-3.13h13.42Z" style="fill: #9c9c9c;"/>
  <path d="M57.77,202.08h-12.94c-1.29-.78-1.37-2.57.17-3.07,3.83.17,8.17-.4,11.95-.06,2.16.2,2.5,1.96.83,3.13h-.01Z" style="fill: #9b9b9b;"/>
  <path d="M0,156.26v-13.43c.96-1.05,2.64-1.1,3.01.46.45,1.85.27,9.21.11,11.42s-1.22,3.08-3.13,1.55h.01ZM180.03.08c1.05.97,1.1,2.64-.46,3.01-1.84.45-9.2.27-11.41.11s-3.08-1.22-1.55-3.13h13.42Z" style="fill: #9c9c9c;"/>
  <path d="M25.89,202.08h-12.94c-1.29-.78-1.37-2.57.17-3.07,3.83.17,8.17-.4,11.95-.06,2.16.2,2.5,1.96.83,3.13h-.01Z" style="fill: #9b9b9b;"/>
  <path d="M0,188.17v-13.43c.96-1.05,2.64-1.1,3.01.46.45,1.85.27,9.21.11,11.42s-1.22,3.08-3.13,1.55h.01ZM31.16.08c1.17,1.05,1.26,2.6-.46,3.01s-9.61.3-11.65.12-2.84-1.81-1.07-3.13h13.18ZM46.98.08c1.77,1.32,1,2.94-1.07,3.13s-9.93.3-11.65-.12-1.64-1.97-.46-3.01c0,0,13.18,0,13.18,0ZM63.04.08c1.17,1.05,1.26,2.6-.46,3.01s-9.61.3-11.65.12-2.84-1.81-1.07-3.13h13.18ZM78.87.08c1.77,1.32,1,2.94-1.07,3.13s-9.93.3-11.65-.12-1.64-1.97-.46-3.01c0,0,13.18,0,13.18,0Z" style="fill: #9c9c9c;"/>
  <path d="M60.89,202.08c-1.68-1.17-1.33-2.93.83-3.13,3.77-.34,8.11.23,11.95.06,1.57.55,1.44,2.23.17,3.07h-12.95ZM29.01,202.08c-1.68-1.17-1.33-2.93.83-3.13,3.77-.34,8.11.23,11.95.06,1.57.55,1.44,2.23.17,3.07h-12.95Z" style="fill: #9b9b9b;"/>
  <path d="M0,70.13v-13.19c1.23-1.86,2.94-.98,3.13,1.07s.3,9.91-.12,11.66-1.97,1.5-3.01.46ZM0,38.22v-13.19c1.23-1.86,2.94-.98,3.13,1.07s.3,9.91-.12,11.66-1.97,1.5-3.01.46Z" style="fill: #9c9c9c;"/>
  <path d="M127.05,202.08h-13.18c-1.21-1.19-1.31-2.39.41-3.07,3.76.17,8.01-.4,11.71-.06,2.13.19,2.58,1.69,1.07,3.13h-.01ZM158.93,202.08h-13.18c-1.21-1.19-1.31-2.39.41-3.07,3.76.17,8.01-.4,11.71-.06,2.13.19,2.58,1.69,1.07,3.13h-.01Z" style="fill: #9b9b9b;"/>
  <path d="M0,124.35v-10.8c.44-1.36.87-4.31,2.97-3.09,1.34.78.24,2.53.15,3.69-.18,2.52.5,7.9-.16,9.92-.46,1.4-2.09,1.25-2.96.28ZM0,22.15v-10.56c.45-1.32.72-4.19,2.87-3.23,1.47.66.33,2.55.24,3.59-.24,2.81.51,7.3-.05,9.79-.37,1.64-2.23,1.85-3.07.41h0Z" style="fill: #9c9c9c;"/>
  <path d="M87.74,201.84c-.26,0-.6-.08-.72.24h-10.31c-1.29-.78-1.37-2.57.17-3.07,3.42-.17,6.85.04,10.27-.04,1.08-.03,3.17-.91,3.47.84.32,1.87-1.56,1.96-2.88,2.03ZM189.13.08c1.86.21,7.63,2.15,6.9,4.63-.67,2.27-3.76-.45-4.99-.9-2.74-1.01-4.67-.3-7.31-.6-2.05-.23-2.75-1.77-1.08-3.12,2.06.17,4.46-.23,6.47,0h.01ZM188.89,201.84c-.31.02-.79-.13-.96.24h-10.31c-1.21-1.19-1.31-2.39.41-3.07,3.42-.15,6.85.02,10.27-.04,1.16-.02,3.28-.93,3.39,1.11.09,1.59-1.63,1.67-2.8,1.76ZM15.1.08c1.65,1.1,1.09,2.9-.83,3.12-3.69.43-4.79-.04-7.91,2.64-.78.67-1.23,1.99-2.39,1.91-1.25-.08-1.64-1.33-1.2-2.39C3.5,3.57,7.53,1.28,9.36.69L11.51.08h3.6-.01ZM116.26.08c1.24,1.21.97,2.85-.86,3.1-3.09.42-4.13-.2-7.04,1.83-.94.66-2.41,2.68-3.27,2.74-1.4.09-1.96-1.4-1.31-2.53.76-1.33,4-3.53,5.46-4.13l3.18-1.02h3.84Z" style="fill: #9b9b9b;"/>
  <path d="M88.21.08c1.42.17,6.74,2.2,6.96,3.73.14.97-.59,1.82-1.57,1.8-.57,0-3.64-2.04-5.09-2.36-1.82-.4-5.99.02-7.01-.43-1.2-.53-.79-2.23.23-2.75,2.05.18,4.47-.24,6.47,0h.01Z" style="fill: #999;"/>
  <path d="M188.89,201.84v.24h-.96c.17-.37.65-.22.96-.24ZM87.74,201.84v.24h-.72c.11-.32.46-.23.72-.24Z" style="fill: #9c9c9c;"/>
  <path d="M106.31,51.9c-.81-.17-1.22-1.34-.9-2.09.73-1.73,4.96-.79,6.54-1.03.14-4.54,1.29-9.2,3.07-13.36.74-1.72,1.91-3.36,2.43-5.11-9.2-4.23.51-15.8,6.36-7.45l1.58-1.34c.1-.67-.92-1.2-1.26-1.85-2.21-4.2,2.18-8.72,6.5-6.5,1.43.73,1.71,1.75,2.56,2.96,5.1-2.34,10.51-3.86,16.16-4.06.36-1.62-1.06-7.36,1.54-7.2s1.29,5.51,1.58,7.19c1.63-.13,4.15.81,5.62.71.66-.04,2.79-1.06,3.73-1.31,7.44-1.95,27.29-1.08,32.35,5.52,3.54,4.62-.02,11.13-4.23,13.98-1.51,1.02-3.06,1.48-4.62,2.34,2.26,4.85,3.85,10.07,4.07,15.46,1.69.28,6.78-.95,6.89,1.6s-5.4,1.22-6.89,1.52c0,4.62-1.06,9.4-2.76,13.67-.95,2.39-3.04,5.07-3.01,7.57s.37,5.65.85,8.04c.39,1.95,1.15,3.81,1.57,5.75-2.61-.94-5.3-1.77-8.06-2.12-1.98-.25-5.96-.6-7.82-.22-.95.2-2.78,1.46-3.85,1.91-2.88,1.19-6.15,2.23-9.22,2.77-.75.13-4.42.34-4.57.58-.22,1.72.88,7.24-2.43,5.84-1.35-.58-.46-4.54-.74-5.86-4.21-.3-8.31-1.07-12.31-2.43-2.59,6.66-11.25,10.64-17.28,5.77-6.36-5.13-11.67-24.15-8.94-31.73.31-.86,1.53-2.48,1.62-2.94.32-1.65-.98-4.69-.48-6.59-1.62-.24-4.14.32-5.63,0h-.02ZM167.27,11.9c-1.99.08-8.09.96-8.57,3.41-.55,2.8,2.07,7.45,3.95,9.47,5.78,6.23,23.46,11.72,27.9,1.76,5.64-12.67-15.22-14.98-23.27-14.65h0ZM153.42,18.31c-19.75-2.13-37.18,15.26-35.48,35.02l35.48-35.02ZM158.62,26.01l-33.26,33.21c2.23,1.31,4.12,3.03,5.88,4.9,10.12-9.52,19.76-19.56,29.72-29.27.57-.56,4.33-3.64,4.2-4.19-1.42-.89-2.88-1.71-4.19-2.77-.58-.47-1.7-2.06-2.36-1.89h0ZM137.87,81.13c.36.15.73.38,1.05.06l42.08-41.39c.45-.77-.62-2.88-1.08-3.74-1.53-2.84-1.67-1.94-4.78-2.33l-38.76,38.2c-.5.85.48,2.81.7,3.88.37,1.76.69,3.53.78,5.33h0ZM149.58,83.8c6.54-.03,12.62-1.51,18.2-4.94,9.84-6.06,15.93-17.01,15.6-28.65l-33.8,33.59ZM115.46,60.09c-1.53.53-1.68,6.12-1.59,7.52.36,5.71,4.89,21.85,10.29,24.49,3.69,1.81,7.63-1.6,9.1-4.84,4.1-9.07-3.99-23.14-12.85-26.42-1.23-.46-3.71-1.16-4.94-.74h-.01Z" style="fill: #020201;"/>
  <path d="M70.72,59.81c-.17.21-.16.34-.24.48-.05.08-.2.15-.24.24-2.52,2.53-6.43.38-5.55-2.8,1.03-3.72,6.73-2.81,6.03,2.08Z" style="fill: #030101;"/>
  <path d="M51.06,11.35c9.22.29,18.09,4.1,24.86,10.29,1.84-.32,3.42-4.59,5.48-3.35,2.62,1.58-3.3,4.65-2.98,5.84.11.39,3.31,4.27,3.91,5.23,3.62,5.77,5.91,12.82,5.89,19.65,1.64.25,6.88-.97,6.71,1.78-.14,2.28-5.16,1.02-6.71,1.34-.64,19.64-17.49,36.42-37.16,36.71-.4,1.74,1.14,7.22-1.56,7.22s-1.16-5.49-1.56-7.22c-6.83-.06-13.95-2.4-19.64-6.14-.82-.54-4.45-3.6-4.74-3.67-.33-.09-.44.04-.68.2-1.4.94-3.76,5.19-5.51,3.62-2.21-2,4.05-4.95,3.69-6.31-.04-.17-1.89-2.14-2.23-2.59-4.75-6.39-7.76-13.75-8.05-21.81-1.4-.26-6,.65-6.59-.72-1.47-3.46,4.83-2.16,6.59-2.39.04-6.8,2.18-13.58,5.75-19.32-8.61-3.17-1.49-14.96,5.17-9.01,1.29,1.16.89,2,2.49-.32-5.77-6.3,4.39-12.77,7.82-4.96,4.97-2.38,10.39-3.92,15.93-4.07.2-1.46-.68-5.68,1.13-6.2,2.97-.86,1.75,4.71,1.98,6.2h.01ZM48.42,17.35c-7.46.27-14.81,3.07-20.37,8.04.42.3,1.99,2.2,2.27,2.22.19.01,1.22-.78,1.63-.95,5.44-2.25,11.88,1.04,11.19,7.37-.21,1.9-1.29,3.1-2.38,4.52l7.65,7.59v-28.79h.01ZM50.34,17.35v9.84c.48-.31.56-1.04.96-1.56,4.06-5.17,11.63.55,7.91,5.52-1.79,2.4-5.76,2.53-7.66.24-.5-.6-.62-1.36-1.2-1.79v18.47c.42.1.48-.17.72-.36.72-.56,4.94-4.47,5.28-5.03.46-.77.37-1.77.74-2.62.86-2,2.97-2.61,4.9-3.01.96-1.52,10.52-9.69,10.4-10.41-.05-.31-1.18-1.15-1.53-1.13-.11,0-.72,1.33-1.56,1.59-2.61.81-4.89-1.03-4.22-3.75.17-.69.8-1.14.84-1.32.11-.49-2.43-1.59-2.94-1.82-3.92-1.78-8.31-2.8-12.63-2.84v-.02ZM46.74,49.26l-.36-.72-8.28-8.52c-1.16-.07-2.27.23-3.48.13-3.99-.31-7.18-3.74-6.82-7.8.06-.71.6-1.77.44-2.35-.09-.35-2.12-2.39-2.7-2.35-5.3,5.92-8.74,13.57-8.77,21.61h3.84c1.38-7.93,12.15-9.96,16.4-3.1.64,1.03.85,2.09,1.46,3.1h8.27ZM82.22,49.26c-.03-7.54-3.08-15.43-8.3-20.86l-9.91,9.46c6.34,4.32-1.17,12.42-6.24,7.19-.27-.28-.1-.74-.59-.59-1.16,1.38-3.01,2.68-4.08,4.07-.19.24-.46.3-.36.72h17.5c-.02-.87-.7-1.36-.73-2.29-.1-3.38,4.57-4.47,5.88-1.55.77,1.69.07,2.28-.36,3.84h7.19ZM20.38,51.18h-3.6c-.13,4.69,1.52,9.12,3.12,13.43.68-.02.91-.72,1.51-1.01,4.41-2.18,6.66,4.98,1.85,5.93-.01.47,2.07,3,2.52,3l21.69-21.36h-9.11c-.65,11.64-17.28,11.69-17.98,0h0ZM70.72,59.81c2.55-3.1,7.46-3.26,10.3-.48.7-2.65,1.28-5.4,1.2-8.16h-29.01l20.28,21.1c.43.09,2.18-2.25,2.01-2.39-4.8-.23-7.1-5.12-5.27-9.36.08-.08.18-.15.24-.24.11-.18.19-.15.24-.48h.01ZM57.29,81.88c4.09-.68,8.16-2.75,11.48-5.18.45-.33,2.72-1.96,2.65-2.34l-21.08-21.26c-.36,1.67,1.55,1.75,2.61,2.78,2.46,2.39,2.47,6.67,0,9.06-.77.75-1.82,1.03-2.57,1.74-.13,3-.04,5.98.2,8.96,3.93-.64,8,1.91,6.71,6.23h0ZM41.95,59.82l-9.83,9.48c2.9-.02,4.64,3.49,2.41,5.53s-5.27.25-5.29-2.53c-.5.32-1.92,1.19-1.92,1.8,0,.45,2.51,2.32,3.05,2.71,4.24,3.08,9.26,5.06,14.46,5.8-.65-2.15.27-4.01,1.92-5.4.39-.33,1.9-1.13,1.93-1.24.21-.87-.23-1.97-.26-2.83-.06-2.07.05-4.16.02-6.23-3.88-.45-6.6-3.05-6.49-7.1h0Z" style="fill: #030101;"/>
  <path d="M160.37,114.03c4.71,1.18,8.93,3.68,12.86,6.44.67.06,5.62-4.04,6.73-4.24,1.33-.24,2.06.96,1.69,2.19-.26.88-4.91,3.4-5.93,4.04,1.19,2.44-.05,5.32-2.99,4.99-1.37-.15-1.59-1.45-2.79-1.08l-12.62,8.25c-.97.58-2.04.99-3.19,1.01l.24.36,24.05-2.27c.77-1.8,2.65-2.42,4.4-1.5.44.23.91.9,1.18.95,1.05.2,4.59-.6,5.97-.66.8-.04,2.25-.16,2.89.22.95.57.69,2.19-.31,2.59-.78.31-7.26.54-7.26.9,1.69,4.47,2.94,9.21,2.88,14.03,1.55.2,8.83-1.03,7.25,2.34-.7,1.51-5.74.53-7.25.54.72,3.45-3.66,5.78-5.62,2.63-.6-.96-.09-2.61-.76-2.83-1.04-.34-5.42.02-6.93-.02-3.54-.1-8.06-.06-11.49-.49-1.06-.13-7.04-1.93-7.31-1.68l3.5,6.7c2.27,2.02,4.37,4.84,6.69,6.74,1.9,1.56,4.9,2.42,7.08,3.71,4.86,2.86,9.81,9.99,11.51,15.35.33,1.03,1.2,3.07-.02,3.61-.82.37-4.26-1.03-5.26-1.45-4.93-2.1-10.61-6.23-13.32-10.9-1.09-1.89-1.85-4.62-3.11-6.25-1.91-2.48-5.25-4.84-7.34-7.29l-6.69-3.5,1.67,8.28.48,18.35c5.3-1.11,5.75,6.27.24,6,.02,1.32-.04,2.65,0,3.97.02.91.5,1.45.07,2.45-.49,1.12-2.21,1.43-2.76.24-.47-1.01-.18-6.43-.42-6.66-2.65-.06-5.38-.43-7.96-1.03-1.8-.42-4.26-1.64-5.84-1.84-.48-.06-.31,0-.35.35-.24,1.9-.06,4.89-.58,6.62-.49,1.62-2.57,1.47-3.01-.14l.73-7.92c.04-.81-.88-1.07-1.11-1.78-.53-1.69.05-3.2,1.58-4.02.8-7.82,1.69-15.72,2.14-23.58l-9.55,15.29c-.15.61.66.99.97,1.57.99,1.86-.26,4.27-2.35,4.48-.81.08-1.9-.54-2.25-.36s-2.63,4.15-3.26,4.91c-1.45,1.74-3.39,1.01-2.93-1.01.31-1.38,4.17-5.56,3.99-6.72-.06-.38-2.57-3.83-3.03-4.66-1.45-2.59-2.56-5.38-3.41-8.23-.25-.19-3.23,4.13-4.31,4.46s-2.23-1.03-1.82-2.07l5.05-5.75c-.05-2.71,1.03-4.4,3.91-4.37l14.33-16.49c.39-2.3-1.17-.27-2.22.18-5.09,2.17-10.1-3.01-7.86-8.11,1.16-2.64,4.12-3.68,6.83-3.36-.18-1.54.13-2.64,1.07-3.85,4.24-5.46,12.56.42,8.62,6.47-.6.92-2.15,1.43.2,1.9l16.13-14.11c.85-2.1.65-3.44,3.22-4,.43-.09.81.14,1.19.02,1.13-.35,4.25-4.13,5.63-4.93.78-.45,1.8-.4,2.26.4,1.27,2.19-3.49,3.8-4.05,5.61h.04ZM161.32,120.52c-.2-.22-5.01-1.4-5.74-1.45l4.92,4.07c.5.08.28-.07.38-.33.13-.34.59-2.14.45-2.3h0ZM153.39,126.78c-.96-.56-3.47,4.1-3.81,2.24-.13-.74,2.54-2.71,2.62-3.15.09-.52-1.29-1.13-1.18-1.64.8-1.13,1.45.68,2,.58.51-.09,2.53-3.05,3.26-3.48.07-.33-1.91-1.76-2.27-1.77-.67-.02-7.66,6.4-8.49,7.51,1,.81,5.55,6.07,6.34,6.15s5.37-1.66,5.39-2.28c-1.13-1.19-2.35-2.3-3.49-3.48-.19-.2-.34-.67-.38-.69h.01ZM160.13,129.15c.81-.7,7.58-4.59,7.43-5.16-.11-.41-4.93-3.06-5.27-2.76l-2.16,7.92h0ZM160.33,124.15l-3.17-2.17c-.22.04-2.8,2.83-3.04,3.2-.16.24-.29.35-.2.68.11.41,4.05,4.57,4.4,4.49.56-.58,2.17-5.92,2.01-6.2ZM144.24,127.98c-.33.09-2.73,2.25-2.75,2.49l3.06,4.82,5.52-1.45c.38-.31.16-.24,0-.48-.34-.52-4.62-4.82-5.14-5.17-.24-.16-.35-.29-.68-.2h-.01ZM143.35,135.86c.27-.31-2.24-4.04-2.78-4.55-.29-.06-4.42,3.53-4.42,3.95,0,.33,1.58,1.93,1.84,1.98.88.17,4.15-1.48,5.36-1.39h0ZM171.18,142.8c.13.16,3.49.6,4.05.64.21-.13,1.95-4.03,2.05-4.45.37-1.45-2.53-1.11-3.39-1.92l-5.37.48.48,5.76c2.41.31.28-2.67,1.32-3.12.57-.24.48,0,.62.33.25.62.16,2.19.24,2.28h0ZM133.69,137.57c-.68.17-6.84,8.05-7.99,9.08-.22.38.34,1.01.71.95.5-.08,2.79-3.09,3.51-3.46.42-.22.46-.04.72.25-.41,2.14-5.38,3.59-2.24,5.62.29.06.39-.2.57-.33.71-.55,5.03-4.88,5.32-5.47.27-.55,1.16-3.77,1.13-4.34-.04-.78-.8-2.53-1.73-2.29h0ZM167.56,137.78c-.87,0-1.79-.12-2.6.27-.3.53.42,2.63.2,2.84-.03.03-.9.02-.94-.02-.14-.13-.31-2.45-.26-2.86-3.11.45-4.81-.57-3.37,3.5,1.21.53,3.71,3.71,4.75,3.91.48.09,2.53-.93,2.66-1.32.47-1.38-.6-4.72-.44-6.32h0ZM180.47,141.35c.2-.32-.57-2.53-.81-2.84-1.15-1.45-2.42,3.66-2.99,4.2.53-.07,3.69-1.18,3.8-1.35h0ZM158.9,138.54c-.26-.16-1.06-.07-1.29.21-1.41,2.16-3.05,4.17-4.49,6.3-.18.27-1.07,1.43-.9,1.61l8.39,1.92c-.34-1.18-1.28-9.77-1.71-10.04h0ZM156.29,138.75c-1.13.2-2.31.14-3.45.27-.28.03-1.31.11-1.35.45,1.42-.46,4.48,1.08,4.79-.72h.01ZM146.47,139.7v5.4c0,.36,1.97.59,2.4.6l.72-6.11c-.02-.44-2.72.2-3.12.12h0ZM145.51,139.94c-1.45-.03-2.92-.06-4.32.36l4.32,4.44v-4.8ZM154.85,140.42c-.81.26-4.17-.44-4.45,0-.16.24-.79,5.57-.59,5.77l1.39-.05c.77-1.71,2.56-3.28,3.41-4.86.16-.29.33-.46.23-.84h0ZM137.6,151.94h4.31c.1.28-.11.96-.36.96h-3.96c-.39,1.16-.21,2.4-.24,3.6,1.77.04,3.52,0,5.27-.24l1.2-8.75c-.07-.7-4.47-4.59-5.27-5.4l-.96,9.84h.01ZM180.98,142.34c-.78.31-4.6,1.5-4.91,1.92-.67.91-.19,4.23-.6,5.51,1.06-.31,4.78.75,5.4,0,.17-.2.97-2.91.99-3.28.06-1.27-.67-2.9-.88-4.17v.02ZM161.57,147.86c.45-.26,2.75-1.22,2.63-1.78-.04-.16-1.07-1.1-1.32-1.33-.18-.17-1.88-1.62-2.03-1.44l.72,4.56h0ZM170.56,149.78c1.18.18,2.73-.13,3.96,0l.48-5.28c-.12-.16-3.63-.73-3.95-.71-.27.02-1.78.72-1.82.87-.1.38.38,4.63.55,4.81.03.03.69.29.78.3h0ZM164.08,149.54c1.48.16,3.17-.11,4.67,0-.36-1.21-.17-2.5-.48-3.72-.07-.26.17-.46-.36-.36-1.18.22-4.54,2.86-5.87,3.48.61.13,1.45.54,2.04.6ZM131.84,153.14l1.56-6.23-3.94,3.99c-.06.34,2.13,2.51,2.38,2.25h0ZM124.57,147.88c-.16.04-2.09,2.3-2.09,2.5,0,.36,2.38,2.77,2.77,2.77.99-.48,1.67-1.56,2.51-2.29-.9-.53-1.85-2.27-2.5-2.78-.24-.18-.37-.29-.69-.2h0ZM146.95,162.98l-2.64-12.47-1.68,12.23,4.32.24h0ZM117.94,156.5c.58-.58,2.12,1.32,2.52,1.67.5-.65,4.02-3.71,3.94-4.16l-2.74-2.79c-.68,1.05-4.27,4.28-4.43,5.16-.32,1.72,2.11,7.95,2.99,9.72l2.28,3.59c.26-1.23,3.13-4.09,2.85-5.1-.09-.34-4.23-4.35-4.88-4.98-.44-.42-3.27-2.37-2.52-3.11h-.01ZM128.41,151.96c-.94.25-5.8,6.18-7.12,7.05.82.55,4.17,4.55,4.69,4.67.35.08.38-.21.55-.39.74-.78,3.49-5.08,3.97-6.1.17-.36.81-2.27.82-2.54,0-.41-2.36-2.83-2.9-2.69h-.01ZM142.39,157.22c-1.72.41-3.5.18-5.26.25l-.73,8.14c.89-.4,2.46-2.46,3.12-2.75.6-.27,2.01,0,2.14-.14.2-.19.59-4.78.73-5.5ZM141.43,163.69c-.1-.1-1.16,0-1.44.13-.24.11-3.68,3.39-3.78,3.65-.08.21-.28,1.63-.2,1.75.24.33,3.98.45,4.69.47-.09-.82.97-5.75.72-6h0ZM147.42,163.94l-4.81-.14-.94,6.14c.8-.18,1.6.18,2.3.22.4.02.76-.23,1.16-.2.68.04,1.47.7,2.29.46.41-2.14.29-4.32,0-6.47h0ZM140.47,170.65l-4.41-.25c-.49.13-.93,8.97-1.07,10.18.08.23,3.11,1.59,3.45,1.59.3,0,.46-.12.55-.4.31-1.03.15-2.79.51-3.91-.09-.13-2.13-.46-2.57-.67-.34-.17-.49-.16-.3-.65.3-.77,2.4.46,3.11.12l.72-6h.01ZM144.3,171.14l-2.87-.24-.23,2.63,2.87.25.23-2.63h0ZM147.19,171.37c-2.44-.65-1.92.65-2.13,2.61,2.32,1.06,1.91-.95,2.13-2.61ZM143.33,177.59c.77-3.07.66-2.83-2.38-3.1.06.63-.52,2.13-.21,2.61.1.15,2.37.67,2.59.49h0ZM146.46,175.21c-.06-.06-1.35-.04-1.67-.24.02.52-.65,2.91-.47,3.11.06.07,1.82.34,1.91.25-.16-.56.5-2.86.24-3.12h-.01ZM148.14,180.73v-4.92s-.35-.48-.48-.24c-.37,1.08-.67,2.57-.37,3.73.07.27.54,1.3.85,1.43h0ZM140.47,178.09c.08,1.06-1.1,4.2-.07,4.75,2.71,1.45,2.01-2.29,2.68-3.89-.12-.46-2.08-.65-2.61-.86h0ZM146.41,179.59c-.16-.13-2.23-.6-2.33-.53l-.73,4.55,4.79.48c.34-.34-1.44-4.26-1.74-4.5h.01Z" style="fill: #020403;"/>
  <path d="M48.42,118.95c-.22-.78-1.7-.73-1.45-3.12.16-1.49,1.41-2.03,1.45-2.2.35-1.43-.81-6,.89-6.5,3.08-.92,2.09,4.6,2.22,6.19,4.3.03,8.58,1.06,12.56,2.62.49-.11,1.46-3.46,1.87-4.13.45-.73,1.2-.5,1.05.32-.16.9-1.92,3.62-1.48,4.31.18.28,4.97,2.66,5.87,3.26s1.91,1.36,2.77,2.02c.6.47,2.09,2.06,2.53,2.29.23.12.24.12.48,0,.54-.28,3.27-3.84,3.84-3.25.85.89-3.34,3.42-3.09,4.39.07.25,2.82,3.28,3.29,3.93,1.48,2.03,2.67,4.25,3.88,6.45,1.02.65,5.81-3.49,6.43-.44.47,2.29-3.93,2.53-5.23,3.54-.82.64-.53,2.01-2.22,2.57s-2.27-.43-3.35-.25l-22.72,9.55h25.05c.17,0,1.02-1.55,2.87-1.45,1.57.09,1.81,1.28,2.65,1.44,1.5.29,5.75-.74,6.3,1.14.83,2.81-4.73,1.85-6.19,1.99-.11,4.11-1,8.15-2.4,11.99,1.51.73,6.5,1.55,5.05,3.98-1.11,1.85-4.81-1.09-6.18-1.3-.54-.08-.9.36-1.39.43-2.02.28-3.33-.63-3.95-2.5-6.89-2.56-14-6.51-20.92-8.81-.38-.13-.71-.26-1.13-.19l3.72,3.35,16.3,18.47,2.99,3.84-25.89-22.55,8.92,21.42c.63.93,2.25.79,2.71,2.56.4,1.52-.46,1.97-.36,2.98.13,1.33,3.3,5.64,1.03,6.33-2.58.79-2.78-3.44-3.81-5.01-2.5.63-4.93,1.46-7.48,1.87-1.05.17-3.53.12-4.22.34-.32.1-.34.28-.39.57-.29,1.55,1.02,6.48-1.99,5.59-1.69-.5-.51-4.8-.94-6.26-.14-.46-.88-.81-1.12-1.28-.37-.72-.4-1.97-.16-2.74.17-.56,1.33-1.44,1.33-1.55v-25.31l-9.47,22.55c-.36,1.6.74,2.35-.02,4.06s-1.94,1.28-2.43,1.76-1.31,4.15-2.08,5c-.95,1.04-2.79.49-2.7-1.06.05-.88,2.11-4.55,1.83-4.94-4.02-1.62-7.46-4.36-10.68-7.2l-3.8,3.34c-.41-.31-.47-.48-.24-.96.26-.56,3.23-2.98,3.23-3.24-3.19-3.41-5.93-7.27-7.69-11.62-.42-.3-3.55,1.48-4.23,1.62-.34.07-.94.05-1.02-.32-.18-.88,4.48-2.01,4.57-2.43-1.3-4.16-2.38-8.26-2.64-12.65l-.16-.17c-1.61-.27-5.87.98-5.87-1.54s4.42-1.23,6.13-1.56c1.28-.25,1.61-2.26,4.29-1.17.79.32,1.04,1.15,1.46,1.19l26.95-.05.23-1.03c-7.72-6.12-15.4-12.46-23.29-18.33-5.23,2.73-10.48-3.91-6.4-8.33,3.28-3.55,9.32-1.24,9.3,3.6,0,.79-.72,2.11-.31,2.76l18.47,14.63.83.37-13.71-20.71c-4.04.42-7.52-3.06-5.64-7.06,2.24-4.76,10.01-2.67,8.99,3.24-.16.95-1,1.52-.79,2.32l16,23.95.91.05v-26.99.03ZM61.83,121.49c-3.35-1.27-6.93-2.14-10.53-2.18.07,3.59.34,2.54,2.94,2.94,1.09.17,6.37,1.72,6.74,1.63.15-.04,1.01-2.19.86-2.4h0ZM62.81,121.95c0,.8-1.06,1.93-.61,2.64.14.22,3.84,2.06,4.62,2.58s1.61,1.16,2.34,1.74c.41.33,1,1.16,1.33,1.33.6.31,1.63-1.34,2.15-1.69-2.73-2.86-6.14-5.14-9.82-6.6h-.01ZM60.41,124.83c-3.01-.75-5.94-1.82-9.11-1.68l.27,9.08c.75.38,1.59.2,2.38.38.63.14,2.82.96,3.11.75l3.34-8.53h0ZM61.39,125.57l-3.36,8.24,5.58,3.73,6.38-6.34c-.71-1.22-7.87-6.14-8.6-5.62h0ZM79.58,138.26c.21-.28-2.28-4.3-2.68-4.87-.66-.95-2.32-3.18-3.18-3.78-.7-.48-2.15,1.26-2.02,1.77.05.17,1.95,2.21,2.33,2.73,1.06,1.45,2.03,3,2.8,4.64.77.71,1.9-.49,2.76-.49h-.01ZM75.97,139.68c.26-.37-1.62-3.3-1.99-3.85-.42-.63-2.68-3.7-3.18-3.79l-6.33,6.34,3.28,4.64c.97-.63,7.96-2.97,8.22-3.35h0ZM56.57,134.43c-1.66-.39-3.26-1.18-5.02-.95-.28,1.54-.52,11.94,0,12.46.41.42.41-.16.5-.34,1.75-3.42,2.9-7.65,4.53-11.17h0ZM57.54,134.91l-4.52,10.98c-.17.48.5,1.06.91,1.16.59.14,7.51-7.56,8.61-8.47.15-.55-1-1.28-1.43-1.62-1.09-.84-2.34-1.45-3.57-2.06h0ZM66.39,143.77c.54-.63-2.5-4.61-2.95-4.53l-8.54,8.86,11.49-4.33ZM58.01,153.62s-.71-.61-.48.12c.08.26.33.06.48.12,1.79.72,3.6,1.42,5.39,2.16l.36-2.4c-.2-.21-4.85.12-5.75,0ZM24.21,153.62h-6.95c0,3.54.84,7.04,2.06,10.33.63.09,6.21-2.24,6.32-2.57-.54-2.57-1.35-5.11-1.42-7.76h0ZM34.64,153.62h-9.47c.04,1,1.01,7.27,1.79,7.38s7.32-3.4,8.76-3.55c-.39-.64-.68-3.7-1.08-3.83ZM43.63,153.62h-7.67l.72,3.36c1.82-1.01,4.69-1.58,6.4-2.59.33-.19.64-.29.55-.77ZM74.55,153.62h-9.59c-.06.72-.79,2.55-.24,3l8.5,3.48c.47-.1,1.59-5.61,1.33-6.47h0ZM82.7,153.62h-7.19c.15,2.38-.72,4.65-1.1,6.97l6.37,2.63c1.07-3.1,1.63-6.33,1.92-9.6ZM44.31,155.09c-.33-.19-6.84,2.52-7.05,2.84-.3.46,1.79,3.1,2.18,3.61l5.28-5.04c.3-.23-.3-1.34-.41-1.4h0ZM46.02,157.22l-.97.35-4.67,4.93c.45.39,2.49,2.04,2.99,1.67,0,0,2.65-6.95,2.65-6.95ZM35.89,158.45l-8.54,3.71c-.15.66,3.8,6.62,4.46,6.79.27.07.49,0,.69-.2l6.33-6.37c-.43-.48-.95-1.04-1.29-1.58-.3-.48-1.17-2.37-1.65-2.34h0ZM51.3,159.86v16.67c0,.51,2.02.15,2.48.09.5-.07,3.97-.85,4-1.06l-6.49-15.7h.01ZM26.36,162.5c-.88.27-6.33,2.3-6.44,2.78.29,1.5,5.49,9.62,6.54,9.44.33-.06,4.26-4.2,4.69-4.87-1.92-2.21-3.73-4.59-4.79-7.35ZM39.47,163.24c-.76.94-6.51,6.07-6.61,6.61-.11.65,5.05,4.19,6.07,4.39l3.69-8.55c0-.57-2.53-2.08-3.16-2.45h.01ZM31.81,170.92c-.29.08-4,3.77-4.26,4.16-.16.24-.29.35-.2.68.24.9,7.75,6.07,8.46,5.91,1.23-1.91,1.85-4.23,2.77-6.32-1.41-.82-2.81-1.64-4.15-2.57-.57-.4-2.09-1.99-2.63-1.85h.01ZM51.3,177.85v6.96c3.28.03,6.53-.76,9.6-1.81-.5-2.26-1.86-4.31-2.41-6.58-2.32.81-4.74,1.25-7.19,1.44h0Z" style="fill: #030304;"/>
  <path d="M198.9,37.07c1.19-.25,1.86.69,1.99,1.75.26,2.17.3,9.67-.02,11.75s-2.87,1.93-3.11.03c-.3-2.34-.27-9.63,0-12.01.09-.74.34-1.34,1.14-1.51h0ZM198.9,68.97c1.19-.25,1.86.69,1.99,1.75.26,2.17.3,9.67-.02,11.75s-2.87,1.93-3.11.03c-.3-2.34-.27-9.63,0-12.01.09-.74.34-1.34,1.14-1.51h0ZM101.81,142.15c1.21-.37,2.09.31,2.23,1.51.25,2.15.31,9.95-.02,11.99-.31,1.91-2.86,1.96-3.11-.22-.29-2.48-.29-9.28,0-11.77.06-.55.31-1.33.89-1.51h0ZM101.81,174.05c1.21-.37,2.09.31,2.23,1.51.25,2.15.31,9.95-.02,11.99-.31,1.91-2.86,1.96-3.11-.22-.29-2.48-.29-9.28,0-11.77.06-.55.31-1.33.89-1.51h0ZM199.11,139.04c1.19-.13,1.69.97,1.78,1.97.21,2.4.33,9.28-.03,11.51-.32,2.01-2.88,2.34-3.11-.22-.34-3.81.27-8.13.02-12,.08-.52.86-1.21,1.34-1.27h0ZM102.06,56.02c1.17-.24,1.85.36,1.99,1.51.25,2.17.32,9.94-.02,11.99-.31,1.91-2.86,1.96-3.11-.22-.29-2.47-.29-9.29,0-11.77.09-.74.34-1.35,1.14-1.51ZM199.11,170.95c1.19-.13,1.69.97,1.78,1.97.21,2.4.33,9.28-.03,11.51-.32,2.01-2.88,2.34-3.11-.22-.34-3.81.27-8.13.02-12,.08-.52.86-1.21,1.34-1.27h0ZM102.06,24.11c1.17-.24,1.85.36,1.99,1.51.25,2.17.32,9.94-.02,11.99-.31,1.91-2.86,1.96-3.11-.22-.29-2.47-.29-9.29,0-11.77.09-.74.34-1.35,1.14-1.51ZM198.9,123.19c1.19-.25,1.86.69,1.99,1.75.25,2.1.31,9.76-.02,11.75s-2.88,1.81-3.11.03c.35-3.8-.43-8.3,0-12.01.09-.74.34-1.34,1.14-1.51h0ZM102.29,71.85c1.15-.18,1.67,1.04,1.76,1.99.22,2.38.33,9.3-.02,11.51s-2.86,1.99-3.12.03-.28-10.02.03-11.99c.1-.67.68-1.43,1.36-1.54h-.01ZM198.65,53.15c1.32-.39,2.08.22,2.23,1.5.25,2.16.31,9.69-.02,11.75s-2.85,2.23-3.11.02c-.43-3.72.34-8.21,0-12.01-.02-.5.44-1.12.9-1.26h0ZM102.29,39.94c1.15-.18,1.67,1.04,1.76,1.99.22,2.38.33,9.3-.02,11.51s-2.86,1.99-3.12.03-.28-10.02.03-11.99c.1-.67.68-1.43,1.36-1.54h-.01ZM135.38,102.1c1.87-.34,9.95-.31,11.9-.04,2.18.31,2.24,2.85.03,3.1s-9.92.32-11.98-.02c-1.89-.31-1.85-2.7.04-3.05h.01ZM198.9,155.1c1.19-.25,1.86.69,1.99,1.75.25,2.1.31,9.76-.02,11.75s-2.88,1.81-3.11.03c.35-3.8-.43-8.3,0-12.01.09-.74.34-1.34,1.14-1.51h0ZM167.26,102.1c1.87-.34,9.95-.31,11.9-.04,2.18.31,2.24,2.85.03,3.1s-9.92.32-11.98-.02c-1.89-.31-1.85-2.7.04-3.05h.01ZM198.65,21.24c1.32-.39,2.08.22,2.23,1.5.25,2.16.31,9.69-.02,11.75s-2.85,2.23-3.11.02c-.43-3.72.34-8.21,0-12.01-.02-.5.44-1.12.9-1.26h0ZM34.21,102.09c1.37-.3,10.64-.28,12.16-.04,1.97.31,2.15,2.79.24,3.09s-10.39.3-12.2,0-1.84-2.69-.2-3.05ZM50.27,102.09c1.31-.29,10.71-.27,12.16-.04,1.91.31,1.95,2.86-.22,3.11-3.7.43-8.19-.32-11.98-.02-1.85-.29-1.73-2.66.04-3.05ZM66.09,102.09c1.37-.3,10.64-.28,12.16-.04,1.97.31,2.15,2.79.24,3.09s-10.39.3-12.2,0-1.84-2.69-.2-3.05ZM119.31,102.09l12.16-.04c1.91.43,2.03,2.39.25,3.1h-12.45c-1.68-.67-1.71-2.47.05-3.06h-.01ZM151.19,102.09l12.16-.04c1.91.43,2.03,2.39.25,3.1h-12.45c-1.68-.67-1.71-2.47.05-3.06h-.01ZM18.39,102.09c1.31-.29,10.71-.27,12.16-.04,1.91.31,1.95,2.86-.22,3.11-3.7.43-8.19-.32-11.98-.02-1.85-.29-1.73-2.66.04-3.05ZM102.29,126.07c1.15-.18,1.67,1.04,1.76,1.99.22,2.4.32,9.27-.03,11.51-.32,2.06-2.88,2.14-3.11-.45-.22-2.42-.33-9.26.03-11.51.1-.67.68-1.43,1.36-1.54h-.01ZM102.29,157.98c1.15-.18,1.67,1.04,1.76,1.99.22,2.4.32,9.27-.03,11.51-.32,2.06-2.88,2.14-3.11-.45-.22-2.42-.33-9.26.03-11.51.1-.67.68-1.43,1.36-1.54h-.01ZM102.78,110.23c2.76-.5,1.33,3.09,1.25,4.39-.16,2.76.41,6.56,0,9.11-.31,1.89-2.78,1.89-3.09,0s-.17-6.9-.02-8.87c.09-1.18.54-4.39,1.87-4.63h-.01ZM104.22,8.53c.78.78-.13,2.87-.19,3.89-.17,2.78.41,6.52,0,9.11-.32,2-2.78,2.13-3.09.24-.35-2.17-.15-10.32.63-12.29.4-1.02,1.69-1.91,2.65-.95Z" style="fill: #9c9c9c;"/>
  <path d="M82.15,102.09c1.95-.44,6.37.06,8.35.66.98.3,4.34,1.89,4.62,2.82.41,1.36-.66,2.24-1.98,1.99-.49-.09-.83-.6-1.32-.85-1.49-.74-2.74-1.39-4.45-1.55-1.56-.14-4.34.31-5.64-.11-1.48-.48-1.16-2.61.42-2.96ZM6.08,196c.99.97,4.49,2.57,4.69,2.86.91,1.3-.08,2.76-1.72,2.45-3.55-.69-8.16-6-8.71-9.54-.24-1.52,1.65-2.58,2.65-1.43.46.52.69,2.04,1.04,2.79.38.81,1.41,2.25,2.05,2.87ZM195.79,107.26c-1.16,1.16-3.15-.79-4.26-1.26-.85-.36-2.11-.72-3.02-.81-1.56-.16-4.42.29-5.67-.08-1.47-.43-1.45-2.76.44-3.05,3.13-.49,10.16.4,12.34,2.97.5.58.76,1.64.17,2.24h0ZM1.37,87.93c2.11-.47,2.26,2.52,3.23,4.1s2.38,2.78,3.95,3.72c1.13.68,2.66.47,2.49,2.32-.18,1.96-2.36,1.07-3.46.56-1.53-.71-3.26-2.05-4.35-3.32-1.01-1.17-4.6-6.78-1.86-7.39h0ZM113.33,102.11c1.51-.14,3.8-.39,3.67,1.73-.11,1.8-2.68,1.21-3.91,1.39-2.03.29-3.76,1.05-5.33,2.34-.9.73-2.79,3.53-3.98,1.57-1.34-2.22,3.8-5.32,5.53-6.01,1.19-.48,2.74-.89,4.02-1.01h0ZM97.98,187.01c3.32-.68,1.19,6.05.42,7.63-.69,1.39-5.81,8.1-6.97,4.57-.58-1.77,1.39-2.32,2.42-3.36,1.15-1.17,2.25-3.2,2.64-4.8.33-1.35-.06-3.72,1.49-4.04h0ZM198.9,187.01c3.87-.82.86,7.02-.08,8.57-.87,1.45-4.79,6.32-6.3,3.71-.92-1.59,1.72-2.76,2.73-3.93s1.86-2.77,2.2-4.27c.31-1.34-.02-3.77,1.45-4.08h0ZM12.42,102.11c1.33-.13,3.83-.26,3.65,1.7s-2.67,1.21-3.93,1.37c-1.63.21-3.61,1.04-4.92,2.03-.99.75-3.12,3.97-4.35,1.91-1.03-1.72,1.82-3.91,3.15-4.79,1.75-1.16,4.31-2.03,6.4-2.23h0ZM102.29,87.93c2.08-.62,2.2,2.11,2.9,3.47.77,1.51,2.14,2.96,3.56,3.87,1.27.81,3.38.98,3.21,2.81-.31,3.4-6.26-1.15-7.33-2.28-1.27-1.33-3.72-5.19-3.18-7.03.09-.3.54-.75.84-.84ZM102.54,189.88c1.77-.31,2.15,2.75,2.99,4.11s2.23,2.74,3.63,3.57,3.16.76,2.79,2.71c-.4,2.11-3.18.51-4.23-.07-2.09-1.16-3.86-2.98-5-5.07-.66-1.21-2.5-4.83-.18-5.24h0ZM99.42,85.3c1.27,1.27-.59,6.47-1.43,7.93s-3.98,5.48-5.94,4.6c-2.54-1.14,1.72-3.92,2.51-4.91.87-1.09,1.58-2.48,1.92-3.84.24-.96.23-2.77.48-3.36.35-.82,1.89-.99,2.46-.43h0ZM198.65,85.05c2.42-.74,2.14,2.06,1.96,3.65-.27,2.4-2.12,5.74-3.83,7.44-.93.92-3.73,3.22-4.43.87-.47-1.57,1.73-2.36,2.66-3.36s2.05-2.97,2.4-4.32c.3-1.13.15-3.95,1.24-4.28h0Z" style="fill: #9b9b9b;"/>
  <path d="M96.06,107.59c2.02-.36,3.46,4.54,3.63,6.11.15,1.43.27,6.13.02,7.4-.19,1-1.59,1.41-2.38.71-.91-.79-.36-5.63-.52-7.16-.1-.92-.44-1.97-.75-2.85-.4-1.14-2.39-3.79,0-4.22h0ZM196.98,107.59c2.05-.37,3.47,4.33,3.63,5.87s.27,6.29.02,7.64c-.28,1.52-2.58,1.49-2.86-.25-.51-3.28.57-5.74-.79-9.28-.39-1.01-2.36-3.55,0-3.98h0ZM198.42,5.9c.8.66,2.11,4.45,2.22,5.57.14,1.45.24,6.38,0,7.67s-2.5,1.08-2.82-.04c-.44-1.54.14-4.99-.08-6.88-.2-1.73-1.82-4.13-1.89-5.08-.09-1.38,1.54-2.07,2.57-1.23h0ZM97.14,19.69c-.59-.59-.19-5.91-.33-7.23-.09-.88-.42-2.02-.75-2.85-.41-1.04-2.18-3.1-.42-3.89,2.46-1.1,3.91,4.51,4.07,6.23.11,1.21.19,6.42-.1,7.33s-1.94.94-2.47.41ZM145.92,97.05l12.64-.04c1.6.07,1.63,2.59.25,2.86h-12.93c-1.42-.44-1.44-2.48.05-2.82h-.01ZM188.84,96.83c.92-.04,2.45-.48,2.68.78.12.62.04,1.27-.45,1.69-1.54,1.3-10.88.21-13.32.57-1.51-.53-1.44-2.59.25-2.86,2.85-.45,7.65-.04,10.84-.18ZM114.04,97.05l12.64-.04c1.6.07,1.63,2.59.25,2.86h-12.93c-1.42-.44-1.44-2.48.05-2.82h-.01ZM87.93,96.83c1.15-.05,2.48-.54,2.68,1.03s-1.01,1.84-2.3,1.99c-3.58.42-7.82-.25-11.47.02-1.51-.53-1.44-2.59.25-2.86,2.84-.45,7.66-.05,10.84-.18ZM97.14,83.51c-.26-.26-.28-.88-.31-1.25-.24-2.82-.31-9.03,0-11.77.24-2.11,2.61-1.85,2.88-.47-.33,3.95.45,8.62,0,12.47-.17,1.5-1.78,1.83-2.58,1.02h.01ZM97.14,51.6c-.26-.26-.28-.88-.31-1.25-.24-2.82-.31-9.03,0-11.77.24-2.11,2.61-1.85,2.88-.47-.33,3.95.45,8.62,0,12.47-.17,1.5-1.78,1.83-2.58,1.02h.01ZM129.86,97.05l12.89-.04c1.61.5,1.47,2.66-.22,2.89-3.76.49-8.59-.38-12.47-.02-1.42-.43-1.51-2.19-.2-2.82h0ZM99.42,21.49c.26.26.28.88.31,1.25.32,3.84-.27,8.12,0,12.02-.24,1.87-2.63,1.56-2.88.22.37-3.89-.51-8.72-.02-12.48.17-1.3,1.81-1.79,2.59-1.01ZM161.74,97.05l12.89-.04c1.61.5,1.47,2.66-.22,2.89-3.76.49-8.59-.38-12.47-.02-1.42-.43-1.51-2.19-.2-2.82h0ZM99.42,53.39c.26.26.28.88.31,1.25.32,3.84-.27,8.12,0,12.02-.24,1.87-2.63,1.56-2.88.22.37-3.89-.51-8.72-.02-12.48.17-1.3,1.81-1.79,2.59-1.01ZM60.23,99.58c-.43-.43-.42-2.03.1-2.36,1.34-.85,10.89.17,13.13-.21,1.65.24,1.79,2.32.25,2.86-3.96-.25-8.32.34-12.23.01-.37-.03-.99-.04-1.25-.31h0ZM99.42,169.64c-.79.78-2.42.29-2.59-1.01-.27-2.09-.29-10.21.03-12.23.28-1.76,2.65-1.84,2.87-.03-.27,3.89.32,8.17,0,12.02-.03.37-.04.99-.31,1.25h0ZM99.42,171.43c.26.26.28.88.31,1.25.33,3.91-.26,8.28-.01,12.24-.54,1.54-2.61,1.4-2.86-.25.38-2.24-.64-11.8.21-13.14.33-.52,1.93-.53,2.36-.1h0ZM99.42,139.52c.26.26.28.88.31,1.25.33,3.91-.26,8.28-.01,12.24-.54,1.54-2.61,1.4-2.86-.25.38-2.24-.64-11.8.21-13.14.33-.52,1.93-.53,2.36-.1h0ZM28.34,99.58c-.43-.43-.42-2.03.1-2.36,1.34-.85,10.89.17,13.13-.21,1.65.24,1.79,2.32.25,2.86-3.96-.25-8.32.34-12.23.01-.37-.03-.99-.04-1.25-.31h0ZM99.42,137.73c-.67.67-2.44.31-2.57-.79v-12.45c.25-1.65,2.32-1.79,2.87-.25-.25,3.96.34,8.33.01,12.24-.03.37-.04.99-.31,1.25h0ZM26.55,99.58c-.26.27-.88.28-1.25.31-3.91.33-8.27-.26-12.23-.01-1.54-.54-1.4-2.62.25-2.86h12.44c1.1.13,1.46,1.9.79,2.57h0ZM58.43,99.58c-.26.27-.88.28-1.25.31-3.91.33-8.27-.26-12.23-.01-1.54-.54-1.4-2.62.25-2.86h12.44c1.1.13,1.46,1.9.79,2.57h0Z" style="fill: #999;"/>
  <path d="M167.27,11.9c8.04-.33,28.91,1.98,23.27,14.65-4.43,9.96-22.12,4.47-27.9-1.76-1.88-2.03-4.5-6.67-3.95-9.47.48-2.45,6.59-3.33,8.57-3.41h0Z" style="fill: #f3b14b;"/>
  <path d="M137.87,81.13c-.09-1.8-.41-3.58-.78-5.33-.22-1.07-1.2-3.03-.7-3.88l38.76-38.2c3.11.39,3.24-.51,4.78,2.33.47.86,1.53,2.98,1.08,3.74l-42.08,41.39c-.32.32-.69.09-1.05-.06h0ZM115.46,60.09c1.23-.42,3.71.28,4.94.74,8.86,3.28,16.96,17.35,12.85,26.42-1.46,3.24-5.41,6.65-9.1,4.84-5.4-2.64-9.93-18.78-10.29-24.49-.09-1.39.06-6.99,1.59-7.52h.01Z" style="fill: #f3b14b;"/>
  <path d="M153.42,18.31l-35.48,35.02c-1.7-19.76,15.73-37.16,35.48-35.02ZM158.62,26.01c.65-.17,1.78,1.42,2.36,1.89,1.31,1.06,2.76,1.88,4.19,2.77.13.55-3.63,3.63-4.2,4.19-9.96,9.7-19.59,19.74-29.72,29.27-1.76-1.87-3.66-3.59-5.88-4.9l33.26-33.21h-.01ZM149.58,83.8l33.8-33.59c.33,11.64-5.76,22.59-15.6,28.65-5.57,3.43-11.66,4.91-18.2,4.94Z" style="fill: #f2b14b;"/>
  <path d="M50.34,17.35c4.32.04,8.71,1.06,12.63,2.84.52.23,3.06,1.33,2.94,1.82-.04.18-.68.63-.84,1.32-.67,2.72,1.61,4.55,4.22,3.75.84-.26,1.45-1.58,1.56-1.59.34-.03,1.47.81,1.53,1.13.12.73-9.44,8.89-10.4,10.41-1.93.4-4.04,1.01-4.9,3.01-.37.85-.27,1.85-.74,2.62-.34.56-4.55,4.48-5.28,5.03-.24.19-.3.46-.72.36v-18.47c.58.44.71,1.19,1.2,1.79,1.91,2.3,5.87,2.16,7.66-.24,3.72-4.96-3.85-10.68-7.91-5.52-.4.51-.48,1.24-.96,1.56v-9.84.02ZM82.22,49.26h-7.19c.43-1.56,1.13-2.15.36-3.84-1.32-2.92-5.99-1.83-5.88,1.55.03.93.71,1.42.73,2.29h-17.5c-.1-.42.17-.48.36-.72,1.07-1.4,2.92-2.69,4.08-4.07.48-.15.32.31.59.59,5.08,5.23,12.59-2.87,6.24-7.19l9.91-9.46c5.22,5.42,8.27,13.31,8.3,20.86h0ZM73.75,31.11c-4.2.13-3.95,6.56.44,6.17,3.91-.35,3.32-6.28-.44-6.17Z" style="fill: #e71b23;"/>
  <path d="M48.42,17.35v28.79l-7.65-7.59c1.09-1.43,2.18-2.63,2.38-4.52.69-6.33-5.76-9.62-11.19-7.37-.41.17-1.45.96-1.63.95-.28-.02-1.85-1.92-2.27-2.22,5.56-4.97,12.91-7.76,20.37-8.04h-.01ZM57.29,81.88c1.29-4.32-2.78-6.87-6.71-6.23-.24-2.98-.33-5.96-.2-8.96.75-.72,1.8-.99,2.57-1.74,2.47-2.4,2.46-6.67,0-9.06-1.06-1.03-2.97-1.11-2.61-2.78l21.08,21.26c.07.38-2.19,2.01-2.65,2.34-3.32,2.43-7.39,4.5-11.48,5.18h0ZM55.79,65.15c-2.71.56-2.84,5.09-.43,5.83,5.52,1.69,5.95-6.98.43-5.83ZM46.74,49.26h-8.27c-.61-1-.82-2.07-1.46-3.1-4.26-6.86-15.02-4.83-16.4,3.1h-3.84c.03-8.04,3.47-15.69,8.77-21.61.58-.04,2.61,2,2.7,2.35.15.58-.38,1.64-.44,2.35-.36,4.07,2.83,7.5,6.82,7.8,1.21.09,2.31-.2,3.48-.13l8.28,8.52.36.72ZM20.38,51.18c.7,11.69,17.33,11.64,17.98,0h9.11l-21.69,21.36c-.45,0-2.54-2.53-2.52-3,4.81-.96,2.57-8.11-1.85-5.93-.59.29-.83.99-1.51,1.01-1.6-4.31-3.25-8.75-3.12-13.43h3.6ZM41.95,59.82c-.11,4.04,2.61,6.64,6.49,7.1.03,2.07-.08,4.16-.02,6.23.02.86.47,1.96.26,2.83-.03.11-1.54.91-1.93,1.24-1.64,1.39-2.57,3.25-1.92,5.4-5.19-.74-10.22-2.73-14.46-5.8-.54-.39-3.05-2.27-3.05-2.71,0-.61,1.42-1.48,1.92-1.8.02,2.78,3.14,4.5,5.29,2.53s.49-5.55-2.41-5.53l9.83-9.48h0ZM42.51,74.85c2.92,2.84,7.32-1.94,4.24-4.6-3.24-2.8-7.07,1.85-4.24,4.6ZM70.48,60.29c.08-.14.06-.27.24-.48-.05.33-.13.3-.24.48ZM70.24,60.53c.04-.09.19-.16.24-.24-.06.09-.16.16-.24.24Z" style="fill: #e91c23;"/>
  <path d="M70.24,60.53c-1.82,4.23.47,9.13,5.27,9.36.17.14-1.58,2.48-2.01,2.39l-20.28-21.1h29.01c.08,2.76-.5,5.5-1.2,8.16-2.85-2.78-7.75-2.62-10.3.48.7-4.89-5-5.79-6.03-2.08-.88,3.17,3.03,5.33,5.55,2.8h-.01Z" style="fill: #e91c23;"/>
  <path d="M153.39,126.78s.19.49.38.69c1.14,1.18,2.35,2.29,3.49,3.48,0,.62-4.58,2.36-5.39,2.28s-5.34-5.34-6.34-6.15c.84-1.11,7.83-7.54,8.49-7.51.36.01,2.34,1.44,2.27,1.77-.73.43-2.76,3.39-3.26,3.48-.55.1-1.21-1.71-2-.58-.11.51,1.27,1.13,1.18,1.64-.08.44-2.75,2.41-2.62,3.15.33,1.86,2.85-2.8,3.81-2.24h-.01ZM117.94,156.5c-.74.74,2.09,2.69,2.52,3.11.64.63,4.78,4.64,4.88,4.98.28,1.01-2.59,3.87-2.85,5.1l-2.28-3.59c-.88-1.77-3.3-7.99-2.99-9.72.16-.88,3.75-4.11,4.43-5.16l2.74,2.79c.08.45-3.44,3.51-3.94,4.16-.4-.36-1.94-2.25-2.52-1.67h.01ZM137.6,151.94l.96-9.84c.8.82,5.21,4.7,5.27,5.4l-1.2,8.75c-1.75.26-3.5.29-5.27.24.03-1.2-.15-2.44.24-3.6h3.96c.25,0,.46-.68.36-.96h-4.32Z" style="fill: #00a14f;"/>
  <path d="M128.41,151.96c.54-.14,2.91,2.28,2.9,2.69,0,.27-.65,2.18-.82,2.54-.48,1.03-3.23,5.32-3.97,6.1-.17.18-.2.47-.55.39-.51-.11-3.87-4.12-4.69-4.67,1.31-.87,6.18-6.8,7.12-7.05h.01ZM133.69,137.57c.93-.24,1.7,1.51,1.73,2.29.03.56-.86,3.78-1.13,4.34-.29.59-4.61,4.93-5.32,5.47-.18.14-.28.39-.57.33-3.13-2.03,1.83-3.48,2.24-5.62-.26-.29-.3-.47-.72-.25-.72.37-3.01,3.38-3.51,3.46-.38.06-.93-.57-.71-.95,1.15-1.04,7.31-8.91,7.99-9.08h0ZM158.9,138.54c.43.27,1.37,8.86,1.71,10.04l-8.39-1.92c-.16-.18.72-1.35.9-1.61,1.44-2.13,3.09-4.14,4.49-6.3.23-.28,1.03-.38,1.29-.21h0ZM140.47,170.65l-.72,6c-.71.34-2.82-.89-3.11-.12-.19.49-.04.48.3.65.44.22,2.48.55,2.57.67-.36,1.12-.2,2.88-.51,3.91-.09.28-.25.4-.55.4-.35,0-3.38-1.37-3.45-1.59.14-1.21.58-10.04,1.07-10.18l4.41.25h-.01ZM167.56,137.78c-.16,1.6.91,4.94.44,6.32-.13.39-2.18,1.42-2.66,1.32-1.04-.2-3.54-3.38-4.75-3.91-1.44-4.06.26-3.05,3.37-3.5-.06.41.12,2.74.26,2.86.04.04.91.05.94.02.22-.21-.51-2.32-.2-2.84.81-.39,1.73-.27,2.6-.27h0ZM171.18,142.8c-.08-.09,0-1.66-.24-2.28-.14-.35-.06-.57-.62-.33-1.04.44,1.09,3.42-1.32,3.12l-.48-5.76,5.37-.48c.86.82,3.76.47,3.39,1.92-.11.42-1.84,4.32-2.05,4.45-.57-.04-3.92-.48-4.05-.64h0ZM180.98,142.34c.21,1.27.93,2.9.88,4.17-.02.37-.82,3.07-.99,3.28-.62.75-4.33-.32-5.4,0,.41-1.28-.07-4.6.6-5.51.31-.42,4.13-1.61,4.91-1.92v-.02ZM147.42,163.94c.29,2.15.4,4.33,0,6.47-.82.24-1.61-.42-2.29-.46-.39-.02-.76.23-1.16.2-.71-.04-1.5-.4-2.3-.22l.94-6.14,4.81.14h0ZM144.24,127.98c.33-.09.44.04.68.2.52.35,4.8,4.66,5.14,5.17.16.24.38.18,0,.48l-5.52,1.45-3.06-4.82c.02-.24,2.43-2.4,2.75-2.49h.01ZM142.39,157.22c-.14.73-.53,5.31-.73,5.5-.13.13-1.54-.13-2.14.14-.66.3-2.23,2.36-3.12,2.75l.73-8.14c1.76-.07,3.54.15,5.26-.25ZM160.33,124.15c.17.28-1.44,5.61-2.01,6.2-.36.08-4.3-4.08-4.4-4.49-.09-.33.04-.44.2-.68.25-.37,2.83-3.16,3.04-3.2,0,0,3.17,2.17,3.17,2.17ZM170.56,149.78c-.08,0-.75-.27-.78-.3-.17-.18-.65-4.43-.55-4.81.04-.15,1.55-.85,1.82-.87.32-.02,3.83.55,3.95.71l-.48,5.28c-1.23-.13-2.78.18-3.96,0h0ZM146.95,162.98l-4.32-.25,1.68-12.23,2.64,12.48h0ZM160.13,129.15l2.16-7.92c.34-.3,5.17,2.36,5.27,2.76.15.56-6.61,4.46-7.43,5.16h0ZM143.35,135.86c-1.21-.1-4.48,1.56-5.36,1.39-.26-.05-1.84-1.65-1.84-1.98,0-.42,4.13-4.01,4.42-3.95.54.5,3.05,4.23,2.78,4.55h0ZM141.43,163.69c.25.24-.81,5.18-.72,6-.71-.02-4.45-.14-4.69-.47-.09-.12.12-1.54.2-1.75.1-.26,3.54-3.54,3.78-3.65.28-.12,1.34-.22,1.44-.13h0ZM154.85,140.42c.09.39-.08.56-.23.84-.85,1.58-2.64,3.15-3.41,4.86l-1.39.05c-.21-.2.43-5.53.59-5.77.28-.42,3.64.28,4.45,0h0ZM146.41,179.59c.3.24,2.08,4.16,1.74,4.5l-4.79-.48.73-4.55c.1-.07,2.17.41,2.33.53h-.01ZM146.47,139.7c.4.09,3.1-.56,3.12-.12l-.72,6.11c-.42,0-2.4-.24-2.4-.6v-5.4h0ZM164.08,149.54c-.58-.06-1.43-.47-2.04-.6,1.33-.62,4.69-3.27,5.87-3.48.53-.1.29.11.36.36.31,1.22.13,2.51.48,3.72-1.5-.11-3.2.16-4.67,0ZM124.57,147.88c.32-.08.46.02.69.2.65.51,1.6,2.25,2.5,2.78-.84.72-1.52,1.81-2.51,2.29-.39,0-2.77-2.41-2.77-2.77,0-.2,1.93-2.45,2.09-2.5h0ZM140.47,178.09c.53.21,2.49.4,2.61.86-.67,1.6.03,5.35-2.68,3.89-1.02-.55.16-3.69.07-4.75h0ZM145.51,139.94v4.8l-4.32-4.44c1.4-.43,2.86-.39,4.32-.36ZM131.84,153.14c-.25.26-2.44-1.91-2.38-2.25l3.94-3.99-1.56,6.23h0ZM161.32,120.52c.14.16-.32,1.96-.45,2.3-.1.26.12.41-.38.33l-4.92-4.07c.73.05,5.55,1.22,5.74,1.45h0ZM161.57,147.86l-.72-4.56c.15-.17,1.85,1.27,2.03,1.44.24.23,1.28,1.17,1.32,1.33.13.57-2.18,1.52-2.63,1.78h0ZM144.3,171.14l-.23,2.63-2.87-.25.23-2.63,2.87.25ZM143.33,177.59c-.21.18-2.49-.34-2.59-.49-.31-.48.27-1.98.21-2.61,3.03.27,3.14.03,2.38,3.1h0ZM146.46,175.21c.27.26-.4,2.55-.24,3.12-.09.09-1.85-.18-1.91-.25-.18-.2.49-2.59.47-3.11.33.21,1.61.19,1.67.24h.01ZM147.19,171.37c-.22,1.66.19,3.67-2.13,2.61.21-1.96-.31-3.26,2.13-2.61ZM148.14,180.73c-.31-.13-.78-1.16-.85-1.43-.3-1.16,0-2.65.37-3.73.13-.24.48.21.48.24v4.92h0ZM156.29,138.75c-.31,1.79-3.37.26-4.79.72.03-.34,1.07-.42,1.35-.45,1.13-.13,2.31-.07,3.45-.27h-.01ZM180.47,141.35c-.11.17-3.27,1.29-3.8,1.35.56-.54,1.84-5.65,2.99-4.2.25.31,1.01,2.52.81,2.84h0Z" style="fill: #00a14f;"/>
  <path d="M61.39,125.57c.74-.52,7.89,4.4,8.6,5.62l-6.38,6.34-5.58-3.73,3.36-8.24h0ZM26.36,162.5c1.06,2.75,2.87,5.14,4.79,7.35-.43.66-4.36,4.81-4.69,4.87-1.05.18-6.25-7.94-6.54-9.44.11-.48,5.56-2.51,6.44-2.78ZM75.97,139.68c-.26.37-7.25,2.72-8.22,3.35l-3.28-4.64,6.33-6.34c.5.09,2.76,3.16,3.18,3.79.37.55,2.25,3.48,1.99,3.85h0ZM60.41,124.83l-3.34,8.53c-.29.21-2.48-.61-3.11-.75-.79-.18-1.63,0-2.38-.38l-.27-9.08c3.17-.14,6.11.93,9.11,1.68h0ZM31.81,170.92c.54-.14,2.06,1.46,2.63,1.85,1.34.93,2.74,1.75,4.15,2.57-.92,2.09-1.54,4.42-2.77,6.32-.71.16-8.22-5-8.46-5.91-.09-.33.04-.44.2-.68.26-.39,3.97-4.09,4.26-4.16h-.01ZM24.21,153.62c.07,2.65.88,5.19,1.42,7.76-.11.33-5.68,2.66-6.32,2.57-1.21-3.29-2.06-6.79-2.06-10.33h6.96ZM35.89,158.45c.48-.03,1.35,1.86,1.65,2.34.34.54.86,1.1,1.29,1.58l-6.33,6.37c-.19.2-.41.28-.69.2-.66-.17-4.61-6.13-4.46-6.79l8.54-3.71h0Z" style="fill: #25a8df;"/>
  <path d="M51.3,177.85c2.45-.19,4.87-.63,7.19-1.44.55,2.28,1.92,4.32,2.41,6.58-3.07,1.06-6.32,1.84-9.6,1.81v-6.96h0ZM51.3,159.86l6.49,15.7c-.03.22-3.5,1-4,1.06-.46.06-2.48.42-2.48-.09v-16.67h-.01Z" style="fill: #25a6db;"/>
  <path d="M82.7,153.62c-.29,3.26-.85,6.5-1.92,9.6l-6.37-2.63c.38-2.31,1.25-4.58,1.1-6.97h7.19ZM39.47,163.24c.62.37,3.16,1.87,3.16,2.45l-3.69,8.55c-1.02-.19-6.18-3.74-6.07-4.39.09-.54,5.85-5.67,6.61-6.61h-.01ZM34.64,153.62c.39.12.69,3.19,1.08,3.83-1.44.15-7.99,3.67-8.76,3.55s-1.75-6.38-1.79-7.38c0,0,9.47,0,9.47,0ZM57.54,134.91c1.23.61,2.48,1.22,3.57,2.06.43.33,1.58,1.06,1.43,1.62-1.1.91-8.03,8.61-8.61,8.47-.42-.1-1.08-.68-.91-1.16l4.52-10.98h0ZM74.55,153.62c.26.86-.85,6.37-1.33,6.47l-8.5-3.48c-.55-.44.18-2.28.24-3h9.59ZM56.57,134.43c-1.63,3.53-2.79,7.75-4.53,11.17-.09.18-.09.76-.5.34-.51-.52-.27-10.92,0-12.46,1.76-.24,3.37.56,5.02.95h0Z" style="fill: #25a8df;"/>
  <path d="M66.39,143.77l-11.49,4.33,8.54-8.86c.45-.08,3.5,3.9,2.95,4.53ZM62.81,121.95c3.68,1.46,7.09,3.74,9.82,6.6-.52.35-1.55,2-2.15,1.69-.33-.17-.92-1-1.33-1.33-.72-.58-1.57-1.22-2.34-1.74s-4.48-2.36-4.62-2.58c-.44-.71.61-1.84.61-2.64h0ZM61.83,121.49c.15.21-.71,2.36-.86,2.4-.37.09-5.65-1.47-6.74-1.63-2.6-.4-2.86.65-2.94-2.94,3.6.04,7.18.91,10.53,2.18h0ZM79.58,138.26c-.86,0-1.99,1.19-2.76.49-.77-1.63-1.74-3.18-2.8-4.64-.38-.52-2.28-2.56-2.33-2.73-.13-.5,1.32-2.25,2.02-1.77.86.6,2.53,2.83,3.18,3.78.4.57,2.89,4.59,2.68,4.87h.01ZM44.31,155.09c.11.06.71,1.17.41,1.4l-5.28,5.04c-.39-.51-2.48-3.14-2.18-3.61.21-.32,6.72-3.03,7.05-2.84h0ZM46.02,157.22l-2.65,6.95c-.51.37-2.55-1.28-2.99-1.67l4.67-4.93s.97-.35.97-.35ZM43.63,153.62c.09.48-.23.57-.55.77-1.71,1.02-4.57,1.58-6.4,2.59l-.72-3.36h7.67ZM58.01,153.62c.9.12,5.55-.21,5.75,0l-.36,2.4c-1.79-.75-3.6-1.44-5.39-2.16v-.24h0Z" style="fill: #25a6db;"/>
  <path d="M58.01,153.62v.24c-.15-.06-.4.14-.48-.12-.23-.73.44-.12.48-.12h0Z" style="fill: #071115;"/>
  <path d="M73.75,31.11c3.76-.12,4.35,5.82.44,6.17-4.39.39-4.64-6.03-.44-6.17ZM55.79,65.15c5.52-1.14,5.09,7.53-.43,5.83-2.41-.74-2.28-5.27.43-5.83ZM42.51,74.85c-2.83-2.75,1.01-7.4,4.24-4.6s-1.32,7.44-4.24,4.6Z" style="fill: #030101;"/>
</svg>