<?xml version="1.0" encoding="UTF-8"?>
<svg id="Layer_1" xmlns="http://www.w3.org/2000/svg" version="1.1" viewBox="0 0 289.54 73.39">
  <!-- Generator: Adobe Illustrator 29.5.0, SVG Export Plug-In . SVG Version: 2.1.0 Build 137)  -->
  <path d="M21.72,7.57C18.89,4.21,16.45.8,15.96.1c-.05-.05-.13-.05-.18,0-.5.71-2.93,4.12-5.76,7.47-24.28,30.97,3.83,51.87,3.83,51.87l.24.16c.21,3.23.73,7.87.73,7.87h2.1s.52-4.62.73-7.87l.24-.18s28.14-20.88,3.85-51.85h-.02ZM15.86,58.98s-1.26-1.08-1.6-1.63v-.05l1.52-33.73c0-.1.16-.1.16,0l1.52,33.73v.05c-.34.55-1.6,1.63-1.6,1.63h0Z" style="fill: #001e2b;"/>
  <path d="M68.46,52.09l-11.71-28.61-.03-.08h-9.11v1.92h1.47c.45,0,.87.18,1.18.5s.47.74.47,1.19l-.26,28.79c0,.9-.74,1.63-1.63,1.66l-1.5.03v1.9h8.88v-1.9l-.92-.03c-.89-.03-1.63-.76-1.63-1.66v-27.13l12.76,30.72c.18.45.6.74,1.08.74s.89-.29,1.08-.74l12.48-30.03.18,26.45c0,.92-.74,1.66-1.65,1.69h-.95v1.9h10.4v-1.9h-1.42c-.89,0-1.63-.76-1.65-1.66l-.08-28.79c0-.92.74-1.66,1.63-1.69l1.52-.03v-1.92h-8.88l-11.71,28.69h0Z" style="fill: #001e2b;"/>
  <path d="M150.14,56.99c-.29-.29-.45-.69-.45-1.16v-14.14c0-2.69-.79-4.8-2.37-6.31-1.55-1.5-3.71-2.27-6.4-2.27-3.77,0-6.74,1.53-8.82,4.54-.03.05-.11.08-.18.08s-.13-.05-.13-.13l-.97-3.77h-1.63l-4.19,2.4v1.32h1.08c.5,0,.92.13,1.21.4.29.26.45.66.45,1.21v16.65c0,.48-.16.87-.45,1.16-.29.29-.68.45-1.16.45h-1.05v1.93h9.64v-1.93h-1.05c-.47,0-.87-.16-1.16-.45-.29-.29-.45-.69-.45-1.16v-11.03c0-1.4.32-2.8.9-4.17.61-1.35,1.5-2.48,2.69-3.35,1.18-.87,2.61-1.29,4.24-1.29,1.84,0,3.24.58,4.11,1.74s1.32,2.67,1.32,4.46v13.62c0,.47-.16.87-.45,1.16-.29.29-.68.45-1.16.45h-1.05v1.93h9.64v-1.93h-1.05c-.39.05-.76-.11-1.08-.4h-.03Z" style="fill: #001e2b;"/>
  <path d="M238.19,25.56c-2.66-1.42-5.64-2.15-8.85-2.15h-12.54v1.92h1.23c.47,0,.89.18,1.31.6.39.39.6.84.6,1.31v28.27c0,.47-.21.92-.6,1.31s-.84.6-1.31.6h-1.23v1.92h12.54c3.21,0,6.19-.74,8.85-2.15,2.66-1.42,4.83-3.52,6.4-6.2,1.57-2.68,2.38-5.91,2.38-9.59s-.81-6.88-2.38-9.59c-1.59-2.73-3.73-4.81-6.4-6.25h0ZM241.92,41.35c0,3.36-.6,6.2-1.78,8.48-1.18,2.29-2.74,3.99-4.67,5.1-1.93,1.1-4.07,1.65-6.37,1.65h-2.53c-.47,0-.89-.18-1.31-.6-.39-.39-.6-.84-.6-1.31v-26.66c0-.47.18-.89.6-1.31.39-.39.84-.6,1.31-.6h2.53c2.3,0,4.44.55,6.37,1.66,1.93,1.1,3.5,2.81,4.67,5.1,1.18,2.31,1.78,5.18,1.78,8.51h0v-.02Z" style="fill: #001e2b;"/>
  <path d="M276.59,43.26c-1.16-1.34-3.4-2.47-6.03-3.07,3.63-1.81,5.5-4.36,5.5-7.64,0-1.79-.47-3.39-1.42-4.75-.95-1.37-2.29-2.47-4-3.23s-3.71-1.16-5.98-1.16h-14.19v1.92h1.13c.47,0,.89.18,1.32.6.39.39.61.84.61,1.31v28.27c0,.47-.21.92-.61,1.31-.39.39-.84.6-1.32.6h-1.24v1.92h15.4c2.34,0,4.53-.39,6.5-1.18,1.98-.79,3.55-1.94,4.69-3.47,1.16-1.52,1.74-3.39,1.74-5.54-.03-2.31-.71-4.28-2.11-5.88h.01ZM258.93,56.01c-.4-.39-.61-.84-.61-1.31v-12.69h7.32c2.58,0,4.55.66,5.92,1.97s2.05,3.02,2.05,5.12c0,1.26-.32,2.5-.89,3.62-.61,1.16-1.5,2.08-2.71,2.78-1.19.71-2.66,1.08-4.37,1.08h-5.4c-.47,0-.89-.18-1.32-.58h0ZM258.35,39.3v-11.27c0-.47.18-.89.61-1.31.4-.39.84-.6,1.32-.6h3.48c2.5,0,4.34.63,5.5,1.84,1.16,1.23,1.74,2.81,1.74,4.75s-.55,3.6-1.63,4.81c-1.08,1.18-2.71,1.79-4.87,1.79h-6.15Z" style="fill: #001e2b;"/>
  <path d="M113.45,34.79c-2.01-1.1-4.26-1.68-6.69-1.68s-4.7.55-6.69,1.68c-2.01,1.1-3.61,2.7-4.78,4.71-1.18,2.02-1.78,4.37-1.78,6.99s.6,4.97,1.78,6.99c1.18,2.02,2.77,3.61,4.78,4.71,2.01,1.1,4.26,1.68,6.69,1.68s4.7-.55,6.69-1.68c2.01-1.1,3.61-2.7,4.78-4.71,1.18-2.02,1.78-4.37,1.78-6.99s-.6-4.97-1.78-6.99c-1.18-2.02-2.77-3.61-4.78-4.71h0ZM115.38,46.49c0,3.22-.78,5.84-2.35,7.72-1.54,1.89-3.66,2.85-6.27,2.85s-4.73-.97-6.27-2.85c-1.57-1.89-2.35-4.5-2.35-7.72s.78-5.84,2.35-7.72c1.54-1.88,3.66-2.85,6.27-2.85s4.73.97,6.27,2.85c1.57,1.89,2.35,4.5,2.35,7.72h0Z" style="fill: #001e2b;"/>
  <path d="M206.04,34.79c-2.01-1.1-4.26-1.68-6.69-1.68s-4.7.55-6.69,1.68c-2.01,1.1-3.61,2.7-4.78,4.71-1.18,2.02-1.78,4.37-1.78,6.99s.6,4.97,1.78,6.99c1.18,2.02,2.77,3.61,4.78,4.71,2.01,1.1,4.26,1.68,6.69,1.68s4.7-.55,6.69-1.68c2.01-1.1,3.61-2.7,4.78-4.71,1.18-2.02,1.78-4.37,1.78-6.99s-.6-4.97-1.78-6.99-2.8-3.61-4.78-4.71h0ZM207.97,46.49c0,3.22-.78,5.84-2.35,7.72-1.54,1.89-3.66,2.85-6.27,2.85s-4.73-.97-6.27-2.85c-1.57-1.89-2.35-4.5-2.35-7.72s.78-5.84,2.35-7.72c1.54-1.88,3.66-2.85,6.27-2.85s4.73.97,6.27,2.85c1.54,1.89,2.35,4.5,2.35,7.72h0Z" style="fill: #001e2b;"/>
  <path d="M168.7,33.11c-2.11,0-4.03.45-5.76,1.34-1.74.89-3.11,2.1-4.08,3.66-.97,1.53-1.47,3.24-1.47,5.05,0,1.63.37,3.13,1.13,4.47.74,1.29,1.74,2.37,3,3.26l-3.76,5.1c-.47.63-.53,1.47-.18,2.16.37.71,1.05,1.13,1.84,1.13h1.08c-1.05.71-1.89,1.55-2.47,2.55-.68,1.13-1.03,2.31-1.03,3.52,0,2.26,1,4.13,2.97,5.52,1.95,1.39,4.68,2.1,8.13,2.1,2.39,0,4.68-.39,6.76-1.16,2.11-.76,3.82-1.89,5.08-3.37,1.29-1.47,1.95-3.26,1.95-5.31,0-2.16-.79-3.68-2.63-5.15-1.58-1.24-4.05-1.89-7.13-1.89h-10.52l-.05-.03s-.03-.05,0-.08l2.74-3.68c.74.34,1.42.55,2.03.68.63.13,1.34.18,2.13.18,2.21,0,4.21-.45,5.95-1.34s3.13-2.1,4.13-3.66c1-1.53,1.5-3.23,1.5-5.05,0-1.95-.95-5.5-3.53-7.31,0-.03.03-.03.03-.03l5.66.63v-2.6h-9.05c-1.42-.45-2.89-.71-4.42-.71h0l-.03.02ZM171.86,49.57c-1,.53-2.08.82-3.16.82-1.76,0-3.32-.63-4.63-1.87-1.32-1.24-1.97-3.05-1.97-5.37s.66-4.13,1.97-5.37c1.32-1.24,2.87-1.87,4.63-1.87,1.11,0,2.16.26,3.16.82,1,.53,1.82,1.34,2.47,2.42.63,1.08.97,2.42.97,4s-.32,2.95-.97,4c-.63,1.08-1.47,1.89-2.47,2.42h0ZM164.73,59.25h7.13c1.97,0,3.24.39,4.08,1.24.84.84,1.26,1.97,1.26,3.29,0,1.92-.76,3.5-2.29,4.68-1.53,1.18-3.58,1.79-6.1,1.79-2.21,0-4.05-.5-5.39-1.45s-2.03-2.39-2.03-4.23c0-1.16.32-2.24.95-3.18.63-.95,1.39-1.63,2.39-2.13h0Z" style="fill: #001e2b;"/>
  <path d="M284.04,58.9c-.52-.28-.91-.7-1.22-1.19-.29-.52-.44-1.06-.44-1.65s.16-1.16.44-1.65c.29-.52.7-.9,1.22-1.19.52-.28,1.09-.44,1.74-.44s1.22.15,1.74.44c.52.28.91.7,1.22,1.19.29.52.44,1.06.44,1.65s-.16,1.16-.44,1.65c-.29.52-.7.9-1.22,1.19-.52.28-1.09.44-1.74.44s-1.22-.13-1.74-.44h0ZM287.24,58.54c.44-.23.76-.59,1.02-1.01.23-.44.36-.93.36-1.47s-.13-1.03-.36-1.47c-.24-.44-.57-.77-1.02-1.01-.44-.23-.91-.36-1.46-.36s-1.02.13-1.46.36-.76.59-1.02,1.01c-.23.44-.36.93-.36,1.47s.13,1.03.36,1.47c.24.44.57.77,1.02,1.01.44.23.91.36,1.46.36s1.04-.13,1.46-.36h0ZM284.38,57.64v-.23l.05-.03h.16s.1-.03.13-.05c.05-.05.05-.08.05-.13v-2.4s-.03-.1-.05-.13c-.05-.05-.08-.05-.13-.05h-.16l-.05-.03v-.23l.05-.03h1.35c.39,0,.68.08.91.26.24.18.34.41.34.72,0,.23-.08.46-.26.62-.18.18-.39.28-.65.31l.31.1.6.95c.05.08.1.1.18.1h.15l.03.03v.23l-.03.03h-.81l-.05-.03-.83-1.39h-.21v.93s.03.1.05.13c.05.05.08.05.13.05h.16l.05.03v.23l-.05.03h-1.38l-.05-.03h0ZM285.7,55.93c.21,0,.39-.05.5-.18.1-.1.18-.28.18-.49s-.05-.36-.15-.49-.26-.18-.44-.18h-.1c-.05,0-.1.03-.13.05-.05.05-.05.08-.05.13v1.16h.21-.02Z" style="fill: #001e2b;"/>
</svg>