<?xml version="1.0" encoding="UTF-8"?>
<svg id="Layer_1" xmlns="http://www.w3.org/2000/svg" version="1.1" viewBox="0 0 240 90">
  <!-- Generator: Adobe Illustrator 29.5.0, SVG Export Plug-In . SVG Version: 2.1.0 Build 137)  -->
  <g id="Layer_2" style="display: none;">
    <rect x="-10" y="0" width="260" height="90" style="fill: none; stroke: #e8e7e7; stroke-miterlimit: 10; stroke-width: 1.13px;"/>
  </g>
  <g id="Layer_11">
    <g>
      <path d="M166,34.7c-2.4,1.3-2.3,5.5.3,6.5,2.8,1,5.8,1.1,8.6,1.8.7.2,1.4.5,1.7,1.2.7,1.4.1,3.5-1.5,4-2.3.7-5,.7-7.2-.2-1.5-.6-2.2-2.1-2.3-3.5-.6,0-1.3,0-1.9.1.1,1.4.4,2.9,1.5,3.8,1.8,1.4,4.1,1.6,6.3,1.7,2,0,4.2-.2,5.9-1.3,2-1.4,2.2-5.1-.2-6.3-2.2-1.1-4.7-1.2-7-1.7-1.1-.3-2.4-.4-3.4-1.1-1.3-1.2-.7-3.7,1-4.1,2.2-.6,4.6-.7,6.7.1,1.3.4,1.8,1.8,2,2.9h1.9c0-1.2-.4-2.5-1.4-3.3-1.6-1.3-3.8-1.4-5.7-1.4-1.7-.1-3.6-.1-5.3.8h0Z" style="fill: #326690;"/>
      <path d="M94.7,35.2c-1-.9-2.5-1.2-3.8-1.2-2.9,0-5.8.1-8.7.1v15.4h1.5c0-2.2-.1-4.4,0-6.5h7.4c1.8-.1,3.9-.9,4.6-2.7.6-1.7.4-3.9-1-5.1ZM93.9,40c-.5,1.3-2,1.7-3.3,1.8-2.3.1-4.6,0-6.8,0v-6.4h6.6c1.1,0,2.4.2,3.1,1.1.7.9.8,2.3.4,3.5Z"/>
      <path d="M200.1,34.1v15.4h13.3v-1.3c-3.8-.1-7.6,0-11.5-.1v-14.1c-.6.1-1.2.1-1.8.1Z" style="fill: #326690;"/>
      <path d="M123.3,36.1v3.3h-2v1h2v7c0,.7.2,1.4.8,1.8,1.1.5,2.3.4,3.5.3v-1c-.8.1-1.6.2-2.3-.2-.5-.3-.4-.9-.5-1.4v-6.5h2.7c0-.4,0-.7-.1-1.1h-2.7v-3.3c-.3.1-.9.1-1.4.1Z" style="fill: #fff;"/>
      <path d="M110.6,40c-1.4.9-1.4,3.5.3,4.2,2.3.8,4.9.6,7.3,1.3,1.2.4,1.3,2.2.2,2.8-1.6.8-3.5.7-5.2.4-1.2-.2-2.2-1-2.3-2.3h-1.7c.2.9.4,1.9,1.2,2.5,1.3.9,3,.9,4.5,1,1.6,0,3.3-.1,4.7-.9,1.2-.7,1.6-2.3.9-3.4-.5-.8-1.4-1.1-2.3-1.3-1.9-.4-3.9-.4-5.8-.8-.7-.2-1.3-.7-1.3-1.4,0-1,1.1-1.5,2-1.7,1.4-.2,3-.3,4.4.3.8.3,1,1.1,1.2,1.9h1.7c-.1-.9-.4-1.9-1.2-2.4-1.5-1-3.3-1-5-.9-1.2-.1-2.5,0-3.6.7Z" style="fill: #fff;"/>
      <path d="M146.1,39.5c-.7.3-1.1,1-1.5,1.7v-1.7h-1.6c-.1,3.4,0,6.7,0,10.1h1.5v-5.2c0-1.2.4-2.6,1.4-3.3,1.1-.8,2.5-.6,3.8-.6v-1.3c-1.2-.1-2.4-.2-3.6.3h0Z" style="fill: #fff;"/>
      <path d="M183.7,34.9c2.2-1.1,4.7-1.3,7.1-1.1,2.3.2,4.6,1,6.1,2.8,1.9,2,2.3,5.2,1.5,7.8-.4,1.5-1.4,2.6-2.5,3.6.9.6,1.8,1.2,2.7,1.9-.4.4-.8.7-1.2,1.1-.9-.6-1.8-1.3-2.7-1.8-.7,0-1.4.4-2.2.6-2,.4-4.2.4-6.2,0-2.2-.4-4.4-1.7-5.6-3.7-1.2-1.9-1.3-4.4-.8-6.5.6-2.1,2-3.8,3.8-4.7h0ZM186.7,35.3c-2.1.5-4.1,2-4.8,4.1-.7,2.3-.5,5,1.2,6.9,1.5,1.7,3.7,2.4,5.9,2.4,2.4.1,5-.6,6.6-2.5,2.2-2.8,1.9-7.3-1-9.5-2.2-1.9-5.2-2-7.9-1.4Z" style="fill: #326690;"/>
      <path d="M123.3,36.1h1.6v3.3h2.7c0,.4,0,.7.1,1.1h-2.7v6.5c0,.5,0,1.1.5,1.4.7.3,1.5.2,2.3.2v1c-1.2.1-2.4.2-3.5-.3-.7-.3-.9-1.1-.8-1.8v-7h-2v-1h2c-.2-1.2-.2-2.3-.2-3.4Z"/>
      <path d="M106.1,40c-1.8-1-4-1.1-6-.8-1.7.3-3.3,1.2-4,2.8s-.7,3.5.1,5.1c.9,1.7,2.8,2.6,4.6,2.7,2.3.2,4.9-.1,6.6-1.9,1.8-2.3,1.4-6.4-1.3-7.9ZM105.8,47.5c-.9.9-2.2,1.3-3.4,1.3-1.4.1-2.9-.2-3.9-1.1-1.3-1.2-1.5-3.2-1-4.9.5-1.5,1.9-2.4,3.4-2.6,1.4-.2,3-.1,4.3.7,1,.6,1.5,1.7,1.6,2.8.2,1.4,0,2.8-1,3.8Z"/>
      <path d="M110.6,40c1-.7,2.3-.8,3.5-.9,1.7-.1,3.6-.1,5,.9.8.5,1.1,1.5,1.2,2.4h-1.7c-.1-.8-.4-1.5-1.2-1.9-1.4-.6-2.9-.6-4.4-.3-.9.1-2,.6-2,1.7-.1.7.6,1.3,1.3,1.4,1.9.5,3.9.4,5.8.8.9.2,1.8.6,2.3,1.3.7,1.1.3,2.8-.9,3.4-1.4.8-3.1.9-4.7.9-1.5-.1-3.2-.1-4.5-1-.8-.6-1.1-1.5-1.2-2.5h1.7c0,1.3,1.1,2.2,2.3,2.3,1.7.2,3.6.4,5.2-.4,1.1-.6,1-2.4-.2-2.8-2.4-.7-5-.5-7.3-1.3-1.6-.5-1.6-3.1-.2-4h0Z"/>
      <path d="M132.4,39.3c1.6-.4,3.4-.4,5,.1.9.3,1.6,1,2.3,1.6,0-.6.1-1.1.1-1.6h1.5c.1,3.1,0,6.2.1,9.3.1,1.3-.2,2.7-1.2,3.6-1.3,1.2-3.2,1.4-4.9,1.4-1.5,0-3.1-.1-4.5-.8-.9-.5-1.4-1.5-1.6-2.5h1.5c.3.7.6,1.5,1.3,1.8,1.1.5,2.3.5,3.5.5,1.3-.1,2.8-.3,3.6-1.4.8-1.1.6-2.5.6-3.8-1.6,1.7-4.1,2-6.3,1.7-1.4-.2-2.8-.7-3.8-1.8-1.1-1.4-1.2-3.3-.8-4.9.4-1.6,2-2.8,3.6-3.2h0ZM133.7,40.3c-1.1.2-2.3.7-2.9,1.7-.7,1.2-.7,2.8-.3,4,.5,1.3,2,2,3.3,2.2,1.7.2,3.7,0,4.9-1.3,1.4-1.7,1.2-4.6-.6-5.9-1.2-.9-2.9-.9-4.4-.7Z"/>
      <path d="M146.1,39.5c1.2-.5,2.4-.4,3.6-.4v1.3c-1.3,0-2.7-.2-3.8.6-1,.7-1.4,2.1-1.4,3.3v5.2h-1.5c-.1-3.4-.1-6.7,0-10.1h1.6v1.7c.4-.6.8-1.3,1.5-1.6h0Z"/>
      <path d="M150.3,41.6c1-1.7,3.1-2.4,5-2.5,2-.1,4.2.2,5.6,1.7,1.1,1,1.4,2.5,1.5,4h-11.3c.1,1,.4,2.1,1.2,2.8,1.5,1.3,3.7,1.5,5.5,1,1.2-.3,2.2-1.2,2.6-2.4h1.7c-.5,1.7-2,2.9-3.7,3.3-2.3.5-5,.4-7-1s-2.4-4.7-1.1-6.9ZM153.2,40.8c-1.1.6-1.7,1.8-1.9,3h9.6c-.1-.7-.3-1.5-.8-2-1.7-2-4.8-2.2-6.9-1h0Z"/>
      <path d="M52.8,23.2c-1.9-.3-3.9-.4-5.8-.1-1.1.2-2.2.7-3.1,1.2-3.1-1-6.6-1.6-9.8-1-2.3.4-4.5,1.8-5.7,3.9-1.5,2.5-1.8,5.5-1.6,8.4.4,3.2,1.2,6.4,2.1,9.5.8,2.7,1.7,5.4,3.2,7.8.8,1.3,2,2.7,3.6,3.1,1.3.3,2.6-.1,3.6-.9.5.5,1.1.9,1.8,1.1,1.9.7,4,.7,5.9-.1.1,2.6,0,5.3,1,7.7.4,1.2,1,2.3,2.1,3,1.2.8,2.6.9,4,.7,1.2-.2,2.5-.6,3.5-1.2,1.1-.7,2-1.7,2.5-2.9,1.2-2.7,1.3-5.6,1.4-8.5,2.8.2,5.7-.5,7.8-2.4.8-.7,1.5-1.8,1.2-2.9-.3-1-1.4-1.7-2.4-1.6-1.1.1-2.1.4-3.2.4,2.4-4.2,4.3-8.7,5.1-13.4.3-2,.6-4,0-6-.3-1.1-1.1-2-1.9-2.8-1.8-1.8-4.3-3-6.8-3.5-2.9-.6-5.8-.3-8.5.5Z" style="fill: #fff;"/>
      <path d="M52.7,24.4c3-.9,6.2-1.2,9.2-.3,2.4.7,4.6,2.1,6.1,4.1.6.8.8,1.9.8,2.9.1,1.8-.3,3.6-.7,5.3-1.1,4.6-3.1,8.9-5.6,12.9,1.4.6,3,.3,4.4.1.6-.1,1.4-.3,1.8.3s0,1.3-.4,1.7c-2.1,2.1-5.3,2.6-8.1,2.1-.3,2.5-.6,5-1,7.6-.2,1.4-.7,2.9-1.8,3.8-1,.9-2.4,1.3-3.7,1.5s-2.9.1-3.9-.9c-1.1-1-1.8-2.5-1.9-3.9-.3-2.5-.3-5.1-.3-7.6-1.2,1-2.8,1.6-4.4,1.5-1.1-.1-2.4-.3-3.2-1.1-.5-.4-.4-1.2.1-1.6.9-.7,2.1-.6,3.1-1,.8-.2,1.2-1,1.6-1.5-.9-.1-1.8-.3-2.5-.7-1.2,1.3-2.4,2.7-3.5,4-.7.8-1.6,1.5-2.7,1.3-1.2-.2-2.1-1.1-2.8-2-1.3-1.9-2.2-4.1-2.9-6.3-1.1-3.6-2-7.2-2.5-10.9-.3-2.8,0-5.8,1.6-8.1,1.3-1.9,3.5-2.9,5.7-3.1,3-.3,6,.3,8.8,1.3,2.3-1.5,5.3-1.8,8-1.2.3-.2.5-.1.7-.2ZM54.9,25.2c.6.4,1.2.7,1.8,1.1,2.4,1.6,4.3,3.9,5.4,6.5.3.8.7,1.5.6,2.4,0,1.7-.6,3.4-.4,5.1.2,1.8.6,3.7.1,5.5-.1.6-.5,1.2-.7,1.8,0,.1.1.3.1.3.2-.3.4-.6.6-.9,1.9-3.1,3.3-6.5,4.3-10,.5-1.9.9-3.9.9-5.9,0-.8-.1-1.7-.6-2.4-1.1-1.4-2.6-2.5-4.3-3.2-2.5-.8-5.2-.9-7.8-.3ZM47.9,25.4c-1.9.2-3.7,1.3-4.8,2.8-1.5,2.1-2.2,4.7-2.4,7.2,1.6-.7,3.3-1.4,5.1-1,1.1.3,2,1.3,2.2,2.4.5,2.3.8,4.6.3,6.9-.4,1.8-1.5,3.4-1.9,5.3.5,0,1,.1,1.4.3.9.5,1.4,1.5,1.3,2.5-.1,2.5-.1,5,.1,7.5.1,1,.1,2.1.4,3.1.4,1.2,1.2,2.4,2.5,2.7,1.4.2,2.8-.2,4.1-.8,1.2-.6,1.8-2,2-3.3.4-2.7.7-5.4,1-8.1.1-1-.1-2,.5-2.9.3-.6.9-.8,1.4-1.1-.4-.6-.9-1.2-1.3-1.8-1.3-2.8-3.1-5.4-3.7-8.4-.2-1.3-.1-2.8,1-3.7,1.2-1,2.8-.9,4.3-.9-.9-2.5-2.5-4.7-4.5-6.3-2.6-1.9-5.9-2.8-9-2.4ZM34.6,25.6c-1.7.3-3.4,1.3-4.3,2.9-1.2,2.1-1.3,4.5-1.1,6.8.4,3,1.1,6,2,9,.8,2.5,1.6,5,3,7.2.5.8,1.1,1.6,2,1.9.8.2,1.4-.5,1.9-1,1-1.3,2.2-2.5,3.3-3.8-1.6-1.4-2.4-3.6-2.2-5.8.2-1.6.3-3.3.2-5-.2-2.3.2-4.7.9-7,.5-1.7,1.4-3.2,2.6-4.5-2.7-.6-5.6-1.2-8.3-.7ZM57.9,35.9c-.8.6-.8,1.8-.6,2.7.6,2.9,2.3,5.3,3.5,7.9,1-1.9.4-4.1.2-6.2-.2-1.7.3-3.3.4-4.9-1.1,0-2.4-.2-3.5.5ZM40.6,37c0,1.4.1,2.8,0,4.1-.1,1.2-.4,2.4-.1,3.6.4,2.2,2.3,4,4.6,4,.3-1.1.7-2.2,1.2-3.2,1.4-2.7,1.1-5.8.4-8.6-.2-.8-.9-1.4-1.7-1.4-1.6,0-3.1.7-4.4,1.5ZM60.9,50.5c-.4.4-.4,1-.4,1.5.9.3,1.9.3,2.9.2,1.4-.2,2.9-.6,4-1.7-1.7.2-3.6.6-5.3-.2-.4-.2-.9,0-1.2.2ZM44.4,52.5c-1,.6-2.2.5-3.1,1,2,1,4.9.7,6.3-1.2.7-.7,0-2.1-.9-2-1,.6-1.4,1.7-2.3,2.2Z" style="fill: #fff;"/>
      <path d="M58.3,36.3c.6-.4,1.4-.4,2-.2,0,.8-1,1.4-1.7,1-.2-.1-.6-.5-.3-.8Z" style="fill: #fff;"/>
      <path d="M44.2,36.4c.6-.2,1.3-.1,1.8.3.3.3,0,.8-.3.9-.7.5-1.8,0-1.9-.8,0-.2.2-.4.4-.4Z" style="fill: #fff;"/>
      <path d="M54.9,25.2c2.5-.6,5.3-.5,7.7.4,1.7.6,3.2,1.8,4.3,3.2.6.7.6,1.6.6,2.4,0,2-.4,3.9-.9,5.9-1,3.5-2.4,6.9-4.3,10-.2.3-.4.6-.6.9,0-.1-.1-.3-.1-.3.2-.6.6-1.2.7-1.8.5-1.8.1-3.7-.1-5.5-.2-1.7.4-3.4.4-5.1.1-.8-.3-1.6-.6-2.4-1.2-2.6-3-4.9-5.4-6.5-.4-.5-1.1-.8-1.7-1.2Z" style="fill: #326690;"/>
      <path d="M47.9,25.4c3.1-.4,6.4.5,8.9,2.4,2,1.6,3.7,3.8,4.5,6.3-1.4,0-3.1-.1-4.3.9-1.1.9-1.2,2.4-1,3.7.6,3.1,2.4,5.7,3.7,8.4.3.7.8,1.2,1.3,1.8-.6.3-1.1.5-1.4,1.1-.5.9-.3,1.9-.5,2.9-.3,2.7-.6,5.4-1,8.1-.2,1.3-.8,2.7-2,3.3-1.2.6-2.7,1-4.1.8-1.3-.2-2.2-1.5-2.5-2.7-.3-1-.3-2.1-.4-3.1-.1-2.5-.1-5-.1-7.5.1-1-.4-2-1.3-2.5-.4-.2-.9-.3-1.4-.3.4-1.8,1.5-3.4,1.9-5.3.5-2.3.2-4.6-.3-6.9-.2-1.1-1.1-2.1-2.2-2.4-1.8-.4-3.5.2-5.1,1,.2-2.5.9-5.1,2.4-7.2,1.2-1.5,3-2.5,4.9-2.8Z" style="fill: #326690;"/>
      <path d="M34.6,25.6c2.8-.5,5.6,0,8.3.8-1.2,1.3-2.1,2.8-2.6,4.5-.7,2.2-1,4.6-.9,7,.1,1.7.1,3.3-.2,5-.3,2.1.6,4.3,2.2,5.8-1.1,1.3-2.2,2.5-3.3,3.8-.5.6-1.1,1.2-1.9,1-.9-.3-1.5-1.1-2-1.9-1.4-2.2-2.2-4.7-3-7.2-.9-2.9-1.6-5.9-2-9-.2-2.3-.1-4.8,1.1-6.8.9-1.6,2.5-2.6,4.3-3Z" style="fill: #326690;"/>
      <path d="M57.9,35.9c1-.7,2.4-.6,3.5-.5-.1,1.6-.6,3.2-.4,4.9.2,2,.7,4.2-.2,6.2-1.3-2.6-3-5-3.5-7.9-.1-.9-.1-2,.6-2.7ZM58.3,36.3c-.3.3,0,.7.3.8.7.4,1.7-.2,1.7-1-.6-.2-1.4-.2-2,.2Z" style="fill: #326690;"/>
      <path d="M40.6,37c1.3-.8,2.8-1.5,4.3-1.4.8,0,1.5.6,1.7,1.4.7,2.8.9,5.9-.4,8.6-.5,1-.9,2.1-1.2,3.2-2.3,0-4.2-1.9-4.6-4-.3-1.2.1-2.4.1-3.6.2-1.5.1-2.8.1-4.2ZM44.2,36.4c-.2.1-.4.2-.4.4.1.8,1.2,1.3,1.9.8.3-.2.6-.6.3-.9-.5-.4-1.2-.5-1.8-.3Z" style="fill: #326690;"/>
      <path d="M60.9,50.5c.3-.2.8-.5,1.2-.2,1.6.9,3.5.4,5.3.2-1.1,1-2.5,1.5-4,1.7-1,.1-2,.2-2.9-.2,0-.5,0-1.1.4-1.5Z" style="fill: #326690;"/>
      <path d="M44.4,52.5c.9-.5,1.3-1.6,2.2-2.2.9-.1,1.7,1.3.9,2-1.4,1.9-4.3,2.3-6.3,1.2,1-.4,2.2-.4,3.2-1Z" style="fill: #326690;"/>
      <path d="M52.8,23.2c2.7-.7,5.6-1,8.4-.5,2.5.4,4.9,1.7,6.8,3.5.8.8,1.6,1.7,1.9,2.8.6,2,.3,4,0,6-.9,4.7-2.7,9.2-5.1,13.4,1.1,0,2.1-.3,3.2-.4,1-.1,2.2.6,2.4,1.6.3,1.1-.4,2.2-1.2,2.9-2.2,1.9-5.2,2.5-7.9,2.4-.2,2.9-.2,5.8-1.4,8.5-.6,1.2-1.4,2.2-2.5,2.9-1.1.7-2.3,1-3.5,1.2-1.3.2-2.8.1-4-.7-1.1-.7-1.7-1.8-2.1-3-.9-2.5-.8-5.1-1-7.7-1.9.8-4,.8-5.9.1-.7-.2-1.3-.6-1.8-1.1-1,.8-2.3,1.2-3.6.9-1.6-.4-2.7-1.8-3.6-3.1-1.5-2.4-2.4-5.1-3.2-7.8-.9-3.1-1.7-6.2-2.1-9.5-.2-2.9,0-5.9,1.6-8.4,1.2-2,3.4-3.4,5.7-3.9,3.3-.7,6.7,0,9.8.9,1-.5,2-1,3.1-1.2,2.1-.3,4.1-.1,6,.2ZM52.7,24.4c-.2.1-.5-.1-.7-.1-2.7-.6-5.7-.3-8,1.2-2.8-1-5.8-1.6-8.8-1.3-2.2.2-4.5,1.3-5.7,3.1-1.6,2.4-1.8,5.4-1.6,8.1.5,3.7,1.4,7.3,2.5,10.8.8,2.2,1.6,4.4,2.9,6.3.7.9,1.6,1.9,2.8,2,1.1.1,2-.5,2.7-1.3,1.2-1.4,2.3-2.7,3.5-4,.8.4,1.7.6,2.5.7-.5.6-.9,1.3-1.6,1.5-1,.4-2.2.3-3.1,1-.5.4-.6,1.2-.1,1.6.8.8,2.1,1,3.2,1.1,1.6.1,3.2-.4,4.4-1.5,0,2.5,0,5.1.3,7.6.1,1.5.8,3,1.9,3.9,1,.9,2.6,1.1,3.9.9,1.3-.3,2.7-.7,3.7-1.5,1.1-1,1.6-2.4,1.8-3.8.4-2.5.7-5,1-7.6,2.8.5,6-.1,8.1-2.1.4-.4.9-1.2.4-1.7-.4-.5-1.2-.4-1.8-.3-1.4.3-3,.6-4.4-.1,2.5-4,4.5-8.3,5.6-12.9.4-1.7.7-3.5.7-5.3-.1-1-.2-2.1-.8-2.9-1.5-2-3.7-3.4-6.1-4.1-2.9-.4-6.2-.2-9.2.7Z"/>
    </g>
  </g>
</svg>