<?xml version="1.0" encoding="UTF-8"?>
<svg id="Laag_1" xmlns="http://www.w3.org/2000/svg" version="1.1" xmlns:xlink="http://www.w3.org/1999/xlink" viewBox="0 0 1281.48 1296.51">
  <!-- Generator: Adobe Illustrator 29.5.0, SVG Export Plug-In . SVG Version: 2.1.0 Build 137)  -->
  <defs>
    <linearGradient id="linear-gradient" x1="12428.7" y1="-27441.39" x2="12505.09" y2="-27507.12" gradientTransform="translate(-115052.22 -256478.82) scale(9.26 -9.35)" gradientUnits="userSpaceOnUse">
      <stop offset="0" stop-color="#5ca0d5"/>
      <stop offset="1" stop-color="#316a99"/>
    </linearGradient>
    <linearGradient id="linear-gradient1" x1="12533.3" y1="-27549.08" x2="12506.02" y2="-27510.49" gradientTransform="translate(-115052.22 -256478.82) scale(9.26 -9.35)" gradientUnits="userSpaceOnUse">
      <stop offset="0" stop-color="#ffd43e"/>
      <stop offset="1" stop-color="#ffe975"/>
    </linearGradient>
  </defs>
  <path d="M632.1.3c-52.7,0-103.7,4.9-148.1,13.2-131.6,23-154.7,70.8-154.7,161.3v118.5h309.4v39.5H214.1c-88.9,0-167.8,54.3-192.5,156.3-28,118.5-29.6,190.9,0,314.3,21.4,92.2,74.1,156.3,164.6,156.3h107v-141.5c0-102,88.9-192.5,192.5-192.5h307.7c85.6,0,154.7-70.8,154.7-158V173.1c0-83.9-70.8-146.5-154.7-161.3C739,3.6,684.7-1.3,632.1.3ZM464.2,94.1c31.3,0,57.6,26.3,57.6,59.2s-26.3,59.2-57.6,59.2-57.6-26.3-57.6-59.2,24.7-59.2,57.6-59.2h0Z" style="fill: url(#linear-gradient);"/>
  <path d="M985.9,329.4v136.6c0,107-90.5,195.8-194.2,195.8h-307.7c-83.9,0-154.7,72.4-154.7,158v294.6c0,83.9,72.4,133.3,154.7,158,97.1,29.6,190.9,34.6,309.4,0,77.3-23,154.7-67.5,154.7-158v-118.5h-309.5v-39.5h464.1c88.9,0,123.4-62.5,154.7-156.3,32.9-97.1,31.3-189.2,0-314.3-21.4-88.9-64.2-156.3-154.7-156.3l-116.8-.1h0ZM811.4,1074.9c31.3,0,57.6,26.3,57.6,59.2s-26.3,59.2-57.6,59.2-57.6-26.3-57.6-59.2,26.4-59.2,57.6-59.2Z" style="fill: url(#linear-gradient1);"/>
</svg>