<?xml version="1.0" encoding="UTF-8"?>
<svg id="Layer_1" xmlns="http://www.w3.org/2000/svg" version="1.1" viewBox="0 0 274.07 350">
  <!-- Generator: Adobe Illustrator 29.5.0, SVG Export Plug-In . SVG Version: 2.1.0 Build 137)  -->
  <path d="M74.19,0c-1.77.05-3.68.71-5.84,2.42-5.3-2.04-10.43-2.75-15.02,1.41-7.09-.92-9.4.98-11.14,3.19-1.56-.03-11.65-1.6-16.27,5.3-11.63-1.38-15.31,6.84-11.14,14.5-2.38,3.68-4.84,7.31.72,14.32-1.97,3.9-.75,8.14,3.88,13.26-1.22,5.49,1.18,9.36,5.49,12.38-.81,7.51,6.89,11.88,9.18,13.43.88,4.38,2.72,8.5,11.51,10.79,1.45,6.52,6.73,7.65,11.84,9.02-16.9,9.82-31.4,22.75-31.3,54.47l-2.48,4.42c-19.38,11.79-36.81,49.66-9.55,80.45,1.78,9.64,4.77,16.56,7.43,24.22,3.98,30.87,29.94,45.33,36.78,47.04,10.03,7.64,20.72,14.89,35.18,19.97,13.63,14.06,28.4,19.42,43.25,19.41.22,0,.44,0,.66,0,14.85,0,29.62-5.35,43.25-19.41,14.46-5.08,25.15-12.33,35.18-19.97,6.85-1.71,32.81-16.16,36.78-47.04,2.66-7.66,5.65-14.58,7.43-24.22,27.26-30.79,9.83-68.67-9.55-80.46l-2.48-4.42c.1-31.71-14.4-44.64-31.3-54.47,5.11-1.37,10.4-2.5,11.84-9.02,8.79-2.28,10.63-6.41,11.51-10.79,2.3-1.56,9.99-5.92,9.18-13.43,4.31-3.02,6.71-6.89,5.49-12.38,4.63-5.12,5.85-9.36,3.88-13.26,5.55-7.01,3.09-10.64.72-14.32,4.16-7.66.49-15.88-11.15-14.5-4.63-6.9-14.71-5.34-16.27-5.3-1.75-2.21-4.05-4.11-11.14-3.19-4.59-4.16-9.73-3.45-15.02-1.41-6.29-4.96-10.45-.98-15.2.52-7.61-2.49-9.35.92-13.1,2.31-8.3-1.75-10.83,2.07-14.81,6.1l-4.63-.09c-12.52,7.38-18.75,22.41-20.95,30.14-2.21-7.73-8.41-22.76-20.94-30.14l-4.63.09c-3.99-4.03-6.51-7.85-14.81-6.1-3.74-1.39-5.48-4.79-13.09-2.31C80.43,1.95,77.56-.1,74.18,0c0,0,0,0,0,0Z"/>
  <path d="M177.65,253.66v-.39c-.12-20.27-18.03-36.61-40.01-36.5-21.98.1-39.71,16.62-39.59,36.89v.39c.11,20.27,18.03,36.61,40.01,36.5,21.98-.1,39.7-16.62,39.59-36.89h0ZM114.82,148.82c-16.49-10.81-40.26-3.83-53.08,15.57-12.83,19.41-9.86,43.9,6.64,54.7,16.49,10.81,40.25,3.84,53.08-15.57,12.82-19.41,9.85-43.9-6.64-54.7ZM159.33,146.86c-16.49,10.81-19.47,35.3-6.64,54.7,12.82,19.41,36.59,26.38,53.08,15.58,16.49-10.81,19.46-35.3,6.64-54.7-12.83-19.41-36.59-26.38-53.08-15.58ZM32.39,166.48c-29.54,16.87-24.41,54.41-8.47,67.23,14.49,6.43,26.28-72,8.47-67.23ZM238.16,165.5c-17.81-4.77-6.01,73.67,8.47,67.23,15.94-12.81,21.07-50.36-8.47-67.23ZM177.66,107.1c-11.32,1.9,54.25,59.16,55.26,46.38,1.04-33.32-24.53-51.57-55.26-46.38ZM92.76,106.12c-30.73-5.19-56.29,13.07-55.26,46.39,1.01,12.77,66.58-44.49,55.26-46.39ZM136.9,98.35c-18.34-.48-35.94,13.61-35.98,21.78-.05,9.93,14.5,20.1,36.11,20.35,22.06.16,36.14-8.13,36.21-18.38.08-11.61-20.07-23.93-36.34-23.75ZM138.02,301.95c-15.89-.39-40.26,6.37-39.96,15.03-.25,5.91,19.13,22.96,38.9,22.11,19.09.33,38.81-16.7,38.55-24.23-.04-7.76-21.5-13.6-37.49-12.91ZM78.96,255.98c-13.06-15.16-30.03-24.2-41.02-17.51-7.35,5.59-8.69,24.62,1.77,43.32,15.51,22.29,37.34,24.52,46.33,19.1,9.5-7.1,4.31-31.2-7.08-44.91h0ZM194.8,251.62c-12.32,14.43-19.17,40.75-10.19,49.22,8.59,6.59,31.65,5.67,48.69-17.97,12.37-15.88,8.22-42.39,1.16-49.43-10.5-8.12-25.56,2.27-39.66,18.18Z" style="fill: #bc1142; fill-rule: evenodd;"/>
  <path d="M49.25,32.48c25.85,8.78,49.17,20.49,68.71,36.6,22.94-10.85,7.12-38.21-4.07-49.07-.57,2.87-1.21,4.68-1.95,5.22-3.64-3.97-6.62-8.03-11.31-11.85-.02,2.24,1.11,4.68-1.68,6.46-2.52-3.44-5.92-6.51-10.44-9.11,2.18,3.81.38,4.96-.79,6.54-3.45-3-6.73-6.04-13.09-8.4,1.74,2.15,4.17,4.25,1.59,6.72-3.55-2.25-7.12-4.5-15.56-6.1,1.9,2.15,5.84,4.3,3.45,6.46-4.46-1.73-9.39-2.99-14.85-3.72,2.61,2.19,4.79,4.32,2.65,6.01-4.77-1.49-11.34-3.49-17.77-1.76l4.07,4.15c.45.56-9.52.43-16.09.53,2.4,3.39,4.84,6.65,6.27,12.47-.65.67-3.91.29-6.98,0,3.15,6.73,8.62,8.43,9.9,11.31-1.93,1.48-4.6,1.1-7.52.09,2.27,4.75,7.03,8,10.79,11.85-.95.68-2.61,1.09-6.54.62,3.47,3.74,7.67,7.17,12.64,10.25-.88,1.04-3.91.99-6.72,1.06,4.51,4.48,10.3,6.8,15.74,9.73-2.71,1.88-4.65,1.44-6.72,1.41,3.84,3.21,10.38,4.88,16.44,6.81-1.15,1.82-2.3,2.32-4.77,2.83,6.42,3.61,15.62,1.96,18.21,3.8-.62,1.81-2.39,2.99-4.51,3.98,10.34.61,38.61-.38,44.03-22.1-10.58-11.81-29.9-25.66-63.13-42.79ZM225.56,32.48c-33.22,17.13-52.54,30.98-63.12,42.79,5.42,21.72,33.69,22.71,44.03,22.1-2.12-.99-3.89-2.17-4.51-3.98,2.59-1.84,11.79-.19,18.21-3.8-2.47-.51-3.62-1.01-4.77-2.83,6.06-1.93,12.6-3.6,16.44-6.81-2.07.03-4.01.47-6.72-1.41,5.44-2.93,11.23-5.25,15.74-9.73-2.81-.07-5.84-.02-6.72-1.06,4.97-3.08,9.17-6.51,12.64-10.25-3.93.47-5.59.06-6.54-.62,3.76-3.85,8.52-7.1,10.79-11.85-2.92,1.01-5.59,1.39-7.52-.09,1.28-2.88,6.75-4.58,9.9-11.31-3.07.29-6.33.67-6.98,0,1.43-5.82,3.88-9.09,6.28-12.47-6.58-.1-16.55.03-16.1-.53l4.07-4.16c-6.42-1.73-13,.28-17.77,1.77-2.14-1.69.04-3.83,2.65-6.01-5.46.73-10.39,1.98-14.85,3.71-2.38-2.15,1.55-4.3,3.45-6.45-8.44,1.6-12.01,3.85-15.56,6.1-2.58-2.47-.15-4.57,1.59-6.72-6.36,2.36-9.64,5.4-13.09,8.4-1.17-1.58-2.97-2.74-.79-6.54-4.52,2.6-7.92,5.67-10.43,9.1-2.8-1.78-1.67-4.21-1.68-6.45-4.7,3.82-7.68,7.88-11.32,11.85-.73-.54-1.38-2.35-1.95-5.22-11.19,10.86-27.01,38.22-4.06,49.07,19.52-16.11,42.84-27.82,68.69-36.6Z" style="fill: #75a928; fill-rule: evenodd;"/>
</svg>