<?xml version="1.0" encoding="UTF-8"?>
<svg id="Layer_1" xmlns="http://www.w3.org/2000/svg" version="1.1" viewBox="0 0 256 230">
  <!-- Generator: Adobe Illustrator 29.5.0, SVG Export Plug-In . SVG Version: 2.1.0 Build 137)  -->
  <path d="M.75,114.75c0,19.21,18.76,37.15,48.34,47.26-5.91,29.74-1.06,53.71,15.14,63.05,16.65,9.6,41.44,2.95,64.98-17.62,22.94,19.74,46.13,27.51,62.31,18.15,16.63-9.63,21.69-35.22,15.62-65.89,30.81-10.19,48.04-25.48,48.04-44.95s-18.8-35.01-47.98-45.05c6.53-31.93,1-55.32-15.87-65.05-16.26-9.38-39.72-1.2-63,19.06C104.12,2.2,80.9-4.36,64.05,5.39c-16.24,9.4-20.88,33.81-14.95,64.09C20.52,79.45.75,96.06.75,114.75Z" style="fill: #fff;"/>
  <path d="M201.02,79.67c-2.34-.81-4.77-1.57-7.27-2.29.41-1.68.79-3.33,1.12-4.96,5.51-26.73,1.91-48.26-10.39-55.35-11.79-6.8-31.07.29-50.54,17.23-1.87,1.63-3.75,3.35-5.63,5.16-1.25-1.2-2.5-2.35-3.74-3.46-20.4-18.12-40.86-25.75-53.14-18.64-11.78,6.82-15.26,27.06-10.31,52.39.48,2.45,1.04,4.95,1.67,7.49-2.89.82-5.69,1.7-8.36,2.63-23.92,8.34-39.2,21.41-39.2,34.97s16.4,28.05,41.32,36.57c1.97.67,4.01,1.31,6.11,1.91-.68,2.75-1.28,5.44-1.77,8.07-4.73,24.89-1.04,44.65,10.71,51.43,12.13,7,32.49-.2,52.32-17.53,1.57-1.37,3.14-2.82,4.71-4.35,2.04,1.97,4.08,3.83,6.11,5.57,19.2,16.53,38.17,23.2,49.9,16.4,12.12-7.02,16.06-28.25,10.94-54.08-.39-1.97-.85-3.99-1.36-6.04,1.43-.42,2.83-.86,4.2-1.31,25.9-8.58,42.76-22.46,42.76-36.65s-15.77-26.77-40.17-35.17h0Z" style="fill: #53c1de;"/>
  <path d="M195.41,142.33c-1.24.41-2.5.8-3.8,1.19-2.86-9.05-6.72-18.68-11.44-28.63,4.51-9.71,8.22-19.21,11-28.21,2.31.67,4.55,1.37,6.72,2.12,20.91,7.2,33.66,17.84,33.66,26.04,0,8.73-13.77,20.07-36.14,27.49h0ZM186.13,160.72c2.26,11.42,2.58,21.75,1.09,29.82-1.35,7.25-4.05,12.09-7.4,14.03-7.12,4.12-22.35-1.24-38.77-15.37-1.88-1.62-3.78-3.35-5.68-5.18,6.37-6.96,12.73-15.06,18.94-24.05,10.92-.97,21.24-2.55,30.6-4.72.46,1.86.87,3.68,1.22,5.47h0ZM92.28,203.85c-6.96,2.46-12.5,2.53-15.85.6-7.13-4.11-10.09-19.98-6.05-41.27.46-2.44,1.01-4.94,1.65-7.5,9.26,2.05,19.5,3.52,30.45,4.41,6.25,8.8,12.8,16.88,19.4,23.96-1.44,1.39-2.88,2.72-4.31,3.96-8.77,7.66-17.55,13.1-25.29,15.83h0ZM59.68,142.27c-11.02-3.77-20.12-8.66-26.35-14-5.6-4.8-8.43-9.56-8.43-13.43,0-8.23,12.27-18.72,32.73-25.86,2.48-.87,5.08-1.68,7.78-2.45,2.83,9.2,6.54,18.81,11.01,28.54-4.53,9.87-8.3,19.64-11.15,28.94-1.92-.55-3.79-1.13-5.58-1.75h-.01ZM70.61,67.9c-4.25-21.7-1.43-38.07,5.67-42.18,7.56-4.38,24.28,1.86,41.89,17.51,1.13,1,2.26,2.05,3.39,3.13-6.57,7.05-13.05,15.07-19.25,23.82-10.63.98-20.8,2.57-30.15,4.69-.59-2.37-1.11-4.69-1.55-6.96h0ZM168.08,91.97c-2.24-3.86-4.53-7.63-6.87-11.3,7.21.91,14.12,2.12,20.6,3.6-1.95,6.24-4.37,12.77-7.23,19.46-2.05-3.89-4.22-7.81-6.5-11.76h0ZM128.33,53.26c4.45,4.82,8.91,10.21,13.3,16.05-4.42-.21-8.89-.32-13.4-.32s-8.91.11-13.3.31c4.39-5.79,8.89-11.17,13.41-16.05h-.01ZM88.33,92.04c-2.23,3.87-4.36,7.77-6.38,11.68-2.81-6.67-5.22-13.22-7.18-19.55,6.45-1.44,13.32-2.62,20.49-3.52-2.37,3.7-4.69,7.5-6.93,11.38h0ZM95.46,149.72c-7.4-.83-14.38-1.94-20.82-3.35,2-6.44,4.45-13.14,7.32-19.95,2.02,3.91,4.16,7.81,6.41,11.69h0c2.29,3.95,4.66,7.83,7.09,11.6h0ZM128.6,177.11c-4.58-4.94-9.14-10.4-13.6-16.27,4.33.17,8.74.26,13.22.26s9.16-.1,13.64-.3c-4.4,5.98-8.84,11.45-13.26,16.32h0ZM174.67,126.08c3.02,6.88,5.57,13.54,7.59,19.88-6.55,1.49-13.62,2.7-21.08,3.59,2.35-3.72,4.66-7.55,6.94-11.5,2.3-3.99,4.49-7.99,6.55-11.97h0ZM159.75,133.23c-3.53,6.12-7.16,11.97-10.84,17.49-6.71.48-13.63.73-20.69.73s-13.87-.22-20.46-.65c-3.83-5.59-7.53-11.45-11.04-17.52h0c-3.5-6.05-6.72-12.14-9.64-18.21,2.92-6.08,6.13-12.18,9.61-18.22h0c3.49-6.05,7.16-11.89,10.96-17.44,6.72-.51,13.61-.77,20.57-.77h0c7,0,13.9.27,20.61.78,3.74,5.52,7.38,11.33,10.89,17.38,3.54,6.12,6.8,12.18,9.74,18.13-2.93,6.05-6.18,12.17-9.71,18.29h0ZM179.67,25.44c7.57,4.36,10.51,21.96,5.76,45.04-.3,1.47-.64,2.97-1.02,4.49-9.37-2.16-19.55-3.77-30.21-4.77-6.21-8.84-12.64-16.88-19.1-23.84,1.74-1.67,3.47-3.26,5.2-4.77,16.68-14.52,32.27-20.25,39.38-16.15h0Z" style="fill: #fff;"/>
  <path d="M128.22,94.67c11.14,0,20.18,9.03,20.18,20.18s-9.03,20.18-20.18,20.18-20.18-9.03-20.18-20.18,9.03-20.18,20.18-20.18" style="fill: #53c1de;"/>
</svg>