<?xml version="1.0" encoding="UTF-8"?>
<svg id="Layer_1" xmlns="http://www.w3.org/2000/svg" version="1.1" viewBox="0 0 269.1 288.74">
  <!-- Generator: Adobe Illustrator 29.5.0, SVG Export Plug-In . SVG Version: 2.1.0 Build 137)  -->
  <path d="M269.1,288.74H40.52c-7.77,0-14.06-6.3-14.06-14.06V48.24h242.64v240.5Z" style="fill: #0b3c8f;"/>
  <path d="M43.88,0h193.69c7.77,0,14.06,6.3,14.06,14.06v188.34H43.88V0Z" style="fill: #1a6afe;"/>
  <polygon points="0 230.88 43.88 202.41 43.88 0 0 28.48 0 230.88" style="fill: #699bea;"/>
  <path d="M189.24,145.77v13.16c-2.76,1.14-5.73,1.7-8.71,1.63-4.01.1-7.96-.93-11.4-2.98-3.65-2.46-6.54-5.89-8.36-9.9l-16.62-32.03h-18.45v43.27h-20.28V46.35h37.96c10.17-.49,20.23,2.36,28.64,8.1,7.02,5.03,11.07,13.24,10.79,21.88v9.32c.07,5.6-1.79,11.05-5.25,15.44-3.77,4.75-8.73,8.42-14.38,10.63l14.96,28.64c1.83,3.57,5.6,5.72,9.61,5.48l1.5-.06h0ZM125.69,100.55h16.88c5.16.28,10.28-1.12,14.57-4,3.58-2.68,5.6-6.97,5.38-11.43v-8.04c.23-4.46-1.79-8.74-5.38-11.4-4.29-2.89-9.41-4.31-14.57-4.04h-16.88v38.92h0Z" style="fill: #fff;"/>
  <g style="isolation: isolate;">
    <text transform="translate(94.46 266.17)" style="fill: #fff; font-family: UniversBold, Univers; font-size: 60px; isolation: isolate; letter-spacing: .07em;"><tspan x="0" y="0">RVT</tspan></text>
  </g>
</svg>