<?xml version="1.0" encoding="UTF-8"?>
<svg id="Layer_1" xmlns="http://www.w3.org/2000/svg" version="1.1" viewBox="0 0 255 231.1">
  <!-- Generator: Adobe Illustrator 29.5.0, SVG Export Plug-In . SVG Version: 2.1.0 Build 137)  -->
  <defs>
    <style>
      .st0 {
        fill: #182e7b;
      }
    </style>
  </defs>
  <path class="st0" d="M0,0h255v79.69H90.65V6.97h-13.95v72.72H0V0ZM231.09,74.72L96.63,16.94l.62,4.07c41.91,17.98,83.44,36.89,125.45,54.63l8.4-.92ZM9.96,75.69l5.03-.44c15.07-13.97,30.91-27.58,45.78-41.88,4.21-4.04,11.75-9.5,10.93-15.45L9.96,75.69ZM158.38,75.69l-61.75-52.78.21,4.77,53.07,46.03c2.35,2.25,5.4,2.15,8.47,1.98Z"/>
  <polygon class="st0" points="0 97.62 76.7 97.62 76.7 126.51 90.65 126.51 90.65 97.62 255 97.62 255 133.48 0 133.48 0 97.62"/>
  <path class="st0" d="M166.35,231.1l11.01-68.68,18.74.08,13.58,35.74,14.34-35.25c1.18-1.54,15.76-.23,18.93-.51l10.07,68.62h-17.93l-5.48-38.86-15.55,38.74-8.97-.47-15.81-38.25-4.99,38.84h-17.93Z"/>
  <path class="st0" d="M58.77,231.1h-22.91c-4.25-8.86-10.15-16.99-15.94-24.9v24.9H1.99v-68.73h36.36c5.64,0,13.59,11.08,14.35,16.52,1.74,12.48-3.27,20.57-14.83,24.82l20.9,27.39ZM19.92,193.25c18.55,1.59,19.15-19.88,0-16.93v16.93Z"/>
  <polygon class="st0" points="157.39 162.37 157.39 177.31 136.47 177.31 136.47 188.26 156.39 188.26 156.39 204.2 136.47 204.2 136.47 216.16 157.39 216.16 157.39 231.1 117.54 231.1 117.54 162.37 157.39 162.37"/>
  <path class="st0" d="M107.58,162.37v14.94h-21.91v10.96h18.43c.11,0,1.49,1.39,1.49,1.49v14.44h-19.92v26.89h-18.93v-68.73h40.84Z"/>
</svg>