<?xml version="1.0" encoding="UTF-8"?>
<svg id="Layer_1" xmlns="http://www.w3.org/2000/svg" version="1.1" viewBox="0 0 467.04 505">
  <path fill="#005f9e"
    d="M467.04,109.97L302.67,15.23S276.63,0,235.08,0s-68.33,15.69-68.33,15.69L14.49,102.82l231.63,133.13v269.05l152.44-87.04s27.25-15.04,47.95-50.78c18.24-31.47,20.52-61.92,20.52-61.92V109.97ZM219.16,153.79s33.98-6.27,62.71,10.31,45.68,26.32,45.68,26.32c0,0,.05,23.07.05,57.56,0,27.62-23.4,56.26-23.4,56.26l.05-101.33-85.09-49.11ZM353.87,376.05l-49.62,28.46v-26.69l38.62-22.1c36.76-26.51,42.85-65.59,42.85-79.15l-.14-120.04-105.33-60.62s-16.01-10.49-44.8-10.49-44.47,9.7-44.47,9.7l-37,21.26-23.35-13.51,51.11-29.2s20.01-11.09,53.52-11.09c30.78,0,54.73,12.02,54.73,12.02l118.93,68.7-.14,131c.84,20.15-8.54,69.35-54.91,101.75h0Z" />
  <path fill="#005f9e"
    d="M2.8,189.95l162.38,93.16-.14,27.76-92.38-52.96-58.12,33.05,150.4,86.67.09,26.74L3.91,311.66c.42,10.86,10.26,44.33,29.11,70.23,19.12,26.23,40.94,37.37,40.94,37.37l148.91,85.74v-255.68L2.93,123.01l-.14,66.94Z" />
</svg>