<?xml version="1.0" encoding="UTF-8"?>
<svg id="Layer_1" xmlns="http://www.w3.org/2000/svg" version="1.1" xmlns:xlink="http://www.w3.org/1999/xlink" viewBox="0 0 512 228">
  <!-- Generator: Adobe Illustrator 29.5.0, SVG Export Plug-In . SVG Version: 2.1.0 Build 137)  -->
  <defs>
    <linearGradient id="linear-gradient" x1="-738.48" y1="-115.4" x2="-738.48" y2="-114.47" gradientTransform="translate(109203.74 18024.48) scale(147.77 156.03)" gradientUnits="userSpaceOnUse">
      <stop offset="0" stop-color="#97d9f6"/>
      <stop offset=".92" stop-color="#0f80cc"/>
      <stop offset="1" stop-color="#0f80cc"/>
    </linearGradient>
  </defs>
  <path d="M194.52,112.04c-6.82,0-12.37,2.02-16.62,6.06s-6.41,9.33-6.41,15.82c0,3.36.54,6.43,1.59,9.24,1.06,2.81,2.7,5.42,4.91,7.78s6.63,5.56,13.22,9.64c8.08,4.93,13.37,8.94,15.91,12.07,2.54,3.12,3.8,6.4,3.8,9.81,0,4.57-1.5,8.22-4.6,10.96s-7.24,4.11-12.38,4.11c-5.42,0-10.14-1.91-14.19-5.7-4.05-3.8-6.1-8.82-6.14-15.12h-2.52v22.85h2.52c.77-2.16,1.83-3.27,3.23-3.27.67,0,2.24.46,4.69,1.33,5.95,2.12,10.83,3.14,14.67,3.14,6.62,0,12.27-2.32,16.97-7.03,4.7-4.71,7.07-10.39,7.07-17.02,0-5.14-1.57-9.71-4.64-13.7-3.07-3.99-9.05-8.63-17.99-13.97-7.69-4.62-12.68-8.38-14.98-11.31-2.31-2.93-3.49-6.17-3.49-9.72,0-3.85,1.41-6.93,4.2-9.24s6.44-3.45,11.01-3.45c5.14,0,9.43,1.53,12.82,4.6,3.39,3.08,5.35,7.34,5.92,12.82h2.52v-19.8h-2.34c-.29,1.01-.55,1.65-.8,1.94-.24.29-.69.44-1.37.44-.82,0-2.27-.34-4.33-1.02-4.42-1.49-8.5-2.25-12.24-2.25h0ZM276.86,112.04c-8.31,0-15.86,1.96-22.67,5.88-6.83,3.91-12.23,9.35-16.22,16.27-3.99,6.92-5.97,14.27-5.97,22.1,0,10.52,3.44,19.89,10.39,28.11,6.95,8.21,15.27,13.33,24.93,15.29,2.21,1.15,5.37,4.12,9.5,8.93,4.66,5.43,8.6,9.34,11.85,11.67,3.24,2.33,6.74,4.04,10.43,5.17,3.7,1.13,7.7,1.68,12.02,1.68,5.24,0,9.93-.91,14.06-2.78l-.93-2.3c-2.4.86-4.95,1.28-7.65,1.28-3.65,0-7.35-1.21-11.05-3.62-3.7-2.43-8.32-7.05-13.83-13.88-2.59-3.27-4.38-5.33-5.39-6.14,10.57-2.06,19.26-7.18,26.03-15.38,6.77-8.19,10.17-17.54,10.17-28.02,0-12.44-4.43-22.9-13.22-31.43-8.8-8.53-19.61-12.82-32.44-12.82h-.01ZM328.27,112.04l.13,2.7c5.53,0,8.63,1.63,9.33,4.91.26,1.17.38,3.34.4,6.45l-.04,59.62c-.05,4.45-.68,7.3-1.9,8.53s-3.29,1.99-6.28,2.3l-.13,2.7h55.16l1.41-13.52h-2.52c-.72,3.68-2.37,6.32-4.99,7.82-2.63,1.51-7.29,2.25-14.01,2.25h-5.22c-6.05,0-9.55-2.19-10.48-6.59-.19-.87-.26-1.8-.27-2.83l.22-60.29c0-4.45.56-7.43,1.72-8.88,1.18-1.45,3.3-2.27,6.36-2.48l-.13-2.7h-28.77.01ZM277.75,115.31c9.37,0,17.03,3.69,22.94,11.14s8.84,17.66,8.84,30.59c0,12.25-2.97,22.06-8.93,29.44s-13.88,11.05-23.73,11.05-17.14-3.79-23.03-11.4c-5.88-7.61-8.8-17.5-8.8-29.66s2.95-22.49,8.88-29.97c5.93-7.47,13.88-11.18,23.82-11.18h.01ZM404.6,128.13c-1.35,0-2.37.45-3.14,1.37-.78.91-1.03,2.02-.75,3.36.27,1.3,1,2.44,2.17,3.4,1.16.96,2.41,1.46,3.76,1.46s2.29-.5,3.01-1.46c.71-.96.93-2.1.66-3.4-.27-1.34-.98-2.45-2.08-3.36-1.11-.92-2.32-1.37-3.62-1.37h-.01ZM440.97,137.28c-2.29,8.79-7.24,13.55-14.85,14.32l.09,2.52h8.88l-.18,29.79c.01,5.09.17,8.48.53,10.21.88,4.13,3.57,6.23,8.09,6.23,6.53,0,13.39-3.98,20.55-11.93l-2.17-1.86c-5.17,5.24-9.75,7.87-13.75,7.87-2.46,0-3.98-1.41-4.55-4.2-.16-.68-.22-1.47-.22-2.39l.09-33.72h13.57l-.13-4.02h-13.39v-12.82h-2.56,0ZM493.44,148.51c-7.59,0-13.76,3.68-18.56,11.01-4.78,7.33-6.25,15.46-4.38,24.4,1.1,5.24,3.31,9.29,6.67,12.15,3.36,2.86,7.63,4.29,12.73,4.29,4.75,0,11.36-1.2,14.14-3.62,2.79-2.42,5.36-6.34,7.73-11.71l-1.9-1.99c-3.79,6.97-11.43,10.48-17.19,10.48-7.92,0-12.78-4.35-14.59-12.99-.24-1.1-.41-2.29-.53-3.54,9.43-1.49,16.57-4.14,21.39-7.96s9.65-7.87,8.75-12.15c-.54-2.54-1.86-4.54-3.89-6.06-2.06-1.51-7.4-2.3-10.39-2.3h.02ZM410.48,148.82l-16.35,3.76v2.92l5.66-.71c2.74,0,4.35,1.24,4.86,3.71.17.83.28,1.99.31,3.45l-.18,26.74c-.05,3.7-.46,5.85-1.28,6.5-.83.65-3.03.97-6.59.97l-.09,2.52h25.94l-.04-2.52c-3.6,0-5.94-.28-6.98-.84-1.02-.55-1.73-1.56-2.03-3.09-.24-1.11-.34-3.02-.35-5.66l.09-37.75h-2.97ZM489.28,153.77c1.58,0,3.1.61,4.64,1.81,1.52,1.2,2.44,2.53,2.74,3.98,1.48,7.11-4.82,12.02-19.01,14.76-.4-5.18.49-9.89,2.78-14.14,2.27-4.25,5.23-6.41,8.84-6.41h.01Z" style="fill: #003b57;"/>
  <path d="M157.89,9.95H17.15C7.72,9.95,0,17.67,0,27.1v155.21c0,9.43,7.72,17.15,17.15,17.15h92.69c-1.05-46.12,14.7-135.63,48.04-189.51h0Z" style="fill: #0f80cc;"/>
  <path d="M152.77,14.96H17.15c-6.7,0-12.15,5.45-12.15,12.15v143.88c30.72-11.79,76.82-21.96,108.69-21.5,6.41-33.49,25.23-99.13,39.08-134.53h0Z" style="fill: url(#linear-gradient);"/>
  <path d="M190.72,4.87c-9.64-8.6-21.31-5.14-32.83,5.08-1.71,1.52-3.42,3.2-5.11,5-19.7,20.9-37.99,59.62-43.68,89.19,2.21,4.49,3.94,10.22,5.08,14.59.29,1.12.56,2.18.77,3.07.5,2.12.77,3.5.77,3.5,0,0-.18-.67-.9-2.77-.14-.4-.29-.84-.47-1.36-.08-.21-.19-.47-.3-.75-1.29-2.99-4.84-9.29-6.41-12.04-1.34,3.95-2.52,7.64-3.51,10.98,4.52,8.26,7.27,22.43,7.27,22.43,0,0-.24-.92-1.37-4.12-1.01-2.83-6.03-11.63-7.22-13.68-2.03,7.51-2.84,12.58-2.11,13.81,1.41,2.39,2.76,6.52,3.95,11.08,2.67,10.28,4.53,22.8,4.53,22.8,0,0,.06.83.16,2.11-.37,8.63-.15,17.58.52,25.67.89,10.71,2.55,19.91,4.68,24.83l1.44-.79c-3.12-9.7-4.39-22.41-3.83-37.08.84-22.41,6-49.44,15.53-77.61,16.1-42.52,38.44-76.64,58.88-92.93-18.63,16.83-43.85,71.3-51.4,91.47-8.45,22.59-14.44,43.78-18.05,64.09,6.23-19.04,26.37-27.22,26.37-27.22,0,0,9.88-12.18,21.42-29.59-6.91,1.58-18.27,4.28-22.07,5.87-5.61,2.35-7.12,3.16-7.12,3.16,0,0,18.17-11.07,33.76-16.08,21.44-33.77,44.8-81.74,21.28-102.72" style="fill: #003b57;"/>
</svg>