<?xml version="1.0" encoding="UTF-8"?>
<svg id="Layer_1" xmlns="http://www.w3.org/2000/svg" version="1.1" viewBox="0 0 250 249">
  <!-- Generator: Adobe Illustrator 29.5.0, SVG Export Plug-In . SVG Version: 2.1.0 Build 137)  -->
  <path d="M250,0v249H1.5c-.11,0-1.5-1.39-1.5-1.5V2.5c0-.33,1.32-1.52,1-2.5h249ZM88.34,51.34c-9.88,9.16-9.19,24.68-8.38,37.2,1.11,17.29,7.5,38.8,16.24,53.76,10.19,17.46,13.24,17.07,21.66-.95,11.89-25.44,15.65-57.2,42.22-72.78,5.74-3.37,12.1-4.92,17.9-8.08-18.09-19.2-70.12-27.26-89.64-9.16h0ZM69.42,186.58c60.4,54.5,153.88-.95,137.32-80.83-2.48-11.97-8.75-23.87-22.21-24.78-29.18-1.99-38.36,43.49-47.07,64-6.94,16.33-20.94,45.46-41.99,28.06-18.58-15.36-30.95-51.32-34.36-74.64-.68-4.68-.17-15.19-1.28-18.72-2.41-7.7-10.75,10.67-11.7,12.98-13.34,32.35-4.53,70.65,21.28,93.94h.01Z" style="fill: #2956ad;"/>
  <path d="M69.42,186.58c-25.81-23.29-34.62-61.59-21.28-93.94.95-2.31,9.29-20.68,11.7-12.98,1.11,3.54.59,14.05,1.28,18.72,3.41,23.32,15.78,59.28,34.36,74.64,21.05,17.4,35.05-11.72,41.99-28.06,8.71-20.5,17.89-65.98,47.07-64,13.46.92,19.73,12.81,22.21,24.78,16.55,79.88-76.93,135.33-137.32,80.83h0Z" style="fill: #fefefe;"/>
  <path d="M88.34,51.34c19.52-18.1,71.54-10.04,89.64,9.16-5.8,3.16-12.16,4.71-17.9,8.08-26.58,15.58-30.33,47.33-42.22,72.78-8.42,18.02-11.47,18.41-21.66.95-8.73-14.96-15.13-36.48-16.24-53.76-.8-12.52-1.5-28.04,8.38-37.2h0Z" style="fill: #fefefe;"/>
</svg>