<svg width="1920" height="1080" viewBox="0 0 1920 1080" fill="none" xmlns="http://www.w3.org/2000/svg">
<path d="M243.812 783.05C254.852 783.05 263.802 774.099 263.802 763.059C263.802 752.018 254.852 743.068 243.812 743.068C232.771 743.068 223.821 752.018 223.821 763.059C223.821 774.099 232.771 783.05 243.812 783.05Z" fill="#222222" stroke="white"/>
<path d="M304.376 475.72C318.775 475.72 330.448 464.047 330.448 449.648C330.448 435.249 318.775 423.576 304.376 423.576C289.977 423.576 278.305 435.249 278.305 449.648C278.305 464.047 289.977 475.72 304.376 475.72Z" fill="#222222" stroke="white"/>
<path d="M393.882 89.2937C417.059 89.2937 435.847 70.5054 435.847 47.329C435.847 24.1525 417.059 5.36426 393.882 5.36426C370.706 5.36426 351.917 24.1525 351.917 47.329C351.917 70.5054 370.706 89.2937 393.882 89.2937Z" fill="#222222" stroke="white"/>
<path d="M1848.71 196.764C1882.72 196.764 1910.29 169.19 1910.29 135.176C1910.29 101.162 1882.72 73.5879 1848.71 73.5879C1814.69 73.5879 1787.12 101.162 1787.12 135.176C1787.12 169.19 1814.69 196.764 1848.71 196.764Z" fill="#222222" stroke="white"/>
<path d="M152.647 887.503C166.992 887.503 178.62 875.874 178.62 861.53C178.62 847.185 166.992 835.557 152.647 835.557C138.303 835.557 126.674 847.185 126.674 861.53C126.674 875.874 138.303 887.503 152.647 887.503Z" fill="#222222" stroke="white"/>
<path d="M1766.47 1074.72C1781.1 1074.72 1792.95 1062.86 1792.95 1048.24C1792.95 1033.61 1781.1 1021.75 1766.47 1021.75C1751.85 1021.75 1739.99 1033.61 1739.99 1048.24C1739.99 1062.86 1751.85 1074.72 1766.47 1074.72Z" fill="#222222" stroke="white"/>
<path d="M1846.24 504.494C1878.28 504.494 1904.26 478.516 1904.26 446.471C1904.26 414.425 1878.28 388.447 1846.24 388.447C1814.19 388.447 1788.21 414.425 1788.21 446.471C1788.21 478.516 1814.19 504.494 1846.24 504.494Z" fill="#222222" stroke="white"/>
<path d="M681.176 133.8C716.614 133.8 745.341 105.073 745.341 69.6354C745.341 34.1982 716.614 5.4707 681.176 5.4707C645.739 5.4707 617.012 34.1982 617.012 69.6354C617.012 105.073 645.739 133.8 681.176 133.8Z" fill="#222222" stroke="white"/>
<path d="M315.423 279.459C335.715 279.459 352.164 263.009 352.164 242.718C352.164 222.426 335.715 205.977 315.423 205.977C295.132 205.977 278.682 222.426 278.682 242.718C278.682 263.009 295.132 279.459 315.423 279.459Z" fill="#222222" stroke="white"/>
<path d="M375.529 574.799C389.486 574.799 400.8 563.485 400.8 549.528C400.8 535.572 389.486 524.258 375.529 524.258C361.573 524.258 350.259 535.572 350.259 549.528C350.259 563.485 361.573 574.799 375.529 574.799Z" fill="#222222" stroke="white"/>
<path d="M175.553 304.937C184.147 304.937 191.114 297.97 191.114 289.376C191.114 280.781 184.147 273.814 175.553 273.814C166.959 273.814 159.992 280.781 159.992 289.376C159.992 297.97 166.959 304.937 175.553 304.937Z" fill="#222222" stroke="white"/>
<path d="M1117.41 583.133C1134.02 583.133 1147.49 569.668 1147.49 553.058C1147.49 536.449 1134.02 522.984 1117.41 522.984C1100.8 522.984 1087.34 536.449 1087.34 553.058C1087.34 569.668 1100.8 583.133 1117.41 583.133Z" fill="#222222" stroke="white"/>
<path d="M1514.82 315.881C1536.4 315.881 1553.89 298.389 1553.89 276.811C1553.89 255.233 1536.4 237.74 1514.82 237.74C1493.25 237.74 1475.75 255.233 1475.75 276.811C1475.75 298.389 1493.25 315.881 1514.82 315.881Z" fill="#222222" stroke="white"/>
<path d="M1665.88 1019.02C1681.52 1019.02 1694.2 1006.34 1694.2 990.706C1694.2 975.069 1681.52 962.393 1665.88 962.393C1650.25 962.393 1637.57 975.069 1637.57 990.706C1637.57 1006.34 1650.25 1019.02 1665.88 1019.02Z" fill="#222222" stroke="white"/>
<path d="M980.118 153.854C997.08 153.854 1010.83 140.103 1010.83 123.141C1010.83 106.178 997.08 92.4277 980.118 92.4277C963.156 92.4277 949.405 106.178 949.405 123.141C949.405 140.103 963.156 153.854 980.118 153.854Z" fill="#222222" stroke="white"/>
<path d="M1444.59 793.974C1461.86 793.974 1475.86 779.975 1475.86 762.707C1475.86 745.438 1461.86 731.439 1444.59 731.439C1427.32 731.439 1413.32 745.438 1413.32 762.707C1413.32 779.975 1427.32 793.974 1444.59 793.974Z" fill="#222222" stroke="white"/>
<path d="M1236 993.286C1243.27 993.286 1249.17 987.39 1249.17 980.118C1249.17 972.845 1243.27 966.949 1236 966.949C1228.73 966.949 1222.83 972.845 1222.83 980.118C1222.83 987.39 1228.73 993.286 1236 993.286Z" fill="#222222" stroke="white"/>
<path d="M1443.88 580.977C1465.34 580.977 1482.74 563.58 1482.74 542.119C1482.74 520.657 1465.34 503.26 1443.88 503.26C1422.42 503.26 1405.02 520.657 1405.02 542.119C1405.02 563.58 1422.42 580.977 1443.88 580.977Z" fill="#222222" stroke="white"/>
<path d="M1877.65 298.069C1895.78 298.069 1910.48 283.368 1910.48 265.235C1910.48 247.101 1895.78 232.4 1877.65 232.4C1859.51 232.4 1844.81 247.101 1844.81 265.235C1844.81 283.368 1859.51 298.069 1877.65 298.069Z" fill="#222222" stroke="white"/>
<path d="M32.1423 252.021C44.5902 252.021 54.6812 241.93 54.6812 229.482C54.6812 217.034 44.5902 206.943 32.1423 206.943C19.6945 206.943 9.60352 217.034 9.60352 229.482C9.60352 241.93 19.6945 252.021 32.1423 252.021Z" fill="#222222" stroke="white"/>
<path d="M1204.59 74.2239C1223.59 74.2239 1239 58.8172 1239 39.8122C1239 20.8071 1223.59 5.40039 1204.59 5.40039C1185.58 5.40039 1170.18 20.8071 1170.18 39.8122C1170.18 58.8172 1185.58 74.2239 1204.59 74.2239Z" fill="#222222" stroke="white"/>
<path d="M325.2 566.442C339.414 566.442 350.936 554.919 350.936 540.705C350.936 526.491 339.414 514.969 325.2 514.969C310.986 514.969 299.463 526.491 299.463 540.705C299.463 554.919 310.986 566.442 325.2 566.442Z" fill="#222222" stroke="white"/>
<path d="M464.118 447.858C481.842 447.858 496.211 433.489 496.211 415.765C496.211 398.04 481.842 383.672 464.118 383.672C446.393 383.672 432.025 398.04 432.025 415.765C432.025 433.489 446.393 447.858 464.118 447.858Z" fill="#222222" stroke="white"/>
<path d="M1325.29 152.844C1343.01 152.844 1357.36 138.487 1357.36 120.776C1357.36 103.065 1343.01 88.708 1325.29 88.708C1307.58 88.708 1293.23 103.065 1293.23 120.776C1293.23 138.487 1307.58 152.844 1325.29 152.844Z" fill="#222222" stroke="white"/>
<path d="M649.765 304.253C658.955 304.253 666.406 296.803 666.406 287.612C666.406 278.421 658.955 270.971 649.765 270.971C640.574 270.971 633.124 278.421 633.124 287.612C633.124 296.803 640.574 304.253 649.765 304.253Z" fill="#222222" stroke="white"/>
<path d="M1424.47 1074.6C1445.46 1074.6 1462.48 1057.58 1462.48 1036.59C1462.48 1015.59 1445.46 998.576 1424.47 998.576C1403.48 998.576 1386.46 1015.59 1386.46 1036.59C1386.46 1057.58 1403.48 1074.6 1424.47 1074.6Z" fill="#222222" stroke="white"/>
<path d="M915.529 985.031C927.794 985.031 937.736 975.089 937.736 962.824C937.736 950.56 927.794 940.617 915.529 940.617C903.265 940.617 893.322 950.56 893.322 962.824C893.322 975.089 903.265 985.031 915.529 985.031Z" fill="#222222" stroke="white"/>
<path d="M1848.35 1074.74C1882.68 1074.74 1910.51 1046.91 1910.51 1012.59C1910.51 978.262 1882.68 950.436 1848.35 950.436C1814.03 950.436 1786.2 978.262 1786.2 1012.59C1786.2 1046.91 1814.03 1074.74 1848.35 1074.74Z" fill="#222222" stroke="white"/>
<path d="M1149.88 289.729C1176.96 289.729 1198.91 267.78 1198.91 240.705C1198.91 213.63 1176.96 191.682 1149.88 191.682C1122.81 191.682 1100.86 213.63 1100.86 240.705C1100.86 267.78 1122.81 289.729 1149.88 289.729Z" fill="#222222" stroke="white"/>
<path d="M1399.76 603.671C1410.76 603.671 1419.67 594.759 1419.67 583.765C1419.67 572.772 1410.76 563.859 1399.76 563.859C1388.77 563.859 1379.86 572.772 1379.86 583.765C1379.86 594.759 1388.77 603.671 1399.76 603.671Z" fill="#222222" stroke="white"/>
<path d="M65.8941 1070.96C96.965 1070.96 122.153 1045.78 122.153 1014.71C122.153 983.635 96.965 958.447 65.8941 958.447C34.8232 958.447 9.63525 983.635 9.63525 1014.71C9.63525 1045.78 34.8232 1070.96 65.8941 1070.96Z" fill="#222222" stroke="white"/>
<path d="M576 189.989C605.024 189.989 628.553 166.46 628.553 137.436C628.553 108.412 605.024 84.8828 576 84.8828C546.976 84.8828 523.447 108.412 523.447 137.436C523.447 166.46 546.976 189.989 576 189.989Z" fill="#222222" stroke="white"/>
<path d="M1045.41 779.117C1066.95 779.117 1084.41 761.656 1084.41 740.117C1084.41 718.578 1066.95 701.117 1045.41 701.117C1023.87 701.117 1006.41 718.578 1006.41 740.117C1006.41 761.656 1023.87 779.117 1045.41 779.117Z" fill="#222222" stroke="white"/>
<path d="M1203.53 376.129C1231.56 376.129 1254.28 353.406 1254.28 325.376C1254.28 297.346 1231.56 274.623 1203.53 274.623C1175.5 274.623 1152.78 297.346 1152.78 325.376C1152.78 353.406 1175.5 376.129 1203.53 376.129Z" fill="#222222" stroke="white"/>
<path d="M1328.47 502.405C1344.16 502.405 1356.88 489.688 1356.88 474C1356.88 458.313 1344.16 445.596 1328.47 445.596C1312.78 445.596 1300.07 458.313 1300.07 474C1300.07 489.688 1312.78 502.405 1328.47 502.405Z" fill="#222222" stroke="white"/>
<path d="M1435.06 617.551C1445.34 617.551 1453.67 609.219 1453.67 598.941C1453.67 588.662 1445.34 580.33 1435.06 580.33C1424.78 580.33 1416.45 588.662 1416.45 598.941C1416.45 609.219 1424.78 617.551 1435.06 617.551Z" fill="#222222" stroke="white"/>
<path d="M1287.18 748.903C1293.78 748.903 1299.14 743.548 1299.14 736.942C1299.14 730.336 1293.78 724.98 1287.18 724.98C1280.57 724.98 1275.22 730.336 1275.22 736.942C1275.22 743.548 1280.57 748.903 1287.18 748.903Z" fill="#222222" stroke="white"/>
<path d="M171.917 711.423C204.021 711.423 230.047 685.397 230.047 653.293C230.047 621.189 204.021 595.164 171.917 595.164C139.814 595.164 113.788 621.189 113.788 653.293C113.788 685.397 139.814 711.423 171.917 711.423Z" fill="#222222" stroke="white"/>
<path d="M1562.12 688.85C1573.57 688.85 1582.85 679.568 1582.85 668.119C1582.85 656.669 1573.57 647.387 1562.12 647.387C1550.67 647.387 1541.39 656.669 1541.39 668.119C1541.39 679.568 1550.67 688.85 1562.12 688.85Z" fill="#222222" stroke="white"/>
<path d="M1035.88 654.575C1044 654.575 1050.58 647.997 1050.58 639.882C1050.58 631.768 1044 625.189 1035.88 625.189C1027.77 625.189 1021.19 631.768 1021.19 639.882C1021.19 647.997 1027.77 654.575 1035.88 654.575Z" fill="#222222" stroke="white"/>
<path d="M173.788 273.89C185.449 273.89 194.901 264.437 194.901 252.777C194.901 241.117 185.449 231.664 173.788 231.664C162.128 231.664 152.675 241.117 152.675 252.777C152.675 264.437 162.128 273.89 173.788 273.89Z" fill="#222222" stroke="white"/>
<path d="M739.059 1073.16C753.994 1073.16 766.101 1061.05 766.101 1046.12C766.101 1031.18 753.994 1019.08 739.059 1019.08C724.124 1019.08 712.017 1031.18 712.017 1046.12C712.017 1061.05 724.124 1073.16 739.059 1073.16Z" fill="#222222" stroke="white"/>
<path d="M526.588 667.412C549.199 667.412 567.529 649.082 567.529 626.47C567.529 603.859 549.199 585.529 526.588 585.529C503.977 585.529 485.647 603.859 485.647 626.47C485.647 649.082 503.977 667.412 526.588 667.412Z" fill="#222222" stroke="white"/>
<path d="M1521.53 1074.6C1552.66 1074.6 1577.89 1049.37 1577.89 1018.24C1577.89 987.106 1552.66 961.871 1521.53 961.871C1490.4 961.871 1465.16 987.106 1465.16 1018.24C1465.16 1049.37 1490.4 1074.6 1521.53 1074.6Z" fill="#222222" stroke="white"/>
<path d="M1131.18 83.1525C1152.66 83.1525 1170.07 65.739 1170.07 44.2584C1170.07 22.7778 1152.66 5.36426 1131.18 5.36426C1109.7 5.36426 1092.28 22.7778 1092.28 44.2584C1092.28 65.739 1109.7 83.1525 1131.18 83.1525Z" fill="#222222" stroke="white"/>
<path d="M667.412 371.178C686.742 371.178 702.413 355.508 702.413 336.177C702.413 316.846 686.742 301.176 667.412 301.176C648.081 301.176 632.411 316.846 632.411 336.177C632.411 355.508 648.081 371.178 667.412 371.178Z" fill="#222222" stroke="white"/>
<path d="M416.118 909.74C432.413 909.74 445.624 896.53 445.624 880.234C445.624 863.939 432.413 850.729 416.118 850.729C399.822 850.729 386.612 863.939 386.612 880.234C386.612 896.53 399.822 909.74 416.118 909.74Z" fill="#222222" stroke="white"/>
<path d="M1255.76 788.505C1264.56 788.505 1271.68 781.379 1271.68 772.588C1271.68 763.796 1264.56 756.67 1255.76 756.67C1246.97 756.67 1239.85 763.796 1239.85 772.588C1239.85 781.379 1246.97 788.505 1255.76 788.505Z" fill="#222222" stroke="white"/>
<path d="M1308.35 737.958C1314.96 737.958 1320.31 732.605 1320.31 726.001C1320.31 719.397 1314.96 714.043 1308.35 714.043C1301.75 714.043 1296.4 719.397 1296.4 726.001C1296.4 732.605 1301.75 737.958 1308.35 737.958Z" fill="#222222" stroke="white"/>
<path d="M1465.41 75.2932C1484.72 75.2932 1500.36 59.6447 1500.36 40.3414C1500.36 21.0381 1484.72 5.38965 1465.41 5.38965C1446.11 5.38965 1430.46 21.0381 1430.46 40.3414C1430.46 59.6447 1446.11 75.2932 1465.41 75.2932Z" fill="#222222" stroke="white"/>
<path d="M606 1063.8C633.504 1063.8 655.8 1041.5 655.8 1014C655.8 986.495 633.504 964.199 606 964.199C578.496 964.199 556.2 986.495 556.2 1014C556.2 1041.5 578.496 1063.8 606 1063.8Z" fill="#222222" stroke="white"/>
<path d="M576 312.848C609.839 312.848 637.271 285.416 637.271 251.577C637.271 217.738 609.839 190.307 576 190.307C542.161 190.307 514.729 217.738 514.729 251.577C514.729 285.416 542.161 312.848 576 312.848Z" fill="#222222" stroke="white"/>
<path d="M1364.47 574.835C1387.22 574.835 1405.66 556.395 1405.66 533.647C1405.66 510.9 1387.22 492.459 1364.47 492.459C1341.72 492.459 1323.28 510.9 1323.28 533.647C1323.28 556.395 1341.72 574.835 1364.47 574.835Z" fill="#222222" stroke="white"/>
<path d="M969.176 242.612C993.912 242.612 1013.96 222.559 1013.96 197.823C1013.96 173.088 993.912 153.035 969.176 153.035C944.441 153.035 924.388 173.088 924.388 197.823C924.388 222.559 944.441 242.612 969.176 242.612Z" fill="#222222" stroke="white"/>
<path d="M474 124.941C498.619 124.941 518.576 104.983 518.576 80.3646C518.576 55.7457 498.619 35.7881 474 35.7881C449.381 35.7881 429.423 55.7457 429.423 80.3646C429.423 104.983 449.381 124.941 474 124.941Z" fill="#222222" stroke="white"/>
<path d="M1189.06 1027.12C1198.84 1027.12 1206.77 1019.19 1206.77 1009.41C1206.77 999.63 1198.84 991.701 1189.06 991.701C1179.28 991.701 1171.35 999.63 1171.35 1009.41C1171.35 1019.19 1179.28 1027.12 1189.06 1027.12Z" fill="#222222" stroke="white"/>
<path d="M1102.94 1069.83C1118.57 1069.83 1131.24 1057.16 1131.24 1041.53C1131.24 1025.9 1118.57 1013.23 1102.94 1013.23C1087.31 1013.23 1074.64 1025.9 1074.64 1041.53C1074.64 1057.16 1087.31 1069.83 1102.94 1069.83Z" fill="#222222" stroke="white"/>
<path d="M968.118 677.852C980.901 677.852 991.263 667.49 991.263 654.706C991.263 641.923 980.901 631.561 968.118 631.561C955.334 631.561 944.972 641.923 944.972 654.706C944.972 667.49 955.334 677.852 968.118 677.852Z" fill="#222222" stroke="white"/>
<path d="M1461.53 135.54C1478.2 135.54 1491.72 122.025 1491.72 105.353C1491.72 88.6812 1478.2 75.166 1461.53 75.166C1444.86 75.166 1431.34 88.6812 1431.34 105.353C1431.34 122.025 1444.86 135.54 1461.53 135.54Z" fill="#222222" stroke="white"/>
<path d="M613.765 794.933C631.563 794.933 645.992 780.504 645.992 762.706C645.992 744.907 631.563 730.479 613.765 730.479C595.966 730.479 581.538 744.907 581.538 762.706C581.538 780.504 595.966 794.933 613.765 794.933Z" fill="#222222" stroke="white"/>
<path d="M434.118 391.3C449.259 391.3 461.534 379.025 461.534 363.883C461.534 348.742 449.259 336.467 434.118 336.467C418.976 336.467 406.701 348.742 406.701 363.883C406.701 379.025 418.976 391.3 434.118 391.3Z" fill="#222222" stroke="white"/>
<path d="M1528.59 532.095C1560.28 532.095 1585.98 506.401 1585.98 474.707C1585.98 443.012 1560.28 417.318 1528.59 417.318C1496.89 417.318 1471.2 443.012 1471.2 474.707C1471.2 506.401 1496.89 532.095 1528.59 532.095Z" fill="#222222" stroke="white"/>
<path d="M1866.35 952.129C1890.66 952.129 1910.36 932.424 1910.36 908.117C1910.36 883.81 1890.66 864.105 1866.35 864.105C1842.05 864.105 1822.34 883.81 1822.34 908.117C1822.34 932.424 1842.05 952.129 1866.35 952.129Z" fill="#222222" stroke="white"/>
<path d="M600.353 388.821C619.389 388.821 634.821 373.389 634.821 354.353C634.821 335.317 619.389 319.885 600.353 319.885C581.317 319.885 565.885 335.317 565.885 354.353C565.885 373.389 581.317 388.821 600.353 388.821Z" fill="#222222" stroke="white"/>
<path d="M1253.29 973.33C1261.24 973.33 1267.68 966.887 1267.68 958.94C1267.68 950.993 1261.24 944.551 1253.29 944.551C1245.35 944.551 1238.9 950.993 1238.9 958.94C1238.9 966.887 1245.35 973.33 1253.29 973.33Z" fill="#222222" stroke="white"/>
<path d="M651.53 740.824C674.141 740.824 692.471 722.494 692.471 699.883C692.471 677.271 674.141 658.941 651.53 658.941C628.918 658.941 610.588 677.271 610.588 699.883C610.588 722.494 628.918 740.824 651.53 740.824Z" fill="#222222" stroke="white"/>
<path d="M1732.94 1016.53C1741.55 1016.53 1748.53 1009.55 1748.53 1000.94C1748.53 992.331 1741.55 985.352 1732.94 985.352C1724.33 985.352 1717.35 992.331 1717.35 1000.94C1717.35 1009.55 1724.33 1016.53 1732.94 1016.53Z" fill="#222222" stroke="white"/>
<path d="M821.647 329.542C852.484 329.542 877.482 304.543 877.482 273.706C877.482 242.869 852.484 217.871 821.647 217.871C790.81 217.871 765.812 242.869 765.812 273.706C765.812 304.543 790.81 329.542 821.647 329.542Z" fill="#222222" stroke="white"/>
<path d="M799.765 821.648C833.682 821.648 861.177 794.153 861.177 760.236C861.177 726.319 833.682 698.824 799.765 698.824C765.848 698.824 738.353 726.319 738.353 760.236C738.353 794.153 765.848 821.648 799.765 821.648Z" fill="#222222" stroke="white"/>
<path d="M323.118 785.326C336.585 785.326 347.502 774.409 347.502 760.941C347.502 747.474 336.585 736.557 323.118 736.557C309.65 736.557 298.733 747.474 298.733 760.941C298.733 774.409 309.65 785.326 323.118 785.326Z" fill="#222222" stroke="white"/>
<path d="M140.294 596.542C160.8 596.542 177.423 579.919 177.423 559.413C177.423 538.907 160.8 522.283 140.294 522.283C119.788 522.283 103.165 538.907 103.165 559.413C103.165 579.919 119.788 596.542 140.294 596.542Z" fill="#222222" stroke="white"/>
<path d="M1074.71 707.188C1094.34 707.188 1110.25 691.276 1110.25 671.647C1110.25 652.018 1094.34 636.105 1074.71 636.105C1055.08 636.105 1039.17 652.018 1039.17 671.647C1039.17 691.276 1055.08 707.188 1074.71 707.188Z" fill="#222222" stroke="white"/>
<path d="M215.717 987.638C228.838 987.638 239.474 977.002 239.474 963.882C239.474 950.761 228.838 940.125 215.717 940.125C202.597 940.125 191.961 950.761 191.961 963.882C191.961 977.002 202.597 987.638 215.717 987.638Z" fill="#222222" stroke="white"/>
<path d="M916.588 303.918C938.556 303.918 956.364 286.11 956.364 264.142C956.364 242.174 938.556 224.365 916.588 224.365C894.62 224.365 876.812 242.174 876.812 264.142C876.812 286.11 894.62 303.918 916.588 303.918Z" fill="#222222" stroke="white"/>
<path d="M1284.35 98.6472C1310.08 98.6472 1330.94 77.7889 1330.94 52.0589C1330.94 26.329 1310.08 5.4707 1284.35 5.4707C1258.62 5.4707 1237.76 26.329 1237.76 52.0589C1237.76 77.7889 1258.62 98.6472 1284.35 98.6472Z" fill="#222222" stroke="white"/>
<path d="M437.647 469.599C445.937 469.599 452.658 462.879 452.658 454.589C452.658 446.299 445.937 439.578 437.647 439.578C429.357 439.578 422.637 446.299 422.637 454.589C422.637 462.879 429.357 469.599 437.647 469.599Z" fill="#222222" stroke="white"/>
<path d="M199.059 943.359C207.606 943.359 214.535 936.43 214.535 927.883C214.535 919.335 207.606 912.406 199.059 912.406C190.512 912.406 183.583 919.335 183.583 927.883C183.583 936.43 190.512 943.359 199.059 943.359Z" fill="#222222" stroke="white"/>
<path d="M1040.12 1074.51C1058.92 1074.51 1074.16 1059.27 1074.16 1040.47C1074.16 1021.67 1058.92 1006.43 1040.12 1006.43C1021.32 1006.43 1006.08 1021.67 1006.08 1040.47C1006.08 1059.27 1021.32 1074.51 1040.12 1074.51Z" fill="#222222" stroke="white"/>
<path d="M1670.82 691.906C1698.58 691.906 1721.08 669.405 1721.08 641.648C1721.08 613.89 1698.58 591.389 1670.82 591.389C1643.07 591.389 1620.56 613.89 1620.56 641.648C1620.56 669.405 1643.07 691.906 1670.82 691.906Z" fill="#222222" stroke="white"/>
<path d="M1354.59 1074.51C1367.54 1074.51 1378.04 1064.01 1378.04 1051.06C1378.04 1038.1 1367.54 1027.6 1354.59 1027.6C1341.63 1027.6 1331.13 1038.1 1331.13 1051.06C1331.13 1064.01 1341.63 1074.51 1354.59 1074.51Z" fill="#222222" stroke="white"/>
<path d="M124.059 311.199C138.859 311.199 150.857 299.201 150.857 284.4C150.857 269.6 138.859 257.602 124.059 257.602C109.258 257.602 97.2598 269.6 97.2598 284.4C97.2598 299.201 109.258 311.199 124.059 311.199Z" fill="#222222" stroke="white"/>
<path d="M1732.94 133.168C1742.55 133.168 1750.34 125.377 1750.34 115.765C1750.34 106.153 1742.55 98.3613 1732.94 98.3613C1723.33 98.3613 1715.54 106.153 1715.54 115.765C1715.54 125.377 1723.33 133.168 1732.94 133.168Z" fill="#222222" stroke="white"/>
<path d="M572.471 915.649C579.749 915.649 585.65 909.748 585.65 902.47C585.65 895.191 579.749 889.291 572.471 889.291C565.192 889.291 559.292 895.191 559.292 902.47C559.292 909.748 565.192 915.649 572.471 915.649Z" fill="#222222" stroke="white"/>
<path d="M1753.06 517.235C1775.18 517.235 1793.12 499.3 1793.12 477.176C1793.12 455.052 1775.18 437.117 1753.06 437.117C1730.93 437.117 1713 455.052 1713 477.176C1713 499.3 1730.93 517.235 1753.06 517.235Z" fill="#222222" stroke="white"/>
<path d="M1521.18 669.844C1531.1 669.844 1539.14 661.803 1539.14 651.883C1539.14 641.963 1531.1 633.922 1521.18 633.922C1511.26 633.922 1503.22 641.963 1503.22 651.883C1503.22 661.803 1511.26 669.844 1521.18 669.844Z" fill="#222222" stroke="white"/>
<path d="M1078.24 1014.78C1110.24 1014.78 1136.19 988.831 1136.19 956.824C1136.19 924.818 1110.24 898.871 1078.24 898.871C1046.23 898.871 1020.28 924.818 1020.28 956.824C1020.28 988.831 1046.23 1014.78 1078.24 1014.78Z" fill="#222222" stroke="white"/>
<path d="M513.53 399.635C542.69 399.635 566.33 375.996 566.33 346.835C566.33 317.675 542.69 294.035 513.53 294.035C484.369 294.035 460.729 317.675 460.729 346.835C460.729 375.996 484.369 399.635 513.53 399.635Z" fill="#222222" stroke="white"/>
<path d="M731.294 581.012C753.554 581.012 771.6 562.967 771.6 540.706C771.6 518.446 753.554 500.4 731.294 500.4C709.034 500.4 690.988 518.446 690.988 540.706C690.988 562.967 709.034 581.012 731.294 581.012Z" fill="#222222" stroke="white"/>
<path d="M1246.24 712.231C1259.88 712.231 1270.94 701.171 1270.94 687.529C1270.94 673.886 1259.88 662.826 1246.24 662.826C1232.59 662.826 1221.53 673.886 1221.53 687.529C1221.53 701.171 1232.59 712.231 1246.24 712.231Z" fill="#222222" stroke="white"/>
<path d="M1245.18 462.601C1271.63 462.601 1293.07 441.158 1293.07 414.707C1293.07 388.255 1271.63 366.812 1245.18 366.812C1218.73 366.812 1197.28 388.255 1197.28 414.707C1197.28 441.158 1218.73 462.601 1245.18 462.601Z" fill="#222222" stroke="white"/>
<path d="M1706.12 743.481C1722.59 743.481 1735.95 730.124 1735.95 713.647C1735.95 697.17 1722.59 683.812 1706.12 683.812C1689.64 683.812 1676.28 697.17 1676.28 713.647C1676.28 730.124 1689.64 743.481 1706.12 743.481Z" fill="#222222" stroke="white"/>
<path d="M1527.53 239.117C1538.27 239.117 1546.98 230.41 1546.98 219.67C1546.98 208.929 1538.27 200.223 1527.53 200.223C1516.79 200.223 1508.08 208.929 1508.08 219.67C1508.08 230.41 1516.79 239.117 1527.53 239.117Z" fill="#222222" stroke="white"/>
<path d="M1088.47 375.917C1117.98 375.917 1141.91 351.994 1141.91 322.482C1141.91 292.971 1117.98 269.047 1088.47 269.047C1058.96 269.047 1035.04 292.971 1035.04 322.482C1035.04 351.994 1058.96 375.917 1088.47 375.917Z" fill="#222222" stroke="white"/>
<path d="M784.588 1012.56C802.311 1012.56 816.678 998.193 816.678 980.47C816.678 962.748 802.311 948.381 784.588 948.381C766.866 948.381 752.499 962.748 752.499 980.47C752.499 998.193 766.866 1012.56 784.588 1012.56Z" fill="#222222" stroke="white"/>
<path d="M70.835 127.942C104.674 127.942 132.106 100.51 132.106 66.671C132.106 32.8322 104.674 5.40039 70.835 5.40039C36.9962 5.40039 9.56445 32.8322 9.56445 66.671C9.56445 100.51 36.9962 127.942 70.835 127.942Z" fill="#222222" stroke="white"/>
<path d="M1562.82 969.636C1594.65 969.636 1620.46 943.832 1620.46 912C1620.46 880.169 1594.65 854.365 1562.82 854.365C1530.99 854.365 1505.19 880.169 1505.19 912C1505.19 943.832 1530.99 969.636 1562.82 969.636Z" fill="#222222" stroke="white"/>
<path d="M1374.35 809.385C1385.9 809.385 1395.27 800.021 1395.27 788.47C1395.27 776.919 1385.9 767.555 1374.35 767.555C1362.8 767.555 1353.44 776.919 1353.44 788.47C1353.44 800.021 1362.8 809.385 1374.35 809.385Z" fill="#222222" stroke="white"/>
<path d="M1209.18 152.573C1226.8 152.573 1241.08 138.29 1241.08 120.671C1241.08 103.052 1226.8 88.7686 1209.18 88.7686C1191.56 88.7686 1177.27 103.052 1177.27 120.671C1177.27 138.29 1191.56 152.573 1209.18 152.573Z" fill="#222222" stroke="white"/>
<path d="M664.235 632.188C687.86 632.188 707.012 613.036 707.012 589.411C707.012 565.786 687.86 546.635 664.235 546.635C640.611 546.635 621.459 565.786 621.459 589.411C621.459 613.036 640.611 632.188 664.235 632.188Z" fill="#222222" stroke="white"/>
<path d="M1507.06 203.682C1530.29 203.682 1549.13 184.847 1549.13 161.612C1549.13 138.377 1530.29 119.541 1507.06 119.541C1483.82 119.541 1464.99 138.377 1464.99 161.612C1464.99 184.847 1483.82 203.682 1507.06 203.682Z" fill="#222222" stroke="white"/>
<path d="M1800.71 45.1768C1811.65 45.1768 1820.53 36.3009 1820.53 25.3521C1820.53 14.4032 1811.65 5.52734 1800.71 5.52734C1789.76 5.52734 1780.88 14.4032 1780.88 25.3521C1780.88 36.3009 1789.76 45.1768 1800.71 45.1768Z" fill="#222222" stroke="white"/>
<path d="M649.412 547.976C676.428 547.976 698.329 526.075 698.329 499.058C698.329 472.042 676.428 450.141 649.412 450.141C622.395 450.141 600.494 472.042 600.494 499.058C600.494 526.075 622.395 547.976 649.412 547.976Z" fill="#222222" stroke="white"/>
<path d="M471.529 874.307C491.841 874.307 508.306 857.841 508.306 837.53C508.306 817.219 491.841 800.754 471.529 800.754C451.218 800.754 434.753 817.219 434.753 837.53C434.753 857.841 451.218 874.307 471.529 874.307Z" fill="#222222" stroke="white"/>
<path d="M1185.53 561.247C1213.05 561.247 1235.36 538.935 1235.36 511.411C1235.36 483.888 1213.05 461.576 1185.53 461.576C1158.01 461.576 1135.69 483.888 1135.69 511.411C1135.69 538.935 1158.01 561.247 1185.53 561.247Z" fill="#222222" stroke="white"/>
<path d="M1610.47 766.871C1636.94 766.871 1658.4 745.412 1658.4 718.941C1658.4 692.47 1636.94 671.012 1610.47 671.012C1584 671.012 1562.54 692.47 1562.54 718.941C1562.54 745.412 1584 766.871 1610.47 766.871Z" fill="#222222" stroke="white"/>
<path d="M801.177 117.035C832.014 117.035 857.012 92.0365 857.012 61.1996C857.012 30.3626 832.014 5.36426 801.177 5.36426C770.34 5.36426 745.341 30.3626 745.341 61.1996C745.341 92.0365 770.34 117.035 801.177 117.035Z" fill="#222222" stroke="white"/>
<path d="M1863.88 389.894C1889.51 389.894 1910.29 369.115 1910.29 343.482C1910.29 317.85 1889.51 297.07 1863.88 297.07C1838.25 297.07 1817.47 317.85 1817.47 343.482C1817.47 369.115 1838.25 389.894 1863.88 389.894Z" fill="#222222" stroke="white"/>
<path d="M901.412 755.965C932.775 755.965 958.2 730.54 958.2 699.177C958.2 667.814 932.775 642.389 901.412 642.389C870.048 642.389 844.624 667.814 844.624 699.177C844.624 730.54 870.048 755.965 901.412 755.965Z" fill="#222222" stroke="white"/>
<path d="M327.953 515.103C340.518 515.103 350.703 504.917 350.703 492.352C350.703 479.787 340.518 469.602 327.953 469.602C315.388 469.602 305.202 479.787 305.202 492.352C305.202 504.917 315.388 515.103 327.953 515.103Z" fill="#222222" stroke="white"/>
<path d="M1280.47 944.962C1294.58 944.962 1306.02 933.523 1306.02 919.413C1306.02 905.302 1294.58 893.863 1280.47 893.863C1266.36 893.863 1254.92 905.302 1254.92 919.413C1254.92 933.523 1266.36 944.962 1280.47 944.962Z" fill="#222222" stroke="white"/>
<path d="M977.647 1036.52C1002.95 1036.52 1023.46 1016.01 1023.46 990.706C1023.46 965.405 1002.95 944.895 977.647 944.895C952.346 944.895 931.835 965.405 931.835 990.706C931.835 1016.01 952.346 1036.52 977.647 1036.52Z" fill="#222222" stroke="white"/>
<path d="M481.059 525.988C502.559 525.988 519.988 508.558 519.988 487.058C519.988 465.558 502.559 448.129 481.059 448.129C459.559 448.129 442.129 465.558 442.129 487.058C442.129 508.558 459.559 525.988 481.059 525.988Z" fill="#222222" stroke="white"/>
<path d="M1635.53 972.169C1648.49 972.169 1658.99 961.664 1658.99 948.706C1658.99 935.747 1648.49 925.242 1635.53 925.242C1622.57 925.242 1612.07 935.747 1612.07 948.706C1612.07 961.664 1622.57 972.169 1635.53 972.169Z" fill="#222222" stroke="white"/>
<path d="M913.412 343.951C923.359 343.951 931.423 335.887 931.423 325.94C931.423 315.993 923.359 307.93 913.412 307.93C903.465 307.93 895.401 315.993 895.401 325.94C895.401 335.887 903.465 343.951 913.412 343.951Z" fill="#222222" stroke="white"/>
<path d="M279.67 718.729C307.622 718.729 330.282 696.07 330.282 668.118C330.282 640.166 307.622 617.506 279.67 617.506C251.718 617.506 229.059 640.166 229.059 668.118C229.059 696.07 251.718 718.729 279.67 718.729Z" fill="#222222" stroke="white"/>
<path d="M1396.59 380.798C1411.78 380.798 1424.09 368.484 1424.09 353.294C1424.09 338.103 1411.78 325.789 1396.59 325.789C1381.4 325.789 1369.08 338.103 1369.08 353.294C1369.08 368.484 1381.4 380.798 1396.59 380.798Z" fill="#222222" stroke="white"/>
<path d="M498 1074.7C530.162 1074.7 556.235 1048.63 556.235 1016.47C556.235 984.307 530.162 958.234 498 958.234C465.838 958.234 439.765 984.307 439.765 1016.47C439.765 1048.63 465.838 1074.7 498 1074.7Z" fill="#222222" stroke="white"/>
<path d="M1090.24 638.146C1107.21 638.146 1120.97 624.386 1120.97 607.412C1120.97 590.438 1107.21 576.678 1090.24 576.678C1073.26 576.678 1059.5 590.438 1059.5 607.412C1059.5 624.386 1073.26 638.146 1090.24 638.146Z" fill="#222222" stroke="white"/>
<path d="M1739.65 98.4351C1765.3 98.4351 1786.09 77.6401 1786.09 51.9881C1786.09 26.3361 1765.3 5.54102 1739.65 5.54102C1714 5.54102 1693.2 26.3361 1693.2 51.9881C1693.2 77.6401 1714 98.4351 1739.65 98.4351Z" fill="#222222" stroke="white"/>
<path d="M906.353 941.114C920.678 941.114 932.291 929.501 932.291 915.176C932.291 900.851 920.678 889.238 906.353 889.238C892.028 889.238 880.416 900.851 880.416 915.176C880.416 929.501 892.028 941.114 906.353 941.114Z" fill="#222222" stroke="white"/>
<path d="M590.823 853.158C605.302 853.158 617.04 841.42 617.04 826.941C617.04 812.462 605.302 800.725 590.823 800.725C576.344 800.725 564.607 812.462 564.607 826.941C564.607 841.42 576.344 853.158 590.823 853.158Z" fill="#222222" stroke="white"/>
<path d="M1165.76 616.679C1181.8 616.679 1194.8 603.681 1194.8 587.646C1194.8 571.612 1181.8 558.613 1165.76 558.613C1149.73 558.613 1136.73 571.612 1136.73 587.646C1136.73 603.681 1149.73 616.679 1165.76 616.679Z" fill="#222222" stroke="white"/>
<path d="M817.765 1074.34C837.249 1074.34 853.045 1058.54 853.045 1039.06C853.045 1019.57 837.249 1003.78 817.765 1003.78C798.28 1003.78 782.485 1019.57 782.485 1039.06C782.485 1058.54 798.28 1074.34 817.765 1074.34Z" fill="#222222" stroke="white"/>
<path d="M1041.53 200.869C1051.48 200.869 1059.54 192.805 1059.54 182.858C1059.54 172.911 1051.48 164.848 1041.53 164.848C1031.58 164.848 1023.52 172.911 1023.52 182.858C1023.52 192.805 1031.58 200.869 1041.53 200.869Z" fill="#222222" stroke="white"/>
<path d="M133.306 258.507C145.925 258.507 156.155 248.277 156.155 235.658C156.155 223.039 145.925 212.809 133.306 212.809C120.687 212.809 110.457 223.039 110.457 235.658C110.457 248.277 120.687 258.507 133.306 258.507Z" fill="#222222" stroke="white"/>
<path d="M1336.24 915.319C1368.28 915.319 1394.26 889.34 1394.26 857.295C1394.26 825.249 1368.28 799.271 1336.24 799.271C1304.19 799.271 1278.21 825.249 1278.21 857.295C1278.21 889.34 1304.19 915.319 1336.24 915.319Z" fill="#222222" stroke="white"/>
<path d="M52.2001 548.013C75.7274 548.013 94.8001 528.94 94.8001 505.412C94.8001 481.885 75.7274 462.812 52.2001 462.812C28.6728 462.812 9.6001 481.885 9.6001 505.412C9.6001 528.94 28.6728 548.013 52.2001 548.013Z" fill="#222222" stroke="white"/>
<path d="M1165.06 725.294C1195.08 725.294 1219.41 700.959 1219.41 670.941C1219.41 640.923 1195.08 616.588 1165.06 616.588C1135.04 616.588 1110.71 640.923 1110.71 670.941C1110.71 700.959 1135.04 725.294 1165.06 725.294Z" fill="#222222" stroke="white"/>
<path d="M1515.88 613.411C1537.91 613.411 1555.76 595.555 1555.76 573.529C1555.76 551.502 1537.91 533.646 1515.88 533.646C1493.86 533.646 1476 551.502 1476 573.529C1476 595.555 1493.86 613.411 1515.88 613.411Z" fill="#222222" stroke="white"/>
<path d="M1038.71 115.589C1069.13 115.589 1093.8 90.9221 1093.8 60.4945C1093.8 30.0669 1069.13 5.40039 1038.71 5.40039C1008.28 5.40039 983.612 30.0669 983.612 60.4945C983.612 90.9221 1008.28 115.589 1038.71 115.589Z" fill="#222222" stroke="white"/>
<path d="M1757.29 907.907C1786.61 907.907 1810.38 884.141 1810.38 854.825C1810.38 825.508 1786.61 801.742 1757.29 801.742C1727.98 801.742 1704.21 825.508 1704.21 854.825C1704.21 884.141 1727.98 907.907 1757.29 907.907Z" fill="#222222" stroke="white"/>
<path d="M715.765 483.096C734.238 483.096 749.213 468.12 749.213 449.647C749.213 431.175 734.238 416.199 715.765 416.199C697.292 416.199 682.316 431.175 682.316 449.647C682.316 468.12 697.292 483.096 715.765 483.096Z" fill="#222222" stroke="white"/>
<path d="M914.823 121.236C946.811 121.236 972.741 95.3051 972.741 63.318C972.741 31.331 946.811 5.40039 914.823 5.40039C882.836 5.40039 856.906 31.331 856.906 63.318C856.906 95.3051 882.836 121.236 914.823 121.236Z" fill="#222222" stroke="white"/>
<path d="M1282.24 721.573C1290.51 721.573 1297.22 714.864 1297.22 706.587C1297.22 698.311 1290.51 691.602 1282.24 691.602C1273.96 691.602 1267.25 698.311 1267.25 706.587C1267.25 714.864 1273.96 721.573 1282.24 721.573Z" fill="#222222" stroke="white"/>
<path d="M336.777 1074.53C354.809 1074.53 369.427 1059.92 369.427 1041.88C369.427 1023.85 354.809 1009.23 336.777 1009.23C318.744 1009.23 304.126 1023.85 304.126 1041.88C304.126 1059.92 318.744 1074.53 336.777 1074.53Z" fill="#222222" stroke="white"/>
<path d="M364.235 375.6C394.663 375.6 419.329 350.934 419.329 320.506C419.329 290.079 394.663 265.412 364.235 265.412C333.808 265.412 309.141 290.079 309.141 320.506C309.141 350.934 333.808 375.6 364.235 375.6Z" fill="#222222" stroke="white"/>
<path d="M1281.53 773.251C1288.13 773.251 1293.49 767.898 1293.49 761.294C1293.49 754.69 1288.13 749.336 1281.53 749.336C1274.93 749.336 1269.57 754.69 1269.57 761.294C1269.57 767.898 1274.93 773.251 1281.53 773.251Z" fill="#222222" stroke="white"/>
<path d="M1331.29 189.1C1341.41 189.1 1349.6 180.902 1349.6 170.789C1349.6 160.676 1341.41 152.479 1331.29 152.479C1321.18 152.479 1312.98 160.676 1312.98 170.789C1312.98 180.902 1321.18 189.1 1331.29 189.1Z" fill="#222222" stroke="white"/>
<path d="M1871.29 648.176C1892.44 648.176 1909.59 631.031 1909.59 609.882C1909.59 588.733 1892.44 571.588 1871.29 571.588C1850.14 571.588 1833 588.733 1833 609.882C1833 631.031 1850.14 648.176 1871.29 648.176Z" fill="#222222" stroke="white"/>
<path d="M1350.71 625.828C1364 625.828 1374.77 615.055 1374.77 601.765C1374.77 588.475 1364 577.701 1350.71 577.701C1337.42 577.701 1326.64 588.475 1326.64 601.765C1326.64 615.055 1337.42 625.828 1350.71 625.828Z" fill="#222222" stroke="white"/>
<path d="M878.118 1074.52C892.242 1074.52 903.692 1063.07 903.692 1048.94C903.692 1034.82 892.242 1023.37 878.118 1023.37C863.993 1023.37 852.543 1034.82 852.543 1048.94C852.543 1063.07 863.993 1074.52 878.118 1074.52Z" fill="#222222" stroke="white"/>
<path d="M1893.18 219.656C1902.62 219.656 1910.28 211.999 1910.28 202.553C1910.28 193.107 1902.62 185.449 1893.18 185.449C1883.73 185.449 1876.07 193.107 1876.07 202.553C1876.07 211.999 1883.73 219.656 1893.18 219.656Z" fill="#222222" stroke="white"/>
<path d="M1339.76 1019.99C1355.74 1019.99 1368.7 1007.04 1368.7 991.059C1368.7 975.082 1355.74 962.129 1339.76 962.129C1323.79 962.129 1310.83 975.082 1310.83 991.059C1310.83 1007.04 1323.79 1019.99 1339.76 1019.99Z" fill="#222222" stroke="white"/>
<path d="M1731.53 439.659C1764.02 439.659 1790.36 413.317 1790.36 380.824C1790.36 348.33 1764.02 321.988 1731.53 321.988C1699.04 321.988 1672.69 348.33 1672.69 380.824C1672.69 413.317 1699.04 439.659 1731.53 439.659Z" fill="#222222" stroke="white"/>
<path d="M1641.88 511.341C1673.42 511.341 1698.99 485.774 1698.99 454.235C1698.99 422.696 1673.42 397.129 1641.88 397.129C1610.34 397.129 1584.78 422.696 1584.78 454.235C1584.78 485.774 1610.34 511.341 1641.88 511.341Z" fill="#222222" stroke="white"/>
<path d="M1512.71 769.094C1540.21 769.094 1562.51 746.798 1562.51 719.294C1562.51 691.79 1540.21 669.494 1512.71 669.494C1485.2 669.494 1462.91 691.79 1462.91 719.294C1462.91 746.798 1485.2 769.094 1512.71 769.094Z" fill="#222222" stroke="white"/>
<path d="M418.235 602.249C432.342 602.249 443.778 590.813 443.778 576.706C443.778 562.6 432.342 551.164 418.235 551.164C404.129 551.164 392.693 562.6 392.693 576.706C392.693 590.813 404.129 602.249 418.235 602.249Z" fill="#222222" stroke="white"/>
<path d="M197.788 136.236C231.354 136.236 258.565 109.025 258.565 75.4591C258.565 41.8932 231.354 14.6826 197.788 14.6826C164.222 14.6826 137.012 41.8932 137.012 75.4591C137.012 109.025 164.222 136.236 197.788 136.236Z" fill="#222222" stroke="white"/>
<path d="M707.294 894.297C721.882 894.297 733.708 882.471 733.708 867.883C733.708 853.295 721.882 841.469 707.294 841.469C692.706 841.469 680.88 853.295 680.88 867.883C680.88 882.471 692.706 894.297 707.294 894.297Z" fill="#222222" stroke="white"/>
<path d="M1304.47 206.866C1312.91 206.866 1319.76 200.021 1319.76 191.577C1319.76 183.132 1312.91 176.287 1304.47 176.287C1296.03 176.287 1289.18 183.132 1289.18 191.577C1289.18 200.021 1296.03 206.866 1304.47 206.866Z" fill="#222222" stroke="white"/>
<path d="M714 760.316C730.029 760.316 743.022 747.322 743.022 731.294C743.022 715.265 730.029 702.271 714 702.271C697.971 702.271 684.978 715.265 684.978 731.294C684.978 747.322 697.971 760.316 714 760.316Z" fill="#222222" stroke="white"/>
<path d="M912 573.459C941.005 573.459 964.518 549.946 964.518 520.941C964.518 491.937 941.005 468.424 912 468.424C882.995 468.424 859.482 491.937 859.482 520.941C859.482 549.946 882.995 573.459 912 573.459Z" fill="#222222" stroke="white"/>
<path d="M714.706 315.353C743.145 315.353 766.2 292.299 766.2 263.859C766.2 235.42 743.145 212.365 714.706 212.365C686.267 212.365 663.212 235.42 663.212 263.859C663.212 292.299 686.267 315.353 714.706 315.353Z" fill="#222222" stroke="white"/>
<path d="M1334.12 719.718C1359.5 719.718 1380.07 699.145 1380.07 673.765C1380.07 648.386 1359.5 627.812 1334.12 627.812C1308.74 627.812 1288.17 648.386 1288.17 673.765C1288.17 699.145 1308.74 719.718 1334.12 719.718Z" fill="#222222" stroke="white"/>
<path d="M480.706 746.046C501.524 746.046 518.4 729.17 518.4 708.352C518.4 687.534 501.524 670.658 480.706 670.658C459.888 670.658 443.012 687.534 443.012 708.352C443.012 729.17 459.888 746.046 480.706 746.046Z" fill="#222222" stroke="white"/>
<path d="M62.8235 643.093C89.1577 643.093 110.506 621.745 110.506 595.411C110.506 569.077 89.1577 547.729 62.8235 547.729C36.4892 547.729 15.1411 569.077 15.1411 595.411C15.1411 621.745 36.4892 643.093 62.8235 643.093Z" fill="#222222" stroke="white"/>
<path d="M378 236.365C400.241 236.365 418.271 218.336 418.271 196.095C418.271 173.854 400.241 155.824 378 155.824C355.759 155.824 337.729 173.854 337.729 196.095C337.729 218.336 355.759 236.365 378 236.365Z" fill="#222222" stroke="white"/>
<path d="M1268.82 528.281C1287.89 528.281 1303.34 512.827 1303.34 493.764C1303.34 474.7 1287.89 459.246 1268.82 459.246C1249.76 459.246 1234.31 474.7 1234.31 493.764C1234.31 512.827 1249.76 528.281 1268.82 528.281Z" fill="#222222" stroke="white"/>
<path d="M1767.88 1010.69C1779.7 1010.69 1789.28 1001.11 1789.28 989.294C1789.28 977.477 1779.7 967.898 1767.88 967.898C1756.07 967.898 1746.49 977.477 1746.49 989.294C1746.49 1001.11 1756.07 1010.69 1767.88 1010.69Z" fill="#222222" stroke="white"/>
<path d="M870.353 228.141C902.321 228.141 928.235 202.226 928.235 170.258C928.235 138.291 902.321 112.376 870.353 112.376C838.386 112.376 812.471 138.291 812.471 170.258C812.471 202.226 838.386 228.141 870.353 228.141Z" fill="#222222" stroke="white"/>
<path d="M1338 791.284C1348.52 791.284 1357.05 782.756 1357.05 772.236C1357.05 761.716 1348.52 753.188 1338 753.188C1327.48 753.188 1318.95 761.716 1318.95 772.236C1318.95 782.756 1327.48 791.284 1338 791.284Z" fill="#222222" stroke="white"/>
<path d="M450 318.989C472.553 318.989 490.835 300.706 490.835 278.154C490.835 255.601 472.553 237.318 450 237.318C427.447 237.318 409.165 255.601 409.165 278.154C409.165 300.706 427.447 318.989 450 318.989Z" fill="#222222" stroke="white"/>
<path d="M1615.41 1074.71C1637.05 1074.71 1654.59 1057.17 1654.59 1035.53C1654.59 1013.89 1637.05 996.354 1615.41 996.354C1593.78 996.354 1576.24 1013.89 1576.24 1035.53C1576.24 1057.17 1593.78 1074.71 1615.41 1074.71Z" fill="#222222" stroke="white"/>
<path d="M945.882 473.823C977.557 473.823 1003.24 448.145 1003.24 416.47C1003.24 384.795 977.557 359.117 945.882 359.117C914.207 359.117 888.529 384.795 888.529 416.47C888.529 448.145 914.207 473.823 945.882 473.823Z" fill="#222222" stroke="white"/>
<path d="M1678.94 838.234C1706.43 838.234 1728.71 815.954 1728.71 788.47C1728.71 760.985 1706.43 738.705 1678.94 738.705C1651.46 738.705 1629.18 760.985 1629.18 788.47C1629.18 815.954 1651.46 838.234 1678.94 838.234Z" fill="#222222" stroke="white"/>
<path d="M1002 526.377C1021.77 526.377 1037.79 510.354 1037.79 490.589C1037.79 470.824 1021.77 454.801 1002 454.801C982.235 454.801 966.212 470.824 966.212 490.589C966.212 510.354 982.235 526.377 1002 526.377Z" fill="#222222" stroke="white"/>
<path d="M280.341 763.859C292.869 763.859 303.025 753.703 303.025 741.176C303.025 728.648 292.869 718.492 280.341 718.492C267.813 718.492 257.658 728.648 257.658 741.176C257.658 753.703 267.813 763.859 280.341 763.859Z" fill="#222222" stroke="white"/>
<path d="M90.9177 891.353C110.897 891.353 127.094 875.156 127.094 855.176C127.094 835.197 110.897 819 90.9177 819C70.938 819 54.7412 835.197 54.7412 855.176C54.7412 875.156 70.938 891.353 90.9177 891.353Z" fill="#222222" stroke="white"/>
<path d="M171.776 1074.71C199.456 1074.71 221.894 1052.27 221.894 1024.59C221.894 996.909 199.456 974.471 171.776 974.471C144.097 974.471 121.659 996.909 121.659 1024.59C121.659 1052.27 144.097 1074.71 171.776 1074.71Z" fill="#222222" stroke="white"/>
<path d="M1654.59 75.2932C1673.89 75.2932 1689.54 59.6447 1689.54 40.3414C1689.54 21.0381 1673.89 5.38965 1654.59 5.38965C1635.28 5.38965 1619.64 21.0381 1619.64 40.3414C1619.64 59.6447 1635.28 75.2932 1654.59 75.2932Z" fill="#222222" stroke="white"/>
<path d="M84.494 276.927C97.4818 276.927 108.01 266.399 108.01 253.411C108.01 240.423 97.4818 229.895 84.494 229.895C71.5062 229.895 60.9775 240.423 60.9775 253.411C60.9775 266.399 71.5062 276.927 84.494 276.927Z" fill="#222222" stroke="white"/>
<path d="M716.118 813.458C730.698 813.458 742.518 801.639 742.518 787.058C742.518 772.478 730.698 760.658 716.118 760.658C701.537 760.658 689.718 772.478 689.718 787.058C689.718 801.639 701.537 813.458 716.118 813.458Z" fill="#222222" stroke="white"/>
<path d="M110.259 424.766C130.823 424.766 147.494 408.095 147.494 387.53C147.494 366.966 130.823 350.295 110.259 350.295C89.6942 350.295 73.0234 366.966 73.0234 387.53C73.0234 408.095 89.6942 424.766 110.259 424.766Z" fill="#222222" stroke="white"/>
<path d="M843.529 978.494C866.023 978.494 884.259 960.259 884.259 937.765C884.259 915.27 866.023 897.035 843.529 897.035C821.035 897.035 802.8 915.27 802.8 937.765C802.8 960.259 821.035 978.494 843.529 978.494Z" fill="#222222" stroke="white"/>
<path d="M1448.12 1002.93C1464.22 1002.93 1477.28 989.87 1477.28 973.765C1477.28 957.661 1464.22 944.605 1448.12 944.605C1432.01 944.605 1418.96 957.661 1418.96 973.765C1418.96 989.87 1432.01 1002.93 1448.12 1002.93Z" fill="#222222" stroke="white"/>
<path d="M1257.53 747.791C1267.81 747.791 1276.14 739.457 1276.14 729.177C1276.14 718.896 1267.81 710.562 1257.53 710.562C1247.25 710.562 1238.92 718.896 1238.92 729.177C1238.92 739.457 1247.25 747.791 1257.53 747.791Z" fill="#222222" stroke="white"/>
<path d="M1795.41 92.8588C1803.52 92.8588 1810.09 86.2853 1810.09 78.1765C1810.09 70.0677 1803.52 63.4941 1795.41 63.4941C1787.3 63.4941 1780.73 70.0677 1780.73 78.1765C1780.73 86.2853 1787.3 92.8588 1795.41 92.8588Z" fill="#222222" stroke="white"/>
<path d="M237.494 624.936C251.07 624.936 262.076 613.93 262.076 600.354C262.076 586.777 251.07 575.771 237.494 575.771C223.918 575.771 212.912 586.777 212.912 600.354C212.912 613.93 223.918 624.936 237.494 624.936Z" fill="#222222" stroke="white"/>
<path d="M1652.12 202.023C1684.26 202.023 1710.32 175.966 1710.32 143.823C1710.32 111.68 1684.26 85.623 1652.12 85.623C1619.97 85.623 1593.92 111.68 1593.92 143.823C1593.92 175.966 1619.97 202.023 1652.12 202.023Z" fill="#222222" stroke="white"/>
<path d="M1234.94 280.06C1254.9 280.06 1271.08 263.879 1271.08 243.919C1271.08 223.958 1254.9 207.777 1234.94 207.777C1214.98 207.777 1198.8 223.958 1198.8 243.919C1198.8 263.879 1214.98 280.06 1234.94 280.06Z" fill="#222222" stroke="white"/>
<path d="M1359.53 759.285C1371.87 759.285 1381.87 749.281 1381.87 736.94C1381.87 724.6 1371.87 714.596 1359.53 714.596C1347.19 714.596 1337.18 724.6 1337.18 736.94C1337.18 749.281 1347.19 759.285 1359.53 759.285Z" fill="#222222" stroke="white"/>
<path d="M587.647 893.036C598.615 893.036 607.507 884.145 607.507 873.176C607.507 862.208 598.615 853.316 587.647 853.316C576.679 853.316 567.787 862.208 567.787 873.176C567.787 884.145 576.679 893.036 587.647 893.036Z" fill="#222222" stroke="white"/>
<path d="M1221.53 776.194C1234.83 776.194 1245.61 765.414 1245.61 752.117C1245.61 738.819 1234.83 728.039 1221.53 728.039C1208.23 728.039 1197.45 738.819 1197.45 752.117C1197.45 765.414 1208.23 776.194 1221.53 776.194Z" fill="#222222" stroke="white"/>
<path d="M85.8002 229.977C114.298 229.977 137.4 206.875 137.4 178.377C137.4 149.879 114.298 126.777 85.8002 126.777C57.3023 126.777 34.2002 149.879 34.2002 178.377C34.2002 206.875 57.3023 229.977 85.8002 229.977Z" fill="#222222" stroke="white"/>
<path d="M1586.82 334.447C1606.82 334.447 1623.04 318.234 1623.04 298.235C1623.04 278.236 1606.82 262.023 1586.82 262.023C1566.82 262.023 1550.61 278.236 1550.61 298.235C1550.61 318.234 1566.82 334.447 1586.82 334.447Z" fill="#222222" stroke="white"/>
<path d="M931.059 1074.63C946.22 1074.63 958.51 1062.34 958.51 1047.18C958.51 1032.02 946.22 1019.72 931.059 1019.72C915.897 1019.72 903.607 1032.02 903.607 1047.18C903.607 1062.34 915.897 1074.63 931.059 1074.63Z" fill="#222222" stroke="white"/>
<path d="M1148.82 1026.01C1161.11 1026.01 1171.07 1016.05 1171.07 1003.77C1171.07 991.479 1161.11 981.52 1148.82 981.52C1136.54 981.52 1126.58 991.479 1126.58 1003.77C1126.58 1016.05 1136.54 1026.01 1148.82 1026.01Z" fill="#222222" stroke="white"/>
<path d="M1381.76 110.753C1409.93 110.753 1432.76 87.9195 1432.76 59.7529C1432.76 31.5864 1409.93 8.75293 1381.76 8.75293C1353.6 8.75293 1330.76 31.5864 1330.76 59.7529C1330.76 87.9195 1353.6 110.753 1381.76 110.753Z" fill="#222222" stroke="white"/>
<path d="M1875.18 569.953C1894.64 569.953 1910.42 554.172 1910.42 534.705C1910.42 515.238 1894.64 499.457 1875.18 499.457C1855.71 499.457 1839.93 515.238 1839.93 534.705C1839.93 554.172 1855.71 569.953 1875.18 569.953Z" fill="#222222" stroke="white"/>
<path d="M223.835 734.467C235.529 734.467 245.008 724.988 245.008 713.294C245.008 701.601 235.529 692.121 223.835 692.121C212.142 692.121 202.662 701.601 202.662 713.294C202.662 724.988 212.142 734.467 223.835 734.467Z" fill="#222222" stroke="white"/>
<path d="M367.765 153.466C386.442 153.466 401.583 138.325 401.583 119.647C401.583 100.969 386.442 85.8281 367.765 85.8281C349.087 85.8281 333.946 100.969 333.946 119.647C333.946 138.325 349.087 153.466 367.765 153.466Z" fill="#222222" stroke="white"/>
<path d="M1387.76 982.306C1408.86 982.306 1425.95 965.209 1425.95 944.118C1425.95 923.027 1408.86 905.93 1387.76 905.93C1366.67 905.93 1349.58 923.027 1349.58 944.118C1349.58 965.209 1366.67 982.306 1387.76 982.306Z" fill="#222222" stroke="white"/>
<path d="M475.412 240.776C507.418 240.776 533.365 214.83 533.365 182.823C533.365 150.817 507.418 124.87 475.412 124.87C443.405 124.87 417.459 150.817 417.459 182.823C417.459 214.83 443.405 240.776 475.412 240.776Z" fill="#222222" stroke="white"/>
<path d="M1005.88 660.364C1014.66 660.364 1021.78 653.249 1021.78 644.471C1021.78 635.694 1014.66 628.578 1005.88 628.578C997.105 628.578 989.989 635.694 989.989 644.471C989.989 653.249 997.105 660.364 1005.88 660.364Z" fill="#222222" stroke="white"/>
<path d="M775.412 1074.22C782.357 1074.22 787.987 1068.59 787.987 1061.65C787.987 1054.7 782.357 1049.07 775.412 1049.07C768.467 1049.07 762.836 1054.7 762.836 1061.65C762.836 1068.59 768.467 1074.22 775.412 1074.22Z" fill="#222222" stroke="white"/>
<path d="M1256.82 660.882C1291.42 660.882 1319.47 632.834 1319.47 598.235C1319.47 563.636 1291.42 535.588 1256.82 535.588C1222.22 535.588 1194.18 563.636 1194.18 598.235C1194.18 632.834 1222.22 660.882 1256.82 660.882Z" fill="#222222" stroke="white"/>
<path d="M834 402.869C847.149 402.869 857.809 392.209 857.809 379.059C857.809 365.91 847.149 355.25 834 355.25C820.85 355.25 810.19 365.91 810.19 379.059C810.19 392.209 820.85 402.869 834 402.869Z" fill="#222222" stroke="white"/>
<path d="M1305.53 794.411C1313.49 794.411 1319.94 787.959 1319.94 780C1319.94 772.042 1313.49 765.59 1305.53 765.59C1297.57 765.59 1291.12 772.042 1291.12 780C1291.12 787.959 1297.57 794.411 1305.53 794.411Z" fill="#222222" stroke="white"/>
<path d="M1505.65 638.353C1512.8 638.353 1518.59 632.559 1518.59 625.411C1518.59 618.263 1512.8 612.469 1505.65 612.469C1498.5 612.469 1492.7 618.263 1492.7 625.411C1492.7 632.559 1498.5 638.353 1505.65 638.353Z" fill="#222222" stroke="white"/>
<path d="M1859.29 750.106C1887.62 750.106 1910.58 727.146 1910.58 698.823C1910.58 670.501 1887.62 647.541 1859.29 647.541C1830.97 647.541 1808.01 670.501 1808.01 698.823C1808.01 727.146 1830.97 750.106 1859.29 750.106Z" fill="#222222" stroke="white"/>
<path d="M196.941 599.301C209.225 599.301 219.183 589.343 219.183 577.059C219.183 564.775 209.225 554.816 196.941 554.816C184.657 554.816 174.699 564.775 174.699 577.059C174.699 589.343 184.657 599.301 196.941 599.301Z" fill="#222222" stroke="white"/>
<path d="M876.706 395.195C886.982 395.195 895.313 386.864 895.313 376.588C895.313 366.311 886.982 357.98 876.706 357.98C866.429 357.98 858.099 366.311 858.099 376.588C858.099 386.864 866.429 395.195 876.706 395.195Z" fill="#222222" stroke="white"/>
<path d="M749.294 709.66C782.958 709.66 810.247 682.37 810.247 648.707C810.247 615.043 782.958 587.754 749.294 587.754C715.631 587.754 688.341 615.043 688.341 648.707C688.341 682.37 715.631 709.66 749.294 709.66Z" fill="#222222" stroke="white"/>
<path d="M1023.53 161.498C1032.14 161.498 1039.12 154.517 1039.12 145.905C1039.12 137.294 1032.14 130.312 1023.53 130.312C1014.92 130.312 1007.94 137.294 1007.94 145.905C1007.94 154.517 1014.92 161.498 1023.53 161.498Z" fill="#222222" stroke="white"/>
<path d="M1703.29 1074.49C1722.08 1074.49 1737.32 1059.26 1737.32 1040.47C1737.32 1021.68 1722.08 1006.45 1703.29 1006.45C1684.5 1006.45 1669.27 1021.68 1669.27 1040.47C1669.27 1059.26 1684.5 1074.49 1703.29 1074.49Z" fill="#222222" stroke="white"/>
<path d="M39.6352 699.576C56.2291 699.576 69.6811 686.124 69.6811 669.53C69.6811 652.936 56.2291 639.484 39.6352 639.484C23.0414 639.484 9.58936 652.936 9.58936 669.53C9.58936 686.124 23.0414 699.576 39.6352 699.576Z" fill="#222222" stroke="white"/>
<path d="M185.823 232.765C212.684 232.765 234.459 210.99 234.459 184.129C234.459 157.269 212.684 135.494 185.823 135.494C158.963 135.494 137.188 157.269 137.188 184.129C137.188 210.99 158.963 232.765 185.823 232.765Z" fill="#222222" stroke="white"/>
<path d="M591.529 936.967C599.47 936.967 605.908 930.529 605.908 922.588C605.908 914.647 599.47 908.209 591.529 908.209C583.588 908.209 577.15 914.647 577.15 922.588C577.15 930.529 583.588 936.967 591.529 936.967Z" fill="#222222" stroke="white"/>
<path d="M279.282 809.297C291.759 809.297 301.874 799.182 301.874 786.705C301.874 774.228 291.759 764.113 279.282 764.113C266.805 764.113 256.69 774.228 256.69 786.705C256.69 799.182 266.805 809.297 279.282 809.297Z" fill="#222222" stroke="white"/>
<path d="M397.412 853.306C420.549 853.306 439.306 834.549 439.306 811.412C439.306 788.274 420.549 769.518 397.412 769.518C374.274 769.518 355.518 788.274 355.518 811.412C355.518 834.549 374.274 853.306 397.412 853.306Z" fill="#222222" stroke="white"/>
<path d="M263.047 1074.64C286.009 1074.64 304.624 1056.02 304.624 1033.06C304.624 1010.1 286.009 991.482 263.047 991.482C240.085 991.482 221.471 1010.1 221.471 1033.06C221.471 1056.02 240.085 1074.64 263.047 1074.64Z" fill="#222222" stroke="white"/>
<path d="M1273.41 1074.56C1299.26 1074.56 1320.21 1053.61 1320.21 1027.76C1320.21 1001.92 1299.26 980.965 1273.41 980.965C1247.56 980.965 1226.61 1001.92 1226.61 1027.76C1226.61 1053.61 1247.56 1074.56 1273.41 1074.56Z" fill="#222222" stroke="white"/>
<path d="M833.647 354.244C840.76 354.244 846.526 348.478 846.526 341.365C846.526 334.252 840.76 328.486 833.647 328.486C826.534 328.486 820.768 334.252 820.768 341.365C820.768 348.478 826.534 354.244 833.647 354.244Z" fill="#222222" stroke="white"/>
<path d="M1836 249.451C1850.79 249.451 1862.78 237.461 1862.78 222.67C1862.78 207.879 1850.79 195.889 1836 195.889C1821.21 195.889 1809.22 207.879 1809.22 222.67C1809.22 237.461 1821.21 249.451 1836 249.451Z" fill="#222222" stroke="white"/>
<path d="M783.529 919.799C811.033 919.799 833.33 897.503 833.33 869.999C833.33 842.495 811.033 820.199 783.529 820.199C756.026 820.199 733.729 842.495 733.729 869.999C733.729 897.503 756.026 919.799 783.529 919.799Z" fill="#222222" stroke="white"/>
<path d="M753.882 424.165C785.421 424.165 810.988 398.598 810.988 367.059C810.988 335.52 785.421 309.953 753.882 309.953C722.344 309.953 696.776 335.52 696.776 367.059C696.776 398.598 722.344 424.165 753.882 424.165Z" fill="#222222" stroke="white"/>
<path d="M937.412 640.493C956.852 640.493 972.611 624.734 972.611 605.295C972.611 585.855 956.852 570.096 937.412 570.096C917.972 570.096 902.213 585.855 902.213 605.295C902.213 624.734 917.972 640.493 937.412 640.493Z" fill="#222222" stroke="white"/>
<path d="M1342.24 251.753C1359.86 251.753 1374.14 237.468 1374.14 219.847C1374.14 202.226 1359.86 187.941 1342.24 187.941C1324.61 187.941 1310.33 202.226 1310.33 219.847C1310.33 237.468 1324.61 251.753 1342.24 251.753Z" fill="#222222" stroke="white"/>
<path d="M243.776 569.506C276.641 569.506 303.282 542.864 303.282 510C303.282 477.136 276.641 450.494 243.776 450.494C210.912 450.494 184.271 477.136 184.271 510C184.271 542.864 210.912 569.506 243.776 569.506Z" fill="#222222" stroke="white"/>
<path d="M57.6353 368.506C84.1449 368.506 105.635 347.016 105.635 320.506C105.635 293.996 84.1449 272.506 57.6353 272.506C31.1256 272.506 9.63525 293.996 9.63525 320.506C9.63525 347.016 31.1256 368.506 57.6353 368.506Z" fill="#222222" stroke="white"/>
<path d="M1093.06 894.07C1127.01 894.07 1154.54 866.544 1154.54 832.588C1154.54 798.632 1127.01 771.105 1093.06 771.105C1059.1 771.105 1031.58 798.632 1031.58 832.588C1031.58 866.544 1059.1 894.07 1093.06 894.07Z" fill="#222222" stroke="white"/>
<path d="M208.73 435.565C243.251 435.565 271.235 407.58 271.235 373.059C271.235 338.538 243.251 310.553 208.73 310.553C174.208 310.553 146.224 338.538 146.224 373.059C146.224 407.58 174.208 435.565 208.73 435.565Z" fill="#222222" stroke="white"/>
<path d="M445.412 679.059C468.218 679.059 486.706 660.571 486.706 637.765C486.706 614.959 468.218 596.471 445.412 596.471C422.606 596.471 404.118 614.959 404.118 637.765C404.118 660.571 422.606 679.059 445.412 679.059Z" fill="#222222" stroke="white"/>
<path d="M139.871 522.776C168.368 522.776 191.471 499.674 191.471 471.176C191.471 442.678 168.368 419.576 139.871 419.576C111.373 419.576 88.2705 442.678 88.2705 471.176C88.2705 499.674 111.373 522.776 139.871 522.776Z" fill="#222222" stroke="white"/>
<path d="M1304.82 551.537C1315.09 551.537 1323.42 543.211 1323.42 532.94C1323.42 522.67 1315.09 514.344 1304.82 514.344C1294.55 514.344 1286.23 522.67 1286.23 532.94C1286.23 543.211 1294.55 551.537 1304.82 551.537Z" fill="#222222" stroke="white"/>
<path d="M1592.47 657.095C1608.8 657.095 1622.04 643.858 1622.04 627.529C1622.04 611.2 1608.8 597.963 1592.47 597.963C1576.14 597.963 1562.9 611.2 1562.9 627.529C1562.9 643.858 1576.14 657.095 1592.47 657.095Z" fill="#222222" stroke="white"/>
<path d="M1154.82 1074.72C1168.28 1074.72 1179.19 1063.81 1179.19 1050.35C1179.19 1036.9 1168.28 1025.99 1154.82 1025.99C1141.37 1025.99 1130.46 1036.9 1130.46 1050.35C1130.46 1063.81 1141.37 1074.72 1154.82 1074.72Z" fill="#222222" stroke="white"/>
<path d="M1231.06 93.6881C1238.55 93.6881 1244.63 87.6123 1244.63 80.1175C1244.63 72.6226 1238.55 66.5469 1231.06 66.5469C1223.56 66.5469 1217.49 72.6226 1217.49 80.1175C1217.49 87.6123 1223.56 93.6881 1231.06 93.6881Z" fill="#222222" stroke="white"/>
<path d="M1474.24 414.706C1502.3 414.706 1525.06 391.951 1525.06 363.882C1525.06 335.813 1502.3 313.059 1474.24 313.059C1446.17 313.059 1423.41 335.813 1423.41 363.882C1423.41 391.951 1446.17 414.706 1474.24 414.706Z" fill="#222222" stroke="white"/>
<path d="M1544.82 642.65C1554.93 642.65 1563.12 634.458 1563.12 624.353C1563.12 614.248 1554.93 606.057 1544.82 606.057C1534.72 606.057 1526.53 614.248 1526.53 624.353C1526.53 634.458 1534.72 642.65 1544.82 642.65Z" fill="#222222" stroke="white"/>
<path d="M561.882 495.67C591.589 495.67 615.671 471.588 615.671 441.882C615.671 412.176 591.589 388.094 561.882 388.094C532.176 388.094 508.094 412.176 508.094 441.882C508.094 471.588 532.176 495.67 561.882 495.67Z" fill="#222222" stroke="white"/>
<path d="M766.588 510.338C781.589 510.338 793.75 498.177 793.75 483.176C793.75 468.175 781.589 456.014 766.588 456.014C751.587 456.014 739.426 468.175 739.426 483.176C739.426 498.177 751.587 510.338 766.588 510.338Z" fill="#222222" stroke="white"/>
<path d="M206.224 310.674C214.867 310.674 221.873 303.667 221.873 295.024C221.873 286.381 214.867 279.375 206.224 279.375C197.581 279.375 190.574 286.381 190.574 295.024C190.574 303.667 197.581 310.674 206.224 310.674Z" fill="#222222" stroke="white"/>
<path d="M1794 613.271C1821.99 613.271 1844.68 590.58 1844.68 562.589C1844.68 534.598 1821.99 511.906 1794 511.906C1766.01 511.906 1743.32 534.598 1743.32 562.589C1743.32 590.58 1766.01 613.271 1794 613.271Z" fill="#222222" stroke="white"/>
<path d="M1204.59 1074.56C1218.54 1074.56 1229.86 1063.25 1229.86 1049.29C1229.86 1035.34 1218.54 1024.03 1204.59 1024.03C1190.63 1024.03 1179.32 1035.34 1179.32 1049.29C1179.32 1063.25 1190.63 1074.56 1204.59 1074.56Z" fill="#222222" stroke="white"/>
<path d="M986.47 367.095C1013.35 367.095 1035.14 345.305 1035.14 318.424C1035.14 291.544 1013.35 269.754 986.47 269.754C959.59 269.754 937.8 291.544 937.8 318.424C937.8 345.305 959.59 367.095 986.47 367.095Z" fill="#222222" stroke="white"/>
<path d="M851.647 654.74C879.541 654.74 902.153 632.128 902.153 604.234C902.153 576.341 879.541 553.729 851.647 553.729C823.753 553.729 801.141 576.341 801.141 604.234C801.141 632.128 823.753 654.74 851.647 654.74Z" fill="#222222" stroke="white"/>
<path d="M1327.76 959.259C1340.03 959.259 1349.96 949.32 1349.96 937.059C1349.96 924.799 1340.03 914.859 1327.76 914.859C1315.5 914.859 1305.56 924.799 1305.56 937.059C1305.56 949.32 1315.5 959.259 1327.76 959.259Z" fill="#222222" stroke="white"/>
<path d="M429.529 552.448C443.812 552.448 455.389 540.871 455.389 526.589C455.389 512.306 443.812 500.729 429.529 500.729C415.247 500.729 403.669 512.306 403.669 526.589C403.669 540.871 415.247 552.448 429.529 552.448Z" fill="#222222" stroke="white"/>
<path d="M802.588 468.798C819.013 468.798 832.327 455.483 832.327 439.059C832.327 422.635 819.013 409.32 802.588 409.32C786.164 409.32 772.85 422.635 772.85 439.059C772.85 455.483 786.164 468.798 802.588 468.798Z" fill="#222222" stroke="white"/>
<path d="M1593.18 859.094C1616 859.094 1634.51 840.591 1634.51 817.765C1634.51 794.939 1616 776.436 1593.18 776.436C1570.35 776.436 1551.85 794.939 1551.85 817.765C1551.85 840.591 1570.35 859.094 1593.18 859.094Z" fill="#222222" stroke="white"/>
<path d="M1706.82 1002.94C1713.77 1002.94 1719.41 997.303 1719.41 990.354C1719.41 983.405 1713.77 977.771 1706.82 977.771C1699.87 977.771 1694.24 983.405 1694.24 990.354C1694.24 997.303 1699.87 1002.94 1706.82 1002.94Z" fill="#222222" stroke="white"/>
<path d="M1422.71 851.28C1439.66 851.28 1453.4 837.539 1453.4 820.588C1453.4 803.638 1439.66 789.896 1422.71 789.896C1405.76 789.896 1392.01 803.638 1392.01 820.588C1392.01 837.539 1405.76 851.28 1422.71 851.28Z" fill="#222222" stroke="white"/>
<path d="M127.553 353.039C139.186 353.039 148.616 343.609 148.616 331.976C148.616 320.343 139.186 310.912 127.553 310.912C115.92 310.912 106.489 320.343 106.489 331.976C106.489 343.609 115.92 353.039 127.553 353.039Z" fill="#222222" stroke="white"/>
<path d="M1123.06 195.212C1154.13 195.212 1179.32 170.024 1179.32 138.953C1179.32 107.882 1154.13 82.6943 1123.06 82.6943C1091.99 82.6943 1066.8 107.882 1066.8 138.953C1066.8 170.024 1091.99 195.212 1123.06 195.212Z" fill="#222222" stroke="white"/>
<path d="M552 976.55C569.132 976.55 583.02 962.662 583.02 945.53C583.02 928.398 569.132 914.51 552 914.51C534.868 914.51 520.98 928.398 520.98 945.53C520.98 962.662 534.868 976.55 552 976.55Z" fill="#222222" stroke="white"/>
<path d="M46.8353 462.989C67.4583 462.989 84.1765 446.271 84.1765 425.648C84.1765 405.025 67.4583 388.307 46.8353 388.307C26.2124 388.307 9.49414 405.025 9.49414 425.648C9.49414 446.271 26.2124 462.989 46.8353 462.989Z" fill="#222222" stroke="white"/>
<path d="M540 871.529C552.149 871.529 561.999 861.68 561.999 849.53C561.999 837.38 552.149 827.531 540 827.531C527.85 827.531 518.001 837.38 518.001 849.53C518.001 861.68 527.85 871.529 540 871.529Z" fill="#222222" stroke="white"/>
<path d="M1337.65 443.611C1363.16 443.611 1383.85 422.926 1383.85 397.411C1383.85 371.895 1363.16 351.211 1337.65 351.211C1312.13 351.211 1291.45 371.895 1291.45 397.411C1291.45 422.926 1312.13 443.611 1337.65 443.611Z" fill="#222222" stroke="white"/>
<path d="M639.53 938.823C660.971 938.823 678.353 921.441 678.353 899.999C678.353 878.558 660.971 861.176 639.53 861.176C618.088 861.176 600.706 878.558 600.706 899.999C600.706 921.441 618.088 938.823 639.53 938.823Z" fill="#222222" stroke="white"/>
<path d="M1635.18 397.27C1657.32 397.27 1675.27 379.32 1675.27 357.176C1675.27 335.033 1657.32 317.082 1635.18 317.082C1613.03 317.082 1595.08 335.033 1595.08 357.176C1595.08 379.32 1613.03 397.27 1635.18 397.27Z" fill="#222222" stroke="white"/>
<path d="M681.177 1074.68C698.316 1074.68 712.211 1060.79 712.211 1043.65C712.211 1026.51 698.316 1012.61 681.177 1012.61C664.037 1012.61 650.143 1026.51 650.143 1043.65C650.143 1060.79 664.037 1074.68 681.177 1074.68Z" fill="#222222" stroke="white"/>
<path d="M56.0821 826.518C81.7731 826.518 102.6 805.691 102.6 780C102.6 754.309 81.7731 733.482 56.0821 733.482C30.3911 733.482 9.56445 754.309 9.56445 780C9.56445 805.691 30.3911 826.518 56.0821 826.518Z" fill="#222222" stroke="white"/>
<path d="M1558.59 130.271C1593.07 130.271 1621.02 102.318 1621.02 67.8357C1621.02 33.3536 1593.07 5.40039 1558.59 5.40039C1524.11 5.40039 1496.15 33.3536 1496.15 67.8357C1496.15 102.318 1524.11 130.271 1558.59 130.271Z" fill="#222222" stroke="white"/>
<path d="M280.094 331.439C294.729 331.439 306.593 319.575 306.593 304.94C306.593 290.305 294.729 278.441 280.094 278.441C265.459 278.441 253.595 290.305 253.595 304.94C253.595 319.575 265.459 331.439 280.094 331.439Z" fill="#222222" stroke="white"/>
<path d="M1142.82 470.93C1173.1 470.93 1197.64 446.39 1197.64 416.118C1197.64 385.847 1173.1 361.307 1142.82 361.307C1112.55 361.307 1088.01 385.847 1088.01 416.118C1088.01 446.39 1112.55 470.93 1142.82 470.93Z" fill="#222222" stroke="white"/>
<path d="M298.765 999.459C322.506 999.459 341.753 980.212 341.753 956.471C341.753 932.729 322.506 913.482 298.765 913.482C275.023 913.482 255.776 932.729 255.776 956.471C255.776 980.212 275.023 999.459 298.765 999.459Z" fill="#222222" stroke="white"/>
<path d="M985.765 944.752C1018.08 944.752 1044.28 918.553 1044.28 886.234C1044.28 853.916 1018.08 827.717 985.765 827.717C953.446 827.717 927.247 853.916 927.247 886.234C927.247 918.553 953.446 944.752 985.765 944.752Z" fill="#222222" stroke="white"/>
<path d="M1238.82 207.452C1255.62 207.452 1269.24 193.834 1269.24 177.036C1269.24 160.237 1255.62 146.619 1238.82 146.619C1222.03 146.619 1208.41 160.237 1208.41 177.036C1208.41 193.834 1222.03 207.452 1238.82 207.452Z" fill="#222222" stroke="white"/>
<path d="M94.2354 742.73C114.196 742.73 130.377 726.549 130.377 706.588C130.377 686.628 114.196 670.447 94.2354 670.447C74.2752 670.447 58.0942 686.628 58.0942 706.588C58.0942 726.549 74.2752 742.73 94.2354 742.73Z" fill="#222222" stroke="white"/>
<path d="M898.941 367.168C906.214 367.168 912.109 361.273 912.109 354C912.109 346.728 906.214 340.832 898.941 340.832C891.669 340.832 885.773 346.728 885.773 354C885.773 361.273 891.669 367.168 898.941 367.168Z" fill="#222222" stroke="white"/>
<path d="M1396.94 661.708C1413.09 661.708 1426.18 648.618 1426.18 632.47C1426.18 616.323 1413.09 603.232 1396.94 603.232C1380.79 603.232 1367.7 616.323 1367.7 632.47C1367.7 648.618 1380.79 661.708 1396.94 661.708Z" fill="#222222" stroke="white"/>
<path d="M380.118 475.835C407.251 475.835 429.247 453.839 429.247 426.706C429.247 399.572 407.251 377.576 380.118 377.576C352.984 377.576 330.988 399.572 330.988 426.706C330.988 453.839 352.984 475.835 380.118 475.835Z" fill="#222222" stroke="white"/>
<path d="M1417.41 328.305C1449.75 328.305 1475.96 302.09 1475.96 269.752C1475.96 237.414 1449.75 211.199 1417.41 211.199C1385.07 211.199 1358.86 237.414 1358.86 269.752C1358.86 302.09 1385.07 328.305 1417.41 328.305Z" fill="#222222" stroke="white"/>
<path d="M387.882 770.153C418.31 770.153 442.976 745.487 442.976 715.059C442.976 684.631 418.31 659.965 387.882 659.965C357.455 659.965 332.788 684.631 332.788 715.059C332.788 745.487 357.455 770.153 387.882 770.153Z" fill="#222222" stroke="white"/>
<path d="M1502.82 867.318C1530 867.318 1552.02 845.29 1552.02 818.118C1552.02 790.946 1530 768.918 1502.82 768.918C1475.65 768.918 1453.62 790.946 1453.62 818.118C1453.62 845.29 1475.65 867.318 1502.82 867.318Z" fill="#222222" stroke="white"/>
<path d="M562.941 593.047C589.899 593.047 611.753 571.194 611.753 544.236C611.753 517.278 589.899 495.424 562.941 495.424C535.983 495.424 514.129 517.278 514.129 544.236C514.129 571.194 535.983 593.047 562.941 593.047Z" fill="#222222" stroke="white"/>
<path d="M657.882 862.942C680.689 862.942 699.177 844.454 699.177 821.648C699.177 798.842 680.689 780.354 657.882 780.354C635.076 780.354 616.588 798.842 616.588 821.648C616.588 844.454 635.076 862.942 657.882 862.942Z" fill="#222222" stroke="white"/>
<path d="M1599.88 598.34C1625.87 598.34 1646.93 577.277 1646.93 551.293C1646.93 525.31 1625.87 504.246 1599.88 504.246C1573.9 504.246 1552.84 525.31 1552.84 551.293C1552.84 577.277 1573.9 598.34 1599.88 598.34Z" fill="#222222" stroke="white"/>
<path d="M1726.24 982.85C1742.36 982.85 1755.44 969.776 1755.44 953.648C1755.44 937.52 1742.36 924.445 1726.24 924.445C1710.11 924.445 1697.03 937.52 1697.03 953.648C1697.03 969.776 1710.11 982.85 1726.24 982.85Z" fill="#222222" stroke="white"/>
<path d="M579.882 85.1996C601.928 85.1996 619.8 67.3278 619.8 45.2819C619.8 23.236 601.928 5.36426 579.882 5.36426C557.837 5.36426 539.965 23.236 539.965 45.2819C539.965 67.3278 557.837 85.1996 579.882 85.1996Z" fill="#222222" stroke="white"/>
<path d="M1458.35 945.495C1483.09 945.495 1503.14 925.442 1503.14 900.706C1503.14 875.97 1483.09 855.918 1458.35 855.918C1433.62 855.918 1413.56 875.97 1413.56 900.706C1413.56 925.442 1433.62 945.495 1458.35 945.495Z" fill="#222222" stroke="white"/>
<path d="M1874.47 77.0819C1894.27 77.0819 1910.33 61.0274 1910.33 41.2231C1910.33 21.4188 1894.27 5.36426 1874.47 5.36426C1854.67 5.36426 1838.61 21.4188 1838.61 41.2231C1838.61 61.0274 1854.67 77.0819 1874.47 77.0819Z" fill="#222222" stroke="white"/>
<path d="M739.412 1019.05C749.024 1019.05 756.815 1011.26 756.815 1001.65C756.815 992.036 749.024 984.244 739.412 984.244C729.8 984.244 722.008 992.036 722.008 1001.65C722.008 1011.26 729.8 1019.05 739.412 1019.05Z" fill="#222222" stroke="white"/>
<path d="M49.8707 959.682C72.1115 959.682 90.1413 941.652 90.1413 919.411C90.1413 897.17 72.1115 879.141 49.8707 879.141C27.6299 879.141 9.6001 897.17 9.6001 919.411C9.6001 941.652 27.6299 959.682 49.8707 959.682Z" fill="#222222" stroke="white"/>
<path d="M137.894 42.3137C148.102 42.3137 156.378 34.0384 156.378 23.8302C156.378 13.622 148.102 5.34668 137.894 5.34668C127.686 5.34668 119.411 13.622 119.411 23.8302C119.411 34.0384 127.686 42.3137 137.894 42.3137Z" fill="#222222" stroke="white"/>
<path d="M1304.12 765.488C1310.72 765.488 1316.08 760.134 1316.08 753.53C1316.08 746.926 1310.72 741.572 1304.12 741.572C1297.51 741.572 1292.16 746.926 1292.16 753.53C1292.16 760.134 1297.51 765.488 1304.12 765.488Z" fill="#222222" stroke="white"/>
<path d="M240.424 291.494C261.943 291.494 279.388 274.049 279.388 252.529C279.388 231.01 261.943 213.564 240.424 213.564C218.904 213.564 201.459 231.01 201.459 252.529C201.459 274.049 218.904 291.494 240.424 291.494Z" fill="#222222" stroke="white"/>
<path d="M1401.18 212.365C1429.75 212.365 1452.92 189.2 1452.92 160.624C1452.92 132.048 1429.75 108.883 1401.18 108.883C1372.6 108.883 1349.44 132.048 1349.44 160.624C1349.44 189.2 1372.6 212.365 1401.18 212.365Z" fill="#222222" stroke="white"/>
<path d="M533.647 826.941C560.936 826.941 583.059 804.818 583.059 777.529C583.059 750.24 560.936 728.117 533.647 728.117C506.358 728.117 484.235 750.24 484.235 777.529C484.235 804.818 506.358 826.941 533.647 826.941Z" fill="#222222" stroke="white"/>
<path d="M715.412 988.695C741.59 988.695 762.812 967.473 762.812 941.295C762.812 915.116 741.59 893.895 715.412 893.895C689.233 893.895 668.012 915.116 668.012 941.295C668.012 967.473 689.233 988.695 715.412 988.695Z" fill="#222222" stroke="white"/>
<path d="M1049.29 440.733C1067.76 440.733 1082.73 425.762 1082.73 407.295C1082.73 388.828 1067.76 373.857 1049.29 373.857C1030.83 373.857 1015.86 388.828 1015.86 407.295C1015.86 425.762 1030.83 440.733 1049.29 440.733Z" fill="#222222" stroke="white"/>
<path d="M324.353 848.29C341.797 848.29 355.937 834.15 355.937 816.706C355.937 799.262 341.797 785.121 324.353 785.121C306.909 785.121 292.768 799.262 292.768 816.706C292.768 834.15 306.909 848.29 324.353 848.29Z" fill="#222222" stroke="white"/>
<path d="M1769.65 130.309C1780.43 130.309 1789.17 121.569 1789.17 110.788C1789.17 100.007 1780.43 91.2666 1769.65 91.2666C1758.87 91.2666 1750.13 100.007 1750.13 110.788C1750.13 121.569 1758.87 130.309 1769.65 130.309Z" fill="#222222" stroke="white"/>
<path d="M756.353 220.659C787.56 220.659 812.859 195.361 812.859 164.153C812.859 132.946 787.56 107.647 756.353 107.647C725.146 107.647 699.847 132.946 699.847 164.153C699.847 195.361 725.146 220.659 756.353 220.659Z" fill="#222222" stroke="white"/>
<path d="M1678.24 964.033C1689.04 964.033 1697.8 955.274 1697.8 944.47C1697.8 933.665 1689.04 924.906 1678.24 924.906C1667.43 924.906 1658.67 933.665 1658.67 944.47C1658.67 955.274 1667.43 964.033 1678.24 964.033Z" fill="#222222" stroke="white"/>
<path d="M658.588 230.577C682.798 230.577 702.424 210.951 702.424 186.742C702.424 162.532 682.798 142.906 658.588 142.906C634.379 142.906 614.753 162.532 614.753 186.742C614.753 210.951 634.379 230.577 658.588 230.577Z" fill="#222222" stroke="white"/>
<path d="M1465.06 603.079C1471.83 603.079 1477.31 597.592 1477.31 590.824C1477.31 584.057 1471.83 578.57 1465.06 578.57C1458.29 578.57 1452.8 584.057 1452.8 590.824C1452.8 597.592 1458.29 603.079 1465.06 603.079Z" fill="#222222" stroke="white"/>
<path d="M1116.35 774.177C1133.99 774.177 1148.29 759.877 1148.29 742.236C1148.29 724.595 1133.99 710.295 1116.35 710.295C1098.71 710.295 1084.41 724.595 1084.41 742.236C1084.41 759.877 1098.71 774.177 1116.35 774.177Z" fill="#222222" stroke="white"/>
<path d="M1172.82 774.607C1186.61 774.607 1197.78 763.432 1197.78 749.647C1197.78 735.862 1186.61 724.688 1172.82 724.688C1159.04 724.688 1147.86 735.862 1147.86 749.647C1147.86 763.432 1159.04 774.607 1172.82 774.607Z" fill="#222222" stroke="white"/>
<path d="M1389.18 1012.25C1397.17 1012.25 1403.66 1005.76 1403.66 997.764C1403.66 989.767 1397.17 983.283 1389.18 983.283C1381.18 983.283 1374.7 989.767 1374.7 997.764C1374.7 1005.76 1381.18 1012.25 1389.18 1012.25Z" fill="#222222" stroke="white"/>
<path d="M479.647 601.342C500.075 601.342 516.635 584.781 516.635 564.353C516.635 543.925 500.075 527.365 479.647 527.365C459.219 527.365 442.659 543.925 442.659 564.353C442.659 584.781 459.219 601.342 479.647 601.342Z" fill="#222222" stroke="white"/>
<path d="M1788 971.736C1807.15 971.736 1822.68 956.211 1822.68 937.059C1822.68 917.908 1807.15 902.383 1788 902.383C1768.85 902.383 1753.32 917.908 1753.32 937.059C1753.32 956.211 1768.85 971.736 1788 971.736Z" fill="#222222" stroke="white"/>
<path d="M24.8751 281.787C33.3153 281.787 40.1575 274.945 40.1575 266.505C40.1575 258.065 33.3153 251.223 24.8751 251.223C16.4349 251.223 9.59277 258.065 9.59277 266.505C9.59277 274.945 16.4349 281.787 24.8751 281.787Z" fill="#222222" stroke="white"/>
<path d="M1676.47 326.223C1708.81 326.223 1735.02 300.008 1735.02 267.67C1735.02 235.332 1708.81 209.117 1676.47 209.117C1644.13 209.117 1617.92 235.332 1617.92 267.67C1617.92 300.008 1644.13 326.223 1676.47 326.223Z" fill="#222222" stroke="white"/>
<path d="M672 1012.96C679.61 1012.96 685.779 1006.79 685.779 999.177C685.779 991.567 679.61 985.398 672 985.398C664.39 985.398 658.221 991.567 658.221 999.177C658.221 1006.79 664.39 1012.96 672 1012.96Z" fill="#222222" stroke="white"/>
<path d="M1219.06 1012.75C1226.17 1012.75 1231.93 1006.99 1231.93 999.882C1231.93 992.775 1226.17 987.014 1219.06 987.014C1211.95 987.014 1206.19 992.775 1206.19 999.882C1206.19 1006.99 1211.95 1012.75 1219.06 1012.75Z" fill="#222222" stroke="white"/>
<path d="M1080.35 532.976C1103.76 532.976 1122.74 513.998 1122.74 490.587C1122.74 467.177 1103.76 448.199 1080.35 448.199C1056.94 448.199 1037.96 467.177 1037.96 490.587C1037.96 513.998 1056.94 532.976 1080.35 532.976Z" fill="#222222" stroke="white"/>
<path d="M860.824 452.025C876.367 452.025 888.967 439.425 888.967 423.882C888.967 408.339 876.367 395.738 860.824 395.738C845.28 395.738 832.68 408.339 832.68 423.882C832.68 439.425 845.28 452.025 860.824 452.025Z" fill="#222222" stroke="white"/>
<path d="M1395.53 773.606C1405.64 773.606 1413.84 765.408 1413.84 755.295C1413.84 745.182 1405.64 736.984 1395.53 736.984C1385.42 736.984 1377.22 745.182 1377.22 755.295C1377.22 765.408 1385.42 773.606 1395.53 773.606Z" fill="#222222" stroke="white"/>
<path d="M395.647 1022.82C425.861 1022.82 450.353 998.331 450.353 968.118C450.353 937.905 425.861 913.412 395.647 913.412C365.434 913.412 340.941 937.905 340.941 968.118C340.941 998.331 365.434 1022.82 395.647 1022.82Z" fill="#222222" stroke="white"/>
<path d="M418.588 501.872C429.108 501.872 437.637 493.344 437.637 482.824C437.637 472.304 429.108 463.775 418.588 463.775C408.068 463.775 399.54 472.304 399.54 482.824C399.54 493.344 408.068 501.872 418.588 501.872Z" fill="#222222" stroke="white"/>
<path d="M968.471 827.152C994.707 827.152 1015.98 805.883 1015.98 779.646C1015.98 753.41 994.707 732.141 968.471 732.141C942.234 732.141 920.965 753.41 920.965 779.646C920.965 805.883 942.234 827.152 968.471 827.152Z" fill="#222222" stroke="white"/>
<path d="M1084.94 232.295C1097.88 232.295 1108.37 221.807 1108.37 208.87C1108.37 195.933 1097.88 185.445 1084.94 185.445C1072 185.445 1061.52 195.933 1061.52 208.87C1061.52 221.807 1072 232.295 1084.94 232.295Z" fill="#222222" stroke="white"/>
<path d="M1560 399.254C1579.34 399.254 1595.02 383.576 1595.02 364.236C1595.02 344.895 1579.34 329.217 1560 329.217C1540.66 329.217 1524.98 344.895 1524.98 364.236C1524.98 383.576 1540.66 399.254 1560 399.254Z" fill="#222222" stroke="white"/>
<path d="M572.117 737.475C591.125 737.475 606.533 722.067 606.533 703.06C606.533 684.053 591.125 668.645 572.117 668.645C553.11 668.645 537.702 684.053 537.702 703.06C537.702 722.067 553.11 737.475 572.117 737.475Z" fill="#222222" stroke="white"/>
<path d="M1266 145.349C1279.57 145.349 1290.57 134.347 1290.57 120.777C1290.57 107.206 1279.57 96.2051 1266 96.2051C1252.43 96.2051 1241.43 107.206 1241.43 120.777C1241.43 134.347 1252.43 145.349 1266 145.349Z" fill="#222222" stroke="white"/>
<path d="M1491.53 968.128C1500.31 968.128 1507.42 961.012 1507.42 952.235C1507.42 943.457 1500.31 936.342 1491.53 936.342C1482.75 936.342 1475.64 943.457 1475.64 952.235C1475.64 961.012 1482.75 968.128 1491.53 968.128Z" fill="#222222" stroke="white"/>
<path d="M304.165 101.294C330.655 101.294 352.13 79.8191 352.13 53.329C352.13 26.8388 330.655 5.36426 304.165 5.36426C277.675 5.36426 256.2 26.8388 256.2 53.329C256.2 79.8191 277.675 101.294 304.165 101.294Z" fill="#222222" stroke="white"/>
<path d="M598.941 960.172C605.664 960.172 611.114 954.722 611.114 947.999C611.114 941.276 605.664 935.826 598.941 935.826C592.218 935.826 586.768 941.276 586.768 947.999C586.768 954.722 592.218 960.172 598.941 960.172Z" fill="#222222" stroke="white"/>
<path d="M1016.47 626.647C1043.27 626.647 1065 604.919 1065 578.117C1065 551.315 1043.27 529.588 1016.47 529.588C989.669 529.588 967.941 551.315 967.941 578.117C967.941 604.919 989.669 626.647 1016.47 626.647Z" fill="#222222" stroke="white"/>
<path d="M305.012 423.825C324.473 423.825 340.249 408.048 340.249 388.587C340.249 369.126 324.473 353.35 305.012 353.35C285.55 353.35 269.774 369.126 269.774 388.587C269.774 408.048 285.55 423.825 305.012 423.825Z" fill="#222222" stroke="white"/>
<path d="M1750.94 238.518C1778.6 238.518 1801.02 216.096 1801.02 188.436C1801.02 160.776 1778.6 138.354 1750.94 138.354C1723.28 138.354 1700.86 160.776 1700.86 188.436C1700.86 216.096 1723.28 238.518 1750.94 238.518Z" fill="#222222" stroke="white"/>
<path d="M163.588 836.33C197.427 836.33 224.859 808.898 224.859 775.06C224.859 741.221 197.427 713.789 163.588 713.789C129.749 713.789 102.317 741.221 102.317 775.06C102.317 808.898 129.749 836.33 163.588 836.33Z" fill="#222222" stroke="white"/>
<path d="M1182.35 836.965C1199.78 836.965 1213.91 822.839 1213.91 805.412C1213.91 787.986 1199.78 773.859 1182.35 773.859C1164.93 773.859 1150.8 787.986 1150.8 805.412C1150.8 822.839 1164.93 836.965 1182.35 836.965Z" fill="#222222" stroke="white"/>
<path d="M900.706 1028.38C913.325 1028.38 923.555 1018.15 923.555 1005.53C923.555 992.91 913.325 982.68 900.706 982.68C888.086 982.68 877.856 992.91 877.856 1005.53C877.856 1018.15 888.086 1028.38 900.706 1028.38Z" fill="#222222" stroke="white"/>
<path d="M1018.59 697.167C1029.37 697.167 1038.11 688.427 1038.11 677.646C1038.11 666.865 1029.37 658.125 1018.59 658.125C1007.81 658.125 999.067 666.865 999.067 677.646C999.067 688.427 1007.81 697.167 1018.59 697.167Z" fill="#222222" stroke="white"/>
<path d="M1695.88 594.812C1723.04 594.812 1745.05 572.8 1745.05 545.647C1745.05 518.494 1723.04 496.482 1695.88 496.482C1668.73 496.482 1646.72 518.494 1646.72 545.647C1646.72 572.8 1668.73 594.812 1695.88 594.812Z" fill="#222222" stroke="white"/>
<path d="M372.353 524.401C384.789 524.401 394.871 514.319 394.871 501.883C394.871 489.447 384.789 479.365 372.353 479.365C359.917 479.365 349.835 489.447 349.835 501.883C349.835 514.319 359.917 524.401 372.353 524.401Z" fill="#222222" stroke="white"/>
<path d="M602.824 675.988C622.959 675.988 639.282 659.665 639.282 639.529C639.282 619.393 622.959 603.07 602.824 603.07C582.688 603.07 566.365 619.393 566.365 639.529C566.365 659.665 582.688 675.988 602.824 675.988Z" fill="#222222" stroke="white"/>
<path d="M1289.29 179.611C1300.58 179.611 1309.73 170.462 1309.73 159.176C1309.73 147.889 1300.58 138.74 1289.29 138.74C1278.01 138.74 1268.86 147.889 1268.86 159.176C1268.86 170.462 1278.01 179.611 1289.29 179.611Z" fill="#222222" stroke="white"/>
<path d="M1411.76 739.483C1432.08 739.483 1448.54 723.017 1448.54 702.706C1448.54 682.395 1432.08 665.93 1411.76 665.93C1391.45 665.93 1374.99 682.395 1374.99 702.706C1374.99 723.017 1391.45 739.483 1411.76 739.483Z" fill="#222222" stroke="white"/>
<path d="M884.824 891.142C914.433 891.142 938.436 867.139 938.436 837.53C938.436 807.921 914.433 783.918 884.824 783.918C855.215 783.918 831.212 807.921 831.212 837.53C831.212 867.139 855.215 891.142 884.824 891.142Z" fill="#222222" stroke="white"/>
<path d="M845.294 503.213C860.063 503.213 872.036 491.24 872.036 476.471C872.036 461.701 860.063 449.729 845.294 449.729C830.525 449.729 818.552 461.701 818.552 476.471C818.552 491.24 830.525 503.213 845.294 503.213Z" fill="#222222" stroke="white"/>
<path d="M245.682 928.024C279.677 928.024 307.235 900.466 307.235 866.471C307.235 832.476 279.677 804.918 245.682 804.918C211.688 804.918 184.129 832.476 184.129 866.471C184.129 900.466 211.688 928.024 245.682 928.024Z" fill="#222222" stroke="white"/>
<path d="M1587.53 259.342C1610.02 259.342 1628.26 241.106 1628.26 218.612C1628.26 196.118 1610.02 177.883 1587.53 177.883C1565.04 177.883 1546.8 196.118 1546.8 218.612C1546.8 241.106 1565.04 259.342 1587.53 259.342Z" fill="#222222" stroke="white"/>
<path d="M1461.53 685.306C1481.94 685.306 1498.48 668.762 1498.48 648.353C1498.48 627.945 1481.94 611.4 1461.53 611.4C1441.12 611.4 1424.58 627.945 1424.58 648.353C1424.58 668.762 1441.12 685.306 1461.53 685.306Z" fill="#222222" stroke="white"/>
<path d="M874.235 350.623C885.859 350.623 895.281 341.2 895.281 329.577C895.281 317.954 885.859 308.531 874.235 308.531C862.612 308.531 853.189 317.954 853.189 329.577C853.189 341.2 862.612 350.623 874.235 350.623Z" fill="#222222" stroke="white"/>
<path d="M515.647 50.4252C528.085 50.4252 538.168 40.3421 538.168 27.904C538.168 15.4659 528.085 5.38281 515.647 5.38281C503.209 5.38281 493.126 15.4659 493.126 27.904C493.126 40.3421 503.209 50.4252 515.647 50.4252Z" fill="#222222" stroke="white"/>
<path d="M538.941 914.939C550.701 914.939 560.234 905.406 560.234 893.646C560.234 881.887 550.701 872.354 538.941 872.354C527.182 872.354 517.648 881.887 517.648 893.646C517.648 905.406 527.182 914.939 538.941 914.939Z" fill="#222222" stroke="white"/>
<path d="M1036.24 285.353C1057.46 285.353 1074.67 268.145 1074.67 246.918C1074.67 225.69 1057.46 208.482 1036.24 208.482C1015.01 208.482 997.8 225.69 997.8 246.918C997.8 268.145 1015.01 285.353 1036.24 285.353Z" fill="#222222" stroke="white"/>
<path d="M285.847 210.918C316.47 210.918 341.294 186.093 341.294 155.47C341.294 124.848 316.47 100.023 285.847 100.023C255.224 100.023 230.4 124.848 230.4 155.47C230.4 186.093 255.224 210.918 285.847 210.918Z" fill="#222222" stroke="white"/>
<path d="M1420.24 506.224C1449.73 506.224 1473.64 482.316 1473.64 452.824C1473.64 423.332 1449.73 399.424 1420.24 399.424C1390.74 399.424 1366.84 423.332 1366.84 452.824C1366.84 482.316 1390.74 506.224 1420.24 506.224Z" fill="#222222" stroke="white"/>
<path d="M346.412 925.518C368.692 925.518 386.753 907.457 386.753 885.177C386.753 862.897 368.692 844.836 346.412 844.836C324.132 844.836 306.071 862.897 306.071 885.177C306.071 907.457 324.132 925.518 346.412 925.518Z" fill="#222222" stroke="white"/>
<path d="M650.823 450.177C673.142 450.177 691.235 432.084 691.235 409.765C691.235 387.446 673.142 369.354 650.823 369.354C628.505 369.354 610.412 387.446 610.412 409.765C610.412 432.084 628.505 450.177 650.823 450.177Z" fill="#222222" stroke="white"/>
<path d="M1661.29 927.213C1686.26 927.213 1706.51 906.971 1706.51 882.001C1706.51 857.031 1686.26 836.789 1661.29 836.789C1636.32 836.789 1616.08 857.031 1616.08 882.001C1616.08 906.971 1636.32 927.213 1661.29 927.213Z" fill="#222222" stroke="white"/>
<path d="M1774.24 803.33C1801.54 803.33 1823.68 781.192 1823.68 753.883C1823.68 726.574 1801.54 704.436 1774.24 704.436C1746.93 704.436 1724.79 726.574 1724.79 753.883C1724.79 781.192 1746.93 803.33 1774.24 803.33Z" fill="#222222" stroke="white"/>
<path d="M1246.24 865.235C1266.41 865.235 1282.76 848.88 1282.76 828.705C1282.76 808.531 1266.41 792.176 1246.24 792.176C1226.06 792.176 1209.71 808.531 1209.71 828.705C1209.71 848.88 1226.06 865.235 1246.24 865.235Z" fill="#222222" stroke="white"/>
<path d="M136.412 981C162.629 981 183.882 959.746 183.882 933.529C183.882 907.312 162.629 886.059 136.412 886.059C110.194 886.059 88.9409 907.312 88.9409 933.529C88.9409 959.746 110.194 981 136.412 981Z" fill="#222222" stroke="white"/>
<path d="M1289.29 246C1301.01 246 1310.51 236.503 1310.51 224.788C1310.51 213.073 1301.01 203.576 1289.29 203.576C1277.58 203.576 1268.08 213.073 1268.08 224.788C1268.08 236.503 1277.58 246 1289.29 246Z" fill="#222222" stroke="white"/>
<path d="M1576.59 434.329C1587.04 434.329 1595.51 425.86 1595.51 415.412C1595.51 404.964 1587.04 396.494 1576.59 396.494C1566.14 396.494 1557.67 404.964 1557.67 415.412C1557.67 425.86 1566.14 434.329 1576.59 434.329Z" fill="#222222" stroke="white"/>
<path d="M361.412 663.035C386.089 663.035 406.094 643.03 406.094 618.352C406.094 593.675 386.089 573.67 361.412 573.67C336.734 573.67 316.729 593.675 316.729 618.352C316.729 643.03 336.734 663.035 361.412 663.035Z" fill="#222222" stroke="white"/>
<path d="M1821.53 76.32C1831.81 76.32 1840.14 67.9862 1840.14 57.7059C1840.14 47.4256 1831.81 39.0918 1821.53 39.0918C1811.25 39.0918 1802.92 47.4256 1802.92 57.7059C1802.92 67.9862 1811.25 76.32 1821.53 76.32Z" fill="#222222" stroke="white"/>
<path d="M1325.65 754.9C1332.25 754.9 1337.6 749.546 1337.6 742.942C1337.6 736.338 1332.25 730.984 1325.65 730.984C1319.04 730.984 1313.69 736.338 1313.69 742.942C1313.69 749.546 1319.04 754.9 1325.65 754.9Z" fill="#222222" stroke="white"/>
<path d="M291.917 618.364C309.272 618.364 323.34 604.296 323.34 586.942C323.34 569.588 309.272 555.52 291.917 555.52C274.563 555.52 260.495 569.588 260.495 586.942C260.495 604.296 274.563 618.364 291.917 618.364Z" fill="#222222" stroke="white"/>
<path d="M158.576 329.061C166.693 329.061 173.273 322.481 173.273 314.364C173.273 306.248 166.693 299.668 158.576 299.668C150.46 299.668 143.88 306.248 143.88 314.364C143.88 322.481 150.46 329.061 158.576 329.061Z" fill="#222222" stroke="white"/>
<path d="M1307.65 355.693C1338.31 355.693 1363.16 330.837 1363.16 300.176C1363.16 269.514 1338.31 244.658 1307.65 244.658C1276.99 244.658 1252.13 269.514 1252.13 300.176C1252.13 330.837 1276.99 355.693 1307.65 355.693Z" fill="#222222" stroke="white"/>
<path d="M1785.88 336.071C1814.54 336.071 1837.76 312.843 1837.76 284.189C1837.76 255.535 1814.54 232.307 1785.88 232.307C1757.23 232.307 1734 255.535 1734 284.189C1734 312.843 1757.23 336.071 1785.88 336.071Z" fill="#222222" stroke="white"/>
<path d="M1190.82 975.671C1225.99 975.671 1254.49 947.165 1254.49 912.001C1254.49 876.836 1225.99 848.33 1190.82 848.33C1155.66 848.33 1127.15 876.836 1127.15 912.001C1127.15 947.165 1155.66 975.671 1190.82 975.671Z" fill="#222222" stroke="white"/>
<path d="M1279.41 804.498C1287.09 804.498 1293.32 798.271 1293.32 790.589C1293.32 782.907 1287.09 776.68 1279.41 776.68C1271.73 776.68 1265.5 782.907 1265.5 790.589C1265.5 798.271 1271.73 804.498 1279.41 804.498Z" fill="#222222" stroke="white"/>
<path d="M478.941 960.036C502.742 960.036 522.035 940.742 522.035 916.942C522.035 893.142 502.742 873.848 478.941 873.848C455.141 873.848 435.847 893.142 435.847 916.942C435.847 940.742 455.141 960.036 478.941 960.036Z" fill="#222222" stroke="white"/>
<path d="M810.706 563.859C830.315 563.859 846.212 547.963 846.212 528.354C846.212 508.744 830.315 492.848 810.706 492.848C791.097 492.848 775.2 508.744 775.2 528.354C775.2 547.963 791.097 563.859 810.706 563.859Z" fill="#222222" stroke="white"/>
<path d="M1857.88 864.248C1886.87 864.248 1910.36 840.751 1910.36 811.766C1910.36 782.78 1886.87 759.283 1857.88 759.283C1828.9 759.283 1805.4 782.78 1805.4 811.766C1805.4 840.751 1828.9 864.248 1857.88 864.248Z" fill="#222222" stroke="white"/>
<path d="M1767.53 704.753C1793.81 704.753 1815.11 683.452 1815.11 657.176C1815.11 630.9 1793.81 609.6 1767.53 609.6C1741.25 609.6 1719.95 630.9 1719.95 657.176C1719.95 683.452 1741.25 704.753 1767.53 704.753Z" fill="#222222" stroke="white"/>
</svg>
